%TF.GenerationSoftware,KiCad,Pcbnew,9.0.6*%
%TF.CreationDate,2025-11-07T06:51:29-08:00*%
%TF.ProjectId,bramble_valve_indexer,6272616d-626c-4655-9f76-616c76655f69,rev?*%
%TF.SameCoordinates,Original*%
%TF.FileFunction,Legend,Top*%
%TF.FilePolarity,Positive*%
%FSLAX46Y46*%
G04 Gerber Fmt 4.6, Leading zero omitted, Abs format (unit mm)*
G04 Created by KiCad (PCBNEW 9.0.6) date 2025-11-07 06:51:29*
%MOMM*%
%LPD*%
G01*
G04 APERTURE LIST*
%ADD10C,0.150000*%
%ADD11C,0.120000*%
%ADD12C,0.152400*%
%ADD13C,0.508000*%
G04 APERTURE END LIST*
D10*
X25585219Y27615542D02*
X25109028Y27282209D01*
X25585219Y27044114D02*
X24585219Y27044114D01*
X24585219Y27044114D02*
X24585219Y27425066D01*
X24585219Y27425066D02*
X24632838Y27520304D01*
X24632838Y27520304D02*
X24680457Y27567923D01*
X24680457Y27567923D02*
X24775695Y27615542D01*
X24775695Y27615542D02*
X24918552Y27615542D01*
X24918552Y27615542D02*
X25013790Y27567923D01*
X25013790Y27567923D02*
X25061409Y27520304D01*
X25061409Y27520304D02*
X25109028Y27425066D01*
X25109028Y27425066D02*
X25109028Y27044114D01*
X25585219Y28567923D02*
X25585219Y27996495D01*
X25585219Y28282209D02*
X24585219Y28282209D01*
X24585219Y28282209D02*
X24728076Y28186971D01*
X24728076Y28186971D02*
X24823314Y28091733D01*
X24823314Y28091733D02*
X24870933Y27996495D01*
X24680457Y28948876D02*
X24632838Y28996495D01*
X24632838Y28996495D02*
X24585219Y29091733D01*
X24585219Y29091733D02*
X24585219Y29329828D01*
X24585219Y29329828D02*
X24632838Y29425066D01*
X24632838Y29425066D02*
X24680457Y29472685D01*
X24680457Y29472685D02*
X24775695Y29520304D01*
X24775695Y29520304D02*
X24870933Y29520304D01*
X24870933Y29520304D02*
X25013790Y29472685D01*
X25013790Y29472685D02*
X25585219Y28901257D01*
X25585219Y28901257D02*
X25585219Y29520304D01*
X32595619Y27512042D02*
X32119428Y27178709D01*
X32595619Y26940614D02*
X31595619Y26940614D01*
X31595619Y26940614D02*
X31595619Y27321566D01*
X31595619Y27321566D02*
X31643238Y27416804D01*
X31643238Y27416804D02*
X31690857Y27464423D01*
X31690857Y27464423D02*
X31786095Y27512042D01*
X31786095Y27512042D02*
X31928952Y27512042D01*
X31928952Y27512042D02*
X32024190Y27464423D01*
X32024190Y27464423D02*
X32071809Y27416804D01*
X32071809Y27416804D02*
X32119428Y27321566D01*
X32119428Y27321566D02*
X32119428Y26940614D01*
X31690857Y27892995D02*
X31643238Y27940614D01*
X31643238Y27940614D02*
X31595619Y28035852D01*
X31595619Y28035852D02*
X31595619Y28273947D01*
X31595619Y28273947D02*
X31643238Y28369185D01*
X31643238Y28369185D02*
X31690857Y28416804D01*
X31690857Y28416804D02*
X31786095Y28464423D01*
X31786095Y28464423D02*
X31881333Y28464423D01*
X31881333Y28464423D02*
X32024190Y28416804D01*
X32024190Y28416804D02*
X32595619Y27845376D01*
X32595619Y27845376D02*
X32595619Y28464423D01*
X32595619Y29416804D02*
X32595619Y28845376D01*
X32595619Y29131090D02*
X31595619Y29131090D01*
X31595619Y29131090D02*
X31738476Y29035852D01*
X31738476Y29035852D02*
X31833714Y28940614D01*
X31833714Y28940614D02*
X31881333Y28845376D01*
X17627695Y-14767419D02*
X17627695Y-13767419D01*
X17627695Y-14243609D02*
X18199123Y-14243609D01*
X18199123Y-14767419D02*
X18199123Y-13767419D01*
X19199123Y-14767419D02*
X18627695Y-14767419D01*
X18913409Y-14767419D02*
X18913409Y-13767419D01*
X18913409Y-13767419D02*
X18818171Y-13910276D01*
X18818171Y-13910276D02*
X18722933Y-14005514D01*
X18722933Y-14005514D02*
X18627695Y-14053133D01*
X-26237580Y-30297523D02*
X-27237580Y-30297523D01*
X-27237580Y-30297523D02*
X-26523295Y-29964190D01*
X-26523295Y-29964190D02*
X-27237580Y-29630857D01*
X-27237580Y-29630857D02*
X-26237580Y-29630857D01*
X-26904247Y-28726095D02*
X-26237580Y-28726095D01*
X-27285200Y-28964190D02*
X-26570914Y-29202285D01*
X-26570914Y-29202285D02*
X-26570914Y-28583238D01*
X25454819Y-36988094D02*
X24454819Y-36988094D01*
X25454819Y-36416666D02*
X24883390Y-36845237D01*
X24454819Y-36416666D02*
X25026247Y-36988094D01*
X24788152Y-35559523D02*
X25454819Y-35559523D01*
X24407200Y-35797618D02*
X25121485Y-36035713D01*
X25121485Y-36035713D02*
X25121485Y-35416666D01*
X-26466180Y-18261123D02*
X-27466180Y-18261123D01*
X-27466180Y-18261123D02*
X-26751895Y-17927790D01*
X-26751895Y-17927790D02*
X-27466180Y-17594457D01*
X-27466180Y-17594457D02*
X-26466180Y-17594457D01*
X-27466180Y-17213504D02*
X-27466180Y-16594457D01*
X-27466180Y-16594457D02*
X-27085228Y-16927790D01*
X-27085228Y-16927790D02*
X-27085228Y-16784933D01*
X-27085228Y-16784933D02*
X-27037609Y-16689695D01*
X-27037609Y-16689695D02*
X-26989990Y-16642076D01*
X-26989990Y-16642076D02*
X-26894752Y-16594457D01*
X-26894752Y-16594457D02*
X-26656657Y-16594457D01*
X-26656657Y-16594457D02*
X-26561419Y-16642076D01*
X-26561419Y-16642076D02*
X-26513800Y-16689695D01*
X-26513800Y-16689695D02*
X-26466180Y-16784933D01*
X-26466180Y-16784933D02*
X-26466180Y-17070647D01*
X-26466180Y-17070647D02*
X-26513800Y-17165885D01*
X-26513800Y-17165885D02*
X-26561419Y-17213504D01*
X33224819Y-36988094D02*
X32224819Y-36988094D01*
X33224819Y-36416666D02*
X32653390Y-36845237D01*
X32224819Y-36416666D02*
X32796247Y-36988094D01*
X32224819Y-36083332D02*
X32224819Y-35464285D01*
X32224819Y-35464285D02*
X32605771Y-35797618D01*
X32605771Y-35797618D02*
X32605771Y-35654761D01*
X32605771Y-35654761D02*
X32653390Y-35559523D01*
X32653390Y-35559523D02*
X32701009Y-35511904D01*
X32701009Y-35511904D02*
X32796247Y-35464285D01*
X32796247Y-35464285D02*
X33034342Y-35464285D01*
X33034342Y-35464285D02*
X33129580Y-35511904D01*
X33129580Y-35511904D02*
X33177200Y-35559523D01*
X33177200Y-35559523D02*
X33224819Y-35654761D01*
X33224819Y-35654761D02*
X33224819Y-35940475D01*
X33224819Y-35940475D02*
X33177200Y-36035713D01*
X33177200Y-36035713D02*
X33129580Y-36083332D01*
X25724819Y-21988094D02*
X24724819Y-21988094D01*
X25724819Y-21416666D02*
X25153390Y-21845237D01*
X24724819Y-21416666D02*
X25296247Y-21988094D01*
X24820057Y-21035713D02*
X24772438Y-20988094D01*
X24772438Y-20988094D02*
X24724819Y-20892856D01*
X24724819Y-20892856D02*
X24724819Y-20654761D01*
X24724819Y-20654761D02*
X24772438Y-20559523D01*
X24772438Y-20559523D02*
X24820057Y-20511904D01*
X24820057Y-20511904D02*
X24915295Y-20464285D01*
X24915295Y-20464285D02*
X25010533Y-20464285D01*
X25010533Y-20464285D02*
X25153390Y-20511904D01*
X25153390Y-20511904D02*
X25724819Y-21083332D01*
X25724819Y-21083332D02*
X25724819Y-20464285D01*
X23121419Y27615542D02*
X22645228Y27282209D01*
X23121419Y27044114D02*
X22121419Y27044114D01*
X22121419Y27044114D02*
X22121419Y27425066D01*
X22121419Y27425066D02*
X22169038Y27520304D01*
X22169038Y27520304D02*
X22216657Y27567923D01*
X22216657Y27567923D02*
X22311895Y27615542D01*
X22311895Y27615542D02*
X22454752Y27615542D01*
X22454752Y27615542D02*
X22549990Y27567923D01*
X22549990Y27567923D02*
X22597609Y27520304D01*
X22597609Y27520304D02*
X22645228Y27425066D01*
X22645228Y27425066D02*
X22645228Y27044114D01*
X23121419Y28567923D02*
X23121419Y27996495D01*
X23121419Y28282209D02*
X22121419Y28282209D01*
X22121419Y28282209D02*
X22264276Y28186971D01*
X22264276Y28186971D02*
X22359514Y28091733D01*
X22359514Y28091733D02*
X22407133Y27996495D01*
X22121419Y28901257D02*
X22121419Y29520304D01*
X22121419Y29520304D02*
X22502371Y29186971D01*
X22502371Y29186971D02*
X22502371Y29329828D01*
X22502371Y29329828D02*
X22549990Y29425066D01*
X22549990Y29425066D02*
X22597609Y29472685D01*
X22597609Y29472685D02*
X22692847Y29520304D01*
X22692847Y29520304D02*
X22930942Y29520304D01*
X22930942Y29520304D02*
X23026180Y29472685D01*
X23026180Y29472685D02*
X23073800Y29425066D01*
X23073800Y29425066D02*
X23121419Y29329828D01*
X23121419Y29329828D02*
X23121419Y29044114D01*
X23121419Y29044114D02*
X23073800Y28948876D01*
X23073800Y28948876D02*
X23026180Y28901257D01*
X44196095Y-14767419D02*
X44196095Y-13767419D01*
X44196095Y-14243609D02*
X44767523Y-14243609D01*
X44767523Y-14767419D02*
X44767523Y-13767419D01*
X45196095Y-13862657D02*
X45243714Y-13815038D01*
X45243714Y-13815038D02*
X45338952Y-13767419D01*
X45338952Y-13767419D02*
X45577047Y-13767419D01*
X45577047Y-13767419D02*
X45672285Y-13815038D01*
X45672285Y-13815038D02*
X45719904Y-13862657D01*
X45719904Y-13862657D02*
X45767523Y-13957895D01*
X45767523Y-13957895D02*
X45767523Y-14053133D01*
X45767523Y-14053133D02*
X45719904Y-14195990D01*
X45719904Y-14195990D02*
X45148476Y-14767419D01*
X45148476Y-14767419D02*
X45767523Y-14767419D01*
X34754619Y27512042D02*
X34278428Y27178709D01*
X34754619Y26940614D02*
X33754619Y26940614D01*
X33754619Y26940614D02*
X33754619Y27321566D01*
X33754619Y27321566D02*
X33802238Y27416804D01*
X33802238Y27416804D02*
X33849857Y27464423D01*
X33849857Y27464423D02*
X33945095Y27512042D01*
X33945095Y27512042D02*
X34087952Y27512042D01*
X34087952Y27512042D02*
X34183190Y27464423D01*
X34183190Y27464423D02*
X34230809Y27416804D01*
X34230809Y27416804D02*
X34278428Y27321566D01*
X34278428Y27321566D02*
X34278428Y26940614D01*
X33849857Y27892995D02*
X33802238Y27940614D01*
X33802238Y27940614D02*
X33754619Y28035852D01*
X33754619Y28035852D02*
X33754619Y28273947D01*
X33754619Y28273947D02*
X33802238Y28369185D01*
X33802238Y28369185D02*
X33849857Y28416804D01*
X33849857Y28416804D02*
X33945095Y28464423D01*
X33945095Y28464423D02*
X34040333Y28464423D01*
X34040333Y28464423D02*
X34183190Y28416804D01*
X34183190Y28416804D02*
X34754619Y27845376D01*
X34754619Y27845376D02*
X34754619Y28464423D01*
X33754619Y29083471D02*
X33754619Y29178709D01*
X33754619Y29178709D02*
X33802238Y29273947D01*
X33802238Y29273947D02*
X33849857Y29321566D01*
X33849857Y29321566D02*
X33945095Y29369185D01*
X33945095Y29369185D02*
X34135571Y29416804D01*
X34135571Y29416804D02*
X34373666Y29416804D01*
X34373666Y29416804D02*
X34564142Y29369185D01*
X34564142Y29369185D02*
X34659380Y29321566D01*
X34659380Y29321566D02*
X34707000Y29273947D01*
X34707000Y29273947D02*
X34754619Y29178709D01*
X34754619Y29178709D02*
X34754619Y29083471D01*
X34754619Y29083471D02*
X34707000Y28988233D01*
X34707000Y28988233D02*
X34659380Y28940614D01*
X34659380Y28940614D02*
X34564142Y28892995D01*
X34564142Y28892995D02*
X34373666Y28845376D01*
X34373666Y28845376D02*
X34135571Y28845376D01*
X34135571Y28845376D02*
X33945095Y28892995D01*
X33945095Y28892995D02*
X33849857Y28940614D01*
X33849857Y28940614D02*
X33802238Y28988233D01*
X33802238Y28988233D02*
X33754619Y29083471D01*
D11*
%TO.C,R12*%
X27535200Y-45108864D02*
X27535200Y-44654736D01*
X29005200Y-45108864D02*
X29005200Y-44654736D01*
%TO.C,R21*%
X34545600Y-45212364D02*
X34545600Y-44758236D01*
X36015600Y-45212364D02*
X36015600Y-44758236D01*
D12*
%TO.C,M4*%
X41315201Y-34464600D02*
X41315201Y-44878600D01*
X41315201Y-44878600D02*
X49719200Y-44878600D01*
X49719200Y-34464600D02*
X41315201Y-34464600D01*
X49719200Y-44878600D02*
X49719200Y-34464600D01*
D13*
X45923200Y-45513600D02*
G75*
G02*
X45161200Y-45513600I-381000J0D01*
G01*
X45161200Y-45513600D02*
G75*
G02*
X45923200Y-45513600I381000J0D01*
G01*
D11*
%TO.C,K4*%
X25830000Y-32780000D02*
X25830000Y-39800000D01*
X25830000Y-32780000D02*
X26500000Y-32780000D01*
X25830000Y-39800000D02*
X26500000Y-39800000D01*
X30500000Y-32780000D02*
X31170000Y-32780000D01*
X30500000Y-39720000D02*
X31170000Y-39720000D01*
X31170000Y-39720000D02*
X31170000Y-32780000D01*
X26200000Y-40845000D02*
X25870000Y-41085000D01*
X25870000Y-40605000D01*
X26200000Y-40845000D01*
G36*
X26200000Y-40845000D02*
G01*
X25870000Y-41085000D01*
X25870000Y-40605000D01*
X26200000Y-40845000D01*
G37*
D12*
%TO.C,M2*%
X14899201Y-34671000D02*
X14899201Y-45085000D01*
X14899201Y-45085000D02*
X23303200Y-45085000D01*
X23303200Y-34671000D02*
X14899201Y-34671000D01*
X23303200Y-45085000D02*
X23303200Y-34671000D01*
D13*
X19507200Y-45720000D02*
G75*
G02*
X18745200Y-45720000I-381000J0D01*
G01*
X18745200Y-45720000D02*
G75*
G02*
X19507200Y-45720000I381000J0D01*
G01*
D12*
%TO.C,M3*%
X41086601Y-22428200D02*
X41086601Y-32842200D01*
X41086601Y-32842200D02*
X49490600Y-32842200D01*
X49490600Y-22428200D02*
X41086601Y-22428200D01*
X49490600Y-32842200D02*
X49490600Y-22428200D01*
D13*
X45694600Y-33477200D02*
G75*
G02*
X44932600Y-33477200I-381000J0D01*
G01*
X44932600Y-33477200D02*
G75*
G02*
X45694600Y-33477200I381000J0D01*
G01*
D11*
%TO.C,K3*%
X33600000Y-32780000D02*
X33600000Y-39800000D01*
X33600000Y-32780000D02*
X34270000Y-32780000D01*
X33600000Y-39800000D02*
X34270000Y-39800000D01*
X38270000Y-32780000D02*
X38940000Y-32780000D01*
X38270000Y-39720000D02*
X38940000Y-39720000D01*
X38940000Y-39720000D02*
X38940000Y-32780000D01*
X33970000Y-40845000D02*
X33640000Y-41085000D01*
X33640000Y-40605000D01*
X33970000Y-40845000D01*
G36*
X33970000Y-40845000D02*
G01*
X33640000Y-41085000D01*
X33640000Y-40605000D01*
X33970000Y-40845000D01*
G37*
%TO.C,K2*%
X26100000Y-17780000D02*
X26100000Y-24800000D01*
X26100000Y-17780000D02*
X26770000Y-17780000D01*
X26100000Y-24800000D02*
X26770000Y-24800000D01*
X30770000Y-17780000D02*
X31440000Y-17780000D01*
X30770000Y-24720000D02*
X31440000Y-24720000D01*
X31440000Y-24720000D02*
X31440000Y-17780000D01*
X26470000Y-25845000D02*
X26140000Y-26085000D01*
X26140000Y-25605000D01*
X26470000Y-25845000D01*
G36*
X26470000Y-25845000D02*
G01*
X26140000Y-26085000D01*
X26140000Y-25605000D01*
X26470000Y-25845000D01*
G37*
%TO.C,R13*%
X25071400Y-45108864D02*
X25071400Y-44654736D01*
X26541400Y-45108864D02*
X26541400Y-44654736D01*
%TO.C,K1*%
X33600000Y-17780000D02*
X33600000Y-24800000D01*
X33600000Y-17780000D02*
X34270000Y-17780000D01*
X33600000Y-24800000D02*
X34270000Y-24800000D01*
X38270000Y-17780000D02*
X38940000Y-17780000D01*
X38270000Y-24720000D02*
X38940000Y-24720000D01*
X38940000Y-24720000D02*
X38940000Y-17780000D01*
X33970000Y-25845000D02*
X33640000Y-26085000D01*
X33640000Y-25605000D01*
X33970000Y-25845000D01*
G36*
X33970000Y-25845000D02*
G01*
X33640000Y-26085000D01*
X33640000Y-25605000D01*
X33970000Y-25845000D01*
G37*
%TO.C,J1*%
X25120000Y-47491500D02*
X38040000Y-47491500D01*
X25120000Y-50141500D02*
X25120000Y-47491500D01*
X25120000Y-52791500D02*
X25120000Y-51411500D01*
X26500000Y-52791500D02*
X25120000Y-52791500D01*
X27770000Y-50141500D02*
X25120000Y-50141500D01*
X27770000Y-52791500D02*
X27770000Y-50141500D01*
X27770000Y-52791500D02*
X38040000Y-52791500D01*
X38040000Y-52791500D02*
X38040000Y-47491500D01*
D12*
%TO.C,M1*%
X14899201Y-22656800D02*
X14899201Y-33070800D01*
X14899201Y-33070800D02*
X23303200Y-33070800D01*
X23303200Y-22656800D02*
X14899201Y-22656800D01*
X23303200Y-33070800D02*
X23303200Y-22656800D01*
D13*
X19507200Y-33705800D02*
G75*
G02*
X18745200Y-33705800I-381000J0D01*
G01*
X18745200Y-33705800D02*
G75*
G02*
X19507200Y-33705800I381000J0D01*
G01*
D11*
%TO.C,R20*%
X36704600Y-45212364D02*
X36704600Y-44758236D01*
X38174600Y-45212364D02*
X38174600Y-44758236D01*
%TD*%
M02*
