M48
; DRILL file {KiCad 9.0.6} date 2025-11-22T08:39:34-0800
; FORMAT={-:-/ absolute / inch / decimal}
; #@! TF.CreationDate,2025-11-22T08:39:34-08:00
; #@! TF.GenerationSoftware,Kicad,Pcbnew,9.0.6
; #@! TF.FileFunction,Plated,1,2,PTH
FMAT,2
INCH
; #@! TA.AperFunction,Plated,PTH,ViaDrill
T1C0.0118
; #@! TA.AperFunction,Plated,PTH,ComponentDrill
T2C0.0138
; #@! TA.AperFunction,Plated,PTH,ViaDrill
T3C0.0157
; #@! TA.AperFunction,Plated,PTH,ComponentDrill
T4C0.0354
; #@! TA.AperFunction,Plated,PTH,ComponentDrill
T5C0.0374
; #@! TA.AperFunction,Plated,PTH,ComponentDrill
T6C0.0394
; #@! TA.AperFunction,Plated,PTH,ComponentDrill
T7C0.0472
; #@! TA.AperFunction,Plated,PTH,ComponentDrill
T8C0.0984
%
G90
G05
T1
X0.502Y-1.3484
X0.519Y-2.0303
X0.5276Y-1.2165
X0.6713Y-2.2264
X0.6988Y-1.5787
X0.7244Y-1.5059
X0.7253Y-1.4685
X0.7321Y-1.6936
X0.7479Y-1.6663
X0.752Y-2.6575
X0.7726Y-1.4685
X0.7794Y-1.8898
X0.8543Y-1.2126
X0.9158Y-0.8371
X0.9283Y-2.1453
X0.9465Y-1.913
X0.998Y-1.1811
X1.0354Y-1.0079
X1.1024Y-1.0531
X1.1516Y-0.7185
X1.1535Y-0.9685
X1.1535Y-2.0433
X1.1811Y-1.3592
X1.2048Y-1.1752
X1.2106Y-1.7913
X1.248Y-2.0708
X1.25Y-1.0531
X1.2835Y-1.5118
X1.2854Y-1.9409
X1.3539Y-2.3618
X1.3583Y-1.815
X1.3592Y-1.375
X1.3704Y-1.8545
X1.3937Y-1.998
X1.4075Y-1.0827
X1.4449Y-2.0669
X1.4588Y-1.5138
X1.4588Y-1.5551
X1.4646Y-1.1457
X1.4685Y-1.4567
X1.5438Y-1.561
X1.5748Y-1.5945
X1.6043Y-1.0728
X1.6142Y-2.3559
X1.6929Y-2.7864
X1.7047Y-1.3258
X1.7283Y-1.6575
X1.7323Y-0.5906
X1.7323Y-0.7185
X1.7333Y-1.3445
X1.7717Y-1.4665
X1.8066Y-1.6765
X1.9016Y-1.3823
X2.0382Y-1.3823
X2.0945Y-2.4252
X2.0945Y-2.5157
X2.2835Y-2.8937
T2
X0.9104Y-1.5689
X0.9104Y-1.6191
X0.9104Y-1.6693
X0.9606Y-1.5689
X0.9606Y-1.6191
X0.9606Y-1.6693
X1.0108Y-1.5689
X1.0108Y-1.6191
X1.0108Y-1.6693
T3
X1.811Y-1.2106
T4
X2.0732Y-1.5748
X2.1732Y-1.5748
X2.2732Y-1.5748
T5
X1.0118Y-3.1388
X1.1102Y-3.1388
X1.2087Y-3.1388
X2.2067Y-2.458
X2.2067Y-2.5564
X2.2067Y-2.6549
X2.2067Y-2.7533
X2.2067Y-2.8517
T6
X1.4102Y-3.086
X1.4102Y-3.186
X1.5102Y-3.086
X1.5102Y-3.186
X1.6102Y-3.086
X1.6102Y-3.186
X1.7102Y-3.086
X1.7102Y-3.186
X1.8102Y-3.086
X1.8102Y-3.186
X1.9102Y-3.086
X1.9102Y-3.186
X2.0657Y-1.7697
X2.1657Y-1.7697
X2.2657Y-1.7697
T7
X0.5984Y-2.2984
X0.5984Y-2.8984
T8
X0.6594Y-0.6693
X0.6594Y-3.1299
X2.2343Y-0.6693
X2.2343Y-3.1299
M30
