%TF.GenerationSoftware,KiCad,Pcbnew,9.0.6*%
%TF.CreationDate,2025-11-22T08:39:34-08:00*%
%TF.ProjectId,bramble,6272616d-626c-4652-9e6b-696361645f70,rev?*%
%TF.SameCoordinates,Original*%
%TF.FileFunction,Soldermask,Bot*%
%TF.FilePolarity,Negative*%
%FSLAX46Y46*%
G04 Gerber Fmt 4.6, Leading zero omitted, Abs format (unit mm)*
G04 Created by KiCad (PCBNEW 9.0.6) date 2025-11-22 08:39:34*
%MOMM*%
%LPD*%
G01*
G04 APERTURE LIST*
G04 Aperture macros list*
%AMRoundRect*
0 Rectangle with rounded corners*
0 $1 Rounding radius*
0 $2 $3 $4 $5 $6 $7 $8 $9 X,Y pos of 4 corners*
0 Add a 4 corners polygon primitive as box body*
4,1,4,$2,$3,$4,$5,$6,$7,$8,$9,$2,$3,0*
0 Add four circle primitives for the rounded corners*
1,1,$1+$1,$2,$3*
1,1,$1+$1,$4,$5*
1,1,$1+$1,$6,$7*
1,1,$1+$1,$8,$9*
0 Add four rect primitives between the rounded corners*
20,1,$1+$1,$2,$3,$4,$5,0*
20,1,$1+$1,$4,$5,$6,$7,0*
20,1,$1+$1,$6,$7,$8,$9,0*
20,1,$1+$1,$8,$9,$2,$3,0*%
%AMFreePoly0*
4,1,9,5.362500,-0.866500,1.237500,-0.866500,1.237500,-0.450000,-1.237500,-0.450000,-1.237500,0.450000,1.237500,0.450000,1.237500,0.866500,5.362500,0.866500,5.362500,-0.866500,5.362500,-0.866500,$1*%
G04 Aperture macros list end*
%ADD10RoundRect,0.250000X-0.262500X-0.450000X0.262500X-0.450000X0.262500X0.450000X-0.262500X0.450000X0*%
%ADD11RoundRect,0.250000X-0.250000X-0.475000X0.250000X-0.475000X0.250000X0.475000X-0.250000X0.475000X0*%
%ADD12R,1.800000X1.000000*%
%ADD13RoundRect,0.150000X0.587500X0.150000X-0.587500X0.150000X-0.587500X-0.150000X0.587500X-0.150000X0*%
%ADD14R,1.800000X1.800000*%
%ADD15C,1.800000*%
%ADD16C,2.400000*%
%ADD17RoundRect,0.100000X0.637500X0.100000X-0.637500X0.100000X-0.637500X-0.100000X0.637500X-0.100000X0*%
%ADD18RoundRect,0.250000X-0.450000X0.262500X-0.450000X-0.262500X0.450000X-0.262500X0.450000X0.262500X0*%
%ADD19C,5.000000*%
%ADD20RoundRect,0.250000X0.450000X-0.262500X0.450000X0.262500X-0.450000X0.262500X-0.450000X-0.262500X0*%
%ADD21RoundRect,0.250000X0.262500X0.450000X-0.262500X0.450000X-0.262500X-0.450000X0.262500X-0.450000X0*%
%ADD22RoundRect,0.250000X0.250000X0.475000X-0.250000X0.475000X-0.250000X-0.475000X0.250000X-0.475000X0*%
%ADD23C,1.200000*%
%ADD24RoundRect,0.250000X0.600000X0.725000X-0.600000X0.725000X-0.600000X-0.725000X0.600000X-0.725000X0*%
%ADD25O,1.700000X1.950000*%
%ADD26RoundRect,0.250001X1.412499X0.949999X-1.412499X0.949999X-1.412499X-0.949999X1.412499X-0.949999X0*%
%ADD27RoundRect,0.225000X0.925000X0.225000X-0.925000X0.225000X-0.925000X-0.225000X0.925000X-0.225000X0*%
%ADD28FreePoly0,180.000000*%
%ADD29R,1.700000X1.700000*%
%ADD30C,1.700000*%
%ADD31C,0.650000*%
%ADD32RoundRect,0.250000X0.725000X-0.600000X0.725000X0.600000X-0.725000X0.600000X-0.725000X-0.600000X0*%
%ADD33O,1.950000X1.700000*%
%ADD34RoundRect,0.250000X-0.475000X0.250000X-0.475000X-0.250000X0.475000X-0.250000X0.475000X0.250000X0*%
G04 APERTURE END LIST*
D10*
%TO.C,R8*%
X28087500Y-43500000D03*
X29912500Y-43500000D03*
%TD*%
D11*
%TO.C,C1*%
X27890000Y-53170000D03*
X29790000Y-53170000D03*
%TD*%
D12*
%TO.C,Y1*%
X43225000Y-23802500D03*
X43225000Y-26302500D03*
%TD*%
D13*
%TO.C,Q1*%
X17487500Y-27050000D03*
X17487500Y-28950000D03*
X15612500Y-28000000D03*
%TD*%
D14*
%TO.C,D1*%
X52660000Y-40000000D03*
D15*
X55200000Y-40000000D03*
X57740000Y-40000000D03*
%TD*%
D16*
%TO.C,R6*%
X15200000Y-58380000D03*
X15200000Y-73620000D03*
%TD*%
D17*
%TO.C,U3*%
X39362500Y-25325000D03*
X39362500Y-25975000D03*
X39362500Y-26625000D03*
X39362500Y-27275000D03*
X39362500Y-27925000D03*
X39362500Y-28575000D03*
X39362500Y-29225000D03*
X39362500Y-29875000D03*
X39362500Y-30525000D03*
X39362500Y-31175000D03*
X33637500Y-31175000D03*
X33637500Y-30525000D03*
X33637500Y-29875000D03*
X33637500Y-29225000D03*
X33637500Y-28575000D03*
X33637500Y-27925000D03*
X33637500Y-27275000D03*
X33637500Y-26625000D03*
X33637500Y-25975000D03*
X33637500Y-25325000D03*
%TD*%
D18*
%TO.C,R3*%
X28200000Y-73797500D03*
X28200000Y-75622500D03*
%TD*%
D19*
%TO.C,U$4*%
X16750000Y-17000000D03*
%TD*%
D20*
%TO.C,R11*%
X40200000Y-21712500D03*
X40200000Y-19887500D03*
%TD*%
D21*
%TO.C,R4*%
X24582500Y-45200000D03*
X22757500Y-45200000D03*
%TD*%
D19*
%TO.C,U$2*%
X16750000Y-79500000D03*
%TD*%
D21*
%TO.C,R10*%
X29742500Y-55610000D03*
X27917500Y-55610000D03*
%TD*%
%TO.C,R1*%
X44662500Y-29250000D03*
X42837500Y-29250000D03*
%TD*%
D22*
%TO.C,C8*%
X22200000Y-36000000D03*
X20300000Y-36000000D03*
%TD*%
D23*
%TO.C,J6*%
X32300000Y-77725000D03*
D24*
X30700000Y-79725000D03*
D25*
X28200000Y-79725000D03*
X25700000Y-79725000D03*
%TD*%
D21*
%TO.C,R9*%
X20172500Y-45200000D03*
X18347500Y-45200000D03*
%TD*%
D26*
%TO.C,Y3*%
X27312500Y-32650000D03*
X21787500Y-32650000D03*
%TD*%
D10*
%TO.C,R2*%
X46837500Y-29250000D03*
X48662500Y-29250000D03*
%TD*%
D27*
%TO.C,U5*%
X31337500Y-19250000D03*
D28*
X31250000Y-20750000D03*
D27*
X31337500Y-22250000D03*
%TD*%
D19*
%TO.C,U$3*%
X56750000Y-17000000D03*
%TD*%
D29*
%TO.C,J7*%
X35820000Y-80925000D03*
D30*
X35820000Y-78385000D03*
X38360000Y-80925000D03*
X38360000Y-78385000D03*
X40900000Y-80925000D03*
X40900000Y-78385000D03*
X43440000Y-80925000D03*
X43440000Y-78385000D03*
X45980000Y-80925000D03*
X45980000Y-78385000D03*
X48520000Y-80925000D03*
X48520000Y-78385000D03*
%TD*%
D31*
%TO.C,J3*%
X39640000Y-15195000D03*
X33860000Y-15195000D03*
%TD*%
D29*
%TO.C,J2*%
X52470000Y-44951250D03*
D30*
X55010000Y-44951250D03*
X57550000Y-44951250D03*
%TD*%
D32*
%TO.C,J1*%
X56050000Y-72433750D03*
D33*
X56050000Y-69933750D03*
X56050000Y-67433750D03*
X56050000Y-64933750D03*
X56050000Y-62433750D03*
%TD*%
D19*
%TO.C,U$1*%
X56750000Y-79500000D03*
%TD*%
D21*
%TO.C,R22*%
X39487500Y-33050000D03*
X37662500Y-33050000D03*
%TD*%
D11*
%TO.C,C21*%
X42800000Y-20825000D03*
X44700000Y-20825000D03*
%TD*%
%TO.C,C5*%
X46780000Y-23676667D03*
X48680000Y-23676667D03*
%TD*%
D17*
%TO.C,U2*%
X24362500Y-49850000D03*
X24362500Y-50500000D03*
X24362500Y-51150000D03*
X24362500Y-51800000D03*
X24362500Y-52450000D03*
X24362500Y-53100000D03*
X24362500Y-53750000D03*
X18637500Y-53750000D03*
X18637500Y-53100000D03*
X18637500Y-52450000D03*
X18637500Y-51800000D03*
X18637500Y-51150000D03*
X18637500Y-50500000D03*
X18637500Y-49850000D03*
%TD*%
D11*
%TO.C,C22*%
X46775000Y-20825000D03*
X48675000Y-20825000D03*
%TD*%
D21*
%TO.C,R7*%
X33572500Y-43460000D03*
X31747500Y-43460000D03*
%TD*%
D11*
%TO.C,C23*%
X23300000Y-24750000D03*
X25200000Y-24750000D03*
%TD*%
%TO.C,C2*%
X27850000Y-47225000D03*
X29750000Y-47225000D03*
%TD*%
D21*
%TO.C,R23*%
X35462500Y-33075000D03*
X33637500Y-33075000D03*
%TD*%
D34*
%TO.C,C6*%
X37600000Y-19870000D03*
X37600000Y-21770000D03*
%TD*%
D11*
%TO.C,C3*%
X46780000Y-26478333D03*
X48680000Y-26478333D03*
%TD*%
D21*
%TO.C,R5*%
X29737500Y-50600000D03*
X27912500Y-50600000D03*
%TD*%
D34*
%TO.C,C24*%
X34000000Y-20700000D03*
X34000000Y-18800000D03*
%TD*%
D22*
%TO.C,C4*%
X29900000Y-28000000D03*
X28000000Y-28000000D03*
%TD*%
%TO.C,C9*%
X27950000Y-36000000D03*
X26050000Y-36000000D03*
%TD*%
M02*
