%TF.GenerationSoftware,KiCad,Pcbnew,9.0.6*%
%TF.CreationDate,2025-11-22T08:39:34-08:00*%
%TF.ProjectId,bramble,6272616d-626c-4652-9e6b-696361645f70,rev?*%
%TF.SameCoordinates,Original*%
%TF.FileFunction,Legend,Top*%
%TF.FilePolarity,Positive*%
%FSLAX46Y46*%
G04 Gerber Fmt 4.6, Leading zero omitted, Abs format (unit mm)*
G04 Created by KiCad (PCBNEW 9.0.6) date 2025-11-22 08:39:34*
%MOMM*%
%LPD*%
G01*
G04 APERTURE LIST*
G04 Aperture macros list*
%AMRoundRect*
0 Rectangle with rounded corners*
0 $1 Rounding radius*
0 $2 $3 $4 $5 $6 $7 $8 $9 X,Y pos of 4 corners*
0 Add a 4 corners polygon primitive as box body*
4,1,4,$2,$3,$4,$5,$6,$7,$8,$9,$2,$3,0*
0 Add four circle primitives for the rounded corners*
1,1,$1+$1,$2,$3*
1,1,$1+$1,$4,$5*
1,1,$1+$1,$6,$7*
1,1,$1+$1,$8,$9*
0 Add four rect primitives between the rounded corners*
20,1,$1+$1,$2,$3,$4,$5,0*
20,1,$1+$1,$4,$5,$6,$7,0*
20,1,$1+$1,$6,$7,$8,$9,0*
20,1,$1+$1,$8,$9,$2,$3,0*%
G04 Aperture macros list end*
%ADD10C,0.150000*%
%ADD11C,0.120000*%
%ADD12RoundRect,0.250000X-0.475000X-0.250000X0.475000X-0.250000X0.475000X0.250000X-0.475000X0.250000X0*%
%ADD13RoundRect,0.250000X-0.262500X-0.450000X0.262500X-0.450000X0.262500X0.450000X-0.262500X0.450000X0*%
%ADD14RoundRect,0.100000X-0.400000X-0.400000X0.400000X-0.400000X0.400000X0.400000X-0.400000X0.400000X0*%
%ADD15RoundRect,0.105000X-0.420000X-0.995000X0.420000X-0.995000X0.420000X0.995000X-0.420000X0.995000X0*%
%ADD16R,1.800000X1.800000*%
%ADD17C,1.800000*%
%ADD18RoundRect,0.250000X0.475000X-0.250000X0.475000X0.250000X-0.475000X0.250000X-0.475000X-0.250000X0*%
%ADD19C,2.400000*%
%ADD20RoundRect,0.250000X-0.450000X0.262500X-0.450000X-0.262500X0.450000X-0.262500X0.450000X0.262500X0*%
%ADD21C,5.000000*%
%ADD22RoundRect,0.250000X-0.475000X0.250000X-0.475000X-0.250000X0.475000X-0.250000X0.475000X0.250000X0*%
%ADD23RoundRect,0.250000X0.262500X0.450000X-0.262500X0.450000X-0.262500X-0.450000X0.262500X-0.450000X0*%
%ADD24RoundRect,0.250000X0.475000X0.250000X-0.475000X0.250000X-0.475000X-0.250000X0.475000X-0.250000X0*%
%ADD25RoundRect,0.050000X-0.050000X0.387500X-0.050000X-0.387500X0.050000X-0.387500X0.050000X0.387500X0*%
%ADD26RoundRect,0.050000X-0.387500X0.050000X-0.387500X-0.050000X0.387500X-0.050000X0.387500X0.050000X0*%
%ADD27RoundRect,0.144000X-1.456000X1.456000X-1.456000X-1.456000X1.456000X-1.456000X1.456000X1.456000X0*%
%ADD28RoundRect,0.090000X-0.660000X-0.360000X0.660000X-0.360000X0.660000X0.360000X-0.660000X0.360000X0*%
%ADD29RoundRect,0.250000X0.250000X0.475000X-0.250000X0.475000X-0.250000X-0.475000X0.250000X-0.475000X0*%
%ADD30C,1.200000*%
%ADD31RoundRect,0.250000X0.600000X0.725000X-0.600000X0.725000X-0.600000X-0.725000X0.600000X-0.725000X0*%
%ADD32O,1.700000X1.950000*%
%ADD33RoundRect,0.225000X-0.225000X-0.375000X0.225000X-0.375000X0.225000X0.375000X-0.225000X0.375000X0*%
%ADD34RoundRect,0.317500X0.317500X-1.157500X0.317500X1.157500X-0.317500X1.157500X-0.317500X-1.157500X0*%
%ADD35R,1.700000X1.700000*%
%ADD36C,1.700000*%
%ADD37RoundRect,0.250000X-0.840000X-0.750000X0.840000X-0.750000X0.840000X0.750000X-0.840000X0.750000X0*%
%ADD38RoundRect,0.150000X-0.150000X-0.425000X0.150000X-0.425000X0.150000X0.425000X-0.150000X0.425000X0*%
%ADD39RoundRect,0.075000X-0.075000X-0.500000X0.075000X-0.500000X0.075000X0.500000X-0.075000X0.500000X0*%
%ADD40C,0.650000*%
%ADD41RoundRect,0.250000X-0.250000X-0.475000X0.250000X-0.475000X0.250000X0.475000X-0.250000X0.475000X0*%
%ADD42RoundRect,0.205000X2.920000X-0.205000X2.920000X0.205000X-2.920000X0.205000X-2.920000X-0.205000X0*%
%ADD43RoundRect,0.162500X0.650000X0.162500X-0.650000X0.162500X-0.650000X-0.162500X0.650000X-0.162500X0*%
%ADD44RoundRect,0.250000X0.725000X-0.600000X0.725000X0.600000X-0.725000X0.600000X-0.725000X-0.600000X0*%
%ADD45O,1.950000X1.700000*%
%ADD46RoundRect,0.150000X0.150000X-0.650000X0.150000X0.650000X-0.150000X0.650000X-0.150000X-0.650000X0*%
G04 APERTURE END LIST*
D10*
X46766666Y-67204819D02*
X46766666Y-67919104D01*
X46766666Y-67919104D02*
X46719047Y-68061961D01*
X46719047Y-68061961D02*
X46623809Y-68157200D01*
X46623809Y-68157200D02*
X46480952Y-68204819D01*
X46480952Y-68204819D02*
X46385714Y-68204819D01*
X47719047Y-67204819D02*
X47242857Y-67204819D01*
X47242857Y-67204819D02*
X47195238Y-67681009D01*
X47195238Y-67681009D02*
X47242857Y-67633390D01*
X47242857Y-67633390D02*
X47338095Y-67585771D01*
X47338095Y-67585771D02*
X47576190Y-67585771D01*
X47576190Y-67585771D02*
X47671428Y-67633390D01*
X47671428Y-67633390D02*
X47719047Y-67681009D01*
X47719047Y-67681009D02*
X47766666Y-67776247D01*
X47766666Y-67776247D02*
X47766666Y-68014342D01*
X47766666Y-68014342D02*
X47719047Y-68109580D01*
X47719047Y-68109580D02*
X47671428Y-68157200D01*
X47671428Y-68157200D02*
X47576190Y-68204819D01*
X47576190Y-68204819D02*
X47338095Y-68204819D01*
X47338095Y-68204819D02*
X47242857Y-68157200D01*
X47242857Y-68157200D02*
X47195238Y-68109580D01*
X54461905Y-37494819D02*
X54461905Y-36494819D01*
X54461905Y-36494819D02*
X54700000Y-36494819D01*
X54700000Y-36494819D02*
X54842857Y-36542438D01*
X54842857Y-36542438D02*
X54938095Y-36637676D01*
X54938095Y-36637676D02*
X54985714Y-36732914D01*
X54985714Y-36732914D02*
X55033333Y-36923390D01*
X55033333Y-36923390D02*
X55033333Y-37066247D01*
X55033333Y-37066247D02*
X54985714Y-37256723D01*
X54985714Y-37256723D02*
X54938095Y-37351961D01*
X54938095Y-37351961D02*
X54842857Y-37447200D01*
X54842857Y-37447200D02*
X54700000Y-37494819D01*
X54700000Y-37494819D02*
X54461905Y-37494819D01*
X55985714Y-37494819D02*
X55414286Y-37494819D01*
X55700000Y-37494819D02*
X55700000Y-36494819D01*
X55700000Y-36494819D02*
X55604762Y-36637676D01*
X55604762Y-36637676D02*
X55509524Y-36732914D01*
X55509524Y-36732914D02*
X55414286Y-36780533D01*
X20266667Y-68557200D02*
X20409524Y-68604819D01*
X20409524Y-68604819D02*
X20647619Y-68604819D01*
X20647619Y-68604819D02*
X20742857Y-68557200D01*
X20742857Y-68557200D02*
X20790476Y-68509580D01*
X20790476Y-68509580D02*
X20838095Y-68414342D01*
X20838095Y-68414342D02*
X20838095Y-68319104D01*
X20838095Y-68319104D02*
X20790476Y-68223866D01*
X20790476Y-68223866D02*
X20742857Y-68176247D01*
X20742857Y-68176247D02*
X20647619Y-68128628D01*
X20647619Y-68128628D02*
X20457143Y-68081009D01*
X20457143Y-68081009D02*
X20361905Y-68033390D01*
X20361905Y-68033390D02*
X20314286Y-67985771D01*
X20314286Y-67985771D02*
X20266667Y-67890533D01*
X20266667Y-67890533D02*
X20266667Y-67795295D01*
X20266667Y-67795295D02*
X20314286Y-67700057D01*
X20314286Y-67700057D02*
X20361905Y-67652438D01*
X20361905Y-67652438D02*
X20457143Y-67604819D01*
X20457143Y-67604819D02*
X20695238Y-67604819D01*
X20695238Y-67604819D02*
X20838095Y-67652438D01*
X21171429Y-67604819D02*
X21409524Y-68604819D01*
X21409524Y-68604819D02*
X21600000Y-67890533D01*
X21600000Y-67890533D02*
X21790476Y-68604819D01*
X21790476Y-68604819D02*
X22028572Y-67604819D01*
X22361905Y-67700057D02*
X22409524Y-67652438D01*
X22409524Y-67652438D02*
X22504762Y-67604819D01*
X22504762Y-67604819D02*
X22742857Y-67604819D01*
X22742857Y-67604819D02*
X22838095Y-67652438D01*
X22838095Y-67652438D02*
X22885714Y-67700057D01*
X22885714Y-67700057D02*
X22933333Y-67795295D01*
X22933333Y-67795295D02*
X22933333Y-67890533D01*
X22933333Y-67890533D02*
X22885714Y-68033390D01*
X22885714Y-68033390D02*
X22314286Y-68604819D01*
X22314286Y-68604819D02*
X22933333Y-68604819D01*
X53980952Y-50032319D02*
X53504762Y-50032319D01*
X53504762Y-50032319D02*
X53504762Y-49032319D01*
X54314286Y-49508509D02*
X54647619Y-49508509D01*
X54790476Y-50032319D02*
X54314286Y-50032319D01*
X54314286Y-50032319D02*
X54314286Y-49032319D01*
X54314286Y-49032319D02*
X54790476Y-49032319D01*
X55219048Y-50032319D02*
X55219048Y-49032319D01*
X55219048Y-49032319D02*
X55457143Y-49032319D01*
X55457143Y-49032319D02*
X55600000Y-49079938D01*
X55600000Y-49079938D02*
X55695238Y-49175176D01*
X55695238Y-49175176D02*
X55742857Y-49270414D01*
X55742857Y-49270414D02*
X55790476Y-49460890D01*
X55790476Y-49460890D02*
X55790476Y-49603747D01*
X55790476Y-49603747D02*
X55742857Y-49794223D01*
X55742857Y-49794223D02*
X55695238Y-49889461D01*
X55695238Y-49889461D02*
X55600000Y-49984700D01*
X55600000Y-49984700D02*
X55457143Y-50032319D01*
X55457143Y-50032319D02*
X55219048Y-50032319D01*
X56742857Y-50032319D02*
X56171429Y-50032319D01*
X56457143Y-50032319D02*
X56457143Y-49032319D01*
X56457143Y-49032319D02*
X56361905Y-49175176D01*
X56361905Y-49175176D02*
X56266667Y-49270414D01*
X56266667Y-49270414D02*
X56171429Y-49318033D01*
X20266667Y-75657200D02*
X20409524Y-75704819D01*
X20409524Y-75704819D02*
X20647619Y-75704819D01*
X20647619Y-75704819D02*
X20742857Y-75657200D01*
X20742857Y-75657200D02*
X20790476Y-75609580D01*
X20790476Y-75609580D02*
X20838095Y-75514342D01*
X20838095Y-75514342D02*
X20838095Y-75419104D01*
X20838095Y-75419104D02*
X20790476Y-75323866D01*
X20790476Y-75323866D02*
X20742857Y-75276247D01*
X20742857Y-75276247D02*
X20647619Y-75228628D01*
X20647619Y-75228628D02*
X20457143Y-75181009D01*
X20457143Y-75181009D02*
X20361905Y-75133390D01*
X20361905Y-75133390D02*
X20314286Y-75085771D01*
X20314286Y-75085771D02*
X20266667Y-74990533D01*
X20266667Y-74990533D02*
X20266667Y-74895295D01*
X20266667Y-74895295D02*
X20314286Y-74800057D01*
X20314286Y-74800057D02*
X20361905Y-74752438D01*
X20361905Y-74752438D02*
X20457143Y-74704819D01*
X20457143Y-74704819D02*
X20695238Y-74704819D01*
X20695238Y-74704819D02*
X20838095Y-74752438D01*
X21171429Y-74704819D02*
X21409524Y-75704819D01*
X21409524Y-75704819D02*
X21600000Y-74990533D01*
X21600000Y-74990533D02*
X21790476Y-75704819D01*
X21790476Y-75704819D02*
X22028572Y-74704819D01*
X22838095Y-75038152D02*
X22838095Y-75704819D01*
X22600000Y-74657200D02*
X22361905Y-75371485D01*
X22361905Y-75371485D02*
X22980952Y-75371485D01*
X41804819Y-27345654D02*
X42614342Y-27345654D01*
X42614342Y-27345654D02*
X42709580Y-27298035D01*
X42709580Y-27298035D02*
X42757200Y-27250416D01*
X42757200Y-27250416D02*
X42804819Y-27155178D01*
X42804819Y-27155178D02*
X42804819Y-26964702D01*
X42804819Y-26964702D02*
X42757200Y-26869464D01*
X42757200Y-26869464D02*
X42709580Y-26821845D01*
X42709580Y-26821845D02*
X42614342Y-26774226D01*
X42614342Y-26774226D02*
X41804819Y-26774226D01*
X42804819Y-25774226D02*
X42804819Y-26345654D01*
X42804819Y-26059940D02*
X41804819Y-26059940D01*
X41804819Y-26059940D02*
X41947676Y-26155178D01*
X41947676Y-26155178D02*
X42042914Y-26250416D01*
X42042914Y-26250416D02*
X42090533Y-26345654D01*
X52704819Y-67767083D02*
X53419104Y-67767083D01*
X53419104Y-67767083D02*
X53561961Y-67814702D01*
X53561961Y-67814702D02*
X53657200Y-67909940D01*
X53657200Y-67909940D02*
X53704819Y-68052797D01*
X53704819Y-68052797D02*
X53704819Y-68148035D01*
X53704819Y-66767083D02*
X53704819Y-67338511D01*
X53704819Y-67052797D02*
X52704819Y-67052797D01*
X52704819Y-67052797D02*
X52847676Y-67148035D01*
X52847676Y-67148035D02*
X52942914Y-67243273D01*
X52942914Y-67243273D02*
X52990533Y-67338511D01*
X12954819Y-26561904D02*
X13764342Y-26561904D01*
X13764342Y-26561904D02*
X13859580Y-26514285D01*
X13859580Y-26514285D02*
X13907200Y-26466666D01*
X13907200Y-26466666D02*
X13954819Y-26371428D01*
X13954819Y-26371428D02*
X13954819Y-26180952D01*
X13954819Y-26180952D02*
X13907200Y-26085714D01*
X13907200Y-26085714D02*
X13859580Y-26038095D01*
X13859580Y-26038095D02*
X13764342Y-25990476D01*
X13764342Y-25990476D02*
X12954819Y-25990476D01*
X12954819Y-25085714D02*
X12954819Y-25276190D01*
X12954819Y-25276190D02*
X13002438Y-25371428D01*
X13002438Y-25371428D02*
X13050057Y-25419047D01*
X13050057Y-25419047D02*
X13192914Y-25514285D01*
X13192914Y-25514285D02*
X13383390Y-25561904D01*
X13383390Y-25561904D02*
X13764342Y-25561904D01*
X13764342Y-25561904D02*
X13859580Y-25514285D01*
X13859580Y-25514285D02*
X13907200Y-25466666D01*
X13907200Y-25466666D02*
X13954819Y-25371428D01*
X13954819Y-25371428D02*
X13954819Y-25180952D01*
X13954819Y-25180952D02*
X13907200Y-25085714D01*
X13907200Y-25085714D02*
X13859580Y-25038095D01*
X13859580Y-25038095D02*
X13764342Y-24990476D01*
X13764342Y-24990476D02*
X13526247Y-24990476D01*
X13526247Y-24990476D02*
X13431009Y-25038095D01*
X13431009Y-25038095D02*
X13383390Y-25085714D01*
X13383390Y-25085714D02*
X13335771Y-25180952D01*
X13335771Y-25180952D02*
X13335771Y-25371428D01*
X13335771Y-25371428D02*
X13383390Y-25466666D01*
X13383390Y-25466666D02*
X13431009Y-25514285D01*
X13431009Y-25514285D02*
X13526247Y-25561904D01*
D11*
%TO.C,SW1*%
X35715000Y-27490000D02*
X35715000Y-27740000D01*
X35715000Y-30960000D02*
X35715000Y-31210000D01*
X35715000Y-31210000D02*
X40635000Y-31210000D01*
X40635000Y-27490000D02*
X35715000Y-27490000D01*
X40635000Y-27490000D02*
X40635000Y-27740000D01*
X40635000Y-30960000D02*
X40635000Y-31210000D01*
%TO.C,R13*%
X14930436Y-37335000D02*
X15384564Y-37335000D01*
X14930436Y-38805000D02*
X15384564Y-38805000D01*
%TO.C,J5*%
X45600000Y-69750000D02*
X46400000Y-69750000D01*
X45600000Y-69950000D02*
X45600000Y-69750000D01*
X45800000Y-72750000D02*
X45600000Y-72550000D01*
X46400000Y-72750000D02*
X45800000Y-72750000D01*
X46400000Y-72750000D02*
X46400000Y-73250000D01*
X47800000Y-69750000D02*
X48600000Y-69750000D01*
X47800000Y-72750000D02*
X47800000Y-73250000D01*
X48600000Y-69750000D02*
X48600000Y-69950000D01*
X48600000Y-72550000D02*
X48600000Y-72750000D01*
X48600000Y-72750000D02*
X47800000Y-72750000D01*
%TO.C,R21*%
X47172936Y-40465000D02*
X47627064Y-40465000D01*
X47172936Y-41935000D02*
X47627064Y-41935000D01*
%TO.C,D1*%
X53640000Y-38764000D02*
X53640000Y-38920000D01*
X53640000Y-41080000D02*
X53640000Y-41236000D01*
X53640000Y-38764484D02*
G75*
G02*
X56871437Y-38920000I1560000J-1235516D01*
G01*
X54159039Y-38920000D02*
G75*
G02*
X56240961Y-38920000I1040961J-1080000D01*
G01*
X56240961Y-41080000D02*
G75*
G02*
X54159039Y-41080000I-1040961J1080000D01*
G01*
X56871437Y-41080000D02*
G75*
G02*
X53640000Y-41235516I-1671437J1080000D01*
G01*
%TO.C,C13*%
X27790000Y-34711252D02*
X27790000Y-34188748D01*
X29260000Y-34711252D02*
X29260000Y-34188748D01*
%TO.C,R17*%
X25515000Y-15522936D02*
X25515000Y-15977064D01*
X26985000Y-15522936D02*
X26985000Y-15977064D01*
%TO.C,R20*%
X34185436Y-23515000D02*
X34639564Y-23515000D01*
X34185436Y-24985000D02*
X34639564Y-24985000D01*
%TO.C,C16*%
X30815000Y-49538748D02*
X30815000Y-50061252D01*
X32285000Y-49538748D02*
X32285000Y-50061252D01*
%TO.C,R16*%
X15307064Y-48375000D02*
X14852936Y-48375000D01*
X15307064Y-49845000D02*
X14852936Y-49845000D01*
%TO.C,SW2*%
X19140000Y-63790000D02*
X19140000Y-63540000D01*
X19140000Y-67260000D02*
X19140000Y-67010000D01*
X19140000Y-67260000D02*
X24060000Y-67260000D01*
X24060000Y-63540000D02*
X19140000Y-63540000D01*
X24060000Y-63790000D02*
X24060000Y-63540000D01*
X24060000Y-67260000D02*
X24060000Y-67010000D01*
%TO.C,IC1*%
X20790000Y-37515000D02*
X21440000Y-37515000D01*
X20790000Y-38165000D02*
X20790000Y-37515000D01*
X20790000Y-44085000D02*
X20790000Y-44735000D01*
X20790000Y-44735000D02*
X21440000Y-44735000D01*
X28010000Y-38165000D02*
X28010000Y-37515000D01*
X28010000Y-44085000D02*
X28010000Y-44735000D01*
X28010000Y-44735000D02*
X27360000Y-44735000D01*
%TO.C,LED1*%
X51600000Y-50327500D02*
X51600000Y-55827500D01*
X51600000Y-50327500D02*
X58600000Y-50327500D01*
X51600000Y-55827500D02*
X58150000Y-55827500D01*
X52400000Y-53977500D02*
X52400000Y-52177500D01*
X57800000Y-53977500D02*
X57800000Y-52177500D01*
X58150000Y-55827500D02*
X58600000Y-55377500D01*
X58600000Y-55377500D02*
X58600000Y-50327500D01*
%TO.C,C18*%
X22265000Y-33861252D02*
X22265000Y-33338748D01*
X23735000Y-33861252D02*
X23735000Y-33338748D01*
%TO.C,C14*%
X15361252Y-39481000D02*
X14838748Y-39481000D01*
X15361252Y-40951000D02*
X14838748Y-40951000D01*
%TO.C,J6*%
X23140000Y-76215000D02*
X23140000Y-82185000D01*
X23140000Y-82185000D02*
X33260000Y-82185000D01*
X23150000Y-79925000D02*
X23900000Y-79925000D01*
X23150000Y-81425000D02*
X23150000Y-82175000D01*
X23150000Y-82175000D02*
X24950000Y-82175000D01*
X23900000Y-76975000D02*
X28200000Y-76975000D01*
X23900000Y-79925000D02*
X23900000Y-76975000D01*
X24950000Y-81425000D02*
X23150000Y-81425000D01*
X24950000Y-82175000D02*
X24950000Y-81425000D01*
X26450000Y-81425000D02*
X26450000Y-82175000D01*
X26450000Y-82175000D02*
X29950000Y-82175000D01*
X28200000Y-76975000D02*
X31440000Y-76975000D01*
X29950000Y-81425000D02*
X26450000Y-81425000D01*
X29950000Y-82175000D02*
X29950000Y-81425000D01*
X31450000Y-81425000D02*
X31450000Y-82175000D01*
X31450000Y-82175000D02*
X33250000Y-82175000D01*
X32300000Y-82475000D02*
X33550000Y-82475000D01*
X32500000Y-79925000D02*
X32500000Y-78585000D01*
X33250000Y-79925000D02*
X32500000Y-79925000D01*
X33250000Y-81425000D02*
X31450000Y-81425000D01*
X33250000Y-82175000D02*
X33250000Y-81425000D01*
X33260000Y-76215000D02*
X23140000Y-76215000D01*
X33260000Y-82185000D02*
X33260000Y-76215000D01*
X33550000Y-82475000D02*
X33550000Y-81225000D01*
%TO.C,D3*%
X30890000Y-32225000D02*
X30890000Y-34225000D01*
X30890000Y-32225000D02*
X34900000Y-32225000D01*
X30890000Y-34225000D02*
X34900000Y-34225000D01*
%TO.C,SW4*%
X19140000Y-70890000D02*
X19140000Y-70640000D01*
X19140000Y-74360000D02*
X19140000Y-74110000D01*
X19140000Y-74360000D02*
X24060000Y-74360000D01*
X24060000Y-70640000D02*
X19140000Y-70640000D01*
X24060000Y-70890000D02*
X24060000Y-70640000D01*
X24060000Y-74360000D02*
X24060000Y-74110000D01*
%TO.C,C15*%
X28665000Y-49541248D02*
X28665000Y-50063752D01*
X30135000Y-49541248D02*
X30135000Y-50063752D01*
%TO.C,C10*%
X15361252Y-43973000D02*
X14838748Y-43973000D01*
X15361252Y-45443000D02*
X14838748Y-45443000D01*
%TO.C,U4*%
X27900000Y-57150000D02*
X28300000Y-57150000D01*
X27900000Y-73350000D02*
X27900000Y-57150000D01*
X43700000Y-73350000D02*
X44100000Y-73350000D01*
X44100000Y-57150000D02*
X43700000Y-57150000D01*
X44100000Y-73350000D02*
X44100000Y-57150000D01*
X28100000Y-73850000D02*
X27764000Y-74090000D01*
X27764000Y-73610000D01*
X28100000Y-73850000D01*
G36*
X28100000Y-73850000D02*
G01*
X27764000Y-74090000D01*
X27764000Y-73610000D01*
X28100000Y-73850000D01*
G37*
%TO.C,J7*%
X34440000Y-77005000D02*
X49900000Y-77005000D01*
X34440000Y-79655000D02*
X34440000Y-77005000D01*
X34440000Y-82305000D02*
X34440000Y-80925000D01*
X35820000Y-82305000D02*
X34440000Y-82305000D01*
X37090000Y-79655000D02*
X34440000Y-79655000D01*
X37090000Y-82305000D02*
X37090000Y-79655000D01*
X37090000Y-82305000D02*
X49900000Y-82305000D01*
X49900000Y-82305000D02*
X49900000Y-77005000D01*
%TO.C,J3*%
X41330000Y-17365000D02*
X41330000Y-15955000D01*
X33790000Y-13285000D02*
X32990000Y-13285000D01*
X32990000Y-13285000D02*
X32990000Y-13435000D01*
X32170000Y-17365000D02*
X32170000Y-15955000D01*
%TO.C,C17*%
X32138748Y-40865000D02*
X32661252Y-40865000D01*
X32138748Y-42335000D02*
X32661252Y-42335000D01*
%TO.C,R18*%
X45065000Y-15572936D02*
X45065000Y-16027064D01*
X46535000Y-15572936D02*
X46535000Y-16027064D01*
%TO.C,R19*%
X39977064Y-23515000D02*
X39522936Y-23515000D01*
X39977064Y-24985000D02*
X39522936Y-24985000D01*
%TO.C,U1*%
X44200000Y-31583750D02*
X44200000Y-30583750D01*
X44500000Y-21883750D02*
X58000000Y-21883750D01*
X44500000Y-22933750D02*
X44500000Y-21883750D01*
X44500000Y-26933750D02*
X44500000Y-24233750D01*
X44500000Y-28933750D02*
X44500000Y-28233750D01*
X44500000Y-31283750D02*
X44500000Y-30233750D01*
X45200000Y-31583750D02*
X44200000Y-31583750D01*
X58000000Y-24883750D02*
X58000000Y-21883750D01*
X58000000Y-26933750D02*
X58000000Y-26233750D01*
X58000000Y-28933750D02*
X58000000Y-28233750D01*
X58000000Y-30233750D02*
X58000000Y-31283750D01*
X58000000Y-31283750D02*
X44500000Y-31283750D01*
%TO.C,C12*%
X31065000Y-45661252D02*
X31065000Y-45138748D01*
X32535000Y-45661252D02*
X32535000Y-45138748D01*
%TO.C,U7*%
X37502500Y-42147500D02*
X43022500Y-42147500D01*
X37502500Y-42417500D02*
X37502500Y-42147500D01*
X37502500Y-47667500D02*
X37502500Y-47397500D01*
X43022500Y-42147500D02*
X43022500Y-42417500D01*
X43022500Y-47397500D02*
X43022500Y-47667500D01*
X43022500Y-47667500D02*
X37502500Y-47667500D01*
X44192500Y-47877500D02*
X43512500Y-47877500D01*
X43852500Y-47407500D01*
X44192500Y-47877500D01*
G36*
X44192500Y-47877500D02*
G01*
X43512500Y-47877500D01*
X43852500Y-47407500D01*
X44192500Y-47877500D01*
G37*
%TO.C,J2*%
X51090000Y-46331250D02*
X51090000Y-44951250D01*
X52470000Y-46331250D02*
X51090000Y-46331250D01*
X53740000Y-43571250D02*
X58930000Y-43571250D01*
X53740000Y-46331250D02*
X53740000Y-43571250D01*
X53740000Y-46331250D02*
X58930000Y-46331250D01*
X58930000Y-46331250D02*
X58930000Y-43571250D01*
%TO.C,C11*%
X32661252Y-38865000D02*
X32138748Y-38865000D01*
X32661252Y-40335000D02*
X32138748Y-40335000D01*
%TO.C,J1*%
X54340000Y-59823750D02*
X54340000Y-75043750D01*
X54340000Y-75043750D02*
X58360000Y-75043750D01*
X54840000Y-60323750D02*
X56050000Y-60323750D01*
X54840000Y-74543750D02*
X54840000Y-60323750D01*
X56050000Y-60323750D02*
X56050000Y-59823750D01*
X56050000Y-74543750D02*
X54840000Y-74543750D01*
X56050000Y-75043750D02*
X56050000Y-74543750D01*
X56160000Y-75343750D02*
X58660000Y-75343750D01*
X56860000Y-59823750D02*
X56860000Y-60823750D01*
X56860000Y-60823750D02*
X58360000Y-60823750D01*
X56860000Y-74043750D02*
X58360000Y-74043750D01*
X56860000Y-75043750D02*
X56860000Y-74043750D01*
X58360000Y-59823750D02*
X54340000Y-59823750D01*
X58360000Y-75043750D02*
X58360000Y-59823750D01*
X58660000Y-75343750D02*
X58660000Y-72843750D01*
%TO.C,R15*%
X38302064Y-74815000D02*
X37847936Y-74815000D01*
X38302064Y-76285000D02*
X37847936Y-76285000D01*
%TO.C,R14*%
X47172936Y-44465000D02*
X47627064Y-44465000D01*
X47172936Y-45935000D02*
X47627064Y-45935000D01*
%TO.C,U6*%
X14340000Y-23415000D02*
X14595000Y-23415000D01*
X14340000Y-28185000D02*
X14340000Y-23415000D01*
X14595000Y-28185000D02*
X14340000Y-28185000D01*
X24605000Y-23415000D02*
X24860000Y-23415000D01*
X24860000Y-23415000D02*
X24860000Y-28185000D01*
X24860000Y-28185000D02*
X24605000Y-28185000D01*
X14590000Y-29050000D02*
X14120000Y-29390000D01*
X14120000Y-28710000D01*
X14590000Y-29050000D01*
G36*
X14590000Y-29050000D02*
G01*
X14120000Y-29390000D01*
X14120000Y-28710000D01*
X14590000Y-29050000D01*
G37*
%TO.C,C20*%
X22865000Y-50938748D02*
X22865000Y-51461252D01*
X24335000Y-50938748D02*
X24335000Y-51461252D01*
%TO.C,C7*%
X14838748Y-41727000D02*
X15361252Y-41727000D01*
X14838748Y-43197000D02*
X15361252Y-43197000D01*
%TO.C,C19*%
X29065000Y-45138748D02*
X29065000Y-45661252D01*
X30535000Y-45138748D02*
X30535000Y-45661252D01*
%TO.C,R12*%
X14852936Y-46189000D02*
X15307064Y-46189000D01*
X14852936Y-47659000D02*
X15307064Y-47659000D01*
%TD*%
%LPC*%
D12*
%TO.C,SW1*%
X35600000Y-28500000D03*
X40750000Y-28500000D03*
X35600000Y-30200000D03*
X40750000Y-30200000D03*
%TD*%
D13*
%TO.C,R13*%
X14245000Y-38070000D03*
X16070000Y-38070000D03*
%TD*%
D14*
%TO.C,J5*%
X47100000Y-69750000D03*
D15*
X48575000Y-71250000D03*
D14*
X47100000Y-72750000D03*
D15*
X45625000Y-71250000D03*
%TD*%
D13*
%TO.C,R21*%
X46487500Y-41200000D03*
X48312500Y-41200000D03*
%TD*%
D16*
%TO.C,D1*%
X52660000Y-40000000D03*
D17*
X55200000Y-40000000D03*
X57740000Y-40000000D03*
%TD*%
D18*
%TO.C,C13*%
X28525000Y-35400000D03*
X28525000Y-33500000D03*
%TD*%
D19*
%TO.C,R6*%
X15200000Y-58380000D03*
X15200000Y-73620000D03*
%TD*%
D20*
%TO.C,R17*%
X26250000Y-14837500D03*
X26250000Y-16662500D03*
%TD*%
D21*
%TO.C,U$4*%
X16750000Y-17000000D03*
%TD*%
D13*
%TO.C,R20*%
X33500000Y-24250000D03*
X35325000Y-24250000D03*
%TD*%
D22*
%TO.C,C16*%
X31550000Y-48850000D03*
X31550000Y-50750000D03*
%TD*%
D23*
%TO.C,R16*%
X15992500Y-49110000D03*
X14167500Y-49110000D03*
%TD*%
D24*
%TO.C,SW2*%
X24175000Y-66250000D03*
X19025000Y-66250000D03*
X24175000Y-64550000D03*
X19025000Y-64550000D03*
%TD*%
D25*
%TO.C,IC1*%
X27000000Y-37687500D03*
X26600000Y-37687500D03*
X26200000Y-37687500D03*
X25800000Y-37687500D03*
X25400000Y-37687500D03*
X25000000Y-37687500D03*
X24600000Y-37687500D03*
X24200000Y-37687500D03*
X23800000Y-37687500D03*
X23400000Y-37687500D03*
X23000000Y-37687500D03*
X22600000Y-37687500D03*
X22200000Y-37687500D03*
X21800000Y-37687500D03*
D26*
X20962500Y-38525000D03*
X20962500Y-38925000D03*
X20962500Y-39325000D03*
X20962500Y-39725000D03*
X20962500Y-40125000D03*
X20962500Y-40525000D03*
X20962500Y-40925000D03*
X20962500Y-41325000D03*
X20962500Y-41725000D03*
X20962500Y-42125000D03*
X20962500Y-42525000D03*
X20962500Y-42925000D03*
X20962500Y-43325000D03*
X20962500Y-43725000D03*
D25*
X21800000Y-44562500D03*
X22200000Y-44562500D03*
X22600000Y-44562500D03*
X23000000Y-44562500D03*
X23400000Y-44562500D03*
X23800000Y-44562500D03*
X24200000Y-44562500D03*
X24600000Y-44562500D03*
X25000000Y-44562500D03*
X25400000Y-44562500D03*
X25800000Y-44562500D03*
X26200000Y-44562500D03*
X26600000Y-44562500D03*
X27000000Y-44562500D03*
D26*
X27837500Y-43725000D03*
X27837500Y-43325000D03*
X27837500Y-42925000D03*
X27837500Y-42525000D03*
X27837500Y-42125000D03*
X27837500Y-41725000D03*
X27837500Y-41325000D03*
X27837500Y-40925000D03*
X27837500Y-40525000D03*
X27837500Y-40125000D03*
X27837500Y-39725000D03*
X27837500Y-39325000D03*
X27837500Y-38925000D03*
X27837500Y-38525000D03*
D27*
X24400000Y-41125000D03*
%TD*%
D28*
%TO.C,LED1*%
X52650000Y-51427500D03*
X52650000Y-54727500D03*
X57550000Y-54727500D03*
X57550000Y-51427500D03*
%TD*%
D21*
%TO.C,U$2*%
X16750000Y-79500000D03*
%TD*%
D18*
%TO.C,C18*%
X23000000Y-34550000D03*
X23000000Y-32650000D03*
%TD*%
D29*
%TO.C,C14*%
X16050000Y-40216000D03*
X14150000Y-40216000D03*
%TD*%
D30*
%TO.C,J6*%
X32300000Y-77725000D03*
D31*
X30700000Y-79725000D03*
D32*
X28200000Y-79725000D03*
X25700000Y-79725000D03*
%TD*%
D33*
%TO.C,D3*%
X31600000Y-33225000D03*
X34900000Y-33225000D03*
%TD*%
D24*
%TO.C,SW4*%
X24175000Y-73350000D03*
X19025000Y-73350000D03*
X24175000Y-71650000D03*
X19025000Y-71650000D03*
%TD*%
D22*
%TO.C,C15*%
X29400000Y-48852500D03*
X29400000Y-50752500D03*
%TD*%
D29*
%TO.C,C10*%
X16050000Y-44708000D03*
X14150000Y-44708000D03*
%TD*%
D21*
%TO.C,U$3*%
X56750000Y-17000000D03*
%TD*%
D34*
%TO.C,U4*%
X29000000Y-72775000D03*
X31000000Y-72775000D03*
X33000000Y-72775000D03*
X35000000Y-72775000D03*
X37000000Y-72775000D03*
X39000000Y-72775000D03*
X41000000Y-72775000D03*
X43000000Y-72775000D03*
X43000000Y-57725000D03*
X41000000Y-57725000D03*
X39000000Y-57725000D03*
X37000000Y-57725000D03*
X35000000Y-57725000D03*
X33000000Y-57725000D03*
X31000000Y-57725000D03*
X29000000Y-57725000D03*
%TD*%
D35*
%TO.C,J7*%
X35820000Y-80925000D03*
D36*
X35820000Y-78385000D03*
X38360000Y-80925000D03*
X38360000Y-78385000D03*
X40900000Y-80925000D03*
X40900000Y-78385000D03*
X43440000Y-80925000D03*
X43440000Y-78385000D03*
X45980000Y-80925000D03*
X45980000Y-78385000D03*
X48520000Y-80925000D03*
X48520000Y-78385000D03*
%TD*%
D37*
%TO.C,J3*%
X41860000Y-18625000D03*
X41860000Y-14695000D03*
X31640000Y-18625000D03*
X31640000Y-14695000D03*
D38*
X33550000Y-14120000D03*
X34350000Y-14120000D03*
D39*
X35000000Y-14120000D03*
X36000000Y-14120000D03*
X37500000Y-14120000D03*
X38500000Y-14120000D03*
D38*
X39150000Y-14120000D03*
X39950000Y-14120000D03*
X39950000Y-14120000D03*
X39150000Y-14120000D03*
D39*
X38000000Y-14120000D03*
X37000000Y-14120000D03*
X36500000Y-14120000D03*
X35500000Y-14120000D03*
D38*
X34350000Y-14120000D03*
X33550000Y-14120000D03*
D40*
X39640000Y-15195000D03*
X33860000Y-15195000D03*
%TD*%
D41*
%TO.C,C17*%
X31450000Y-41600000D03*
X33350000Y-41600000D03*
%TD*%
D20*
%TO.C,R18*%
X45800000Y-14887500D03*
X45800000Y-16712500D03*
%TD*%
D23*
%TO.C,R19*%
X40662500Y-24250000D03*
X38837500Y-24250000D03*
%TD*%
D42*
%TO.C,U1*%
X46500000Y-29583750D03*
X46500000Y-27583750D03*
X46500000Y-23583750D03*
X56000000Y-29583750D03*
X56000000Y-27583750D03*
X56000000Y-25583750D03*
%TD*%
D18*
%TO.C,C12*%
X31800000Y-46350000D03*
X31800000Y-44450000D03*
%TD*%
D43*
%TO.C,U7*%
X43850000Y-46812500D03*
X43850000Y-45542500D03*
X43850000Y-44272500D03*
X43850000Y-43002500D03*
X36675000Y-43002500D03*
X36675000Y-44272500D03*
X36675000Y-45542500D03*
X36675000Y-46812500D03*
%TD*%
D35*
%TO.C,J2*%
X52470000Y-44951250D03*
D36*
X55010000Y-44951250D03*
X57550000Y-44951250D03*
%TD*%
D29*
%TO.C,C11*%
X33350000Y-39600000D03*
X31450000Y-39600000D03*
%TD*%
D44*
%TO.C,J1*%
X56050000Y-72433750D03*
D45*
X56050000Y-69933750D03*
X56050000Y-67433750D03*
X56050000Y-64933750D03*
X56050000Y-62433750D03*
%TD*%
D21*
%TO.C,U$1*%
X56750000Y-79500000D03*
%TD*%
D23*
%TO.C,R15*%
X38987500Y-75550000D03*
X37162500Y-75550000D03*
%TD*%
D13*
%TO.C,R14*%
X46487500Y-45200000D03*
X48312500Y-45200000D03*
%TD*%
D46*
%TO.C,U6*%
X15155000Y-29050000D03*
X16425000Y-29050000D03*
X17695000Y-29050000D03*
X18965000Y-29050000D03*
X20235000Y-29050000D03*
X21505000Y-29050000D03*
X22775000Y-29050000D03*
X24045000Y-29050000D03*
X24045000Y-22550000D03*
X22775000Y-22550000D03*
X21505000Y-22550000D03*
X20235000Y-22550000D03*
X18965000Y-22550000D03*
X17695000Y-22550000D03*
X16425000Y-22550000D03*
X15155000Y-22550000D03*
%TD*%
D22*
%TO.C,C20*%
X23600000Y-50250000D03*
X23600000Y-52150000D03*
%TD*%
D41*
%TO.C,C7*%
X14150000Y-42462000D03*
X16050000Y-42462000D03*
%TD*%
D22*
%TO.C,C19*%
X29800000Y-44450000D03*
X29800000Y-46350000D03*
%TD*%
D13*
%TO.C,R12*%
X14167500Y-46924000D03*
X15992500Y-46924000D03*
%TD*%
%LPD*%
M02*
