%TF.GenerationSoftware,KiCad,Pcbnew,9.0.6*%
%TF.CreationDate,2025-11-22T08:39:34-08:00*%
%TF.ProjectId,bramble,6272616d-626c-4652-9e6b-696361645f70,rev?*%
%TF.SameCoordinates,Original*%
%TF.FileFunction,Legend,Bot*%
%TF.FilePolarity,Positive*%
%FSLAX46Y46*%
G04 Gerber Fmt 4.6, Leading zero omitted, Abs format (unit mm)*
G04 Created by KiCad (PCBNEW 9.0.6) date 2025-11-22 08:39:34*
%MOMM*%
%LPD*%
G01*
G04 APERTURE LIST*
G04 Aperture macros list*
%AMRoundRect*
0 Rectangle with rounded corners*
0 $1 Rounding radius*
0 $2 $3 $4 $5 $6 $7 $8 $9 X,Y pos of 4 corners*
0 Add a 4 corners polygon primitive as box body*
4,1,4,$2,$3,$4,$5,$6,$7,$8,$9,$2,$3,0*
0 Add four circle primitives for the rounded corners*
1,1,$1+$1,$2,$3*
1,1,$1+$1,$4,$5*
1,1,$1+$1,$6,$7*
1,1,$1+$1,$8,$9*
0 Add four rect primitives between the rounded corners*
20,1,$1+$1,$2,$3,$4,$5,0*
20,1,$1+$1,$4,$5,$6,$7,0*
20,1,$1+$1,$6,$7,$8,$9,0*
20,1,$1+$1,$8,$9,$2,$3,0*%
%AMFreePoly0*
4,1,9,5.362500,-0.866500,1.237500,-0.866500,1.237500,-0.450000,-1.237500,-0.450000,-1.237500,0.450000,1.237500,0.450000,1.237500,0.866500,5.362500,0.866500,5.362500,-0.866500,5.362500,-0.866500,$1*%
G04 Aperture macros list end*
%ADD10C,0.150000*%
%ADD11C,0.120000*%
%ADD12RoundRect,0.250000X-0.262500X-0.450000X0.262500X-0.450000X0.262500X0.450000X-0.262500X0.450000X0*%
%ADD13RoundRect,0.250000X-0.250000X-0.475000X0.250000X-0.475000X0.250000X0.475000X-0.250000X0.475000X0*%
%ADD14R,1.800000X1.000000*%
%ADD15RoundRect,0.150000X0.587500X0.150000X-0.587500X0.150000X-0.587500X-0.150000X0.587500X-0.150000X0*%
%ADD16R,1.800000X1.800000*%
%ADD17C,1.800000*%
%ADD18C,2.400000*%
%ADD19RoundRect,0.100000X0.637500X0.100000X-0.637500X0.100000X-0.637500X-0.100000X0.637500X-0.100000X0*%
%ADD20RoundRect,0.250000X-0.450000X0.262500X-0.450000X-0.262500X0.450000X-0.262500X0.450000X0.262500X0*%
%ADD21C,5.000000*%
%ADD22RoundRect,0.250000X0.450000X-0.262500X0.450000X0.262500X-0.450000X0.262500X-0.450000X-0.262500X0*%
%ADD23RoundRect,0.250000X0.262500X0.450000X-0.262500X0.450000X-0.262500X-0.450000X0.262500X-0.450000X0*%
%ADD24RoundRect,0.250000X0.250000X0.475000X-0.250000X0.475000X-0.250000X-0.475000X0.250000X-0.475000X0*%
%ADD25C,1.200000*%
%ADD26RoundRect,0.250000X0.600000X0.725000X-0.600000X0.725000X-0.600000X-0.725000X0.600000X-0.725000X0*%
%ADD27O,1.700000X1.950000*%
%ADD28RoundRect,0.250001X1.412499X0.949999X-1.412499X0.949999X-1.412499X-0.949999X1.412499X-0.949999X0*%
%ADD29RoundRect,0.225000X0.925000X0.225000X-0.925000X0.225000X-0.925000X-0.225000X0.925000X-0.225000X0*%
%ADD30FreePoly0,180.000000*%
%ADD31R,1.700000X1.700000*%
%ADD32C,1.700000*%
%ADD33C,0.650000*%
%ADD34RoundRect,0.250000X0.725000X-0.600000X0.725000X0.600000X-0.725000X0.600000X-0.725000X-0.600000X0*%
%ADD35O,1.950000X1.700000*%
%ADD36RoundRect,0.250000X-0.475000X0.250000X-0.475000X-0.250000X0.475000X-0.250000X0.475000X0.250000X0*%
G04 APERTURE END LIST*
D10*
X45203628Y-24576309D02*
X45679819Y-24576309D01*
X44679819Y-24242976D02*
X45203628Y-24576309D01*
X45203628Y-24576309D02*
X44679819Y-24909642D01*
X45679819Y-25766785D02*
X45679819Y-25195357D01*
X45679819Y-25481071D02*
X44679819Y-25481071D01*
X44679819Y-25481071D02*
X44822676Y-25385833D01*
X44822676Y-25385833D02*
X44917914Y-25290595D01*
X44917914Y-25290595D02*
X44965533Y-25195357D01*
X16645238Y-26150057D02*
X16740476Y-26102438D01*
X16740476Y-26102438D02*
X16835714Y-26007200D01*
X16835714Y-26007200D02*
X16978571Y-25864342D01*
X16978571Y-25864342D02*
X17073809Y-25816723D01*
X17073809Y-25816723D02*
X17169047Y-25816723D01*
X17121428Y-26054819D02*
X17216666Y-26007200D01*
X17216666Y-26007200D02*
X17311904Y-25911961D01*
X17311904Y-25911961D02*
X17359523Y-25721485D01*
X17359523Y-25721485D02*
X17359523Y-25388152D01*
X17359523Y-25388152D02*
X17311904Y-25197676D01*
X17311904Y-25197676D02*
X17216666Y-25102438D01*
X17216666Y-25102438D02*
X17121428Y-25054819D01*
X17121428Y-25054819D02*
X16930952Y-25054819D01*
X16930952Y-25054819D02*
X16835714Y-25102438D01*
X16835714Y-25102438D02*
X16740476Y-25197676D01*
X16740476Y-25197676D02*
X16692857Y-25388152D01*
X16692857Y-25388152D02*
X16692857Y-25721485D01*
X16692857Y-25721485D02*
X16740476Y-25911961D01*
X16740476Y-25911961D02*
X16835714Y-26007200D01*
X16835714Y-26007200D02*
X16930952Y-26054819D01*
X16930952Y-26054819D02*
X17121428Y-26054819D01*
X15740476Y-26054819D02*
X16311904Y-26054819D01*
X16026190Y-26054819D02*
X16026190Y-25054819D01*
X16026190Y-25054819D02*
X16121428Y-25197676D01*
X16121428Y-25197676D02*
X16216666Y-25292914D01*
X16216666Y-25292914D02*
X16311904Y-25340533D01*
X37261904Y-23504819D02*
X37261904Y-24314342D01*
X37261904Y-24314342D02*
X37214285Y-24409580D01*
X37214285Y-24409580D02*
X37166666Y-24457200D01*
X37166666Y-24457200D02*
X37071428Y-24504819D01*
X37071428Y-24504819D02*
X36880952Y-24504819D01*
X36880952Y-24504819D02*
X36785714Y-24457200D01*
X36785714Y-24457200D02*
X36738095Y-24409580D01*
X36738095Y-24409580D02*
X36690476Y-24314342D01*
X36690476Y-24314342D02*
X36690476Y-23504819D01*
X36309523Y-23504819D02*
X35690476Y-23504819D01*
X35690476Y-23504819D02*
X36023809Y-23885771D01*
X36023809Y-23885771D02*
X35880952Y-23885771D01*
X35880952Y-23885771D02*
X35785714Y-23933390D01*
X35785714Y-23933390D02*
X35738095Y-23981009D01*
X35738095Y-23981009D02*
X35690476Y-24076247D01*
X35690476Y-24076247D02*
X35690476Y-24314342D01*
X35690476Y-24314342D02*
X35738095Y-24409580D01*
X35738095Y-24409580D02*
X35785714Y-24457200D01*
X35785714Y-24457200D02*
X35880952Y-24504819D01*
X35880952Y-24504819D02*
X36166666Y-24504819D01*
X36166666Y-24504819D02*
X36261904Y-24457200D01*
X36261904Y-24457200D02*
X36309523Y-24409580D01*
X29649404Y-16704819D02*
X29649404Y-17514342D01*
X29649404Y-17514342D02*
X29601785Y-17609580D01*
X29601785Y-17609580D02*
X29554166Y-17657200D01*
X29554166Y-17657200D02*
X29458928Y-17704819D01*
X29458928Y-17704819D02*
X29268452Y-17704819D01*
X29268452Y-17704819D02*
X29173214Y-17657200D01*
X29173214Y-17657200D02*
X29125595Y-17609580D01*
X29125595Y-17609580D02*
X29077976Y-17514342D01*
X29077976Y-17514342D02*
X29077976Y-16704819D01*
X28125595Y-16704819D02*
X28601785Y-16704819D01*
X28601785Y-16704819D02*
X28649404Y-17181009D01*
X28649404Y-17181009D02*
X28601785Y-17133390D01*
X28601785Y-17133390D02*
X28506547Y-17085771D01*
X28506547Y-17085771D02*
X28268452Y-17085771D01*
X28268452Y-17085771D02*
X28173214Y-17133390D01*
X28173214Y-17133390D02*
X28125595Y-17181009D01*
X28125595Y-17181009D02*
X28077976Y-17276247D01*
X28077976Y-17276247D02*
X28077976Y-17514342D01*
X28077976Y-17514342D02*
X28125595Y-17609580D01*
X28125595Y-17609580D02*
X28173214Y-17657200D01*
X28173214Y-17657200D02*
X28268452Y-17704819D01*
X28268452Y-17704819D02*
X28506547Y-17704819D01*
X28506547Y-17704819D02*
X28601785Y-17657200D01*
X28601785Y-17657200D02*
X28649404Y-17609580D01*
X22261904Y-47804819D02*
X22261904Y-48614342D01*
X22261904Y-48614342D02*
X22214285Y-48709580D01*
X22214285Y-48709580D02*
X22166666Y-48757200D01*
X22166666Y-48757200D02*
X22071428Y-48804819D01*
X22071428Y-48804819D02*
X21880952Y-48804819D01*
X21880952Y-48804819D02*
X21785714Y-48757200D01*
X21785714Y-48757200D02*
X21738095Y-48709580D01*
X21738095Y-48709580D02*
X21690476Y-48614342D01*
X21690476Y-48614342D02*
X21690476Y-47804819D01*
X21261904Y-47900057D02*
X21214285Y-47852438D01*
X21214285Y-47852438D02*
X21119047Y-47804819D01*
X21119047Y-47804819D02*
X20880952Y-47804819D01*
X20880952Y-47804819D02*
X20785714Y-47852438D01*
X20785714Y-47852438D02*
X20738095Y-47900057D01*
X20738095Y-47900057D02*
X20690476Y-47995295D01*
X20690476Y-47995295D02*
X20690476Y-48090533D01*
X20690476Y-48090533D02*
X20738095Y-48233390D01*
X20738095Y-48233390D02*
X21309523Y-48804819D01*
X21309523Y-48804819D02*
X20690476Y-48804819D01*
D11*
%TO.C,R8*%
X28772936Y-42765000D02*
X29227064Y-42765000D01*
X28772936Y-44235000D02*
X29227064Y-44235000D01*
%TO.C,C1*%
X28578748Y-52435000D02*
X29101252Y-52435000D01*
X28578748Y-53905000D02*
X29101252Y-53905000D01*
%TO.C,Y1*%
X42350000Y-25727500D02*
X42350000Y-24377500D01*
X44100000Y-25727500D02*
X44100000Y-24377500D01*
%TO.C,Q1*%
X15790000Y-26440000D02*
X15790000Y-27440000D01*
X15790000Y-28560000D02*
X15790000Y-29560000D01*
X15790000Y-29560000D02*
X17310000Y-29560000D01*
X17310000Y-26440000D02*
X15790000Y-26440000D01*
X17310000Y-26490000D02*
X17310000Y-26440000D01*
X17310000Y-28390000D02*
X17310000Y-27610000D01*
X17310000Y-29560000D02*
X17310000Y-29510000D01*
X18090000Y-27950000D02*
X17610000Y-27950000D01*
X17850000Y-27620000D01*
X18090000Y-27950000D01*
G36*
X18090000Y-27950000D02*
G01*
X17610000Y-27950000D01*
X17850000Y-27620000D01*
X18090000Y-27950000D01*
G37*
%TO.C,R6*%
X15200000Y-59820000D02*
X15200000Y-59930000D01*
X15200000Y-72180000D02*
X15200000Y-72070000D01*
X12830000Y-59930000D02*
X17570000Y-59930000D01*
X17570000Y-72070000D01*
X12830000Y-72070000D01*
X12830000Y-59930000D01*
%TO.C,U3*%
X34190000Y-31635000D02*
X38810000Y-31635000D01*
X38810000Y-24865000D02*
X34190000Y-24865000D01*
X40690000Y-25560000D02*
X40360000Y-25320000D01*
X40690000Y-25080000D01*
X40690000Y-25560000D01*
G36*
X40690000Y-25560000D02*
G01*
X40360000Y-25320000D01*
X40690000Y-25080000D01*
X40690000Y-25560000D01*
G37*
%TO.C,R3*%
X27465000Y-74482936D02*
X27465000Y-74937064D01*
X28935000Y-74482936D02*
X28935000Y-74937064D01*
%TO.C,R11*%
X39465000Y-21027064D02*
X39465000Y-20572936D01*
X40935000Y-21027064D02*
X40935000Y-20572936D01*
%TO.C,R4*%
X23897064Y-44465000D02*
X23442936Y-44465000D01*
X23897064Y-45935000D02*
X23442936Y-45935000D01*
%TO.C,R10*%
X29057064Y-54875000D02*
X28602936Y-54875000D01*
X29057064Y-56345000D02*
X28602936Y-56345000D01*
%TO.C,R1*%
X43977064Y-28515000D02*
X43522936Y-28515000D01*
X43977064Y-29985000D02*
X43522936Y-29985000D01*
%TO.C,C8*%
X21511252Y-35265000D02*
X20988748Y-35265000D01*
X21511252Y-36735000D02*
X20988748Y-36735000D01*
%TO.C,R9*%
X19487064Y-44465000D02*
X19032936Y-44465000D01*
X19487064Y-45935000D02*
X19032936Y-45935000D01*
%TO.C,Y3*%
X21790000Y-30790000D02*
X29235000Y-30790000D01*
X29235000Y-30790000D02*
X29235000Y-34510000D01*
X29235000Y-34510000D02*
X21790000Y-34510000D01*
%TO.C,R2*%
X47522936Y-28515000D02*
X47977064Y-28515000D01*
X47522936Y-29985000D02*
X47977064Y-29985000D01*
%TO.C,U5*%
X27527500Y-19370000D02*
X27527500Y-18390000D01*
X27527500Y-22130000D02*
X27527500Y-23110000D01*
X27527500Y-23110000D02*
X30247500Y-23110000D01*
X30107500Y-18390000D02*
X27527500Y-18390000D01*
X30247500Y-18390000D02*
X27527500Y-18390000D01*
X30657500Y-18540000D02*
X30417500Y-18210000D01*
X30897500Y-18210000D01*
X30657500Y-18540000D01*
G36*
X30657500Y-18540000D02*
G01*
X30417500Y-18210000D01*
X30897500Y-18210000D01*
X30657500Y-18540000D01*
G37*
%TO.C,R22*%
X38802064Y-32315000D02*
X38347936Y-32315000D01*
X38802064Y-33785000D02*
X38347936Y-33785000D01*
%TO.C,C21*%
X43488748Y-20090000D02*
X44011252Y-20090000D01*
X43488748Y-21560000D02*
X44011252Y-21560000D01*
%TO.C,C5*%
X47468748Y-22941667D02*
X47991252Y-22941667D01*
X47468748Y-24411667D02*
X47991252Y-24411667D01*
%TO.C,U2*%
X19190000Y-49190000D02*
X19190000Y-49390000D01*
X19190000Y-54210000D02*
X19190000Y-54410000D01*
X19190000Y-54410000D02*
X23810000Y-54410000D01*
X23810000Y-49190000D02*
X19190000Y-49190000D01*
X23810000Y-49390000D02*
X23810000Y-49190000D01*
X23810000Y-54410000D02*
X23810000Y-54210000D01*
X24450000Y-49390000D02*
X24110000Y-48920000D01*
X24790000Y-48920000D01*
X24450000Y-49390000D01*
G36*
X24450000Y-49390000D02*
G01*
X24110000Y-48920000D01*
X24790000Y-48920000D01*
X24450000Y-49390000D01*
G37*
%TO.C,C22*%
X47463748Y-20090000D02*
X47986252Y-20090000D01*
X47463748Y-21560000D02*
X47986252Y-21560000D01*
%TO.C,R7*%
X32887064Y-42725000D02*
X32432936Y-42725000D01*
X32887064Y-44195000D02*
X32432936Y-44195000D01*
%TO.C,C23*%
X23988748Y-24015000D02*
X24511252Y-24015000D01*
X23988748Y-25485000D02*
X24511252Y-25485000D01*
%TO.C,C2*%
X28538748Y-46490000D02*
X29061252Y-46490000D01*
X28538748Y-47960000D02*
X29061252Y-47960000D01*
%TO.C,R23*%
X34777064Y-32340000D02*
X34322936Y-32340000D01*
X34777064Y-33810000D02*
X34322936Y-33810000D01*
%TO.C,C6*%
X36865000Y-20558748D02*
X36865000Y-21081252D01*
X38335000Y-20558748D02*
X38335000Y-21081252D01*
%TO.C,C3*%
X47468748Y-25743333D02*
X47991252Y-25743333D01*
X47468748Y-27213333D02*
X47991252Y-27213333D01*
%TO.C,R5*%
X29052064Y-49865000D02*
X28597936Y-49865000D01*
X29052064Y-51335000D02*
X28597936Y-51335000D01*
%TO.C,C24*%
X34735000Y-19488748D02*
X34735000Y-20011252D01*
X33265000Y-19488748D02*
X33265000Y-20011252D01*
%TO.C,C4*%
X29211252Y-27265000D02*
X28688748Y-27265000D01*
X29211252Y-28735000D02*
X28688748Y-28735000D01*
%TO.C,C9*%
X27261252Y-35265000D02*
X26738748Y-35265000D01*
X27261252Y-36735000D02*
X26738748Y-36735000D01*
%TD*%
%LPC*%
D12*
%TO.C,R8*%
X28087500Y-43500000D03*
X29912500Y-43500000D03*
%TD*%
D13*
%TO.C,C1*%
X27890000Y-53170000D03*
X29790000Y-53170000D03*
%TD*%
D14*
%TO.C,Y1*%
X43225000Y-23802500D03*
X43225000Y-26302500D03*
%TD*%
D15*
%TO.C,Q1*%
X17487500Y-27050000D03*
X17487500Y-28950000D03*
X15612500Y-28000000D03*
%TD*%
D16*
%TO.C,D1*%
X52660000Y-40000000D03*
D17*
X55200000Y-40000000D03*
X57740000Y-40000000D03*
%TD*%
D18*
%TO.C,R6*%
X15200000Y-58380000D03*
X15200000Y-73620000D03*
%TD*%
D19*
%TO.C,U3*%
X39362500Y-25325000D03*
X39362500Y-25975000D03*
X39362500Y-26625000D03*
X39362500Y-27275000D03*
X39362500Y-27925000D03*
X39362500Y-28575000D03*
X39362500Y-29225000D03*
X39362500Y-29875000D03*
X39362500Y-30525000D03*
X39362500Y-31175000D03*
X33637500Y-31175000D03*
X33637500Y-30525000D03*
X33637500Y-29875000D03*
X33637500Y-29225000D03*
X33637500Y-28575000D03*
X33637500Y-27925000D03*
X33637500Y-27275000D03*
X33637500Y-26625000D03*
X33637500Y-25975000D03*
X33637500Y-25325000D03*
%TD*%
D20*
%TO.C,R3*%
X28200000Y-73797500D03*
X28200000Y-75622500D03*
%TD*%
D21*
%TO.C,U$4*%
X16750000Y-17000000D03*
%TD*%
D22*
%TO.C,R11*%
X40200000Y-21712500D03*
X40200000Y-19887500D03*
%TD*%
D23*
%TO.C,R4*%
X24582500Y-45200000D03*
X22757500Y-45200000D03*
%TD*%
D21*
%TO.C,U$2*%
X16750000Y-79500000D03*
%TD*%
D23*
%TO.C,R10*%
X29742500Y-55610000D03*
X27917500Y-55610000D03*
%TD*%
%TO.C,R1*%
X44662500Y-29250000D03*
X42837500Y-29250000D03*
%TD*%
D24*
%TO.C,C8*%
X22200000Y-36000000D03*
X20300000Y-36000000D03*
%TD*%
D25*
%TO.C,J6*%
X32300000Y-77725000D03*
D26*
X30700000Y-79725000D03*
D27*
X28200000Y-79725000D03*
X25700000Y-79725000D03*
%TD*%
D23*
%TO.C,R9*%
X20172500Y-45200000D03*
X18347500Y-45200000D03*
%TD*%
D28*
%TO.C,Y3*%
X27312500Y-32650000D03*
X21787500Y-32650000D03*
%TD*%
D12*
%TO.C,R2*%
X46837500Y-29250000D03*
X48662500Y-29250000D03*
%TD*%
D29*
%TO.C,U5*%
X31337500Y-19250000D03*
D30*
X31250000Y-20750000D03*
D29*
X31337500Y-22250000D03*
%TD*%
D21*
%TO.C,U$3*%
X56750000Y-17000000D03*
%TD*%
D31*
%TO.C,J7*%
X35820000Y-80925000D03*
D32*
X35820000Y-78385000D03*
X38360000Y-80925000D03*
X38360000Y-78385000D03*
X40900000Y-80925000D03*
X40900000Y-78385000D03*
X43440000Y-80925000D03*
X43440000Y-78385000D03*
X45980000Y-80925000D03*
X45980000Y-78385000D03*
X48520000Y-80925000D03*
X48520000Y-78385000D03*
%TD*%
D33*
%TO.C,J3*%
X39640000Y-15195000D03*
X33860000Y-15195000D03*
%TD*%
D31*
%TO.C,J2*%
X52470000Y-44951250D03*
D32*
X55010000Y-44951250D03*
X57550000Y-44951250D03*
%TD*%
D34*
%TO.C,J1*%
X56050000Y-72433750D03*
D35*
X56050000Y-69933750D03*
X56050000Y-67433750D03*
X56050000Y-64933750D03*
X56050000Y-62433750D03*
%TD*%
D21*
%TO.C,U$1*%
X56750000Y-79500000D03*
%TD*%
D23*
%TO.C,R22*%
X39487500Y-33050000D03*
X37662500Y-33050000D03*
%TD*%
D13*
%TO.C,C21*%
X42800000Y-20825000D03*
X44700000Y-20825000D03*
%TD*%
%TO.C,C5*%
X46780000Y-23676667D03*
X48680000Y-23676667D03*
%TD*%
D19*
%TO.C,U2*%
X24362500Y-49850000D03*
X24362500Y-50500000D03*
X24362500Y-51150000D03*
X24362500Y-51800000D03*
X24362500Y-52450000D03*
X24362500Y-53100000D03*
X24362500Y-53750000D03*
X18637500Y-53750000D03*
X18637500Y-53100000D03*
X18637500Y-52450000D03*
X18637500Y-51800000D03*
X18637500Y-51150000D03*
X18637500Y-50500000D03*
X18637500Y-49850000D03*
%TD*%
D13*
%TO.C,C22*%
X46775000Y-20825000D03*
X48675000Y-20825000D03*
%TD*%
D23*
%TO.C,R7*%
X33572500Y-43460000D03*
X31747500Y-43460000D03*
%TD*%
D13*
%TO.C,C23*%
X23300000Y-24750000D03*
X25200000Y-24750000D03*
%TD*%
%TO.C,C2*%
X27850000Y-47225000D03*
X29750000Y-47225000D03*
%TD*%
D23*
%TO.C,R23*%
X35462500Y-33075000D03*
X33637500Y-33075000D03*
%TD*%
D36*
%TO.C,C6*%
X37600000Y-19870000D03*
X37600000Y-21770000D03*
%TD*%
D13*
%TO.C,C3*%
X46780000Y-26478333D03*
X48680000Y-26478333D03*
%TD*%
D23*
%TO.C,R5*%
X29737500Y-50600000D03*
X27912500Y-50600000D03*
%TD*%
D36*
%TO.C,C24*%
X34000000Y-20700000D03*
X34000000Y-18800000D03*
%TD*%
D24*
%TO.C,C4*%
X29900000Y-28000000D03*
X28000000Y-28000000D03*
%TD*%
%TO.C,C9*%
X27950000Y-36000000D03*
X26050000Y-36000000D03*
%TD*%
%LPD*%
M02*
