%TF.GenerationSoftware,KiCad,Pcbnew,9.0.6*%
%TF.CreationDate,2025-11-22T08:39:34-08:00*%
%TF.ProjectId,bramble,6272616d-626c-4652-9e6b-696361645f70,rev?*%
%TF.SameCoordinates,Original*%
%TF.FileFunction,Copper,L2,Bot*%
%TF.FilePolarity,Positive*%
%FSLAX46Y46*%
G04 Gerber Fmt 4.6, Leading zero omitted, Abs format (unit mm)*
G04 Created by KiCad (PCBNEW 9.0.6) date 2025-11-22 08:39:34*
%MOMM*%
%LPD*%
G01*
G04 APERTURE LIST*
G04 Aperture macros list*
%AMRoundRect*
0 Rectangle with rounded corners*
0 $1 Rounding radius*
0 $2 $3 $4 $5 $6 $7 $8 $9 X,Y pos of 4 corners*
0 Add a 4 corners polygon primitive as box body*
4,1,4,$2,$3,$4,$5,$6,$7,$8,$9,$2,$3,0*
0 Add four circle primitives for the rounded corners*
1,1,$1+$1,$2,$3*
1,1,$1+$1,$4,$5*
1,1,$1+$1,$6,$7*
1,1,$1+$1,$8,$9*
0 Add four rect primitives between the rounded corners*
20,1,$1+$1,$2,$3,$4,$5,0*
20,1,$1+$1,$4,$5,$6,$7,0*
20,1,$1+$1,$6,$7,$8,$9,0*
20,1,$1+$1,$8,$9,$2,$3,0*%
%AMFreePoly0*
4,1,9,5.362500,-0.866500,1.237500,-0.866500,1.237500,-0.450000,-1.237500,-0.450000,-1.237500,0.450000,1.237500,0.450000,1.237500,0.866500,5.362500,0.866500,5.362500,-0.866500,5.362500,-0.866500,$1*%
G04 Aperture macros list end*
%TA.AperFunction,SMDPad,CuDef*%
%ADD10RoundRect,0.250000X-0.262500X-0.450000X0.262500X-0.450000X0.262500X0.450000X-0.262500X0.450000X0*%
%TD*%
%TA.AperFunction,SMDPad,CuDef*%
%ADD11RoundRect,0.250000X-0.250000X-0.475000X0.250000X-0.475000X0.250000X0.475000X-0.250000X0.475000X0*%
%TD*%
%TA.AperFunction,SMDPad,CuDef*%
%ADD12R,1.800000X1.000000*%
%TD*%
%TA.AperFunction,SMDPad,CuDef*%
%ADD13RoundRect,0.150000X0.587500X0.150000X-0.587500X0.150000X-0.587500X-0.150000X0.587500X-0.150000X0*%
%TD*%
%TA.AperFunction,ComponentPad*%
%ADD14R,1.800000X1.800000*%
%TD*%
%TA.AperFunction,ComponentPad*%
%ADD15C,1.800000*%
%TD*%
%TA.AperFunction,ComponentPad*%
%ADD16C,2.400000*%
%TD*%
%TA.AperFunction,SMDPad,CuDef*%
%ADD17RoundRect,0.100000X0.637500X0.100000X-0.637500X0.100000X-0.637500X-0.100000X0.637500X-0.100000X0*%
%TD*%
%TA.AperFunction,SMDPad,CuDef*%
%ADD18RoundRect,0.250000X-0.450000X0.262500X-0.450000X-0.262500X0.450000X-0.262500X0.450000X0.262500X0*%
%TD*%
%TA.AperFunction,ComponentPad*%
%ADD19C,5.000000*%
%TD*%
%TA.AperFunction,SMDPad,CuDef*%
%ADD20RoundRect,0.250000X0.450000X-0.262500X0.450000X0.262500X-0.450000X0.262500X-0.450000X-0.262500X0*%
%TD*%
%TA.AperFunction,SMDPad,CuDef*%
%ADD21RoundRect,0.250000X0.262500X0.450000X-0.262500X0.450000X-0.262500X-0.450000X0.262500X-0.450000X0*%
%TD*%
%TA.AperFunction,ComponentPad*%
%ADD22C,0.600000*%
%TD*%
%TA.AperFunction,SMDPad,CuDef*%
%ADD23RoundRect,0.250000X0.250000X0.475000X-0.250000X0.475000X-0.250000X-0.475000X0.250000X-0.475000X0*%
%TD*%
%TA.AperFunction,ComponentPad*%
%ADD24RoundRect,0.250000X0.600000X0.725000X-0.600000X0.725000X-0.600000X-0.725000X0.600000X-0.725000X0*%
%TD*%
%TA.AperFunction,ComponentPad*%
%ADD25O,1.700000X1.950000*%
%TD*%
%TA.AperFunction,SMDPad,CuDef*%
%ADD26RoundRect,0.250001X1.412499X0.949999X-1.412499X0.949999X-1.412499X-0.949999X1.412499X-0.949999X0*%
%TD*%
%TA.AperFunction,SMDPad,CuDef*%
%ADD27RoundRect,0.225000X0.925000X0.225000X-0.925000X0.225000X-0.925000X-0.225000X0.925000X-0.225000X0*%
%TD*%
%TA.AperFunction,SMDPad,CuDef*%
%ADD28FreePoly0,180.000000*%
%TD*%
%TA.AperFunction,ComponentPad*%
%ADD29R,1.700000X1.700000*%
%TD*%
%TA.AperFunction,ComponentPad*%
%ADD30C,1.700000*%
%TD*%
%TA.AperFunction,ComponentPad*%
%ADD31RoundRect,0.250000X0.725000X-0.600000X0.725000X0.600000X-0.725000X0.600000X-0.725000X-0.600000X0*%
%TD*%
%TA.AperFunction,ComponentPad*%
%ADD32O,1.950000X1.700000*%
%TD*%
%TA.AperFunction,SMDPad,CuDef*%
%ADD33RoundRect,0.250000X-0.475000X0.250000X-0.475000X-0.250000X0.475000X-0.250000X0.475000X0.250000X0*%
%TD*%
%TA.AperFunction,ViaPad*%
%ADD34C,0.600000*%
%TD*%
%TA.AperFunction,ViaPad*%
%ADD35C,0.400000*%
%TD*%
%TA.AperFunction,Conductor*%
%ADD36C,0.200000*%
%TD*%
%TA.AperFunction,Conductor*%
%ADD37C,0.800000*%
%TD*%
%TA.AperFunction,Conductor*%
%ADD38C,0.400000*%
%TD*%
%TA.AperFunction,Conductor*%
%ADD39C,0.900000*%
%TD*%
G04 APERTURE END LIST*
D10*
%TO.P,R8,1*%
%TO.N,/pmu/MEAS_CURRENT*%
X28087500Y-43500000D03*
%TO.P,R8,2*%
%TO.N,Net-(R7-Pad2)*%
X29912500Y-43500000D03*
%TD*%
D11*
%TO.P,C1,1,1*%
%TO.N,+3V3*%
X27890000Y-53170000D03*
%TO.P,C1,2,2*%
%TO.N,GND*%
X29790000Y-53170000D03*
%TD*%
D12*
%TO.P,Y1,1,1*%
%TO.N,Net-(U3-PC14-OSC32_IN)*%
X43225000Y-23802500D03*
%TO.P,Y1,2,2*%
%TO.N,Net-(U3-PC15-OSC32_OUT)*%
X43225000Y-26302500D03*
%TD*%
D13*
%TO.P,Q1,1,G*%
%TO.N,Net-(Q1-G)*%
X17487500Y-27050000D03*
%TO.P,Q1,2,S*%
%TO.N,+9V*%
X17487500Y-28950000D03*
%TO.P,Q1,3,D*%
%TO.N,Net-(Q1-D)*%
X15612500Y-28000000D03*
%TD*%
D14*
%TO.P,D1,1,A1*%
%TO.N,Net-(D1-A1)*%
X52660000Y-40000000D03*
D15*
%TO.P,D1,2,K*%
%TO.N,GND*%
X55200000Y-40000000D03*
%TO.P,D1,3,A2*%
%TO.N,Net-(D1-A2)*%
X57740000Y-40000000D03*
%TD*%
D16*
%TO.P,R6,1*%
%TO.N,GND*%
X15200000Y-58380000D03*
%TO.P,R6,2*%
%TO.N,GNDPWR*%
X15200000Y-73620000D03*
%TD*%
D17*
%TO.P,U3,1,PB9-BOOT0*%
%TO.N,Net-(U3-PB9-BOOT0)*%
X39362500Y-25325000D03*
%TO.P,U3,2,PC14-OSC32_IN*%
%TO.N,Net-(U3-PC14-OSC32_IN)*%
X39362500Y-25975000D03*
%TO.P,U3,3,PC15-OSC32_OUT*%
%TO.N,Net-(U3-PC15-OSC32_OUT)*%
X39362500Y-26625000D03*
%TO.P,U3,4,NRST*%
%TO.N,/pmu/NRST*%
X39362500Y-27275000D03*
%TO.P,U3,5,VDDA*%
%TO.N,VDD*%
X39362500Y-27925000D03*
%TO.P,U3,6,PA0-CK_IN*%
%TO.N,unconnected-(U3-PA0-CK_IN-Pad6)*%
X39362500Y-28575000D03*
%TO.P,U3,7,PA1*%
%TO.N,/pmu/3V3_POWER_ON*%
X39362500Y-29225000D03*
%TO.P,U3,8,PA2*%
%TO.N,/rp2040/RX*%
X39362500Y-29875000D03*
%TO.P,U3,9,PA3*%
%TO.N,/rp2040/TX*%
X39362500Y-30525000D03*
%TO.P,U3,10,PA4*%
%TO.N,Net-(U3-PA4)*%
X39362500Y-31175000D03*
%TO.P,U3,11,PA5*%
%TO.N,Net-(U3-PA5)*%
X33637500Y-31175000D03*
%TO.P,U3,12,PA6*%
%TO.N,/pmu/MEAS_V*%
X33637500Y-30525000D03*
%TO.P,U3,13,PA7*%
%TO.N,/pmu/MEAS_CURRENT*%
X33637500Y-29875000D03*
%TO.P,U3,14,PB1*%
%TO.N,unconnected-(U3-PB1-Pad14)*%
X33637500Y-29225000D03*
%TO.P,U3,15,VSS*%
%TO.N,GND*%
X33637500Y-28575000D03*
%TO.P,U3,16,VDD*%
%TO.N,VDD*%
X33637500Y-27925000D03*
%TO.P,U3,17,PA9*%
%TO.N,unconnected-(U3-PA9-Pad17)*%
X33637500Y-27275000D03*
%TO.P,U3,18,PA10*%
%TO.N,unconnected-(U3-PA10-Pad18)*%
X33637500Y-26625000D03*
%TO.P,U3,19,PA13*%
%TO.N,Net-(J1-Pin_3)*%
X33637500Y-25975000D03*
%TO.P,U3,20,PA14*%
%TO.N,Net-(J1-Pin_2)*%
X33637500Y-25325000D03*
%TD*%
D18*
%TO.P,R3,1*%
%TO.N,Net-(U2A-+)*%
X28200000Y-73797500D03*
%TO.P,R3,2*%
%TO.N,GNDPWR*%
X28200000Y-75622500D03*
%TD*%
D19*
%TO.P,U$4,1*%
%TO.N,N/C*%
X16750000Y-17000000D03*
%TD*%
D20*
%TO.P,R11,1*%
%TO.N,Net-(U3-PB9-BOOT0)*%
X40200000Y-21712500D03*
%TO.P,R11,2*%
%TO.N,GND*%
X40200000Y-19887500D03*
%TD*%
D21*
%TO.P,R4,1*%
%TO.N,Net-(U2A-+)*%
X24582500Y-45200000D03*
%TO.P,R4,2*%
%TO.N,GND*%
X22757500Y-45200000D03*
%TD*%
D22*
%TO.P,IC1,57,GND*%
%TO.N,GND*%
X25675000Y-39850000D03*
X24400000Y-39850000D03*
X23125000Y-39850000D03*
X25675000Y-41125000D03*
X24400000Y-41125000D03*
X23125000Y-41125000D03*
X25675000Y-42400000D03*
X24400000Y-42400000D03*
X23125000Y-42400000D03*
%TD*%
D19*
%TO.P,U$2,1*%
%TO.N,N/C*%
X16750000Y-79500000D03*
%TD*%
D21*
%TO.P,R10,1*%
%TO.N,GND*%
X29742500Y-55610000D03*
%TO.P,R10,2*%
%TO.N,Net-(U2B-+)*%
X27917500Y-55610000D03*
%TD*%
%TO.P,R1,1*%
%TO.N,Net-(Q1-G)*%
X44662500Y-29250000D03*
%TO.P,R1,2*%
%TO.N,/pmu/3V3_POWER_ON*%
X42837500Y-29250000D03*
%TD*%
D23*
%TO.P,C8,1,1*%
%TO.N,GND*%
X22200000Y-36000000D03*
%TO.P,C8,2,2*%
%TO.N,Net-(IC1-XIN)*%
X20300000Y-36000000D03*
%TD*%
D24*
%TO.P,J6,1,Pin_1*%
%TO.N,Net-(J6-Pin_1)*%
X30700000Y-79725000D03*
D25*
%TO.P,J6,2,Pin_2*%
%TO.N,GNDPWR*%
X28200000Y-79725000D03*
%TO.P,J6,3,Pin_3*%
%TO.N,+9V*%
X25700000Y-79725000D03*
%TD*%
D21*
%TO.P,R9,1*%
%TO.N,Net-(U2B-+)*%
X20172500Y-45200000D03*
%TO.P,R9,2*%
%TO.N,+9V*%
X18347500Y-45200000D03*
%TD*%
D26*
%TO.P,Y3,1,1*%
%TO.N,Net-(C9-Pad2)*%
X27312500Y-32650000D03*
%TO.P,Y3,2,2*%
%TO.N,Net-(IC1-XIN)*%
X21787500Y-32650000D03*
%TD*%
D10*
%TO.P,R2,1*%
%TO.N,Net-(Q1-G)*%
X46837500Y-29250000D03*
%TO.P,R2,2*%
%TO.N,GND*%
X48662500Y-29250000D03*
%TD*%
D27*
%TO.P,U5,1,GND*%
%TO.N,GND*%
X31337500Y-19250000D03*
D28*
%TO.P,U5,2,VI*%
%TO.N,Net-(J6-Pin_1)*%
X31250000Y-20750000D03*
D27*
%TO.P,U5,3,VO*%
%TO.N,VDD*%
X31337500Y-22250000D03*
%TD*%
D19*
%TO.P,U$3,1*%
%TO.N,N/C*%
X56750000Y-17000000D03*
%TD*%
D29*
%TO.P,J7,1,Pin_1*%
%TO.N,+9V*%
X35820000Y-80925000D03*
D30*
%TO.P,J7,2,Pin_2*%
%TO.N,+3V3*%
X35820000Y-78385000D03*
%TO.P,J7,3,Pin_3*%
%TO.N,/rp2040/VALVE_3*%
X38360000Y-80925000D03*
%TO.P,J7,4,Pin_4*%
%TO.N,/rp2040/MOTOR_HI_1*%
X38360000Y-78385000D03*
%TO.P,J7,5,Pin_5*%
%TO.N,/rp2040/VALVE_4*%
X40900000Y-80925000D03*
%TO.P,J7,6,Pin_6*%
%TO.N,/rp2040/MOTOR_HI_2*%
X40900000Y-78385000D03*
%TO.P,J7,7,Pin_7*%
%TO.N,/rp2040/VALVE_2*%
X43440000Y-80925000D03*
%TO.P,J7,8,Pin_8*%
%TO.N,/rp2040/MOTOR_LO_1*%
X43440000Y-78385000D03*
%TO.P,J7,9,Pin_9*%
%TO.N,/rp2040/VALVE_1*%
X45980000Y-80925000D03*
%TO.P,J7,10,Pin_10*%
%TO.N,/rp2040/MOTOR_LO_2*%
X45980000Y-78385000D03*
%TO.P,J7,11,Pin_11*%
%TO.N,VDD*%
X48520000Y-80925000D03*
%TO.P,J7,12,Pin_12*%
%TO.N,GND*%
X48520000Y-78385000D03*
%TD*%
D29*
%TO.P,J2,1,Pin_1*%
%TO.N,/rp2040/SWCLK*%
X52470000Y-44951250D03*
D30*
%TO.P,J2,2,Pin_2*%
%TO.N,/rp2040/SWDIO*%
X55010000Y-44951250D03*
%TO.P,J2,3,Pin_3*%
%TO.N,GND*%
X57550000Y-44951250D03*
%TD*%
D31*
%TO.P,J1,1,Pin_1*%
%TO.N,VDD*%
X56050000Y-72433750D03*
D32*
%TO.P,J1,2,Pin_2*%
%TO.N,Net-(J1-Pin_2)*%
X56050000Y-69933750D03*
%TO.P,J1,3,Pin_3*%
%TO.N,Net-(J1-Pin_3)*%
X56050000Y-67433750D03*
%TO.P,J1,4,Pin_4*%
%TO.N,/pmu/NRST*%
X56050000Y-64933750D03*
%TO.P,J1,5,Pin_5*%
%TO.N,GND*%
X56050000Y-62433750D03*
%TD*%
D19*
%TO.P,U$1,1*%
%TO.N,N/C*%
X56750000Y-79500000D03*
%TD*%
D21*
%TO.P,R22,1*%
%TO.N,Net-(D1-A1)*%
X39487500Y-33050000D03*
%TO.P,R22,2*%
%TO.N,Net-(U3-PA4)*%
X37662500Y-33050000D03*
%TD*%
D11*
%TO.P,C21,1*%
%TO.N,Net-(U3-PC14-OSC32_IN)*%
X42800000Y-20825000D03*
%TO.P,C21,2*%
%TO.N,GND*%
X44700000Y-20825000D03*
%TD*%
%TO.P,C5,1*%
%TO.N,VDD*%
X46780000Y-23676667D03*
%TO.P,C5,2*%
%TO.N,GND*%
X48680000Y-23676667D03*
%TD*%
D17*
%TO.P,U2,1*%
%TO.N,Net-(R7-Pad2)*%
X24362500Y-49850000D03*
%TO.P,U2,2,-*%
%TO.N,Net-(U2A--)*%
X24362500Y-50500000D03*
%TO.P,U2,3,+*%
%TO.N,Net-(U2A-+)*%
X24362500Y-51150000D03*
%TO.P,U2,4,V+*%
%TO.N,+3V3*%
X24362500Y-51800000D03*
%TO.P,U2,5,+*%
%TO.N,Net-(U2B-+)*%
X24362500Y-52450000D03*
%TO.P,U2,6,-*%
%TO.N,/pmu/MEAS_V*%
X24362500Y-53100000D03*
%TO.P,U2,7*%
X24362500Y-53750000D03*
%TO.P,U2,8*%
%TO.N,unconnected-(U2-Pad8)*%
X18637500Y-53750000D03*
%TO.P,U2,9,-*%
%TO.N,unconnected-(U2C---Pad9)*%
X18637500Y-53100000D03*
%TO.P,U2,10,+*%
%TO.N,unconnected-(U2C-+-Pad10)*%
X18637500Y-52450000D03*
%TO.P,U2,11,V-*%
%TO.N,GND*%
X18637500Y-51800000D03*
%TO.P,U2,12,+*%
%TO.N,unconnected-(U2D-+-Pad12)*%
X18637500Y-51150000D03*
%TO.P,U2,13,-*%
%TO.N,unconnected-(U2D---Pad13)*%
X18637500Y-50500000D03*
%TO.P,U2,14*%
%TO.N,unconnected-(U2-Pad14)*%
X18637500Y-49850000D03*
%TD*%
D11*
%TO.P,C22,1*%
%TO.N,Net-(U3-PC15-OSC32_OUT)*%
X46775000Y-20825000D03*
%TO.P,C22,2*%
%TO.N,GND*%
X48675000Y-20825000D03*
%TD*%
D21*
%TO.P,R7,1*%
%TO.N,Net-(U2A--)*%
X33572500Y-43460000D03*
%TO.P,R7,2*%
%TO.N,Net-(R7-Pad2)*%
X31747500Y-43460000D03*
%TD*%
D11*
%TO.P,C23,1*%
%TO.N,GND*%
X23300000Y-24750000D03*
%TO.P,C23,2*%
%TO.N,VDD*%
X25200000Y-24750000D03*
%TD*%
%TO.P,C2,1,1*%
%TO.N,+3V3*%
X27850000Y-47225000D03*
%TO.P,C2,2,2*%
%TO.N,GND*%
X29750000Y-47225000D03*
%TD*%
D21*
%TO.P,R23,1*%
%TO.N,Net-(D1-A2)*%
X35462500Y-33075000D03*
%TO.P,R23,2*%
%TO.N,Net-(U3-PA5)*%
X33637500Y-33075000D03*
%TD*%
D33*
%TO.P,C6,1*%
%TO.N,GND*%
X37600000Y-19870000D03*
%TO.P,C6,2*%
%TO.N,/pmu/NRST*%
X37600000Y-21770000D03*
%TD*%
D11*
%TO.P,C3,1*%
%TO.N,VDD*%
X46780000Y-26478333D03*
%TO.P,C3,2*%
%TO.N,GND*%
X48680000Y-26478333D03*
%TD*%
D21*
%TO.P,R5,1*%
%TO.N,GND*%
X29737500Y-50600000D03*
%TO.P,R5,2*%
%TO.N,Net-(U2A--)*%
X27912500Y-50600000D03*
%TD*%
D33*
%TO.P,C24,2*%
%TO.N,Net-(J6-Pin_1)*%
X34000000Y-20700000D03*
%TO.P,C24,1*%
%TO.N,GND*%
X34000000Y-18800000D03*
%TD*%
D23*
%TO.P,C4,1*%
%TO.N,VDD*%
X29900000Y-28000000D03*
%TO.P,C4,2*%
%TO.N,GND*%
X28000000Y-28000000D03*
%TD*%
%TO.P,C9,1,1*%
%TO.N,GND*%
X27950000Y-36000000D03*
%TO.P,C9,2,2*%
%TO.N,Net-(C9-Pad2)*%
X26050000Y-36000000D03*
%TD*%
D34*
%TO.N,GND*%
X29300000Y-51900000D03*
X32600000Y-38400000D03*
D35*
%TO.N,Net-(Q1-D)*%
X46000000Y-30750000D03*
D34*
%TO.N,/rp2040/MISO*%
X13181635Y-51568365D03*
%TO.N,VDD*%
X45000000Y-37250000D03*
%TO.N,/rp2040/MISO*%
X12750000Y-34250000D03*
%TO.N,+3V3*%
X48300000Y-35110000D03*
%TO.N,GND*%
X58000000Y-73500000D03*
X35400000Y-50750000D03*
X37200000Y-29100000D03*
X29250000Y-18250000D03*
%TO.N,/pmu/MEAS_CURRENT*%
X25350000Y-30000000D03*
%TO.N,/rp2040/TX*%
X43300000Y-33675000D03*
%TO.N,/rp2040/USBBOOT*%
X29300000Y-24600000D03*
%TO.N,GND*%
X21700000Y-30800000D03*
%TO.N,Net-(IC1-XIN)*%
X17750000Y-40100000D03*
%TO.N,/pmu/NRST*%
X53200000Y-61600000D03*
%TO.N,GND*%
X44000000Y-15000000D03*
%TO.N,/rp2040/SCK*%
X18423000Y-37299915D03*
%TO.N,+3V3*%
X34809236Y-47103224D03*
%TO.N,/rp2040/SWDIO*%
X37054000Y-39500000D03*
%TO.N,GND*%
X41000000Y-59840000D03*
%TO.N,/pmu/MEAS_V*%
X36700000Y-52500000D03*
X31700000Y-52598000D03*
%TO.N,/rp2040/SCK*%
X19624000Y-37300000D03*
%TO.N,+3V3*%
X19796000Y-48000000D03*
X34390000Y-59990000D03*
%TO.N,/rp2040/RX*%
X44025000Y-34150000D03*
%TO.N,Net-(C9-Pad2)*%
X18400000Y-38250000D03*
%TO.N,/pmu/NRST*%
X35750000Y-27500000D03*
%TO.N,+3V3*%
X51770000Y-35110000D03*
%TO.N,/rp2040/USBBOOT*%
X13400000Y-30900000D03*
%TO.N,/pmu/MEAS_V*%
X37300000Y-37000000D03*
X34524236Y-34924293D03*
%TO.N,/pmu/NRST*%
X40750000Y-27250000D03*
X53200000Y-63900000D03*
%TO.N,GND*%
X44000000Y-18250000D03*
X23262117Y-21262884D03*
X23580000Y-54490000D03*
X17050000Y-56550000D03*
X30750000Y-45500000D03*
X43900000Y-42100000D03*
X30000000Y-34522792D03*
X34500000Y-46100000D03*
X28000000Y-26750000D03*
X43000000Y-70775000D03*
X31750000Y-26750000D03*
%TO.N,VDD*%
X45887500Y-42581910D03*
%TO.N,/pmu/MEAS_CURRENT*%
X30601000Y-29850000D03*
%TO.N,+3V3*%
X32650000Y-49300000D03*
%TO.N,/rp2040/USBBOOT*%
X26300000Y-25600000D03*
X19100000Y-67500000D03*
%TO.N,/rp2040/SWCLK*%
X37054000Y-38450000D03*
X18996476Y-42325000D03*
%TO.N,/rp2040/SWDIO*%
X40000000Y-40500000D03*
%TO.N,/rp2040/SWCLK*%
X39213343Y-39650000D03*
%TO.N,+3V3*%
X24040000Y-48590000D03*
%TO.N,/rp2040/SWDIO*%
X18595130Y-43017044D03*
%TD*%
D36*
%TO.N,Net-(U2B-+)*%
X19195000Y-48248943D02*
X19195000Y-46877500D01*
%TO.N,/pmu/NRST*%
X40725000Y-27275000D02*
X40750000Y-27250000D01*
%TO.N,/rp2040/MISO*%
X13181635Y-51568365D02*
X12474000Y-50860730D01*
%TO.N,/pmu/MEAS_CURRENT*%
X19750000Y-30000000D02*
X25350000Y-30000000D01*
X16151000Y-36416100D02*
X19050000Y-33517100D01*
%TO.N,Net-(C9-Pad2)*%
X26050000Y-34462500D02*
X27762500Y-32750000D01*
%TO.N,/pmu/MEAS_CURRENT*%
X28087500Y-43500000D02*
X27837500Y-43750000D01*
D37*
%TO.N,+9V*%
X12500000Y-53500000D02*
X12524207Y-53500000D01*
D36*
%TO.N,Net-(J6-Pin_1)*%
X28885160Y-74611000D02*
X27514840Y-74611000D01*
D37*
%TO.N,+9V*%
X18347500Y-45200000D02*
X16050000Y-45200000D01*
D36*
%TO.N,/pmu/MEAS_CURRENT*%
X27837500Y-43750000D02*
X16250000Y-43750000D01*
%TO.N,+3V3*%
X34390000Y-59990000D02*
X34390000Y-47490000D01*
%TO.N,Net-(J6-Pin_1)*%
X14700000Y-46200000D02*
X17200000Y-46200000D01*
%TO.N,/rp2040/SCK*%
X18423000Y-37299915D02*
X19623915Y-37299915D01*
%TO.N,VDD*%
X44325000Y-27925000D02*
X44500000Y-27925000D01*
%TO.N,Net-(J1-Pin_2)*%
X31166450Y-30983550D02*
X30283550Y-30983550D01*
%TO.N,+3V3*%
X28050000Y-47575000D02*
X23750000Y-47575000D01*
%TO.N,VDD*%
X59350000Y-69133750D02*
X56050000Y-72433750D01*
D37*
%TO.N,Net-(Q1-D)*%
X50410126Y-33018000D02*
X51948000Y-31480126D01*
X46000000Y-30750000D02*
X46000000Y-31568126D01*
D36*
%TO.N,Net-(U3-PC15-OSC32_OUT)*%
X45700000Y-25250000D02*
X45700000Y-21900000D01*
D37*
%TO.N,+9V*%
X26500000Y-81500000D02*
X35245000Y-81500000D01*
D36*
%TO.N,Net-(U2A--)*%
X28087500Y-49532500D02*
X28440000Y-49180000D01*
D37*
%TO.N,GND*%
X25675000Y-39850000D02*
X25650000Y-39850000D01*
%TO.N,+9V*%
X13175000Y-45475000D02*
X14750000Y-43900000D01*
%TO.N,Net-(Q1-D)*%
X51948000Y-17889874D02*
X50408126Y-16350000D01*
D36*
%TO.N,VDD*%
X33637500Y-27925000D02*
X35325057Y-27925000D01*
%TO.N,/rp2040/SWDIO*%
X53859000Y-43800250D02*
X55010000Y-44951250D01*
D37*
%TO.N,Net-(Q1-D)*%
X51948000Y-31480126D02*
X51948000Y-17889874D01*
D36*
%TO.N,Net-(J1-Pin_2)*%
X37574028Y-36374028D02*
X33756928Y-36374028D01*
%TO.N,Net-(J6-Pin_1)*%
X19043160Y-46201000D02*
X19359000Y-45885160D01*
D37*
%TO.N,+9V*%
X16500000Y-60750000D02*
X14250000Y-60750000D01*
D36*
%TO.N,/rp2040/SWDIO*%
X27500000Y-38500000D02*
X21000000Y-38500000D01*
%TO.N,/pmu/MEAS_CURRENT*%
X15852000Y-41750000D02*
X16151000Y-41451000D01*
%TO.N,Net-(J1-Pin_3)*%
X51000000Y-46250000D02*
X52500000Y-46250000D01*
%TO.N,VDD*%
X45887500Y-42581910D02*
X46331910Y-42581910D01*
%TO.N,Net-(J6-Pin_1)*%
X15750000Y-36250000D02*
X18700000Y-33300000D01*
X19359000Y-45885160D02*
X19359000Y-44500000D01*
%TO.N,Net-(D1-A2)*%
X57740000Y-40000000D02*
X56240000Y-38500000D01*
%TO.N,Net-(J6-Pin_1)*%
X26401000Y-73497160D02*
X26401000Y-69651000D01*
%TO.N,VDD*%
X58900000Y-43250000D02*
X59350000Y-43700000D01*
X31850000Y-28800000D02*
X31850000Y-28300000D01*
%TO.N,/pmu/MEAS_CURRENT*%
X16250000Y-43750000D02*
X15852000Y-43352000D01*
%TO.N,VDD*%
X56050000Y-73395000D02*
X56050000Y-72433750D01*
D38*
%TO.N,GND*%
X33550000Y-19250000D02*
X34000000Y-18800000D01*
D36*
%TO.N,Net-(C9-Pad2)*%
X24352000Y-37698000D02*
X20667800Y-37698000D01*
%TO.N,Net-(Q1-G)*%
X47710000Y-32390000D02*
X46837500Y-31517500D01*
%TO.N,/pmu/MEAS_V*%
X31100000Y-57150000D02*
X30150000Y-58100000D01*
%TO.N,Net-(J6-Pin_1)*%
X19359000Y-44500000D02*
X19058000Y-44199000D01*
%TO.N,Net-(Q1-G)*%
X50150000Y-32390000D02*
X47710000Y-32390000D01*
%TO.N,Net-(J6-Pin_1)*%
X17200000Y-46200000D02*
X17201000Y-46201000D01*
%TO.N,Net-(J1-Pin_3)*%
X52500000Y-46250000D02*
X54750000Y-48500000D01*
%TO.N,Net-(Q1-G)*%
X51320000Y-18150000D02*
X51320000Y-31220000D01*
%TO.N,VDD*%
X33750000Y-22250000D02*
X31337500Y-22250000D01*
X48520000Y-80925000D02*
X56050000Y-73395000D01*
%TO.N,Net-(J1-Pin_2)*%
X41533550Y-46033550D02*
X38150000Y-42650000D01*
%TO.N,Net-(U3-PC15-OSC32_OUT)*%
X43225000Y-26302500D02*
X44647500Y-26302500D01*
%TO.N,/pmu/MEAS_CURRENT*%
X19050000Y-33517100D02*
X19050000Y-30700000D01*
%TO.N,VDD*%
X46331910Y-42581910D02*
X47000000Y-43250000D01*
%TO.N,/pmu/NRST*%
X39362500Y-27275000D02*
X40725000Y-27275000D01*
D37*
%TO.N,+9V*%
X14082635Y-51941572D02*
X14082635Y-51157635D01*
D36*
%TO.N,Net-(U3-PB9-BOOT0)*%
X39000000Y-24962500D02*
X39362500Y-25325000D01*
%TO.N,Net-(Q1-G)*%
X51320000Y-31220000D02*
X50150000Y-32390000D01*
%TO.N,Net-(J6-Pin_1)*%
X19058000Y-44199000D02*
X16040364Y-44199000D01*
%TO.N,/pmu/MEAS_CURRENT*%
X33637500Y-29875000D02*
X30626000Y-29875000D01*
%TO.N,Net-(D1-A2)*%
X40000000Y-32000000D02*
X39038840Y-32000000D01*
%TO.N,+3V3*%
X24362500Y-51800000D02*
X22740000Y-51800000D01*
%TO.N,/rp2040/MISO*%
X12474000Y-50860730D02*
X12474000Y-34526000D01*
%TO.N,+3V3*%
X22010000Y-51070000D02*
X22010000Y-47920000D01*
%TO.N,Net-(J1-Pin_2)*%
X31949000Y-31766100D02*
X31166450Y-30983550D01*
%TO.N,/pmu/MEAS_V*%
X36550000Y-52350000D02*
X36700000Y-52500000D01*
%TO.N,/pmu/MEAS_CURRENT*%
X16151000Y-41451000D02*
X16151000Y-36416100D01*
%TO.N,Net-(J6-Pin_1)*%
X26401000Y-69651000D02*
X17600000Y-60850000D01*
%TO.N,Net-(IC1-XIN)*%
X16552000Y-36825000D02*
X16552000Y-39675000D01*
%TO.N,Net-(Q1-G)*%
X17487500Y-23012500D02*
X23300000Y-17200000D01*
X50370000Y-17200000D02*
X51320000Y-18150000D01*
%TO.N,Net-(J6-Pin_1)*%
X20750000Y-20600000D02*
X31100000Y-20600000D01*
D37*
%TO.N,+9V*%
X13175000Y-50250000D02*
X13175000Y-45475000D01*
D36*
%TO.N,Net-(U2B-+)*%
X24362500Y-52450000D02*
X25200000Y-52450000D01*
%TO.N,Net-(Q1-G)*%
X23300000Y-17200000D02*
X50370000Y-17200000D01*
%TO.N,VDD*%
X34676000Y-27623999D02*
X34676000Y-23176000D01*
D38*
%TO.N,GND*%
X36702000Y-28602000D02*
X37200000Y-29100000D01*
D36*
%TO.N,/pmu/MEAS_V*%
X37674972Y-43775028D02*
X37674972Y-37374972D01*
%TO.N,Net-(J6-Pin_1)*%
X31100000Y-20600000D02*
X31250000Y-20750000D01*
%TO.N,Net-(U2B-+)*%
X28087500Y-55610000D02*
X27520000Y-55610000D01*
D37*
%TO.N,Net-(Q1-D)*%
X46000000Y-31568126D02*
X47449874Y-33018000D01*
D36*
%TO.N,Net-(U2B-+)*%
X22010000Y-52450000D02*
X21180000Y-51620000D01*
%TO.N,Net-(J6-Pin_1)*%
X15451000Y-41526049D02*
X15750000Y-41227049D01*
%TO.N,Net-(J1-Pin_2)*%
X38099000Y-36899000D02*
X37574028Y-36374028D01*
%TO.N,Net-(Q1-G)*%
X17487500Y-27050000D02*
X17487500Y-23012500D01*
%TO.N,Net-(D1-A1)*%
X52660000Y-40000000D02*
X43600000Y-40000000D01*
%TO.N,Net-(J6-Pin_1)*%
X30700000Y-79725000D02*
X30700000Y-76425840D01*
D37*
%TO.N,+9V*%
X12500000Y-59000000D02*
X12500000Y-53500000D01*
D38*
%TO.N,GND*%
X22490000Y-54490000D02*
X23580000Y-54490000D01*
D36*
%TO.N,Net-(U3-PC15-OSC32_OUT)*%
X44647500Y-26302500D02*
X45700000Y-25250000D01*
%TO.N,VDD*%
X31337500Y-22250000D02*
X25750000Y-22250000D01*
%TO.N,Net-(J6-Pin_1)*%
X27514840Y-74611000D02*
X26401000Y-73497160D01*
%TO.N,Net-(U3-PA4)*%
X37650000Y-31600000D02*
X37662500Y-31612500D01*
%TO.N,Net-(J6-Pin_1)*%
X14800000Y-55400000D02*
X14800000Y-50500000D01*
%TO.N,+3V3*%
X27890000Y-53170000D02*
X27890000Y-52643260D01*
%TO.N,/pmu/MEAS_CURRENT*%
X30601000Y-29851000D02*
X30750000Y-30000000D01*
%TO.N,Net-(J6-Pin_1)*%
X14800000Y-50500000D02*
X14150000Y-49850000D01*
%TO.N,Net-(J1-Pin_2)*%
X27830000Y-25320000D02*
X27835000Y-25325000D01*
%TO.N,Net-(J6-Pin_1)*%
X17600000Y-60850000D02*
X17600000Y-58200000D01*
%TO.N,/rp2040/SWCLK*%
X19750000Y-39182900D02*
X19750000Y-41571476D01*
%TO.N,Net-(J1-Pin_3)*%
X41682900Y-45500000D02*
X50250000Y-45500000D01*
D37*
%TO.N,+9V*%
X17487500Y-28950000D02*
X17487500Y-33487500D01*
D36*
%TO.N,/pmu/MEAS_V*%
X27450000Y-58100000D02*
X26624000Y-57274000D01*
%TO.N,/pmu/3V3_POWER_ON*%
X42812500Y-29225000D02*
X42837500Y-29250000D01*
D37*
%TO.N,+9V*%
X35245000Y-81500000D02*
X35820000Y-80925000D01*
X25700000Y-80700000D02*
X26500000Y-81500000D01*
D36*
%TO.N,Net-(U2A-+)*%
X24362500Y-51150000D02*
X26963840Y-51150000D01*
%TO.N,Net-(J6-Pin_1)*%
X16040364Y-44199000D02*
X15451000Y-43609636D01*
D39*
%TO.N,GNDPWR*%
X28200000Y-79725000D02*
X28200000Y-75622500D01*
D36*
%TO.N,/pmu/MEAS_V*%
X31400000Y-52898000D02*
X31400000Y-54200000D01*
%TO.N,+3V3*%
X32650000Y-49300000D02*
X32650000Y-49230000D01*
D37*
%TO.N,+9V*%
X17500000Y-33500000D02*
X14750000Y-36250000D01*
D36*
%TO.N,Net-(U2A-+)*%
X34386000Y-44145160D02*
X34070160Y-44461000D01*
D37*
%TO.N,Net-(Q1-D)*%
X23261874Y-16350000D02*
X15612500Y-23999374D01*
D36*
%TO.N,VDD*%
X47000000Y-43250000D02*
X58900000Y-43250000D01*
%TO.N,/pmu/MEAS_CURRENT*%
X15852000Y-43352000D02*
X15852000Y-41750000D01*
%TO.N,+3V3*%
X51770000Y-35110000D02*
X48300000Y-35110000D01*
%TO.N,/rp2040/RX*%
X44025000Y-33550057D02*
X44025000Y-34150000D01*
D38*
%TO.N,GND*%
X28000000Y-26750000D02*
X31750000Y-26750000D01*
D36*
%TO.N,/rp2040/SWDIO*%
X41300250Y-43800250D02*
X53859000Y-43800250D01*
%TO.N,Net-(C9-Pad2)*%
X26050000Y-36000000D02*
X24352000Y-37698000D01*
D38*
%TO.N,GND*%
X28000000Y-26750000D02*
X28000000Y-28000000D01*
D37*
%TO.N,+9V*%
X14750000Y-36250000D02*
X14750000Y-43900000D01*
D38*
%TO.N,GND*%
X33637500Y-28575000D02*
X33664500Y-28602000D01*
D36*
%TO.N,Net-(Q1-G)*%
X46837500Y-29250000D02*
X44662500Y-29250000D01*
%TO.N,+3V3*%
X22740000Y-51800000D02*
X22010000Y-51070000D01*
D37*
%TO.N,+9V*%
X17487500Y-33487500D02*
X17500000Y-33500000D01*
D36*
%TO.N,Net-(J6-Pin_1)*%
X14150000Y-46750000D02*
X14700000Y-46200000D01*
%TO.N,Net-(J1-Pin_3)*%
X50250000Y-45500000D02*
X51000000Y-46250000D01*
D37*
%TO.N,+9V*%
X25700000Y-79725000D02*
X25700000Y-80700000D01*
D36*
%TO.N,/rp2040/SWCLK*%
X39250000Y-42500000D02*
X41701250Y-44951250D01*
D37*
%TO.N,+9V*%
X14750000Y-43900000D02*
X16050000Y-45200000D01*
X25700000Y-79725000D02*
X25700000Y-69950000D01*
D36*
%TO.N,Net-(J1-Pin_3)*%
X27514840Y-29026000D02*
X28926000Y-29026000D01*
%TO.N,+3V3*%
X24362500Y-51800000D02*
X27046740Y-51800000D01*
%TO.N,/rp2040/SWCLK*%
X27750000Y-38099000D02*
X20833900Y-38099000D01*
D37*
%TO.N,+9V*%
X14082635Y-51157635D02*
X13175000Y-50250000D01*
%TO.N,Net-(Q1-D)*%
X47449874Y-33018000D02*
X50410126Y-33018000D01*
%TO.N,+9V*%
X25700000Y-69950000D02*
X16500000Y-60750000D01*
D36*
%TO.N,Net-(J6-Pin_1)*%
X17201000Y-46201000D02*
X19043160Y-46201000D01*
%TO.N,Net-(U3-PC15-OSC32_OUT)*%
X45700000Y-21900000D02*
X46775000Y-20825000D01*
%TO.N,Net-(J6-Pin_1)*%
X14150000Y-49850000D02*
X14150000Y-46750000D01*
%TO.N,Net-(U2A-+)*%
X34070160Y-42459000D02*
X34386000Y-42774840D01*
%TO.N,/rp2040/SWDIO*%
X21000000Y-38500000D02*
X20250000Y-39250000D01*
%TO.N,Net-(U2A-+)*%
X32580000Y-45440000D02*
X32580000Y-48520057D01*
%TO.N,VDD*%
X56050000Y-72200000D02*
X56050000Y-72433750D01*
%TO.N,Net-(J1-Pin_2)*%
X31949000Y-34566100D02*
X31949000Y-31766100D01*
D37*
%TO.N,Net-(Q1-D)*%
X50408126Y-16350000D02*
X23261874Y-16350000D01*
D36*
%TO.N,Net-(D1-A2)*%
X38674000Y-32364840D02*
X38674000Y-33735160D01*
D37*
%TO.N,+9V*%
X12524207Y-53500000D02*
X14082635Y-51941572D01*
D36*
%TO.N,Net-(J1-Pin_3)*%
X27199000Y-28710160D02*
X27514840Y-29026000D01*
%TO.N,Net-(D1-A2)*%
X35750000Y-34500000D02*
X35462500Y-34212500D01*
%TO.N,VDD*%
X32225000Y-27925000D02*
X33637500Y-27925000D01*
%TO.N,Net-(J6-Pin_1)*%
X18700000Y-22650000D02*
X20750000Y-20600000D01*
D38*
%TO.N,GND*%
X18637500Y-51800000D02*
X19800000Y-51800000D01*
D36*
%TO.N,Net-(U2A--)*%
X32160000Y-48137100D02*
X32160000Y-44872500D01*
%TO.N,+3V3*%
X24362500Y-51800000D02*
X25030000Y-51800000D01*
%TO.N,Net-(J1-Pin_2)*%
X38150000Y-42534200D02*
X38099000Y-42483200D01*
%TO.N,Net-(D1-A2)*%
X42600000Y-38357900D02*
X42600000Y-34600000D01*
%TO.N,/rp2040/SWDIO*%
X40000000Y-42500000D02*
X41300250Y-43800250D01*
D38*
%TO.N,GND*%
X31337500Y-19250000D02*
X33550000Y-19250000D01*
D36*
%TO.N,/rp2040/USBBOOT*%
X16400000Y-61700000D02*
X19100000Y-64400000D01*
%TO.N,Net-(D1-A2)*%
X48250000Y-39500000D02*
X48228950Y-39478950D01*
%TO.N,Net-(J6-Pin_1)*%
X15451000Y-43609636D02*
X15451000Y-41526049D01*
%TO.N,Net-(J1-Pin_2)*%
X38099000Y-42483200D02*
X38099000Y-36899000D01*
%TO.N,Net-(J1-Pin_3)*%
X31200000Y-30450000D02*
X32350000Y-31600000D01*
%TO.N,Net-(Q1-G)*%
X46837500Y-31517500D02*
X46837500Y-29250000D01*
%TO.N,Net-(U2A--)*%
X24362500Y-50500000D02*
X27987500Y-50500000D01*
%TO.N,+3V3*%
X22355000Y-47575000D02*
X22010000Y-47920000D01*
X19796000Y-48000000D02*
X21930000Y-48000000D01*
X24040000Y-48590000D02*
X24040000Y-47865000D01*
X27890000Y-52643260D02*
X27421740Y-52175000D01*
X34390000Y-76955000D02*
X35820000Y-78385000D01*
X34776776Y-47103224D02*
X34809236Y-47103224D01*
X32650000Y-49300000D02*
X32600000Y-49250000D01*
X27046740Y-51800000D02*
X27421740Y-52175000D01*
X32650000Y-49230000D02*
X34390000Y-47490000D01*
X24040000Y-47865000D02*
X23750000Y-47575000D01*
X34390000Y-47490000D02*
X34776776Y-47103224D01*
%TO.N,/rp2040/SWCLK*%
X39213343Y-39650000D02*
X39250000Y-39686657D01*
%TO.N,Net-(C9-Pad2)*%
X18400000Y-38250000D02*
X20115800Y-38250000D01*
X20667800Y-37698000D02*
X20115800Y-38250000D01*
X26050000Y-36000000D02*
X26050000Y-34462500D01*
%TO.N,/pmu/NRST*%
X37600000Y-26600000D02*
X37600000Y-21770000D01*
%TO.N,/rp2040/SWDIO*%
X19154375Y-43017044D02*
X18595130Y-43017044D01*
X40000000Y-40500000D02*
X40000000Y-42500000D01*
X20250000Y-41921419D02*
X19154375Y-43017044D01*
X37054000Y-39500000D02*
X28500000Y-39500000D01*
X28500000Y-39500000D02*
X27500000Y-38500000D01*
X20250000Y-39250000D02*
X20250000Y-41921419D01*
%TO.N,+3V3*%
X21930000Y-48000000D02*
X22010000Y-47920000D01*
%TO.N,Net-(U3-PC14-OSC32_IN)*%
X40725000Y-25975000D02*
X42897500Y-23802500D01*
%TO.N,Net-(IC1-XIN)*%
X17377000Y-36000000D02*
X16552000Y-36825000D01*
%TO.N,/rp2040/MISO*%
X12474000Y-34526000D02*
X12750000Y-34250000D01*
%TO.N,Net-(U2A-+)*%
X33775000Y-51550000D02*
X33775000Y-73275000D01*
%TO.N,Net-(J6-Pin_1)*%
X18700000Y-33300000D02*
X18700000Y-22650000D01*
%TO.N,/rp2040/SWCLK*%
X28750000Y-39099000D02*
X27750000Y-38099000D01*
%TO.N,Net-(D1-A1)*%
X42166100Y-34766100D02*
X40450000Y-33050000D01*
%TO.N,/rp2040/SWCLK*%
X19750000Y-41571476D02*
X18996476Y-42325000D01*
%TO.N,/rp2040/USBBOOT*%
X14208636Y-61700000D02*
X16400000Y-61700000D01*
%TO.N,/rp2040/SWCLK*%
X37054000Y-38450000D02*
X37004000Y-38500000D01*
%TO.N,Net-(J1-Pin_3)*%
X54750000Y-66133750D02*
X56050000Y-67433750D01*
%TO.N,Net-(R7-Pad2)*%
X30951000Y-48779000D02*
X31747500Y-47982500D01*
%TO.N,/rp2040/SWCLK*%
X36401000Y-39099000D02*
X28750000Y-39099000D01*
X20833900Y-38099000D02*
X19750000Y-39182900D01*
%TO.N,Net-(J6-Pin_1)*%
X34000000Y-20700000D02*
X31300000Y-20700000D01*
%TO.N,Net-(J1-Pin_2)*%
X38150000Y-42650000D02*
X38150000Y-42534200D01*
%TO.N,/rp2040/SWCLK*%
X37000000Y-38500000D02*
X36401000Y-39099000D01*
X39250000Y-39686657D02*
X39250000Y-42500000D01*
X37004000Y-38500000D02*
X37000000Y-38500000D01*
D37*
%TO.N,+9V*%
X14250000Y-60750000D02*
X12500000Y-59000000D01*
D36*
%TO.N,/rp2040/USBBOOT*%
X27150000Y-24750000D02*
X29150000Y-24750000D01*
X11799000Y-32501000D02*
X11799000Y-59290364D01*
%TO.N,/pmu/MEAS_CURRENT*%
X19050000Y-30700000D02*
X19750000Y-30000000D01*
%TO.N,Net-(J6-Pin_1)*%
X17600000Y-58200000D02*
X14800000Y-55400000D01*
%TO.N,+3V3*%
X23750000Y-47575000D02*
X22355000Y-47575000D01*
%TO.N,/rp2040/USBBOOT*%
X11799000Y-59290364D02*
X14208636Y-61700000D01*
%TO.N,VDD*%
X35501057Y-28101000D02*
X38449001Y-28101000D01*
%TO.N,Net-(U2B-+)*%
X27075000Y-55225000D02*
X27025000Y-55175000D01*
%TO.N,Net-(J1-Pin_2)*%
X56050000Y-69933750D02*
X54250000Y-68133750D01*
%TO.N,Net-(D1-A2)*%
X49250000Y-38500000D02*
X48250000Y-39500000D01*
%TO.N,/pmu/MEAS_V*%
X34676000Y-32164840D02*
X34676000Y-30906130D01*
%TO.N,Net-(U2A-+)*%
X34070160Y-44461000D02*
X33559000Y-44461000D01*
%TO.N,Net-(U2B-+)*%
X27025000Y-55175000D02*
X27025000Y-54275000D01*
%TO.N,Net-(J6-Pin_1)*%
X15750000Y-41227049D02*
X15750000Y-36250000D01*
D38*
%TO.N,GND*%
X33664500Y-28602000D02*
X36702000Y-28602000D01*
D36*
%TO.N,Net-(J1-Pin_2)*%
X26798000Y-26109900D02*
X27587900Y-25320000D01*
%TO.N,/rp2040/SCK*%
X19623915Y-37299915D02*
X19624000Y-37300000D01*
D38*
%TO.N,GND*%
X19800000Y-51800000D02*
X22490000Y-54490000D01*
D36*
%TO.N,Net-(IC1-XIN)*%
X20300000Y-34687500D02*
X22237500Y-32750000D01*
X20300000Y-36000000D02*
X20300000Y-34687500D01*
X20300000Y-36000000D02*
X17377000Y-36000000D01*
%TO.N,/pmu/MEAS_V*%
X36550000Y-44900000D02*
X36550000Y-52350000D01*
X24362500Y-53750000D02*
X24362500Y-53100000D01*
%TO.N,Net-(J1-Pin_2)*%
X27348740Y-29427000D02*
X26798000Y-28876260D01*
%TO.N,Net-(U2A-+)*%
X34386000Y-42774840D02*
X34386000Y-44145160D01*
%TO.N,/rp2040/RX*%
X39362500Y-29875000D02*
X40349943Y-29875000D01*
X40349943Y-29875000D02*
X44025000Y-33550057D01*
%TO.N,Net-(U2A--)*%
X27987500Y-50500000D02*
X28087500Y-50400000D01*
X28087500Y-50400000D02*
X28087500Y-49532500D01*
%TO.N,+3V3*%
X34390000Y-59990000D02*
X34390000Y-76955000D01*
%TO.N,Net-(U2A-+)*%
X29099000Y-44151000D02*
X29099000Y-42814840D01*
X28410160Y-51601000D02*
X28850000Y-51161160D01*
%TO.N,Net-(IC1-XIN)*%
X16977000Y-40100000D02*
X16552000Y-39675000D01*
%TO.N,Net-(D1-A2)*%
X39038840Y-32000000D02*
X38674000Y-32364840D01*
%TO.N,Net-(J1-Pin_2)*%
X50833900Y-46651000D02*
X50216450Y-46033550D01*
%TO.N,/rp2040/SWCLK*%
X41701250Y-44951250D02*
X52470000Y-44951250D01*
%TO.N,/rp2040/TX*%
X40150000Y-30525000D02*
X43300000Y-33675000D01*
X39362500Y-30525000D02*
X40150000Y-30525000D01*
%TO.N,Net-(J1-Pin_2)*%
X33756928Y-36374028D02*
X31949000Y-34566100D01*
D38*
%TO.N,GND*%
X29700000Y-50600000D02*
X29737500Y-50600000D01*
D36*
%TO.N,VDD*%
X59350000Y-43700000D02*
X59350000Y-69133750D01*
%TO.N,Net-(U3-PB9-BOOT0)*%
X40200000Y-21712500D02*
X39000000Y-22912500D01*
%TO.N,/rp2040/USBBOOT*%
X13400000Y-30900000D02*
X11799000Y-32501000D01*
X19100000Y-64400000D02*
X19100000Y-67500000D01*
X26300000Y-25600000D02*
X27150000Y-24750000D01*
X29150000Y-24750000D02*
X29300000Y-24600000D01*
%TO.N,Net-(J1-Pin_2)*%
X28759900Y-29427000D02*
X27348740Y-29427000D01*
X52333900Y-46651000D02*
X50833900Y-46651000D01*
X27835000Y-25325000D02*
X33637500Y-25325000D01*
X27587900Y-25320000D02*
X27830000Y-25320000D01*
X26798000Y-28876260D02*
X26798000Y-26109900D01*
X54250000Y-68133750D02*
X54250000Y-48567100D01*
X50216450Y-46033550D02*
X41533550Y-46033550D01*
X30283550Y-30983550D02*
X28759900Y-29459900D01*
D37*
%TO.N,Net-(Q1-D)*%
X15612500Y-23999374D02*
X15612500Y-28000000D01*
D36*
%TO.N,Net-(J1-Pin_2)*%
X28759900Y-29459900D02*
X28759900Y-29427000D01*
%TO.N,Net-(J6-Pin_1)*%
X30700000Y-76425840D02*
X28885160Y-74611000D01*
%TO.N,Net-(J1-Pin_2)*%
X54250000Y-48567100D02*
X52333900Y-46651000D01*
%TO.N,Net-(IC1-XIN)*%
X17750000Y-40100000D02*
X16977000Y-40100000D01*
%TO.N,/pmu/NRST*%
X36650000Y-26600000D02*
X35750000Y-27500000D01*
X53200000Y-61600000D02*
X53200000Y-63900000D01*
X38275000Y-27275000D02*
X37600000Y-26600000D01*
X39362500Y-27275000D02*
X38275000Y-27275000D01*
X37600000Y-26600000D02*
X36650000Y-26600000D01*
%TO.N,Net-(J1-Pin_3)*%
X32350000Y-34400000D02*
X33900000Y-35950000D01*
X54750000Y-48500000D02*
X54750000Y-66133750D01*
X27500000Y-25975000D02*
X27199000Y-26276000D01*
X37850000Y-35950000D02*
X38550000Y-36650000D01*
X31199000Y-30451000D02*
X31200000Y-30450000D01*
X56050000Y-67450000D02*
X56050000Y-67433750D01*
X27199000Y-26276000D02*
X27199000Y-28710160D01*
X33637500Y-25975000D02*
X27500000Y-25975000D01*
X32350000Y-31600000D02*
X32350000Y-34400000D01*
X28926000Y-29026000D02*
X30351000Y-30451000D01*
X33900000Y-35950000D02*
X37850000Y-35950000D01*
X38550000Y-42367100D02*
X41682900Y-45500000D01*
X38550000Y-36650000D02*
X38550000Y-42367100D01*
X30351000Y-30451000D02*
X31199000Y-30451000D01*
%TO.N,Net-(U3-PC14-OSC32_IN)*%
X39362500Y-25975000D02*
X40725000Y-25975000D01*
X42897500Y-23802500D02*
X43225000Y-23802500D01*
X42800000Y-23377500D02*
X43225000Y-23802500D01*
X42800000Y-20825000D02*
X42800000Y-23377500D01*
%TO.N,Net-(U3-PC15-OSC32_OUT)*%
X42902500Y-26625000D02*
X43225000Y-26302500D01*
X39362500Y-26625000D02*
X42902500Y-26625000D01*
%TO.N,Net-(U2A-+)*%
X27414840Y-51601000D02*
X28410160Y-51601000D01*
X31840000Y-49260057D02*
X31840000Y-49615000D01*
%TO.N,Net-(U2B-+)*%
X27460000Y-55610000D02*
X27075000Y-55225000D01*
%TO.N,Net-(U2A-+)*%
X33775000Y-51550000D02*
X31840000Y-49615000D01*
X28850000Y-51161160D02*
X28850000Y-49988840D01*
X26963840Y-51150000D02*
X27414840Y-51601000D01*
X33775000Y-73275000D02*
X33252500Y-73797500D01*
X25019870Y-51150000D02*
X24362500Y-51150000D01*
X33559000Y-44461000D02*
X32580000Y-45440000D01*
X32580000Y-48520057D02*
X31840000Y-49260057D01*
X29238840Y-49600000D02*
X31500057Y-49600000D01*
X28850000Y-49988840D02*
X29238840Y-49600000D01*
X29099000Y-42814840D02*
X29454840Y-42459000D01*
%TO.N,Net-(D1-A1)*%
X40450000Y-33050000D02*
X39487500Y-33050000D01*
%TO.N,Net-(U2A-+)*%
X28650000Y-44600000D02*
X29099000Y-44151000D01*
X25182500Y-44600000D02*
X28650000Y-44600000D01*
X33252500Y-73797500D02*
X28200000Y-73797500D01*
X31500057Y-49600000D02*
X31840000Y-49260057D01*
%TO.N,/pmu/MEAS_V*%
X30150000Y-58100000D02*
X27450000Y-58100000D01*
%TO.N,Net-(U2A-+)*%
X24582500Y-45200000D02*
X25182500Y-44600000D01*
%TO.N,Net-(U3-PA4)*%
X38075000Y-31175000D02*
X37650000Y-31600000D01*
%TO.N,Net-(U2A-+)*%
X29454840Y-42459000D02*
X34070160Y-42459000D01*
%TO.N,Net-(U2A--)*%
X32160000Y-44872500D02*
X33572500Y-43460000D01*
X28440000Y-49180000D02*
X31117100Y-49180000D01*
X31117100Y-49180000D02*
X32160000Y-48137100D01*
%TO.N,Net-(R7-Pad2)*%
X25433500Y-48779000D02*
X30951000Y-48779000D01*
%TO.N,/pmu/MEAS_V*%
X34524236Y-34924293D02*
X34451000Y-34851057D01*
%TO.N,Net-(R7-Pad2)*%
X24362500Y-49850000D02*
X25433500Y-48779000D01*
X29952500Y-43460000D02*
X29912500Y-43500000D01*
X31747500Y-43460000D02*
X29952500Y-43460000D01*
X31747500Y-47982500D02*
X31747500Y-43460000D01*
%TO.N,Net-(U2B-+)*%
X24362500Y-52450000D02*
X22010000Y-52450000D01*
X21180000Y-51620000D02*
X21180000Y-50233943D01*
X25200000Y-52450000D02*
X27025000Y-54275000D01*
X27917500Y-55610000D02*
X27460000Y-55610000D01*
X19195000Y-46877500D02*
X20172500Y-45900000D01*
X20172500Y-45900000D02*
X20172500Y-45200000D01*
X21180000Y-50233943D02*
X19195000Y-48248943D01*
%TO.N,Net-(U3-PB9-BOOT0)*%
X39000000Y-22912500D02*
X39000000Y-24962500D01*
%TO.N,Net-(D1-A1)*%
X43600000Y-40000000D02*
X42199000Y-38599000D01*
X42199000Y-34766100D02*
X42166100Y-34766100D01*
X42199000Y-38599000D02*
X42199000Y-34766100D01*
%TO.N,Net-(D1-A2)*%
X42600000Y-34600000D02*
X40000000Y-32000000D01*
X56240000Y-38500000D02*
X49250000Y-38500000D01*
X37909160Y-34500000D02*
X35750000Y-34500000D01*
X43721050Y-39478950D02*
X42600000Y-38357900D01*
X38674000Y-33735160D02*
X37909160Y-34500000D01*
X35462500Y-34212500D02*
X35462500Y-33075000D01*
X48228950Y-39478950D02*
X43721050Y-39478950D01*
%TO.N,/pmu/MEAS_V*%
X37674972Y-37374972D02*
X37300000Y-37000000D01*
X36550000Y-44900000D02*
X37674972Y-43775028D01*
X31400000Y-54200000D02*
X31100000Y-54500000D01*
X26624000Y-57274000D02*
X26624000Y-54450000D01*
X31100000Y-54500000D02*
X31100000Y-57150000D01*
X34676000Y-30906130D02*
X34294870Y-30525000D01*
X25274000Y-53100000D02*
X24362500Y-53100000D01*
%TO.N,VDD*%
X31850000Y-28300000D02*
X32225000Y-27925000D01*
%TO.N,/pmu/MEAS_V*%
X34294870Y-30525000D02*
X33637500Y-30525000D01*
X26624000Y-54450000D02*
X25274000Y-53100000D01*
X34451000Y-32389840D02*
X34676000Y-32164840D01*
X34451000Y-34851057D02*
X34451000Y-32389840D01*
X31700000Y-52598000D02*
X31400000Y-52898000D01*
%TO.N,Net-(U3-PA5)*%
X33637500Y-31175000D02*
X33637500Y-33075000D01*
%TO.N,Net-(U3-PA4)*%
X39362500Y-31175000D02*
X38075000Y-31175000D01*
X37662500Y-31612500D02*
X37662500Y-33050000D01*
%TO.N,VDD*%
X38449001Y-28101000D02*
X38625001Y-27925000D01*
X29900000Y-28000000D02*
X29900000Y-28800000D01*
X45333333Y-27925000D02*
X44500000Y-27925000D01*
X31400000Y-29250000D02*
X31850000Y-28800000D01*
X34374999Y-27925000D02*
X34676000Y-27623999D01*
X29900000Y-28800000D02*
X30350000Y-29250000D01*
X38625001Y-27925000D02*
X39362500Y-27925000D01*
X46780000Y-23676667D02*
X46780000Y-26478333D01*
X43750000Y-32500000D02*
X43750000Y-28500000D01*
X43750000Y-28500000D02*
X44325000Y-27925000D01*
X33637500Y-27925000D02*
X33562500Y-28000000D01*
X45000000Y-33750000D02*
X43750000Y-32500000D01*
X34374999Y-27925000D02*
X33637500Y-27925000D01*
X45000000Y-37250000D02*
X45000000Y-33750000D01*
X34676000Y-23176000D02*
X33750000Y-22250000D01*
X30350000Y-29250000D02*
X31400000Y-29250000D01*
X46780000Y-26478333D02*
X45333333Y-27925000D01*
X25750000Y-22250000D02*
X25200000Y-22800000D01*
X25200000Y-22800000D02*
X25200000Y-24750000D01*
X35325057Y-27925000D02*
X35501057Y-28101000D01*
X44500000Y-27925000D02*
X39362500Y-27925000D01*
X39362500Y-27925000D02*
X38575000Y-27925000D01*
%TO.N,/pmu/3V3_POWER_ON*%
X39362500Y-29225000D02*
X42812500Y-29225000D01*
%TO.N,Net-(J6-Pin_1)*%
X31300000Y-20700000D02*
X31250000Y-20750000D01*
%TO.N,/pmu/3V3_POWER_ON*%
X39387500Y-29250000D02*
X39362500Y-29225000D01*
%TO.N,/pmu/MEAS_CURRENT*%
X30626000Y-29875000D02*
X30601000Y-29850000D01*
X30601000Y-29850000D02*
X30601000Y-29851000D01*
%TD*%
%TA.AperFunction,Conductor*%
%TO.N,GND*%
G36*
X16166942Y-62320185D02*
G01*
X16187584Y-62336819D01*
X18463181Y-64612416D01*
X18496666Y-64673739D01*
X18499500Y-64700097D01*
X18499500Y-66920234D01*
X18479815Y-66987273D01*
X18478602Y-66989125D01*
X18390609Y-67120814D01*
X18390602Y-67120827D01*
X18330264Y-67266498D01*
X18330261Y-67266510D01*
X18299500Y-67421153D01*
X18299500Y-67578846D01*
X18330261Y-67733489D01*
X18330264Y-67733501D01*
X18390602Y-67879172D01*
X18390609Y-67879185D01*
X18478210Y-68010288D01*
X18478213Y-68010292D01*
X18589707Y-68121786D01*
X18589711Y-68121789D01*
X18720814Y-68209390D01*
X18720827Y-68209397D01*
X18866498Y-68269735D01*
X18866503Y-68269737D01*
X19021153Y-68300499D01*
X19021156Y-68300500D01*
X19021158Y-68300500D01*
X19178844Y-68300500D01*
X19178845Y-68300499D01*
X19333497Y-68269737D01*
X19470939Y-68212807D01*
X19479172Y-68209397D01*
X19479172Y-68209396D01*
X19479179Y-68209394D01*
X19610289Y-68121789D01*
X19721789Y-68010289D01*
X19809394Y-67879179D01*
X19869737Y-67733497D01*
X19900500Y-67578842D01*
X19900500Y-67421158D01*
X19900500Y-67421155D01*
X19900499Y-67421153D01*
X19869738Y-67266510D01*
X19869737Y-67266503D01*
X19869735Y-67266498D01*
X19809397Y-67120827D01*
X19809390Y-67120814D01*
X19721398Y-66989125D01*
X19700520Y-66922447D01*
X19700500Y-66920234D01*
X19700500Y-65523361D01*
X19720185Y-65456322D01*
X19772989Y-65410567D01*
X19842147Y-65400623D01*
X19905703Y-65429648D01*
X19912181Y-65435680D01*
X24763181Y-70286680D01*
X24796666Y-70348003D01*
X24799500Y-70374361D01*
X24799500Y-78539242D01*
X24779815Y-78606281D01*
X24763181Y-78626923D01*
X24669894Y-78720209D01*
X24669890Y-78720213D01*
X24544951Y-78892179D01*
X24448444Y-79081585D01*
X24448443Y-79081587D01*
X24448443Y-79081588D01*
X24427282Y-79146716D01*
X24382753Y-79283760D01*
X24361950Y-79415109D01*
X24349500Y-79493713D01*
X24349500Y-79956287D01*
X24382754Y-80166243D01*
X24424114Y-80293536D01*
X24448444Y-80368414D01*
X24544951Y-80557820D01*
X24669890Y-80729786D01*
X24790457Y-80850353D01*
X24797948Y-80862896D01*
X24806706Y-80870398D01*
X24815867Y-80892900D01*
X24821551Y-80902418D01*
X24823243Y-80908062D01*
X24834105Y-80962666D01*
X24851662Y-81005051D01*
X24854067Y-81010859D01*
X24854069Y-81010863D01*
X24901985Y-81126544D01*
X24901990Y-81126552D01*
X24951401Y-81200500D01*
X24951402Y-81200501D01*
X25000537Y-81274038D01*
X25925960Y-82199461D01*
X25925964Y-82199464D01*
X26073446Y-82298009D01*
X26073452Y-82298012D01*
X26073453Y-82298013D01*
X26237334Y-82365895D01*
X26411303Y-82400499D01*
X26411307Y-82400500D01*
X26411308Y-82400500D01*
X35333693Y-82400500D01*
X35333694Y-82400499D01*
X35507666Y-82365895D01*
X35589606Y-82331953D01*
X35671547Y-82298013D01*
X35682795Y-82290496D01*
X35692503Y-82286183D01*
X35717032Y-82282912D01*
X35740644Y-82275519D01*
X35742857Y-82275499D01*
X36717871Y-82275499D01*
X36717872Y-82275499D01*
X36777483Y-82269091D01*
X36912331Y-82218796D01*
X37027546Y-82132546D01*
X37113796Y-82017331D01*
X37162810Y-81885916D01*
X37204681Y-81829984D01*
X37270145Y-81805566D01*
X37338418Y-81820417D01*
X37366673Y-81841569D01*
X37480213Y-81955109D01*
X37652179Y-82080048D01*
X37652181Y-82080049D01*
X37652184Y-82080051D01*
X37841588Y-82176557D01*
X38043757Y-82242246D01*
X38253713Y-82275500D01*
X38253714Y-82275500D01*
X38466286Y-82275500D01*
X38466287Y-82275500D01*
X38676243Y-82242246D01*
X38878412Y-82176557D01*
X39067816Y-82080051D01*
X39154138Y-82017335D01*
X39239786Y-81955109D01*
X39239788Y-81955106D01*
X39239792Y-81955104D01*
X39390104Y-81804792D01*
X39390106Y-81804788D01*
X39390109Y-81804786D01*
X39515048Y-81632820D01*
X39515047Y-81632820D01*
X39515051Y-81632816D01*
X39519514Y-81624054D01*
X39567488Y-81573259D01*
X39635308Y-81556463D01*
X39701444Y-81578999D01*
X39740486Y-81624056D01*
X39744951Y-81632820D01*
X39869890Y-81804786D01*
X40020213Y-81955109D01*
X40192179Y-82080048D01*
X40192181Y-82080049D01*
X40192184Y-82080051D01*
X40381588Y-82176557D01*
X40583757Y-82242246D01*
X40793713Y-82275500D01*
X40793714Y-82275500D01*
X41006286Y-82275500D01*
X41006287Y-82275500D01*
X41216243Y-82242246D01*
X41418412Y-82176557D01*
X41607816Y-82080051D01*
X41694138Y-82017335D01*
X41779786Y-81955109D01*
X41779788Y-81955106D01*
X41779792Y-81955104D01*
X41930104Y-81804792D01*
X41930106Y-81804788D01*
X41930109Y-81804786D01*
X42055048Y-81632820D01*
X42055047Y-81632820D01*
X42055051Y-81632816D01*
X42059514Y-81624054D01*
X42107488Y-81573259D01*
X42175308Y-81556463D01*
X42241444Y-81578999D01*
X42280486Y-81624056D01*
X42284951Y-81632820D01*
X42409890Y-81804786D01*
X42560213Y-81955109D01*
X42732179Y-82080048D01*
X42732181Y-82080049D01*
X42732184Y-82080051D01*
X42921588Y-82176557D01*
X43123757Y-82242246D01*
X43333713Y-82275500D01*
X43333714Y-82275500D01*
X43546286Y-82275500D01*
X43546287Y-82275500D01*
X43756243Y-82242246D01*
X43958412Y-82176557D01*
X44147816Y-82080051D01*
X44234138Y-82017335D01*
X44319786Y-81955109D01*
X44319788Y-81955106D01*
X44319792Y-81955104D01*
X44470104Y-81804792D01*
X44470106Y-81804788D01*
X44470109Y-81804786D01*
X44595048Y-81632820D01*
X44595047Y-81632820D01*
X44595051Y-81632816D01*
X44599514Y-81624054D01*
X44647488Y-81573259D01*
X44715308Y-81556463D01*
X44781444Y-81578999D01*
X44820486Y-81624056D01*
X44824951Y-81632820D01*
X44949890Y-81804786D01*
X45100213Y-81955109D01*
X45272179Y-82080048D01*
X45272181Y-82080049D01*
X45272184Y-82080051D01*
X45461588Y-82176557D01*
X45663757Y-82242246D01*
X45873713Y-82275500D01*
X45873714Y-82275500D01*
X46086286Y-82275500D01*
X46086287Y-82275500D01*
X46296243Y-82242246D01*
X46498412Y-82176557D01*
X46687816Y-82080051D01*
X46774138Y-82017335D01*
X46859786Y-81955109D01*
X46859788Y-81955106D01*
X46859792Y-81955104D01*
X47010104Y-81804792D01*
X47010106Y-81804788D01*
X47010109Y-81804786D01*
X47135048Y-81632820D01*
X47135047Y-81632820D01*
X47135051Y-81632816D01*
X47139514Y-81624054D01*
X47187488Y-81573259D01*
X47255308Y-81556463D01*
X47321444Y-81578999D01*
X47360486Y-81624056D01*
X47364951Y-81632820D01*
X47489890Y-81804786D01*
X47640213Y-81955109D01*
X47812179Y-82080048D01*
X47812181Y-82080049D01*
X47812184Y-82080051D01*
X48001588Y-82176557D01*
X48203757Y-82242246D01*
X48413713Y-82275500D01*
X48413714Y-82275500D01*
X48626286Y-82275500D01*
X48626287Y-82275500D01*
X48836243Y-82242246D01*
X49038412Y-82176557D01*
X49227816Y-82080051D01*
X49314138Y-82017335D01*
X49399786Y-81955109D01*
X49399788Y-81955106D01*
X49399792Y-81955104D01*
X49550104Y-81804792D01*
X49550106Y-81804788D01*
X49550109Y-81804786D01*
X49675048Y-81632820D01*
X49675047Y-81632820D01*
X49675051Y-81632816D01*
X49771557Y-81443412D01*
X49837246Y-81241243D01*
X49870500Y-81031287D01*
X49870500Y-80818713D01*
X49837246Y-80608757D01*
X49823506Y-80566473D01*
X49821512Y-80496635D01*
X49853755Y-80440478D01*
X50962742Y-79331491D01*
X53749500Y-79331491D01*
X53749500Y-79668508D01*
X53787231Y-80003381D01*
X53787233Y-80003397D01*
X53862223Y-80331953D01*
X53862227Y-80331965D01*
X53973532Y-80650054D01*
X54119752Y-80953683D01*
X54152029Y-81005051D01*
X54299054Y-81239039D01*
X54509175Y-81502523D01*
X54747477Y-81740825D01*
X55010961Y-81950946D01*
X55296314Y-82130246D01*
X55599949Y-82276469D01*
X55838848Y-82360063D01*
X55918034Y-82387772D01*
X55918046Y-82387776D01*
X56246606Y-82462767D01*
X56581492Y-82500499D01*
X56581493Y-82500500D01*
X56581496Y-82500500D01*
X56918507Y-82500500D01*
X56918507Y-82500499D01*
X57253394Y-82462767D01*
X57581954Y-82387776D01*
X57900051Y-82276469D01*
X58203686Y-82130246D01*
X58489039Y-81950946D01*
X58752523Y-81740825D01*
X58990825Y-81502523D01*
X59200946Y-81239039D01*
X59380246Y-80953686D01*
X59526469Y-80650051D01*
X59637776Y-80331954D01*
X59712767Y-80003394D01*
X59750500Y-79668504D01*
X59750500Y-79331496D01*
X59712767Y-78996606D01*
X59637776Y-78668046D01*
X59631861Y-78651143D01*
X59600591Y-78561777D01*
X59526469Y-78349949D01*
X59380246Y-78046314D01*
X59200946Y-77760961D01*
X58990825Y-77497477D01*
X58752523Y-77259175D01*
X58715873Y-77229948D01*
X58656798Y-77182837D01*
X58489039Y-77049054D01*
X58203686Y-76869754D01*
X58203683Y-76869752D01*
X57900054Y-76723532D01*
X57581965Y-76612227D01*
X57581953Y-76612223D01*
X57253397Y-76537233D01*
X57253381Y-76537231D01*
X56918508Y-76499500D01*
X56918504Y-76499500D01*
X56581496Y-76499500D01*
X56581491Y-76499500D01*
X56246618Y-76537231D01*
X56246602Y-76537233D01*
X55918046Y-76612223D01*
X55918034Y-76612227D01*
X55599945Y-76723532D01*
X55296316Y-76869752D01*
X55010962Y-77049053D01*
X54747477Y-77259174D01*
X54509174Y-77497477D01*
X54299053Y-77760962D01*
X54119752Y-78046316D01*
X53973532Y-78349945D01*
X53862227Y-78668034D01*
X53862223Y-78668046D01*
X53787233Y-78996602D01*
X53787231Y-78996618D01*
X53749500Y-79331491D01*
X50962742Y-79331491D01*
X56418713Y-73875521D01*
X56418716Y-73875520D01*
X56473669Y-73820566D01*
X56473670Y-73820566D01*
X56488023Y-73812728D01*
X56534990Y-73787083D01*
X56534992Y-73787082D01*
X56534997Y-73787082D01*
X56561349Y-73784249D01*
X56825002Y-73784249D01*
X56825008Y-73784249D01*
X56927797Y-73773749D01*
X57094334Y-73718564D01*
X57243656Y-73626462D01*
X57367712Y-73502406D01*
X57459814Y-73353084D01*
X57514999Y-73186547D01*
X57525500Y-73083759D01*
X57525499Y-71858846D01*
X57545184Y-71791808D01*
X57561813Y-71771171D01*
X59830520Y-69502466D01*
X59830521Y-69502463D01*
X59836193Y-69496792D01*
X59897516Y-69463307D01*
X59967208Y-69468291D01*
X60023141Y-69510163D01*
X60047558Y-69575627D01*
X60047873Y-69584924D01*
X60000449Y-82626451D01*
X59980521Y-82693418D01*
X59927551Y-82738981D01*
X59876450Y-82750000D01*
X14124000Y-82750000D01*
X14056961Y-82730315D01*
X14011206Y-82677511D01*
X14000000Y-82626000D01*
X14000000Y-81193511D01*
X14019685Y-81126472D01*
X14072489Y-81080717D01*
X14141647Y-81070773D01*
X14205203Y-81099798D01*
X14228992Y-81127537D01*
X14299054Y-81239039D01*
X14509175Y-81502523D01*
X14747477Y-81740825D01*
X15010961Y-81950946D01*
X15296314Y-82130246D01*
X15599949Y-82276469D01*
X15838848Y-82360063D01*
X15918034Y-82387772D01*
X15918046Y-82387776D01*
X16246606Y-82462767D01*
X16581492Y-82500499D01*
X16581493Y-82500500D01*
X16581496Y-82500500D01*
X16918507Y-82500500D01*
X16918507Y-82500499D01*
X17253394Y-82462767D01*
X17581954Y-82387776D01*
X17900051Y-82276469D01*
X18203686Y-82130246D01*
X18489039Y-81950946D01*
X18752523Y-81740825D01*
X18990825Y-81502523D01*
X19200946Y-81239039D01*
X19380246Y-80953686D01*
X19526469Y-80650051D01*
X19637776Y-80331954D01*
X19712767Y-80003394D01*
X19750500Y-79668504D01*
X19750500Y-79331496D01*
X19712767Y-78996606D01*
X19637776Y-78668046D01*
X19631861Y-78651143D01*
X19600591Y-78561777D01*
X19526469Y-78349949D01*
X19380246Y-78046314D01*
X19200946Y-77760961D01*
X18990825Y-77497477D01*
X18752523Y-77259175D01*
X18715873Y-77229948D01*
X18656798Y-77182837D01*
X18489039Y-77049054D01*
X18203686Y-76869754D01*
X18203683Y-76869752D01*
X17900054Y-76723532D01*
X17581965Y-76612227D01*
X17581953Y-76612223D01*
X17253397Y-76537233D01*
X17253381Y-76537231D01*
X16918508Y-76499500D01*
X16918504Y-76499500D01*
X16581496Y-76499500D01*
X16581491Y-76499500D01*
X16246618Y-76537231D01*
X16246602Y-76537233D01*
X15918046Y-76612223D01*
X15918034Y-76612227D01*
X15599945Y-76723532D01*
X15296316Y-76869752D01*
X15010962Y-77049053D01*
X14747477Y-77259174D01*
X14509174Y-77497477D01*
X14299053Y-77760962D01*
X14228994Y-77872460D01*
X14176659Y-77918751D01*
X14107605Y-77929399D01*
X14043757Y-77901024D01*
X14005385Y-77842634D01*
X14000000Y-77806488D01*
X14000000Y-75094088D01*
X14019685Y-75027049D01*
X14072489Y-74981294D01*
X14141647Y-74971350D01*
X14199485Y-74995711D01*
X14253226Y-75036948D01*
X14446274Y-75148405D01*
X14652219Y-75233710D01*
X14867537Y-75291404D01*
X15088543Y-75320500D01*
X15088550Y-75320500D01*
X15311450Y-75320500D01*
X15311457Y-75320500D01*
X15532463Y-75291404D01*
X15747781Y-75233710D01*
X15953726Y-75148405D01*
X16146774Y-75036948D01*
X16323624Y-74901247D01*
X16481247Y-74743624D01*
X16616948Y-74566774D01*
X16728405Y-74373726D01*
X16813710Y-74167781D01*
X16871404Y-73952463D01*
X16900500Y-73731457D01*
X16900500Y-73508543D01*
X16871404Y-73287537D01*
X16813710Y-73072219D01*
X16801168Y-73041941D01*
X16728406Y-72866277D01*
X16728405Y-72866274D01*
X16616948Y-72673226D01*
X16481247Y-72496376D01*
X16481242Y-72496370D01*
X16323629Y-72338757D01*
X16323622Y-72338751D01*
X16146782Y-72203058D01*
X16146780Y-72203057D01*
X16146774Y-72203052D01*
X15953726Y-72091595D01*
X15953722Y-72091593D01*
X15747790Y-72006293D01*
X15747783Y-72006291D01*
X15747781Y-72006290D01*
X15532463Y-71948596D01*
X15532457Y-71948595D01*
X15532452Y-71948594D01*
X15311466Y-71919501D01*
X15311463Y-71919500D01*
X15311457Y-71919500D01*
X15088543Y-71919500D01*
X15088537Y-71919500D01*
X15088533Y-71919501D01*
X14867547Y-71948594D01*
X14867540Y-71948595D01*
X14867537Y-71948596D01*
X14652219Y-72006290D01*
X14652209Y-72006293D01*
X14446277Y-72091593D01*
X14446273Y-72091595D01*
X14253226Y-72203052D01*
X14253219Y-72203057D01*
X14199485Y-72244288D01*
X14134316Y-72269481D01*
X14065871Y-72255442D01*
X14015882Y-72206628D01*
X14000000Y-72145911D01*
X14000000Y-62424501D01*
X14002550Y-62415815D01*
X14001262Y-62406855D01*
X14012240Y-62382816D01*
X14019685Y-62357462D01*
X14026526Y-62351534D01*
X14030287Y-62343299D01*
X14052520Y-62329010D01*
X14072489Y-62311707D01*
X14083002Y-62309419D01*
X14089064Y-62305524D01*
X14123997Y-62300501D01*
X14123999Y-62300501D01*
X14129578Y-62300500D01*
X14129579Y-62300501D01*
X14287693Y-62300501D01*
X14287696Y-62300500D01*
X14295304Y-62300500D01*
X16099903Y-62300500D01*
X16166942Y-62320185D01*
G37*
%TD.AperFunction*%
%TA.AperFunction,Conductor*%
G36*
X48054075Y-78577993D02*
G01*
X48119901Y-78692007D01*
X48212993Y-78785099D01*
X48327007Y-78850925D01*
X48390590Y-78867962D01*
X47758282Y-79500269D01*
X47758282Y-79500270D01*
X47812452Y-79539626D01*
X47812451Y-79539626D01*
X47821495Y-79544234D01*
X47872292Y-79592208D01*
X47889087Y-79660029D01*
X47866550Y-79726164D01*
X47821499Y-79765202D01*
X47812182Y-79769949D01*
X47640213Y-79894890D01*
X47489890Y-80045213D01*
X47364949Y-80217182D01*
X47360484Y-80225946D01*
X47312509Y-80276742D01*
X47244688Y-80293536D01*
X47178553Y-80270998D01*
X47139516Y-80225946D01*
X47135050Y-80217182D01*
X47010109Y-80045213D01*
X46859786Y-79894890D01*
X46687820Y-79769951D01*
X46687115Y-79769591D01*
X46679054Y-79765485D01*
X46628259Y-79717512D01*
X46611463Y-79649692D01*
X46633999Y-79583556D01*
X46679054Y-79544515D01*
X46687816Y-79540051D01*
X46777554Y-79474853D01*
X46859786Y-79415109D01*
X46859788Y-79415106D01*
X46859792Y-79415104D01*
X47010104Y-79264792D01*
X47010106Y-79264788D01*
X47010109Y-79264786D01*
X47077515Y-79172007D01*
X47135051Y-79092816D01*
X47139793Y-79083508D01*
X47187763Y-79032711D01*
X47255583Y-79015911D01*
X47321719Y-79038445D01*
X47360763Y-79083500D01*
X47365373Y-79092547D01*
X47404728Y-79146716D01*
X48037037Y-78514408D01*
X48054075Y-78577993D01*
G37*
%TD.AperFunction*%
%TA.AperFunction,Conductor*%
G36*
X22744729Y-39120185D02*
G01*
X22765371Y-39136819D01*
X23125000Y-39496446D01*
X23125001Y-39496446D01*
X23484628Y-39136819D01*
X23545951Y-39103334D01*
X23572309Y-39100500D01*
X23952690Y-39100500D01*
X24019729Y-39120185D01*
X24040371Y-39136819D01*
X24400000Y-39496446D01*
X24400001Y-39496446D01*
X24759628Y-39136819D01*
X24820951Y-39103334D01*
X24847309Y-39100500D01*
X25227690Y-39100500D01*
X25294729Y-39120185D01*
X25315371Y-39136819D01*
X25675000Y-39496446D01*
X25675001Y-39496446D01*
X26034628Y-39136819D01*
X26095951Y-39103334D01*
X26122309Y-39100500D01*
X27199903Y-39100500D01*
X27266942Y-39120185D01*
X27287583Y-39136818D01*
X28131284Y-39980520D01*
X28131286Y-39980521D01*
X28131290Y-39980524D01*
X28208326Y-40025000D01*
X28268216Y-40059577D01*
X28420943Y-40100501D01*
X28420945Y-40100501D01*
X28586654Y-40100501D01*
X28586670Y-40100500D01*
X36474234Y-40100500D01*
X36541273Y-40120185D01*
X36543125Y-40121398D01*
X36674814Y-40209390D01*
X36674827Y-40209397D01*
X36812683Y-40266498D01*
X36820503Y-40269737D01*
X36891283Y-40283816D01*
X36974663Y-40300402D01*
X37036574Y-40332787D01*
X37071148Y-40393503D01*
X37074472Y-40422019D01*
X37074472Y-43474930D01*
X37054787Y-43541969D01*
X37038153Y-43562611D01*
X36069481Y-44531282D01*
X36069479Y-44531285D01*
X36050451Y-44564243D01*
X36031422Y-44597203D01*
X35990423Y-44668215D01*
X35949499Y-44820943D01*
X35949499Y-44820945D01*
X35949499Y-44989046D01*
X35949500Y-44989059D01*
X35949500Y-52195396D01*
X35940062Y-52242844D01*
X35930265Y-52266498D01*
X35930262Y-52266506D01*
X35930260Y-52266511D01*
X35899500Y-52421153D01*
X35899500Y-52578846D01*
X35930261Y-52733489D01*
X35930264Y-52733501D01*
X35990602Y-52879172D01*
X35990609Y-52879185D01*
X36078210Y-53010288D01*
X36078213Y-53010292D01*
X36189707Y-53121786D01*
X36189711Y-53121789D01*
X36320814Y-53209390D01*
X36320827Y-53209397D01*
X36466498Y-53269735D01*
X36466503Y-53269737D01*
X36569699Y-53290264D01*
X36621153Y-53300499D01*
X36621156Y-53300500D01*
X36621158Y-53300500D01*
X36778844Y-53300500D01*
X36778845Y-53300499D01*
X36933497Y-53269737D01*
X37079179Y-53209394D01*
X37210289Y-53121789D01*
X37321789Y-53010289D01*
X37409394Y-52879179D01*
X37469737Y-52733497D01*
X37500500Y-52578842D01*
X37500500Y-52421158D01*
X37500500Y-52421155D01*
X37500499Y-52421153D01*
X37491451Y-52375666D01*
X37469737Y-52266503D01*
X37469735Y-52266498D01*
X37409397Y-52120827D01*
X37409390Y-52120814D01*
X37321789Y-51989711D01*
X37321786Y-51989707D01*
X37210292Y-51878213D01*
X37210284Y-51878207D01*
X37205605Y-51875080D01*
X37160802Y-51821466D01*
X37150500Y-51771981D01*
X37150500Y-45200097D01*
X37170185Y-45133058D01*
X37186819Y-45112416D01*
X37646728Y-44652507D01*
X38155492Y-44143744D01*
X38234549Y-44006812D01*
X38268358Y-43880634D01*
X38304724Y-43820976D01*
X38367571Y-43790447D01*
X38436946Y-43798742D01*
X38475814Y-43825049D01*
X41048689Y-46397924D01*
X41048699Y-46397935D01*
X41053029Y-46402265D01*
X41053030Y-46402266D01*
X41164834Y-46514070D01*
X41251645Y-46564189D01*
X41251647Y-46564191D01*
X41301432Y-46592935D01*
X41301765Y-46593127D01*
X41454492Y-46634050D01*
X41454493Y-46634050D01*
X49916353Y-46634050D01*
X49983392Y-46653735D01*
X50004034Y-46670369D01*
X50349039Y-47015374D01*
X50349049Y-47015385D01*
X50353379Y-47019715D01*
X50353380Y-47019716D01*
X50465184Y-47131520D01*
X50551995Y-47181639D01*
X50551997Y-47181641D01*
X50582930Y-47199500D01*
X50602115Y-47210577D01*
X50754843Y-47251500D01*
X52033803Y-47251500D01*
X52100842Y-47271185D01*
X52121484Y-47287819D01*
X53613181Y-48779516D01*
X53646666Y-48840839D01*
X53649500Y-48867197D01*
X53649500Y-60734155D01*
X53629815Y-60801194D01*
X53577011Y-60846949D01*
X53507853Y-60856893D01*
X53478048Y-60848716D01*
X53433501Y-60830264D01*
X53433489Y-60830261D01*
X53278845Y-60799500D01*
X53278842Y-60799500D01*
X53121158Y-60799500D01*
X53121155Y-60799500D01*
X52966510Y-60830261D01*
X52966498Y-60830264D01*
X52820827Y-60890602D01*
X52820814Y-60890609D01*
X52689711Y-60978210D01*
X52689707Y-60978213D01*
X52578213Y-61089707D01*
X52578210Y-61089711D01*
X52490609Y-61220814D01*
X52490602Y-61220827D01*
X52430264Y-61366498D01*
X52430261Y-61366510D01*
X52399500Y-61521153D01*
X52399500Y-61678846D01*
X52430261Y-61833489D01*
X52430264Y-61833501D01*
X52490602Y-61979172D01*
X52490609Y-61979185D01*
X52578602Y-62110874D01*
X52599480Y-62177551D01*
X52599500Y-62179765D01*
X52599500Y-63320234D01*
X52579815Y-63387273D01*
X52578602Y-63389125D01*
X52490609Y-63520814D01*
X52490602Y-63520827D01*
X52430264Y-63666498D01*
X52430261Y-63666510D01*
X52399500Y-63821153D01*
X52399500Y-63978846D01*
X52430261Y-64133489D01*
X52430264Y-64133501D01*
X52490602Y-64279172D01*
X52490609Y-64279185D01*
X52578210Y-64410288D01*
X52578213Y-64410292D01*
X52689707Y-64521786D01*
X52689711Y-64521789D01*
X52820814Y-64609390D01*
X52820827Y-64609397D01*
X52966498Y-64669735D01*
X52966503Y-64669737D01*
X53119132Y-64700097D01*
X53121153Y-64700499D01*
X53121156Y-64700500D01*
X53121158Y-64700500D01*
X53278844Y-64700500D01*
X53278845Y-64700499D01*
X53433497Y-64669737D01*
X53478050Y-64651282D01*
X53547515Y-64643814D01*
X53609995Y-64675088D01*
X53645648Y-64735177D01*
X53649500Y-64765844D01*
X53649500Y-68047080D01*
X53649499Y-68047098D01*
X53649499Y-68212804D01*
X53649498Y-68212804D01*
X53690424Y-68365539D01*
X53690425Y-68365540D01*
X53715661Y-68409249D01*
X53715662Y-68409251D01*
X53769475Y-68502459D01*
X53769481Y-68502467D01*
X53888349Y-68621335D01*
X53888355Y-68621340D01*
X54621897Y-69354882D01*
X54655382Y-69416205D01*
X54652147Y-69480879D01*
X54622559Y-69571943D01*
X54607753Y-69617510D01*
X54589927Y-69730061D01*
X54574500Y-69827463D01*
X54574500Y-70040037D01*
X54607754Y-70249993D01*
X54631475Y-70322999D01*
X54673444Y-70452164D01*
X54769951Y-70641570D01*
X54894890Y-70813536D01*
X55033705Y-70952351D01*
X55067190Y-71013674D01*
X55062206Y-71083366D01*
X55020334Y-71139299D01*
X55011121Y-71145571D01*
X54856342Y-71241039D01*
X54732289Y-71365092D01*
X54640187Y-71514413D01*
X54640186Y-71514416D01*
X54585001Y-71680953D01*
X54585001Y-71680954D01*
X54585000Y-71680954D01*
X54574500Y-71783733D01*
X54574500Y-73083751D01*
X54574501Y-73083768D01*
X54585000Y-73186546D01*
X54585001Y-73186549D01*
X54640185Y-73353081D01*
X54640187Y-73353086D01*
X54732289Y-73502407D01*
X54825141Y-73595259D01*
X54858626Y-73656582D01*
X54853642Y-73726274D01*
X54825141Y-73770621D01*
X50081681Y-78514082D01*
X50020358Y-78547567D01*
X49950666Y-78542583D01*
X49894733Y-78500711D01*
X49870316Y-78435247D01*
X49870000Y-78426401D01*
X49870000Y-78278753D01*
X49836757Y-78068872D01*
X49836757Y-78068869D01*
X49771095Y-77866782D01*
X49674624Y-77677449D01*
X49635270Y-77623282D01*
X49635269Y-77623282D01*
X49002962Y-78255590D01*
X48985925Y-78192007D01*
X48920099Y-78077993D01*
X48827007Y-77984901D01*
X48712993Y-77919075D01*
X48649409Y-77902037D01*
X49281716Y-77269728D01*
X49227550Y-77230375D01*
X49038217Y-77133904D01*
X48836129Y-77068242D01*
X48626246Y-77035000D01*
X48413754Y-77035000D01*
X48203872Y-77068242D01*
X48203869Y-77068242D01*
X48001782Y-77133904D01*
X47812439Y-77230380D01*
X47758282Y-77269727D01*
X47758282Y-77269728D01*
X48390591Y-77902037D01*
X48327007Y-77919075D01*
X48212993Y-77984901D01*
X48119901Y-78077993D01*
X48054075Y-78192007D01*
X48037037Y-78255591D01*
X47404728Y-77623282D01*
X47404727Y-77623282D01*
X47365380Y-77677440D01*
X47365376Y-77677446D01*
X47360760Y-77686505D01*
X47312781Y-77737297D01*
X47244959Y-77754087D01*
X47178826Y-77731543D01*
X47139794Y-77686493D01*
X47135051Y-77677184D01*
X47135049Y-77677181D01*
X47135048Y-77677179D01*
X47010109Y-77505213D01*
X46859786Y-77354890D01*
X46687818Y-77229950D01*
X46498414Y-77133444D01*
X46498413Y-77133443D01*
X46498412Y-77133443D01*
X46296243Y-77067754D01*
X46296241Y-77067753D01*
X46296240Y-77067753D01*
X46134957Y-77042208D01*
X46086287Y-77034500D01*
X45873713Y-77034500D01*
X45825042Y-77042208D01*
X45663760Y-77067753D01*
X45461585Y-77133444D01*
X45272182Y-77229950D01*
X45100213Y-77354890D01*
X44949890Y-77505213D01*
X44824949Y-77677182D01*
X44820484Y-77685946D01*
X44772509Y-77736742D01*
X44704688Y-77753536D01*
X44638553Y-77730998D01*
X44599516Y-77685946D01*
X44595050Y-77677182D01*
X44470109Y-77505213D01*
X44319786Y-77354890D01*
X44147818Y-77229950D01*
X43958414Y-77133444D01*
X43958413Y-77133443D01*
X43958412Y-77133443D01*
X43756243Y-77067754D01*
X43756241Y-77067753D01*
X43756240Y-77067753D01*
X43594957Y-77042208D01*
X43546287Y-77034500D01*
X43333713Y-77034500D01*
X43285042Y-77042208D01*
X43123760Y-77067753D01*
X42921585Y-77133444D01*
X42732182Y-77229950D01*
X42560213Y-77354890D01*
X42409890Y-77505213D01*
X42284949Y-77677182D01*
X42280484Y-77685946D01*
X42232509Y-77736742D01*
X42164688Y-77753536D01*
X42098553Y-77730998D01*
X42059516Y-77685946D01*
X42055050Y-77677182D01*
X41930109Y-77505213D01*
X41779786Y-77354890D01*
X41607818Y-77229950D01*
X41418414Y-77133444D01*
X41418413Y-77133443D01*
X41418412Y-77133443D01*
X41216243Y-77067754D01*
X41216241Y-77067753D01*
X41216240Y-77067753D01*
X41054957Y-77042208D01*
X41006287Y-77034500D01*
X40793713Y-77034500D01*
X40745042Y-77042208D01*
X40583760Y-77067753D01*
X40381585Y-77133444D01*
X40192182Y-77229950D01*
X40020213Y-77354890D01*
X39869890Y-77505213D01*
X39744949Y-77677182D01*
X39740484Y-77685946D01*
X39692509Y-77736742D01*
X39624688Y-77753536D01*
X39558553Y-77730998D01*
X39519516Y-77685946D01*
X39515050Y-77677182D01*
X39390109Y-77505213D01*
X39239786Y-77354890D01*
X39067818Y-77229950D01*
X38878414Y-77133444D01*
X38878413Y-77133443D01*
X38878412Y-77133443D01*
X38676243Y-77067754D01*
X38676241Y-77067753D01*
X38676240Y-77067753D01*
X38514957Y-77042208D01*
X38466287Y-77034500D01*
X38253713Y-77034500D01*
X38205042Y-77042208D01*
X38043760Y-77067753D01*
X37841585Y-77133444D01*
X37652182Y-77229950D01*
X37480213Y-77354890D01*
X37329890Y-77505213D01*
X37204949Y-77677182D01*
X37200484Y-77685946D01*
X37152509Y-77736742D01*
X37084688Y-77753536D01*
X37018553Y-77730998D01*
X36979516Y-77685946D01*
X36975050Y-77677182D01*
X36850109Y-77505213D01*
X36699786Y-77354890D01*
X36527818Y-77229950D01*
X36338414Y-77133444D01*
X36338413Y-77133443D01*
X36338412Y-77133443D01*
X36136243Y-77067754D01*
X36136241Y-77067753D01*
X36136240Y-77067753D01*
X35974957Y-77042208D01*
X35926287Y-77034500D01*
X35713713Y-77034500D01*
X35685006Y-77039046D01*
X35503757Y-77067753D01*
X35461473Y-77081492D01*
X35391632Y-77083486D01*
X35335476Y-77051241D01*
X35026819Y-76742584D01*
X34993334Y-76681261D01*
X34990500Y-76654903D01*
X34990500Y-60569765D01*
X35010185Y-60502726D01*
X35011398Y-60500874D01*
X35099390Y-60369185D01*
X35099390Y-60369184D01*
X35099394Y-60369179D01*
X35159737Y-60223497D01*
X35190500Y-60068842D01*
X35190500Y-59911158D01*
X35190500Y-59911155D01*
X35190499Y-59911153D01*
X35159738Y-59756510D01*
X35159737Y-59756503D01*
X35158977Y-59754668D01*
X35099397Y-59610827D01*
X35099390Y-59610814D01*
X35011398Y-59479125D01*
X34990520Y-59412447D01*
X34990500Y-59410234D01*
X34990500Y-47977451D01*
X35010185Y-47910412D01*
X35062989Y-47864657D01*
X35067048Y-47862890D01*
X35188408Y-47812621D01*
X35188408Y-47812620D01*
X35188415Y-47812618D01*
X35319525Y-47725013D01*
X35431025Y-47613513D01*
X35518630Y-47482403D01*
X35578973Y-47336721D01*
X35609736Y-47182066D01*
X35609736Y-47024382D01*
X35609736Y-47024379D01*
X35609735Y-47024377D01*
X35599814Y-46974500D01*
X35578973Y-46869727D01*
X35561699Y-46828024D01*
X35518633Y-46724051D01*
X35518626Y-46724038D01*
X35431025Y-46592935D01*
X35431022Y-46592931D01*
X35319528Y-46481437D01*
X35319524Y-46481434D01*
X35188421Y-46393833D01*
X35188408Y-46393826D01*
X35042737Y-46333488D01*
X35042725Y-46333485D01*
X34888081Y-46302724D01*
X34888078Y-46302724D01*
X34730394Y-46302724D01*
X34730391Y-46302724D01*
X34575746Y-46333485D01*
X34575734Y-46333488D01*
X34430063Y-46393826D01*
X34430050Y-46393833D01*
X34298947Y-46481434D01*
X34298943Y-46481437D01*
X34187449Y-46592931D01*
X34187446Y-46592935D01*
X34099845Y-46724038D01*
X34099838Y-46724051D01*
X34039500Y-46869722D01*
X34039497Y-46869732D01*
X34016658Y-46984551D01*
X33984273Y-47046462D01*
X33982722Y-47048040D01*
X33392181Y-47638582D01*
X33330858Y-47672067D01*
X33261167Y-47667083D01*
X33205233Y-47625212D01*
X33180816Y-47559747D01*
X33180500Y-47550901D01*
X33180500Y-45740097D01*
X33200185Y-45673058D01*
X33216819Y-45652416D01*
X33771416Y-45097819D01*
X33798343Y-45083115D01*
X33824162Y-45066523D01*
X33830362Y-45065631D01*
X33832739Y-45064334D01*
X33859097Y-45061500D01*
X33983491Y-45061500D01*
X33983507Y-45061501D01*
X33991103Y-45061501D01*
X34149214Y-45061501D01*
X34149217Y-45061501D01*
X34301945Y-45020577D01*
X34373859Y-44979057D01*
X34438876Y-44941520D01*
X34550680Y-44829716D01*
X34550680Y-44829714D01*
X34560884Y-44819511D01*
X34560888Y-44819506D01*
X34744506Y-44635888D01*
X34744511Y-44635884D01*
X34754714Y-44625680D01*
X34754716Y-44625680D01*
X34866520Y-44513876D01*
X34936896Y-44391980D01*
X34945577Y-44376945D01*
X34986500Y-44224218D01*
X34986500Y-44066103D01*
X34986500Y-42695783D01*
X34977114Y-42660752D01*
X34945577Y-42543055D01*
X34909747Y-42480996D01*
X34866520Y-42406124D01*
X34754716Y-42294320D01*
X34754715Y-42294319D01*
X34750385Y-42289989D01*
X34750374Y-42289979D01*
X34557750Y-42097355D01*
X34557748Y-42097352D01*
X34438877Y-41978481D01*
X34438876Y-41978480D01*
X34343860Y-41923623D01*
X34301945Y-41899423D01*
X34149217Y-41858499D01*
X33991103Y-41858499D01*
X33983507Y-41858499D01*
X33983491Y-41858500D01*
X29541510Y-41858500D01*
X29541494Y-41858499D01*
X29533898Y-41858499D01*
X29375783Y-41858499D01*
X29323461Y-41872519D01*
X29223054Y-41899423D01*
X29223049Y-41899426D01*
X29086130Y-41978475D01*
X29086122Y-41978481D01*
X28746012Y-42318590D01*
X28684689Y-42352075D01*
X28619328Y-42348615D01*
X28502799Y-42310001D01*
X28502795Y-42310000D01*
X28400010Y-42299500D01*
X27774998Y-42299500D01*
X27774980Y-42299501D01*
X27672203Y-42310000D01*
X27672200Y-42310001D01*
X27505668Y-42365185D01*
X27505663Y-42365187D01*
X27356342Y-42457289D01*
X27232289Y-42581342D01*
X27140187Y-42730663D01*
X27140185Y-42730668D01*
X27112349Y-42814670D01*
X27085001Y-42897203D01*
X27085001Y-42897204D01*
X27085000Y-42897204D01*
X27074500Y-42999983D01*
X27074500Y-43025500D01*
X27054815Y-43092539D01*
X27002011Y-43138294D01*
X26950500Y-43149500D01*
X26122309Y-43149500D01*
X26055270Y-43129815D01*
X26034628Y-43113181D01*
X25675001Y-42753553D01*
X25675000Y-42753553D01*
X25315370Y-43113181D01*
X25254047Y-43146666D01*
X25227689Y-43149500D01*
X24847309Y-43149500D01*
X24780270Y-43129815D01*
X24759628Y-43113181D01*
X24400001Y-42753553D01*
X24400000Y-42753553D01*
X24040370Y-43113181D01*
X23979047Y-43146666D01*
X23952689Y-43149500D01*
X23572309Y-43149500D01*
X23505270Y-43129815D01*
X23484628Y-43113181D01*
X23125001Y-42753553D01*
X23125000Y-42753553D01*
X22765370Y-43113181D01*
X22704047Y-43146666D01*
X22677689Y-43149500D01*
X20170516Y-43149500D01*
X20103477Y-43129815D01*
X20057722Y-43077011D01*
X20047778Y-43007853D01*
X20076803Y-42944297D01*
X20082835Y-42937819D01*
X20289991Y-42730663D01*
X20699453Y-42321202D01*
X22325000Y-42321202D01*
X22325000Y-42478797D01*
X22355741Y-42633343D01*
X22355743Y-42633351D01*
X22409153Y-42762293D01*
X22771446Y-42400001D01*
X22771446Y-42399999D01*
X22736637Y-42365190D01*
X22950000Y-42365190D01*
X22950000Y-42434810D01*
X22976643Y-42499129D01*
X23025871Y-42548357D01*
X23090190Y-42575000D01*
X23159810Y-42575000D01*
X23224129Y-42548357D01*
X23273357Y-42499129D01*
X23300000Y-42434810D01*
X23300000Y-42400000D01*
X23478553Y-42400000D01*
X23762500Y-42683946D01*
X23762501Y-42683946D01*
X24046446Y-42400001D01*
X24046446Y-42399999D01*
X24011637Y-42365190D01*
X24225000Y-42365190D01*
X24225000Y-42434810D01*
X24251643Y-42499129D01*
X24300871Y-42548357D01*
X24365190Y-42575000D01*
X24434810Y-42575000D01*
X24499129Y-42548357D01*
X24548357Y-42499129D01*
X24575000Y-42434810D01*
X24575000Y-42400000D01*
X24753553Y-42400000D01*
X25037500Y-42683946D01*
X25037501Y-42683946D01*
X25321446Y-42400001D01*
X25321446Y-42399999D01*
X25286637Y-42365190D01*
X25500000Y-42365190D01*
X25500000Y-42434810D01*
X25526643Y-42499129D01*
X25575871Y-42548357D01*
X25640190Y-42575000D01*
X25709810Y-42575000D01*
X25774129Y-42548357D01*
X25823357Y-42499129D01*
X25850000Y-42434810D01*
X25850000Y-42399999D01*
X26028553Y-42399999D01*
X26028553Y-42400001D01*
X26390845Y-42762293D01*
X26444257Y-42633347D01*
X26444258Y-42633343D01*
X26474999Y-42478797D01*
X26475000Y-42478794D01*
X26475000Y-42321206D01*
X26474999Y-42321202D01*
X26444258Y-42166656D01*
X26444257Y-42166652D01*
X26390845Y-42037706D01*
X26028553Y-42399999D01*
X25850000Y-42399999D01*
X25850000Y-42365190D01*
X25823357Y-42300871D01*
X25774129Y-42251643D01*
X25709810Y-42225000D01*
X25640190Y-42225000D01*
X25575871Y-42251643D01*
X25526643Y-42300871D01*
X25500000Y-42365190D01*
X25286637Y-42365190D01*
X25037501Y-42116053D01*
X25037500Y-42116053D01*
X24753553Y-42400000D01*
X24575000Y-42400000D01*
X24575000Y-42365190D01*
X24548357Y-42300871D01*
X24499129Y-42251643D01*
X24434810Y-42225000D01*
X24365190Y-42225000D01*
X24300871Y-42251643D01*
X24251643Y-42300871D01*
X24225000Y-42365190D01*
X24011637Y-42365190D01*
X23762501Y-42116053D01*
X23762500Y-42116053D01*
X23478553Y-42400000D01*
X23300000Y-42400000D01*
X23300000Y-42365190D01*
X23273357Y-42300871D01*
X23224129Y-42251643D01*
X23159810Y-42225000D01*
X23090190Y-42225000D01*
X23025871Y-42251643D01*
X22976643Y-42300871D01*
X22950000Y-42365190D01*
X22736637Y-42365190D01*
X22409153Y-42037705D01*
X22355743Y-42166648D01*
X22355741Y-42166656D01*
X22325000Y-42321202D01*
X20699453Y-42321202D01*
X20730520Y-42290135D01*
X20737140Y-42278667D01*
X20751894Y-42253115D01*
X20782615Y-42199903D01*
X20809577Y-42153203D01*
X20850501Y-42000476D01*
X20850501Y-41842361D01*
X20850501Y-41834766D01*
X20850500Y-41834748D01*
X20850500Y-41762500D01*
X22841053Y-41762500D01*
X23125000Y-42046446D01*
X23125001Y-42046446D01*
X23408946Y-41762501D01*
X23408946Y-41762500D01*
X24116053Y-41762500D01*
X24400000Y-42046446D01*
X24400001Y-42046446D01*
X24683946Y-41762501D01*
X24683946Y-41762500D01*
X25391053Y-41762500D01*
X25675000Y-42046446D01*
X25675001Y-42046446D01*
X25958946Y-41762501D01*
X25958946Y-41762499D01*
X25675001Y-41478553D01*
X25675000Y-41478553D01*
X25391053Y-41762500D01*
X24683946Y-41762500D01*
X24683946Y-41762499D01*
X24400001Y-41478553D01*
X24400000Y-41478553D01*
X24116053Y-41762500D01*
X23408946Y-41762500D01*
X23408946Y-41762499D01*
X23125001Y-41478553D01*
X23125000Y-41478553D01*
X22841053Y-41762500D01*
X20850500Y-41762500D01*
X20850500Y-41046202D01*
X22325000Y-41046202D01*
X22325000Y-41203797D01*
X22355741Y-41358343D01*
X22355743Y-41358351D01*
X22409153Y-41487293D01*
X22771446Y-41125001D01*
X22771446Y-41124999D01*
X22736637Y-41090190D01*
X22950000Y-41090190D01*
X22950000Y-41159810D01*
X22976643Y-41224129D01*
X23025871Y-41273357D01*
X23090190Y-41300000D01*
X23159810Y-41300000D01*
X23224129Y-41273357D01*
X23273357Y-41224129D01*
X23300000Y-41159810D01*
X23300000Y-41125000D01*
X23478553Y-41125000D01*
X23762500Y-41408946D01*
X23762501Y-41408946D01*
X24046446Y-41125001D01*
X24046446Y-41124999D01*
X24011637Y-41090190D01*
X24225000Y-41090190D01*
X24225000Y-41159810D01*
X24251643Y-41224129D01*
X24300871Y-41273357D01*
X24365190Y-41300000D01*
X24434810Y-41300000D01*
X24499129Y-41273357D01*
X24548357Y-41224129D01*
X24575000Y-41159810D01*
X24575000Y-41125000D01*
X24753553Y-41125000D01*
X25037500Y-41408946D01*
X25037501Y-41408946D01*
X25321446Y-41125001D01*
X25321446Y-41124999D01*
X25286637Y-41090190D01*
X25500000Y-41090190D01*
X25500000Y-41159810D01*
X25526643Y-41224129D01*
X25575871Y-41273357D01*
X25640190Y-41300000D01*
X25709810Y-41300000D01*
X25774129Y-41273357D01*
X25823357Y-41224129D01*
X25850000Y-41159810D01*
X25850000Y-41124999D01*
X26028553Y-41124999D01*
X26028553Y-41125001D01*
X26390845Y-41487293D01*
X26444257Y-41358347D01*
X26444258Y-41358343D01*
X26474999Y-41203797D01*
X26475000Y-41203794D01*
X26475000Y-41046206D01*
X26474999Y-41046202D01*
X26444258Y-40891656D01*
X26444257Y-40891652D01*
X26390845Y-40762706D01*
X26028553Y-41124999D01*
X25850000Y-41124999D01*
X25850000Y-41090190D01*
X25823357Y-41025871D01*
X25774129Y-40976643D01*
X25709810Y-40950000D01*
X25640190Y-40950000D01*
X25575871Y-40976643D01*
X25526643Y-41025871D01*
X25500000Y-41090190D01*
X25286637Y-41090190D01*
X25037501Y-40841053D01*
X25037500Y-40841053D01*
X24753553Y-41125000D01*
X24575000Y-41125000D01*
X24575000Y-41090190D01*
X24548357Y-41025871D01*
X24499129Y-40976643D01*
X24434810Y-40950000D01*
X24365190Y-40950000D01*
X24300871Y-40976643D01*
X24251643Y-41025871D01*
X24225000Y-41090190D01*
X24011637Y-41090190D01*
X23762501Y-40841053D01*
X23762500Y-40841053D01*
X23478553Y-41125000D01*
X23300000Y-41125000D01*
X23300000Y-41090190D01*
X23273357Y-41025871D01*
X23224129Y-40976643D01*
X23159810Y-40950000D01*
X23090190Y-40950000D01*
X23025871Y-40976643D01*
X22976643Y-41025871D01*
X22950000Y-41090190D01*
X22736637Y-41090190D01*
X22409153Y-40762705D01*
X22355743Y-40891648D01*
X22355741Y-40891656D01*
X22325000Y-41046202D01*
X20850500Y-41046202D01*
X20850500Y-40487500D01*
X22841053Y-40487500D01*
X23125000Y-40771446D01*
X23125001Y-40771446D01*
X23408946Y-40487501D01*
X23408946Y-40487500D01*
X24116053Y-40487500D01*
X24400000Y-40771446D01*
X24400001Y-40771446D01*
X24683946Y-40487501D01*
X24683946Y-40487500D01*
X25391053Y-40487500D01*
X25675000Y-40771446D01*
X25675001Y-40771446D01*
X25958946Y-40487501D01*
X25958946Y-40487499D01*
X25675001Y-40203553D01*
X25675000Y-40203553D01*
X25391053Y-40487500D01*
X24683946Y-40487500D01*
X24683946Y-40487499D01*
X24400001Y-40203553D01*
X24400000Y-40203553D01*
X24116053Y-40487500D01*
X23408946Y-40487500D01*
X23408946Y-40487499D01*
X23125001Y-40203553D01*
X23125000Y-40203553D01*
X22841053Y-40487500D01*
X20850500Y-40487500D01*
X20850500Y-39771202D01*
X22325000Y-39771202D01*
X22325000Y-39928797D01*
X22355741Y-40083343D01*
X22355743Y-40083351D01*
X22409153Y-40212293D01*
X22771446Y-39850001D01*
X22771446Y-39849999D01*
X22736637Y-39815190D01*
X22950000Y-39815190D01*
X22950000Y-39884810D01*
X22976643Y-39949129D01*
X23025871Y-39998357D01*
X23090190Y-40025000D01*
X23159810Y-40025000D01*
X23224129Y-39998357D01*
X23273357Y-39949129D01*
X23300000Y-39884810D01*
X23300000Y-39850000D01*
X23478553Y-39850000D01*
X23762500Y-40133946D01*
X23762501Y-40133946D01*
X24046446Y-39850001D01*
X24046446Y-39849999D01*
X24011637Y-39815190D01*
X24225000Y-39815190D01*
X24225000Y-39884810D01*
X24251643Y-39949129D01*
X24300871Y-39998357D01*
X24365190Y-40025000D01*
X24434810Y-40025000D01*
X24499129Y-39998357D01*
X24548357Y-39949129D01*
X24575000Y-39884810D01*
X24575000Y-39850000D01*
X24753553Y-39850000D01*
X25037500Y-40133946D01*
X25037501Y-40133946D01*
X25321446Y-39850001D01*
X25321446Y-39849999D01*
X25286637Y-39815190D01*
X25500000Y-39815190D01*
X25500000Y-39884810D01*
X25526643Y-39949129D01*
X25575871Y-39998357D01*
X25640190Y-40025000D01*
X25709810Y-40025000D01*
X25774129Y-39998357D01*
X25823357Y-39949129D01*
X25850000Y-39884810D01*
X25850000Y-39849999D01*
X26028553Y-39849999D01*
X26028553Y-39850001D01*
X26390845Y-40212293D01*
X26444257Y-40083347D01*
X26444258Y-40083343D01*
X26474999Y-39928797D01*
X26475000Y-39928794D01*
X26475000Y-39771206D01*
X26474999Y-39771202D01*
X26444258Y-39616656D01*
X26444257Y-39616652D01*
X26390845Y-39487706D01*
X26028553Y-39849999D01*
X25850000Y-39849999D01*
X25850000Y-39815190D01*
X25823357Y-39750871D01*
X25774129Y-39701643D01*
X25709810Y-39675000D01*
X25640190Y-39675000D01*
X25575871Y-39701643D01*
X25526643Y-39750871D01*
X25500000Y-39815190D01*
X25286637Y-39815190D01*
X25037501Y-39566053D01*
X25037500Y-39566053D01*
X24753553Y-39850000D01*
X24575000Y-39850000D01*
X24575000Y-39815190D01*
X24548357Y-39750871D01*
X24499129Y-39701643D01*
X24434810Y-39675000D01*
X24365190Y-39675000D01*
X24300871Y-39701643D01*
X24251643Y-39750871D01*
X24225000Y-39815190D01*
X24011637Y-39815190D01*
X23762501Y-39566053D01*
X23762500Y-39566053D01*
X23478553Y-39850000D01*
X23300000Y-39850000D01*
X23300000Y-39815190D01*
X23273357Y-39750871D01*
X23224129Y-39701643D01*
X23159810Y-39675000D01*
X23090190Y-39675000D01*
X23025871Y-39701643D01*
X22976643Y-39750871D01*
X22950000Y-39815190D01*
X22736637Y-39815190D01*
X22409153Y-39487705D01*
X22355743Y-39616648D01*
X22355741Y-39616656D01*
X22325000Y-39771202D01*
X20850500Y-39771202D01*
X20850500Y-39550097D01*
X20870185Y-39483058D01*
X20886819Y-39462416D01*
X21212416Y-39136819D01*
X21273739Y-39103334D01*
X21300097Y-39100500D01*
X22677690Y-39100500D01*
X22744729Y-39120185D01*
G37*
%TD.AperFunction*%
%TA.AperFunction,Conductor*%
G36*
X17121476Y-46801500D02*
G01*
X17121942Y-46801500D01*
X17121943Y-46801500D01*
X18470499Y-46801500D01*
X18479184Y-46804050D01*
X18488143Y-46802762D01*
X18512182Y-46813739D01*
X18537538Y-46821185D01*
X18543464Y-46828024D01*
X18551699Y-46831785D01*
X18565988Y-46854018D01*
X18583293Y-46873989D01*
X18585580Y-46884501D01*
X18589475Y-46890562D01*
X18594497Y-46925491D01*
X18594499Y-46925497D01*
X18594499Y-46956557D01*
X18594499Y-46956559D01*
X18594500Y-46966553D01*
X18594500Y-48162273D01*
X18594499Y-48162291D01*
X18594499Y-48327997D01*
X18594498Y-48327997D01*
X18602136Y-48356502D01*
X18635423Y-48480728D01*
X18646261Y-48499500D01*
X18704573Y-48600500D01*
X18714481Y-48617660D01*
X18833349Y-48736528D01*
X18833355Y-48736533D01*
X19034641Y-48937819D01*
X19068126Y-48999142D01*
X19063142Y-49068834D01*
X19021270Y-49124767D01*
X18955806Y-49149184D01*
X18946960Y-49149500D01*
X17960636Y-49149500D01*
X17843246Y-49164953D01*
X17843237Y-49164956D01*
X17697160Y-49225463D01*
X17571718Y-49321718D01*
X17475463Y-49447160D01*
X17414956Y-49593237D01*
X17414955Y-49593239D01*
X17399500Y-49710638D01*
X17399500Y-49989363D01*
X17414953Y-50106753D01*
X17414957Y-50106765D01*
X17423566Y-50127550D01*
X17431033Y-50197019D01*
X17423566Y-50222450D01*
X17414957Y-50243234D01*
X17414955Y-50243239D01*
X17399500Y-50360638D01*
X17399500Y-50639363D01*
X17414953Y-50756753D01*
X17414957Y-50756765D01*
X17423566Y-50777550D01*
X17431033Y-50847019D01*
X17423566Y-50872450D01*
X17414957Y-50893234D01*
X17414955Y-50893239D01*
X17399500Y-51010638D01*
X17399500Y-51289363D01*
X17414953Y-51406753D01*
X17414956Y-51406762D01*
X17423837Y-51428203D01*
X17431304Y-51497673D01*
X17423838Y-51523103D01*
X17415443Y-51543370D01*
X17407987Y-51600000D01*
X17450500Y-51600000D01*
X17479880Y-51608627D01*
X17509818Y-51615108D01*
X17513930Y-51618625D01*
X17517539Y-51619685D01*
X17538094Y-51636231D01*
X17543888Y-51642014D01*
X17571718Y-51678282D01*
X17608540Y-51706536D01*
X17614246Y-51712231D01*
X17627304Y-51736088D01*
X17643341Y-51758052D01*
X17643831Y-51766284D01*
X17647792Y-51773521D01*
X17645878Y-51800651D01*
X17647496Y-51827798D01*
X17643457Y-51834989D01*
X17642877Y-51843217D01*
X17626599Y-51865006D01*
X17613283Y-51888719D01*
X17602146Y-51898369D01*
X17571718Y-51921718D01*
X17571717Y-51921719D01*
X17571716Y-51921720D01*
X17548875Y-51951487D01*
X17492447Y-51992690D01*
X17450500Y-52000000D01*
X17407990Y-52000000D01*
X17407988Y-52000001D01*
X17415441Y-52056622D01*
X17415445Y-52056634D01*
X17423837Y-52076895D01*
X17431304Y-52146364D01*
X17423838Y-52171794D01*
X17414956Y-52193238D01*
X17414955Y-52193239D01*
X17399500Y-52310638D01*
X17399500Y-52589363D01*
X17414953Y-52706753D01*
X17414957Y-52706765D01*
X17423566Y-52727550D01*
X17431033Y-52797019D01*
X17423566Y-52822450D01*
X17414957Y-52843234D01*
X17414955Y-52843239D01*
X17399500Y-52960638D01*
X17399500Y-53239363D01*
X17414953Y-53356753D01*
X17414957Y-53356765D01*
X17423566Y-53377550D01*
X17431033Y-53447019D01*
X17423566Y-53472450D01*
X17414957Y-53493234D01*
X17414955Y-53493239D01*
X17399500Y-53610638D01*
X17399500Y-53889363D01*
X17414953Y-54006753D01*
X17414956Y-54006762D01*
X17459102Y-54113341D01*
X17475464Y-54152841D01*
X17571718Y-54278282D01*
X17697159Y-54374536D01*
X17843238Y-54435044D01*
X17960639Y-54450500D01*
X19314360Y-54450499D01*
X19314363Y-54450499D01*
X19431753Y-54435046D01*
X19431757Y-54435044D01*
X19431762Y-54435044D01*
X19577841Y-54374536D01*
X19703282Y-54278282D01*
X19799536Y-54152841D01*
X19860044Y-54006762D01*
X19875500Y-53889361D01*
X19875499Y-53610640D01*
X19860044Y-53493238D01*
X19860042Y-53493234D01*
X19851435Y-53472455D01*
X19843965Y-53402986D01*
X19851435Y-53377545D01*
X19860044Y-53356762D01*
X19875500Y-53239361D01*
X19875499Y-52960640D01*
X19860044Y-52843238D01*
X19860042Y-52843234D01*
X19851435Y-52822455D01*
X19843965Y-52752986D01*
X19851435Y-52727545D01*
X19860044Y-52706762D01*
X19875500Y-52589361D01*
X19875499Y-52310640D01*
X19875499Y-52310638D01*
X19875499Y-52310636D01*
X19860046Y-52193246D01*
X19860044Y-52193239D01*
X19860044Y-52193238D01*
X19851162Y-52171797D01*
X19843694Y-52102328D01*
X19851164Y-52076890D01*
X19859555Y-52056632D01*
X19859555Y-52056630D01*
X19867012Y-52000000D01*
X19824500Y-52000000D01*
X19795118Y-51991372D01*
X19765183Y-51984892D01*
X19761070Y-51981374D01*
X19757461Y-51980315D01*
X19736907Y-51963769D01*
X19731108Y-51957981D01*
X19703282Y-51921718D01*
X19666460Y-51893463D01*
X19660754Y-51887769D01*
X19647696Y-51863913D01*
X19631658Y-51841949D01*
X19631167Y-51833715D01*
X19627207Y-51826480D01*
X19629120Y-51799349D01*
X19627503Y-51772203D01*
X19631541Y-51765010D01*
X19632122Y-51756783D01*
X19648395Y-51734998D01*
X19661714Y-51711282D01*
X19672851Y-51701631D01*
X19703282Y-51678282D01*
X19715021Y-51662982D01*
X19726125Y-51648513D01*
X19782553Y-51607310D01*
X19824500Y-51600000D01*
X19867010Y-51600000D01*
X19867011Y-51599998D01*
X19859558Y-51543377D01*
X19859554Y-51543365D01*
X19851163Y-51523106D01*
X19843694Y-51453637D01*
X19851164Y-51428199D01*
X19860044Y-51406762D01*
X19875500Y-51289361D01*
X19875499Y-51010640D01*
X19860044Y-50893238D01*
X19860042Y-50893234D01*
X19851435Y-50872455D01*
X19843965Y-50802986D01*
X19851435Y-50777545D01*
X19860044Y-50756762D01*
X19875500Y-50639361D01*
X19875499Y-50360640D01*
X19860044Y-50243238D01*
X19860042Y-50243234D01*
X19851435Y-50222455D01*
X19843965Y-50152986D01*
X19845070Y-50147555D01*
X19847401Y-50137283D01*
X19860044Y-50106762D01*
X19867939Y-50046791D01*
X19869203Y-50041223D01*
X19883543Y-50015512D01*
X19895454Y-49988587D01*
X19900370Y-49985343D01*
X19903238Y-49980203D01*
X19929196Y-49966329D01*
X19953778Y-49950115D01*
X19959666Y-49950044D01*
X19964859Y-49947270D01*
X19994201Y-49949633D01*
X20023643Y-49949283D01*
X20029036Y-49952439D01*
X20034503Y-49952880D01*
X20050058Y-49964744D01*
X20077809Y-49980987D01*
X20543181Y-50446359D01*
X20576666Y-50507682D01*
X20579500Y-50534040D01*
X20579500Y-51533330D01*
X20579499Y-51533348D01*
X20579499Y-51699054D01*
X20579498Y-51699054D01*
X20619971Y-51850097D01*
X20620423Y-51851785D01*
X20627425Y-51863913D01*
X20630640Y-51869481D01*
X20699477Y-51988712D01*
X20699481Y-51988717D01*
X20818349Y-52107585D01*
X20818355Y-52107590D01*
X21525139Y-52814374D01*
X21525149Y-52814385D01*
X21529479Y-52818715D01*
X21529480Y-52818716D01*
X21641284Y-52930520D01*
X21703978Y-52966716D01*
X21778215Y-53009577D01*
X21930942Y-53050500D01*
X21930943Y-53050500D01*
X23000501Y-53050500D01*
X23067540Y-53070185D01*
X23113295Y-53122989D01*
X23124501Y-53174500D01*
X23124501Y-53239363D01*
X23139953Y-53356753D01*
X23139957Y-53356765D01*
X23148566Y-53377550D01*
X23156033Y-53447019D01*
X23148566Y-53472450D01*
X23139957Y-53493234D01*
X23139955Y-53493239D01*
X23124500Y-53610638D01*
X23124500Y-53889363D01*
X23139953Y-54006753D01*
X23139956Y-54006762D01*
X23184102Y-54113341D01*
X23200464Y-54152841D01*
X23296718Y-54278282D01*
X23422159Y-54374536D01*
X23568238Y-54435044D01*
X23685639Y-54450500D01*
X25039360Y-54450499D01*
X25039363Y-54450499D01*
X25156753Y-54435046D01*
X25156757Y-54435044D01*
X25156762Y-54435044D01*
X25302841Y-54374536D01*
X25428282Y-54278282D01*
X25428284Y-54278279D01*
X25434729Y-54273334D01*
X25435575Y-54274436D01*
X25489295Y-54245097D01*
X25558987Y-54250075D01*
X25603345Y-54278580D01*
X25987181Y-54662416D01*
X26020666Y-54723739D01*
X26023500Y-54750097D01*
X26023500Y-57187330D01*
X26023499Y-57187348D01*
X26023499Y-57353054D01*
X26023498Y-57353054D01*
X26064423Y-57505785D01*
X26093358Y-57555900D01*
X26093359Y-57555904D01*
X26093360Y-57555904D01*
X26143479Y-57642714D01*
X26143481Y-57642717D01*
X26262349Y-57761585D01*
X26262355Y-57761590D01*
X26965139Y-58464374D01*
X26965149Y-58464385D01*
X26969479Y-58468715D01*
X26969480Y-58468716D01*
X27081284Y-58580520D01*
X27081286Y-58580521D01*
X27081290Y-58580524D01*
X27192027Y-58644457D01*
X27218216Y-58659577D01*
X27330019Y-58689534D01*
X27370942Y-58700500D01*
X27370943Y-58700500D01*
X30063331Y-58700500D01*
X30063347Y-58700501D01*
X30070943Y-58700501D01*
X30229054Y-58700501D01*
X30229057Y-58700501D01*
X30381785Y-58659577D01*
X30431904Y-58630639D01*
X30518716Y-58580520D01*
X30630520Y-58468716D01*
X30630520Y-58468714D01*
X30640728Y-58458507D01*
X30640730Y-58458504D01*
X31468713Y-57630521D01*
X31468716Y-57630520D01*
X31580520Y-57518716D01*
X31630639Y-57431904D01*
X31659577Y-57381785D01*
X31700501Y-57229057D01*
X31700501Y-57070943D01*
X31700501Y-57063348D01*
X31700500Y-57063330D01*
X31700500Y-54800097D01*
X31709143Y-54770662D01*
X31715666Y-54740673D01*
X31719422Y-54735654D01*
X31720185Y-54733058D01*
X31736817Y-54712418D01*
X31758502Y-54690732D01*
X31758507Y-54690729D01*
X31758507Y-54690728D01*
X31768714Y-54680520D01*
X31768716Y-54680520D01*
X31880520Y-54568716D01*
X31934519Y-54475186D01*
X31959577Y-54431785D01*
X32000500Y-54279057D01*
X32000500Y-54120943D01*
X32000500Y-53422837D01*
X32020185Y-53355798D01*
X32072989Y-53310043D01*
X32076986Y-53308302D01*
X32079179Y-53307394D01*
X32210289Y-53219789D01*
X32321789Y-53108289D01*
X32409394Y-52977179D01*
X32416246Y-52960638D01*
X32449984Y-52879185D01*
X32469737Y-52831497D01*
X32500500Y-52676842D01*
X32500500Y-52519158D01*
X32500500Y-52519155D01*
X32500499Y-52519153D01*
X32489630Y-52464511D01*
X32469737Y-52364503D01*
X32469735Y-52364498D01*
X32409397Y-52218827D01*
X32409390Y-52218814D01*
X32321789Y-52087711D01*
X32321786Y-52087707D01*
X32210292Y-51976213D01*
X32210288Y-51976210D01*
X32079185Y-51888609D01*
X32079172Y-51888602D01*
X31933501Y-51828264D01*
X31933489Y-51828261D01*
X31778845Y-51797500D01*
X31778842Y-51797500D01*
X31621158Y-51797500D01*
X31621155Y-51797500D01*
X31466510Y-51828261D01*
X31466498Y-51828264D01*
X31320827Y-51888602D01*
X31320814Y-51888609D01*
X31189711Y-51976210D01*
X31189707Y-51976213D01*
X31078213Y-52087707D01*
X31078210Y-52087711D01*
X30990609Y-52218814D01*
X30990602Y-52218827D01*
X30937519Y-52346984D01*
X30893678Y-52401388D01*
X30827384Y-52423453D01*
X30759685Y-52406174D01*
X30717419Y-52364629D01*
X30632315Y-52226654D01*
X30508345Y-52102684D01*
X30359124Y-52010643D01*
X30359121Y-52010642D01*
X30277448Y-51983578D01*
X30220004Y-51943805D01*
X30193181Y-51879289D01*
X30205496Y-51810513D01*
X30253040Y-51759313D01*
X30277450Y-51748166D01*
X30319117Y-51734359D01*
X30319124Y-51734356D01*
X30468345Y-51642315D01*
X30592315Y-51518345D01*
X30684356Y-51369124D01*
X30684358Y-51369119D01*
X30739505Y-51202697D01*
X30739506Y-51202690D01*
X30749999Y-51099986D01*
X30750000Y-51099973D01*
X30750000Y-50850000D01*
X29987500Y-50850000D01*
X29987500Y-51799999D01*
X30003681Y-51816180D01*
X30037166Y-51877503D01*
X30040000Y-51903861D01*
X30040000Y-54426138D01*
X30020315Y-54493177D01*
X30003681Y-54513819D01*
X29992500Y-54525000D01*
X29992500Y-56809999D01*
X30054972Y-56809999D01*
X30054986Y-56809998D01*
X30157695Y-56799506D01*
X30324440Y-56744251D01*
X30394269Y-56741849D01*
X30454311Y-56777580D01*
X30485504Y-56840100D01*
X30477944Y-56909560D01*
X30451126Y-56949638D01*
X29937584Y-57463181D01*
X29876261Y-57496666D01*
X29849903Y-57499500D01*
X27750097Y-57499500D01*
X27683058Y-57479815D01*
X27662416Y-57463181D01*
X27260819Y-57061584D01*
X27246115Y-57034656D01*
X27229523Y-57008838D01*
X27228631Y-57002637D01*
X27227334Y-57000261D01*
X27224500Y-56973903D01*
X27224500Y-56879697D01*
X27244185Y-56812658D01*
X27296989Y-56766903D01*
X27366147Y-56756959D01*
X27387499Y-56761989D01*
X27502203Y-56799999D01*
X27604991Y-56810500D01*
X28230008Y-56810499D01*
X28230016Y-56810498D01*
X28230019Y-56810498D01*
X28286302Y-56804748D01*
X28332797Y-56799999D01*
X28499334Y-56744814D01*
X28648656Y-56652712D01*
X28742675Y-56558692D01*
X28803994Y-56525210D01*
X28873686Y-56530194D01*
X28918034Y-56558695D01*
X29011654Y-56652315D01*
X29160875Y-56744356D01*
X29160880Y-56744358D01*
X29327302Y-56799505D01*
X29327309Y-56799506D01*
X29430019Y-56809999D01*
X29492499Y-56809998D01*
X29492500Y-56809998D01*
X29492500Y-54378862D01*
X29512185Y-54311823D01*
X29528819Y-54291181D01*
X29540000Y-54280000D01*
X29540000Y-51944999D01*
X29523819Y-51928818D01*
X29490334Y-51867495D01*
X29487500Y-51841137D01*
X29487500Y-50724000D01*
X29507185Y-50656961D01*
X29559989Y-50611206D01*
X29611500Y-50600000D01*
X29737500Y-50600000D01*
X29737500Y-50474000D01*
X29757185Y-50406961D01*
X29809989Y-50361206D01*
X29861500Y-50350000D01*
X30749999Y-50350000D01*
X30749999Y-50324500D01*
X30769684Y-50257461D01*
X30822488Y-50211706D01*
X30873999Y-50200500D01*
X31413389Y-50200500D01*
X31420996Y-50200500D01*
X31421000Y-50200501D01*
X31524905Y-50200501D01*
X31591944Y-50220186D01*
X31591946Y-50220188D01*
X31612585Y-50236820D01*
X33138181Y-51762416D01*
X33171666Y-51823739D01*
X33174500Y-51850097D01*
X33174500Y-72974902D01*
X33154815Y-73041941D01*
X33138185Y-73062578D01*
X33040082Y-73160682D01*
X32978762Y-73194166D01*
X32952403Y-73197000D01*
X29392508Y-73197000D01*
X29325469Y-73177315D01*
X29286969Y-73138097D01*
X29242712Y-73066344D01*
X29118656Y-72942288D01*
X28995417Y-72866274D01*
X28969336Y-72850187D01*
X28969331Y-72850185D01*
X28967862Y-72849698D01*
X28802797Y-72795001D01*
X28802795Y-72795000D01*
X28700010Y-72784500D01*
X27699998Y-72784500D01*
X27699980Y-72784501D01*
X27597203Y-72795000D01*
X27597200Y-72795001D01*
X27430668Y-72850185D01*
X27430663Y-72850187D01*
X27281342Y-72942289D01*
X27213181Y-73010451D01*
X27151858Y-73043936D01*
X27082166Y-73038952D01*
X27026233Y-72997080D01*
X27001816Y-72931616D01*
X27001500Y-72922770D01*
X27001500Y-69740060D01*
X27001501Y-69740047D01*
X27001501Y-69571944D01*
X27001501Y-69571943D01*
X26960577Y-69419216D01*
X26923434Y-69354882D01*
X26881524Y-69282290D01*
X26881518Y-69282282D01*
X18236819Y-60637583D01*
X18203334Y-60576260D01*
X18200500Y-60549902D01*
X18200500Y-58289059D01*
X18200501Y-58289046D01*
X18200501Y-58120945D01*
X18200501Y-58120943D01*
X18159577Y-57968215D01*
X18130639Y-57918095D01*
X18080520Y-57831284D01*
X17968716Y-57719480D01*
X17968715Y-57719479D01*
X17964385Y-57715149D01*
X17964374Y-57715139D01*
X15436819Y-55187584D01*
X15403334Y-55126261D01*
X15400500Y-55099903D01*
X15400500Y-50589059D01*
X15400501Y-50589046D01*
X15400501Y-50420945D01*
X15400501Y-50420943D01*
X15359577Y-50268215D01*
X15320482Y-50200501D01*
X15280520Y-50131284D01*
X15168716Y-50019480D01*
X15168715Y-50019479D01*
X15164385Y-50015149D01*
X15164374Y-50015139D01*
X14786819Y-49637584D01*
X14753334Y-49576261D01*
X14750500Y-49549903D01*
X14750500Y-47050097D01*
X14759144Y-47020656D01*
X14765668Y-46990670D01*
X14769422Y-46985654D01*
X14770185Y-46983058D01*
X14786819Y-46962416D01*
X14912416Y-46836819D01*
X14973739Y-46803334D01*
X15000097Y-46800500D01*
X17106220Y-46800500D01*
X17121476Y-46801500D01*
G37*
%TD.AperFunction*%
%TA.AperFunction,Conductor*%
G36*
X58683361Y-45731058D02*
G01*
X58684140Y-45731222D01*
X58733900Y-45780269D01*
X58749500Y-45840480D01*
X58749500Y-68833651D01*
X58729815Y-68900690D01*
X58713181Y-68921332D01*
X57736079Y-69898433D01*
X57674756Y-69931918D01*
X57605064Y-69926934D01*
X57549131Y-69885062D01*
X57525925Y-69830150D01*
X57525500Y-69827466D01*
X57525500Y-69827463D01*
X57492246Y-69617507D01*
X57426557Y-69415338D01*
X57330051Y-69225934D01*
X57330049Y-69225931D01*
X57330048Y-69225929D01*
X57205109Y-69053963D01*
X57054792Y-68903646D01*
X56958451Y-68833651D01*
X56890204Y-68784066D01*
X56847540Y-68728739D01*
X56841561Y-68659126D01*
X56874166Y-68597330D01*
X56890199Y-68583436D01*
X57054792Y-68463854D01*
X57205104Y-68313542D01*
X57205106Y-68313538D01*
X57205109Y-68313536D01*
X57330048Y-68141570D01*
X57330047Y-68141570D01*
X57330051Y-68141566D01*
X57426557Y-67952162D01*
X57492246Y-67749993D01*
X57525500Y-67540037D01*
X57525500Y-67327463D01*
X57492246Y-67117507D01*
X57426557Y-66915338D01*
X57330051Y-66725934D01*
X57330049Y-66725931D01*
X57330048Y-66725929D01*
X57205109Y-66553963D01*
X57054792Y-66403646D01*
X56890204Y-66284066D01*
X56847540Y-66228739D01*
X56841561Y-66159126D01*
X56874166Y-66097330D01*
X56890199Y-66083436D01*
X57054792Y-65963854D01*
X57205104Y-65813542D01*
X57205106Y-65813538D01*
X57205109Y-65813536D01*
X57330048Y-65641570D01*
X57330047Y-65641570D01*
X57330051Y-65641566D01*
X57426557Y-65452162D01*
X57492246Y-65249993D01*
X57525500Y-65040037D01*
X57525500Y-64827463D01*
X57492246Y-64617507D01*
X57426557Y-64415338D01*
X57330051Y-64225934D01*
X57330049Y-64225931D01*
X57330048Y-64225929D01*
X57205109Y-64053963D01*
X57054790Y-63903644D01*
X57054785Y-63903640D01*
X56889781Y-63783758D01*
X56847115Y-63728428D01*
X56841136Y-63658815D01*
X56873741Y-63597020D01*
X56889781Y-63583121D01*
X57054466Y-63463471D01*
X57204723Y-63313214D01*
X57204727Y-63313209D01*
X57329620Y-63141307D01*
X57426095Y-62951967D01*
X57491757Y-62749879D01*
X57491757Y-62749876D01*
X57502231Y-62683750D01*
X56454146Y-62683750D01*
X56492630Y-62617093D01*
X56525000Y-62496285D01*
X56525000Y-62371215D01*
X56492630Y-62250407D01*
X56454146Y-62183750D01*
X57502231Y-62183750D01*
X57491757Y-62117623D01*
X57491757Y-62117620D01*
X57426095Y-61915532D01*
X57329620Y-61726192D01*
X57204727Y-61554290D01*
X57204723Y-61554285D01*
X57054464Y-61404026D01*
X57054459Y-61404022D01*
X56882557Y-61279129D01*
X56693217Y-61182654D01*
X56491128Y-61116992D01*
X56300000Y-61086719D01*
X56300000Y-62029604D01*
X56233343Y-61991120D01*
X56112535Y-61958750D01*
X55987465Y-61958750D01*
X55866657Y-61991120D01*
X55800000Y-62029604D01*
X55800000Y-61086719D01*
X55608872Y-61116992D01*
X55608865Y-61116993D01*
X55512817Y-61148201D01*
X55442976Y-61150196D01*
X55383143Y-61114115D01*
X55352316Y-61051414D01*
X55350500Y-61030270D01*
X55350500Y-48589060D01*
X55350501Y-48589047D01*
X55350501Y-48420944D01*
X55350501Y-48420943D01*
X55309577Y-48268216D01*
X55281407Y-48219423D01*
X55230524Y-48131290D01*
X55230518Y-48131282D01*
X54387055Y-47287819D01*
X53538420Y-46439185D01*
X53504936Y-46377863D01*
X53509920Y-46308171D01*
X53551792Y-46252238D01*
X53558373Y-46248009D01*
X53618755Y-46202807D01*
X53677546Y-46158796D01*
X53763796Y-46043581D01*
X53812810Y-45912166D01*
X53854681Y-45856234D01*
X53920145Y-45831816D01*
X53988418Y-45846667D01*
X54016673Y-45867819D01*
X54130213Y-45981359D01*
X54302179Y-46106298D01*
X54302181Y-46106299D01*
X54302184Y-46106301D01*
X54491588Y-46202807D01*
X54693757Y-46268496D01*
X54903713Y-46301750D01*
X54903714Y-46301750D01*
X55116286Y-46301750D01*
X55116287Y-46301750D01*
X55326243Y-46268496D01*
X55528412Y-46202807D01*
X55717816Y-46106301D01*
X55772572Y-46066519D01*
X55889786Y-45981359D01*
X55889788Y-45981356D01*
X55889792Y-45981354D01*
X56040104Y-45831042D01*
X56040106Y-45831038D01*
X56040109Y-45831036D01*
X56121158Y-45719480D01*
X56165051Y-45659066D01*
X56169793Y-45649758D01*
X56217763Y-45598961D01*
X56285583Y-45582161D01*
X56351719Y-45604695D01*
X56390763Y-45649750D01*
X56395373Y-45658797D01*
X56434728Y-45712966D01*
X57067037Y-45080658D01*
X57084075Y-45144243D01*
X57149901Y-45258257D01*
X57242993Y-45351349D01*
X57357007Y-45417175D01*
X57420590Y-45434212D01*
X56788282Y-46066519D01*
X56788282Y-46066520D01*
X56842449Y-46105874D01*
X57031782Y-46202345D01*
X57233870Y-46268007D01*
X57443754Y-46301250D01*
X57656246Y-46301250D01*
X57866127Y-46268007D01*
X57866130Y-46268007D01*
X58068217Y-46202345D01*
X58257554Y-46105872D01*
X58311716Y-46066520D01*
X58311717Y-46066520D01*
X57679408Y-45434212D01*
X57742993Y-45417175D01*
X57857007Y-45351349D01*
X57950099Y-45258257D01*
X58015925Y-45144243D01*
X58032962Y-45080658D01*
X58683361Y-45731058D01*
G37*
%TD.AperFunction*%
%TA.AperFunction,Conductor*%
G36*
X16565956Y-59392404D02*
G01*
X16565957Y-59392403D01*
X16616530Y-59326498D01*
X16727949Y-59133514D01*
X16727954Y-59133502D01*
X16760939Y-59053873D01*
X16804780Y-58999469D01*
X16871075Y-58977405D01*
X16938774Y-58994685D01*
X16986384Y-59045822D01*
X16999500Y-59101326D01*
X16999500Y-59796626D01*
X16979815Y-59863665D01*
X16927011Y-59909420D01*
X16857853Y-59919364D01*
X16828047Y-59911187D01*
X16762666Y-59884105D01*
X16762658Y-59884103D01*
X16588696Y-59849500D01*
X16588692Y-59849500D01*
X16588691Y-59849500D01*
X16338011Y-59849500D01*
X16270972Y-59829815D01*
X16225217Y-59777011D01*
X16221116Y-59754668D01*
X15411059Y-58944612D01*
X15431591Y-58939111D01*
X15568408Y-58860119D01*
X15680119Y-58748408D01*
X15759111Y-58611591D01*
X15764612Y-58591059D01*
X16565956Y-59392404D01*
G37*
%TD.AperFunction*%
%TA.AperFunction,Conductor*%
G36*
X21732596Y-44370185D02*
G01*
X21778351Y-44422989D01*
X21788295Y-44492147D01*
X21783263Y-44513504D01*
X21755494Y-44597302D01*
X21755493Y-44597309D01*
X21745000Y-44700013D01*
X21745000Y-44950000D01*
X22633500Y-44950000D01*
X22700539Y-44969685D01*
X22746294Y-45022489D01*
X22757500Y-45074000D01*
X22757500Y-45200000D01*
X22883500Y-45200000D01*
X22950539Y-45219685D01*
X22996294Y-45272489D01*
X23007500Y-45324000D01*
X23007500Y-46399999D01*
X23069972Y-46399999D01*
X23069986Y-46399998D01*
X23172697Y-46389505D01*
X23339119Y-46334358D01*
X23339124Y-46334356D01*
X23488342Y-46242317D01*
X23581964Y-46148695D01*
X23643287Y-46115210D01*
X23712979Y-46120194D01*
X23757327Y-46148695D01*
X23851344Y-46242712D01*
X24000666Y-46334814D01*
X24167203Y-46389999D01*
X24269991Y-46400500D01*
X24895008Y-46400499D01*
X24895016Y-46400498D01*
X24895019Y-46400498D01*
X24951302Y-46394748D01*
X24997797Y-46389999D01*
X25164334Y-46334814D01*
X25313656Y-46242712D01*
X25437712Y-46118656D01*
X25529814Y-45969334D01*
X25584999Y-45802797D01*
X25595500Y-45700009D01*
X25595500Y-45324500D01*
X25615185Y-45257461D01*
X25667989Y-45211706D01*
X25719500Y-45200500D01*
X28563331Y-45200500D01*
X28563347Y-45200501D01*
X28570943Y-45200501D01*
X28729054Y-45200501D01*
X28729057Y-45200501D01*
X28881785Y-45159577D01*
X28931904Y-45130639D01*
X29018716Y-45080520D01*
X29130520Y-44968716D01*
X29130520Y-44968714D01*
X29140728Y-44958507D01*
X29140730Y-44958504D01*
X29377058Y-44722175D01*
X29438379Y-44688692D01*
X29490700Y-44688606D01*
X29497193Y-44689995D01*
X29497203Y-44689999D01*
X29599991Y-44700500D01*
X30225008Y-44700499D01*
X30225016Y-44700498D01*
X30225019Y-44700498D01*
X30281302Y-44694748D01*
X30327797Y-44689999D01*
X30494334Y-44634814D01*
X30643656Y-44542712D01*
X30762319Y-44424049D01*
X30764601Y-44422802D01*
X30765938Y-44420574D01*
X30795089Y-44406154D01*
X30823642Y-44390564D01*
X30826235Y-44390749D01*
X30828565Y-44389597D01*
X30860887Y-44393227D01*
X30893334Y-44395548D01*
X30896210Y-44397195D01*
X30897998Y-44397396D01*
X30906305Y-44402975D01*
X30928265Y-44415550D01*
X30933188Y-44419556D01*
X31016344Y-44502712D01*
X31094988Y-44551219D01*
X31101265Y-44556327D01*
X31116652Y-44578716D01*
X31134821Y-44598915D01*
X31136938Y-44608232D01*
X31140840Y-44613909D01*
X31141251Y-44627212D01*
X31147000Y-44652507D01*
X31147000Y-47682403D01*
X31127315Y-47749442D01*
X31110685Y-47770079D01*
X31030501Y-47850264D01*
X30953134Y-47927631D01*
X30891811Y-47961115D01*
X30822119Y-47956131D01*
X30766186Y-47914259D01*
X30741769Y-47848795D01*
X30742095Y-47827345D01*
X30749999Y-47749983D01*
X30750000Y-47749973D01*
X30750000Y-47475000D01*
X29874000Y-47475000D01*
X29806961Y-47455315D01*
X29761206Y-47402511D01*
X29750000Y-47351000D01*
X29750000Y-47225000D01*
X29624000Y-47225000D01*
X29556961Y-47205315D01*
X29511206Y-47152511D01*
X29500000Y-47101000D01*
X29500000Y-46975000D01*
X30000000Y-46975000D01*
X30749999Y-46975000D01*
X30749999Y-46700028D01*
X30749998Y-46700013D01*
X30739505Y-46597302D01*
X30684358Y-46430880D01*
X30684356Y-46430875D01*
X30592315Y-46281654D01*
X30468345Y-46157684D01*
X30319124Y-46065643D01*
X30319119Y-46065641D01*
X30152697Y-46010494D01*
X30152690Y-46010493D01*
X30049986Y-46000000D01*
X30000000Y-46000000D01*
X30000000Y-46975000D01*
X29500000Y-46975000D01*
X29500000Y-46000000D01*
X29499999Y-45999999D01*
X29450029Y-46000000D01*
X29450011Y-46000001D01*
X29347302Y-46010494D01*
X29180880Y-46065641D01*
X29180875Y-46065643D01*
X29031654Y-46157684D01*
X28907683Y-46281655D01*
X28907679Y-46281660D01*
X28905826Y-46284665D01*
X28904018Y-46286290D01*
X28903202Y-46287323D01*
X28903025Y-46287183D01*
X28853874Y-46331385D01*
X28784911Y-46342601D01*
X28720831Y-46314752D01*
X28694753Y-46284653D01*
X28694737Y-46284628D01*
X28692712Y-46281344D01*
X28568656Y-46157288D01*
X28421497Y-46066520D01*
X28419336Y-46065187D01*
X28419331Y-46065185D01*
X28417862Y-46064698D01*
X28252797Y-46010001D01*
X28252795Y-46010000D01*
X28150010Y-45999500D01*
X27549998Y-45999500D01*
X27549980Y-45999501D01*
X27447203Y-46010000D01*
X27447200Y-46010001D01*
X27280668Y-46065185D01*
X27280663Y-46065187D01*
X27131342Y-46157289D01*
X27007289Y-46281342D01*
X26915187Y-46430663D01*
X26915185Y-46430668D01*
X26898363Y-46481434D01*
X26860001Y-46597203D01*
X26860001Y-46597204D01*
X26860000Y-46597204D01*
X26849500Y-46699983D01*
X26849500Y-46850500D01*
X26829815Y-46917539D01*
X26777011Y-46963294D01*
X26725500Y-46974500D01*
X23829061Y-46974500D01*
X23829057Y-46974499D01*
X23670943Y-46974499D01*
X23670939Y-46974500D01*
X22441670Y-46974500D01*
X22441654Y-46974499D01*
X22434058Y-46974499D01*
X22275943Y-46974499D01*
X22199579Y-46994961D01*
X22123214Y-47015423D01*
X22123209Y-47015426D01*
X21986290Y-47094475D01*
X21986282Y-47094481D01*
X21717584Y-47363181D01*
X21656261Y-47396666D01*
X21629903Y-47399500D01*
X20375766Y-47399500D01*
X20308727Y-47379815D01*
X20306875Y-47378602D01*
X20175185Y-47290609D01*
X20175172Y-47290602D01*
X20029501Y-47230264D01*
X20029492Y-47230261D01*
X19975082Y-47219438D01*
X19913171Y-47187052D01*
X19878598Y-47126336D01*
X19882339Y-47056566D01*
X19911592Y-47010142D01*
X20494165Y-46427569D01*
X20555486Y-46394086D01*
X20569241Y-46391894D01*
X20587797Y-46389999D01*
X20754334Y-46334814D01*
X20903656Y-46242712D01*
X21027712Y-46118656D01*
X21119814Y-45969334D01*
X21174999Y-45802797D01*
X21185500Y-45700009D01*
X21185500Y-45699986D01*
X21745001Y-45699986D01*
X21755494Y-45802697D01*
X21810641Y-45969119D01*
X21810643Y-45969124D01*
X21902684Y-46118345D01*
X22026654Y-46242315D01*
X22175875Y-46334356D01*
X22175880Y-46334358D01*
X22342302Y-46389505D01*
X22342309Y-46389506D01*
X22445019Y-46399999D01*
X22507499Y-46399998D01*
X22507500Y-46399998D01*
X22507500Y-45450000D01*
X21745001Y-45450000D01*
X21745001Y-45699986D01*
X21185500Y-45699986D01*
X21185499Y-45200000D01*
X21185499Y-44699998D01*
X21185498Y-44699980D01*
X21174999Y-44597202D01*
X21174998Y-44597200D01*
X21147264Y-44513504D01*
X21144862Y-44443676D01*
X21180594Y-44383634D01*
X21243114Y-44352441D01*
X21264970Y-44350500D01*
X21665557Y-44350500D01*
X21732596Y-44370185D01*
G37*
%TD.AperFunction*%
%TA.AperFunction,Conductor*%
G36*
X56818481Y-43870185D02*
G01*
X56839123Y-43886819D01*
X57420591Y-44468287D01*
X57357007Y-44485325D01*
X57242993Y-44551151D01*
X57149901Y-44644243D01*
X57084075Y-44758257D01*
X57067037Y-44821841D01*
X56434728Y-44189532D01*
X56434727Y-44189532D01*
X56395380Y-44243690D01*
X56395376Y-44243696D01*
X56390760Y-44252755D01*
X56342781Y-44303547D01*
X56274959Y-44320337D01*
X56208826Y-44297793D01*
X56169794Y-44252743D01*
X56165051Y-44243434D01*
X56165049Y-44243431D01*
X56165048Y-44243429D01*
X56040109Y-44071463D01*
X56030827Y-44062181D01*
X55997342Y-44000858D01*
X56002326Y-43931166D01*
X56044198Y-43875233D01*
X56109662Y-43850816D01*
X56118508Y-43850500D01*
X56751442Y-43850500D01*
X56818481Y-43870185D01*
G37*
%TD.AperFunction*%
%TA.AperFunction,Conductor*%
G36*
X60192020Y-14019998D02*
G01*
X60238059Y-14072554D01*
X60249544Y-14125125D01*
X60143053Y-43410285D01*
X60123125Y-43477252D01*
X60070155Y-43522815D01*
X60000961Y-43532507D01*
X59937511Y-43503251D01*
X59911667Y-43471835D01*
X59909577Y-43468215D01*
X59859190Y-43380943D01*
X59830520Y-43331284D01*
X59718716Y-43219480D01*
X59718715Y-43219479D01*
X59714385Y-43215149D01*
X59714374Y-43215139D01*
X59387590Y-42888355D01*
X59387588Y-42888352D01*
X59268717Y-42769481D01*
X59268716Y-42769480D01*
X59163817Y-42708917D01*
X59163816Y-42708916D01*
X59131783Y-42690422D01*
X59075881Y-42675443D01*
X58979057Y-42649499D01*
X58820943Y-42649499D01*
X58813347Y-42649499D01*
X58813331Y-42649500D01*
X47300097Y-42649500D01*
X47233058Y-42629815D01*
X47212416Y-42613181D01*
X46819500Y-42220265D01*
X46819498Y-42220262D01*
X46700627Y-42101391D01*
X46700626Y-42101390D01*
X46610747Y-42049499D01*
X46563695Y-42022333D01*
X46448628Y-41991500D01*
X46443258Y-41989516D01*
X46426299Y-41976902D01*
X46402958Y-41963426D01*
X46402499Y-41963986D01*
X46399109Y-41961204D01*
X46398551Y-41960882D01*
X46397792Y-41960123D01*
X46397788Y-41960120D01*
X46266685Y-41872519D01*
X46266672Y-41872512D01*
X46121001Y-41812174D01*
X46120989Y-41812171D01*
X45966345Y-41781410D01*
X45966342Y-41781410D01*
X45808658Y-41781410D01*
X45808655Y-41781410D01*
X45654010Y-41812171D01*
X45653998Y-41812174D01*
X45508327Y-41872512D01*
X45508314Y-41872519D01*
X45377211Y-41960120D01*
X45377207Y-41960123D01*
X45265713Y-42071617D01*
X45265710Y-42071621D01*
X45178109Y-42202724D01*
X45178102Y-42202737D01*
X45117764Y-42348408D01*
X45117761Y-42348420D01*
X45087000Y-42503063D01*
X45087000Y-42660753D01*
X45117761Y-42815399D01*
X45117764Y-42815411D01*
X45178102Y-42961082D01*
X45178109Y-42961095D01*
X45208688Y-43006859D01*
X45229566Y-43073536D01*
X45211082Y-43140917D01*
X45159103Y-43187607D01*
X45105586Y-43199750D01*
X41600347Y-43199750D01*
X41533308Y-43180065D01*
X41512666Y-43163431D01*
X40636819Y-42287584D01*
X40603334Y-42226261D01*
X40600500Y-42199903D01*
X40600500Y-41079765D01*
X40620185Y-41012726D01*
X40621398Y-41010874D01*
X40644271Y-40976643D01*
X40709394Y-40879179D01*
X40769737Y-40733497D01*
X40800500Y-40578842D01*
X40800500Y-40421158D01*
X40800500Y-40421155D01*
X40800499Y-40421153D01*
X40794999Y-40393503D01*
X40769737Y-40266503D01*
X40746080Y-40209390D01*
X40709397Y-40120827D01*
X40709390Y-40120814D01*
X40621789Y-39989711D01*
X40621786Y-39989707D01*
X40510292Y-39878213D01*
X40510288Y-39878210D01*
X40379185Y-39790609D01*
X40379172Y-39790602D01*
X40233501Y-39730264D01*
X40233491Y-39730261D01*
X40113651Y-39706423D01*
X40051740Y-39674038D01*
X40017166Y-39613322D01*
X40013843Y-39584806D01*
X40013843Y-39571155D01*
X40013842Y-39571153D01*
X39997243Y-39487705D01*
X39983080Y-39416503D01*
X39972356Y-39390612D01*
X39922740Y-39270827D01*
X39922733Y-39270814D01*
X39835132Y-39139711D01*
X39835129Y-39139707D01*
X39723635Y-39028213D01*
X39723631Y-39028210D01*
X39592528Y-38940609D01*
X39592515Y-38940602D01*
X39446844Y-38880264D01*
X39446832Y-38880261D01*
X39292188Y-38849500D01*
X39292185Y-38849500D01*
X39274500Y-38849500D01*
X39207461Y-38829815D01*
X39161706Y-38777011D01*
X39150500Y-38725500D01*
X39150500Y-36570943D01*
X39147454Y-36559577D01*
X39147453Y-36559572D01*
X39118920Y-36453086D01*
X39109576Y-36418214D01*
X39109573Y-36418209D01*
X39030524Y-36281290D01*
X39030521Y-36281286D01*
X39030520Y-36281284D01*
X38918716Y-36169480D01*
X38918715Y-36169479D01*
X38914385Y-36165149D01*
X38914374Y-36165139D01*
X38337590Y-35588355D01*
X38337588Y-35588352D01*
X38218717Y-35469481D01*
X38218709Y-35469475D01*
X38106708Y-35404812D01*
X38106707Y-35404811D01*
X38089189Y-35394698D01*
X38081785Y-35390423D01*
X37929057Y-35349499D01*
X37770943Y-35349499D01*
X37763447Y-35349499D01*
X37763331Y-35349500D01*
X35400143Y-35349500D01*
X35333104Y-35329815D01*
X35287349Y-35277011D01*
X35277405Y-35207853D01*
X35285582Y-35178047D01*
X35293973Y-35157790D01*
X35300837Y-35123280D01*
X35333220Y-35061371D01*
X35393935Y-35026796D01*
X35463667Y-35030521D01*
X35474503Y-35034339D01*
X35518216Y-35059577D01*
X35630019Y-35089534D01*
X35670942Y-35100500D01*
X35670943Y-35100500D01*
X37822491Y-35100500D01*
X37822507Y-35100501D01*
X37830103Y-35100501D01*
X37988214Y-35100501D01*
X37988217Y-35100501D01*
X38140945Y-35059577D01*
X38191064Y-35030639D01*
X38277876Y-34980520D01*
X38389680Y-34868716D01*
X38389680Y-34868714D01*
X38399888Y-34858507D01*
X38399890Y-34858504D01*
X38981718Y-34276675D01*
X39043039Y-34243192D01*
X39081999Y-34241000D01*
X39103457Y-34243192D01*
X39174991Y-34250500D01*
X39800008Y-34250499D01*
X39800016Y-34250498D01*
X39800019Y-34250498D01*
X39871539Y-34243192D01*
X39902797Y-34239999D01*
X40069334Y-34184814D01*
X40218656Y-34092712D01*
X40342712Y-33968656D01*
X40342715Y-33968650D01*
X40343384Y-33967982D01*
X40404707Y-33934497D01*
X40474399Y-33939481D01*
X40518747Y-33967982D01*
X41562181Y-35011416D01*
X41595666Y-35072739D01*
X41598500Y-35099097D01*
X41598500Y-38512330D01*
X41598499Y-38512348D01*
X41598499Y-38678054D01*
X41598498Y-38678054D01*
X41598499Y-38678057D01*
X41639423Y-38830785D01*
X41639424Y-38830787D01*
X41639423Y-38830787D01*
X41654945Y-38857670D01*
X41654946Y-38857671D01*
X41713677Y-38959397D01*
X41718479Y-38967714D01*
X41718481Y-38967717D01*
X41837349Y-39086585D01*
X41837355Y-39086590D01*
X43115139Y-40364374D01*
X43115149Y-40364385D01*
X43119479Y-40368715D01*
X43119480Y-40368716D01*
X43231284Y-40480520D01*
X43318095Y-40530639D01*
X43318097Y-40530641D01*
X43368213Y-40559576D01*
X43368215Y-40559577D01*
X43520942Y-40600500D01*
X43520943Y-40600500D01*
X51135501Y-40600500D01*
X51202540Y-40620185D01*
X51248295Y-40672989D01*
X51259501Y-40724500D01*
X51259501Y-40947876D01*
X51265908Y-41007483D01*
X51316202Y-41142328D01*
X51316206Y-41142335D01*
X51402452Y-41257544D01*
X51402455Y-41257547D01*
X51517664Y-41343793D01*
X51517671Y-41343797D01*
X51652517Y-41394091D01*
X51652516Y-41394091D01*
X51659444Y-41394835D01*
X51712127Y-41400500D01*
X53607872Y-41400499D01*
X53667483Y-41394091D01*
X53802331Y-41343796D01*
X53917546Y-41257546D01*
X54003796Y-41142331D01*
X54031429Y-41068243D01*
X54034327Y-41060474D01*
X54045104Y-41031578D01*
X54054091Y-41007483D01*
X54060500Y-40947873D01*
X54060499Y-40837304D01*
X54080183Y-40770268D01*
X54096818Y-40749626D01*
X54757861Y-40088582D01*
X54780667Y-40173694D01*
X54839910Y-40276306D01*
X54923694Y-40360090D01*
X55026306Y-40419333D01*
X55111414Y-40442137D01*
X54402485Y-41151065D01*
X54402485Y-41151066D01*
X54466243Y-41197388D01*
X54662589Y-41297432D01*
X54872164Y-41365526D01*
X55089819Y-41400000D01*
X55310181Y-41400000D01*
X55527835Y-41365526D01*
X55737410Y-41297432D01*
X55933760Y-41197386D01*
X55997513Y-41151066D01*
X55997514Y-41151066D01*
X55288585Y-40442138D01*
X55373694Y-40419333D01*
X55476306Y-40360090D01*
X55560090Y-40276306D01*
X55619333Y-40173694D01*
X55642137Y-40088585D01*
X56351066Y-40797514D01*
X56351066Y-40797513D01*
X56369372Y-40772319D01*
X56424701Y-40729653D01*
X56494315Y-40723674D01*
X56556110Y-40756279D01*
X56570008Y-40772319D01*
X56671752Y-40912358D01*
X56671756Y-40912363D01*
X56827636Y-41068243D01*
X56827641Y-41068247D01*
X56929606Y-41142328D01*
X57005978Y-41197815D01*
X57134375Y-41263237D01*
X57202393Y-41297895D01*
X57202396Y-41297896D01*
X57278863Y-41322741D01*
X57412049Y-41366015D01*
X57629778Y-41400500D01*
X57629779Y-41400500D01*
X57850221Y-41400500D01*
X57850222Y-41400500D01*
X58067951Y-41366015D01*
X58277606Y-41297895D01*
X58474022Y-41197815D01*
X58652365Y-41068242D01*
X58808242Y-40912365D01*
X58937815Y-40734022D01*
X59037895Y-40537606D01*
X59106015Y-40327951D01*
X59140500Y-40110222D01*
X59140500Y-39889778D01*
X59106015Y-39672049D01*
X59066391Y-39550097D01*
X59037896Y-39462396D01*
X59037895Y-39462393D01*
X58995818Y-39379815D01*
X58937815Y-39265978D01*
X58870255Y-39172989D01*
X58808247Y-39087641D01*
X58808243Y-39087636D01*
X58652363Y-38931756D01*
X58652358Y-38931752D01*
X58474025Y-38802187D01*
X58474024Y-38802186D01*
X58474022Y-38802185D01*
X58411096Y-38770122D01*
X58277606Y-38702104D01*
X58277603Y-38702103D01*
X58067952Y-38633985D01*
X57959086Y-38616742D01*
X57850222Y-38599500D01*
X57629778Y-38599500D01*
X57586232Y-38606397D01*
X57412045Y-38633985D01*
X57341794Y-38656811D01*
X57271953Y-38658806D01*
X57215796Y-38626561D01*
X56727590Y-38138355D01*
X56727588Y-38138352D01*
X56608717Y-38019481D01*
X56608716Y-38019480D01*
X56504643Y-37959394D01*
X56504642Y-37959393D01*
X56471783Y-37940422D01*
X56415881Y-37925443D01*
X56319057Y-37899499D01*
X56160943Y-37899499D01*
X56153347Y-37899499D01*
X56153331Y-37899500D01*
X49336670Y-37899500D01*
X49336654Y-37899499D01*
X49329058Y-37899499D01*
X49170943Y-37899499D01*
X49094579Y-37919961D01*
X49018214Y-37940423D01*
X49018209Y-37940426D01*
X48881290Y-38019475D01*
X48881282Y-38019481D01*
X48058634Y-38842131D01*
X47997311Y-38875616D01*
X47970953Y-38878450D01*
X44021147Y-38878450D01*
X43954108Y-38858765D01*
X43933466Y-38842131D01*
X43236819Y-38145484D01*
X43203334Y-38084161D01*
X43200500Y-38057803D01*
X43200500Y-34756941D01*
X43220185Y-34689902D01*
X43272989Y-34644147D01*
X43342147Y-34634203D01*
X43405703Y-34663228D01*
X43412181Y-34669260D01*
X43514707Y-34771786D01*
X43514711Y-34771789D01*
X43645814Y-34859390D01*
X43645827Y-34859397D01*
X43791498Y-34919735D01*
X43791503Y-34919737D01*
X43946153Y-34950499D01*
X43946156Y-34950500D01*
X43946158Y-34950500D01*
X44103844Y-34950500D01*
X44251308Y-34921167D01*
X44320900Y-34927394D01*
X44376077Y-34970257D01*
X44399322Y-35036146D01*
X44399500Y-35042784D01*
X44399500Y-36670234D01*
X44379815Y-36737273D01*
X44378602Y-36739125D01*
X44290609Y-36870814D01*
X44290602Y-36870827D01*
X44230264Y-37016498D01*
X44230261Y-37016510D01*
X44199500Y-37171153D01*
X44199500Y-37328846D01*
X44230261Y-37483489D01*
X44230264Y-37483501D01*
X44290602Y-37629172D01*
X44290609Y-37629185D01*
X44378210Y-37760288D01*
X44378213Y-37760292D01*
X44489707Y-37871786D01*
X44489711Y-37871789D01*
X44620814Y-37959390D01*
X44620827Y-37959397D01*
X44765885Y-38019481D01*
X44766503Y-38019737D01*
X44921153Y-38050499D01*
X44921156Y-38050500D01*
X44921158Y-38050500D01*
X45078844Y-38050500D01*
X45078845Y-38050499D01*
X45233497Y-38019737D01*
X45379179Y-37959394D01*
X45510289Y-37871789D01*
X45621789Y-37760289D01*
X45709394Y-37629179D01*
X45769737Y-37483497D01*
X45800500Y-37328842D01*
X45800500Y-37171158D01*
X45800500Y-37171155D01*
X45800499Y-37171153D01*
X45769737Y-37016503D01*
X45744615Y-36955853D01*
X45709397Y-36870827D01*
X45709390Y-36870814D01*
X45621398Y-36739125D01*
X45600520Y-36672447D01*
X45600500Y-36670234D01*
X45600500Y-35031153D01*
X47499500Y-35031153D01*
X47499500Y-35188846D01*
X47530261Y-35343489D01*
X47530264Y-35343501D01*
X47590602Y-35489172D01*
X47590609Y-35489185D01*
X47678210Y-35620288D01*
X47678213Y-35620292D01*
X47789707Y-35731786D01*
X47789711Y-35731789D01*
X47920814Y-35819390D01*
X47920827Y-35819397D01*
X48057481Y-35876000D01*
X48066503Y-35879737D01*
X48221153Y-35910499D01*
X48221156Y-35910500D01*
X48221158Y-35910500D01*
X48378844Y-35910500D01*
X48378845Y-35910499D01*
X48533497Y-35879737D01*
X48679179Y-35819394D01*
X48679185Y-35819390D01*
X48810875Y-35731398D01*
X48877553Y-35710520D01*
X48879766Y-35710500D01*
X51190234Y-35710500D01*
X51257273Y-35730185D01*
X51259125Y-35731398D01*
X51390814Y-35819390D01*
X51390827Y-35819397D01*
X51527481Y-35876000D01*
X51536503Y-35879737D01*
X51691153Y-35910499D01*
X51691156Y-35910500D01*
X51691158Y-35910500D01*
X51848844Y-35910500D01*
X51848845Y-35910499D01*
X52003497Y-35879737D01*
X52149179Y-35819394D01*
X52280289Y-35731789D01*
X52391789Y-35620289D01*
X52479394Y-35489179D01*
X52485256Y-35475028D01*
X52516540Y-35399500D01*
X52539737Y-35343497D01*
X52570500Y-35188842D01*
X52570500Y-35031158D01*
X52570500Y-35031155D01*
X52570499Y-35031153D01*
X52543563Y-34895739D01*
X52539737Y-34876503D01*
X52535043Y-34865170D01*
X52479397Y-34730827D01*
X52479390Y-34730814D01*
X52391789Y-34599711D01*
X52391786Y-34599707D01*
X52280292Y-34488213D01*
X52280288Y-34488210D01*
X52149185Y-34400609D01*
X52149172Y-34400602D01*
X52003501Y-34340264D01*
X52003489Y-34340261D01*
X51848845Y-34309500D01*
X51848842Y-34309500D01*
X51691158Y-34309500D01*
X51691155Y-34309500D01*
X51536510Y-34340261D01*
X51536498Y-34340264D01*
X51390827Y-34400602D01*
X51390814Y-34400609D01*
X51259125Y-34488602D01*
X51192447Y-34509480D01*
X51190234Y-34509500D01*
X48879766Y-34509500D01*
X48812727Y-34489815D01*
X48810875Y-34488602D01*
X48679185Y-34400609D01*
X48679172Y-34400602D01*
X48533501Y-34340264D01*
X48533489Y-34340261D01*
X48378845Y-34309500D01*
X48378842Y-34309500D01*
X48221158Y-34309500D01*
X48221155Y-34309500D01*
X48066510Y-34340261D01*
X48066498Y-34340264D01*
X47920827Y-34400602D01*
X47920814Y-34400609D01*
X47789711Y-34488210D01*
X47789707Y-34488213D01*
X47678213Y-34599707D01*
X47678210Y-34599711D01*
X47590609Y-34730814D01*
X47590602Y-34730827D01*
X47530264Y-34876498D01*
X47530261Y-34876510D01*
X47499500Y-35031153D01*
X45600500Y-35031153D01*
X45600500Y-33839059D01*
X45600501Y-33839046D01*
X45600501Y-33670945D01*
X45600501Y-33670943D01*
X45559577Y-33518215D01*
X45530639Y-33468095D01*
X45480520Y-33381284D01*
X45368716Y-33269480D01*
X45368715Y-33269479D01*
X45364385Y-33265149D01*
X45364374Y-33265139D01*
X44386819Y-32287584D01*
X44353334Y-32226261D01*
X44350500Y-32199903D01*
X44350500Y-30574499D01*
X44370185Y-30507460D01*
X44422989Y-30461705D01*
X44474500Y-30450499D01*
X44975002Y-30450499D01*
X44975008Y-30450499D01*
X44975018Y-30450498D01*
X44977916Y-30450202D01*
X45046610Y-30462967D01*
X45097497Y-30510845D01*
X45114421Y-30578634D01*
X45112142Y-30597750D01*
X45099500Y-30661304D01*
X45099500Y-31656822D01*
X45134103Y-31830785D01*
X45134104Y-31830789D01*
X45134105Y-31830792D01*
X45156560Y-31885001D01*
X45201987Y-31994673D01*
X45227121Y-32032288D01*
X45231833Y-32039340D01*
X45300537Y-32142164D01*
X45300538Y-32142165D01*
X46750410Y-33592035D01*
X46829318Y-33670943D01*
X46875840Y-33717465D01*
X47023320Y-33816009D01*
X47023333Y-33816016D01*
X47097113Y-33846576D01*
X47187208Y-33883894D01*
X47187210Y-33883894D01*
X47187215Y-33883896D01*
X47361178Y-33918499D01*
X47361181Y-33918500D01*
X47361183Y-33918500D01*
X50498819Y-33918500D01*
X50498820Y-33918499D01*
X50672792Y-33883895D01*
X50769627Y-33843784D01*
X50836673Y-33816013D01*
X50931282Y-33752797D01*
X50984162Y-33717464D01*
X52647463Y-32054162D01*
X52662079Y-32032288D01*
X52746013Y-31906673D01*
X52813894Y-31742792D01*
X52821753Y-31703282D01*
X52830995Y-31656822D01*
X52848500Y-31568820D01*
X52848500Y-17801181D01*
X52844542Y-17781281D01*
X52844542Y-17781280D01*
X52813896Y-17627215D01*
X52813895Y-17627208D01*
X52748339Y-17468945D01*
X52746695Y-17464348D01*
X52647465Y-17315840D01*
X52647464Y-17315839D01*
X52522035Y-17190410D01*
X52163116Y-16831491D01*
X50982167Y-15650540D01*
X50982166Y-15650539D01*
X50982159Y-15650534D01*
X50923085Y-15611063D01*
X50834673Y-15551987D01*
X50752732Y-15518046D01*
X50670792Y-15484105D01*
X50670784Y-15484103D01*
X50496822Y-15449500D01*
X50496818Y-15449500D01*
X50496817Y-15449500D01*
X40329208Y-15449500D01*
X40262169Y-15429815D01*
X40216414Y-15377011D01*
X40206470Y-15307853D01*
X40209433Y-15293407D01*
X40215500Y-15270766D01*
X40215500Y-15119234D01*
X40176281Y-14972865D01*
X40100515Y-14841635D01*
X39993365Y-14734485D01*
X39927750Y-14696602D01*
X39862136Y-14658719D01*
X39788950Y-14639109D01*
X39715766Y-14619500D01*
X39564234Y-14619500D01*
X39417863Y-14658719D01*
X39286635Y-14734485D01*
X39286632Y-14734487D01*
X39179487Y-14841632D01*
X39179485Y-14841635D01*
X39103719Y-14972863D01*
X39064500Y-15119234D01*
X39064500Y-15270765D01*
X39070567Y-15293407D01*
X39068904Y-15363256D01*
X39029741Y-15421119D01*
X38965513Y-15448623D01*
X38950792Y-15449500D01*
X34549208Y-15449500D01*
X34482169Y-15429815D01*
X34436414Y-15377011D01*
X34426470Y-15307853D01*
X34429433Y-15293407D01*
X34435500Y-15270766D01*
X34435500Y-15119234D01*
X34396281Y-14972865D01*
X34320515Y-14841635D01*
X34213365Y-14734485D01*
X34147750Y-14696602D01*
X34082136Y-14658719D01*
X34008950Y-14639109D01*
X33935766Y-14619500D01*
X33784234Y-14619500D01*
X33637863Y-14658719D01*
X33506635Y-14734485D01*
X33506632Y-14734487D01*
X33399487Y-14841632D01*
X33399485Y-14841635D01*
X33323719Y-14972863D01*
X33284500Y-15119234D01*
X33284500Y-15270765D01*
X33290567Y-15293407D01*
X33288904Y-15363256D01*
X33249741Y-15421119D01*
X33185513Y-15448623D01*
X33170792Y-15449500D01*
X23173180Y-15449500D01*
X22999215Y-15484103D01*
X22999206Y-15484106D01*
X22835333Y-15551983D01*
X22835320Y-15551990D01*
X22687840Y-15650534D01*
X22687838Y-15650537D01*
X19193550Y-19144823D01*
X19132227Y-19178308D01*
X19062535Y-19173324D01*
X19006602Y-19131452D01*
X18982185Y-19065988D01*
X18997037Y-18997715D01*
X19008917Y-18979835D01*
X19200946Y-18739039D01*
X19380246Y-18453686D01*
X19526469Y-18150051D01*
X19637776Y-17831954D01*
X19712767Y-17503394D01*
X19750500Y-17168504D01*
X19750500Y-16831496D01*
X19712767Y-16496606D01*
X19637776Y-16168046D01*
X19526469Y-15849949D01*
X19412926Y-15614175D01*
X19380247Y-15546316D01*
X19299077Y-15417135D01*
X19200946Y-15260961D01*
X18990825Y-14997477D01*
X18752523Y-14759175D01*
X18489039Y-14549054D01*
X18443321Y-14520327D01*
X18339641Y-14455180D01*
X18293350Y-14402845D01*
X18282702Y-14333791D01*
X18311077Y-14269943D01*
X18369467Y-14231571D01*
X18404932Y-14226189D01*
X55466480Y-14025856D01*
X55533622Y-14045178D01*
X55579661Y-14097734D01*
X55589978Y-14166837D01*
X55561298Y-14230549D01*
X55520949Y-14261574D01*
X55296316Y-14369752D01*
X55010962Y-14549053D01*
X54747477Y-14759174D01*
X54509174Y-14997477D01*
X54299053Y-15260962D01*
X54119752Y-15546316D01*
X53973532Y-15849945D01*
X53862227Y-16168034D01*
X53862223Y-16168046D01*
X53787233Y-16496602D01*
X53787231Y-16496618D01*
X53749500Y-16831491D01*
X53749500Y-17168508D01*
X53787231Y-17503381D01*
X53787233Y-17503397D01*
X53862223Y-17831953D01*
X53862227Y-17831965D01*
X53973532Y-18150054D01*
X54119752Y-18453683D01*
X54119754Y-18453686D01*
X54299054Y-18739039D01*
X54415847Y-18885493D01*
X54488563Y-18976677D01*
X54509175Y-19002523D01*
X54747477Y-19240825D01*
X55010961Y-19450946D01*
X55296314Y-19630246D01*
X55599949Y-19776469D01*
X55819371Y-19853248D01*
X55918034Y-19887772D01*
X55918046Y-19887776D01*
X56246606Y-19962767D01*
X56581492Y-20000499D01*
X56581493Y-20000500D01*
X56581496Y-20000500D01*
X56918507Y-20000500D01*
X56918507Y-20000499D01*
X57253394Y-19962767D01*
X57581954Y-19887776D01*
X57900051Y-19776469D01*
X58203686Y-19630246D01*
X58489039Y-19450946D01*
X58752523Y-19240825D01*
X58990825Y-19002523D01*
X59200946Y-18739039D01*
X59380246Y-18453686D01*
X59526469Y-18150051D01*
X59637776Y-17831954D01*
X59712767Y-17503394D01*
X59750500Y-17168504D01*
X59750500Y-16831496D01*
X59712767Y-16496606D01*
X59637776Y-16168046D01*
X59526469Y-15849949D01*
X59412926Y-15614175D01*
X59380247Y-15546316D01*
X59299077Y-15417135D01*
X59200946Y-15260961D01*
X58990825Y-14997477D01*
X58752523Y-14759175D01*
X58489039Y-14549054D01*
X58203686Y-14369754D01*
X58203683Y-14369752D01*
X57950570Y-14247859D01*
X57898711Y-14201036D01*
X57880398Y-14133609D01*
X57901446Y-14066985D01*
X57955172Y-14022317D01*
X58003696Y-14012142D01*
X60124876Y-14000676D01*
X60192020Y-14019998D01*
G37*
%TD.AperFunction*%
%TA.AperFunction,Conductor*%
G36*
X25325039Y-21220185D02*
G01*
X25370794Y-21272989D01*
X25382000Y-21324500D01*
X25382000Y-21616502D01*
X25387619Y-21695069D01*
X25386419Y-21695154D01*
X25388773Y-21701465D01*
X25382702Y-21729374D01*
X25379649Y-21757767D01*
X25375018Y-21764697D01*
X25373922Y-21769738D01*
X25352771Y-21797993D01*
X25269480Y-21881284D01*
X25269479Y-21881284D01*
X25269478Y-21881285D01*
X24719481Y-22431282D01*
X24719479Y-22431285D01*
X24707712Y-22451667D01*
X24690324Y-22481784D01*
X24669814Y-22517308D01*
X24640715Y-22567710D01*
X24640423Y-22568215D01*
X24599499Y-22720943D01*
X24599499Y-22720945D01*
X24599499Y-22889046D01*
X24599500Y-22889059D01*
X24599500Y-23540201D01*
X24579815Y-23607240D01*
X24540598Y-23645739D01*
X24481344Y-23682287D01*
X24357288Y-23806343D01*
X24357283Y-23806349D01*
X24355241Y-23809661D01*
X24353247Y-23811453D01*
X24352807Y-23812011D01*
X24352711Y-23811935D01*
X24303291Y-23856383D01*
X24234328Y-23867602D01*
X24170247Y-23839755D01*
X24144168Y-23809656D01*
X24142319Y-23806659D01*
X24142316Y-23806655D01*
X24018345Y-23682684D01*
X23869124Y-23590643D01*
X23869119Y-23590641D01*
X23702697Y-23535494D01*
X23702690Y-23535493D01*
X23599986Y-23525000D01*
X23550000Y-23525000D01*
X23550000Y-25974999D01*
X23599972Y-25974999D01*
X23599986Y-25974998D01*
X23702697Y-25964505D01*
X23869119Y-25909358D01*
X23869124Y-25909356D01*
X24018345Y-25817315D01*
X24142318Y-25693342D01*
X24144165Y-25690348D01*
X24145969Y-25688724D01*
X24146798Y-25687677D01*
X24146976Y-25687818D01*
X24196110Y-25643621D01*
X24265073Y-25632396D01*
X24329156Y-25660236D01*
X24355243Y-25690341D01*
X24357288Y-25693656D01*
X24481344Y-25817712D01*
X24630666Y-25909814D01*
X24797203Y-25964999D01*
X24899991Y-25975500D01*
X25500008Y-25975499D01*
X25508264Y-25974655D01*
X25576955Y-25987419D01*
X25623976Y-26029121D01*
X25678210Y-26110288D01*
X25678213Y-26110292D01*
X25789707Y-26221786D01*
X25789711Y-26221789D01*
X25920814Y-26309390D01*
X25920827Y-26309397D01*
X26030082Y-26354651D01*
X26066503Y-26369737D01*
X26083546Y-26373127D01*
X26097691Y-26375941D01*
X26159602Y-26408325D01*
X26194176Y-26469041D01*
X26197500Y-26497558D01*
X26197500Y-28789590D01*
X26197499Y-28789608D01*
X26197499Y-28955314D01*
X26197498Y-28955314D01*
X26238423Y-29108045D01*
X26260304Y-29145943D01*
X26292997Y-29202569D01*
X26317479Y-29244975D01*
X26436349Y-29363845D01*
X26436355Y-29363850D01*
X26863879Y-29791374D01*
X26863889Y-29791385D01*
X26868219Y-29795715D01*
X26868220Y-29795716D01*
X26980024Y-29907520D01*
X26980026Y-29907521D01*
X26980027Y-29907522D01*
X26998564Y-29918224D01*
X27057044Y-29951987D01*
X27057045Y-29951988D01*
X27116949Y-29986574D01*
X27116952Y-29986576D01*
X27116954Y-29986576D01*
X27116955Y-29986577D01*
X27269683Y-30027501D01*
X27269686Y-30027501D01*
X27435393Y-30027501D01*
X27435409Y-30027500D01*
X28426903Y-30027500D01*
X28493942Y-30047185D01*
X28514584Y-30063819D01*
X29798689Y-31347924D01*
X29798699Y-31347935D01*
X29803029Y-31352265D01*
X29803030Y-31352266D01*
X29914834Y-31464070D01*
X29914836Y-31464071D01*
X29914840Y-31464074D01*
X30051759Y-31543123D01*
X30051766Y-31543127D01*
X30163569Y-31573084D01*
X30204492Y-31584050D01*
X30204493Y-31584050D01*
X30866353Y-31584050D01*
X30933392Y-31603735D01*
X30954034Y-31620369D01*
X31312181Y-31978516D01*
X31345666Y-32039839D01*
X31348500Y-32066197D01*
X31348500Y-34479430D01*
X31348499Y-34479448D01*
X31348499Y-34645154D01*
X31348498Y-34645154D01*
X31348499Y-34645157D01*
X31389423Y-34797885D01*
X31389424Y-34797887D01*
X31389423Y-34797887D01*
X31398150Y-34813001D01*
X31398151Y-34813002D01*
X31468477Y-34934812D01*
X31468481Y-34934817D01*
X31587349Y-35053685D01*
X31587355Y-35053690D01*
X33272067Y-36738402D01*
X33272077Y-36738413D01*
X33276407Y-36742743D01*
X33276408Y-36742744D01*
X33388212Y-36854548D01*
X33461082Y-36896619D01*
X33525143Y-36933605D01*
X33677870Y-36974528D01*
X33677871Y-36974528D01*
X36376986Y-36974528D01*
X36444025Y-36994213D01*
X36489780Y-37047017D01*
X36498603Y-37074336D01*
X36530261Y-37233491D01*
X36530264Y-37233501D01*
X36590602Y-37379172D01*
X36590609Y-37379185D01*
X36678210Y-37510288D01*
X36678213Y-37510292D01*
X36708896Y-37540975D01*
X36742381Y-37602298D01*
X36737397Y-37671990D01*
X36695525Y-37727923D01*
X36679671Y-37738013D01*
X36674819Y-37740606D01*
X36543711Y-37828210D01*
X36543707Y-37828213D01*
X36432213Y-37939707D01*
X36432210Y-37939711D01*
X36344609Y-38070814D01*
X36344602Y-38070827D01*
X36284264Y-38216498D01*
X36284261Y-38216508D01*
X36254355Y-38366856D01*
X36245590Y-38383611D01*
X36241571Y-38402089D01*
X36222825Y-38427132D01*
X36221970Y-38428767D01*
X36220421Y-38430344D01*
X36188583Y-38462181D01*
X36127263Y-38495666D01*
X36100903Y-38498500D01*
X29050098Y-38498500D01*
X28983059Y-38478815D01*
X28962417Y-38462181D01*
X28237590Y-37737355D01*
X28237588Y-37737352D01*
X28118717Y-37618481D01*
X28118709Y-37618475D01*
X28014182Y-37558127D01*
X28014179Y-37558126D01*
X27981787Y-37539424D01*
X27981786Y-37539423D01*
X27981785Y-37539423D01*
X27829057Y-37498499D01*
X27670943Y-37498499D01*
X27663347Y-37498499D01*
X27663331Y-37498500D01*
X25700096Y-37498500D01*
X25633057Y-37478815D01*
X25587302Y-37426011D01*
X25577358Y-37356853D01*
X25606383Y-37293297D01*
X25612396Y-37286838D01*
X25639138Y-37260095D01*
X25700457Y-37226612D01*
X25739421Y-37224420D01*
X25749991Y-37225500D01*
X26350008Y-37225499D01*
X26350016Y-37225498D01*
X26350019Y-37225498D01*
X26406302Y-37219748D01*
X26452797Y-37214999D01*
X26619334Y-37159814D01*
X26768656Y-37067712D01*
X26892712Y-36943656D01*
X26894752Y-36940347D01*
X26896745Y-36938555D01*
X26897193Y-36937989D01*
X26897289Y-36938065D01*
X26946694Y-36893623D01*
X27015656Y-36882395D01*
X27079740Y-36910234D01*
X27105829Y-36940339D01*
X27107681Y-36943341D01*
X27107683Y-36943344D01*
X27231654Y-37067315D01*
X27380875Y-37159356D01*
X27380880Y-37159358D01*
X27547302Y-37214505D01*
X27547309Y-37214506D01*
X27650019Y-37224999D01*
X28200000Y-37224999D01*
X28249972Y-37224999D01*
X28249986Y-37224998D01*
X28352697Y-37214505D01*
X28519119Y-37159358D01*
X28519124Y-37159356D01*
X28668345Y-37067315D01*
X28792315Y-36943345D01*
X28884356Y-36794124D01*
X28884358Y-36794119D01*
X28939505Y-36627697D01*
X28939506Y-36627690D01*
X28949999Y-36524986D01*
X28950000Y-36524973D01*
X28950000Y-36250000D01*
X28200000Y-36250000D01*
X28200000Y-37224999D01*
X27650019Y-37224999D01*
X27699999Y-37224998D01*
X27700000Y-37224998D01*
X27700000Y-35750000D01*
X28200000Y-35750000D01*
X28949999Y-35750000D01*
X28949999Y-35475028D01*
X28949998Y-35475013D01*
X28939505Y-35372302D01*
X28884358Y-35205880D01*
X28884356Y-35205875D01*
X28792315Y-35056654D01*
X28668345Y-34932684D01*
X28519124Y-34840643D01*
X28519119Y-34840641D01*
X28352697Y-34785494D01*
X28352690Y-34785493D01*
X28249986Y-34775000D01*
X28200000Y-34775000D01*
X28200000Y-35750000D01*
X27700000Y-35750000D01*
X27700000Y-34775000D01*
X27699999Y-34774999D01*
X27650029Y-34775000D01*
X27650011Y-34775001D01*
X27547302Y-34785494D01*
X27380880Y-34840641D01*
X27380875Y-34840643D01*
X27231654Y-34932684D01*
X27107683Y-35056655D01*
X27107679Y-35056660D01*
X27105826Y-35059665D01*
X27104018Y-35061290D01*
X27103202Y-35062323D01*
X27103025Y-35062183D01*
X27053874Y-35106385D01*
X26984911Y-35117601D01*
X26920831Y-35089752D01*
X26894753Y-35059653D01*
X26894706Y-35059577D01*
X26892712Y-35056344D01*
X26768656Y-34932288D01*
X26768655Y-34932287D01*
X26709402Y-34895739D01*
X26702578Y-34888152D01*
X26693297Y-34883914D01*
X26679609Y-34862615D01*
X26662678Y-34843791D01*
X26660033Y-34832154D01*
X26655523Y-34825136D01*
X26650500Y-34790201D01*
X26650500Y-34762597D01*
X26670185Y-34695558D01*
X26686819Y-34674916D01*
X26974916Y-34386819D01*
X27036239Y-34353334D01*
X27062597Y-34350500D01*
X28775003Y-34350500D01*
X28775008Y-34350500D01*
X28877797Y-34339999D01*
X29044334Y-34284814D01*
X29193655Y-34192711D01*
X29317711Y-34068655D01*
X29409814Y-33919334D01*
X29464999Y-33752797D01*
X29475500Y-33650008D01*
X29475500Y-31649992D01*
X29464999Y-31547203D01*
X29409814Y-31380666D01*
X29402134Y-31368215D01*
X29317713Y-31231348D01*
X29317710Y-31231344D01*
X29193655Y-31107289D01*
X29193651Y-31107286D01*
X29044337Y-31015187D01*
X29044335Y-31015186D01*
X28911789Y-30971265D01*
X28877797Y-30960001D01*
X28877795Y-30960000D01*
X28775015Y-30949500D01*
X28775008Y-30949500D01*
X25849992Y-30949500D01*
X25849982Y-30949500D01*
X25775116Y-30957149D01*
X25775114Y-30957149D01*
X25747203Y-30960001D01*
X25580666Y-31015186D01*
X25567635Y-31023223D01*
X25567630Y-31023225D01*
X25431348Y-31107286D01*
X25431344Y-31107289D01*
X25307289Y-31231344D01*
X25307286Y-31231348D01*
X25215187Y-31380662D01*
X25215186Y-31380664D01*
X25160001Y-31547203D01*
X25160000Y-31547204D01*
X25149500Y-31649984D01*
X25149500Y-33650015D01*
X25156391Y-33717461D01*
X25160001Y-33752797D01*
X25180949Y-33816013D01*
X25215186Y-33919335D01*
X25215187Y-33919337D01*
X25307286Y-34068651D01*
X25307289Y-34068655D01*
X25435346Y-34196712D01*
X25468831Y-34258035D01*
X25467440Y-34316486D01*
X25449499Y-34383443D01*
X25449499Y-34551546D01*
X25449500Y-34551559D01*
X25449500Y-34790201D01*
X25429815Y-34857240D01*
X25390598Y-34895739D01*
X25331344Y-34932287D01*
X25207289Y-35056342D01*
X25115187Y-35205663D01*
X25115185Y-35205668D01*
X25115115Y-35205880D01*
X25060001Y-35372203D01*
X25060001Y-35372204D01*
X25060000Y-35372204D01*
X25049500Y-35474983D01*
X25049500Y-36099901D01*
X25029815Y-36166940D01*
X25013180Y-36187582D01*
X24346215Y-36854550D01*
X24139584Y-37061181D01*
X24078261Y-37094666D01*
X24051903Y-37097500D01*
X23169407Y-37097500D01*
X23102368Y-37077815D01*
X23056613Y-37025011D01*
X23046669Y-36955853D01*
X23063868Y-36908403D01*
X23134356Y-36794124D01*
X23134358Y-36794119D01*
X23189505Y-36627697D01*
X23189506Y-36627690D01*
X23199999Y-36524986D01*
X23200000Y-36524973D01*
X23200000Y-36250000D01*
X22324000Y-36250000D01*
X22256961Y-36230315D01*
X22211206Y-36177511D01*
X22200000Y-36126000D01*
X22200000Y-36000000D01*
X22074000Y-36000000D01*
X22006961Y-35980315D01*
X21961206Y-35927511D01*
X21950000Y-35876000D01*
X21950000Y-35750000D01*
X22450000Y-35750000D01*
X23199999Y-35750000D01*
X23199999Y-35475028D01*
X23199998Y-35475013D01*
X23189505Y-35372302D01*
X23134358Y-35205880D01*
X23134356Y-35205875D01*
X23042315Y-35056654D01*
X22918345Y-34932684D01*
X22769124Y-34840643D01*
X22769119Y-34840641D01*
X22602697Y-34785494D01*
X22602690Y-34785493D01*
X22499986Y-34775000D01*
X22450000Y-34775000D01*
X22450000Y-35750000D01*
X21950000Y-35750000D01*
X21950000Y-34775000D01*
X21949999Y-34774999D01*
X21900029Y-34775000D01*
X21900011Y-34775001D01*
X21797302Y-34785494D01*
X21630880Y-34840641D01*
X21630875Y-34840643D01*
X21481654Y-34932684D01*
X21357683Y-35056655D01*
X21357679Y-35056660D01*
X21355826Y-35059665D01*
X21354018Y-35061290D01*
X21353202Y-35062323D01*
X21353025Y-35062183D01*
X21303874Y-35106385D01*
X21234911Y-35117601D01*
X21170831Y-35089752D01*
X21160383Y-35079953D01*
X21151515Y-35070616D01*
X21142712Y-35056344D01*
X21048099Y-34961731D01*
X21047003Y-34960577D01*
X21031750Y-34930849D01*
X21015747Y-34901541D01*
X21015865Y-34899887D01*
X21015108Y-34898412D01*
X21018348Y-34865170D01*
X21020731Y-34831849D01*
X21021750Y-34830262D01*
X21021886Y-34828872D01*
X21025961Y-34823710D01*
X21049232Y-34787502D01*
X21228290Y-34608445D01*
X21449916Y-34386819D01*
X21511239Y-34353334D01*
X21537597Y-34350500D01*
X23250003Y-34350500D01*
X23250008Y-34350500D01*
X23352797Y-34339999D01*
X23519334Y-34284814D01*
X23668655Y-34192711D01*
X23792711Y-34068655D01*
X23884814Y-33919334D01*
X23939999Y-33752797D01*
X23950500Y-33650008D01*
X23950500Y-31649992D01*
X23939999Y-31547203D01*
X23884814Y-31380666D01*
X23877134Y-31368215D01*
X23792713Y-31231348D01*
X23792710Y-31231344D01*
X23668655Y-31107289D01*
X23668651Y-31107286D01*
X23519337Y-31015187D01*
X23519335Y-31015186D01*
X23386789Y-30971265D01*
X23352797Y-30960001D01*
X23352795Y-30960000D01*
X23250015Y-30949500D01*
X23250008Y-30949500D01*
X20324992Y-30949500D01*
X20324984Y-30949500D01*
X20222204Y-30960000D01*
X20222203Y-30960001D01*
X20055664Y-31015186D01*
X20055662Y-31015187D01*
X19906348Y-31107286D01*
X19906344Y-31107289D01*
X19862181Y-31151453D01*
X19842744Y-31162065D01*
X19826011Y-31176566D01*
X19812679Y-31178482D01*
X19800858Y-31184938D01*
X19778771Y-31183358D01*
X19756853Y-31186510D01*
X19744601Y-31180914D01*
X19731166Y-31179954D01*
X19713439Y-31166683D01*
X19693297Y-31157485D01*
X19686014Y-31146153D01*
X19675233Y-31138082D01*
X19667495Y-31117336D01*
X19655523Y-31098707D01*
X19652371Y-31076788D01*
X19650816Y-31072618D01*
X19650500Y-31063772D01*
X19650500Y-31000097D01*
X19670185Y-30933058D01*
X19686819Y-30912416D01*
X19962416Y-30636819D01*
X20023739Y-30603334D01*
X20050097Y-30600500D01*
X24770234Y-30600500D01*
X24837273Y-30620185D01*
X24839125Y-30621398D01*
X24970814Y-30709390D01*
X24970827Y-30709397D01*
X25116498Y-30769735D01*
X25116503Y-30769737D01*
X25215511Y-30789431D01*
X25271153Y-30800499D01*
X25271156Y-30800500D01*
X25271158Y-30800500D01*
X25428844Y-30800500D01*
X25450061Y-30796279D01*
X25583497Y-30769737D01*
X25729179Y-30709394D01*
X25860289Y-30621789D01*
X25971789Y-30510289D01*
X26059394Y-30379179D01*
X26119737Y-30233497D01*
X26150500Y-30078842D01*
X26150500Y-29921158D01*
X26150500Y-29921155D01*
X26150499Y-29921153D01*
X26119738Y-29766510D01*
X26119737Y-29766503D01*
X26112905Y-29750009D01*
X26059397Y-29620827D01*
X26059390Y-29620814D01*
X25971789Y-29489711D01*
X25971786Y-29489707D01*
X25860292Y-29378213D01*
X25860288Y-29378210D01*
X25729185Y-29290609D01*
X25729172Y-29290602D01*
X25583501Y-29230264D01*
X25583489Y-29230261D01*
X25428845Y-29199500D01*
X25428842Y-29199500D01*
X25271158Y-29199500D01*
X25271155Y-29199500D01*
X25116510Y-29230261D01*
X25116498Y-29230264D01*
X24970827Y-29290602D01*
X24970814Y-29290609D01*
X24839125Y-29378602D01*
X24772447Y-29399480D01*
X24770234Y-29399500D01*
X19670940Y-29399500D01*
X19630019Y-29410464D01*
X19630019Y-29410465D01*
X19592751Y-29420451D01*
X19518214Y-29440423D01*
X19518213Y-29440424D01*
X19486497Y-29458735D01*
X19418597Y-29475205D01*
X19352571Y-29452352D01*
X19309381Y-29397429D01*
X19300500Y-29351346D01*
X19300500Y-25274986D01*
X22300001Y-25274986D01*
X22310494Y-25377697D01*
X22365641Y-25544119D01*
X22365643Y-25544124D01*
X22457684Y-25693345D01*
X22581654Y-25817315D01*
X22730875Y-25909356D01*
X22730880Y-25909358D01*
X22897302Y-25964505D01*
X22897309Y-25964506D01*
X23000019Y-25974999D01*
X23049999Y-25974998D01*
X23050000Y-25974998D01*
X23050000Y-25000000D01*
X22300001Y-25000000D01*
X22300001Y-25274986D01*
X19300500Y-25274986D01*
X19300500Y-24225013D01*
X22300000Y-24225013D01*
X22300000Y-24500000D01*
X23050000Y-24500000D01*
X23050000Y-23525000D01*
X23049999Y-23524999D01*
X23000029Y-23525000D01*
X23000011Y-23525001D01*
X22897302Y-23535494D01*
X22730880Y-23590641D01*
X22730875Y-23590643D01*
X22581654Y-23682684D01*
X22457684Y-23806654D01*
X22365643Y-23955875D01*
X22365641Y-23955880D01*
X22310494Y-24122302D01*
X22310493Y-24122309D01*
X22300000Y-24225013D01*
X19300500Y-24225013D01*
X19300500Y-22950097D01*
X19320185Y-22883058D01*
X19336819Y-22862416D01*
X20962417Y-21236819D01*
X21023740Y-21203334D01*
X21050098Y-21200500D01*
X25258000Y-21200500D01*
X25325039Y-21220185D01*
G37*
%TD.AperFunction*%
%TA.AperFunction,Conductor*%
G36*
X35091998Y-28545185D02*
G01*
X35112640Y-28561819D01*
X35132341Y-28581520D01*
X35132343Y-28581521D01*
X35132347Y-28581524D01*
X35215991Y-28629815D01*
X35269273Y-28660577D01*
X35422000Y-28701501D01*
X35422002Y-28701501D01*
X35587711Y-28701501D01*
X35587727Y-28701500D01*
X38014062Y-28701500D01*
X38040792Y-28709349D01*
X38068271Y-28713977D01*
X38073857Y-28719058D01*
X38081101Y-28721185D01*
X38099343Y-28742238D01*
X38119960Y-28760989D01*
X38122957Y-28769490D01*
X38126856Y-28773989D01*
X38133845Y-28793437D01*
X38135942Y-28801271D01*
X38139956Y-28831762D01*
X38151680Y-28860067D01*
X38153787Y-28867937D01*
X38153134Y-28895055D01*
X38156033Y-28922019D01*
X38152169Y-28935176D01*
X38152107Y-28937786D01*
X38150865Y-28939619D01*
X38148566Y-28947450D01*
X38139957Y-28968234D01*
X38139955Y-28968239D01*
X38124500Y-29085638D01*
X38124500Y-29364363D01*
X38139953Y-29481753D01*
X38139957Y-29481765D01*
X38148566Y-29502550D01*
X38156033Y-29572019D01*
X38148566Y-29597450D01*
X38139957Y-29618234D01*
X38139955Y-29618239D01*
X38124500Y-29735638D01*
X38124500Y-30014363D01*
X38139953Y-30131753D01*
X38139957Y-30131765D01*
X38148566Y-30152550D01*
X38156033Y-30222019D01*
X38148566Y-30247450D01*
X38139957Y-30268234D01*
X38139955Y-30268239D01*
X38124500Y-30385638D01*
X38124500Y-30450499D01*
X38104815Y-30517538D01*
X38052011Y-30563293D01*
X38000500Y-30574499D01*
X37995943Y-30574499D01*
X37919579Y-30594961D01*
X37843214Y-30615423D01*
X37843209Y-30615426D01*
X37706290Y-30694475D01*
X37706282Y-30694481D01*
X37281284Y-31119481D01*
X37169483Y-31231281D01*
X37169481Y-31231284D01*
X37090423Y-31368214D01*
X37090423Y-31368215D01*
X37049499Y-31520943D01*
X37049499Y-31679057D01*
X37055245Y-31700500D01*
X37057775Y-31709942D01*
X37062000Y-31742036D01*
X37062000Y-31857491D01*
X37042315Y-31924530D01*
X37003098Y-31963029D01*
X36931344Y-32007287D01*
X36807289Y-32131342D01*
X36715187Y-32280663D01*
X36715185Y-32280668D01*
X36676064Y-32398729D01*
X36636291Y-32456174D01*
X36571775Y-32482997D01*
X36503000Y-32470682D01*
X36451800Y-32423139D01*
X36440652Y-32398729D01*
X36409814Y-32305666D01*
X36317712Y-32156344D01*
X36193656Y-32032288D01*
X36044334Y-31940186D01*
X35877797Y-31885001D01*
X35877795Y-31885000D01*
X35775016Y-31874500D01*
X35775009Y-31874500D01*
X35400500Y-31874500D01*
X35333461Y-31854815D01*
X35287706Y-31802011D01*
X35276500Y-31750500D01*
X35276500Y-30827071D01*
X35274859Y-30820947D01*
X35274859Y-30820948D01*
X35274858Y-30820943D01*
X35235577Y-30674345D01*
X35192942Y-30600500D01*
X35156520Y-30537414D01*
X35044716Y-30425610D01*
X35044715Y-30425609D01*
X35040385Y-30421279D01*
X35040374Y-30421269D01*
X34886653Y-30267548D01*
X34853168Y-30206225D01*
X34858152Y-30136533D01*
X34859760Y-30132445D01*
X34860044Y-30131762D01*
X34875500Y-30014361D01*
X34875499Y-29735640D01*
X34860044Y-29618238D01*
X34860042Y-29618234D01*
X34851435Y-29597455D01*
X34843965Y-29527986D01*
X34851435Y-29502545D01*
X34856751Y-29489711D01*
X34860044Y-29481762D01*
X34875500Y-29364361D01*
X34875499Y-29085640D01*
X34875499Y-29085638D01*
X34875499Y-29085636D01*
X34860046Y-28968246D01*
X34860044Y-28968239D01*
X34860044Y-28968238D01*
X34851162Y-28946797D01*
X34843694Y-28877328D01*
X34851164Y-28851890D01*
X34859555Y-28831632D01*
X34859555Y-28831630D01*
X34866336Y-28780129D01*
X34811428Y-28774309D01*
X34784943Y-28763384D01*
X34757461Y-28755315D01*
X34751025Y-28749394D01*
X34746837Y-28747667D01*
X34742716Y-28741750D01*
X34726124Y-28726487D01*
X34724972Y-28724985D01*
X34717404Y-28705410D01*
X34706904Y-28690334D01*
X34706406Y-28676961D01*
X34699779Y-28659818D01*
X34704848Y-28635099D01*
X34704306Y-28620513D01*
X34709717Y-28611361D01*
X34713817Y-28591373D01*
X34733389Y-28571329D01*
X34739869Y-28560371D01*
X34748154Y-28556208D01*
X34762631Y-28541383D01*
X34793986Y-28533180D01*
X34802302Y-28529003D01*
X34811226Y-28528671D01*
X34823349Y-28525500D01*
X35024959Y-28525500D01*
X35091998Y-28545185D01*
G37*
%TD.AperFunction*%
%TA.AperFunction,Conductor*%
G36*
X50136942Y-17820185D02*
G01*
X50157584Y-17836819D01*
X50683181Y-18362416D01*
X50716666Y-18423739D01*
X50719500Y-18450097D01*
X50719500Y-30919903D01*
X50699815Y-30986942D01*
X50683181Y-31007584D01*
X49937584Y-31753181D01*
X49876261Y-31786666D01*
X49849903Y-31789500D01*
X48010097Y-31789500D01*
X47943058Y-31769815D01*
X47922416Y-31753181D01*
X47474319Y-31305084D01*
X47440834Y-31243761D01*
X47438000Y-31217403D01*
X47438000Y-30442507D01*
X47438396Y-30441155D01*
X47438030Y-30439796D01*
X47448211Y-30407731D01*
X47457685Y-30375468D01*
X47458886Y-30374111D01*
X47459175Y-30373203D01*
X47462634Y-30369880D01*
X47482866Y-30347041D01*
X47489532Y-30341515D01*
X47568656Y-30292712D01*
X47666770Y-30194597D01*
X47671219Y-30190910D01*
X47698202Y-30179293D01*
X47723994Y-30165210D01*
X47729929Y-30165634D01*
X47735394Y-30163282D01*
X47764376Y-30168097D01*
X47793686Y-30170194D01*
X47799508Y-30173935D01*
X47804318Y-30174735D01*
X47813036Y-30182630D01*
X47838034Y-30198695D01*
X47931654Y-30292315D01*
X48080875Y-30384356D01*
X48080880Y-30384358D01*
X48247302Y-30439505D01*
X48247309Y-30439506D01*
X48350019Y-30449999D01*
X48912500Y-30449999D01*
X48974972Y-30449999D01*
X48974986Y-30449998D01*
X49077697Y-30439505D01*
X49244119Y-30384358D01*
X49244124Y-30384356D01*
X49393345Y-30292315D01*
X49517315Y-30168345D01*
X49609356Y-30019124D01*
X49609358Y-30019119D01*
X49664505Y-29852697D01*
X49664506Y-29852690D01*
X49674999Y-29749986D01*
X49675000Y-29749973D01*
X49675000Y-29500000D01*
X48912500Y-29500000D01*
X48912500Y-30449999D01*
X48350019Y-30449999D01*
X48412499Y-30449998D01*
X48412500Y-30449998D01*
X48412500Y-29000000D01*
X48912500Y-29000000D01*
X49674999Y-29000000D01*
X49674999Y-28750028D01*
X49674998Y-28750013D01*
X49664505Y-28647302D01*
X49609358Y-28480880D01*
X49609356Y-28480875D01*
X49517315Y-28331654D01*
X49393345Y-28207684D01*
X49244124Y-28115643D01*
X49244119Y-28115641D01*
X49077697Y-28060494D01*
X49077690Y-28060493D01*
X48974986Y-28050000D01*
X48912500Y-28050000D01*
X48912500Y-29000000D01*
X48412500Y-29000000D01*
X48412500Y-28050000D01*
X48412499Y-28049999D01*
X48350028Y-28050000D01*
X48350011Y-28050001D01*
X48247302Y-28060494D01*
X48080880Y-28115641D01*
X48080875Y-28115643D01*
X47931657Y-28207682D01*
X47838034Y-28301305D01*
X47776710Y-28334789D01*
X47707019Y-28329805D01*
X47662672Y-28301304D01*
X47568657Y-28207289D01*
X47568656Y-28207288D01*
X47419334Y-28115186D01*
X47252797Y-28060001D01*
X47252795Y-28060000D01*
X47150010Y-28049500D01*
X46524998Y-28049500D01*
X46524980Y-28049501D01*
X46422203Y-28060000D01*
X46422196Y-28060002D01*
X46358542Y-28081095D01*
X46351809Y-28081326D01*
X46345897Y-28084555D01*
X46317330Y-28082512D01*
X46288714Y-28083496D01*
X46282926Y-28080051D01*
X46276205Y-28079571D01*
X46253276Y-28062406D01*
X46228672Y-28047764D01*
X46225664Y-28041735D01*
X46220272Y-28037699D01*
X46210265Y-28010870D01*
X46197480Y-27985244D01*
X46198209Y-27978546D01*
X46195855Y-27972235D01*
X46201941Y-27944254D01*
X46205041Y-27915784D01*
X46209625Y-27908932D01*
X46210707Y-27903962D01*
X46231855Y-27875711D01*
X46369138Y-27738428D01*
X46430459Y-27704945D01*
X46469421Y-27702753D01*
X46479991Y-27703833D01*
X47080008Y-27703832D01*
X47080016Y-27703831D01*
X47080019Y-27703831D01*
X47136302Y-27698081D01*
X47182797Y-27693332D01*
X47349334Y-27638147D01*
X47498656Y-27546045D01*
X47622712Y-27421989D01*
X47624752Y-27418680D01*
X47626745Y-27416888D01*
X47627193Y-27416322D01*
X47627289Y-27416398D01*
X47676694Y-27371956D01*
X47745656Y-27360728D01*
X47809740Y-27388567D01*
X47835829Y-27418672D01*
X47837681Y-27421674D01*
X47837683Y-27421677D01*
X47961654Y-27545648D01*
X48110875Y-27637689D01*
X48110880Y-27637691D01*
X48277302Y-27692838D01*
X48277309Y-27692839D01*
X48380019Y-27703332D01*
X48930000Y-27703332D01*
X48979972Y-27703332D01*
X48979986Y-27703331D01*
X49082697Y-27692838D01*
X49249119Y-27637691D01*
X49249124Y-27637689D01*
X49398345Y-27545648D01*
X49522315Y-27421678D01*
X49614356Y-27272457D01*
X49614358Y-27272452D01*
X49669505Y-27106030D01*
X49669506Y-27106023D01*
X49679999Y-27003319D01*
X49680000Y-27003306D01*
X49680000Y-26728333D01*
X48930000Y-26728333D01*
X48930000Y-27703332D01*
X48380019Y-27703332D01*
X48429999Y-27703331D01*
X48430000Y-27703331D01*
X48430000Y-26228333D01*
X48930000Y-26228333D01*
X49679999Y-26228333D01*
X49679999Y-25953361D01*
X49679998Y-25953346D01*
X49669505Y-25850635D01*
X49614358Y-25684213D01*
X49614356Y-25684208D01*
X49522315Y-25534987D01*
X49398345Y-25411017D01*
X49249124Y-25318976D01*
X49249119Y-25318974D01*
X49082697Y-25263827D01*
X49082690Y-25263826D01*
X48979986Y-25253333D01*
X48930000Y-25253333D01*
X48930000Y-26228333D01*
X48430000Y-26228333D01*
X48430000Y-25253333D01*
X48429999Y-25253332D01*
X48380029Y-25253333D01*
X48380011Y-25253334D01*
X48277302Y-25263827D01*
X48110880Y-25318974D01*
X48110875Y-25318976D01*
X47961654Y-25411017D01*
X47837683Y-25534988D01*
X47837679Y-25534993D01*
X47835826Y-25537998D01*
X47834018Y-25539623D01*
X47833202Y-25540656D01*
X47833025Y-25540516D01*
X47783874Y-25584718D01*
X47714911Y-25595934D01*
X47650831Y-25568085D01*
X47624753Y-25537986D01*
X47624737Y-25537961D01*
X47622712Y-25534677D01*
X47498656Y-25410621D01*
X47498655Y-25410620D01*
X47439402Y-25374072D01*
X47392678Y-25322124D01*
X47380500Y-25268534D01*
X47380500Y-24886464D01*
X47400185Y-24819425D01*
X47439403Y-24780925D01*
X47498656Y-24744379D01*
X47622712Y-24620323D01*
X47624752Y-24617014D01*
X47626745Y-24615222D01*
X47627193Y-24614656D01*
X47627289Y-24614732D01*
X47676694Y-24570290D01*
X47745656Y-24559062D01*
X47809740Y-24586901D01*
X47835829Y-24617006D01*
X47837681Y-24620008D01*
X47837683Y-24620011D01*
X47961654Y-24743982D01*
X48110875Y-24836023D01*
X48110880Y-24836025D01*
X48277302Y-24891172D01*
X48277309Y-24891173D01*
X48380019Y-24901666D01*
X48930000Y-24901666D01*
X48979972Y-24901666D01*
X48979986Y-24901665D01*
X49082697Y-24891172D01*
X49249119Y-24836025D01*
X49249124Y-24836023D01*
X49398345Y-24743982D01*
X49522315Y-24620012D01*
X49614356Y-24470791D01*
X49614358Y-24470786D01*
X49669505Y-24304364D01*
X49669506Y-24304357D01*
X49679999Y-24201653D01*
X49680000Y-24201640D01*
X49680000Y-23926667D01*
X48930000Y-23926667D01*
X48930000Y-24901666D01*
X48380019Y-24901666D01*
X48429999Y-24901665D01*
X48430000Y-24901665D01*
X48430000Y-23426667D01*
X48930000Y-23426667D01*
X49679999Y-23426667D01*
X49679999Y-23151695D01*
X49679998Y-23151680D01*
X49669505Y-23048969D01*
X49614358Y-22882547D01*
X49614356Y-22882542D01*
X49522315Y-22733321D01*
X49398345Y-22609351D01*
X49249124Y-22517310D01*
X49249119Y-22517308D01*
X49082697Y-22462161D01*
X49082690Y-22462160D01*
X48979986Y-22451667D01*
X48930000Y-22451667D01*
X48930000Y-23426667D01*
X48430000Y-23426667D01*
X48430000Y-22451667D01*
X48429999Y-22451666D01*
X48380029Y-22451667D01*
X48380011Y-22451668D01*
X48277302Y-22462161D01*
X48110880Y-22517308D01*
X48110875Y-22517310D01*
X47961654Y-22609351D01*
X47837683Y-22733322D01*
X47837679Y-22733327D01*
X47835826Y-22736332D01*
X47834018Y-22737957D01*
X47833202Y-22738990D01*
X47833025Y-22738850D01*
X47783874Y-22783052D01*
X47714911Y-22794268D01*
X47650831Y-22766419D01*
X47624753Y-22736320D01*
X47624737Y-22736295D01*
X47622712Y-22733011D01*
X47498656Y-22608955D01*
X47349334Y-22516853D01*
X47182797Y-22461668D01*
X47182795Y-22461667D01*
X47080010Y-22451167D01*
X46479998Y-22451167D01*
X46479980Y-22451168D01*
X46437101Y-22455549D01*
X46422028Y-22452746D01*
X46406853Y-22454929D01*
X46388376Y-22446491D01*
X46368408Y-22442779D01*
X46357242Y-22432272D01*
X46343297Y-22425904D01*
X46332315Y-22408816D01*
X46317524Y-22394898D01*
X46313247Y-22379145D01*
X46305523Y-22367126D01*
X46300500Y-22332191D01*
X46300500Y-22200097D01*
X46320185Y-22133058D01*
X46336819Y-22112416D01*
X46364138Y-22085097D01*
X46425461Y-22051612D01*
X46464422Y-22049420D01*
X46474991Y-22050500D01*
X47075008Y-22050499D01*
X47075016Y-22050498D01*
X47075019Y-22050498D01*
X47131302Y-22044748D01*
X47177797Y-22039999D01*
X47344334Y-21984814D01*
X47493656Y-21892712D01*
X47617712Y-21768656D01*
X47619752Y-21765347D01*
X47621745Y-21763555D01*
X47622193Y-21762989D01*
X47622289Y-21763065D01*
X47671694Y-21718623D01*
X47740656Y-21707395D01*
X47804740Y-21735234D01*
X47830829Y-21765339D01*
X47832681Y-21768341D01*
X47832683Y-21768344D01*
X47956654Y-21892315D01*
X48105875Y-21984356D01*
X48105880Y-21984358D01*
X48272302Y-22039505D01*
X48272309Y-22039506D01*
X48375019Y-22049999D01*
X48925000Y-22049999D01*
X48974972Y-22049999D01*
X48974986Y-22049998D01*
X49077697Y-22039505D01*
X49244119Y-21984358D01*
X49244124Y-21984356D01*
X49393345Y-21892315D01*
X49517315Y-21768345D01*
X49609356Y-21619124D01*
X49609358Y-21619119D01*
X49664505Y-21452697D01*
X49664506Y-21452690D01*
X49674999Y-21349986D01*
X49675000Y-21349973D01*
X49675000Y-21075000D01*
X48925000Y-21075000D01*
X48925000Y-22049999D01*
X48375019Y-22049999D01*
X48424999Y-22049998D01*
X48425000Y-22049998D01*
X48425000Y-20575000D01*
X48925000Y-20575000D01*
X49674999Y-20575000D01*
X49674999Y-20300028D01*
X49674998Y-20300013D01*
X49664505Y-20197302D01*
X49609358Y-20030880D01*
X49609356Y-20030875D01*
X49517315Y-19881654D01*
X49393345Y-19757684D01*
X49244124Y-19665643D01*
X49244119Y-19665641D01*
X49077697Y-19610494D01*
X49077690Y-19610493D01*
X48974986Y-19600000D01*
X48925000Y-19600000D01*
X48925000Y-20575000D01*
X48425000Y-20575000D01*
X48425000Y-19600000D01*
X48424999Y-19599999D01*
X48375029Y-19600000D01*
X48375011Y-19600001D01*
X48272302Y-19610494D01*
X48105880Y-19665641D01*
X48105875Y-19665643D01*
X47956654Y-19757684D01*
X47832683Y-19881655D01*
X47832679Y-19881660D01*
X47830826Y-19884665D01*
X47829018Y-19886290D01*
X47828202Y-19887323D01*
X47828025Y-19887183D01*
X47778874Y-19931385D01*
X47709911Y-19942601D01*
X47645831Y-19914752D01*
X47619753Y-19884653D01*
X47619042Y-19883500D01*
X47617712Y-19881344D01*
X47493656Y-19757288D01*
X47357826Y-19673508D01*
X47344336Y-19665187D01*
X47344331Y-19665185D01*
X47342862Y-19664698D01*
X47177797Y-19610001D01*
X47177795Y-19610000D01*
X47075010Y-19599500D01*
X46474998Y-19599500D01*
X46474980Y-19599501D01*
X46372203Y-19610000D01*
X46372200Y-19610001D01*
X46205668Y-19665185D01*
X46205663Y-19665187D01*
X46056342Y-19757289D01*
X45932288Y-19881343D01*
X45932285Y-19881347D01*
X45842744Y-20026516D01*
X45790796Y-20073241D01*
X45721834Y-20084462D01*
X45657752Y-20056619D01*
X45631667Y-20026516D01*
X45542315Y-19881654D01*
X45418345Y-19757684D01*
X45269124Y-19665643D01*
X45269119Y-19665641D01*
X45102697Y-19610494D01*
X45102690Y-19610493D01*
X44999986Y-19600000D01*
X44950000Y-19600000D01*
X44950000Y-22049999D01*
X44975500Y-22049999D01*
X45042539Y-22069684D01*
X45088294Y-22122488D01*
X45099500Y-22173999D01*
X45099500Y-24949902D01*
X45079815Y-25016941D01*
X45063181Y-25037583D01*
X44656859Y-25443904D01*
X44595536Y-25477389D01*
X44525844Y-25472405D01*
X44490213Y-25449508D01*
X44489645Y-25450268D01*
X44367335Y-25358706D01*
X44367328Y-25358702D01*
X44232482Y-25308408D01*
X44232483Y-25308408D01*
X44172883Y-25302001D01*
X44172881Y-25302000D01*
X44172873Y-25302000D01*
X44172865Y-25302000D01*
X42546595Y-25302000D01*
X42479556Y-25282315D01*
X42433801Y-25229511D01*
X42423857Y-25160353D01*
X42452882Y-25096797D01*
X42458900Y-25090333D01*
X42709916Y-24839318D01*
X42771239Y-24805833D01*
X42797597Y-24802999D01*
X44172871Y-24802999D01*
X44172872Y-24802999D01*
X44232483Y-24796591D01*
X44367331Y-24746296D01*
X44482546Y-24660046D01*
X44568796Y-24544831D01*
X44619091Y-24409983D01*
X44625500Y-24350373D01*
X44625499Y-23254628D01*
X44619091Y-23195017D01*
X44602927Y-23151680D01*
X44568797Y-23060171D01*
X44568793Y-23060164D01*
X44482547Y-22944955D01*
X44482544Y-22944952D01*
X44367335Y-22858706D01*
X44367328Y-22858702D01*
X44232482Y-22808408D01*
X44232483Y-22808408D01*
X44172883Y-22802001D01*
X44172881Y-22802000D01*
X44172873Y-22802000D01*
X44172865Y-22802000D01*
X43524500Y-22802000D01*
X43457461Y-22782315D01*
X43411706Y-22729511D01*
X43400500Y-22678000D01*
X43400500Y-22034797D01*
X43420185Y-21967758D01*
X43459403Y-21929258D01*
X43518656Y-21892712D01*
X43642712Y-21768656D01*
X43644752Y-21765347D01*
X43646745Y-21763555D01*
X43647193Y-21762989D01*
X43647289Y-21763065D01*
X43696694Y-21718623D01*
X43765656Y-21707395D01*
X43829740Y-21735234D01*
X43855829Y-21765339D01*
X43857681Y-21768341D01*
X43857683Y-21768344D01*
X43981654Y-21892315D01*
X44130875Y-21984356D01*
X44130880Y-21984358D01*
X44297302Y-22039505D01*
X44297309Y-22039506D01*
X44400019Y-22049999D01*
X44449999Y-22049998D01*
X44450000Y-22049998D01*
X44450000Y-19600000D01*
X44449999Y-19599999D01*
X44400029Y-19600000D01*
X44400011Y-19600001D01*
X44297302Y-19610494D01*
X44130880Y-19665641D01*
X44130875Y-19665643D01*
X43981654Y-19757684D01*
X43857683Y-19881655D01*
X43857679Y-19881660D01*
X43855826Y-19884665D01*
X43854018Y-19886290D01*
X43853202Y-19887323D01*
X43853025Y-19887183D01*
X43803874Y-19931385D01*
X43734911Y-19942601D01*
X43670831Y-19914752D01*
X43644753Y-19884653D01*
X43644042Y-19883500D01*
X43642712Y-19881344D01*
X43518656Y-19757288D01*
X43382826Y-19673508D01*
X43369336Y-19665187D01*
X43369331Y-19665185D01*
X43367862Y-19664698D01*
X43202797Y-19610001D01*
X43202795Y-19610000D01*
X43100010Y-19599500D01*
X42499998Y-19599500D01*
X42499980Y-19599501D01*
X42397203Y-19610000D01*
X42397200Y-19610001D01*
X42230668Y-19665185D01*
X42230663Y-19665187D01*
X42081342Y-19757289D01*
X41957289Y-19881342D01*
X41865187Y-20030663D01*
X41865185Y-20030668D01*
X41865115Y-20030880D01*
X41810001Y-20197203D01*
X41810001Y-20197204D01*
X41810000Y-20197204D01*
X41799500Y-20299983D01*
X41799500Y-21350001D01*
X41799501Y-21350019D01*
X41810000Y-21452796D01*
X41810001Y-21452799D01*
X41836009Y-21531284D01*
X41865186Y-21619334D01*
X41957288Y-21768656D01*
X42081344Y-21892712D01*
X42140596Y-21929258D01*
X42187321Y-21981204D01*
X42199500Y-22034797D01*
X42199500Y-22729033D01*
X42179815Y-22796072D01*
X42127011Y-22841827D01*
X42118836Y-22845214D01*
X42082665Y-22858705D01*
X41967455Y-22944952D01*
X41967452Y-22944955D01*
X41881206Y-23060164D01*
X41881202Y-23060171D01*
X41830908Y-23195017D01*
X41825026Y-23249735D01*
X41824501Y-23254623D01*
X41824500Y-23254635D01*
X41824500Y-23974902D01*
X41804815Y-24041941D01*
X41788181Y-24062583D01*
X40774109Y-25076654D01*
X40712786Y-25110139D01*
X40643094Y-25105155D01*
X40587161Y-25063283D01*
X40571867Y-25036426D01*
X40556779Y-25000000D01*
X40524536Y-24922159D01*
X40428282Y-24796718D01*
X40302841Y-24700464D01*
X40205263Y-24660046D01*
X40156762Y-24639956D01*
X40156760Y-24639955D01*
X40039370Y-24624501D01*
X40039367Y-24624500D01*
X40039361Y-24624500D01*
X40039354Y-24624500D01*
X39724500Y-24624500D01*
X39657461Y-24604815D01*
X39611706Y-24552011D01*
X39600500Y-24500500D01*
X39600500Y-23212596D01*
X39620185Y-23145557D01*
X39636815Y-23124919D01*
X39999916Y-22761817D01*
X40061239Y-22728333D01*
X40087597Y-22725499D01*
X40700002Y-22725499D01*
X40700008Y-22725499D01*
X40802797Y-22714999D01*
X40969334Y-22659814D01*
X41118656Y-22567712D01*
X41242712Y-22443656D01*
X41334814Y-22294334D01*
X41389999Y-22127797D01*
X41400500Y-22025009D01*
X41400499Y-21399992D01*
X41389999Y-21297203D01*
X41334814Y-21130666D01*
X41242712Y-20981344D01*
X41148695Y-20887327D01*
X41115210Y-20826004D01*
X41120194Y-20756312D01*
X41148695Y-20711964D01*
X41242317Y-20618342D01*
X41334356Y-20469124D01*
X41334358Y-20469119D01*
X41389505Y-20302697D01*
X41389506Y-20302690D01*
X41399999Y-20199986D01*
X41400000Y-20199973D01*
X41400000Y-20137500D01*
X38992577Y-20137500D01*
X38947606Y-20162055D01*
X38877914Y-20157069D01*
X38833569Y-20128569D01*
X38825000Y-20120000D01*
X36375001Y-20120000D01*
X36375001Y-20169986D01*
X36385494Y-20272697D01*
X36440641Y-20439119D01*
X36440643Y-20439124D01*
X36532684Y-20588345D01*
X36656655Y-20712316D01*
X36656659Y-20712319D01*
X36659656Y-20714168D01*
X36661279Y-20715972D01*
X36662323Y-20716798D01*
X36662181Y-20716976D01*
X36706381Y-20766116D01*
X36717602Y-20835079D01*
X36689759Y-20899161D01*
X36659661Y-20925241D01*
X36656349Y-20927283D01*
X36656343Y-20927288D01*
X36532289Y-21051342D01*
X36440187Y-21200663D01*
X36440186Y-21200666D01*
X36385001Y-21367203D01*
X36385001Y-21367204D01*
X36385000Y-21367204D01*
X36374500Y-21469983D01*
X36374500Y-22070001D01*
X36374501Y-22070019D01*
X36385000Y-22172796D01*
X36385001Y-22172799D01*
X36385399Y-22173999D01*
X36440186Y-22339334D01*
X36532288Y-22488656D01*
X36656344Y-22612712D01*
X36805666Y-22704814D01*
X36914505Y-22740879D01*
X36971949Y-22780652D01*
X36998772Y-22845167D01*
X36999500Y-22858585D01*
X36999500Y-25875500D01*
X36979815Y-25942539D01*
X36927011Y-25988294D01*
X36875500Y-25999500D01*
X36570942Y-25999500D01*
X36418214Y-26040423D01*
X36418213Y-26040423D01*
X36394597Y-26054057D01*
X36394598Y-26054058D01*
X36281287Y-26119477D01*
X36281282Y-26119481D01*
X35735339Y-26665425D01*
X35674016Y-26698910D01*
X35671850Y-26699361D01*
X35516508Y-26730261D01*
X35516498Y-26730264D01*
X35447952Y-26758657D01*
X35378483Y-26766126D01*
X35316004Y-26734850D01*
X35280352Y-26674761D01*
X35276500Y-26644096D01*
X35276500Y-23265060D01*
X35276501Y-23265047D01*
X35276501Y-23096944D01*
X35276501Y-23096943D01*
X35235577Y-22944216D01*
X35226240Y-22928043D01*
X35156524Y-22807290D01*
X35156518Y-22807282D01*
X34261415Y-21912180D01*
X34227930Y-21850857D01*
X34232914Y-21781166D01*
X34274786Y-21725232D01*
X34340250Y-21700815D01*
X34349096Y-21700499D01*
X34525002Y-21700499D01*
X34525008Y-21700499D01*
X34627797Y-21689999D01*
X34794334Y-21634814D01*
X34943656Y-21542712D01*
X35067712Y-21418656D01*
X35159814Y-21269334D01*
X35214999Y-21102797D01*
X35225500Y-21000009D01*
X35225499Y-20399992D01*
X35220104Y-20347182D01*
X35214999Y-20297203D01*
X35214998Y-20297200D01*
X35212525Y-20289737D01*
X35159814Y-20130666D01*
X35067712Y-19981344D01*
X34943656Y-19857288D01*
X34940342Y-19855243D01*
X34938546Y-19853248D01*
X34937989Y-19852807D01*
X34938064Y-19852711D01*
X34893618Y-19803297D01*
X34882397Y-19734334D01*
X34910240Y-19670252D01*
X34940348Y-19644165D01*
X34943342Y-19642318D01*
X35015647Y-19570013D01*
X36375000Y-19570013D01*
X36375000Y-19620000D01*
X37350000Y-19620000D01*
X37850000Y-19620000D01*
X38832421Y-19620000D01*
X38877389Y-19595445D01*
X38947080Y-19600428D01*
X38991430Y-19628930D01*
X39000000Y-19637500D01*
X39950000Y-19637500D01*
X40450000Y-19637500D01*
X41399999Y-19637500D01*
X41399999Y-19575028D01*
X41399998Y-19575013D01*
X41389505Y-19472302D01*
X41334358Y-19305880D01*
X41334356Y-19305875D01*
X41242315Y-19156654D01*
X41118345Y-19032684D01*
X40969124Y-18940643D01*
X40969119Y-18940641D01*
X40802697Y-18885494D01*
X40802690Y-18885493D01*
X40699986Y-18875000D01*
X40450000Y-18875000D01*
X40450000Y-19637500D01*
X39950000Y-19637500D01*
X39950000Y-18875000D01*
X39700029Y-18875000D01*
X39700012Y-18875001D01*
X39597302Y-18885494D01*
X39430880Y-18940641D01*
X39430875Y-18940643D01*
X39281654Y-19032684D01*
X39157684Y-19156654D01*
X39065643Y-19305875D01*
X39065642Y-19305878D01*
X39031034Y-19410318D01*
X38991261Y-19467762D01*
X38926745Y-19494585D01*
X38857969Y-19482270D01*
X38806769Y-19434726D01*
X38795622Y-19410317D01*
X38759358Y-19300880D01*
X38759356Y-19300875D01*
X38667315Y-19151654D01*
X38543345Y-19027684D01*
X38394124Y-18935643D01*
X38394119Y-18935641D01*
X38227697Y-18880494D01*
X38227690Y-18880493D01*
X38124986Y-18870000D01*
X37850000Y-18870000D01*
X37850000Y-19620000D01*
X37350000Y-19620000D01*
X37350000Y-18870000D01*
X37075029Y-18870000D01*
X37075012Y-18870001D01*
X36972302Y-18880494D01*
X36805880Y-18935641D01*
X36805875Y-18935643D01*
X36656654Y-19027684D01*
X36532684Y-19151654D01*
X36440643Y-19300875D01*
X36440641Y-19300880D01*
X36385494Y-19467302D01*
X36385493Y-19467309D01*
X36375000Y-19570013D01*
X35015647Y-19570013D01*
X35067317Y-19518343D01*
X35077541Y-19501768D01*
X35077541Y-19501767D01*
X35159356Y-19369124D01*
X35159358Y-19369119D01*
X35214505Y-19202697D01*
X35214506Y-19202690D01*
X35224999Y-19099986D01*
X35225000Y-19099973D01*
X35225000Y-19050000D01*
X34124000Y-19050000D01*
X34056961Y-19030315D01*
X34011206Y-18977511D01*
X34000000Y-18926000D01*
X34000000Y-18674000D01*
X34019685Y-18606961D01*
X34072489Y-18561206D01*
X34124000Y-18550000D01*
X35224999Y-18550000D01*
X35224999Y-18500028D01*
X35224998Y-18500013D01*
X35214505Y-18397302D01*
X35159358Y-18230880D01*
X35159356Y-18230875D01*
X35067315Y-18081654D01*
X34997842Y-18012181D01*
X34964357Y-17950858D01*
X34969341Y-17881166D01*
X35011213Y-17825233D01*
X35076677Y-17800816D01*
X35085523Y-17800500D01*
X50069903Y-17800500D01*
X50136942Y-17820185D01*
G37*
%TD.AperFunction*%
%TA.AperFunction,Conductor*%
G36*
X32342540Y-26595185D02*
G01*
X32388295Y-26647989D01*
X32399501Y-26699500D01*
X32399501Y-26764363D01*
X32414953Y-26881753D01*
X32414957Y-26881765D01*
X32423566Y-26902550D01*
X32431033Y-26972019D01*
X32423566Y-26997450D01*
X32414957Y-27018234D01*
X32414955Y-27018239D01*
X32399500Y-27135638D01*
X32399500Y-27200500D01*
X32379815Y-27267539D01*
X32327011Y-27313294D01*
X32275500Y-27324500D01*
X32145943Y-27324500D01*
X31993215Y-27365423D01*
X31993214Y-27365423D01*
X31993212Y-27365424D01*
X31993209Y-27365425D01*
X31946813Y-27392213D01*
X31946812Y-27392214D01*
X31905055Y-27416322D01*
X31856285Y-27444479D01*
X31856282Y-27444481D01*
X31369481Y-27931282D01*
X31369480Y-27931284D01*
X31334013Y-27992715D01*
X31290423Y-28068215D01*
X31249499Y-28220943D01*
X31249499Y-28220945D01*
X31249499Y-28389046D01*
X31249500Y-28389059D01*
X31249500Y-28499903D01*
X31229815Y-28566942D01*
X31213181Y-28587584D01*
X31187584Y-28613181D01*
X31126261Y-28646666D01*
X31099903Y-28649500D01*
X31024500Y-28649500D01*
X30957461Y-28629815D01*
X30911706Y-28577011D01*
X30900500Y-28525500D01*
X30900499Y-27474998D01*
X30900498Y-27474980D01*
X30889999Y-27372203D01*
X30889998Y-27372200D01*
X30882689Y-27350142D01*
X30834814Y-27205666D01*
X30742712Y-27056344D01*
X30618656Y-26932288D01*
X30469334Y-26840186D01*
X30399983Y-26817205D01*
X30342539Y-26777433D01*
X30315716Y-26712917D01*
X30328031Y-26644142D01*
X30375574Y-26592942D01*
X30438988Y-26575500D01*
X32275501Y-26575500D01*
X32342540Y-26595185D01*
G37*
%TD.AperFunction*%
%TA.AperFunction,Conductor*%
G36*
X29428050Y-26595185D02*
G01*
X29473805Y-26647989D01*
X29483749Y-26717147D01*
X29454724Y-26780703D01*
X29400017Y-26817205D01*
X29330669Y-26840185D01*
X29330666Y-26840186D01*
X29330663Y-26840187D01*
X29181342Y-26932289D01*
X29057288Y-27056343D01*
X29057283Y-27056349D01*
X29055241Y-27059661D01*
X29053247Y-27061453D01*
X29052807Y-27062011D01*
X29052711Y-27061935D01*
X29003291Y-27106383D01*
X28934328Y-27117602D01*
X28870247Y-27089755D01*
X28844168Y-27059656D01*
X28842319Y-27056659D01*
X28842316Y-27056655D01*
X28718345Y-26932684D01*
X28569124Y-26840643D01*
X28569119Y-26840641D01*
X28498395Y-26817206D01*
X28440950Y-26777434D01*
X28414127Y-26712918D01*
X28426442Y-26644142D01*
X28473985Y-26592942D01*
X28537399Y-26575500D01*
X29361011Y-26575500D01*
X29428050Y-26595185D01*
G37*
%TD.AperFunction*%
%TA.AperFunction,Conductor*%
G36*
X32981516Y-17820185D02*
G01*
X33027271Y-17872989D01*
X33037215Y-17942147D01*
X33008190Y-18005703D01*
X33002158Y-18012181D01*
X32932684Y-18081654D01*
X32840643Y-18230875D01*
X32840642Y-18230878D01*
X32807732Y-18330193D01*
X32767959Y-18387638D01*
X32703443Y-18414460D01*
X32634667Y-18402145D01*
X32624929Y-18396727D01*
X32570986Y-18363454D01*
X32570981Y-18363452D01*
X32410106Y-18310144D01*
X32310822Y-18300000D01*
X31587500Y-18300000D01*
X31587500Y-19126000D01*
X31567815Y-19193039D01*
X31515011Y-19238794D01*
X31463500Y-19250000D01*
X31337500Y-19250000D01*
X31337500Y-19376000D01*
X31317815Y-19443039D01*
X31265011Y-19488794D01*
X31213500Y-19500000D01*
X30380230Y-19500000D01*
X30313191Y-19480315D01*
X30299027Y-19469712D01*
X30285799Y-19458250D01*
X30285797Y-19458248D01*
X30285794Y-19458246D01*
X30285790Y-19458244D01*
X30154919Y-19398476D01*
X30154914Y-19398475D01*
X30012500Y-19378000D01*
X25887500Y-19378000D01*
X25887497Y-19378000D01*
X25815559Y-19383144D01*
X25677505Y-19423682D01*
X25556469Y-19501467D01*
X25556465Y-19501471D01*
X25462250Y-19610200D01*
X25462244Y-19610209D01*
X25402476Y-19741080D01*
X25402475Y-19741085D01*
X25381999Y-19883507D01*
X25381938Y-19884360D01*
X25381837Y-19884628D01*
X25381370Y-19887883D01*
X25380661Y-19887781D01*
X25357514Y-19949821D01*
X25301576Y-19991687D01*
X25258255Y-19999500D01*
X21649097Y-19999500D01*
X21582058Y-19979815D01*
X21536303Y-19927011D01*
X21526359Y-19857853D01*
X21555384Y-19794297D01*
X21561416Y-19787819D01*
X22372558Y-18976677D01*
X29687500Y-18976677D01*
X29687500Y-19000000D01*
X31087500Y-19000000D01*
X31087500Y-18300000D01*
X30364192Y-18300000D01*
X30364176Y-18300001D01*
X30264892Y-18310144D01*
X30104018Y-18363452D01*
X30104007Y-18363457D01*
X29959771Y-18452424D01*
X29959767Y-18452427D01*
X29839927Y-18572267D01*
X29839924Y-18572271D01*
X29750957Y-18716507D01*
X29750952Y-18716518D01*
X29697644Y-18877393D01*
X29687500Y-18976677D01*
X22372558Y-18976677D01*
X23512416Y-17836819D01*
X23573739Y-17803334D01*
X23600097Y-17800500D01*
X32914477Y-17800500D01*
X32981516Y-17820185D01*
G37*
%TD.AperFunction*%
%TD*%
M02*
