%TF.GenerationSoftware,KiCad,Pcbnew,9.0.6*%
%TF.CreationDate,2026-03-31T07:19:28-07:00*%
%TF.ProjectId,hub-carrier-board,6875622d-6361-4727-9269-65722d626f61,2*%
%TF.SameCoordinates,Original*%
%TF.FileFunction,Legend,Top*%
%TF.FilePolarity,Positive*%
%FSLAX46Y46*%
G04 Gerber Fmt 4.6, Leading zero omitted, Abs format (unit mm)*
G04 Created by KiCad (PCBNEW 9.0.6) date 2026-03-31 07:19:28*
%MOMM*%
%LPD*%
G01*
G04 APERTURE LIST*
G04 Aperture macros list*
%AMRoundRect*
0 Rectangle with rounded corners*
0 $1 Rounding radius*
0 $2 $3 $4 $5 $6 $7 $8 $9 X,Y pos of 4 corners*
0 Add a 4 corners polygon primitive as box body*
4,1,4,$2,$3,$4,$5,$6,$7,$8,$9,$2,$3,0*
0 Add four circle primitives for the rounded corners*
1,1,$1+$1,$2,$3*
1,1,$1+$1,$4,$5*
1,1,$1+$1,$6,$7*
1,1,$1+$1,$8,$9*
0 Add four rect primitives between the rounded corners*
20,1,$1+$1,$2,$3,$4,$5,0*
20,1,$1+$1,$4,$5,$6,$7,0*
20,1,$1+$1,$6,$7,$8,$9,0*
20,1,$1+$1,$8,$9,$2,$3,0*%
G04 Aperture macros list end*
%ADD10C,0.100000*%
%ADD11C,0.150000*%
%ADD12C,0.000250*%
%ADD13C,0.120000*%
%ADD14C,0.000000*%
%ADD15C,0.250000*%
%ADD16C,0.127000*%
%ADD17C,0.200000*%
%ADD18RoundRect,0.250000X-1.500000X-0.550000X1.500000X-0.550000X1.500000X0.550000X-1.500000X0.550000X0*%
%ADD19RoundRect,0.250000X0.625000X-0.350000X0.625000X0.350000X-0.625000X0.350000X-0.625000X-0.350000X0*%
%ADD20O,1.750000X1.200000*%
%ADD21RoundRect,0.135000X-0.185000X0.135000X-0.185000X-0.135000X0.185000X-0.135000X0.185000X0.135000X0*%
%ADD22RoundRect,0.150000X0.625000X-0.150000X0.625000X0.150000X-0.625000X0.150000X-0.625000X-0.150000X0*%
%ADD23RoundRect,0.250000X0.650000X-0.350000X0.650000X0.350000X-0.650000X0.350000X-0.650000X-0.350000X0*%
%ADD24C,1.000000*%
%ADD25RoundRect,0.250000X-0.250000X-0.475000X0.250000X-0.475000X0.250000X0.475000X-0.250000X0.475000X0*%
%ADD26R,0.300000X0.500000*%
%ADD27R,1.750000X1.050000*%
%ADD28C,0.660000*%
%ADD29O,1.000000X0.580000*%
%ADD30RoundRect,0.075000X-0.075000X-0.425000X0.075000X-0.425000X0.075000X0.425000X-0.075000X0.425000X0*%
%ADD31C,1.100000*%
%ADD32RoundRect,0.250000X0.337500X0.475000X-0.337500X0.475000X-0.337500X-0.475000X0.337500X-0.475000X0*%
%ADD33RoundRect,0.150000X0.512500X0.150000X-0.512500X0.150000X-0.512500X-0.150000X0.512500X-0.150000X0*%
%ADD34C,4.500000*%
%ADD35RoundRect,0.140000X0.140000X0.170000X-0.140000X0.170000X-0.140000X-0.170000X0.140000X-0.170000X0*%
%ADD36C,5.400000*%
%ADD37RoundRect,0.250000X0.600000X0.600000X-0.600000X0.600000X-0.600000X-0.600000X0.600000X-0.600000X0*%
%ADD38C,1.700000*%
%ADD39R,0.800000X0.700000*%
%ADD40RoundRect,0.250000X2.100000X-0.340000X2.100000X0.340000X-2.100000X0.340000X-2.100000X-0.340000X0*%
%ADD41R,1.200000X1.400000*%
%ADD42RoundRect,0.250000X0.250000X0.475000X-0.250000X0.475000X-0.250000X-0.475000X0.250000X-0.475000X0*%
%ADD43RoundRect,0.250000X0.475000X-0.250000X0.475000X0.250000X-0.475000X0.250000X-0.475000X-0.250000X0*%
%ADD44RoundRect,0.135000X0.185000X-0.135000X0.185000X0.135000X-0.185000X0.135000X-0.185000X-0.135000X0*%
%ADD45RoundRect,0.100000X0.225000X0.100000X-0.225000X0.100000X-0.225000X-0.100000X0.225000X-0.100000X0*%
%ADD46RoundRect,0.250000X-0.925000X0.412500X-0.925000X-0.412500X0.925000X-0.412500X0.925000X0.412500X0*%
%ADD47RoundRect,0.135000X0.135000X0.185000X-0.135000X0.185000X-0.135000X-0.185000X0.135000X-0.185000X0*%
%ADD48C,1.150000*%
%ADD49C,1.650000*%
%ADD50RoundRect,0.102000X-0.150000X-0.775000X0.150000X-0.775000X0.150000X0.775000X-0.150000X0.775000X0*%
%ADD51RoundRect,0.102000X-0.600000X-1.375000X0.600000X-1.375000X0.600000X1.375000X-0.600000X1.375000X0*%
%ADD52RoundRect,0.140000X0.170000X-0.140000X0.170000X0.140000X-0.170000X0.140000X-0.170000X-0.140000X0*%
%ADD53RoundRect,0.135000X-0.135000X-0.185000X0.135000X-0.185000X0.135000X0.185000X-0.135000X0.185000X0*%
%ADD54R,1.200000X0.700000*%
%ADD55R,0.950000X1.300000*%
%ADD56C,1.200000*%
%ADD57R,1.000000X1.500000*%
%ADD58R,0.700000X0.800000*%
%ADD59RoundRect,0.125000X-0.175000X-0.125000X0.175000X-0.125000X0.175000X0.125000X-0.175000X0.125000X0*%
%ADD60C,0.900000*%
%ADD61C,6.400000*%
%ADD62C,6.000000*%
%ADD63C,5.700000*%
%ADD64C,6.100000*%
G04 APERTURE END LIST*
D10*
X51980000Y19280000D02*
X52960000Y19280000D01*
X52960000Y19280000D02*
X53630000Y19950000D01*
D11*
X25033333Y7240420D02*
X24985714Y7192800D01*
X24985714Y7192800D02*
X24842857Y7145181D01*
X24842857Y7145181D02*
X24747619Y7145181D01*
X24747619Y7145181D02*
X24604762Y7192800D01*
X24604762Y7192800D02*
X24509524Y7288039D01*
X24509524Y7288039D02*
X24461905Y7383277D01*
X24461905Y7383277D02*
X24414286Y7573753D01*
X24414286Y7573753D02*
X24414286Y7716610D01*
X24414286Y7716610D02*
X24461905Y7907086D01*
X24461905Y7907086D02*
X24509524Y8002324D01*
X24509524Y8002324D02*
X24604762Y8097562D01*
X24604762Y8097562D02*
X24747619Y8145181D01*
X24747619Y8145181D02*
X24842857Y8145181D01*
X24842857Y8145181D02*
X24985714Y8097562D01*
X24985714Y8097562D02*
X25033333Y8049943D01*
X25985714Y7145181D02*
X25414286Y7145181D01*
X25700000Y7145181D02*
X25700000Y8145181D01*
X25700000Y8145181D02*
X25604762Y8002324D01*
X25604762Y8002324D02*
X25509524Y7907086D01*
X25509524Y7907086D02*
X25414286Y7859467D01*
X5604819Y4066667D02*
X6319104Y4066667D01*
X6319104Y4066667D02*
X6461961Y4019048D01*
X6461961Y4019048D02*
X6557200Y3923810D01*
X6557200Y3923810D02*
X6604819Y3780953D01*
X6604819Y3780953D02*
X6604819Y3685715D01*
X5700057Y4495239D02*
X5652438Y4542858D01*
X5652438Y4542858D02*
X5604819Y4638096D01*
X5604819Y4638096D02*
X5604819Y4876191D01*
X5604819Y4876191D02*
X5652438Y4971429D01*
X5652438Y4971429D02*
X5700057Y5019048D01*
X5700057Y5019048D02*
X5795295Y5066667D01*
X5795295Y5066667D02*
X5890533Y5066667D01*
X5890533Y5066667D02*
X6033390Y5019048D01*
X6033390Y5019048D02*
X6604819Y4447620D01*
X6604819Y4447620D02*
X6604819Y5066667D01*
D12*
X50002262Y28263936D02*
X50002262Y28264936D01*
X50002357Y28264317D02*
X50002643Y28263936D01*
X50002643Y28264603D02*
X50002262Y28264222D01*
X50003072Y28263936D02*
X50003072Y28264603D01*
X50003072Y28264936D02*
X50003024Y28264888D01*
X50003024Y28264888D02*
X50003072Y28264841D01*
X50003072Y28264841D02*
X50003119Y28264888D01*
X50003119Y28264888D02*
X50003072Y28264936D01*
X50003072Y28264936D02*
X50003072Y28264841D01*
X50003548Y28263936D02*
X50003548Y28264936D01*
X50003548Y28264555D02*
X50003643Y28264603D01*
X50003643Y28264603D02*
X50003833Y28264603D01*
X50003833Y28264603D02*
X50003929Y28264555D01*
X50003929Y28264555D02*
X50003976Y28264507D01*
X50003976Y28264507D02*
X50004024Y28264412D01*
X50004024Y28264412D02*
X50004024Y28264126D01*
X50004024Y28264126D02*
X50003976Y28264031D01*
X50003976Y28264031D02*
X50003929Y28263983D01*
X50003929Y28263983D02*
X50003833Y28263936D01*
X50003833Y28263936D02*
X50003643Y28263936D01*
X50003643Y28263936D02*
X50003548Y28263983D01*
X50004881Y28264603D02*
X50004881Y28263936D01*
X50004453Y28264603D02*
X50004453Y28264079D01*
X50004453Y28264079D02*
X50004500Y28263983D01*
X50004500Y28263983D02*
X50004595Y28263936D01*
X50004595Y28263936D02*
X50004738Y28263936D01*
X50004738Y28263936D02*
X50004834Y28263983D01*
X50004834Y28263983D02*
X50004881Y28264031D01*
X50005262Y28264603D02*
X50005786Y28264603D01*
X50005786Y28264603D02*
X50005262Y28263936D01*
X50005262Y28263936D02*
X50005786Y28263936D01*
X50006072Y28264603D02*
X50006596Y28264603D01*
X50006596Y28264603D02*
X50006072Y28263936D01*
X50006072Y28263936D02*
X50006596Y28263936D01*
X50007406Y28263936D02*
X50007406Y28264460D01*
X50007406Y28264460D02*
X50007359Y28264555D01*
X50007359Y28264555D02*
X50007263Y28264603D01*
X50007263Y28264603D02*
X50007073Y28264603D01*
X50007073Y28264603D02*
X50006978Y28264555D01*
X50007406Y28263983D02*
X50007311Y28263936D01*
X50007311Y28263936D02*
X50007073Y28263936D01*
X50007073Y28263936D02*
X50006978Y28263983D01*
X50006978Y28263983D02*
X50006930Y28264079D01*
X50006930Y28264079D02*
X50006930Y28264174D01*
X50006930Y28264174D02*
X50006978Y28264269D01*
X50006978Y28264269D02*
X50007073Y28264317D01*
X50007073Y28264317D02*
X50007311Y28264317D01*
X50007311Y28264317D02*
X50007406Y28264364D01*
X50007883Y28263936D02*
X50007883Y28264603D01*
X50007883Y28264412D02*
X50007930Y28264507D01*
X50007930Y28264507D02*
X50007978Y28264555D01*
X50007978Y28264555D02*
X50008073Y28264603D01*
X50008073Y28264603D02*
X50008168Y28264603D01*
X50008930Y28263936D02*
X50008930Y28264936D01*
X50008930Y28263983D02*
X50008835Y28263936D01*
X50008835Y28263936D02*
X50008644Y28263936D01*
X50008644Y28263936D02*
X50008549Y28263983D01*
X50008549Y28263983D02*
X50008502Y28264031D01*
X50008502Y28264031D02*
X50008454Y28264126D01*
X50008454Y28264126D02*
X50008454Y28264412D01*
X50008454Y28264412D02*
X50008502Y28264507D01*
X50008502Y28264507D02*
X50008549Y28264555D01*
X50008549Y28264555D02*
X50008644Y28264603D01*
X50008644Y28264603D02*
X50008835Y28264603D01*
X50008835Y28264603D02*
X50008930Y28264555D01*
X50009407Y28264317D02*
X50010169Y28264317D01*
X50011073Y28264936D02*
X50010883Y28264936D01*
X50010883Y28264936D02*
X50010787Y28264888D01*
X50010787Y28264888D02*
X50010740Y28264841D01*
X50010740Y28264841D02*
X50010645Y28264698D01*
X50010645Y28264698D02*
X50010597Y28264507D01*
X50010597Y28264507D02*
X50010597Y28264126D01*
X50010597Y28264126D02*
X50010645Y28264031D01*
X50010645Y28264031D02*
X50010692Y28263983D01*
X50010692Y28263983D02*
X50010787Y28263936D01*
X50010787Y28263936D02*
X50010978Y28263936D01*
X50010978Y28263936D02*
X50011073Y28263983D01*
X50011073Y28263983D02*
X50011121Y28264031D01*
X50011121Y28264031D02*
X50011168Y28264126D01*
X50011168Y28264126D02*
X50011168Y28264364D01*
X50011168Y28264364D02*
X50011121Y28264460D01*
X50011121Y28264460D02*
X50011073Y28264507D01*
X50011073Y28264507D02*
X50010978Y28264555D01*
X50010978Y28264555D02*
X50010787Y28264555D01*
X50010787Y28264555D02*
X50010692Y28264507D01*
X50010692Y28264507D02*
X50010645Y28264460D01*
X50010645Y28264460D02*
X50010597Y28264364D01*
X50011501Y28264936D02*
X50012168Y28264936D01*
X50012168Y28264936D02*
X50011739Y28263936D01*
X50012453Y28264936D02*
X50013120Y28264936D01*
X50013120Y28264936D02*
X50012691Y28263936D01*
X50013405Y28264936D02*
X50014024Y28264936D01*
X50014024Y28264936D02*
X50013691Y28264555D01*
X50013691Y28264555D02*
X50013834Y28264555D01*
X50013834Y28264555D02*
X50013929Y28264507D01*
X50013929Y28264507D02*
X50013977Y28264460D01*
X50013977Y28264460D02*
X50014024Y28264364D01*
X50014024Y28264364D02*
X50014024Y28264126D01*
X50014024Y28264126D02*
X50013977Y28264031D01*
X50013977Y28264031D02*
X50013929Y28263983D01*
X50013929Y28263983D02*
X50013834Y28263936D01*
X50013834Y28263936D02*
X50013548Y28263936D01*
X50013548Y28263936D02*
X50013453Y28263983D01*
X50013453Y28263983D02*
X50013405Y28264031D01*
X50014786Y28264460D02*
X50014929Y28264412D01*
X50014929Y28264412D02*
X50014976Y28264364D01*
X50014976Y28264364D02*
X50015024Y28264269D01*
X50015024Y28264269D02*
X50015024Y28264126D01*
X50015024Y28264126D02*
X50014976Y28264031D01*
X50014976Y28264031D02*
X50014929Y28263983D01*
X50014929Y28263983D02*
X50014834Y28263936D01*
X50014834Y28263936D02*
X50014453Y28263936D01*
X50014453Y28263936D02*
X50014453Y28264936D01*
X50014453Y28264936D02*
X50014786Y28264936D01*
X50014786Y28264936D02*
X50014881Y28264888D01*
X50014881Y28264888D02*
X50014929Y28264841D01*
X50014929Y28264841D02*
X50014976Y28264745D01*
X50014976Y28264745D02*
X50014976Y28264650D01*
X50014976Y28264650D02*
X50014929Y28264555D01*
X50014929Y28264555D02*
X50014881Y28264507D01*
X50014881Y28264507D02*
X50014786Y28264460D01*
X50014786Y28264460D02*
X50014453Y28264460D01*
X50015405Y28264222D02*
X50015881Y28264222D01*
X50015310Y28263936D02*
X50015643Y28264936D01*
X50015643Y28264936D02*
X50015976Y28263936D01*
X50016452Y28264507D02*
X50016357Y28264555D01*
X50016357Y28264555D02*
X50016310Y28264603D01*
X50016310Y28264603D02*
X50016262Y28264698D01*
X50016262Y28264698D02*
X50016262Y28264745D01*
X50016262Y28264745D02*
X50016310Y28264841D01*
X50016310Y28264841D02*
X50016357Y28264888D01*
X50016357Y28264888D02*
X50016452Y28264936D01*
X50016452Y28264936D02*
X50016643Y28264936D01*
X50016643Y28264936D02*
X50016738Y28264888D01*
X50016738Y28264888D02*
X50016786Y28264841D01*
X50016786Y28264841D02*
X50016833Y28264745D01*
X50016833Y28264745D02*
X50016833Y28264698D01*
X50016833Y28264698D02*
X50016786Y28264603D01*
X50016786Y28264603D02*
X50016738Y28264555D01*
X50016738Y28264555D02*
X50016643Y28264507D01*
X50016643Y28264507D02*
X50016452Y28264507D01*
X50016452Y28264507D02*
X50016357Y28264460D01*
X50016357Y28264460D02*
X50016310Y28264412D01*
X50016310Y28264412D02*
X50016262Y28264317D01*
X50016262Y28264317D02*
X50016262Y28264126D01*
X50016262Y28264126D02*
X50016310Y28264031D01*
X50016310Y28264031D02*
X50016357Y28263983D01*
X50016357Y28263983D02*
X50016452Y28263936D01*
X50016452Y28263936D02*
X50016643Y28263936D01*
X50016643Y28263936D02*
X50016738Y28263983D01*
X50016738Y28263983D02*
X50016786Y28264031D01*
X50016786Y28264031D02*
X50016833Y28264126D01*
X50016833Y28264126D02*
X50016833Y28264317D01*
X50016833Y28264317D02*
X50016786Y28264412D01*
X50016786Y28264412D02*
X50016738Y28264460D01*
X50016738Y28264460D02*
X50016643Y28264507D01*
X50017309Y28263936D02*
X50017500Y28263936D01*
X50017500Y28263936D02*
X50017595Y28263983D01*
X50017595Y28263983D02*
X50017643Y28264031D01*
X50017643Y28264031D02*
X50017738Y28264174D01*
X50017738Y28264174D02*
X50017785Y28264364D01*
X50017785Y28264364D02*
X50017785Y28264745D01*
X50017785Y28264745D02*
X50017738Y28264841D01*
X50017738Y28264841D02*
X50017690Y28264888D01*
X50017690Y28264888D02*
X50017595Y28264936D01*
X50017595Y28264936D02*
X50017404Y28264936D01*
X50017404Y28264936D02*
X50017309Y28264888D01*
X50017309Y28264888D02*
X50017262Y28264841D01*
X50017262Y28264841D02*
X50017214Y28264745D01*
X50017214Y28264745D02*
X50017214Y28264507D01*
X50017214Y28264507D02*
X50017262Y28264412D01*
X50017262Y28264412D02*
X50017309Y28264364D01*
X50017309Y28264364D02*
X50017404Y28264317D01*
X50017404Y28264317D02*
X50017595Y28264317D01*
X50017595Y28264317D02*
X50017690Y28264364D01*
X50017690Y28264364D02*
X50017738Y28264412D01*
X50017738Y28264412D02*
X50017785Y28264507D01*
D11*
X17320833Y8160420D02*
X17273214Y8112800D01*
X17273214Y8112800D02*
X17130357Y8065181D01*
X17130357Y8065181D02*
X17035119Y8065181D01*
X17035119Y8065181D02*
X16892262Y8112800D01*
X16892262Y8112800D02*
X16797024Y8208039D01*
X16797024Y8208039D02*
X16749405Y8303277D01*
X16749405Y8303277D02*
X16701786Y8493753D01*
X16701786Y8493753D02*
X16701786Y8636610D01*
X16701786Y8636610D02*
X16749405Y8827086D01*
X16749405Y8827086D02*
X16797024Y8922324D01*
X16797024Y8922324D02*
X16892262Y9017562D01*
X16892262Y9017562D02*
X17035119Y9065181D01*
X17035119Y9065181D02*
X17130357Y9065181D01*
X17130357Y9065181D02*
X17273214Y9017562D01*
X17273214Y9017562D02*
X17320833Y8969943D01*
X17701786Y8969943D02*
X17749405Y9017562D01*
X17749405Y9017562D02*
X17844643Y9065181D01*
X17844643Y9065181D02*
X18082738Y9065181D01*
X18082738Y9065181D02*
X18177976Y9017562D01*
X18177976Y9017562D02*
X18225595Y8969943D01*
X18225595Y8969943D02*
X18273214Y8874705D01*
X18273214Y8874705D02*
X18273214Y8779467D01*
X18273214Y8779467D02*
X18225595Y8636610D01*
X18225595Y8636610D02*
X17654167Y8065181D01*
X17654167Y8065181D02*
X18273214Y8065181D01*
D12*
X49892143Y49308948D02*
X49892143Y49309948D01*
X49892238Y49309329D02*
X49892524Y49308948D01*
X49892524Y49309615D02*
X49892143Y49309234D01*
X49892953Y49308948D02*
X49892953Y49309615D01*
X49892953Y49309948D02*
X49892905Y49309900D01*
X49892905Y49309900D02*
X49892953Y49309853D01*
X49892953Y49309853D02*
X49893000Y49309900D01*
X49893000Y49309900D02*
X49892953Y49309948D01*
X49892953Y49309948D02*
X49892953Y49309853D01*
X49893429Y49308948D02*
X49893429Y49309948D01*
X49893429Y49309567D02*
X49893524Y49309615D01*
X49893524Y49309615D02*
X49893714Y49309615D01*
X49893714Y49309615D02*
X49893810Y49309567D01*
X49893810Y49309567D02*
X49893857Y49309519D01*
X49893857Y49309519D02*
X49893905Y49309424D01*
X49893905Y49309424D02*
X49893905Y49309138D01*
X49893905Y49309138D02*
X49893857Y49309043D01*
X49893857Y49309043D02*
X49893810Y49308995D01*
X49893810Y49308995D02*
X49893714Y49308948D01*
X49893714Y49308948D02*
X49893524Y49308948D01*
X49893524Y49308948D02*
X49893429Y49308995D01*
X49894762Y49309615D02*
X49894762Y49308948D01*
X49894334Y49309615D02*
X49894334Y49309091D01*
X49894334Y49309091D02*
X49894381Y49308995D01*
X49894381Y49308995D02*
X49894476Y49308948D01*
X49894476Y49308948D02*
X49894619Y49308948D01*
X49894619Y49308948D02*
X49894715Y49308995D01*
X49894715Y49308995D02*
X49894762Y49309043D01*
X49895143Y49309615D02*
X49895667Y49309615D01*
X49895667Y49309615D02*
X49895143Y49308948D01*
X49895143Y49308948D02*
X49895667Y49308948D01*
X49895953Y49309615D02*
X49896477Y49309615D01*
X49896477Y49309615D02*
X49895953Y49308948D01*
X49895953Y49308948D02*
X49896477Y49308948D01*
X49897287Y49308948D02*
X49897287Y49309472D01*
X49897287Y49309472D02*
X49897240Y49309567D01*
X49897240Y49309567D02*
X49897144Y49309615D01*
X49897144Y49309615D02*
X49896954Y49309615D01*
X49896954Y49309615D02*
X49896859Y49309567D01*
X49897287Y49308995D02*
X49897192Y49308948D01*
X49897192Y49308948D02*
X49896954Y49308948D01*
X49896954Y49308948D02*
X49896859Y49308995D01*
X49896859Y49308995D02*
X49896811Y49309091D01*
X49896811Y49309091D02*
X49896811Y49309186D01*
X49896811Y49309186D02*
X49896859Y49309281D01*
X49896859Y49309281D02*
X49896954Y49309329D01*
X49896954Y49309329D02*
X49897192Y49309329D01*
X49897192Y49309329D02*
X49897287Y49309376D01*
X49897764Y49308948D02*
X49897764Y49309615D01*
X49897764Y49309424D02*
X49897811Y49309519D01*
X49897811Y49309519D02*
X49897859Y49309567D01*
X49897859Y49309567D02*
X49897954Y49309615D01*
X49897954Y49309615D02*
X49898049Y49309615D01*
X49898811Y49308948D02*
X49898811Y49309948D01*
X49898811Y49308995D02*
X49898716Y49308948D01*
X49898716Y49308948D02*
X49898525Y49308948D01*
X49898525Y49308948D02*
X49898430Y49308995D01*
X49898430Y49308995D02*
X49898383Y49309043D01*
X49898383Y49309043D02*
X49898335Y49309138D01*
X49898335Y49309138D02*
X49898335Y49309424D01*
X49898335Y49309424D02*
X49898383Y49309519D01*
X49898383Y49309519D02*
X49898430Y49309567D01*
X49898430Y49309567D02*
X49898525Y49309615D01*
X49898525Y49309615D02*
X49898716Y49309615D01*
X49898716Y49309615D02*
X49898811Y49309567D01*
X49899288Y49309329D02*
X49900050Y49309329D01*
X49900954Y49309948D02*
X49900764Y49309948D01*
X49900764Y49309948D02*
X49900668Y49309900D01*
X49900668Y49309900D02*
X49900621Y49309853D01*
X49900621Y49309853D02*
X49900526Y49309710D01*
X49900526Y49309710D02*
X49900478Y49309519D01*
X49900478Y49309519D02*
X49900478Y49309138D01*
X49900478Y49309138D02*
X49900526Y49309043D01*
X49900526Y49309043D02*
X49900573Y49308995D01*
X49900573Y49308995D02*
X49900668Y49308948D01*
X49900668Y49308948D02*
X49900859Y49308948D01*
X49900859Y49308948D02*
X49900954Y49308995D01*
X49900954Y49308995D02*
X49901002Y49309043D01*
X49901002Y49309043D02*
X49901049Y49309138D01*
X49901049Y49309138D02*
X49901049Y49309376D01*
X49901049Y49309376D02*
X49901002Y49309472D01*
X49901002Y49309472D02*
X49900954Y49309519D01*
X49900954Y49309519D02*
X49900859Y49309567D01*
X49900859Y49309567D02*
X49900668Y49309567D01*
X49900668Y49309567D02*
X49900573Y49309519D01*
X49900573Y49309519D02*
X49900526Y49309472D01*
X49900526Y49309472D02*
X49900478Y49309376D01*
X49901382Y49309948D02*
X49902049Y49309948D01*
X49902049Y49309948D02*
X49901620Y49308948D01*
X49903001Y49309043D02*
X49902953Y49308995D01*
X49902953Y49308995D02*
X49902811Y49308948D01*
X49902811Y49308948D02*
X49902715Y49308948D01*
X49902715Y49308948D02*
X49902572Y49308995D01*
X49902572Y49308995D02*
X49902477Y49309091D01*
X49902477Y49309091D02*
X49902430Y49309186D01*
X49902430Y49309186D02*
X49902382Y49309376D01*
X49902382Y49309376D02*
X49902382Y49309519D01*
X49902382Y49309519D02*
X49902430Y49309710D01*
X49902430Y49309710D02*
X49902477Y49309805D01*
X49902477Y49309805D02*
X49902572Y49309900D01*
X49902572Y49309900D02*
X49902715Y49309948D01*
X49902715Y49309948D02*
X49902811Y49309948D01*
X49902811Y49309948D02*
X49902953Y49309900D01*
X49902953Y49309900D02*
X49903001Y49309853D01*
X49904001Y49309043D02*
X49903953Y49308995D01*
X49903953Y49308995D02*
X49903811Y49308948D01*
X49903811Y49308948D02*
X49903715Y49308948D01*
X49903715Y49308948D02*
X49903572Y49308995D01*
X49903572Y49308995D02*
X49903477Y49309091D01*
X49903477Y49309091D02*
X49903430Y49309186D01*
X49903430Y49309186D02*
X49903382Y49309376D01*
X49903382Y49309376D02*
X49903382Y49309519D01*
X49903382Y49309519D02*
X49903430Y49309710D01*
X49903430Y49309710D02*
X49903477Y49309805D01*
X49903477Y49309805D02*
X49903572Y49309900D01*
X49903572Y49309900D02*
X49903715Y49309948D01*
X49903715Y49309948D02*
X49903811Y49309948D01*
X49903811Y49309948D02*
X49903953Y49309900D01*
X49903953Y49309900D02*
X49904001Y49309853D01*
X49904858Y49309948D02*
X49904668Y49309948D01*
X49904668Y49309948D02*
X49904572Y49309900D01*
X49904572Y49309900D02*
X49904525Y49309853D01*
X49904525Y49309853D02*
X49904430Y49309710D01*
X49904430Y49309710D02*
X49904382Y49309519D01*
X49904382Y49309519D02*
X49904382Y49309138D01*
X49904382Y49309138D02*
X49904430Y49309043D01*
X49904430Y49309043D02*
X49904477Y49308995D01*
X49904477Y49308995D02*
X49904572Y49308948D01*
X49904572Y49308948D02*
X49904763Y49308948D01*
X49904763Y49308948D02*
X49904858Y49308995D01*
X49904858Y49308995D02*
X49904906Y49309043D01*
X49904906Y49309043D02*
X49904953Y49309138D01*
X49904953Y49309138D02*
X49904953Y49309376D01*
X49904953Y49309376D02*
X49904906Y49309472D01*
X49904906Y49309472D02*
X49904858Y49309519D01*
X49904858Y49309519D02*
X49904763Y49309567D01*
X49904763Y49309567D02*
X49904572Y49309567D01*
X49904572Y49309567D02*
X49904477Y49309519D01*
X49904477Y49309519D02*
X49904430Y49309472D01*
X49904430Y49309472D02*
X49904382Y49309376D01*
X49905715Y49309472D02*
X49905858Y49309424D01*
X49905858Y49309424D02*
X49905905Y49309376D01*
X49905905Y49309376D02*
X49905953Y49309281D01*
X49905953Y49309281D02*
X49905953Y49309138D01*
X49905953Y49309138D02*
X49905905Y49309043D01*
X49905905Y49309043D02*
X49905858Y49308995D01*
X49905858Y49308995D02*
X49905763Y49308948D01*
X49905763Y49308948D02*
X49905382Y49308948D01*
X49905382Y49308948D02*
X49905382Y49309948D01*
X49905382Y49309948D02*
X49905715Y49309948D01*
X49905715Y49309948D02*
X49905810Y49309900D01*
X49905810Y49309900D02*
X49905858Y49309853D01*
X49905858Y49309853D02*
X49905905Y49309757D01*
X49905905Y49309757D02*
X49905905Y49309662D01*
X49905905Y49309662D02*
X49905858Y49309567D01*
X49905858Y49309567D02*
X49905810Y49309519D01*
X49905810Y49309519D02*
X49905715Y49309472D01*
X49905715Y49309472D02*
X49905382Y49309472D01*
X49906382Y49308948D02*
X49906382Y49309948D01*
X49906382Y49309948D02*
X49906620Y49309948D01*
X49906620Y49309948D02*
X49906763Y49309900D01*
X49906763Y49309900D02*
X49906858Y49309805D01*
X49906858Y49309805D02*
X49906905Y49309710D01*
X49906905Y49309710D02*
X49906953Y49309519D01*
X49906953Y49309519D02*
X49906953Y49309376D01*
X49906953Y49309376D02*
X49906905Y49309186D01*
X49906905Y49309186D02*
X49906858Y49309091D01*
X49906858Y49309091D02*
X49906763Y49308995D01*
X49906763Y49308995D02*
X49906620Y49308948D01*
X49906620Y49308948D02*
X49906382Y49308948D01*
X49907286Y49309948D02*
X49907905Y49309948D01*
X49907905Y49309948D02*
X49907572Y49309567D01*
X49907572Y49309567D02*
X49907715Y49309567D01*
X49907715Y49309567D02*
X49907810Y49309519D01*
X49907810Y49309519D02*
X49907858Y49309472D01*
X49907858Y49309472D02*
X49907905Y49309376D01*
X49907905Y49309376D02*
X49907905Y49309138D01*
X49907905Y49309138D02*
X49907858Y49309043D01*
X49907858Y49309043D02*
X49907810Y49308995D01*
X49907810Y49308995D02*
X49907715Y49308948D01*
X49907715Y49308948D02*
X49907429Y49308948D01*
X49907429Y49308948D02*
X49907334Y49308995D01*
X49907334Y49308995D02*
X49907286Y49309043D01*
D11*
X1096666Y975181D02*
X1096666Y260896D01*
X1096666Y260896D02*
X1049047Y118039D01*
X1049047Y118039D02*
X953809Y22800D01*
X953809Y22800D02*
X810952Y-24819D01*
X810952Y-24819D02*
X715714Y-24819D01*
X2096666Y-24819D02*
X1525238Y-24819D01*
X1810952Y-24819D02*
X1810952Y975181D01*
X1810952Y975181D02*
X1715714Y832324D01*
X1715714Y832324D02*
X1620476Y737086D01*
X1620476Y737086D02*
X1525238Y689467D01*
D12*
X25842238Y25468376D02*
X25842238Y25469376D01*
X25842333Y25468757D02*
X25842619Y25468376D01*
X25842619Y25469043D02*
X25842238Y25468662D01*
X25843048Y25468376D02*
X25843048Y25469043D01*
X25843048Y25469376D02*
X25843000Y25469328D01*
X25843000Y25469328D02*
X25843048Y25469281D01*
X25843048Y25469281D02*
X25843095Y25469328D01*
X25843095Y25469328D02*
X25843048Y25469376D01*
X25843048Y25469376D02*
X25843048Y25469281D01*
X25843524Y25468376D02*
X25843524Y25469376D01*
X25843524Y25468995D02*
X25843619Y25469043D01*
X25843619Y25469043D02*
X25843809Y25469043D01*
X25843809Y25469043D02*
X25843905Y25468995D01*
X25843905Y25468995D02*
X25843952Y25468947D01*
X25843952Y25468947D02*
X25844000Y25468852D01*
X25844000Y25468852D02*
X25844000Y25468566D01*
X25844000Y25468566D02*
X25843952Y25468471D01*
X25843952Y25468471D02*
X25843905Y25468423D01*
X25843905Y25468423D02*
X25843809Y25468376D01*
X25843809Y25468376D02*
X25843619Y25468376D01*
X25843619Y25468376D02*
X25843524Y25468423D01*
X25844857Y25469043D02*
X25844857Y25468376D01*
X25844429Y25469043D02*
X25844429Y25468519D01*
X25844429Y25468519D02*
X25844476Y25468423D01*
X25844476Y25468423D02*
X25844571Y25468376D01*
X25844571Y25468376D02*
X25844714Y25468376D01*
X25844714Y25468376D02*
X25844810Y25468423D01*
X25844810Y25468423D02*
X25844857Y25468471D01*
X25845238Y25469043D02*
X25845762Y25469043D01*
X25845762Y25469043D02*
X25845238Y25468376D01*
X25845238Y25468376D02*
X25845762Y25468376D01*
X25846048Y25469043D02*
X25846572Y25469043D01*
X25846572Y25469043D02*
X25846048Y25468376D01*
X25846048Y25468376D02*
X25846572Y25468376D01*
X25847382Y25468376D02*
X25847382Y25468900D01*
X25847382Y25468900D02*
X25847335Y25468995D01*
X25847335Y25468995D02*
X25847239Y25469043D01*
X25847239Y25469043D02*
X25847049Y25469043D01*
X25847049Y25469043D02*
X25846954Y25468995D01*
X25847382Y25468423D02*
X25847287Y25468376D01*
X25847287Y25468376D02*
X25847049Y25468376D01*
X25847049Y25468376D02*
X25846954Y25468423D01*
X25846954Y25468423D02*
X25846906Y25468519D01*
X25846906Y25468519D02*
X25846906Y25468614D01*
X25846906Y25468614D02*
X25846954Y25468709D01*
X25846954Y25468709D02*
X25847049Y25468757D01*
X25847049Y25468757D02*
X25847287Y25468757D01*
X25847287Y25468757D02*
X25847382Y25468804D01*
X25847859Y25468376D02*
X25847859Y25469043D01*
X25847859Y25468852D02*
X25847906Y25468947D01*
X25847906Y25468947D02*
X25847954Y25468995D01*
X25847954Y25468995D02*
X25848049Y25469043D01*
X25848049Y25469043D02*
X25848144Y25469043D01*
X25848906Y25468376D02*
X25848906Y25469376D01*
X25848906Y25468423D02*
X25848811Y25468376D01*
X25848811Y25468376D02*
X25848620Y25468376D01*
X25848620Y25468376D02*
X25848525Y25468423D01*
X25848525Y25468423D02*
X25848478Y25468471D01*
X25848478Y25468471D02*
X25848430Y25468566D01*
X25848430Y25468566D02*
X25848430Y25468852D01*
X25848430Y25468852D02*
X25848478Y25468947D01*
X25848478Y25468947D02*
X25848525Y25468995D01*
X25848525Y25468995D02*
X25848620Y25469043D01*
X25848620Y25469043D02*
X25848811Y25469043D01*
X25848811Y25469043D02*
X25848906Y25468995D01*
X25849383Y25468757D02*
X25850145Y25468757D01*
X25851049Y25469376D02*
X25850859Y25469376D01*
X25850859Y25469376D02*
X25850763Y25469328D01*
X25850763Y25469328D02*
X25850716Y25469281D01*
X25850716Y25469281D02*
X25850621Y25469138D01*
X25850621Y25469138D02*
X25850573Y25468947D01*
X25850573Y25468947D02*
X25850573Y25468566D01*
X25850573Y25468566D02*
X25850621Y25468471D01*
X25850621Y25468471D02*
X25850668Y25468423D01*
X25850668Y25468423D02*
X25850763Y25468376D01*
X25850763Y25468376D02*
X25850954Y25468376D01*
X25850954Y25468376D02*
X25851049Y25468423D01*
X25851049Y25468423D02*
X25851097Y25468471D01*
X25851097Y25468471D02*
X25851144Y25468566D01*
X25851144Y25468566D02*
X25851144Y25468804D01*
X25851144Y25468804D02*
X25851097Y25468900D01*
X25851097Y25468900D02*
X25851049Y25468947D01*
X25851049Y25468947D02*
X25850954Y25468995D01*
X25850954Y25468995D02*
X25850763Y25468995D01*
X25850763Y25468995D02*
X25850668Y25468947D01*
X25850668Y25468947D02*
X25850621Y25468900D01*
X25850621Y25468900D02*
X25850573Y25468804D01*
X25851477Y25469376D02*
X25852144Y25469376D01*
X25852144Y25469376D02*
X25851715Y25468376D01*
X25852429Y25469376D02*
X25853096Y25469376D01*
X25853096Y25469376D02*
X25852667Y25468376D01*
X25853381Y25469376D02*
X25854000Y25469376D01*
X25854000Y25469376D02*
X25853667Y25468995D01*
X25853667Y25468995D02*
X25853810Y25468995D01*
X25853810Y25468995D02*
X25853905Y25468947D01*
X25853905Y25468947D02*
X25853953Y25468900D01*
X25853953Y25468900D02*
X25854000Y25468804D01*
X25854000Y25468804D02*
X25854000Y25468566D01*
X25854000Y25468566D02*
X25853953Y25468471D01*
X25853953Y25468471D02*
X25853905Y25468423D01*
X25853905Y25468423D02*
X25853810Y25468376D01*
X25853810Y25468376D02*
X25853524Y25468376D01*
X25853524Y25468376D02*
X25853429Y25468423D01*
X25853429Y25468423D02*
X25853381Y25468471D01*
X25854762Y25468900D02*
X25854905Y25468852D01*
X25854905Y25468852D02*
X25854952Y25468804D01*
X25854952Y25468804D02*
X25855000Y25468709D01*
X25855000Y25468709D02*
X25855000Y25468566D01*
X25855000Y25468566D02*
X25854952Y25468471D01*
X25854952Y25468471D02*
X25854905Y25468423D01*
X25854905Y25468423D02*
X25854810Y25468376D01*
X25854810Y25468376D02*
X25854429Y25468376D01*
X25854429Y25468376D02*
X25854429Y25469376D01*
X25854429Y25469376D02*
X25854762Y25469376D01*
X25854762Y25469376D02*
X25854857Y25469328D01*
X25854857Y25469328D02*
X25854905Y25469281D01*
X25854905Y25469281D02*
X25854952Y25469185D01*
X25854952Y25469185D02*
X25854952Y25469090D01*
X25854952Y25469090D02*
X25854905Y25468995D01*
X25854905Y25468995D02*
X25854857Y25468947D01*
X25854857Y25468947D02*
X25854762Y25468900D01*
X25854762Y25468900D02*
X25854429Y25468900D01*
X25855476Y25468376D02*
X25855667Y25468376D01*
X25855667Y25468376D02*
X25855762Y25468423D01*
X25855762Y25468423D02*
X25855810Y25468471D01*
X25855810Y25468471D02*
X25855905Y25468614D01*
X25855905Y25468614D02*
X25855952Y25468804D01*
X25855952Y25468804D02*
X25855952Y25469185D01*
X25855952Y25469185D02*
X25855905Y25469281D01*
X25855905Y25469281D02*
X25855857Y25469328D01*
X25855857Y25469328D02*
X25855762Y25469376D01*
X25855762Y25469376D02*
X25855571Y25469376D01*
X25855571Y25469376D02*
X25855476Y25469328D01*
X25855476Y25469328D02*
X25855429Y25469281D01*
X25855429Y25469281D02*
X25855381Y25469185D01*
X25855381Y25469185D02*
X25855381Y25468947D01*
X25855381Y25468947D02*
X25855429Y25468852D01*
X25855429Y25468852D02*
X25855476Y25468804D01*
X25855476Y25468804D02*
X25855571Y25468757D01*
X25855571Y25468757D02*
X25855762Y25468757D01*
X25855762Y25468757D02*
X25855857Y25468804D01*
X25855857Y25468804D02*
X25855905Y25468852D01*
X25855905Y25468852D02*
X25855952Y25468947D01*
X25856952Y25468471D02*
X25856904Y25468423D01*
X25856904Y25468423D02*
X25856762Y25468376D01*
X25856762Y25468376D02*
X25856666Y25468376D01*
X25856666Y25468376D02*
X25856523Y25468423D01*
X25856523Y25468423D02*
X25856428Y25468519D01*
X25856428Y25468519D02*
X25856381Y25468614D01*
X25856381Y25468614D02*
X25856333Y25468804D01*
X25856333Y25468804D02*
X25856333Y25468947D01*
X25856333Y25468947D02*
X25856381Y25469138D01*
X25856381Y25469138D02*
X25856428Y25469233D01*
X25856428Y25469233D02*
X25856523Y25469328D01*
X25856523Y25469328D02*
X25856666Y25469376D01*
X25856666Y25469376D02*
X25856762Y25469376D01*
X25856762Y25469376D02*
X25856904Y25469328D01*
X25856904Y25469328D02*
X25856952Y25469281D01*
X25857333Y25468662D02*
X25857809Y25468662D01*
X25857238Y25468376D02*
X25857571Y25469376D01*
X25857571Y25469376D02*
X25857904Y25468376D01*
X35192215Y62082506D02*
X35192215Y62083506D01*
X35192310Y62082887D02*
X35192596Y62082506D01*
X35192596Y62083173D02*
X35192215Y62082792D01*
X35193025Y62082506D02*
X35193025Y62083173D01*
X35193025Y62083506D02*
X35192977Y62083458D01*
X35192977Y62083458D02*
X35193025Y62083411D01*
X35193025Y62083411D02*
X35193072Y62083458D01*
X35193072Y62083458D02*
X35193025Y62083506D01*
X35193025Y62083506D02*
X35193025Y62083411D01*
X35193501Y62082506D02*
X35193501Y62083506D01*
X35193501Y62083125D02*
X35193596Y62083173D01*
X35193596Y62083173D02*
X35193786Y62083173D01*
X35193786Y62083173D02*
X35193882Y62083125D01*
X35193882Y62083125D02*
X35193929Y62083077D01*
X35193929Y62083077D02*
X35193977Y62082982D01*
X35193977Y62082982D02*
X35193977Y62082696D01*
X35193977Y62082696D02*
X35193929Y62082601D01*
X35193929Y62082601D02*
X35193882Y62082553D01*
X35193882Y62082553D02*
X35193786Y62082506D01*
X35193786Y62082506D02*
X35193596Y62082506D01*
X35193596Y62082506D02*
X35193501Y62082553D01*
X35194834Y62083173D02*
X35194834Y62082506D01*
X35194406Y62083173D02*
X35194406Y62082649D01*
X35194406Y62082649D02*
X35194453Y62082553D01*
X35194453Y62082553D02*
X35194548Y62082506D01*
X35194548Y62082506D02*
X35194691Y62082506D01*
X35194691Y62082506D02*
X35194787Y62082553D01*
X35194787Y62082553D02*
X35194834Y62082601D01*
X35195215Y62083173D02*
X35195739Y62083173D01*
X35195739Y62083173D02*
X35195215Y62082506D01*
X35195215Y62082506D02*
X35195739Y62082506D01*
X35196025Y62083173D02*
X35196549Y62083173D01*
X35196549Y62083173D02*
X35196025Y62082506D01*
X35196025Y62082506D02*
X35196549Y62082506D01*
X35197359Y62082506D02*
X35197359Y62083030D01*
X35197359Y62083030D02*
X35197312Y62083125D01*
X35197312Y62083125D02*
X35197216Y62083173D01*
X35197216Y62083173D02*
X35197026Y62083173D01*
X35197026Y62083173D02*
X35196931Y62083125D01*
X35197359Y62082553D02*
X35197264Y62082506D01*
X35197264Y62082506D02*
X35197026Y62082506D01*
X35197026Y62082506D02*
X35196931Y62082553D01*
X35196931Y62082553D02*
X35196883Y62082649D01*
X35196883Y62082649D02*
X35196883Y62082744D01*
X35196883Y62082744D02*
X35196931Y62082839D01*
X35196931Y62082839D02*
X35197026Y62082887D01*
X35197026Y62082887D02*
X35197264Y62082887D01*
X35197264Y62082887D02*
X35197359Y62082934D01*
X35197836Y62082506D02*
X35197836Y62083173D01*
X35197836Y62082982D02*
X35197883Y62083077D01*
X35197883Y62083077D02*
X35197931Y62083125D01*
X35197931Y62083125D02*
X35198026Y62083173D01*
X35198026Y62083173D02*
X35198121Y62083173D01*
X35198883Y62082506D02*
X35198883Y62083506D01*
X35198883Y62082553D02*
X35198788Y62082506D01*
X35198788Y62082506D02*
X35198597Y62082506D01*
X35198597Y62082506D02*
X35198502Y62082553D01*
X35198502Y62082553D02*
X35198455Y62082601D01*
X35198455Y62082601D02*
X35198407Y62082696D01*
X35198407Y62082696D02*
X35198407Y62082982D01*
X35198407Y62082982D02*
X35198455Y62083077D01*
X35198455Y62083077D02*
X35198502Y62083125D01*
X35198502Y62083125D02*
X35198597Y62083173D01*
X35198597Y62083173D02*
X35198788Y62083173D01*
X35198788Y62083173D02*
X35198883Y62083125D01*
X35199360Y62082887D02*
X35200122Y62082887D01*
X35201026Y62083506D02*
X35200836Y62083506D01*
X35200836Y62083506D02*
X35200740Y62083458D01*
X35200740Y62083458D02*
X35200693Y62083411D01*
X35200693Y62083411D02*
X35200598Y62083268D01*
X35200598Y62083268D02*
X35200550Y62083077D01*
X35200550Y62083077D02*
X35200550Y62082696D01*
X35200550Y62082696D02*
X35200598Y62082601D01*
X35200598Y62082601D02*
X35200645Y62082553D01*
X35200645Y62082553D02*
X35200740Y62082506D01*
X35200740Y62082506D02*
X35200931Y62082506D01*
X35200931Y62082506D02*
X35201026Y62082553D01*
X35201026Y62082553D02*
X35201074Y62082601D01*
X35201074Y62082601D02*
X35201121Y62082696D01*
X35201121Y62082696D02*
X35201121Y62082934D01*
X35201121Y62082934D02*
X35201074Y62083030D01*
X35201074Y62083030D02*
X35201026Y62083077D01*
X35201026Y62083077D02*
X35200931Y62083125D01*
X35200931Y62083125D02*
X35200740Y62083125D01*
X35200740Y62083125D02*
X35200645Y62083077D01*
X35200645Y62083077D02*
X35200598Y62083030D01*
X35200598Y62083030D02*
X35200550Y62082934D01*
X35201454Y62083506D02*
X35202121Y62083506D01*
X35202121Y62083506D02*
X35201692Y62082506D01*
X35202406Y62083506D02*
X35203073Y62083506D01*
X35203073Y62083506D02*
X35202644Y62082506D01*
X35203358Y62083506D02*
X35203977Y62083506D01*
X35203977Y62083506D02*
X35203644Y62083125D01*
X35203644Y62083125D02*
X35203787Y62083125D01*
X35203787Y62083125D02*
X35203882Y62083077D01*
X35203882Y62083077D02*
X35203930Y62083030D01*
X35203930Y62083030D02*
X35203977Y62082934D01*
X35203977Y62082934D02*
X35203977Y62082696D01*
X35203977Y62082696D02*
X35203930Y62082601D01*
X35203930Y62082601D02*
X35203882Y62082553D01*
X35203882Y62082553D02*
X35203787Y62082506D01*
X35203787Y62082506D02*
X35203501Y62082506D01*
X35203501Y62082506D02*
X35203406Y62082553D01*
X35203406Y62082553D02*
X35203358Y62082601D01*
X35204977Y62082601D02*
X35204929Y62082553D01*
X35204929Y62082553D02*
X35204787Y62082506D01*
X35204787Y62082506D02*
X35204691Y62082506D01*
X35204691Y62082506D02*
X35204548Y62082553D01*
X35204548Y62082553D02*
X35204453Y62082649D01*
X35204453Y62082649D02*
X35204406Y62082744D01*
X35204406Y62082744D02*
X35204358Y62082934D01*
X35204358Y62082934D02*
X35204358Y62083077D01*
X35204358Y62083077D02*
X35204406Y62083268D01*
X35204406Y62083268D02*
X35204453Y62083363D01*
X35204453Y62083363D02*
X35204548Y62083458D01*
X35204548Y62083458D02*
X35204691Y62083506D01*
X35204691Y62083506D02*
X35204787Y62083506D01*
X35204787Y62083506D02*
X35204929Y62083458D01*
X35204929Y62083458D02*
X35204977Y62083411D01*
X35205310Y62083506D02*
X35205929Y62083506D01*
X35205929Y62083506D02*
X35205596Y62083125D01*
X35205596Y62083125D02*
X35205739Y62083125D01*
X35205739Y62083125D02*
X35205834Y62083077D01*
X35205834Y62083077D02*
X35205882Y62083030D01*
X35205882Y62083030D02*
X35205929Y62082934D01*
X35205929Y62082934D02*
X35205929Y62082696D01*
X35205929Y62082696D02*
X35205882Y62082601D01*
X35205882Y62082601D02*
X35205834Y62082553D01*
X35205834Y62082553D02*
X35205739Y62082506D01*
X35205739Y62082506D02*
X35205453Y62082506D01*
X35205453Y62082506D02*
X35205358Y62082553D01*
X35205358Y62082553D02*
X35205310Y62082601D01*
X35206262Y62083506D02*
X35206929Y62083506D01*
X35206929Y62083506D02*
X35206500Y62082506D01*
X35207738Y62083506D02*
X35207548Y62083506D01*
X35207548Y62083506D02*
X35207452Y62083458D01*
X35207452Y62083458D02*
X35207405Y62083411D01*
X35207405Y62083411D02*
X35207310Y62083268D01*
X35207310Y62083268D02*
X35207262Y62083077D01*
X35207262Y62083077D02*
X35207262Y62082696D01*
X35207262Y62082696D02*
X35207310Y62082601D01*
X35207310Y62082601D02*
X35207357Y62082553D01*
X35207357Y62082553D02*
X35207452Y62082506D01*
X35207452Y62082506D02*
X35207643Y62082506D01*
X35207643Y62082506D02*
X35207738Y62082553D01*
X35207738Y62082553D02*
X35207786Y62082601D01*
X35207786Y62082601D02*
X35207833Y62082696D01*
X35207833Y62082696D02*
X35207833Y62082934D01*
X35207833Y62082934D02*
X35207786Y62083030D01*
X35207786Y62083030D02*
X35207738Y62083077D01*
X35207738Y62083077D02*
X35207643Y62083125D01*
X35207643Y62083125D02*
X35207452Y62083125D01*
X35207452Y62083125D02*
X35207357Y62083077D01*
X35207357Y62083077D02*
X35207310Y62083030D01*
X35207310Y62083030D02*
X35207262Y62082934D01*
D10*
X33796265Y26427343D02*
X33843884Y26474962D01*
X33843884Y26474962D02*
X33939122Y26522581D01*
X33939122Y26522581D02*
X34177217Y26522581D01*
X34177217Y26522581D02*
X34272455Y26474962D01*
X34272455Y26474962D02*
X34320074Y26427343D01*
X34320074Y26427343D02*
X34367693Y26332105D01*
X34367693Y26332105D02*
X34367693Y26236867D01*
X34367693Y26236867D02*
X34320074Y26094010D01*
X34320074Y26094010D02*
X33748646Y25522581D01*
X33748646Y25522581D02*
X34367693Y25522581D01*
X34748646Y26427343D02*
X34796265Y26474962D01*
X34796265Y26474962D02*
X34891503Y26522581D01*
X34891503Y26522581D02*
X35129598Y26522581D01*
X35129598Y26522581D02*
X35224836Y26474962D01*
X35224836Y26474962D02*
X35272455Y26427343D01*
X35272455Y26427343D02*
X35320074Y26332105D01*
X35320074Y26332105D02*
X35320074Y26236867D01*
X35320074Y26236867D02*
X35272455Y26094010D01*
X35272455Y26094010D02*
X34701027Y25522581D01*
X34701027Y25522581D02*
X35320074Y25522581D01*
X35653408Y26522581D02*
X36272455Y26522581D01*
X36272455Y26522581D02*
X35939122Y26141629D01*
X35939122Y26141629D02*
X36081979Y26141629D01*
X36081979Y26141629D02*
X36177217Y26094010D01*
X36177217Y26094010D02*
X36224836Y26046391D01*
X36224836Y26046391D02*
X36272455Y25951153D01*
X36272455Y25951153D02*
X36272455Y25713058D01*
X36272455Y25713058D02*
X36224836Y25617820D01*
X36224836Y25617820D02*
X36177217Y25570200D01*
X36177217Y25570200D02*
X36081979Y25522581D01*
X36081979Y25522581D02*
X35796265Y25522581D01*
X35796265Y25522581D02*
X35701027Y25570200D01*
X35701027Y25570200D02*
X35653408Y25617820D01*
X36891503Y26522581D02*
X36986741Y26522581D01*
X36986741Y26522581D02*
X37081979Y26474962D01*
X37081979Y26474962D02*
X37129598Y26427343D01*
X37129598Y26427343D02*
X37177217Y26332105D01*
X37177217Y26332105D02*
X37224836Y26141629D01*
X37224836Y26141629D02*
X37224836Y25903534D01*
X37224836Y25903534D02*
X37177217Y25713058D01*
X37177217Y25713058D02*
X37129598Y25617820D01*
X37129598Y25617820D02*
X37081979Y25570200D01*
X37081979Y25570200D02*
X36986741Y25522581D01*
X36986741Y25522581D02*
X36891503Y25522581D01*
X36891503Y25522581D02*
X36796265Y25570200D01*
X36796265Y25570200D02*
X36748646Y25617820D01*
X36748646Y25617820D02*
X36701027Y25713058D01*
X36701027Y25713058D02*
X36653408Y25903534D01*
X36653408Y25903534D02*
X36653408Y26141629D01*
X36653408Y26141629D02*
X36701027Y26332105D01*
X36701027Y26332105D02*
X36748646Y26427343D01*
X36748646Y26427343D02*
X36796265Y26474962D01*
X36796265Y26474962D02*
X36891503Y26522581D01*
X33546265Y14427343D02*
X33593884Y14474962D01*
X33593884Y14474962D02*
X33689122Y14522581D01*
X33689122Y14522581D02*
X33927217Y14522581D01*
X33927217Y14522581D02*
X34022455Y14474962D01*
X34022455Y14474962D02*
X34070074Y14427343D01*
X34070074Y14427343D02*
X34117693Y14332105D01*
X34117693Y14332105D02*
X34117693Y14236867D01*
X34117693Y14236867D02*
X34070074Y14094010D01*
X34070074Y14094010D02*
X33498646Y13522581D01*
X33498646Y13522581D02*
X34117693Y13522581D01*
X34498646Y14427343D02*
X34546265Y14474962D01*
X34546265Y14474962D02*
X34641503Y14522581D01*
X34641503Y14522581D02*
X34879598Y14522581D01*
X34879598Y14522581D02*
X34974836Y14474962D01*
X34974836Y14474962D02*
X35022455Y14427343D01*
X35022455Y14427343D02*
X35070074Y14332105D01*
X35070074Y14332105D02*
X35070074Y14236867D01*
X35070074Y14236867D02*
X35022455Y14094010D01*
X35022455Y14094010D02*
X34451027Y13522581D01*
X34451027Y13522581D02*
X35070074Y13522581D01*
X35927217Y14189248D02*
X35927217Y13522581D01*
X35689122Y14570200D02*
X35451027Y13855915D01*
X35451027Y13855915D02*
X36070074Y13855915D01*
X36403408Y14427343D02*
X36451027Y14474962D01*
X36451027Y14474962D02*
X36546265Y14522581D01*
X36546265Y14522581D02*
X36784360Y14522581D01*
X36784360Y14522581D02*
X36879598Y14474962D01*
X36879598Y14474962D02*
X36927217Y14427343D01*
X36927217Y14427343D02*
X36974836Y14332105D01*
X36974836Y14332105D02*
X36974836Y14236867D01*
X36974836Y14236867D02*
X36927217Y14094010D01*
X36927217Y14094010D02*
X36355789Y13522581D01*
X36355789Y13522581D02*
X36974836Y13522581D01*
X31853884Y45252581D02*
X31853884Y46252581D01*
X31853884Y46252581D02*
X32187217Y45538296D01*
X32187217Y45538296D02*
X32520550Y46252581D01*
X32520550Y46252581D02*
X32520550Y45252581D01*
X32996741Y45347820D02*
X33044360Y45300200D01*
X33044360Y45300200D02*
X32996741Y45252581D01*
X32996741Y45252581D02*
X32949122Y45300200D01*
X32949122Y45300200D02*
X32996741Y45347820D01*
X32996741Y45347820D02*
X32996741Y45252581D01*
X33425312Y46157343D02*
X33472931Y46204962D01*
X33472931Y46204962D02*
X33568169Y46252581D01*
X33568169Y46252581D02*
X33806264Y46252581D01*
X33806264Y46252581D02*
X33901502Y46204962D01*
X33901502Y46204962D02*
X33949121Y46157343D01*
X33949121Y46157343D02*
X33996740Y46062105D01*
X33996740Y46062105D02*
X33996740Y45966867D01*
X33996740Y45966867D02*
X33949121Y45824010D01*
X33949121Y45824010D02*
X33377693Y45252581D01*
X33377693Y45252581D02*
X33996740Y45252581D01*
X35187217Y45252581D02*
X35187217Y46252581D01*
X35187217Y46252581D02*
X35520550Y45538296D01*
X35520550Y45538296D02*
X35853883Y46252581D01*
X35853883Y46252581D02*
X35853883Y45252581D01*
X37091979Y45252581D02*
X37091979Y46252581D01*
X37663407Y45252581D02*
X37234836Y45824010D01*
X37663407Y46252581D02*
X37091979Y45681153D01*
X38472931Y45300200D02*
X38377693Y45252581D01*
X38377693Y45252581D02*
X38187217Y45252581D01*
X38187217Y45252581D02*
X38091979Y45300200D01*
X38091979Y45300200D02*
X38044360Y45395439D01*
X38044360Y45395439D02*
X38044360Y45776391D01*
X38044360Y45776391D02*
X38091979Y45871629D01*
X38091979Y45871629D02*
X38187217Y45919248D01*
X38187217Y45919248D02*
X38377693Y45919248D01*
X38377693Y45919248D02*
X38472931Y45871629D01*
X38472931Y45871629D02*
X38520550Y45776391D01*
X38520550Y45776391D02*
X38520550Y45681153D01*
X38520550Y45681153D02*
X38044360Y45585915D01*
X38853884Y45919248D02*
X39091979Y45252581D01*
X39330074Y45919248D02*
X39091979Y45252581D01*
X39091979Y45252581D02*
X38996741Y45014486D01*
X38996741Y45014486D02*
X38949122Y44966867D01*
X38949122Y44966867D02*
X38853884Y44919248D01*
D12*
X1342190Y55756874D02*
X1342190Y55757874D01*
X1342285Y55757255D02*
X1342571Y55756874D01*
X1342571Y55757541D02*
X1342190Y55757160D01*
X1343000Y55756874D02*
X1343000Y55757541D01*
X1343000Y55757874D02*
X1342952Y55757826D01*
X1342952Y55757826D02*
X1343000Y55757779D01*
X1343000Y55757779D02*
X1343047Y55757826D01*
X1343047Y55757826D02*
X1343000Y55757874D01*
X1343000Y55757874D02*
X1343000Y55757779D01*
X1343476Y55756874D02*
X1343476Y55757874D01*
X1343476Y55757493D02*
X1343571Y55757541D01*
X1343571Y55757541D02*
X1343761Y55757541D01*
X1343761Y55757541D02*
X1343857Y55757493D01*
X1343857Y55757493D02*
X1343904Y55757445D01*
X1343904Y55757445D02*
X1343952Y55757350D01*
X1343952Y55757350D02*
X1343952Y55757064D01*
X1343952Y55757064D02*
X1343904Y55756969D01*
X1343904Y55756969D02*
X1343857Y55756921D01*
X1343857Y55756921D02*
X1343761Y55756874D01*
X1343761Y55756874D02*
X1343571Y55756874D01*
X1343571Y55756874D02*
X1343476Y55756921D01*
X1344809Y55757541D02*
X1344809Y55756874D01*
X1344381Y55757541D02*
X1344381Y55757017D01*
X1344381Y55757017D02*
X1344428Y55756921D01*
X1344428Y55756921D02*
X1344523Y55756874D01*
X1344523Y55756874D02*
X1344666Y55756874D01*
X1344666Y55756874D02*
X1344762Y55756921D01*
X1344762Y55756921D02*
X1344809Y55756969D01*
X1345190Y55757541D02*
X1345714Y55757541D01*
X1345714Y55757541D02*
X1345190Y55756874D01*
X1345190Y55756874D02*
X1345714Y55756874D01*
X1346000Y55757541D02*
X1346524Y55757541D01*
X1346524Y55757541D02*
X1346000Y55756874D01*
X1346000Y55756874D02*
X1346524Y55756874D01*
X1347334Y55756874D02*
X1347334Y55757398D01*
X1347334Y55757398D02*
X1347287Y55757493D01*
X1347287Y55757493D02*
X1347191Y55757541D01*
X1347191Y55757541D02*
X1347001Y55757541D01*
X1347001Y55757541D02*
X1346906Y55757493D01*
X1347334Y55756921D02*
X1347239Y55756874D01*
X1347239Y55756874D02*
X1347001Y55756874D01*
X1347001Y55756874D02*
X1346906Y55756921D01*
X1346906Y55756921D02*
X1346858Y55757017D01*
X1346858Y55757017D02*
X1346858Y55757112D01*
X1346858Y55757112D02*
X1346906Y55757207D01*
X1346906Y55757207D02*
X1347001Y55757255D01*
X1347001Y55757255D02*
X1347239Y55757255D01*
X1347239Y55757255D02*
X1347334Y55757302D01*
X1347811Y55756874D02*
X1347811Y55757541D01*
X1347811Y55757350D02*
X1347858Y55757445D01*
X1347858Y55757445D02*
X1347906Y55757493D01*
X1347906Y55757493D02*
X1348001Y55757541D01*
X1348001Y55757541D02*
X1348096Y55757541D01*
X1348858Y55756874D02*
X1348858Y55757874D01*
X1348858Y55756921D02*
X1348763Y55756874D01*
X1348763Y55756874D02*
X1348572Y55756874D01*
X1348572Y55756874D02*
X1348477Y55756921D01*
X1348477Y55756921D02*
X1348430Y55756969D01*
X1348430Y55756969D02*
X1348382Y55757064D01*
X1348382Y55757064D02*
X1348382Y55757350D01*
X1348382Y55757350D02*
X1348430Y55757445D01*
X1348430Y55757445D02*
X1348477Y55757493D01*
X1348477Y55757493D02*
X1348572Y55757541D01*
X1348572Y55757541D02*
X1348763Y55757541D01*
X1348763Y55757541D02*
X1348858Y55757493D01*
X1349335Y55757255D02*
X1350097Y55757255D01*
X1351001Y55757874D02*
X1350811Y55757874D01*
X1350811Y55757874D02*
X1350715Y55757826D01*
X1350715Y55757826D02*
X1350668Y55757779D01*
X1350668Y55757779D02*
X1350573Y55757636D01*
X1350573Y55757636D02*
X1350525Y55757445D01*
X1350525Y55757445D02*
X1350525Y55757064D01*
X1350525Y55757064D02*
X1350573Y55756969D01*
X1350573Y55756969D02*
X1350620Y55756921D01*
X1350620Y55756921D02*
X1350715Y55756874D01*
X1350715Y55756874D02*
X1350906Y55756874D01*
X1350906Y55756874D02*
X1351001Y55756921D01*
X1351001Y55756921D02*
X1351049Y55756969D01*
X1351049Y55756969D02*
X1351096Y55757064D01*
X1351096Y55757064D02*
X1351096Y55757302D01*
X1351096Y55757302D02*
X1351049Y55757398D01*
X1351049Y55757398D02*
X1351001Y55757445D01*
X1351001Y55757445D02*
X1350906Y55757493D01*
X1350906Y55757493D02*
X1350715Y55757493D01*
X1350715Y55757493D02*
X1350620Y55757445D01*
X1350620Y55757445D02*
X1350573Y55757398D01*
X1350573Y55757398D02*
X1350525Y55757302D01*
X1351429Y55757874D02*
X1352096Y55757874D01*
X1352096Y55757874D02*
X1351667Y55756874D01*
X1352477Y55757398D02*
X1352810Y55757398D01*
X1352953Y55756874D02*
X1352477Y55756874D01*
X1352477Y55756874D02*
X1352477Y55757874D01*
X1352477Y55757874D02*
X1352953Y55757874D01*
X1353715Y55757398D02*
X1353858Y55757350D01*
X1353858Y55757350D02*
X1353905Y55757302D01*
X1353905Y55757302D02*
X1353953Y55757207D01*
X1353953Y55757207D02*
X1353953Y55757064D01*
X1353953Y55757064D02*
X1353905Y55756969D01*
X1353905Y55756969D02*
X1353858Y55756921D01*
X1353858Y55756921D02*
X1353763Y55756874D01*
X1353763Y55756874D02*
X1353382Y55756874D01*
X1353382Y55756874D02*
X1353382Y55757874D01*
X1353382Y55757874D02*
X1353715Y55757874D01*
X1353715Y55757874D02*
X1353810Y55757826D01*
X1353810Y55757826D02*
X1353858Y55757779D01*
X1353858Y55757779D02*
X1353905Y55757683D01*
X1353905Y55757683D02*
X1353905Y55757588D01*
X1353905Y55757588D02*
X1353858Y55757493D01*
X1353858Y55757493D02*
X1353810Y55757445D01*
X1353810Y55757445D02*
X1353715Y55757398D01*
X1353715Y55757398D02*
X1353382Y55757398D01*
X1354715Y55757398D02*
X1354858Y55757350D01*
X1354858Y55757350D02*
X1354905Y55757302D01*
X1354905Y55757302D02*
X1354953Y55757207D01*
X1354953Y55757207D02*
X1354953Y55757064D01*
X1354953Y55757064D02*
X1354905Y55756969D01*
X1354905Y55756969D02*
X1354858Y55756921D01*
X1354858Y55756921D02*
X1354763Y55756874D01*
X1354763Y55756874D02*
X1354382Y55756874D01*
X1354382Y55756874D02*
X1354382Y55757874D01*
X1354382Y55757874D02*
X1354715Y55757874D01*
X1354715Y55757874D02*
X1354810Y55757826D01*
X1354810Y55757826D02*
X1354858Y55757779D01*
X1354858Y55757779D02*
X1354905Y55757683D01*
X1354905Y55757683D02*
X1354905Y55757588D01*
X1354905Y55757588D02*
X1354858Y55757493D01*
X1354858Y55757493D02*
X1354810Y55757445D01*
X1354810Y55757445D02*
X1354715Y55757398D01*
X1354715Y55757398D02*
X1354382Y55757398D01*
X1355429Y55756874D02*
X1355620Y55756874D01*
X1355620Y55756874D02*
X1355715Y55756921D01*
X1355715Y55756921D02*
X1355763Y55756969D01*
X1355763Y55756969D02*
X1355858Y55757112D01*
X1355858Y55757112D02*
X1355905Y55757302D01*
X1355905Y55757302D02*
X1355905Y55757683D01*
X1355905Y55757683D02*
X1355858Y55757779D01*
X1355858Y55757779D02*
X1355810Y55757826D01*
X1355810Y55757826D02*
X1355715Y55757874D01*
X1355715Y55757874D02*
X1355524Y55757874D01*
X1355524Y55757874D02*
X1355429Y55757826D01*
X1355429Y55757826D02*
X1355382Y55757779D01*
X1355382Y55757779D02*
X1355334Y55757683D01*
X1355334Y55757683D02*
X1355334Y55757445D01*
X1355334Y55757445D02*
X1355382Y55757350D01*
X1355382Y55757350D02*
X1355429Y55757302D01*
X1355429Y55757302D02*
X1355524Y55757255D01*
X1355524Y55757255D02*
X1355715Y55757255D01*
X1355715Y55757255D02*
X1355810Y55757302D01*
X1355810Y55757302D02*
X1355858Y55757350D01*
X1355858Y55757350D02*
X1355905Y55757445D01*
X1356905Y55756969D02*
X1356857Y55756921D01*
X1356857Y55756921D02*
X1356715Y55756874D01*
X1356715Y55756874D02*
X1356619Y55756874D01*
X1356619Y55756874D02*
X1356476Y55756921D01*
X1356476Y55756921D02*
X1356381Y55757017D01*
X1356381Y55757017D02*
X1356334Y55757112D01*
X1356334Y55757112D02*
X1356286Y55757302D01*
X1356286Y55757302D02*
X1356286Y55757445D01*
X1356286Y55757445D02*
X1356334Y55757636D01*
X1356334Y55757636D02*
X1356381Y55757731D01*
X1356381Y55757731D02*
X1356476Y55757826D01*
X1356476Y55757826D02*
X1356619Y55757874D01*
X1356619Y55757874D02*
X1356715Y55757874D01*
X1356715Y55757874D02*
X1356857Y55757826D01*
X1356857Y55757826D02*
X1356905Y55757779D01*
X1357857Y55756874D02*
X1357286Y55756874D01*
X1357572Y55756874D02*
X1357572Y55757874D01*
X1357572Y55757874D02*
X1357476Y55757731D01*
X1357476Y55757731D02*
X1357381Y55757636D01*
X1357381Y55757636D02*
X1357286Y55757588D01*
D11*
X-966667Y26815181D02*
X-1300000Y27291372D01*
X-1538095Y26815181D02*
X-1538095Y27815181D01*
X-1538095Y27815181D02*
X-1157143Y27815181D01*
X-1157143Y27815181D02*
X-1061905Y27767562D01*
X-1061905Y27767562D02*
X-1014286Y27719943D01*
X-1014286Y27719943D02*
X-966667Y27624705D01*
X-966667Y27624705D02*
X-966667Y27481848D01*
X-966667Y27481848D02*
X-1014286Y27386610D01*
X-1014286Y27386610D02*
X-1061905Y27338991D01*
X-1061905Y27338991D02*
X-1157143Y27291372D01*
X-1157143Y27291372D02*
X-1538095Y27291372D01*
X-633333Y27815181D02*
X-14286Y27815181D01*
X-14286Y27815181D02*
X-347619Y27434229D01*
X-347619Y27434229D02*
X-204762Y27434229D01*
X-204762Y27434229D02*
X-109524Y27386610D01*
X-109524Y27386610D02*
X-61905Y27338991D01*
X-61905Y27338991D02*
X-14286Y27243753D01*
X-14286Y27243753D02*
X-14286Y27005658D01*
X-14286Y27005658D02*
X-61905Y26910420D01*
X-61905Y26910420D02*
X-109524Y26862800D01*
X-109524Y26862800D02*
X-204762Y26815181D01*
X-204762Y26815181D02*
X-490476Y26815181D01*
X-490476Y26815181D02*
X-585714Y26862800D01*
X-585714Y26862800D02*
X-633333Y26910420D01*
X-6370181Y45914286D02*
X-5655896Y45914286D01*
X-5655896Y45914286D02*
X-5513039Y45866667D01*
X-5513039Y45866667D02*
X-5417800Y45771429D01*
X-5417800Y45771429D02*
X-5370181Y45628572D01*
X-5370181Y45628572D02*
X-5370181Y45533334D01*
X-6370181Y46866667D02*
X-6370181Y46390477D01*
X-6370181Y46390477D02*
X-5893991Y46342858D01*
X-5893991Y46342858D02*
X-5941610Y46390477D01*
X-5941610Y46390477D02*
X-5989229Y46485715D01*
X-5989229Y46485715D02*
X-5989229Y46723810D01*
X-5989229Y46723810D02*
X-5941610Y46819048D01*
X-5941610Y46819048D02*
X-5893991Y46866667D01*
X-5893991Y46866667D02*
X-5798753Y46914286D01*
X-5798753Y46914286D02*
X-5560658Y46914286D01*
X-5560658Y46914286D02*
X-5465420Y46866667D01*
X-5465420Y46866667D02*
X-5417800Y46819048D01*
X-5417800Y46819048D02*
X-5370181Y46723810D01*
X-5370181Y46723810D02*
X-5370181Y46485715D01*
X-5370181Y46485715D02*
X-5417800Y46390477D01*
X-5417800Y46390477D02*
X-5465420Y46342858D01*
X-6370181Y47533334D02*
X-6370181Y47628572D01*
X-6370181Y47628572D02*
X-6322562Y47723810D01*
X-6322562Y47723810D02*
X-6274943Y47771429D01*
X-6274943Y47771429D02*
X-6179705Y47819048D01*
X-6179705Y47819048D02*
X-5989229Y47866667D01*
X-5989229Y47866667D02*
X-5751134Y47866667D01*
X-5751134Y47866667D02*
X-5560658Y47819048D01*
X-5560658Y47819048D02*
X-5465420Y47771429D01*
X-5465420Y47771429D02*
X-5417800Y47723810D01*
X-5417800Y47723810D02*
X-5370181Y47628572D01*
X-5370181Y47628572D02*
X-5370181Y47533334D01*
X-5370181Y47533334D02*
X-5417800Y47438096D01*
X-5417800Y47438096D02*
X-5465420Y47390477D01*
X-5465420Y47390477D02*
X-5560658Y47342858D01*
X-5560658Y47342858D02*
X-5751134Y47295239D01*
X-5751134Y47295239D02*
X-5989229Y47295239D01*
X-5989229Y47295239D02*
X-6179705Y47342858D01*
X-6179705Y47342858D02*
X-6274943Y47390477D01*
X-6274943Y47390477D02*
X-6322562Y47438096D01*
X-6322562Y47438096D02*
X-6370181Y47533334D01*
X-6370181Y48200001D02*
X-6370181Y48819048D01*
X-6370181Y48819048D02*
X-5989229Y48485715D01*
X-5989229Y48485715D02*
X-5989229Y48628572D01*
X-5989229Y48628572D02*
X-5941610Y48723810D01*
X-5941610Y48723810D02*
X-5893991Y48771429D01*
X-5893991Y48771429D02*
X-5798753Y48819048D01*
X-5798753Y48819048D02*
X-5560658Y48819048D01*
X-5560658Y48819048D02*
X-5465420Y48771429D01*
X-5465420Y48771429D02*
X-5417800Y48723810D01*
X-5417800Y48723810D02*
X-5370181Y48628572D01*
X-5370181Y48628572D02*
X-5370181Y48342858D01*
X-5370181Y48342858D02*
X-5417800Y48247620D01*
X-5417800Y48247620D02*
X-5465420Y48200001D01*
D12*
X50062262Y22991075D02*
X50062262Y22992075D01*
X50062357Y22991456D02*
X50062643Y22991075D01*
X50062643Y22991742D02*
X50062262Y22991361D01*
X50063072Y22991075D02*
X50063072Y22991742D01*
X50063072Y22992075D02*
X50063024Y22992027D01*
X50063024Y22992027D02*
X50063072Y22991980D01*
X50063072Y22991980D02*
X50063119Y22992027D01*
X50063119Y22992027D02*
X50063072Y22992075D01*
X50063072Y22992075D02*
X50063072Y22991980D01*
X50063548Y22991075D02*
X50063548Y22992075D01*
X50063548Y22991694D02*
X50063643Y22991742D01*
X50063643Y22991742D02*
X50063833Y22991742D01*
X50063833Y22991742D02*
X50063929Y22991694D01*
X50063929Y22991694D02*
X50063976Y22991646D01*
X50063976Y22991646D02*
X50064024Y22991551D01*
X50064024Y22991551D02*
X50064024Y22991265D01*
X50064024Y22991265D02*
X50063976Y22991170D01*
X50063976Y22991170D02*
X50063929Y22991122D01*
X50063929Y22991122D02*
X50063833Y22991075D01*
X50063833Y22991075D02*
X50063643Y22991075D01*
X50063643Y22991075D02*
X50063548Y22991122D01*
X50064881Y22991742D02*
X50064881Y22991075D01*
X50064453Y22991742D02*
X50064453Y22991218D01*
X50064453Y22991218D02*
X50064500Y22991122D01*
X50064500Y22991122D02*
X50064595Y22991075D01*
X50064595Y22991075D02*
X50064738Y22991075D01*
X50064738Y22991075D02*
X50064834Y22991122D01*
X50064834Y22991122D02*
X50064881Y22991170D01*
X50065262Y22991742D02*
X50065786Y22991742D01*
X50065786Y22991742D02*
X50065262Y22991075D01*
X50065262Y22991075D02*
X50065786Y22991075D01*
X50066072Y22991742D02*
X50066596Y22991742D01*
X50066596Y22991742D02*
X50066072Y22991075D01*
X50066072Y22991075D02*
X50066596Y22991075D01*
X50067406Y22991075D02*
X50067406Y22991599D01*
X50067406Y22991599D02*
X50067359Y22991694D01*
X50067359Y22991694D02*
X50067263Y22991742D01*
X50067263Y22991742D02*
X50067073Y22991742D01*
X50067073Y22991742D02*
X50066978Y22991694D01*
X50067406Y22991122D02*
X50067311Y22991075D01*
X50067311Y22991075D02*
X50067073Y22991075D01*
X50067073Y22991075D02*
X50066978Y22991122D01*
X50066978Y22991122D02*
X50066930Y22991218D01*
X50066930Y22991218D02*
X50066930Y22991313D01*
X50066930Y22991313D02*
X50066978Y22991408D01*
X50066978Y22991408D02*
X50067073Y22991456D01*
X50067073Y22991456D02*
X50067311Y22991456D01*
X50067311Y22991456D02*
X50067406Y22991503D01*
X50067883Y22991075D02*
X50067883Y22991742D01*
X50067883Y22991551D02*
X50067930Y22991646D01*
X50067930Y22991646D02*
X50067978Y22991694D01*
X50067978Y22991694D02*
X50068073Y22991742D01*
X50068073Y22991742D02*
X50068168Y22991742D01*
X50068930Y22991075D02*
X50068930Y22992075D01*
X50068930Y22991122D02*
X50068835Y22991075D01*
X50068835Y22991075D02*
X50068644Y22991075D01*
X50068644Y22991075D02*
X50068549Y22991122D01*
X50068549Y22991122D02*
X50068502Y22991170D01*
X50068502Y22991170D02*
X50068454Y22991265D01*
X50068454Y22991265D02*
X50068454Y22991551D01*
X50068454Y22991551D02*
X50068502Y22991646D01*
X50068502Y22991646D02*
X50068549Y22991694D01*
X50068549Y22991694D02*
X50068644Y22991742D01*
X50068644Y22991742D02*
X50068835Y22991742D01*
X50068835Y22991742D02*
X50068930Y22991694D01*
X50069407Y22991456D02*
X50070169Y22991456D01*
X50071073Y22992075D02*
X50070883Y22992075D01*
X50070883Y22992075D02*
X50070787Y22992027D01*
X50070787Y22992027D02*
X50070740Y22991980D01*
X50070740Y22991980D02*
X50070645Y22991837D01*
X50070645Y22991837D02*
X50070597Y22991646D01*
X50070597Y22991646D02*
X50070597Y22991265D01*
X50070597Y22991265D02*
X50070645Y22991170D01*
X50070645Y22991170D02*
X50070692Y22991122D01*
X50070692Y22991122D02*
X50070787Y22991075D01*
X50070787Y22991075D02*
X50070978Y22991075D01*
X50070978Y22991075D02*
X50071073Y22991122D01*
X50071073Y22991122D02*
X50071121Y22991170D01*
X50071121Y22991170D02*
X50071168Y22991265D01*
X50071168Y22991265D02*
X50071168Y22991503D01*
X50071168Y22991503D02*
X50071121Y22991599D01*
X50071121Y22991599D02*
X50071073Y22991646D01*
X50071073Y22991646D02*
X50070978Y22991694D01*
X50070978Y22991694D02*
X50070787Y22991694D01*
X50070787Y22991694D02*
X50070692Y22991646D01*
X50070692Y22991646D02*
X50070645Y22991599D01*
X50070645Y22991599D02*
X50070597Y22991503D01*
X50071501Y22992075D02*
X50072168Y22992075D01*
X50072168Y22992075D02*
X50071739Y22991075D01*
X50072453Y22992075D02*
X50073120Y22992075D01*
X50073120Y22992075D02*
X50072691Y22991075D01*
X50073405Y22992075D02*
X50074024Y22992075D01*
X50074024Y22992075D02*
X50073691Y22991694D01*
X50073691Y22991694D02*
X50073834Y22991694D01*
X50073834Y22991694D02*
X50073929Y22991646D01*
X50073929Y22991646D02*
X50073977Y22991599D01*
X50073977Y22991599D02*
X50074024Y22991503D01*
X50074024Y22991503D02*
X50074024Y22991265D01*
X50074024Y22991265D02*
X50073977Y22991170D01*
X50073977Y22991170D02*
X50073929Y22991122D01*
X50073929Y22991122D02*
X50073834Y22991075D01*
X50073834Y22991075D02*
X50073548Y22991075D01*
X50073548Y22991075D02*
X50073453Y22991122D01*
X50073453Y22991122D02*
X50073405Y22991170D01*
X50074786Y22991599D02*
X50074929Y22991551D01*
X50074929Y22991551D02*
X50074976Y22991503D01*
X50074976Y22991503D02*
X50075024Y22991408D01*
X50075024Y22991408D02*
X50075024Y22991265D01*
X50075024Y22991265D02*
X50074976Y22991170D01*
X50074976Y22991170D02*
X50074929Y22991122D01*
X50074929Y22991122D02*
X50074834Y22991075D01*
X50074834Y22991075D02*
X50074453Y22991075D01*
X50074453Y22991075D02*
X50074453Y22992075D01*
X50074453Y22992075D02*
X50074786Y22992075D01*
X50074786Y22992075D02*
X50074881Y22992027D01*
X50074881Y22992027D02*
X50074929Y22991980D01*
X50074929Y22991980D02*
X50074976Y22991884D01*
X50074976Y22991884D02*
X50074976Y22991789D01*
X50074976Y22991789D02*
X50074929Y22991694D01*
X50074929Y22991694D02*
X50074881Y22991646D01*
X50074881Y22991646D02*
X50074786Y22991599D01*
X50074786Y22991599D02*
X50074453Y22991599D01*
X50075500Y22991075D02*
X50075691Y22991075D01*
X50075691Y22991075D02*
X50075786Y22991122D01*
X50075786Y22991122D02*
X50075834Y22991170D01*
X50075834Y22991170D02*
X50075929Y22991313D01*
X50075929Y22991313D02*
X50075976Y22991503D01*
X50075976Y22991503D02*
X50075976Y22991884D01*
X50075976Y22991884D02*
X50075929Y22991980D01*
X50075929Y22991980D02*
X50075881Y22992027D01*
X50075881Y22992027D02*
X50075786Y22992075D01*
X50075786Y22992075D02*
X50075595Y22992075D01*
X50075595Y22992075D02*
X50075500Y22992027D01*
X50075500Y22992027D02*
X50075453Y22991980D01*
X50075453Y22991980D02*
X50075405Y22991884D01*
X50075405Y22991884D02*
X50075405Y22991646D01*
X50075405Y22991646D02*
X50075453Y22991551D01*
X50075453Y22991551D02*
X50075500Y22991503D01*
X50075500Y22991503D02*
X50075595Y22991456D01*
X50075595Y22991456D02*
X50075786Y22991456D01*
X50075786Y22991456D02*
X50075881Y22991503D01*
X50075881Y22991503D02*
X50075929Y22991551D01*
X50075929Y22991551D02*
X50075976Y22991646D01*
X50076738Y22991599D02*
X50076405Y22991599D01*
X50076405Y22991075D02*
X50076405Y22992075D01*
X50076405Y22992075D02*
X50076881Y22992075D01*
X50077166Y22992075D02*
X50077833Y22992075D01*
X50077833Y22992075D02*
X50077404Y22991075D01*
D13*
%TO.C,C1*%
X20762500Y5097500D02*
X21550000Y5097500D01*
X21156250Y5491250D02*
X21156250Y4703750D01*
X21790000Y5595563D02*
X21790000Y4310000D01*
X21790000Y5595563D02*
X22854437Y6660000D01*
X21790000Y904437D02*
X21790000Y2190000D01*
X21790000Y904437D02*
X22854437Y-160000D01*
X22854437Y6660000D02*
X28610000Y6660000D01*
X22854437Y-160000D02*
X28610000Y-160000D01*
X28610000Y6660000D02*
X28610000Y4310000D01*
X28610000Y-160000D02*
X28610000Y2190000D01*
%TO.C,J2*%
X6940000Y1040000D02*
X8190000Y1040000D01*
X7240000Y1340000D02*
X11960000Y1340000D01*
X8550000Y1340000D02*
X8550000Y1950000D01*
X9850000Y1340000D02*
X9850000Y1950000D01*
X11960000Y1340000D02*
X11960000Y7460000D01*
X7850000Y1950000D02*
X11350000Y1950000D01*
X11350000Y1950000D02*
X11350000Y6850000D01*
X6940000Y2290000D02*
X6940000Y1040000D01*
X7040000Y2800000D02*
X7240000Y2800000D01*
X7040000Y3100000D02*
X7040000Y2800000D01*
X7140000Y3100000D02*
X7140000Y2800000D01*
X7240000Y3100000D02*
X7040000Y3100000D01*
X7240000Y3900000D02*
X7850000Y3900000D01*
X7850000Y3900000D02*
X7850000Y1950000D01*
X10850000Y4300000D02*
X10850000Y4500000D01*
X11350000Y4300000D02*
X10850000Y4300000D01*
X11350000Y4400000D02*
X10850000Y4400000D01*
X10850000Y4500000D02*
X11350000Y4500000D01*
X7850000Y4900000D02*
X7240000Y4900000D01*
X7850000Y6850000D02*
X7850000Y4900000D01*
X11350000Y6850000D02*
X7850000Y6850000D01*
X7240000Y7460000D02*
X7240000Y1340000D01*
X8550000Y7460000D02*
X8550000Y6850000D01*
X9850000Y7460000D02*
X9850000Y6850000D01*
X11960000Y7460000D02*
X7240000Y7460000D01*
%TO.C,R704*%
X39820000Y9053641D02*
X39820000Y8746359D01*
X40580000Y9053641D02*
X40580000Y8746359D01*
%TO.C,J502*%
X7310000Y48340000D02*
X7310000Y52220000D01*
X9280000Y53390000D02*
X10430000Y53390000D01*
X9280000Y47170000D02*
X10430000Y47170000D01*
X10430000Y53390000D02*
X10430000Y52340000D01*
X10430000Y48220000D02*
X11420000Y48220000D01*
X10430000Y47170000D02*
X10430000Y48220000D01*
D14*
%TO.C,kibuzzard-6773BA89*%
G36*
X49178813Y24516338D02*
G01*
X49044335Y24516338D01*
X49111574Y24655107D01*
X49178813Y24516338D01*
G37*
G36*
X51775379Y23943615D02*
G01*
X51417725Y23943615D01*
X50979957Y23943615D01*
X50158784Y23943615D01*
X49424878Y23943615D01*
X48602275Y23943615D01*
X48244621Y23943615D01*
X48244621Y24166552D01*
X48615150Y24166552D01*
X48695265Y24097167D01*
X48799700Y24076423D01*
X48871230Y24155823D01*
X48937039Y24293162D01*
X49288970Y24293162D01*
X49354778Y24157253D01*
X49424878Y24074993D01*
X49530744Y24095737D01*
X49610143Y24165837D01*
X49590830Y24267411D01*
X49433774Y24592160D01*
X49640901Y24592160D01*
X49650021Y24488083D01*
X49677382Y24393305D01*
X49718691Y24311223D01*
X49769657Y24245236D01*
X49829206Y24191588D01*
X49896266Y24146524D01*
X49966009Y24111652D01*
X50033605Y24088584D01*
X50098162Y24075708D01*
X50158784Y24071416D01*
X50251297Y24080318D01*
X50339995Y24107023D01*
X50424878Y24151531D01*
X50483534Y24195165D01*
X50503562Y24247382D01*
X50472089Y24330358D01*
X50420587Y24391516D01*
X50371946Y24411903D01*
X50300415Y24383290D01*
X50228526Y24347883D01*
X50153062Y24336080D01*
X50044335Y24358970D01*
X49992654Y24390980D01*
X49946338Y24441230D01*
X49913612Y24506860D01*
X49902704Y24585007D01*
X49908784Y24645808D01*
X49927024Y24699456D01*
X49990687Y24777425D01*
X50071516Y24819628D01*
X50153062Y24833934D01*
X50187396Y24832504D01*
X50216009Y24827496D01*
X50238898Y24821774D01*
X50258212Y24814621D01*
X50271803Y24806753D01*
X50283963Y24798884D01*
X50293262Y24792446D01*
X50370515Y24759542D01*
X50419871Y24778856D01*
X50473519Y24836795D01*
X50504993Y24916910D01*
X50491402Y24959828D01*
X50473758Y24979857D01*
X50545050Y24979857D01*
X50553634Y24915479D01*
X50580815Y24881860D01*
X50613004Y24870415D01*
X50653777Y24868269D01*
X50852632Y24868269D01*
X50852632Y24214478D01*
X50854778Y24166552D01*
X50867654Y24127926D01*
X50906280Y24095737D01*
X50979957Y24085722D01*
X51054349Y24095737D01*
X51094406Y24127210D01*
X51107997Y24165122D01*
X51110143Y24213047D01*
X51110143Y24868269D01*
X51307568Y24868269D01*
X51348340Y24870415D01*
X51381245Y24881860D01*
X51409142Y24915479D01*
X51417725Y24978426D01*
X51409142Y25041373D01*
X51381960Y25074993D01*
X51349771Y25086438D01*
X51308999Y25088584D01*
X50655207Y25088584D01*
X50614435Y25086438D01*
X50581531Y25074993D01*
X50553634Y25042089D01*
X50545050Y24979857D01*
X50473758Y24979857D01*
X50464936Y24989871D01*
X50426309Y25017053D01*
X50336021Y25061561D01*
X50248277Y25088266D01*
X50163076Y25097167D01*
X50099950Y25092876D01*
X50033605Y25080000D01*
X49964936Y25057289D01*
X49894835Y25023491D01*
X49827775Y24979857D01*
X49768226Y24927639D01*
X49717439Y24863441D01*
X49676667Y24783863D01*
X49649843Y24692303D01*
X49640901Y24592160D01*
X49433774Y24592160D01*
X49231745Y25009900D01*
X49182747Y25067840D01*
X49113004Y25087153D01*
X49042904Y25066409D01*
X48992833Y25011330D01*
X48633748Y24267411D01*
X48615150Y24166552D01*
X48244621Y24166552D01*
X48244621Y25216385D01*
X48602275Y25216385D01*
X51417725Y25216385D01*
X51775379Y25216385D01*
X51775379Y23943615D01*
G37*
D13*
%TO.C,TP103*%
X16900000Y46500000D02*
G75*
G02*
X15500000Y46500000I-700000J0D01*
G01*
X15500000Y46500000D02*
G75*
G02*
X16900000Y46500000I700000J0D01*
G01*
%TO.C,C705*%
X48828748Y13545000D02*
X49351252Y13545000D01*
X48828748Y12075000D02*
X49351252Y12075000D01*
%TO.C,U702*%
X47315000Y9990000D02*
X47315000Y7990000D01*
X49515000Y9990000D02*
X49515000Y7990000D01*
X49785000Y10330000D02*
X49505000Y10330000D01*
X49505000Y10610000D01*
X49785000Y10330000D01*
G36*
X49785000Y10330000D02*
G01*
X49505000Y10330000D01*
X49505000Y10610000D01*
X49785000Y10330000D01*
G37*
%TO.C,J5*%
X-8210000Y36210000D02*
X-8210000Y35710000D01*
X-8210000Y36210000D02*
X-7710000Y36210000D01*
X-8060000Y36060000D02*
X-8060000Y35160000D01*
X-8060000Y36060000D02*
X-7260000Y36060000D01*
X-8060000Y32020000D02*
X-8060000Y32920000D01*
X-8060000Y32020000D02*
X-7260000Y32020000D01*
X480000Y36060000D02*
X-320000Y36060000D01*
X480000Y36060000D02*
X480000Y35160000D01*
X480000Y32020000D02*
X-320000Y32020000D01*
X480000Y32020000D02*
X480000Y32920000D01*
%TO.C,C2*%
X17748752Y10935000D02*
X17226248Y10935000D01*
X17748752Y9465000D02*
X17226248Y9465000D01*
%TO.C,R606*%
X51910000Y24803641D02*
X51910000Y24496359D01*
X52670000Y24803641D02*
X52670000Y24496359D01*
%TO.C,C708*%
X44048748Y14285000D02*
X44571252Y14285000D01*
X44048748Y12815000D02*
X44571252Y12815000D01*
D14*
%TO.C,kibuzzard-67CC6BD3*%
G36*
X51222016Y45750000D02*
G01*
X50881084Y45238603D01*
X50690335Y45238603D01*
X50296630Y45238603D01*
X49583612Y45238603D01*
X49033111Y45238603D01*
X48768733Y45238603D01*
X48577984Y45238603D01*
X48577984Y45651001D01*
X48768733Y45651001D01*
X48775600Y45596066D01*
X48797918Y45567454D01*
X48824241Y45557725D01*
X48856859Y45556009D01*
X48939262Y45556009D01*
X48939262Y45481617D01*
X48940979Y45446710D01*
X48950707Y45418097D01*
X48979320Y45394063D01*
X49033111Y45386624D01*
X49088046Y45394063D01*
X49116659Y45417525D01*
X49126387Y45445565D01*
X49128104Y45480472D01*
X49128104Y45483906D01*
X49319234Y45483906D01*
X49362725Y45414092D01*
X49386759Y45393491D01*
X49464584Y45354006D01*
X49521809Y45338984D01*
X49583612Y45333977D01*
X49658003Y45343069D01*
X49724003Y45370347D01*
X49781609Y45415808D01*
X49826117Y45474622D01*
X49852821Y45541957D01*
X49861723Y45617811D01*
X49852567Y45685908D01*
X49825099Y45748283D01*
X49779320Y45804936D01*
X49721459Y45849762D01*
X49657749Y45876657D01*
X49588189Y45885622D01*
X49582467Y45885622D01*
X49563011Y45883333D01*
X49571022Y45943991D01*
X49747274Y45943991D01*
X49783898Y45945708D01*
X49813654Y45956009D01*
X49838261Y45986338D01*
X49845700Y46043562D01*
X49840629Y46083047D01*
X49910936Y46083047D01*
X49922381Y46003505D01*
X50193626Y45407225D01*
X50232539Y45364306D01*
X50296630Y45350000D01*
X50355571Y45365451D01*
X50395056Y45407225D01*
X50666301Y46003505D01*
X50679463Y46082475D01*
X50613654Y46137411D01*
X50528962Y46154006D01*
X50475171Y46089342D01*
X50294341Y45644134D01*
X50113511Y46089342D01*
X50060865Y46154578D01*
X49975028Y46137411D01*
X49910936Y46083047D01*
X49840629Y46083047D01*
X49837689Y46105937D01*
X49811938Y46137983D01*
X49781036Y46148856D01*
X49741551Y46151144D01*
X49479463Y46152289D01*
X49425099Y46141989D01*
X49393054Y46111660D01*
X49379892Y46080186D01*
X49374169Y46048140D01*
X49331823Y45723104D01*
X49346129Y45689914D01*
X49397059Y45655579D01*
X49471451Y45632690D01*
X49535543Y45660157D01*
X49580178Y45676180D01*
X49630536Y45657296D01*
X49651137Y45609800D01*
X49631680Y45561731D01*
X49576745Y45544564D01*
X49510364Y45562876D01*
X49432539Y45600644D01*
X49361580Y45561731D01*
X49319234Y45483906D01*
X49128104Y45483906D01*
X49128104Y45556009D01*
X49209363Y45556009D01*
X49241981Y45557725D01*
X49268304Y45567454D01*
X49290622Y45596066D01*
X49297488Y45649857D01*
X49290049Y45705365D01*
X49266587Y45734549D01*
X49238547Y45744278D01*
X49203640Y45745994D01*
X49128104Y45745994D01*
X49128104Y45820386D01*
X49126387Y45855293D01*
X49116659Y45883333D01*
X49088046Y45906795D01*
X49034255Y45914235D01*
X48979320Y45907368D01*
X48950707Y45884478D01*
X48940979Y45856438D01*
X48939262Y45821531D01*
X48939262Y45745994D01*
X48864870Y45745994D01*
X48829391Y45744278D01*
X48800207Y45734549D01*
X48776172Y45705937D01*
X48768733Y45651001D01*
X48577984Y45651001D01*
X48577984Y46261397D01*
X48768733Y46261397D01*
X50690335Y46261397D01*
X50881084Y46261397D01*
X51222016Y45750000D01*
G37*
D13*
%TO.C,U701*%
X-3287500Y30560000D02*
X-4087500Y30560000D01*
X-3287500Y30560000D02*
X-2487500Y30560000D01*
X-3287500Y27440000D02*
X-4087500Y27440000D01*
X-3287500Y27440000D02*
X-2487500Y27440000D01*
X-1747500Y27160000D02*
X-2227500Y27160000D01*
X-1987500Y27490000D01*
X-1747500Y27160000D01*
G36*
X-1747500Y27160000D02*
G01*
X-2227500Y27160000D01*
X-1987500Y27490000D01*
X-1747500Y27160000D01*
G37*
%TO.C,R21*%
X-6322164Y38310000D02*
X-6537836Y38310000D01*
X-6322164Y37590000D02*
X-6537836Y37590000D01*
%TO.C,J1*%
X-3130000Y24440000D02*
X5990000Y24440000D01*
X-3130000Y1320000D02*
X-3130000Y24440000D01*
X-1820000Y23140000D02*
X4680000Y23140000D01*
X-1820000Y2620000D02*
X-1820000Y23140000D01*
X4680000Y23140000D02*
X4680000Y14930000D01*
X4680000Y14930000D02*
X5990000Y14930000D01*
X4680000Y10830000D02*
X4680000Y2620000D01*
X4680000Y2620000D02*
X-1820000Y2620000D01*
X5990000Y24440000D02*
X5990000Y1320000D01*
X5990000Y10830000D02*
X4680000Y10830000D01*
X5990000Y1320000D02*
X-3130000Y1320000D01*
X6380000Y6530000D02*
X7380000Y6030000D01*
X7380000Y7030000D02*
X6380000Y6530000D01*
X7380000Y6030000D02*
X7380000Y7030000D01*
D15*
%TO.C,D702*%
X20020000Y57250000D02*
X20020000Y57030000D01*
X20020000Y57250000D02*
X21220000Y57250000D01*
X20360000Y56140000D02*
X20890000Y56140000D01*
X20360000Y56130000D02*
X20360000Y56730000D01*
X20890000Y56750000D02*
X20360000Y56750000D01*
X21220000Y57250000D02*
X21220000Y57030000D01*
D14*
%TO.C,kibuzzard-6773B9CA*%
G36*
X27538635Y21399175D02*
G01*
X27347886Y21399175D01*
X27038873Y21399175D01*
X26302965Y21399175D01*
X25559045Y21399175D01*
X24957042Y21399175D01*
X24692664Y21399175D01*
X24501915Y21399175D01*
X24227746Y21810429D01*
X24692664Y21810429D01*
X24699531Y21755494D01*
X24721849Y21726881D01*
X24748172Y21717153D01*
X24780790Y21715436D01*
X24863193Y21715436D01*
X24863193Y21641044D01*
X24864910Y21606137D01*
X24874638Y21577525D01*
X24903251Y21553491D01*
X24957042Y21546052D01*
X25011977Y21553491D01*
X25040590Y21576953D01*
X25050318Y21604993D01*
X25052035Y21639900D01*
X25052035Y21715436D01*
X25133294Y21715436D01*
X25165912Y21717153D01*
X25192235Y21726881D01*
X25210982Y21750916D01*
X25253465Y21750916D01*
X25263639Y21685743D01*
X25294158Y21626039D01*
X25345025Y21571803D01*
X25409498Y21528884D01*
X25480838Y21503133D01*
X25559045Y21494549D01*
X25643165Y21503133D01*
X25716985Y21528884D01*
X25780504Y21571803D01*
X25829145Y21627819D01*
X25858329Y21692864D01*
X25868058Y21766938D01*
X25860332Y21821874D01*
X25837156Y21867654D01*
X25773065Y21929456D01*
X25832292Y21986395D01*
X25852035Y22070229D01*
X25843197Y22131650D01*
X25816683Y22189256D01*
X25772962Y22242475D01*
X25917271Y22242475D01*
X25928716Y22162933D01*
X26199960Y21566652D01*
X26238873Y21523734D01*
X26302965Y21509428D01*
X26361906Y21524878D01*
X26401391Y21566652D01*
X26485212Y21750916D01*
X26733294Y21750916D01*
X26743467Y21685743D01*
X26773987Y21626039D01*
X26824853Y21571803D01*
X26889326Y21528884D01*
X26960666Y21503133D01*
X27038873Y21494549D01*
X27122993Y21503133D01*
X27196813Y21528884D01*
X27260332Y21571803D01*
X27308973Y21627819D01*
X27338158Y21692864D01*
X27347886Y21766938D01*
X27340161Y21821874D01*
X27316985Y21867654D01*
X27252893Y21929456D01*
X27312120Y21986395D01*
X27331863Y22070229D01*
X27323025Y22131650D01*
X27296511Y22189256D01*
X27252321Y22243047D01*
X27193252Y22286284D01*
X27122103Y22312225D01*
X27038873Y22320873D01*
X26975354Y22315722D01*
X26922707Y22301989D01*
X26880361Y22281960D01*
X26846598Y22258498D01*
X26821419Y22233891D01*
X26803108Y22211001D01*
X26791663Y22192117D01*
X26785368Y22179528D01*
X26783651Y22175522D01*
X26767056Y22096552D01*
X26823708Y22033605D01*
X26885002Y22013131D01*
X26933071Y22026484D01*
X26967914Y22073662D01*
X27001105Y22107997D01*
X27050318Y22119442D01*
X27102392Y22105136D01*
X27121276Y22065651D01*
X27104681Y22036466D01*
X27051462Y22029027D01*
X27043451Y22029027D01*
X27006827Y22027310D01*
X26977643Y22017582D01*
X26953608Y21987825D01*
X26946169Y21930601D01*
X26953036Y21880243D01*
X26966770Y21850486D01*
X26992521Y21836180D01*
X27018844Y21831030D01*
X27050318Y21831030D01*
X27116412Y21814435D01*
X27138444Y21764649D01*
X27111548Y21717153D01*
X27040017Y21699413D01*
X26999388Y21705708D01*
X26971920Y21719442D01*
X26954753Y21736609D01*
X26946169Y21750343D01*
X26943880Y21756638D01*
X26910690Y21810429D01*
X26847743Y21823019D01*
X26761906Y21804993D01*
X26733294Y21750916D01*
X26485212Y21750916D01*
X26672636Y22162933D01*
X26685797Y22241903D01*
X26619989Y22296838D01*
X26535296Y22313433D01*
X26481505Y22248770D01*
X26300676Y21803562D01*
X26119846Y22248770D01*
X26067199Y22314006D01*
X25981362Y22296838D01*
X25917271Y22242475D01*
X25772962Y22242475D01*
X25772492Y22243047D01*
X25713424Y22286284D01*
X25642275Y22312225D01*
X25559045Y22320873D01*
X25495525Y22315722D01*
X25442879Y22301989D01*
X25400533Y22281960D01*
X25366770Y22258498D01*
X25341591Y22233891D01*
X25323279Y22211001D01*
X25311834Y22192117D01*
X25305540Y22179528D01*
X25303823Y22175522D01*
X25287228Y22096552D01*
X25343880Y22033605D01*
X25405174Y22013131D01*
X25453243Y22026484D01*
X25488086Y22073662D01*
X25521276Y22107997D01*
X25570490Y22119442D01*
X25622564Y22105136D01*
X25641448Y22065651D01*
X25624853Y22036466D01*
X25571634Y22029027D01*
X25563623Y22029027D01*
X25526999Y22027310D01*
X25497814Y22017582D01*
X25473780Y21987825D01*
X25466341Y21930601D01*
X25473208Y21880243D01*
X25486942Y21850486D01*
X25512693Y21836180D01*
X25539016Y21831030D01*
X25570490Y21831030D01*
X25636584Y21814435D01*
X25658615Y21764649D01*
X25631720Y21717153D01*
X25560189Y21699413D01*
X25519560Y21705708D01*
X25492092Y21719442D01*
X25474924Y21736609D01*
X25466341Y21750343D01*
X25464052Y21756638D01*
X25430862Y21810429D01*
X25367914Y21823019D01*
X25282078Y21804993D01*
X25253465Y21750916D01*
X25210982Y21750916D01*
X25214553Y21755494D01*
X25221419Y21809285D01*
X25213980Y21864793D01*
X25190518Y21893977D01*
X25162478Y21903705D01*
X25127571Y21905422D01*
X25052035Y21905422D01*
X25052035Y21979814D01*
X25050318Y22014721D01*
X25040590Y22042761D01*
X25011977Y22066223D01*
X24958186Y22073662D01*
X24903251Y22066795D01*
X24874638Y22043906D01*
X24864910Y22015866D01*
X24863193Y21980959D01*
X24863193Y21905422D01*
X24788801Y21905422D01*
X24753322Y21903705D01*
X24724138Y21893977D01*
X24700103Y21865365D01*
X24692664Y21810429D01*
X24227746Y21810429D01*
X24161365Y21910000D01*
X24501915Y22420825D01*
X24692664Y22420825D01*
X27347886Y22420825D01*
X27538635Y22420825D01*
X27538635Y21399175D01*
G37*
D13*
%TO.C,R20*%
X-6372164Y39430000D02*
X-6587836Y39430000D01*
X-6372164Y38710000D02*
X-6587836Y38710000D01*
%TO.C,L701*%
X40750000Y12540000D02*
X41240000Y12540000D01*
X40750000Y6540000D02*
X40750000Y12540000D01*
X40750000Y6540000D02*
X41240000Y6540000D01*
X46950000Y12540000D02*
X46460000Y12540000D01*
X46950000Y6540000D02*
X46460000Y6540000D01*
X46950000Y6540000D02*
X46950000Y12540000D01*
%TO.C,U703*%
X42600000Y43225000D02*
X45900000Y43225000D01*
X45900000Y43225000D02*
X45900000Y47225000D01*
%TO.C,C704*%
X48828748Y15520000D02*
X49351252Y15520000D01*
X48828748Y14050000D02*
X49351252Y14050000D01*
%TO.C,R707*%
X23230000Y55873641D02*
X23230000Y55566359D01*
X23990000Y55873641D02*
X23990000Y55566359D01*
%TO.C,C709*%
X41161252Y14285000D02*
X40638748Y14285000D01*
X41161252Y12815000D02*
X40638748Y12815000D01*
%TO.C,C701*%
X-135000Y28188748D02*
X-135000Y28711252D01*
X1335000Y28188748D02*
X1335000Y28711252D01*
%TO.C,R706*%
X49770000Y9771359D02*
X49770000Y10078641D01*
X50530000Y9771359D02*
X50530000Y10078641D01*
D14*
%TO.C,kibuzzard-69AD8816*%
G36*
X16738126Y48228326D02*
G01*
X16630544Y48228326D01*
X16684335Y48339342D01*
X16738126Y48228326D01*
G37*
G36*
X15934692Y48461516D02*
G01*
X15996495Y48419456D01*
X16038555Y48357654D01*
X16052575Y48284406D01*
X16038555Y48211302D01*
X15996495Y48149928D01*
X15934979Y48108298D01*
X15862589Y48094421D01*
X15769886Y48094421D01*
X15769886Y48475536D01*
X15861445Y48475536D01*
X15934692Y48461516D01*
G37*
G36*
X16904077Y50750501D02*
G01*
X16965880Y50708441D01*
X17007940Y50646638D01*
X17021960Y50573391D01*
X17007940Y50500286D01*
X16965880Y50438913D01*
X16904363Y50397282D01*
X16831974Y50383405D01*
X16739270Y50383405D01*
X16739270Y50764521D01*
X16830830Y50764521D01*
X16904077Y50750501D01*
G37*
G36*
X17770076Y47770148D02*
G01*
X17579328Y47770148D01*
X17270315Y47770148D01*
X16934979Y47770148D01*
X15664592Y47770148D01*
X15218240Y47770148D01*
X14920672Y47770148D01*
X14729924Y47770148D01*
X14729924Y48071531D01*
X14925250Y48071531D01*
X14953863Y47997139D01*
X14960730Y47989127D01*
X14973319Y47973104D01*
X14993348Y47953076D01*
X15020815Y47930758D01*
X15056295Y47909013D01*
X15100358Y47890129D01*
X15154149Y47877539D01*
X15218240Y47872389D01*
X15294349Y47880973D01*
X15372747Y47910157D01*
X15443133Y47961087D01*
X15492918Y48038340D01*
X15507511Y48087840D01*
X15512375Y48142489D01*
X15501645Y48228040D01*
X15469456Y48290129D01*
X15419242Y48333619D01*
X15354435Y48363376D01*
X15281187Y48381116D01*
X15211373Y48395422D01*
X15166166Y48415451D01*
X15146137Y48452647D01*
X15164449Y48487554D01*
X15206795Y48501860D01*
X15244564Y48497854D01*
X15266881Y48489270D01*
X15282904Y48476109D01*
X15296066Y48465236D01*
X15372747Y48444063D01*
X15440272Y48499571D01*
X15467740Y48569957D01*
X15459340Y48581974D01*
X15560443Y48581974D01*
X15560443Y47990272D01*
X15563305Y47949642D01*
X15575322Y47917597D01*
X15606795Y47892990D01*
X15664592Y47884979D01*
X15859156Y47884979D01*
X15939628Y47892382D01*
X16013948Y47914592D01*
X16076388Y47948498D01*
X16287196Y47948498D01*
X16351288Y47892990D01*
X16434835Y47876395D01*
X16492060Y47939914D01*
X16544707Y48049785D01*
X16826252Y48049785D01*
X16878898Y47941059D01*
X16934979Y47875250D01*
X17019671Y47891845D01*
X17083190Y47947926D01*
X17067740Y48029185D01*
X16780472Y48623176D01*
X16741273Y48669528D01*
X16685479Y48684979D01*
X16629399Y48668383D01*
X16589342Y48624320D01*
X16411946Y48256806D01*
X16302074Y48029185D01*
X16287196Y47948498D01*
X16076388Y47948498D01*
X16082117Y47951609D01*
X16144134Y48003433D01*
X16195708Y48065701D01*
X16232546Y48134049D01*
X16254649Y48208476D01*
X16262017Y48288984D01*
X16254649Y48367382D01*
X16232546Y48440057D01*
X16195708Y48507010D01*
X16144134Y48568240D01*
X16082332Y48619313D01*
X16014807Y48655794D01*
X15958727Y48672552D01*
X15941559Y48677682D01*
X15862589Y48684979D01*
X15665737Y48684979D01*
X15605079Y48677539D01*
X15573033Y48651788D01*
X15562160Y48620315D01*
X15560443Y48581974D01*
X15459340Y48581974D01*
X15426538Y48628898D01*
X15367151Y48667048D01*
X15294285Y48689938D01*
X15218240Y48696658D01*
X15207940Y48697568D01*
X15134565Y48689874D01*
X15070092Y48666794D01*
X15014521Y48628326D01*
X14971920Y48578159D01*
X14946360Y48519981D01*
X14937840Y48453791D01*
X14946996Y48379399D01*
X14974464Y48317597D01*
X15020243Y48268383D01*
X15084335Y48231760D01*
X15127682Y48216166D01*
X15182189Y48201431D01*
X15272031Y48174535D01*
X15301788Y48139056D01*
X15281187Y48085837D01*
X15213662Y48069242D01*
X15168455Y48080114D01*
X15122103Y48121888D01*
X15070474Y48163599D01*
X15020879Y48171229D01*
X14973319Y48144778D01*
X14925250Y48071531D01*
X14729924Y48071531D01*
X14729924Y49216023D01*
X14925250Y49216023D01*
X14953863Y49141631D01*
X14960730Y49133619D01*
X14973319Y49117597D01*
X14993348Y49097568D01*
X15020815Y49075250D01*
X15056295Y49053505D01*
X15100358Y49034621D01*
X15154149Y49022031D01*
X15218240Y49016881D01*
X15294349Y49025465D01*
X15372747Y49054649D01*
X15443133Y49105579D01*
X15492918Y49182833D01*
X15507511Y49232332D01*
X15512375Y49286981D01*
X15501645Y49372532D01*
X15470050Y49433476D01*
X15544421Y49433476D01*
X15551717Y49350215D01*
X15573605Y49274392D01*
X15606652Y49208727D01*
X15647425Y49155937D01*
X15695064Y49113019D01*
X15748712Y49076967D01*
X15804506Y49049070D01*
X15858584Y49030615D01*
X15910229Y49020315D01*
X15958727Y49016881D01*
X16032737Y49024003D01*
X16103696Y49045366D01*
X16171602Y49080973D01*
X16218526Y49115880D01*
X16234549Y49157654D01*
X16209371Y49224034D01*
X16168169Y49272961D01*
X16129256Y49289270D01*
X16072031Y49266381D01*
X16014521Y49238054D01*
X15954149Y49228612D01*
X15867167Y49246924D01*
X15825823Y49272532D01*
X15788770Y49312732D01*
X15762589Y49365236D01*
X15753863Y49427754D01*
X15758727Y49476395D01*
X15773319Y49519313D01*
X15824249Y49581688D01*
X15888913Y49615451D01*
X15954149Y49626896D01*
X15981617Y49625751D01*
X16004506Y49621745D01*
X16022818Y49617167D01*
X16038269Y49611445D01*
X16049142Y49605150D01*
X16058870Y49598856D01*
X16066309Y49593705D01*
X16128112Y49567382D01*
X16167597Y49582833D01*
X16210515Y49629185D01*
X16235694Y49693276D01*
X16225546Y49725322D01*
X16307797Y49725322D01*
X16307797Y49133619D01*
X16309514Y49094134D01*
X16320386Y49062661D01*
X16352432Y49036338D01*
X16411946Y49028326D01*
X16795351Y49028326D01*
X16827969Y49030043D01*
X16855436Y49039771D01*
X16877754Y49067239D01*
X16884621Y49117597D01*
X16877754Y49169099D01*
X16855436Y49195994D01*
X16829113Y49205150D01*
X16796495Y49206867D01*
X16633977Y49206867D01*
X16517239Y49206867D01*
X16517239Y49724177D01*
X16515522Y49763662D01*
X16504649Y49795136D01*
X16472604Y49821459D01*
X16413090Y49829471D01*
X16352432Y49821459D01*
X16320386Y49795136D01*
X16309514Y49763662D01*
X16307797Y49725322D01*
X16225546Y49725322D01*
X16224821Y49727611D01*
X16203648Y49751645D01*
X16172747Y49773391D01*
X16100517Y49808997D01*
X16030321Y49830361D01*
X15962160Y49837482D01*
X15911660Y49834049D01*
X15866023Y49825192D01*
X15858584Y49823748D01*
X15803648Y49805579D01*
X15747568Y49778541D01*
X15693920Y49743634D01*
X15646280Y49701860D01*
X15605651Y49650501D01*
X15573033Y49586838D01*
X15551574Y49513591D01*
X15544421Y49433476D01*
X15470050Y49433476D01*
X15469456Y49434621D01*
X15419242Y49478112D01*
X15354435Y49507868D01*
X15281187Y49525608D01*
X15211373Y49539914D01*
X15166166Y49559943D01*
X15146137Y49597139D01*
X15164449Y49632046D01*
X15206795Y49646352D01*
X15244564Y49642346D01*
X15266881Y49633763D01*
X15282904Y49620601D01*
X15296066Y49609728D01*
X15372747Y49588555D01*
X15440272Y49644063D01*
X15467740Y49714449D01*
X15426538Y49773391D01*
X15367151Y49811540D01*
X15351001Y49816614D01*
X15294285Y49834430D01*
X15207940Y49842060D01*
X15134565Y49834367D01*
X15070092Y49811286D01*
X15014521Y49772818D01*
X14971920Y49722651D01*
X14946360Y49664473D01*
X14937840Y49598283D01*
X14946996Y49523891D01*
X14974464Y49462089D01*
X15020243Y49412876D01*
X15084335Y49376252D01*
X15127682Y49360658D01*
X15182189Y49345923D01*
X15272031Y49319027D01*
X15301788Y49283548D01*
X15281187Y49230329D01*
X15213662Y49213734D01*
X15168455Y49224607D01*
X15122103Y49266381D01*
X15070474Y49308091D01*
X15020879Y49315721D01*
X14973319Y49289270D01*
X14925250Y49216023D01*
X14729924Y49216023D01*
X14729924Y50584835D01*
X14948140Y50584835D01*
X14955579Y50500930D01*
X14977897Y50423176D01*
X15015093Y50351574D01*
X15067167Y50286123D01*
X15129542Y50231545D01*
X15197639Y50192561D01*
X15271459Y50169170D01*
X15351001Y50161373D01*
X15438746Y50166333D01*
X15514282Y50181211D01*
X15577611Y50206009D01*
X15619671Y50232475D01*
X15652003Y50263805D01*
X15679471Y50329614D01*
X15679471Y50564235D01*
X15678898Y50592847D01*
X15673748Y50618026D01*
X15660014Y50640916D01*
X15633119Y50655794D01*
X15589056Y50663805D01*
X15388770Y50663805D01*
X15357868Y50662089D01*
X15332690Y50652933D01*
X15311516Y50626037D01*
X15305222Y50575680D01*
X15310944Y50524177D01*
X15330401Y50497282D01*
X15354435Y50488126D01*
X15385336Y50486409D01*
X15470029Y50486409D01*
X15470029Y50387983D01*
X15421388Y50376824D01*
X15355579Y50373104D01*
X15281474Y50388841D01*
X15217096Y50436052D01*
X15172461Y50504149D01*
X15157582Y50582546D01*
X15171888Y50658512D01*
X15214807Y50721602D01*
X15278040Y50764092D01*
X15353290Y50778255D01*
X15423963Y50770243D01*
X15482618Y50746209D01*
X15544421Y50719886D01*
X15586767Y50735050D01*
X15629113Y50780544D01*
X15655436Y50844635D01*
X15646438Y50872103D01*
X15763019Y50872103D01*
X15763019Y50278112D01*
X15765308Y50238054D01*
X15776180Y50206581D01*
X15807082Y50180830D01*
X15866023Y50172818D01*
X15926681Y50180830D01*
X15958727Y50206581D01*
X15969599Y50237482D01*
X15971316Y50276967D01*
X15971316Y50595136D01*
X16267740Y50203720D01*
X16301502Y50179113D01*
X16360443Y50172818D01*
X16421102Y50180830D01*
X16453147Y50206581D01*
X16464020Y50237482D01*
X16465737Y50276967D01*
X16465737Y50867525D01*
X16465588Y50870959D01*
X16529828Y50870959D01*
X16529828Y50279256D01*
X16532690Y50238627D01*
X16544707Y50206581D01*
X16576180Y50181974D01*
X16633977Y50173963D01*
X16828541Y50173963D01*
X16909013Y50181366D01*
X16983333Y50203577D01*
X17051502Y50240594D01*
X17113519Y50292418D01*
X17165093Y50354685D01*
X17201931Y50423033D01*
X17224034Y50497461D01*
X17231402Y50577969D01*
X17224034Y50656366D01*
X17201931Y50729041D01*
X17165093Y50795994D01*
X17113519Y50857225D01*
X17051717Y50908298D01*
X16984192Y50944778D01*
X16910944Y50966667D01*
X16831974Y50973963D01*
X16635122Y50973963D01*
X16574464Y50966524D01*
X16542418Y50940773D01*
X16534406Y50917582D01*
X16531545Y50909299D01*
X16529828Y50870959D01*
X16465588Y50870959D01*
X16464020Y50907010D01*
X16453147Y50938484D01*
X16421102Y50964807D01*
X16361588Y50972818D01*
X16302074Y50964807D01*
X16270029Y50940200D01*
X16258584Y50909871D01*
X16256295Y50872103D01*
X16256295Y50543634D01*
X15970172Y50928183D01*
X15949571Y50951645D01*
X15920386Y50965951D01*
X15868312Y50972818D01*
X15808226Y50965379D01*
X15790486Y50951510D01*
X15776753Y50940773D01*
X15765308Y50910443D01*
X15763019Y50872103D01*
X15646438Y50872103D01*
X15644564Y50877825D01*
X15623391Y50901860D01*
X15591345Y50924750D01*
X15542275Y50951216D01*
X15482046Y50971102D01*
X15418383Y50983548D01*
X15359013Y50987697D01*
X15277361Y50980293D01*
X15201788Y50958083D01*
X15188484Y50950996D01*
X15132296Y50921066D01*
X15068884Y50869242D01*
X15016059Y50807046D01*
X14978326Y50738913D01*
X14955687Y50664843D01*
X14948140Y50584835D01*
X14729924Y50584835D01*
X14729924Y51619456D01*
X14924106Y51619456D01*
X14930973Y51564521D01*
X14953290Y51535908D01*
X14979614Y51526180D01*
X15012232Y51524464D01*
X15094635Y51524464D01*
X15094635Y51450072D01*
X15096352Y51415165D01*
X15106080Y51386552D01*
X15134692Y51362518D01*
X15188484Y51355079D01*
X15243419Y51362518D01*
X15272031Y51385980D01*
X15281760Y51414020D01*
X15283476Y51448927D01*
X15283476Y51524464D01*
X15364735Y51524464D01*
X15397353Y51526180D01*
X15423677Y51535908D01*
X15442423Y51559943D01*
X15484907Y51559943D01*
X15495080Y51494770D01*
X15525600Y51435066D01*
X15576466Y51380830D01*
X15640939Y51337911D01*
X15712279Y51312160D01*
X15790486Y51303577D01*
X15874607Y51312160D01*
X15948426Y51337911D01*
X16011946Y51380830D01*
X16060587Y51436846D01*
X16089771Y51501892D01*
X16099499Y51575966D01*
X16091774Y51630901D01*
X16068598Y51676681D01*
X16004506Y51738484D01*
X16063734Y51795422D01*
X16083476Y51879256D01*
X16074638Y51940677D01*
X16048124Y51998283D01*
X16004404Y52051502D01*
X16148712Y52051502D01*
X16160157Y51971960D01*
X16431402Y51375680D01*
X16470315Y51332761D01*
X16534406Y51318455D01*
X16593348Y51333906D01*
X16632833Y51375680D01*
X16716653Y51559943D01*
X16964735Y51559943D01*
X16974909Y51494770D01*
X17005428Y51435066D01*
X17056295Y51380830D01*
X17120768Y51337911D01*
X17192108Y51312160D01*
X17270315Y51303577D01*
X17354435Y51312160D01*
X17428255Y51337911D01*
X17491774Y51380830D01*
X17540415Y51436846D01*
X17569599Y51501892D01*
X17579328Y51575966D01*
X17571602Y51630901D01*
X17548426Y51676681D01*
X17484335Y51738484D01*
X17543562Y51795422D01*
X17563305Y51879256D01*
X17554467Y51940677D01*
X17527953Y51998283D01*
X17483763Y52052074D01*
X17424694Y52095311D01*
X17353545Y52121253D01*
X17270315Y52129900D01*
X17206795Y52124750D01*
X17154149Y52111016D01*
X17111803Y52090987D01*
X17078040Y52067525D01*
X17052861Y52042918D01*
X17034549Y52020029D01*
X17023104Y52001144D01*
X17016810Y51988555D01*
X17015093Y51984549D01*
X16998498Y51905579D01*
X17055150Y51842632D01*
X17116444Y51822159D01*
X17164513Y51835511D01*
X17199356Y51882690D01*
X17232546Y51917024D01*
X17281760Y51928469D01*
X17333834Y51914163D01*
X17352718Y51874678D01*
X17336123Y51845494D01*
X17282904Y51838054D01*
X17274893Y51838054D01*
X17238269Y51836338D01*
X17209084Y51826609D01*
X17185050Y51796853D01*
X17177611Y51739628D01*
X17184478Y51689270D01*
X17198212Y51659514D01*
X17223963Y51645207D01*
X17250286Y51640057D01*
X17281760Y51640057D01*
X17347854Y51623462D01*
X17369886Y51573677D01*
X17342990Y51526180D01*
X17271459Y51508441D01*
X17230830Y51514735D01*
X17203362Y51528469D01*
X17186195Y51545637D01*
X17177611Y51559371D01*
X17175322Y51565665D01*
X17142132Y51619456D01*
X17079185Y51632046D01*
X16993348Y51614020D01*
X16964735Y51559943D01*
X16716653Y51559943D01*
X16904077Y51971960D01*
X16917239Y52050930D01*
X16851431Y52105866D01*
X16766738Y52122461D01*
X16712947Y52057797D01*
X16532117Y51612589D01*
X16351288Y52057797D01*
X16298641Y52123033D01*
X16212804Y52105866D01*
X16148712Y52051502D01*
X16004404Y52051502D01*
X16003934Y52052074D01*
X15944866Y52095311D01*
X15873716Y52121253D01*
X15790486Y52129900D01*
X15726967Y52124750D01*
X15674320Y52111016D01*
X15631974Y52090987D01*
X15598212Y52067525D01*
X15573033Y52042918D01*
X15554721Y52020029D01*
X15543276Y52001144D01*
X15536981Y51988555D01*
X15535265Y51984549D01*
X15518670Y51905579D01*
X15575322Y51842632D01*
X15636616Y51822159D01*
X15684684Y51835511D01*
X15719528Y51882690D01*
X15752718Y51917024D01*
X15801931Y51928469D01*
X15854006Y51914163D01*
X15872890Y51874678D01*
X15856295Y51845494D01*
X15803076Y51838054D01*
X15795064Y51838054D01*
X15758441Y51836338D01*
X15729256Y51826609D01*
X15705222Y51796853D01*
X15697783Y51739628D01*
X15704649Y51689270D01*
X15718383Y51659514D01*
X15744134Y51645207D01*
X15770458Y51640057D01*
X15801931Y51640057D01*
X15868026Y51623462D01*
X15890057Y51573677D01*
X15863162Y51526180D01*
X15791631Y51508441D01*
X15751001Y51514735D01*
X15723534Y51528469D01*
X15706366Y51545637D01*
X15697783Y51559371D01*
X15695494Y51565665D01*
X15662303Y51619456D01*
X15599356Y51632046D01*
X15513519Y51614020D01*
X15484907Y51559943D01*
X15442423Y51559943D01*
X15445994Y51564521D01*
X15452861Y51618312D01*
X15445422Y51673820D01*
X15421960Y51703004D01*
X15393920Y51712732D01*
X15359013Y51714449D01*
X15283476Y51714449D01*
X15283476Y51788841D01*
X15281760Y51823748D01*
X15272031Y51851788D01*
X15243419Y51875250D01*
X15189628Y51882690D01*
X15134692Y51875823D01*
X15106080Y51852933D01*
X15096352Y51824893D01*
X15094635Y51789986D01*
X15094635Y51714449D01*
X15020243Y51714449D01*
X14984764Y51712732D01*
X14955579Y51703004D01*
X14931545Y51674392D01*
X14924106Y51619456D01*
X14729924Y51619456D01*
X14729924Y52229852D01*
X14920672Y52229852D01*
X17579328Y52229852D01*
X17770076Y52229852D01*
X17770076Y47770148D01*
G37*
D13*
%TO.C,C703*%
X-4011252Y26835000D02*
X-3488748Y26835000D01*
X-4011252Y25365000D02*
X-3488748Y25365000D01*
%TO.C,U602*%
X52010000Y22530000D02*
X50610000Y22530000D01*
X52020000Y20210000D02*
X50610000Y20210000D01*
X52630000Y19930000D02*
X52150000Y19930000D01*
X52390000Y20260000D01*
X52630000Y19930000D01*
G36*
X52630000Y19930000D02*
G01*
X52150000Y19930000D01*
X52390000Y20260000D01*
X52630000Y19930000D01*
G37*
%TO.C,C702*%
X-8760000Y29760000D02*
X-8760000Y25550000D01*
X-5740000Y29760000D02*
X-8760000Y29760000D01*
X-5740000Y25550000D02*
X-5740000Y29760000D01*
%TO.C,R705*%
X49770000Y7891359D02*
X49770000Y8198641D01*
X50530000Y7891359D02*
X50530000Y8198641D01*
D14*
%TO.C,kibuzzard-6773C376*%
G36*
X36016881Y58620672D02*
G01*
X36094134Y58568097D01*
X36146710Y58490844D01*
X36164235Y58399285D01*
X36146710Y58307904D01*
X36094134Y58231187D01*
X36017239Y58179149D01*
X35926753Y58161803D01*
X35810873Y58161803D01*
X35810873Y58638197D01*
X35925322Y58638197D01*
X36016881Y58620672D01*
G37*
G36*
X36783691Y57765045D02*
G01*
X36426037Y57765045D01*
X35679256Y57765045D01*
X35121316Y57765045D01*
X34345923Y57765045D01*
X33973963Y57765045D01*
X33616309Y57765045D01*
X33616309Y58133190D01*
X33979685Y58133190D01*
X34015451Y58040200D01*
X34024034Y58030186D01*
X34039771Y58010157D01*
X34064807Y57985122D01*
X34099142Y57957225D01*
X34143491Y57930043D01*
X34198569Y57906438D01*
X34265808Y57890701D01*
X34345923Y57884263D01*
X34441059Y57894993D01*
X34539056Y57931474D01*
X34627039Y57995136D01*
X34689270Y58091702D01*
X34701501Y58133190D01*
X34755079Y58133190D01*
X34790844Y58040200D01*
X34799428Y58030186D01*
X34815165Y58010157D01*
X34840200Y57985122D01*
X34874535Y57957225D01*
X34918884Y57930043D01*
X34973963Y57906438D01*
X35041202Y57890701D01*
X35121316Y57884263D01*
X35216452Y57894993D01*
X35314449Y57931474D01*
X35402432Y57995136D01*
X35464664Y58091702D01*
X35482904Y58153577D01*
X35488984Y58221888D01*
X35475572Y58328827D01*
X35435336Y58406438D01*
X35372568Y58460801D01*
X35291559Y58497997D01*
X35200000Y58520172D01*
X35112732Y58538054D01*
X35056223Y58563090D01*
X35031187Y58609585D01*
X35054077Y58653219D01*
X35107010Y58671102D01*
X35154220Y58666094D01*
X35182117Y58655365D01*
X35202146Y58638913D01*
X35218598Y58625322D01*
X35314449Y58598856D01*
X35398856Y58668240D01*
X35433190Y58756223D01*
X35422689Y58771245D01*
X35549070Y58771245D01*
X35549070Y58031617D01*
X35552647Y57980830D01*
X35567668Y57940773D01*
X35607010Y57910014D01*
X35679256Y57900000D01*
X35922461Y57900000D01*
X36023051Y57909254D01*
X36115951Y57937017D01*
X36201162Y57983289D01*
X36278684Y58048069D01*
X36343151Y58125903D01*
X36389199Y58211338D01*
X36416828Y58304372D01*
X36426037Y58405007D01*
X36416828Y58503004D01*
X36389199Y58593848D01*
X36343151Y58677539D01*
X36278684Y58754077D01*
X36201431Y58817918D01*
X36117024Y58863519D01*
X36025465Y58890880D01*
X35926753Y58900000D01*
X35680687Y58900000D01*
X35604864Y58890701D01*
X35564807Y58858512D01*
X35551216Y58819170D01*
X35549070Y58771245D01*
X35422689Y58771245D01*
X35381688Y58829900D01*
X35307455Y58877587D01*
X35216373Y58906199D01*
X35108441Y58915737D01*
X35016722Y58906120D01*
X34936131Y58877269D01*
X34866667Y58829185D01*
X34813416Y58766476D01*
X34781466Y58693753D01*
X34770815Y58611016D01*
X34782260Y58518026D01*
X34816595Y58440773D01*
X34873820Y58379256D01*
X34953934Y58333476D01*
X35008119Y58313984D01*
X35076252Y58295565D01*
X35188555Y58261946D01*
X35225751Y58217597D01*
X35200000Y58151073D01*
X35115594Y58130329D01*
X35059084Y58143920D01*
X35001144Y58196137D01*
X34936608Y58248275D01*
X34874615Y58257813D01*
X34815165Y58224750D01*
X34755079Y58133190D01*
X34701501Y58133190D01*
X34707511Y58153577D01*
X34713591Y58221888D01*
X34700179Y58328827D01*
X34659943Y58406438D01*
X34597175Y58460801D01*
X34516166Y58497997D01*
X34424607Y58520172D01*
X34337339Y58538054D01*
X34280830Y58563090D01*
X34255794Y58609585D01*
X34278684Y58653219D01*
X34331617Y58671102D01*
X34378827Y58666094D01*
X34406724Y58655365D01*
X34426753Y58638913D01*
X34443205Y58625322D01*
X34539056Y58598856D01*
X34623462Y58668240D01*
X34657797Y58756223D01*
X34606295Y58829900D01*
X34532062Y58877587D01*
X34440979Y58906199D01*
X34333047Y58915737D01*
X34241329Y58906120D01*
X34160738Y58877269D01*
X34091273Y58829185D01*
X34038023Y58766476D01*
X34006072Y58693753D01*
X33995422Y58611016D01*
X34006867Y58518026D01*
X34041202Y58440773D01*
X34098426Y58379256D01*
X34178541Y58333476D01*
X34232725Y58313984D01*
X34300858Y58295565D01*
X34413162Y58261946D01*
X34450358Y58217597D01*
X34424607Y58151073D01*
X34340200Y58130329D01*
X34283691Y58143920D01*
X34225751Y58196137D01*
X34161214Y58248275D01*
X34099221Y58257813D01*
X34039771Y58224750D01*
X33979685Y58133190D01*
X33616309Y58133190D01*
X33616309Y59034955D01*
X33973963Y59034955D01*
X36426037Y59034955D01*
X36783691Y59034955D01*
X36783691Y57765045D01*
G37*
D13*
%TO.C,R501*%
X13023641Y47810000D02*
X12716359Y47810000D01*
X13023641Y47050000D02*
X12716359Y47050000D01*
D10*
%TO.C,J701*%
X23950000Y50625000D02*
X23950000Y22375000D01*
X23950000Y22375000D02*
X31450000Y22375000D01*
D16*
X24450000Y48145000D02*
X24450000Y53430000D01*
X25980000Y48145000D02*
X24450000Y48145000D01*
D10*
X39450000Y22375000D02*
X46950000Y22375000D01*
D16*
X40663500Y56325000D02*
X42226500Y56325000D01*
X40913500Y48145000D02*
X42476500Y48145000D01*
X46450000Y53430000D02*
X46450000Y51770000D01*
X46450000Y48145000D02*
X44920000Y48145000D01*
X46450000Y48145000D02*
X46450000Y49480000D01*
D10*
X46950000Y22375000D02*
X46950000Y50625000D01*
D17*
X26300000Y57421000D02*
G75*
G02*
X26100000Y57421000I-100000J0D01*
G01*
X26100000Y57421000D02*
G75*
G02*
X26300000Y57421000I100000J0D01*
G01*
D13*
%TO.C,C711*%
X27438748Y47085000D02*
X27961252Y47085000D01*
X27438748Y45615000D02*
X27961252Y45615000D01*
%TO.C,TP105*%
X330000Y39130000D02*
G75*
G02*
X-1070000Y39130000I-700000J0D01*
G01*
X-1070000Y39130000D02*
G75*
G02*
X330000Y39130000I700000J0D01*
G01*
D14*
%TO.C,kibuzzard-67EBB9C1*%
G36*
X450429Y45500930D02*
G01*
X475036Y45441416D01*
X448712Y45378469D01*
X393777Y45357868D01*
X267883Y45357868D01*
X267883Y45524964D01*
X391488Y45524964D01*
X450429Y45500930D01*
G37*
G36*
X424678Y44366452D02*
G01*
X486481Y44324392D01*
X528541Y44262589D01*
X542561Y44189342D01*
X528541Y44116237D01*
X486481Y44054864D01*
X424964Y44013233D01*
X352575Y43999356D01*
X259871Y43999356D01*
X259871Y44380472D01*
X351431Y44380472D01*
X424678Y44366452D01*
G37*
G36*
X2014378Y47799928D02*
G01*
X2076180Y47757868D01*
X2118240Y47696066D01*
X2132260Y47622818D01*
X2118240Y47549714D01*
X2076180Y47488340D01*
X2014664Y47446710D01*
X1942275Y47432833D01*
X1849571Y47432833D01*
X1849571Y47813948D01*
X1941130Y47813948D01*
X2014378Y47799928D01*
G37*
G36*
X2014378Y43221960D02*
G01*
X2076180Y43179900D01*
X2118240Y43118097D01*
X2132260Y43044850D01*
X2118240Y42971745D01*
X2076180Y42910372D01*
X2014664Y42868741D01*
X1942275Y42854864D01*
X1849571Y42854864D01*
X1849571Y43235980D01*
X1941130Y43235980D01*
X2014378Y43221960D01*
G37*
G36*
X1428684Y51241845D02*
G01*
X1489056Y51197639D01*
X1530258Y51132260D01*
X1543991Y51054006D01*
X1530401Y50975179D01*
X1489628Y50910372D01*
X1429113Y50867024D01*
X1356295Y50852575D01*
X1285765Y50867454D01*
X1225250Y50912089D01*
X1183619Y50977325D01*
X1169742Y51054006D01*
X1183476Y51132260D01*
X1224678Y51197639D01*
X1285336Y51241845D01*
X1357439Y51256581D01*
X1428684Y51241845D01*
G37*
G36*
X2322532Y52386338D02*
G01*
X2382904Y52342132D01*
X2424106Y52276753D01*
X2437840Y52198498D01*
X2424249Y52119671D01*
X2383476Y52054864D01*
X2322961Y52011516D01*
X2250143Y51997067D01*
X2179614Y52011946D01*
X2119099Y52056581D01*
X2077468Y52121817D01*
X2063591Y52198498D01*
X2077325Y52276753D01*
X2118526Y52342132D01*
X2179185Y52386338D01*
X2251288Y52401073D01*
X2322532Y52386338D01*
G37*
G36*
X448140Y48950429D02*
G01*
X460157Y48914950D01*
X452146Y48879471D01*
X424678Y48871459D01*
X410944Y48871459D01*
X341130Y48852575D01*
X320529Y48786767D01*
X339986Y48718670D01*
X405222Y48698641D01*
X420100Y48698641D01*
X468169Y48687768D01*
X483047Y48640272D01*
X476753Y48604220D01*
X459585Y48584764D01*
X441845Y48578469D01*
X425823Y48577325D01*
X262160Y48577325D01*
X262160Y48959585D01*
X400644Y48959585D01*
X448140Y48950429D01*
G37*
G36*
X2859776Y41390677D02*
G01*
X2669027Y41390677D01*
X2535122Y41390677D01*
X1819814Y41390677D01*
X1083906Y41390677D01*
X339986Y41390677D01*
X30973Y41390677D01*
X-159776Y41390677D01*
X-159776Y41742418D01*
X34406Y41742418D01*
X44580Y41677245D01*
X75099Y41617541D01*
X125966Y41563305D01*
X190439Y41520386D01*
X261779Y41494635D01*
X339986Y41486052D01*
X424106Y41494635D01*
X497926Y41520386D01*
X561445Y41563305D01*
X610086Y41619321D01*
X639270Y41684367D01*
X648999Y41758441D01*
X641273Y41813376D01*
X618097Y41859156D01*
X554006Y41920959D01*
X613233Y41977897D01*
X632976Y42061731D01*
X624138Y42123152D01*
X597624Y42180758D01*
X553903Y42233977D01*
X698212Y42233977D01*
X709657Y42154435D01*
X980901Y41558155D01*
X1019814Y41515236D01*
X1083906Y41500930D01*
X1142847Y41516381D01*
X1182332Y41558155D01*
X1266152Y41742418D01*
X1514235Y41742418D01*
X1524408Y41677245D01*
X1554928Y41617541D01*
X1605794Y41563305D01*
X1670267Y41520386D01*
X1741607Y41494635D01*
X1819814Y41486052D01*
X1903934Y41494635D01*
X1977754Y41520386D01*
X2041273Y41563305D01*
X2089914Y41619321D01*
X2119099Y41684367D01*
X2128827Y41758441D01*
X2121102Y41813376D01*
X2097926Y41859156D01*
X2033834Y41920959D01*
X2093062Y41977897D01*
X2112804Y42061731D01*
X2103966Y42123152D01*
X2077452Y42180758D01*
X2033262Y42234549D01*
X1974193Y42277786D01*
X1903044Y42303728D01*
X1819814Y42312375D01*
X1756295Y42307225D01*
X1744278Y42304090D01*
X1703648Y42293491D01*
X1661302Y42273462D01*
X1627539Y42250000D01*
X1602361Y42225393D01*
X1584049Y42202504D01*
X1572604Y42183619D01*
X1566309Y42171030D01*
X1564592Y42167024D01*
X1547997Y42088054D01*
X1604649Y42025107D01*
X1665943Y42004634D01*
X1714012Y42017986D01*
X1748856Y42065165D01*
X1782046Y42099499D01*
X1831259Y42110944D01*
X1883333Y42096638D01*
X1902217Y42057153D01*
X1885622Y42027969D01*
X1832403Y42020529D01*
X1824392Y42020529D01*
X1787768Y42018813D01*
X1758584Y42009084D01*
X1734549Y41979328D01*
X1727110Y41922103D01*
X1733977Y41871745D01*
X1747711Y41841989D01*
X1773462Y41827682D01*
X1799785Y41822532D01*
X1831259Y41822532D01*
X1897353Y41805937D01*
X1919385Y41756152D01*
X1892489Y41708655D01*
X1820959Y41690916D01*
X1780329Y41697210D01*
X1752861Y41710944D01*
X1735694Y41728112D01*
X1727110Y41741845D01*
X1724821Y41748140D01*
X1691631Y41801931D01*
X1628684Y41814521D01*
X1542847Y41796495D01*
X1514235Y41742418D01*
X1266152Y41742418D01*
X1453577Y42154435D01*
X1466738Y42233405D01*
X1400930Y42288340D01*
X1316237Y42304936D01*
X1262446Y42240272D01*
X1081617Y41795064D01*
X976323Y42054299D01*
X900787Y42240272D01*
X848140Y42305508D01*
X762303Y42288340D01*
X698212Y42233977D01*
X553903Y42233977D01*
X553433Y42234549D01*
X494365Y42277786D01*
X461302Y42289841D01*
X423216Y42303728D01*
X339986Y42312375D01*
X276466Y42307225D01*
X223820Y42293491D01*
X181474Y42273462D01*
X147711Y42250000D01*
X122532Y42225393D01*
X104220Y42202504D01*
X92775Y42183619D01*
X86481Y42171030D01*
X84764Y42167024D01*
X68169Y42088054D01*
X124821Y42025107D01*
X186115Y42004634D01*
X234184Y42017986D01*
X269027Y42065165D01*
X302217Y42099499D01*
X351431Y42110944D01*
X403505Y42096638D01*
X422389Y42057153D01*
X405794Y42027969D01*
X352575Y42020529D01*
X344564Y42020529D01*
X307940Y42018813D01*
X278755Y42009084D01*
X254721Y41979328D01*
X247282Y41922103D01*
X254149Y41871745D01*
X267883Y41841989D01*
X293634Y41827682D01*
X319957Y41822532D01*
X351431Y41822532D01*
X417525Y41805937D01*
X439557Y41756152D01*
X412661Y41708655D01*
X341130Y41690916D01*
X300501Y41697210D01*
X273033Y41710944D01*
X255866Y41728112D01*
X247282Y41741845D01*
X244993Y41748140D01*
X211803Y41801931D01*
X148856Y41814521D01*
X63019Y41796495D01*
X34406Y41742418D01*
X-159776Y41742418D01*
X-159776Y43056295D01*
X58441Y43056295D01*
X65880Y42972389D01*
X88197Y42894635D01*
X125393Y42823033D01*
X177468Y42757582D01*
X239843Y42703004D01*
X307940Y42664020D01*
X381760Y42640629D01*
X461302Y42632833D01*
X549046Y42637792D01*
X624583Y42652670D01*
X687911Y42677468D01*
X729971Y42703934D01*
X762303Y42735265D01*
X789771Y42801073D01*
X789771Y43035694D01*
X789199Y43064306D01*
X784049Y43089485D01*
X770315Y43112375D01*
X743419Y43127253D01*
X699356Y43135265D01*
X499070Y43135265D01*
X468169Y43133548D01*
X442990Y43124392D01*
X421817Y43097496D01*
X415522Y43047139D01*
X421245Y42995637D01*
X440701Y42968741D01*
X464735Y42959585D01*
X495637Y42957868D01*
X580329Y42957868D01*
X580329Y42859442D01*
X531688Y42848283D01*
X465880Y42844564D01*
X391774Y42860300D01*
X327396Y42907511D01*
X282761Y42975608D01*
X267883Y43054006D01*
X282189Y43129971D01*
X325107Y43193062D01*
X388340Y43235551D01*
X463591Y43249714D01*
X534263Y43241702D01*
X592918Y43217668D01*
X654721Y43191345D01*
X697067Y43206509D01*
X739413Y43252003D01*
X765737Y43316094D01*
X756739Y43343562D01*
X873319Y43343562D01*
X873319Y42749571D01*
X875608Y42709514D01*
X886481Y42678040D01*
X917382Y42652289D01*
X976323Y42644278D01*
X1036981Y42652289D01*
X1069027Y42678040D01*
X1079900Y42708941D01*
X1081617Y42748426D01*
X1081617Y43066595D01*
X1378040Y42675179D01*
X1411803Y42650572D01*
X1470744Y42644278D01*
X1531402Y42652289D01*
X1563448Y42678040D01*
X1574320Y42708941D01*
X1576037Y42748426D01*
X1576037Y43338984D01*
X1575888Y43342418D01*
X1640129Y43342418D01*
X1640129Y42750715D01*
X1642990Y42710086D01*
X1655007Y42678040D01*
X1686481Y42653433D01*
X1744278Y42645422D01*
X1938841Y42645422D01*
X2019313Y42652825D01*
X2093634Y42675036D01*
X2161803Y42712053D01*
X2223820Y42763877D01*
X2275393Y42826144D01*
X2312232Y42894492D01*
X2334335Y42968920D01*
X2341702Y43049428D01*
X2334335Y43127825D01*
X2312232Y43200501D01*
X2275393Y43267454D01*
X2223820Y43328684D01*
X2162017Y43379757D01*
X2094492Y43416237D01*
X2021245Y43438126D01*
X1942275Y43445422D01*
X1745422Y43445422D01*
X1695064Y43439246D01*
X1684764Y43437983D01*
X1652718Y43412232D01*
X1641845Y43380758D01*
X1640129Y43342418D01*
X1575888Y43342418D01*
X1574320Y43378469D01*
X1563448Y43409943D01*
X1531402Y43436266D01*
X1471888Y43444278D01*
X1412375Y43436266D01*
X1380329Y43411660D01*
X1368884Y43381330D01*
X1366595Y43343562D01*
X1366595Y43015093D01*
X1198355Y43241208D01*
X1080472Y43399642D01*
X1059871Y43423104D01*
X1030687Y43437411D01*
X978612Y43444278D01*
X918526Y43436838D01*
X887053Y43412232D01*
X875608Y43381903D01*
X873319Y43343562D01*
X756739Y43343562D01*
X754864Y43349285D01*
X733691Y43373319D01*
X701645Y43396209D01*
X652575Y43422675D01*
X592346Y43442561D01*
X528684Y43455007D01*
X469313Y43459156D01*
X387661Y43451753D01*
X312089Y43429542D01*
X242597Y43392525D01*
X179185Y43340701D01*
X154578Y43311730D01*
X126359Y43278505D01*
X88627Y43210372D01*
X65987Y43136302D01*
X58441Y43056295D01*
X-159776Y43056295D01*
X-159776Y44486910D01*
X50429Y44486910D01*
X50429Y43895207D01*
X53290Y43854578D01*
X65308Y43822532D01*
X96781Y43797926D01*
X154578Y43789914D01*
X349142Y43789914D01*
X429614Y43797318D01*
X503934Y43819528D01*
X572103Y43856545D01*
X634120Y43908369D01*
X685694Y43970637D01*
X722532Y44038984D01*
X744635Y44113412D01*
X752003Y44193920D01*
X784049Y44193920D01*
X791345Y44110658D01*
X813233Y44034835D01*
X846280Y43969170D01*
X887053Y43916381D01*
X934692Y43873462D01*
X988340Y43837411D01*
X1044134Y43809514D01*
X1098212Y43791059D01*
X1149857Y43780758D01*
X1198355Y43777325D01*
X1272365Y43784446D01*
X1343324Y43805810D01*
X1411230Y43841416D01*
X1458155Y43876323D01*
X1474177Y43918097D01*
X1448999Y43984478D01*
X1407797Y44033405D01*
X1368884Y44049714D01*
X1311660Y44026824D01*
X1254149Y43998498D01*
X1193777Y43989056D01*
X1106795Y44007368D01*
X1065451Y44032976D01*
X1028398Y44073176D01*
X1002217Y44125680D01*
X993491Y44188197D01*
X998355Y44236838D01*
X1012947Y44279757D01*
X1063877Y44342132D01*
X1128541Y44375894D01*
X1193777Y44387339D01*
X1221245Y44386195D01*
X1244134Y44382189D01*
X1262446Y44377611D01*
X1277897Y44371888D01*
X1288770Y44365594D01*
X1298498Y44359299D01*
X1305937Y44354149D01*
X1367740Y44327825D01*
X1407225Y44343276D01*
X1450143Y44389628D01*
X1475322Y44453720D01*
X1464449Y44488054D01*
X1443276Y44512089D01*
X1412375Y44533834D01*
X1340145Y44569440D01*
X1269949Y44590804D01*
X1201788Y44597926D01*
X1151288Y44594492D01*
X1098212Y44584192D01*
X1043276Y44566023D01*
X1019814Y44554711D01*
X987196Y44538984D01*
X933548Y44504077D01*
X885908Y44462303D01*
X845279Y44410944D01*
X812661Y44347282D01*
X791202Y44274034D01*
X784049Y44193920D01*
X752003Y44193920D01*
X744635Y44272318D01*
X722532Y44344993D01*
X685694Y44411946D01*
X634120Y44473176D01*
X572318Y44524249D01*
X560873Y44530432D01*
X504793Y44560730D01*
X431545Y44582618D01*
X352575Y44589914D01*
X155722Y44589914D01*
X95064Y44582475D01*
X63019Y44556724D01*
X52146Y44525250D01*
X50429Y44486910D01*
X-159776Y44486910D01*
X-159776Y45630258D01*
X58441Y45630258D01*
X58441Y45039700D01*
X60157Y45000215D01*
X71030Y44968741D01*
X103076Y44942418D01*
X162589Y44934406D01*
X223247Y44942418D01*
X255293Y44968169D01*
X266166Y44999070D01*
X267883Y45038555D01*
X267883Y45149571D01*
X374320Y45149571D01*
X496781Y44983619D01*
X560873Y44930401D01*
X642132Y44961874D01*
X697067Y45029399D01*
X666166Y45108369D01*
X656724Y45120959D01*
X726824Y45120959D01*
X755436Y45046567D01*
X762303Y45038555D01*
X774893Y45022532D01*
X794921Y45002504D01*
X822389Y44980186D01*
X857868Y44958441D01*
X901931Y44939557D01*
X955722Y44926967D01*
X1019814Y44921817D01*
X1095923Y44930401D01*
X1174320Y44959585D01*
X1244707Y45010515D01*
X1294492Y45087768D01*
X1309084Y45137268D01*
X1313948Y45191917D01*
X1303219Y45277468D01*
X1271030Y45339557D01*
X1220815Y45383047D01*
X1156009Y45412804D01*
X1082761Y45430544D01*
X1012947Y45444850D01*
X967740Y45464878D01*
X947711Y45502074D01*
X966023Y45536981D01*
X1008369Y45551288D01*
X1046137Y45547282D01*
X1068455Y45538698D01*
X1084478Y45525536D01*
X1097639Y45514664D01*
X1174320Y45493491D01*
X1241845Y45548999D01*
X1269313Y45619385D01*
X1248913Y45648569D01*
X1347139Y45648569D01*
X1354006Y45597067D01*
X1375751Y45570172D01*
X1401502Y45561016D01*
X1434120Y45559299D01*
X1593205Y45559299D01*
X1593205Y45036266D01*
X1594921Y44997926D01*
X1605222Y44967024D01*
X1636123Y44941273D01*
X1695064Y44933262D01*
X1754578Y44941273D01*
X1786624Y44966452D01*
X1797496Y44996781D01*
X1799213Y45035122D01*
X1799213Y45559299D01*
X1957153Y45559299D01*
X1989771Y45561016D01*
X2016094Y45570172D01*
X2038412Y45597067D01*
X2045279Y45647425D01*
X2038412Y45697783D01*
X2016667Y45724678D01*
X1990916Y45733834D01*
X1958298Y45735551D01*
X1744278Y45735551D01*
X1435265Y45735551D01*
X1402647Y45733834D01*
X1376323Y45724678D01*
X1354006Y45698355D01*
X1347139Y45648569D01*
X1248913Y45648569D01*
X1228112Y45678326D01*
X1168725Y45716476D01*
X1095859Y45739366D01*
X1050715Y45743355D01*
X1009514Y45746996D01*
X936139Y45739302D01*
X871666Y45716222D01*
X816094Y45677754D01*
X773494Y45627587D01*
X747934Y45569409D01*
X739413Y45503219D01*
X748569Y45428827D01*
X776037Y45367024D01*
X821817Y45317811D01*
X885908Y45281187D01*
X929256Y45265594D01*
X983763Y45250858D01*
X1073605Y45223963D01*
X1103362Y45188484D01*
X1082761Y45135265D01*
X1015236Y45118670D01*
X970029Y45129542D01*
X923677Y45171316D01*
X872047Y45213027D01*
X822453Y45220656D01*
X774893Y45194206D01*
X726824Y45120959D01*
X656724Y45120959D01*
X583763Y45218240D01*
X639715Y45280552D01*
X673287Y45354562D01*
X684478Y45440272D01*
X677325Y45508226D01*
X655866Y45570172D01*
X623104Y45622961D01*
X582046Y45663448D01*
X535980Y45693777D01*
X488197Y45716094D01*
X448712Y45727410D01*
X440272Y45729828D01*
X393777Y45734406D01*
X163734Y45734406D01*
X103076Y45726395D01*
X71030Y45700072D01*
X60157Y45668598D01*
X58441Y45630258D01*
X-159776Y45630258D01*
X-159776Y46482904D01*
X34406Y46482904D01*
X41702Y46399642D01*
X63591Y46323820D01*
X96638Y46258155D01*
X137411Y46205365D01*
X185050Y46162446D01*
X238698Y46126395D01*
X294492Y46098498D01*
X348569Y46080043D01*
X400215Y46069742D01*
X448712Y46066309D01*
X522723Y46073430D01*
X593681Y46094794D01*
X661588Y46130401D01*
X708512Y46165308D01*
X724535Y46207082D01*
X702395Y46265451D01*
X757725Y46265451D01*
X786338Y46191059D01*
X793205Y46183047D01*
X805794Y46167024D01*
X825823Y46146996D01*
X853290Y46124678D01*
X888770Y46102933D01*
X932833Y46084049D01*
X986624Y46071459D01*
X1050715Y46066309D01*
X1126824Y46074893D01*
X1205222Y46104077D01*
X1275608Y46155007D01*
X1325393Y46232260D01*
X1339986Y46281760D01*
X1344850Y46336409D01*
X1334120Y46421960D01*
X1301931Y46484049D01*
X1251717Y46527539D01*
X1186910Y46557296D01*
X1113662Y46575036D01*
X1043848Y46589342D01*
X998641Y46609371D01*
X978612Y46646567D01*
X996924Y46681474D01*
X1039270Y46695780D01*
X1077039Y46691774D01*
X1099356Y46683190D01*
X1115379Y46670029D01*
X1128541Y46659156D01*
X1205222Y46637983D01*
X1272747Y46693491D01*
X1300215Y46763877D01*
X1259013Y46822818D01*
X1199626Y46860968D01*
X1126760Y46883858D01*
X1040415Y46891488D01*
X976323Y46884768D01*
X967040Y46883794D01*
X902567Y46860714D01*
X846996Y46822246D01*
X804395Y46772079D01*
X778835Y46713901D01*
X770315Y46647711D01*
X779471Y46573319D01*
X806938Y46511516D01*
X852718Y46462303D01*
X916810Y46425680D01*
X960157Y46410086D01*
X1014664Y46395351D01*
X1104506Y46368455D01*
X1134263Y46332976D01*
X1113662Y46279757D01*
X1046137Y46263162D01*
X1000930Y46274034D01*
X954578Y46315808D01*
X902949Y46357519D01*
X853354Y46365149D01*
X805794Y46338698D01*
X757725Y46265451D01*
X702395Y46265451D01*
X699356Y46273462D01*
X658155Y46322389D01*
X619242Y46338698D01*
X562017Y46315808D01*
X504506Y46287482D01*
X444134Y46278040D01*
X357153Y46296352D01*
X315808Y46321960D01*
X278755Y46362160D01*
X252575Y46414664D01*
X243848Y46477182D01*
X248712Y46525823D01*
X263305Y46568741D01*
X314235Y46631116D01*
X378898Y46664878D01*
X444134Y46676323D01*
X471602Y46675179D01*
X494492Y46671173D01*
X512804Y46666595D01*
X528255Y46660873D01*
X539127Y46654578D01*
X548856Y46648283D01*
X556295Y46643133D01*
X618097Y46616810D01*
X657582Y46632260D01*
X700501Y46678612D01*
X725680Y46742704D01*
X714807Y46777039D01*
X693634Y46801073D01*
X662732Y46822818D01*
X590502Y46858425D01*
X520307Y46879789D01*
X461302Y46885953D01*
X452146Y46886910D01*
X401645Y46883476D01*
X348569Y46873176D01*
X293634Y46855007D01*
X237554Y46827969D01*
X183906Y46793062D01*
X136266Y46751288D01*
X95637Y46699928D01*
X63019Y46636266D01*
X41559Y46563019D01*
X34406Y46482904D01*
X-159776Y46482904D01*
X-159776Y47634263D01*
X58441Y47634263D01*
X65880Y47550358D01*
X88197Y47472604D01*
X125393Y47401001D01*
X177468Y47335551D01*
X239843Y47280973D01*
X307940Y47241989D01*
X381760Y47218598D01*
X461302Y47210801D01*
X549046Y47215761D01*
X624583Y47230639D01*
X687911Y47255436D01*
X729971Y47281903D01*
X762303Y47313233D01*
X789771Y47379041D01*
X789771Y47613662D01*
X789199Y47642275D01*
X784049Y47667454D01*
X770315Y47690343D01*
X743419Y47705222D01*
X699356Y47713233D01*
X499070Y47713233D01*
X468169Y47711516D01*
X442990Y47702361D01*
X421817Y47675465D01*
X415522Y47625107D01*
X421245Y47573605D01*
X440701Y47546710D01*
X464735Y47537554D01*
X495637Y47535837D01*
X580329Y47535837D01*
X580329Y47437411D01*
X531688Y47426252D01*
X465880Y47422532D01*
X391774Y47438269D01*
X327396Y47485479D01*
X282761Y47553577D01*
X267883Y47631974D01*
X282189Y47707940D01*
X325107Y47771030D01*
X388340Y47813519D01*
X463591Y47827682D01*
X534263Y47819671D01*
X592918Y47795637D01*
X654721Y47769313D01*
X697067Y47784478D01*
X739413Y47829971D01*
X765737Y47894063D01*
X756739Y47921531D01*
X873319Y47921531D01*
X873319Y47327539D01*
X875608Y47287482D01*
X886481Y47256009D01*
X917382Y47230258D01*
X976323Y47222246D01*
X1036981Y47230258D01*
X1069027Y47256009D01*
X1079900Y47286910D01*
X1081617Y47326395D01*
X1081617Y47644564D01*
X1378040Y47253147D01*
X1411803Y47228541D01*
X1470744Y47222246D01*
X1531402Y47230258D01*
X1563448Y47256009D01*
X1574320Y47286910D01*
X1576037Y47326395D01*
X1576037Y47916953D01*
X1575888Y47920386D01*
X1640129Y47920386D01*
X1640129Y47328684D01*
X1642990Y47288054D01*
X1655007Y47256009D01*
X1686481Y47231402D01*
X1744278Y47223391D01*
X1938841Y47223391D01*
X2019313Y47230794D01*
X2093634Y47253004D01*
X2161803Y47290021D01*
X2223820Y47341845D01*
X2275393Y47404113D01*
X2312232Y47472461D01*
X2334335Y47546888D01*
X2341702Y47627396D01*
X2334335Y47705794D01*
X2312232Y47778469D01*
X2275393Y47845422D01*
X2223820Y47906652D01*
X2162017Y47957725D01*
X2094492Y47994206D01*
X2021245Y48016094D01*
X1942275Y48023391D01*
X1745422Y48023391D01*
X1684764Y48015951D01*
X1652718Y47990200D01*
X1641845Y47958727D01*
X1640129Y47920386D01*
X1575888Y47920386D01*
X1574320Y47956438D01*
X1563448Y47987911D01*
X1531402Y48014235D01*
X1522246Y48015467D01*
X1471888Y48022246D01*
X1412375Y48014235D01*
X1380329Y47989628D01*
X1368884Y47959299D01*
X1366595Y47921531D01*
X1366595Y47593062D01*
X1362017Y47599214D01*
X1080472Y47977611D01*
X1059871Y48001073D01*
X1030687Y48015379D01*
X978612Y48022246D01*
X918526Y48014807D01*
X887053Y47990200D01*
X876753Y47962904D01*
X875608Y47959871D01*
X873319Y47921531D01*
X756739Y47921531D01*
X754864Y47927253D01*
X733691Y47951288D01*
X701645Y47974177D01*
X652575Y48000644D01*
X592346Y48020529D01*
X528684Y48032976D01*
X469313Y48037124D01*
X387661Y48029721D01*
X312089Y48007511D01*
X242597Y47970494D01*
X179185Y47918670D01*
X156867Y47892393D01*
X126359Y47856474D01*
X88627Y47788340D01*
X65987Y47714270D01*
X58441Y47634263D01*
X-159776Y47634263D01*
X-159776Y49064878D01*
X52718Y49064878D01*
X52718Y48474320D01*
X54435Y48434263D01*
X65308Y48402217D01*
X97353Y48375894D01*
X156867Y48367883D01*
X437268Y48367883D01*
X503457Y48376276D01*
X563162Y48401454D01*
X616381Y48443419D01*
X658155Y48497465D01*
X683524Y48558886D01*
X692489Y48627682D01*
X677325Y48715522D01*
X631831Y48795923D01*
X660157Y48857153D01*
X669599Y48924106D01*
X661715Y48987498D01*
X638062Y49044913D01*
X623638Y49063734D01*
X772604Y49063734D01*
X772604Y48472031D01*
X774320Y48432546D01*
X785193Y48401073D01*
X817239Y48374750D01*
X876753Y48366738D01*
X1260157Y48366738D01*
X1292775Y48368455D01*
X1320243Y48378183D01*
X1342561Y48405651D01*
X1349428Y48456009D01*
X1342561Y48507511D01*
X1320243Y48534406D01*
X1293920Y48543562D01*
X1261302Y48545279D01*
X1069027Y48545279D01*
X982046Y48545279D01*
X982046Y49062589D01*
X980329Y49102074D01*
X969456Y49133548D01*
X937411Y49159871D01*
X877897Y49167883D01*
X817239Y49159871D01*
X785193Y49133548D01*
X774320Y49102074D01*
X772604Y49063734D01*
X623638Y49063734D01*
X598641Y49096352D01*
X547902Y49136727D01*
X490296Y49160952D01*
X425823Y49169027D01*
X328541Y49169027D01*
X158011Y49169027D01*
X97353Y49161016D01*
X65308Y49134692D01*
X54435Y49103219D01*
X52718Y49064878D01*
X-159776Y49064878D01*
X-159776Y49698927D01*
X35551Y49698927D01*
X64163Y49624535D01*
X71030Y49616524D01*
X83619Y49600501D01*
X103648Y49580472D01*
X131116Y49558155D01*
X166595Y49536409D01*
X210658Y49517525D01*
X264449Y49504936D01*
X328541Y49499785D01*
X404649Y49508369D01*
X483047Y49537554D01*
X553433Y49588484D01*
X603219Y49665737D01*
X617811Y49715236D01*
X622675Y49769886D01*
X611946Y49855436D01*
X580350Y49916381D01*
X654721Y49916381D01*
X662017Y49833119D01*
X683906Y49757296D01*
X716953Y49691631D01*
X757725Y49638841D01*
X805365Y49595923D01*
X859013Y49559871D01*
X914807Y49531974D01*
X968884Y49513519D01*
X1020529Y49503219D01*
X1069027Y49499785D01*
X1143038Y49506907D01*
X1213996Y49528271D01*
X1281903Y49563877D01*
X1328827Y49598784D01*
X1344850Y49640558D01*
X1319671Y49706938D01*
X1278469Y49755866D01*
X1239557Y49772175D01*
X1182332Y49749285D01*
X1124821Y49720959D01*
X1064449Y49711516D01*
X977468Y49729828D01*
X936123Y49755436D01*
X899070Y49795637D01*
X872890Y49848140D01*
X864163Y49910658D01*
X869027Y49959299D01*
X883619Y50002217D01*
X934549Y50064592D01*
X999213Y50098355D01*
X1064449Y50109800D01*
X1091917Y50108655D01*
X1114807Y50104649D01*
X1133119Y50100072D01*
X1148569Y50094349D01*
X1159442Y50088054D01*
X1169170Y50081760D01*
X1176609Y50076609D01*
X1238412Y50050286D01*
X1277897Y50065737D01*
X1320815Y50112089D01*
X1345994Y50176180D01*
X1335847Y50208226D01*
X1418097Y50208226D01*
X1418097Y49616524D01*
X1419814Y49577039D01*
X1430687Y49545565D01*
X1462732Y49519242D01*
X1522246Y49511230D01*
X1905651Y49511230D01*
X1938269Y49512947D01*
X1965737Y49522675D01*
X1988054Y49550143D01*
X1994921Y49600501D01*
X1988054Y49652003D01*
X1965737Y49678898D01*
X1939413Y49688054D01*
X1906795Y49689771D01*
X1627539Y49689771D01*
X1627539Y50207082D01*
X1627489Y50208226D01*
X2057868Y50208226D01*
X2057868Y49616524D01*
X2059585Y49577039D01*
X2070458Y49545565D01*
X2102504Y49519242D01*
X2162017Y49511230D01*
X2222675Y49519242D01*
X2254721Y49544993D01*
X2265594Y49575894D01*
X2267310Y49615379D01*
X2267310Y49776753D01*
X2467597Y49548999D01*
X2535122Y49499785D01*
X2616381Y49536409D01*
X2666166Y49609084D01*
X2626681Y49685193D01*
X2401216Y49910658D01*
X2625536Y50139557D01*
X2663305Y50212804D01*
X2650715Y50247997D01*
X2615236Y50287196D01*
X2537983Y50323247D01*
X2525966Y50315460D01*
X2466452Y50276896D01*
X2267310Y50049142D01*
X2267310Y50207082D01*
X2265594Y50246567D01*
X2254721Y50278040D01*
X2222675Y50304363D01*
X2163162Y50312375D01*
X2102504Y50304363D01*
X2079614Y50285561D01*
X2070458Y50278040D01*
X2059585Y50246567D01*
X2057868Y50208226D01*
X1627489Y50208226D01*
X1625823Y50246567D01*
X1614950Y50278040D01*
X1582904Y50304363D01*
X1523391Y50312375D01*
X1462732Y50304363D01*
X1430687Y50278040D01*
X1419814Y50246567D01*
X1418097Y50208226D01*
X1335847Y50208226D01*
X1335122Y50210515D01*
X1313948Y50234549D01*
X1283047Y50256295D01*
X1210817Y50291901D01*
X1140622Y50313265D01*
X1072461Y50320386D01*
X1021960Y50316953D01*
X968884Y50306652D01*
X913948Y50288484D01*
X857868Y50261445D01*
X804220Y50226538D01*
X756581Y50184764D01*
X715951Y50133405D01*
X683333Y50069742D01*
X661874Y49996495D01*
X654721Y49916381D01*
X580350Y49916381D01*
X579757Y49917525D01*
X529542Y49961016D01*
X464735Y49990773D01*
X391488Y50008512D01*
X321674Y50022818D01*
X276466Y50042847D01*
X256438Y50080043D01*
X274750Y50114950D01*
X317096Y50129256D01*
X354864Y50125250D01*
X377182Y50116667D01*
X393205Y50103505D01*
X406366Y50092632D01*
X483047Y50071459D01*
X550572Y50126967D01*
X578040Y50197353D01*
X536838Y50256295D01*
X477452Y50294444D01*
X404586Y50317334D01*
X318240Y50324964D01*
X244866Y50317271D01*
X180393Y50294190D01*
X153433Y50275528D01*
X124821Y50255722D01*
X82221Y50205556D01*
X56660Y50147377D01*
X48140Y50081187D01*
X57296Y50006795D01*
X84764Y49944993D01*
X130544Y49895780D01*
X194635Y49859156D01*
X237983Y49843562D01*
X292489Y49828827D01*
X382332Y49801931D01*
X412089Y49766452D01*
X391488Y49713233D01*
X323963Y49696638D01*
X278755Y49707511D01*
X232403Y49749285D01*
X180774Y49790995D01*
X131179Y49798625D01*
X83619Y49772175D01*
X35551Y49698927D01*
X-159776Y49698927D01*
X-159776Y51352718D01*
X50429Y51352718D01*
X50429Y50762160D01*
X52718Y50722103D01*
X63591Y50690629D01*
X94492Y50664878D01*
X153433Y50656867D01*
X214092Y50664878D01*
X246137Y50690629D01*
X257010Y50721531D01*
X258727Y50759871D01*
X258727Y51086052D01*
X391488Y50905222D01*
X429256Y50870029D01*
X480758Y50858298D01*
X512232Y50861731D01*
X536266Y50872031D01*
X551144Y50883476D01*
X562017Y50896066D01*
X568884Y50905222D01*
X702790Y51087196D01*
X702790Y50762160D01*
X704506Y50722675D01*
X715379Y50691202D01*
X747425Y50664878D01*
X806938Y50656867D01*
X867024Y50664878D01*
X898498Y50690057D01*
X909943Y50720959D01*
X912232Y50759871D01*
X912232Y51049428D01*
X960300Y51049428D01*
X967668Y50968383D01*
X989771Y50893491D01*
X1026609Y50824750D01*
X1078183Y50762160D01*
X1140129Y50710086D01*
X1208083Y50672890D01*
X1282046Y50650572D01*
X1362017Y50643133D01*
X1439807Y50650680D01*
X1511803Y50673319D01*
X1578004Y50711052D01*
X1638412Y50763877D01*
X1688734Y50827289D01*
X1697077Y50843419D01*
X1786624Y50843419D01*
X1815236Y50769027D01*
X1822103Y50761016D01*
X1834692Y50744993D01*
X1854721Y50724964D01*
X1882189Y50702647D01*
X1917668Y50680901D01*
X1961731Y50662017D01*
X2015522Y50649428D01*
X2079614Y50644278D01*
X2155722Y50652861D01*
X2234120Y50682046D01*
X2304506Y50732976D01*
X2354292Y50810229D01*
X2368884Y50859728D01*
X2373748Y50914378D01*
X2363019Y50999928D01*
X2330830Y51062017D01*
X2280615Y51105508D01*
X2215808Y51135265D01*
X2142561Y51153004D01*
X2072747Y51167310D01*
X2027539Y51187339D01*
X2007511Y51224535D01*
X2025823Y51259442D01*
X2068169Y51273748D01*
X2105937Y51269742D01*
X2128255Y51261159D01*
X2144278Y51247997D01*
X2157439Y51237124D01*
X2234120Y51215951D01*
X2301645Y51271459D01*
X2329113Y51341845D01*
X2321512Y51352718D01*
X2421817Y51352718D01*
X2421817Y50761016D01*
X2423534Y50721531D01*
X2434406Y50690057D01*
X2466452Y50663734D01*
X2525966Y50655722D01*
X2586624Y50663734D01*
X2618670Y50689485D01*
X2629542Y50720386D01*
X2631259Y50759871D01*
X2631259Y51351574D01*
X2629542Y51391059D01*
X2618670Y51422532D01*
X2586624Y51448856D01*
X2527110Y51456867D01*
X2466452Y51448856D01*
X2434406Y51422532D01*
X2423534Y51391059D01*
X2421817Y51352718D01*
X2321512Y51352718D01*
X2287911Y51400787D01*
X2255866Y51421373D01*
X2228525Y51438937D01*
X2155659Y51461826D01*
X2069313Y51469456D01*
X1995939Y51461763D01*
X1931466Y51438682D01*
X1875894Y51400215D01*
X1833294Y51350048D01*
X1807733Y51291869D01*
X1799213Y51225680D01*
X1808369Y51151288D01*
X1835837Y51089485D01*
X1881617Y51040272D01*
X1945708Y51003648D01*
X1989056Y50988054D01*
X2043562Y50973319D01*
X2133405Y50946423D01*
X2163162Y50910944D01*
X2142561Y50857725D01*
X2075036Y50841130D01*
X2029828Y50852003D01*
X1983476Y50893777D01*
X1931847Y50935487D01*
X1882252Y50943117D01*
X1834692Y50916667D01*
X1786624Y50843419D01*
X1697077Y50843419D01*
X1724678Y50896781D01*
X1746245Y50972353D01*
X1753433Y51054006D01*
X1746137Y51137089D01*
X1724249Y51213519D01*
X1687768Y51283298D01*
X1636695Y51346423D01*
X1575179Y51398748D01*
X1527969Y51424769D01*
X1507368Y51436123D01*
X1433262Y51458548D01*
X1352861Y51466023D01*
X1274106Y51458441D01*
X1201502Y51435694D01*
X1135050Y51397783D01*
X1080472Y51349744D01*
X1074750Y51344707D01*
X1024678Y51280758D01*
X988913Y51210229D01*
X967454Y51133119D01*
X960300Y51049428D01*
X912232Y51049428D01*
X912232Y51350429D01*
X909943Y51390486D01*
X899070Y51421960D01*
X867597Y51447711D01*
X808083Y51455722D01*
X747425Y51448856D01*
X713090Y51422532D01*
X480758Y51123820D01*
X247282Y51423677D01*
X239843Y51431688D01*
X231259Y51440272D01*
X221531Y51445994D01*
X206652Y51451144D01*
X186052Y51454006D01*
X155722Y51455722D01*
X153433Y51455420D01*
X95064Y51447711D01*
X63019Y51421960D01*
X52146Y51391059D01*
X50429Y51352718D01*
X-159776Y51352718D01*
X-159776Y52497210D01*
X50429Y52497210D01*
X50429Y51906652D01*
X52718Y51866595D01*
X63591Y51835122D01*
X94492Y51809371D01*
X153433Y51801359D01*
X214092Y51809371D01*
X246137Y51835122D01*
X257010Y51866023D01*
X258727Y51904363D01*
X258727Y52230544D01*
X391488Y52049714D01*
X429256Y52014521D01*
X480758Y52002790D01*
X512232Y52006223D01*
X536266Y52016524D01*
X551144Y52027969D01*
X562017Y52040558D01*
X568884Y52049714D01*
X702790Y52231688D01*
X702790Y51906652D01*
X704506Y51867167D01*
X715379Y51835694D01*
X747425Y51809371D01*
X806938Y51801359D01*
X867024Y51809371D01*
X898498Y51834549D01*
X909943Y51865451D01*
X912232Y51904363D01*
X912232Y52494921D01*
X912101Y52497210D01*
X976323Y52497210D01*
X976323Y51905508D01*
X978040Y51866023D01*
X988913Y51834549D01*
X1020959Y51808226D01*
X1080472Y51800215D01*
X1141130Y51808226D01*
X1173176Y51833977D01*
X1184049Y51864878D01*
X1185765Y51904363D01*
X1185765Y51987911D01*
X1234979Y51987911D01*
X1263591Y51913519D01*
X1270458Y51905508D01*
X1283047Y51889485D01*
X1303076Y51869456D01*
X1330544Y51847139D01*
X1366023Y51825393D01*
X1410086Y51806509D01*
X1463877Y51793920D01*
X1527969Y51788770D01*
X1604077Y51797353D01*
X1682475Y51826538D01*
X1752861Y51877468D01*
X1802647Y51954721D01*
X1817239Y52004220D01*
X1822103Y52058870D01*
X1811373Y52144421D01*
X1785711Y52193920D01*
X1854149Y52193920D01*
X1861516Y52112876D01*
X1883619Y52037983D01*
X1920458Y51969242D01*
X1972031Y51906652D01*
X2033977Y51854578D01*
X2101931Y51817382D01*
X2175894Y51795064D01*
X2255866Y51787625D01*
X2333655Y51795172D01*
X2405651Y51817811D01*
X2471853Y51855544D01*
X2532260Y51908369D01*
X2582582Y51971781D01*
X2618526Y52041273D01*
X2640093Y52116845D01*
X2647282Y52198498D01*
X2639986Y52281581D01*
X2618097Y52358011D01*
X2581617Y52427790D01*
X2530544Y52490916D01*
X2469027Y52543240D01*
X2401216Y52580615D01*
X2327110Y52603040D01*
X2246710Y52610515D01*
X2167954Y52602933D01*
X2095351Y52580186D01*
X2028898Y52542275D01*
X1968598Y52489199D01*
X1918526Y52425250D01*
X1882761Y52354721D01*
X1861302Y52277611D01*
X1854149Y52193920D01*
X1785711Y52193920D01*
X1779185Y52206509D01*
X1728970Y52250000D01*
X1664163Y52279757D01*
X1590916Y52297496D01*
X1521102Y52311803D01*
X1475894Y52331831D01*
X1455866Y52369027D01*
X1474177Y52403934D01*
X1516524Y52418240D01*
X1554292Y52414235D01*
X1576609Y52405651D01*
X1592632Y52392489D01*
X1605794Y52381617D01*
X1682475Y52360443D01*
X1750000Y52415951D01*
X1777468Y52486338D01*
X1736266Y52545279D01*
X1676880Y52583429D01*
X1604014Y52606319D01*
X1517668Y52613948D01*
X1444293Y52606255D01*
X1379820Y52583174D01*
X1324249Y52544707D01*
X1281648Y52494540D01*
X1256088Y52436361D01*
X1247568Y52370172D01*
X1256724Y52295780D01*
X1284192Y52233977D01*
X1329971Y52184764D01*
X1394063Y52148140D01*
X1437411Y52132546D01*
X1491917Y52117811D01*
X1581760Y52090916D01*
X1611516Y52055436D01*
X1590916Y52002217D01*
X1523391Y51985622D01*
X1478183Y51996495D01*
X1431831Y52038269D01*
X1380202Y52079979D01*
X1330607Y52087609D01*
X1283047Y52061159D01*
X1234979Y51987911D01*
X1185765Y51987911D01*
X1185765Y52496066D01*
X1184049Y52535551D01*
X1173176Y52567024D01*
X1141130Y52593348D01*
X1081617Y52601359D01*
X1020959Y52593348D01*
X988913Y52567024D01*
X978040Y52535551D01*
X976323Y52497210D01*
X912101Y52497210D01*
X909943Y52534979D01*
X899070Y52566452D01*
X867597Y52592203D01*
X808083Y52600215D01*
X747425Y52593348D01*
X713090Y52567024D01*
X480758Y52268312D01*
X247282Y52568169D01*
X239843Y52576180D01*
X231259Y52584764D01*
X221531Y52590486D01*
X206652Y52595637D01*
X186052Y52598498D01*
X155722Y52600215D01*
X95064Y52592203D01*
X63019Y52566452D01*
X52146Y52535551D01*
X50429Y52497210D01*
X-159776Y52497210D01*
X-159776Y52709323D01*
X30973Y52709323D01*
X2669027Y52709323D01*
X2859776Y52709323D01*
X2859776Y41390677D01*
G37*
D13*
%TO.C,C712*%
X46090000Y45362164D02*
X46090000Y45577836D01*
X46810000Y45362164D02*
X46810000Y45577836D01*
%TO.C,R3*%
X-953641Y26480000D02*
X-646359Y26480000D01*
X-953641Y25720000D02*
X-646359Y25720000D01*
%TO.C,C710*%
X48538748Y47860000D02*
X49061252Y47860000D01*
X48538748Y46390000D02*
X49061252Y46390000D01*
%TO.C,C706*%
X47997836Y11245000D02*
X47782164Y11245000D01*
X47997836Y10525000D02*
X47782164Y10525000D01*
%TO.C,C601*%
X12185000Y52668748D02*
X12185000Y53191252D01*
X13655000Y52668748D02*
X13655000Y53191252D01*
D15*
%TO.C,SW501*%
X55587500Y17300000D02*
X55037500Y17300000D01*
X55587500Y12700000D02*
X55037500Y12700000D01*
X58007500Y17290000D02*
X57887500Y17290000D01*
X58007500Y16000000D02*
X58007500Y17290000D01*
X58007500Y14000000D02*
X58007500Y12710000D01*
X58007500Y12710000D02*
X57887500Y12710000D01*
X58687500Y16000000D02*
X58007500Y16000000D01*
X58687500Y16000000D02*
X58687500Y14000000D01*
X58687500Y14000000D02*
X58007500Y14000000D01*
D13*
%TO.C,TP104*%
X52160000Y48370000D02*
G75*
G02*
X50760000Y48370000I-700000J0D01*
G01*
X50760000Y48370000D02*
G75*
G02*
X52160000Y48370000I700000J0D01*
G01*
%TO.C,C707*%
X49847836Y11715000D02*
X49632164Y11715000D01*
X49847836Y10995000D02*
X49632164Y10995000D01*
D15*
%TO.C,D605*%
X53470000Y21980000D02*
X54070000Y21980000D01*
X53480000Y21980000D02*
X53480000Y21450000D01*
X54090000Y21450000D02*
X54090000Y21980000D01*
X54590000Y22320000D02*
X54370000Y22320000D01*
X54590000Y22320000D02*
X54590000Y21120000D01*
X54590000Y21120000D02*
X54370000Y21120000D01*
D13*
%TO.C,D502*%
X13680000Y50040000D02*
X12520000Y50040000D01*
X13680000Y50040000D02*
X13680000Y49730000D01*
X13680000Y48120000D02*
X12520000Y48120000D01*
X13680000Y48120000D02*
X13680000Y48430000D01*
D11*
X11945000Y49580000D02*
G75*
G02*
X11795000Y49580000I-75000J0D01*
G01*
X11795000Y49580000D02*
G75*
G02*
X11945000Y49580000I75000J0D01*
G01*
D13*
%TO.C,J503*%
X-4535000Y42260000D02*
X-4535000Y52140000D01*
X-2565000Y53310000D02*
X-1415000Y53310000D01*
X-2565000Y41090000D02*
X-1415000Y41090000D01*
X-1415000Y53310000D02*
X-1415000Y52260000D01*
X-1415000Y42140000D02*
X-425000Y42140000D01*
X-1415000Y41090000D02*
X-1415000Y42140000D01*
%TO.C,TP106*%
X29110000Y20500000D02*
G75*
G02*
X27710000Y20500000I-700000J0D01*
G01*
X27710000Y20500000D02*
G75*
G02*
X29110000Y20500000I700000J0D01*
G01*
D14*
%TO.C,kibuzzard-6773B9F7*%
G36*
X49054979Y19515293D02*
G01*
X49085737Y19440901D01*
X49052117Y19362217D01*
X48981302Y19336466D01*
X48826795Y19336466D01*
X48826795Y19545336D01*
X48979871Y19545336D01*
X49054979Y19515293D01*
G37*
G36*
X51260987Y19515293D02*
G01*
X51291745Y19440901D01*
X51258841Y19362217D01*
X51190172Y19336466D01*
X51032804Y19336466D01*
X51032804Y19545336D01*
X51187310Y19545336D01*
X51260987Y19515293D01*
G37*
G36*
X51932661Y18676476D02*
G01*
X51575007Y18676476D01*
X51399041Y18676476D01*
X49781016Y18676476D01*
X48695179Y18676476D01*
X48564993Y18676476D01*
X48207339Y18676476D01*
X48207339Y19676953D01*
X48564993Y19676953D01*
X48564993Y18938755D01*
X48567139Y18889399D01*
X48580730Y18850057D01*
X48620787Y18817153D01*
X48695179Y18807139D01*
X48771001Y18817153D01*
X48811059Y18849342D01*
X48824649Y18887969D01*
X48826795Y18937325D01*
X48826795Y19074664D01*
X48979871Y19074664D01*
X49038348Y19080386D01*
X49099328Y19097554D01*
X49160129Y19125451D01*
X49218069Y19163362D01*
X49269392Y19213612D01*
X49310343Y19278526D01*
X49337167Y19354886D01*
X49346109Y19439471D01*
X49336989Y19524413D01*
X49309628Y19601845D01*
X49268319Y19667833D01*
X49217353Y19718441D01*
X49184962Y19739900D01*
X49394034Y19739900D01*
X49400472Y19634034D01*
X49657983Y18895837D01*
X49670858Y18865079D01*
X49709485Y18827883D01*
X49781016Y18807139D01*
X49862203Y18831459D01*
X49908340Y18904421D01*
X50042818Y19343619D01*
X50177296Y18902990D01*
X50185165Y18882246D01*
X50203763Y18852203D01*
X50243820Y18820014D01*
X50304621Y18807139D01*
X50384378Y18829313D01*
X50429084Y18895837D01*
X50685165Y19634034D01*
X50688398Y19676953D01*
X50771001Y19676953D01*
X50771001Y18938755D01*
X50773147Y18889399D01*
X50786738Y18850057D01*
X50826795Y18817153D01*
X50901187Y18807139D01*
X50977010Y18817153D01*
X51017067Y18849342D01*
X51030658Y18887969D01*
X51032804Y18937325D01*
X51032804Y19076094D01*
X51165851Y19076094D01*
X51318927Y18868655D01*
X51399041Y18802132D01*
X51500615Y18841474D01*
X51569285Y18925880D01*
X51530658Y19024592D01*
X51427654Y19161931D01*
X51497595Y19239820D01*
X51539560Y19332333D01*
X51553548Y19439471D01*
X51544607Y19524413D01*
X51517783Y19601845D01*
X51476831Y19667833D01*
X51425508Y19718441D01*
X51367926Y19756352D01*
X51308197Y19784249D01*
X51248290Y19801416D01*
X51190172Y19807139D01*
X50902618Y19807139D01*
X50826795Y19797124D01*
X50786738Y19764220D01*
X50773147Y19724878D01*
X50771001Y19676953D01*
X50688398Y19676953D01*
X50693033Y19738469D01*
X50603619Y19801416D01*
X50495608Y19807139D01*
X50437668Y19718441D01*
X50288884Y19280672D01*
X50171574Y19709857D01*
X50167282Y19721302D01*
X50160129Y19739185D01*
X50150830Y19757067D01*
X50135093Y19775665D01*
X50112918Y19791402D01*
X50081445Y19803562D01*
X50039957Y19807139D01*
X49957697Y19783176D01*
X49914063Y19711288D01*
X49796753Y19283534D01*
X49647969Y19718441D01*
X49590029Y19806423D01*
X49483448Y19799986D01*
X49394034Y19739900D01*
X49184962Y19739900D01*
X49160129Y19756352D01*
X49100043Y19784249D01*
X49039599Y19801416D01*
X48981302Y19807139D01*
X48696609Y19807139D01*
X48620787Y19797124D01*
X48580730Y19764220D01*
X48567139Y19724878D01*
X48564993Y19676953D01*
X48207339Y19676953D01*
X48207339Y19943524D01*
X48564993Y19943524D01*
X51575007Y19943524D01*
X51932661Y19943524D01*
X51932661Y18676476D01*
G37*
D13*
%TO.C,R502*%
X13023641Y51110000D02*
X12716359Y51110000D01*
X13023641Y50350000D02*
X12716359Y50350000D01*
D15*
%TO.C,D606*%
X53470000Y24920000D02*
X54070000Y24920000D01*
X53480000Y24920000D02*
X53480000Y24390000D01*
X54090000Y24390000D02*
X54090000Y24920000D01*
X54590000Y25260000D02*
X54370000Y25260000D01*
X54590000Y25260000D02*
X54590000Y24060000D01*
X54590000Y24060000D02*
X54370000Y24060000D01*
D13*
%TO.C,R605*%
X50793641Y23640000D02*
X50486359Y23640000D01*
X50793641Y22880000D02*
X50486359Y22880000D01*
%TD*%
%LPC*%
D18*
%TO.C,C1*%
X22500000Y3250000D03*
X27900000Y3250000D03*
%TD*%
D19*
%TO.C,J2*%
X9050000Y3400000D03*
D20*
X9050000Y5400000D03*
%TD*%
D21*
%TO.C,R704*%
X40200000Y9410000D03*
X40200000Y8390000D03*
%TD*%
D22*
%TO.C,J502*%
X10645000Y48780000D03*
X10645000Y49780000D03*
X10645000Y50780000D03*
X10645000Y51780000D03*
D23*
X8120000Y47480000D03*
X8120000Y53080000D03*
%TD*%
D24*
%TO.C,TP103*%
X16200000Y46500000D03*
%TD*%
D25*
%TO.C,C705*%
X48140000Y12810000D03*
X50040000Y12810000D03*
%TD*%
D26*
%TO.C,U702*%
X49165000Y9890000D03*
X48665000Y9890000D03*
X48165000Y9890000D03*
X47665000Y9890000D03*
X47665000Y8090000D03*
X48165000Y8090000D03*
X48665000Y8090000D03*
X49165000Y8090000D03*
D27*
X48415000Y8990000D03*
%TD*%
D28*
%TO.C,J5*%
X-7540000Y34040000D03*
D29*
X-40000Y34040000D03*
D30*
X-6570000Y34800000D03*
X-5780000Y34800000D03*
X-4990000Y34800000D03*
X-4200000Y34800000D03*
X-3410000Y34800000D03*
X-2620000Y34800000D03*
X-1830000Y34800000D03*
X-1040000Y34800000D03*
X-1040000Y33280000D03*
X-1830000Y33280000D03*
X-2620000Y33280000D03*
X-3410000Y33280000D03*
X-4200000Y33280000D03*
X-4990000Y33280000D03*
X-5780000Y33280000D03*
X-6570000Y33280000D03*
D31*
X-6190000Y36190000D03*
X-6190000Y31890000D03*
X-1390000Y36190000D03*
X-1390000Y31890000D03*
%TD*%
D32*
%TO.C,C2*%
X18525000Y10200000D03*
X16450000Y10200000D03*
%TD*%
D21*
%TO.C,R606*%
X52290000Y25160000D03*
X52290000Y24140000D03*
%TD*%
D25*
%TO.C,C708*%
X43360000Y13550000D03*
X45260000Y13550000D03*
%TD*%
D33*
%TO.C,U701*%
X-2150000Y28050000D03*
X-2150000Y29000000D03*
X-2150000Y29950000D03*
X-4425000Y29950000D03*
X-4425000Y29000000D03*
X-4425000Y28050000D03*
%TD*%
D34*
%TO.C,M701*%
X35450000Y22375000D03*
%TD*%
D35*
%TO.C,R21*%
X-5950000Y37950000D03*
X-6910000Y37950000D03*
%TD*%
D36*
%TO.C,H105*%
X-6600080Y-900D03*
%TD*%
D37*
%TO.C,J1*%
X2700000Y6530000D03*
D38*
X160000Y6530000D03*
X2700000Y9070000D03*
X160000Y9070000D03*
X2700000Y11610000D03*
X160000Y11610000D03*
X2700000Y14150000D03*
X160000Y14150000D03*
X2700000Y16690000D03*
X160000Y16690000D03*
X2700000Y19230000D03*
X160000Y19230000D03*
%TD*%
D34*
%TO.C,M702*%
X35450000Y10500000D03*
%TD*%
D39*
%TO.C,D702*%
X19710000Y56450000D03*
X21510000Y56450000D03*
%TD*%
D35*
%TO.C,R20*%
X-6000000Y39070000D03*
X-6960000Y39070000D03*
%TD*%
D40*
%TO.C,L701*%
X43850000Y7885000D03*
X43850000Y11195000D03*
%TD*%
D41*
%TO.C,U703*%
X45100000Y44125000D03*
X45100000Y46325000D03*
X43400000Y46325000D03*
X43400000Y44125000D03*
%TD*%
D36*
%TO.C,H103*%
X55000000Y58000000D03*
%TD*%
D25*
%TO.C,C704*%
X48140000Y14785000D03*
X50040000Y14785000D03*
%TD*%
D21*
%TO.C,R707*%
X23610000Y56230000D03*
X23610000Y55210000D03*
%TD*%
D42*
%TO.C,C709*%
X41850000Y13550000D03*
X39950000Y13550000D03*
%TD*%
D43*
%TO.C,C701*%
X600000Y27500000D03*
X600000Y29400000D03*
%TD*%
D44*
%TO.C,R706*%
X50150000Y9415000D03*
X50150000Y10435000D03*
%TD*%
D25*
%TO.C,C703*%
X-4700000Y26100000D03*
X-2800000Y26100000D03*
%TD*%
D45*
%TO.C,U602*%
X52260000Y20720000D03*
X52260000Y21370000D03*
X52260000Y22020000D03*
X50360000Y22020000D03*
X50360000Y20720000D03*
%TD*%
D46*
%TO.C,C702*%
X-7250000Y28837500D03*
X-7250000Y25762500D03*
%TD*%
D44*
%TO.C,R705*%
X50150000Y7535000D03*
X50150000Y8555000D03*
%TD*%
D47*
%TO.C,R501*%
X13380000Y47430000D03*
X12360000Y47430000D03*
%TD*%
D48*
%TO.C,J701*%
X25450000Y50625000D03*
D49*
X45450000Y50625000D03*
D50*
X26200000Y55900000D03*
X26450000Y48350000D03*
X26700000Y55900000D03*
X26950000Y48350000D03*
X27200000Y55900000D03*
X27450000Y48350000D03*
X27700000Y55900000D03*
X27950000Y48350000D03*
X28200000Y55900000D03*
X28450000Y48350000D03*
X28700000Y55900000D03*
X28950000Y48350000D03*
X29200000Y55900000D03*
X29450000Y48350000D03*
X29700000Y55900000D03*
X29950000Y48350000D03*
X30200000Y55900000D03*
X30450000Y48350000D03*
X30700000Y55900000D03*
X30950000Y48350000D03*
X31200000Y55900000D03*
X31450000Y48350000D03*
X31700000Y55900000D03*
X31950000Y48350000D03*
X32200000Y55900000D03*
X32450000Y48350000D03*
X32700000Y55900000D03*
X32950000Y48350000D03*
X33200000Y55900000D03*
X33450000Y48350000D03*
X33700000Y55900000D03*
X33950000Y48350000D03*
X34200000Y55900000D03*
X34450000Y48350000D03*
X34700000Y55900000D03*
X34950000Y48350000D03*
X35200000Y55900000D03*
X35450000Y48350000D03*
X35700000Y55900000D03*
X35950000Y48350000D03*
X36200000Y55900000D03*
X36450000Y48350000D03*
X36700000Y55900000D03*
X36950000Y48350000D03*
X37200000Y55900000D03*
X37450000Y48350000D03*
X37700000Y55900000D03*
X37950000Y48350000D03*
X38200000Y55900000D03*
X38450000Y48350000D03*
X38700000Y55900000D03*
X38950000Y48350000D03*
X39200000Y55900000D03*
X39450000Y48350000D03*
X39700000Y55900000D03*
X39950000Y48350000D03*
X40200000Y55900000D03*
X40450000Y48350000D03*
X42700000Y55900000D03*
X42950000Y48350000D03*
X43200000Y55900000D03*
X43450000Y48350000D03*
X43700000Y55900000D03*
X43950000Y48350000D03*
X44200000Y55900000D03*
X44450000Y48350000D03*
X44700000Y55900000D03*
D51*
X25100000Y55125000D03*
X45800000Y55125000D03*
%TD*%
D25*
%TO.C,C711*%
X26750000Y46350000D03*
X28650000Y46350000D03*
%TD*%
D24*
%TO.C,TP105*%
X-370000Y39130000D03*
%TD*%
D52*
%TO.C,C712*%
X46450000Y44990000D03*
X46450000Y45950000D03*
%TD*%
D53*
%TO.C,R3*%
X-1310000Y26100000D03*
X-290000Y26100000D03*
%TD*%
D25*
%TO.C,C710*%
X47850000Y47125000D03*
X49750000Y47125000D03*
%TD*%
D35*
%TO.C,C706*%
X48370000Y10885000D03*
X47410000Y10885000D03*
%TD*%
D36*
%TO.C,H104*%
X55000000Y-900D03*
%TD*%
%TO.C,H102*%
X-6600080Y58000000D03*
%TD*%
D43*
%TO.C,C601*%
X12920000Y51980000D03*
X12920000Y53880000D03*
%TD*%
D54*
%TO.C,SW501*%
X55087500Y16650000D03*
X55087500Y13370000D03*
D55*
X54962500Y15000000D03*
D56*
X56487500Y17150000D03*
D57*
X57087500Y17000000D03*
D56*
X56487500Y12850000D03*
D57*
X57087500Y13000000D03*
%TD*%
D24*
%TO.C,TP104*%
X51460000Y48370000D03*
%TD*%
D35*
%TO.C,C707*%
X50220000Y11355000D03*
X49260000Y11355000D03*
%TD*%
D58*
%TO.C,D605*%
X53790000Y22630000D03*
X53790000Y20830000D03*
%TD*%
D59*
%TO.C,D502*%
X12520000Y49580000D03*
X12520000Y48580000D03*
X13820000Y49080000D03*
%TD*%
D22*
%TO.C,J503*%
X-1200000Y42700000D03*
X-1200000Y43700000D03*
X-1200000Y44700000D03*
X-1200000Y45700000D03*
X-1200000Y46700000D03*
X-1200000Y47700000D03*
X-1200000Y48700000D03*
X-1200000Y49700000D03*
X-1200000Y50700000D03*
X-1200000Y51700000D03*
D23*
X-3725000Y41400000D03*
X-3725000Y53000000D03*
%TD*%
D24*
%TO.C,TP106*%
X28410000Y20500000D03*
%TD*%
D47*
%TO.C,R502*%
X13380000Y50730000D03*
X12360000Y50730000D03*
%TD*%
D58*
%TO.C,D606*%
X53790000Y25570000D03*
X53790000Y23770000D03*
%TD*%
D47*
%TO.C,R605*%
X51150000Y23260000D03*
X50130000Y23260000D03*
%TD*%
D60*
%TO.C,SW101*%
X52590000Y9970000D03*
X52590000Y6970000D03*
%TD*%
D61*
%TO.C,J102*%
X49100000Y3750000D03*
D62*
X49100000Y51750000D03*
%TD*%
D63*
%TO.C,J101*%
X49100000Y3750000D03*
D64*
X49100000Y51750000D03*
%TD*%
%LPD*%
M02*
