%TF.GenerationSoftware,KiCad,Pcbnew,9.0.6*%
%TF.CreationDate,2026-03-31T07:19:28-07:00*%
%TF.ProjectId,hub-carrier-board,6875622d-6361-4727-9269-65722d626f61,2*%
%TF.SameCoordinates,Original*%
%TF.FileFunction,Copper,L3,Inr*%
%TF.FilePolarity,Positive*%
%FSLAX46Y46*%
G04 Gerber Fmt 4.6, Leading zero omitted, Abs format (unit mm)*
G04 Created by KiCad (PCBNEW 9.0.6) date 2026-03-31 07:19:28*
%MOMM*%
%LPD*%
G01*
G04 APERTURE LIST*
G04 Aperture macros list*
%AMRoundRect*
0 Rectangle with rounded corners*
0 $1 Rounding radius*
0 $2 $3 $4 $5 $6 $7 $8 $9 X,Y pos of 4 corners*
0 Add a 4 corners polygon primitive as box body*
4,1,4,$2,$3,$4,$5,$6,$7,$8,$9,$2,$3,0*
0 Add four circle primitives for the rounded corners*
1,1,$1+$1,$2,$3*
1,1,$1+$1,$4,$5*
1,1,$1+$1,$6,$7*
1,1,$1+$1,$8,$9*
0 Add four rect primitives between the rounded corners*
20,1,$1+$1,$2,$3,$4,$5,0*
20,1,$1+$1,$4,$5,$6,$7,0*
20,1,$1+$1,$6,$7,$8,$9,0*
20,1,$1+$1,$8,$9,$2,$3,0*%
G04 Aperture macros list end*
%TA.AperFunction,ComponentPad*%
%ADD10RoundRect,0.250000X0.625000X-0.350000X0.625000X0.350000X-0.625000X0.350000X-0.625000X-0.350000X0*%
%TD*%
%TA.AperFunction,ComponentPad*%
%ADD11O,1.750000X1.200000*%
%TD*%
%TA.AperFunction,HeatsinkPad*%
%ADD12C,1.100000*%
%TD*%
%TA.AperFunction,ComponentPad*%
%ADD13C,4.500000*%
%TD*%
%TA.AperFunction,ComponentPad*%
%ADD14C,5.400000*%
%TD*%
%TA.AperFunction,ComponentPad*%
%ADD15RoundRect,0.250000X0.600000X0.600000X-0.600000X0.600000X-0.600000X-0.600000X0.600000X-0.600000X0*%
%TD*%
%TA.AperFunction,ComponentPad*%
%ADD16C,1.700000*%
%TD*%
%TA.AperFunction,ComponentPad*%
%ADD17C,1.000000*%
%TD*%
%TA.AperFunction,ComponentPad*%
%ADD18C,1.200000*%
%TD*%
%TA.AperFunction,ComponentPad*%
%ADD19C,0.900000*%
%TD*%
%TA.AperFunction,ViaPad*%
%ADD20C,0.450000*%
%TD*%
%TA.AperFunction,Conductor*%
%ADD21C,0.300000*%
%TD*%
%TA.AperFunction,Conductor*%
%ADD22C,0.250000*%
%TD*%
%TA.AperFunction,Conductor*%
%ADD23C,1.000000*%
%TD*%
%TA.AperFunction,Conductor*%
%ADD24C,0.800000*%
%TD*%
%TA.AperFunction,Conductor*%
%ADD25C,0.200000*%
%TD*%
G04 APERTURE END LIST*
D10*
%TO.N,GND*%
%TO.C,J2*%
X9050000Y3400000D03*
D11*
%TO.N,+5V*%
X9050000Y5400000D03*
%TD*%
D12*
%TO.N,GND*%
%TO.C,J5*%
X-6190000Y36190000D03*
X-6190000Y31890000D03*
X-1390000Y36190000D03*
X-1390000Y31890000D03*
%TD*%
D13*
%TO.N,N/C*%
%TO.C,M701*%
X35450000Y22375000D03*
%TD*%
D14*
%TO.N,GND*%
%TO.C,H105*%
X-6600080Y-900D03*
%TD*%
D15*
%TO.N,+3V3*%
%TO.C,J1*%
X2700000Y6530000D03*
D16*
%TO.N,+9V*%
X160000Y6530000D03*
%TO.N,GPIO22*%
X2700000Y9070000D03*
%TO.N,GPIO17*%
X160000Y9070000D03*
%TO.N,GPIO10*%
X2700000Y11610000D03*
%TO.N,GPIO9*%
X160000Y11610000D03*
%TO.N,GPIO11*%
X2700000Y14150000D03*
%TO.N,GPIO5*%
X160000Y14150000D03*
%TO.N,GPIO6*%
X2700000Y16690000D03*
%TO.N,GPIO13*%
X160000Y16690000D03*
%TO.N,GND*%
X2700000Y19230000D03*
X160000Y19230000D03*
%TD*%
D13*
%TO.N,N/C*%
%TO.C,M702*%
X35450000Y10500000D03*
%TD*%
D14*
%TO.N,GND*%
%TO.C,H103*%
X55000000Y58000000D03*
%TD*%
D17*
%TO.N,GND*%
%TO.C,TP105*%
X-370000Y39130000D03*
%TD*%
D14*
%TO.N,GND*%
%TO.C,H104*%
X55000000Y-900D03*
%TD*%
%TO.N,GND*%
%TO.C,H102*%
X-6600080Y58000000D03*
%TD*%
D18*
%TO.N,GND*%
%TO.C,SW501*%
X56487500Y17150000D03*
X56487500Y12850000D03*
%TD*%
D17*
%TO.N,GND*%
%TO.C,TP104*%
X51460000Y48370000D03*
%TD*%
%TO.N,GND*%
%TO.C,TP106*%
X28410000Y20500000D03*
%TD*%
D19*
%TO.N,*%
%TO.C,SW101*%
X52590000Y9970000D03*
X52590000Y6970000D03*
%TD*%
D20*
%TO.N,GND*%
X32690000Y54670000D03*
X47010000Y40040000D03*
X27240000Y35590000D03*
X26830000Y32920000D03*
X43640000Y50390000D03*
X8710500Y33430000D03*
X40090000Y49650000D03*
X39690000Y12470000D03*
X9590000Y48170000D03*
X31100000Y-1650000D03*
X27000000Y16650000D03*
X21824304Y43180406D03*
X21500000Y45225000D03*
X53850000Y34740000D03*
X40310000Y12480000D03*
X53850000Y39630000D03*
X31200000Y5400000D03*
X24950000Y12190000D03*
X11540000Y-1650000D03*
X28190000Y54610000D03*
X27650000Y21230000D03*
X13170000Y-1650000D03*
X49950000Y18500000D03*
X52270000Y26319998D03*
X7180000Y56500000D03*
X53657714Y19643035D03*
X26130000Y36600000D03*
X5550000Y56500000D03*
X29910000Y32290000D03*
X53850000Y47780000D03*
X-8850000Y53350000D03*
X30285000Y40845000D03*
X45450000Y22400000D03*
X32410000Y6910000D03*
X50000Y31950000D03*
X52080000Y32620000D03*
X-8650000Y17410000D03*
X16400000Y22080000D03*
X21200000Y13040000D03*
X52060000Y28880000D03*
X20980000Y21940000D03*
X24050000Y22750000D03*
X31200000Y1150000D03*
X18060000Y-1650000D03*
X5020000Y-1650000D03*
X-8650000Y25560000D03*
X22375000Y45500000D03*
X44250000Y29700000D03*
X49160000Y22240000D03*
X-8850000Y43470000D03*
X25390000Y35760000D03*
X29790000Y33270000D03*
X19410000Y7690000D03*
X21320000Y-1650000D03*
X44320000Y6860000D03*
X37630000Y49610000D03*
X-8650000Y22300000D03*
X31380000Y30760000D03*
X16960000Y56500000D03*
X52790000Y31600000D03*
X17225000Y55025000D03*
X49220000Y33940000D03*
X46970000Y30920000D03*
X14300000Y14100000D03*
X-8850000Y50090000D03*
X31300000Y40875000D03*
X46610000Y35480000D03*
X24200000Y13020000D03*
X53850000Y46150000D03*
X12570000Y32430000D03*
X16430000Y-1650000D03*
X-8650000Y12520000D03*
X15490000Y16870000D03*
X30500000Y27400000D03*
X16280000Y7710000D03*
X49110000Y38280000D03*
X14960000Y21955000D03*
X-8650000Y30450000D03*
X49850000Y25150000D03*
X46200000Y13850000D03*
X52550000Y29660000D03*
X9530000Y52970000D03*
X53850000Y38000000D03*
X41660000Y6880000D03*
X46240000Y47330000D03*
X16970000Y14630000D03*
X45700000Y15600000D03*
X14840000Y15980000D03*
X19690000Y-1650000D03*
X27159743Y17911434D03*
X-8850000Y46830000D03*
X32999147Y29924321D03*
X53900000Y4340000D03*
X28740000Y34310000D03*
X46400000Y6250000D03*
X25890000Y34060000D03*
X25940000Y7240000D03*
X28950000Y32400000D03*
X26670000Y34800000D03*
X53900000Y10860000D03*
X18500000Y18100000D03*
X26210000Y-1650000D03*
X31010000Y31260000D03*
X29080000Y31440000D03*
X16060000Y26580000D03*
X27650000Y13100000D03*
X-8850000Y36950000D03*
X46200000Y12717500D03*
X53900000Y5970000D03*
X24580000Y-1650000D03*
X52450000Y55200000D03*
X22950000Y-1650000D03*
X13310000Y18240000D03*
X51325000Y38425000D03*
X51300000Y650000D03*
X49070000Y37240000D03*
X-8650000Y19040000D03*
X20450000Y12200000D03*
X28000000Y18800000D03*
X49700000Y24250000D03*
X43150000Y20150000D03*
X29340000Y18780000D03*
X53850000Y41260000D03*
X26400000Y54640000D03*
X9400000Y50450000D03*
X53850000Y52670000D03*
X53850000Y49410000D03*
X18459997Y56450000D03*
X53900000Y9230000D03*
X21499264Y41231844D03*
X53900000Y7600000D03*
X24300000Y20700000D03*
X53850000Y31480000D03*
X27740000Y33810000D03*
X-8850000Y41840000D03*
X37900000Y24600000D03*
X50080000Y30360000D03*
X22460000Y55860000D03*
X25750002Y13550000D03*
X16325000Y52525000D03*
X13280000Y17050000D03*
X16370000Y16940000D03*
X31200000Y3300000D03*
X14863995Y33226004D03*
X28600000Y17720000D03*
X13210000Y29150000D03*
X17460000Y12080000D03*
X49320000Y56500000D03*
X40710000Y55880000D03*
X16420000Y15830000D03*
X53850000Y42890000D03*
X35470000Y6945000D03*
X46200000Y13295000D03*
X49080000Y29150000D03*
X22403142Y44867067D03*
X52750000Y3050000D03*
X25800000Y23100000D03*
X10440000Y56500000D03*
X40010000Y11930000D03*
X46510000Y36990000D03*
X15330000Y56500000D03*
X47690000Y56500000D03*
X11250000Y31600000D03*
X32350000Y40875000D03*
X46430000Y46670000D03*
X37240000Y54770000D03*
X21475000Y47250000D03*
X9910000Y-1650000D03*
X53850000Y51040000D03*
X53850000Y29850000D03*
X22475000Y48950000D03*
X-8850000Y35320000D03*
X-400000Y36400000D03*
X23450000Y12200000D03*
X-8400000Y24530000D03*
X43950000Y54670000D03*
X-8850000Y45100000D03*
X8280000Y-1650000D03*
X53850000Y54300000D03*
X22300000Y47250000D03*
X-8850000Y38580000D03*
X13400000Y55000000D03*
X-8650000Y20670000D03*
X8890000Y49320000D03*
X6650000Y-1650000D03*
X50960000Y12490000D03*
X38190000Y51450000D03*
X45350000Y32545000D03*
X-8650000Y23930000D03*
X14800000Y-1650000D03*
X11350000Y34050000D03*
X49170000Y32260000D03*
X38690000Y6900000D03*
X50950000Y56500000D03*
X53880000Y28090000D03*
X-8650000Y27190000D03*
X-8650000Y14150000D03*
X16000000Y23345000D03*
X33270000Y30600000D03*
X17900000Y7150000D03*
X38200000Y14900000D03*
X26530000Y50800000D03*
X32160000Y31590000D03*
X17880000Y16610000D03*
X-8650000Y15780000D03*
X39550000Y16750000D03*
X12070000Y56500000D03*
X49073266Y20173266D03*
X30120000Y30460000D03*
X29650000Y51070000D03*
X43104412Y22195588D03*
X49000000Y16200000D03*
X27840000Y-1650000D03*
X26900000Y19800000D03*
X2650000Y29100000D03*
X22450000Y41475000D03*
X-1850000Y55720000D03*
X15503281Y34085999D03*
X21950000Y12180000D03*
X-1850000Y58950000D03*
X53850000Y44520000D03*
X13700000Y56500000D03*
X-8850000Y40210000D03*
X-2300000Y30650000D03*
X44050000Y31650000D03*
X3920000Y56500000D03*
X8810000Y56500000D03*
X29470000Y-1650000D03*
X25800000Y19180000D03*
X53850000Y36370000D03*
X44520000Y54670000D03*
%TO.N,/CM5/SCL1_IO3*%
X43800000Y24250000D03*
%TO.N,/CM5/SDA1_IO2*%
X44150000Y23550000D03*
%TO.N,/CM5/nLED_ACTIVITY*%
X52280000Y23580000D03*
%TO.N,/CM5/nRPIBOOT*%
X52650000Y18850000D03*
X52160000Y8380000D03*
%TO.N,/CM5/EEPROM_nWP*%
X49070000Y31540000D03*
X52100000Y33270000D03*
%TO.N,/CM5/PI_nLED_PWR*%
X52980000Y19690000D03*
%TO.N,+3V3_PI*%
X46700000Y18400000D03*
X47300000Y18400000D03*
X48800000Y18050000D03*
X14580000Y47480000D03*
%TO.N,Net-(D702-K)*%
X19040000Y56450000D03*
X22840000Y56340000D03*
%TO.N,/CM5/PWR_BUT*%
X50100000Y16900000D03*
%TO.N,/CM5/VBUS_EN*%
X31150000Y23350000D03*
%TO.N,+5V*%
X51850000Y18050000D03*
X47090000Y13300000D03*
X50450000Y19350000D03*
X2000000Y27450000D03*
X53220000Y23520000D03*
X51850000Y19700000D03*
X19530000Y33680000D03*
X53780000Y20210000D03*
X20683333Y33680000D03*
X47090000Y12717500D03*
X51850000Y19150000D03*
X47110000Y14400000D03*
X21260000Y32970000D03*
X47090000Y12150000D03*
X20106667Y33680000D03*
X51850000Y18600000D03*
X47100000Y13850000D03*
X21260000Y33680000D03*
X50450000Y19925000D03*
%TO.N,M2_3V3*%
X40700000Y29610000D03*
X43320000Y49650000D03*
X47100000Y47425000D03*
X47400000Y45450000D03*
X43360000Y12250000D03*
X50730000Y11360000D03*
X30190000Y50255000D03*
X39920000Y29610000D03*
X41430000Y29620000D03*
X50150000Y7040000D03*
X27136178Y50255000D03*
X29210000Y50255000D03*
X43950000Y49590000D03*
X45375000Y47975000D03*
X47100000Y46825000D03*
X45070000Y48630000D03*
%TO.N,/CM5/PCIE_PI.TX_N*%
X16163547Y31366453D03*
%TO.N,/CM5/PCIE_PI.nWAKE*%
X39460000Y49960000D03*
X17900000Y38050000D03*
%TO.N,/CM5/PCIE_PI.nCLKREQ*%
X38030000Y50820000D03*
X15950000Y38150000D03*
%TO.N,/CM5/PCIE_PI.PWR_EN*%
X39824000Y10350000D03*
X28300000Y22200000D03*
X48740990Y7353785D03*
X15520000Y34750000D03*
%TO.N,/CM5/PCIE_PI.RX_N*%
X15984144Y33011133D03*
%TO.N,/CM5/PCIE_PI.CLK_P*%
X41200000Y54372000D03*
%TO.N,/CM5/PCIE_PI.RX_P*%
X15557050Y33438227D03*
%TO.N,/CM5/PCIE_PI.TX_P*%
X15736453Y31793547D03*
%TO.N,/CM5/PCIE_PI.CLK_N*%
X41200000Y53768000D03*
%TO.N,/CM5/PCIE_PI.nRST*%
X19775000Y37775000D03*
X38380000Y49560000D03*
%TO.N,/CM5/MOSI_GPIO20*%
X50510000Y29850000D03*
X28650000Y25900000D03*
%TO.N,/CM5/MISO_GPIO19*%
X49460000Y30260000D03*
X29900000Y26750000D03*
%TO.N,/CM5/SCLK_GPIO21*%
X29800000Y25200000D03*
X52125000Y30250000D03*
%TO.N,/CM5/BL_GPIO24*%
X28950000Y24400000D03*
X51910000Y25840000D03*
%TO.N,/CM5/RST_GPIO27*%
X45950000Y25450000D03*
X36750000Y26050000D03*
X37050000Y29650000D03*
%TO.N,/CM5/DC_GPI25*%
X18714577Y24144577D03*
X49100000Y24300000D03*
%TO.N,/CM5/CS_GPIO18*%
X50460000Y25450000D03*
X16050000Y25750000D03*
%TO.N,D+*%
X-4200000Y35615000D03*
%TO.N,D-*%
X-3417494Y35615000D03*
%TD*%
D21*
%TO.N,/CM5/nRPIBOOT*%
X53150000Y18850000D02*
X53801000Y18199000D01*
X53801000Y18199000D02*
X53801000Y16001000D01*
X52650000Y18850000D02*
X53150000Y18850000D01*
X51520000Y9020000D02*
X52160000Y8380000D01*
X51520000Y13720000D02*
X51520000Y9020000D01*
X53801000Y16001000D02*
X51520000Y13720000D01*
D22*
%TO.N,/CM5/EEPROM_nWP*%
X49070000Y31540000D02*
X49210000Y31540000D01*
X50940000Y33270000D02*
X52100000Y33270000D01*
X49210000Y31540000D02*
X50940000Y33270000D01*
D23*
%TO.N,+3V3_PI*%
X18293000Y33167617D02*
X18293000Y33457000D01*
X21850000Y31600000D02*
X19860617Y31600000D01*
X47300000Y18400000D02*
X47140000Y18400000D01*
X27550000Y15800000D02*
X40100000Y15800000D01*
X14580000Y47480000D02*
X14580000Y47080000D01*
X19860617Y31600000D02*
X18293000Y33167617D01*
X25856000Y15794000D02*
X27544000Y15794000D01*
X42700000Y18400000D02*
X46700000Y18400000D01*
X14500000Y37800000D02*
X15094000Y37206000D01*
X19433146Y34536000D02*
X21614567Y34536000D01*
X15094000Y37206000D02*
X16763145Y37206000D01*
X40100000Y15800000D02*
X42700000Y18400000D01*
X16763145Y37206000D02*
X19433146Y34536000D01*
X16074000Y35676000D02*
X15026000Y35676000D01*
X27544000Y15794000D02*
X27550000Y15800000D01*
X18293000Y33457000D02*
X16074000Y35676000D01*
X22116000Y34034567D02*
X22116000Y31866000D01*
X13800000Y34450000D02*
X13800000Y33079432D01*
X15026000Y35676000D02*
X13800000Y34450000D01*
X14509428Y25590572D02*
X15550000Y24550000D01*
D24*
X46800000Y18300000D02*
X47200000Y18300000D01*
D23*
X17100000Y24550000D02*
X25856000Y15794000D01*
X21614567Y34536000D02*
X22116000Y34034567D01*
X14509428Y32370004D02*
X14509428Y25590572D01*
X13800000Y33079432D02*
X14509428Y32370004D01*
X14580000Y47080000D02*
X14500000Y47000000D01*
X22116000Y31866000D02*
X21850000Y31600000D01*
X15550000Y24550000D02*
X17100000Y24550000D01*
X14500000Y47000000D02*
X14500000Y37800000D01*
D25*
%TO.N,/CM5/PCIE_PI.nWAKE*%
X36080000Y51670000D02*
X37590000Y50160000D01*
X21370000Y51670000D02*
X36080000Y51670000D01*
X17925000Y38050000D02*
X18700000Y38825000D01*
X18700000Y38825000D02*
X18700000Y49000000D01*
X37590000Y50160000D02*
X39260000Y50160000D01*
X39260000Y50160000D02*
X39460000Y49960000D01*
X18700000Y49000000D02*
X21370000Y51670000D01*
X17900000Y38050000D02*
X17925000Y38050000D01*
%TO.N,/CM5/PCIE_PI.nCLKREQ*%
X17550000Y39750000D02*
X17550000Y49050000D01*
X17550000Y49050000D02*
X21200000Y52700000D01*
X21200000Y52700000D02*
X36150000Y52700000D01*
X36150000Y52700000D02*
X38030000Y50820000D01*
X15950000Y38150000D02*
X17550000Y39750000D01*
%TO.N,/CM5/PCIE_PI.PWR_EN*%
X15721158Y34611999D02*
X16029281Y34303876D01*
D21*
X27030000Y23470000D02*
X26880000Y23470000D01*
X28300000Y22200000D02*
X27030000Y23470000D01*
X15594000Y34676000D02*
X15520000Y34750000D01*
D25*
X20085412Y29914588D02*
X20460000Y29914588D01*
X16029281Y34303876D02*
X16029281Y33970719D01*
D21*
X20460000Y29890000D02*
X20460000Y29914588D01*
D25*
X15520000Y34750000D02*
X15520000Y34611999D01*
X16029281Y33970719D02*
X20085412Y29914588D01*
D21*
X26880000Y23470000D02*
X20460000Y29890000D01*
D25*
X15520000Y34611999D02*
X15721158Y34611999D01*
%TO.N,/CM5/PCIE_PI.nRST*%
X36796123Y49700000D02*
X37412123Y49084000D01*
X38156000Y49393537D02*
X38322463Y49560000D01*
X37847877Y49084000D02*
X38156000Y49392123D01*
X19800000Y37800000D02*
X19800000Y48400000D01*
X21100000Y49700000D02*
X36796123Y49700000D01*
X19775000Y37775000D02*
X19800000Y37800000D01*
X38322463Y49560000D02*
X38380000Y49560000D01*
X19800000Y48400000D02*
X21100000Y49700000D01*
X37412123Y49084000D02*
X37847877Y49084000D01*
X38156000Y49392123D02*
X38156000Y49393537D01*
%TO.N,/CM5/MOSI_GPIO20*%
X28650000Y25900000D02*
X31350000Y25900000D01*
X48760000Y28100000D02*
X50510000Y29850000D01*
X33550000Y28100000D02*
X48760000Y28100000D01*
X31350000Y25900000D02*
X33550000Y28100000D01*
%TO.N,/CM5/MISO_GPIO19*%
X49460000Y30230000D02*
X49460000Y30260000D01*
X31150000Y26750000D02*
X33200000Y28800000D01*
X29900000Y26750000D02*
X31150000Y26750000D01*
X48030000Y28800000D02*
X49460000Y30230000D01*
X33200000Y28800000D02*
X48030000Y28800000D01*
%TO.N,/CM5/SCLK_GPIO21*%
X29800000Y25200000D02*
X31750000Y25200000D01*
X31750000Y25200000D02*
X33960000Y27410000D01*
X33960000Y27410000D02*
X49285000Y27410000D01*
X49285000Y27410000D02*
X52125000Y30250000D01*
%TO.N,/CM5/BL_GPIO24*%
X32100000Y24400000D02*
X34390000Y26690000D01*
X51190000Y25840000D02*
X51910000Y25840000D01*
X34390000Y26690000D02*
X50340000Y26690000D01*
X28950000Y24400000D02*
X32100000Y24400000D01*
X50340000Y26690000D02*
X51190000Y25840000D01*
D21*
%TO.N,/CM5/DC_GPI25*%
X48200000Y23500000D02*
X49000000Y24300000D01*
X49000000Y24300000D02*
X49100000Y24300000D01*
X27030000Y17200000D02*
X38930000Y17200000D01*
X20100000Y24130000D02*
X27030000Y17200000D01*
X18714577Y24144577D02*
X18729154Y24130000D01*
X18729154Y24130000D02*
X20100000Y24130000D01*
X38930000Y17200000D02*
X45230000Y23500000D01*
X45230000Y23500000D02*
X48200000Y23500000D01*
D22*
%TO.N,/CM5/CS_GPIO18*%
X21920000Y25730000D02*
X28330000Y19320000D01*
X28330000Y19320000D02*
X37940000Y19320000D01*
X16050000Y25750000D02*
X16070000Y25730000D01*
X49940000Y25970000D02*
X50460000Y25450000D01*
X16070000Y25730000D02*
X21920000Y25730000D01*
X44590000Y25970000D02*
X49940000Y25970000D01*
X37940000Y19320000D02*
X44590000Y25970000D01*
%TD*%
%TA.AperFunction,Conductor*%
%TO.N,GND*%
G36*
X-9301174Y-872316D02*
G01*
X-9283653Y-900201D01*
X-9218781Y-1085596D01*
X-9080866Y-1371979D01*
X-8911754Y-1641120D01*
X-8713573Y-1889631D01*
X-8656700Y-1946504D01*
X-7610182Y-899986D01*
X-7499166Y-1011002D01*
X-8545684Y-2057520D01*
X-8488812Y-2114392D01*
X-8240301Y-2312573D01*
X-7971160Y-2481685D01*
X-7684774Y-2619602D01*
X-7644618Y-2633653D01*
X-7602386Y-2671392D01*
X-7599211Y-2727940D01*
X-7636950Y-2770172D01*
X-7669058Y-2777500D01*
X-9353500Y-2777500D01*
X-9405826Y-2755826D01*
X-9427500Y-2703500D01*
X-9427500Y-924642D01*
X-9405826Y-872316D01*
X-9353500Y-850642D01*
X-9301174Y-872316D01*
G37*
%TD.AperFunction*%
%TA.AperFunction,Conductor*%
G36*
X35977203Y51347826D02*
G01*
X37349540Y49975489D01*
X37405489Y49919540D01*
X37474011Y49879979D01*
X37474012Y49879979D01*
X37474014Y49879978D01*
X37512224Y49869740D01*
X37550435Y49859501D01*
X37550436Y49859500D01*
X37550438Y49859500D01*
X37933419Y49859500D01*
X37985745Y49837826D01*
X38007419Y49785500D01*
X38003354Y49761311D01*
X38001041Y49754625D01*
X37983497Y49724237D01*
X37959314Y49633987D01*
X37958450Y49631488D01*
X37954543Y49627086D01*
X37940843Y49603353D01*
X37915538Y49578047D01*
X37913828Y49575818D01*
X37907451Y49568547D01*
X37745080Y49406174D01*
X37692754Y49384500D01*
X37567246Y49384500D01*
X37514920Y49406174D01*
X36980634Y49940460D01*
X36980629Y49940463D01*
X36963287Y49950475D01*
X36912113Y49980021D01*
X36912108Y49980023D01*
X36835687Y50000500D01*
X36835685Y50000500D01*
X30604826Y50000500D01*
X30552500Y50022174D01*
X30530826Y50074500D01*
X30539045Y50105168D01*
X30538053Y50105579D01*
X30539907Y50110058D01*
X30539910Y50110062D01*
X30565499Y50205563D01*
X30565500Y50205563D01*
X30565500Y50304437D01*
X30565499Y50304438D01*
X30539911Y50399935D01*
X30539909Y50399940D01*
X30516767Y50440023D01*
X30490475Y50485562D01*
X30420562Y50555475D01*
X30376712Y50580792D01*
X30334939Y50604910D01*
X30334934Y50604912D01*
X30239437Y50630500D01*
X30239435Y50630500D01*
X30140565Y50630500D01*
X30140563Y50630500D01*
X30045065Y50604912D01*
X30045060Y50604910D01*
X29959437Y50555475D01*
X29889525Y50485563D01*
X29840090Y50399940D01*
X29840088Y50399935D01*
X29814500Y50304438D01*
X29814500Y50205563D01*
X29840088Y50110066D01*
X29841947Y50105579D01*
X29840135Y50104829D01*
X29846654Y50055354D01*
X29812180Y50010418D01*
X29775174Y50000500D01*
X29624826Y50000500D01*
X29572500Y50022174D01*
X29550826Y50074500D01*
X29559045Y50105168D01*
X29558053Y50105579D01*
X29559907Y50110058D01*
X29559910Y50110062D01*
X29585499Y50205563D01*
X29585500Y50205563D01*
X29585500Y50304437D01*
X29585499Y50304438D01*
X29559911Y50399935D01*
X29559909Y50399940D01*
X29536767Y50440023D01*
X29510475Y50485562D01*
X29440562Y50555475D01*
X29396712Y50580792D01*
X29354939Y50604910D01*
X29354934Y50604912D01*
X29259437Y50630500D01*
X29259435Y50630500D01*
X29160565Y50630500D01*
X29160563Y50630500D01*
X29065065Y50604912D01*
X29065060Y50604910D01*
X28979437Y50555475D01*
X28909525Y50485563D01*
X28860090Y50399940D01*
X28860088Y50399935D01*
X28834500Y50304438D01*
X28834500Y50205563D01*
X28860088Y50110066D01*
X28861947Y50105579D01*
X28860135Y50104829D01*
X28866654Y50055354D01*
X28832180Y50010418D01*
X28795174Y50000500D01*
X27551004Y50000500D01*
X27498678Y50022174D01*
X27477004Y50074500D01*
X27485223Y50105168D01*
X27484231Y50105579D01*
X27486085Y50110058D01*
X27486088Y50110062D01*
X27511677Y50205563D01*
X27511678Y50205563D01*
X27511678Y50304437D01*
X27511677Y50304438D01*
X27486089Y50399935D01*
X27486087Y50399940D01*
X27462945Y50440023D01*
X27436653Y50485562D01*
X27366740Y50555475D01*
X27322890Y50580792D01*
X27281117Y50604910D01*
X27281112Y50604912D01*
X27185615Y50630500D01*
X27185613Y50630500D01*
X27086743Y50630500D01*
X27086741Y50630500D01*
X26991243Y50604912D01*
X26991238Y50604910D01*
X26905615Y50555475D01*
X26835703Y50485563D01*
X26786268Y50399940D01*
X26786266Y50399935D01*
X26760678Y50304438D01*
X26760678Y50205563D01*
X26786266Y50110066D01*
X26788125Y50105579D01*
X26786313Y50104829D01*
X26792832Y50055354D01*
X26758358Y50010418D01*
X26721352Y50000500D01*
X26100873Y50000500D01*
X26048547Y50022174D01*
X26026873Y50074500D01*
X26048546Y50126825D01*
X26052370Y50130648D01*
X26137239Y50257663D01*
X26195698Y50398795D01*
X26225500Y50548620D01*
X26225500Y50701380D01*
X26195698Y50851205D01*
X26137239Y50992337D01*
X26052370Y51119352D01*
X25944352Y51227370D01*
X25944348Y51227373D01*
X25944346Y51227375D01*
X25934472Y51233972D01*
X25903007Y51281064D01*
X25914057Y51336613D01*
X25961149Y51368078D01*
X25975585Y51369500D01*
X35924877Y51369500D01*
X35977203Y51347826D01*
G37*
%TD.AperFunction*%
%TA.AperFunction,Conductor*%
G36*
X53869338Y60705826D02*
G01*
X53891012Y60653500D01*
X53869338Y60601174D01*
X53849119Y60586828D01*
X53628923Y60480788D01*
X53359779Y60311674D01*
X53111268Y60113493D01*
X53054396Y60056620D01*
X54100914Y59010102D01*
X53989898Y58899086D01*
X52943380Y59945604D01*
X52886507Y59888732D01*
X52688326Y59640221D01*
X52519214Y59371080D01*
X52381299Y59084697D01*
X52276321Y58784687D01*
X52276316Y58784671D01*
X52205589Y58474795D01*
X52205589Y58474794D01*
X52170000Y58158926D01*
X52170000Y57841075D01*
X52205589Y57525207D01*
X52205589Y57525206D01*
X52276316Y57215330D01*
X52276321Y57215314D01*
X52381299Y56915304D01*
X52519214Y56628921D01*
X52688326Y56359780D01*
X52886507Y56111269D01*
X52943380Y56054396D01*
X53989898Y57100914D01*
X54100914Y56989898D01*
X53054396Y55943380D01*
X53111268Y55886508D01*
X53359779Y55688327D01*
X53628920Y55519215D01*
X53915303Y55381300D01*
X54215313Y55276322D01*
X54215329Y55276317D01*
X54525205Y55205590D01*
X54841075Y55170000D01*
X55158925Y55170000D01*
X55474793Y55205590D01*
X55474794Y55205590D01*
X55784670Y55276317D01*
X55784686Y55276322D01*
X56084696Y55381300D01*
X56371079Y55519215D01*
X56640220Y55688327D01*
X56888731Y55886508D01*
X56945604Y55943380D01*
X55899086Y56989898D01*
X56010102Y57100914D01*
X57056620Y56054396D01*
X57113492Y56111269D01*
X57311673Y56359780D01*
X57480785Y56628921D01*
X57618700Y56915304D01*
X57683653Y57100927D01*
X57721393Y57143158D01*
X57777941Y57146333D01*
X57820172Y57108593D01*
X57827500Y57076486D01*
X57827500Y922615D01*
X57805826Y870289D01*
X57753500Y848615D01*
X57701174Y870289D01*
X57683653Y898174D01*
X57618700Y1083797D01*
X57480785Y1370180D01*
X57311673Y1639321D01*
X57113492Y1887832D01*
X57056620Y1944704D01*
X56010102Y898186D01*
X55899086Y1009202D01*
X56945604Y2055720D01*
X56888731Y2112593D01*
X56640220Y2310774D01*
X56371079Y2479886D01*
X56084696Y2617801D01*
X55784686Y2722779D01*
X55784670Y2722784D01*
X55474794Y2793511D01*
X55158925Y2829100D01*
X54841075Y2829100D01*
X54525206Y2793511D01*
X54525205Y2793511D01*
X54215329Y2722784D01*
X54215313Y2722779D01*
X53915303Y2617801D01*
X53628920Y2479886D01*
X53359779Y2310774D01*
X53111268Y2112593D01*
X53054396Y2055720D01*
X54100914Y1009202D01*
X53989898Y898186D01*
X52943380Y1944704D01*
X52886507Y1887832D01*
X52688326Y1639321D01*
X52519214Y1370180D01*
X52381299Y1083797D01*
X52276321Y783787D01*
X52276316Y783771D01*
X52205589Y473895D01*
X52205589Y473894D01*
X52170000Y158026D01*
X52170000Y-159825D01*
X52205589Y-475693D01*
X52205589Y-475694D01*
X52276316Y-785570D01*
X52276321Y-785586D01*
X52381299Y-1085596D01*
X52519214Y-1371979D01*
X52688326Y-1641120D01*
X52886507Y-1889631D01*
X52943380Y-1946504D01*
X53989898Y-899986D01*
X54100914Y-1011002D01*
X53054396Y-2057520D01*
X53111268Y-2114392D01*
X53359779Y-2312573D01*
X53628920Y-2481685D01*
X53915306Y-2619602D01*
X53955462Y-2633653D01*
X53997694Y-2671392D01*
X54000869Y-2727940D01*
X53963130Y-2770172D01*
X53931022Y-2777500D01*
X-5531102Y-2777500D01*
X-5583428Y-2755826D01*
X-5605102Y-2703500D01*
X-5583428Y-2651174D01*
X-5555542Y-2633653D01*
X-5515387Y-2619602D01*
X-5229001Y-2481685D01*
X-4959860Y-2312573D01*
X-4711349Y-2114392D01*
X-4654476Y-2057520D01*
X-5700994Y-1011002D01*
X-5589978Y-899986D01*
X-4543460Y-1946504D01*
X-4486588Y-1889631D01*
X-4288407Y-1641120D01*
X-4119295Y-1371979D01*
X-3981380Y-1085596D01*
X-3876402Y-785586D01*
X-3876397Y-785570D01*
X-3805670Y-475694D01*
X-3805670Y-475693D01*
X-3770080Y-159825D01*
X-3770080Y158026D01*
X-3805670Y473894D01*
X-3805670Y473895D01*
X-3876397Y783771D01*
X-3876402Y783787D01*
X-3981380Y1083797D01*
X-4119295Y1370180D01*
X-4288407Y1639321D01*
X-4486588Y1887832D01*
X-4543460Y1944704D01*
X-5589978Y898186D01*
X-5700994Y1009202D01*
X-4654476Y2055720D01*
X-4711349Y2112593D01*
X-4959860Y2310774D01*
X-5229001Y2479886D01*
X-5515384Y2617801D01*
X-5815394Y2722779D01*
X-5815410Y2722784D01*
X-6125286Y2793511D01*
X-6441155Y2829100D01*
X-6759005Y2829100D01*
X-7074874Y2793511D01*
X-7074875Y2793511D01*
X-7384751Y2722784D01*
X-7384767Y2722779D01*
X-7684777Y2617801D01*
X-7971160Y2479886D01*
X-8240301Y2310774D01*
X-8488812Y2112593D01*
X-8545684Y2055720D01*
X-7499166Y1009202D01*
X-7610182Y898186D01*
X-8656700Y1944704D01*
X-8713573Y1887832D01*
X-8911754Y1639321D01*
X-9080866Y1370180D01*
X-9218781Y1083797D01*
X-9283653Y898402D01*
X-9321393Y856171D01*
X-9377941Y852996D01*
X-9420172Y890736D01*
X-9427500Y922843D01*
X-9427500Y3786066D01*
X8045000Y3786066D01*
X8045000Y3478500D01*
X8682805Y3478500D01*
X8675000Y3449370D01*
X8675000Y3350630D01*
X8682805Y3321500D01*
X8045001Y3321500D01*
X8045001Y3013948D01*
X8045002Y3013932D01*
X8055760Y2940079D01*
X8055762Y2940072D01*
X8111460Y2826140D01*
X8201138Y2736462D01*
X8315071Y2680763D01*
X8388939Y2670001D01*
X8971500Y2670001D01*
X8971500Y3032806D01*
X9000630Y3025000D01*
X9099370Y3025000D01*
X9128500Y3032806D01*
X9128500Y2670001D01*
X9711053Y2670001D01*
X9711068Y2670003D01*
X9784921Y2680761D01*
X9784928Y2680763D01*
X9898860Y2736461D01*
X9898861Y2736461D01*
X9988538Y2826139D01*
X10044237Y2940072D01*
X10054999Y3013935D01*
X10055000Y3013946D01*
X10055000Y3321500D01*
X9417195Y3321500D01*
X9425000Y3350630D01*
X9425000Y3449370D01*
X9417195Y3478500D01*
X10054999Y3478500D01*
X10054999Y3786053D01*
X10054997Y3786069D01*
X10044239Y3859922D01*
X10044237Y3859929D01*
X9988539Y3973861D01*
X9898861Y4063539D01*
X9898862Y4063539D01*
X9784928Y4119238D01*
X9711065Y4130000D01*
X9128500Y4130000D01*
X9128500Y3767195D01*
X9099370Y3775000D01*
X9000630Y3775000D01*
X8971500Y3767195D01*
X8971500Y4130000D01*
X8388939Y4130000D01*
X8315078Y4119240D01*
X8315071Y4119238D01*
X8201139Y4063540D01*
X8201139Y4063539D01*
X8111461Y3973862D01*
X8055762Y3859929D01*
X8045000Y3786066D01*
X-9427500Y3786066D01*
X-9427500Y5473918D01*
X8024500Y5473918D01*
X8024500Y5326082D01*
X8029573Y5300581D01*
X8053340Y5181093D01*
X8053343Y5181083D01*
X8109915Y5044506D01*
X8109916Y5044505D01*
X8192049Y4921584D01*
X8296584Y4817049D01*
X8419505Y4734916D01*
X8556087Y4678342D01*
X8701082Y4649500D01*
X8701084Y4649500D01*
X9398916Y4649500D01*
X9398918Y4649500D01*
X9543913Y4678342D01*
X9680495Y4734916D01*
X9803416Y4817049D01*
X9907951Y4921584D01*
X9990084Y5044505D01*
X10046658Y5181087D01*
X10075500Y5326082D01*
X10075500Y5473918D01*
X10046658Y5618913D01*
X9990084Y5755495D01*
X9907951Y5878416D01*
X9803416Y5982951D01*
X9693962Y6056086D01*
X9680494Y6065085D01*
X9543917Y6121657D01*
X9543907Y6121660D01*
X9446811Y6140974D01*
X9398918Y6150500D01*
X8701082Y6150500D01*
X8659977Y6142324D01*
X8556092Y6121660D01*
X8556082Y6121657D01*
X8419505Y6065085D01*
X8296584Y5982952D01*
X8296583Y5982950D01*
X8192050Y5878417D01*
X8192048Y5878416D01*
X8109915Y5755495D01*
X8053343Y5618918D01*
X8053340Y5618908D01*
X8043204Y5567949D01*
X8024500Y5473918D01*
X-9427500Y5473918D01*
X-9427500Y6628540D01*
X-840500Y6628540D01*
X-840500Y6431461D01*
X-802053Y6238171D01*
X-802050Y6238161D01*
X-726633Y6056087D01*
X-621324Y5898482D01*
X-617139Y5892218D01*
X-477782Y5752861D01*
X-313914Y5643368D01*
X-131835Y5567949D01*
X61459Y5529500D01*
X61461Y5529500D01*
X258539Y5529500D01*
X258541Y5529500D01*
X451835Y5567949D01*
X633914Y5643368D01*
X797782Y5752861D01*
X937139Y5892218D01*
X1046632Y6056086D01*
X1122051Y6238165D01*
X1160500Y6431459D01*
X1160500Y6628541D01*
X1122051Y6821835D01*
X1118560Y6830262D01*
X1046632Y7003914D01*
X1026483Y7034069D01*
X941323Y7161520D01*
X1699500Y7161520D01*
X1699500Y5898481D01*
X1714353Y5804696D01*
X1714354Y5804694D01*
X1740765Y5752861D01*
X1771950Y5691658D01*
X1861658Y5601950D01*
X1974696Y5544354D01*
X2068481Y5529500D01*
X3331518Y5529501D01*
X3331519Y5529501D01*
X3425304Y5544354D01*
X3538342Y5601950D01*
X3628050Y5691658D01*
X3685646Y5804696D01*
X3700500Y5898481D01*
X3700499Y6600000D01*
X31500000Y6600000D01*
X31500000Y750000D01*
X45950000Y800000D01*
X45950000Y2626359D01*
X45971674Y2678685D01*
X46024000Y2700359D01*
X46076326Y2678685D01*
X46093847Y2650799D01*
X46138460Y2523299D01*
X46294433Y2199420D01*
X46294434Y2199418D01*
X46485685Y1895044D01*
X46709812Y1613997D01*
X46963997Y1359812D01*
X47245044Y1135685D01*
X47549418Y944434D01*
X47873292Y788464D01*
X48212592Y669738D01*
X48212597Y669737D01*
X48212600Y669736D01*
X48563047Y589749D01*
X48563048Y589749D01*
X48563052Y589748D01*
X48920264Y549500D01*
X48920268Y549500D01*
X49279732Y549500D01*
X49279736Y549500D01*
X49636948Y589748D01*
X49987408Y669738D01*
X50326708Y788464D01*
X50650582Y944434D01*
X50954956Y1135685D01*
X51236003Y1359812D01*
X51490188Y1613997D01*
X51714315Y1895044D01*
X51905566Y2199418D01*
X52061536Y2523292D01*
X52180262Y2862592D01*
X52260252Y3213052D01*
X52300500Y3570264D01*
X52300500Y3929736D01*
X52260252Y4286948D01*
X52180262Y4637408D01*
X52061536Y4976708D01*
X51905566Y5300582D01*
X51714315Y5604956D01*
X51490188Y5886003D01*
X51236003Y6140188D01*
X50954956Y6364315D01*
X50650582Y6555566D01*
X50558314Y6600000D01*
X50438130Y6657878D01*
X50400391Y6700110D01*
X50403566Y6756658D01*
X50417910Y6776874D01*
X50450475Y6809438D01*
X50499910Y6895062D01*
X50525499Y6990563D01*
X50525500Y6990563D01*
X50525500Y7034069D01*
X51939500Y7034069D01*
X51939500Y6905931D01*
X51943824Y6884192D01*
X51964497Y6780261D01*
X51964498Y6780258D01*
X51997696Y6700110D01*
X52013535Y6661873D01*
X52084724Y6555331D01*
X52175331Y6464724D01*
X52281873Y6393535D01*
X52400256Y6344499D01*
X52400258Y6344499D01*
X52400260Y6344498D01*
X52442903Y6336016D01*
X52525931Y6319500D01*
X52525933Y6319500D01*
X52654067Y6319500D01*
X52654069Y6319500D01*
X52779744Y6344499D01*
X52898127Y6393535D01*
X53004669Y6464724D01*
X53095276Y6555331D01*
X53166465Y6661873D01*
X53215501Y6780256D01*
X53240500Y6905931D01*
X53240500Y7034069D01*
X53215501Y7159744D01*
X53166465Y7278127D01*
X53095276Y7384669D01*
X53004669Y7475276D01*
X52979563Y7492051D01*
X52940695Y7518022D01*
X52898127Y7546465D01*
X52898124Y7546467D01*
X52898123Y7546467D01*
X52779742Y7595502D01*
X52779739Y7595503D01*
X52681472Y7615049D01*
X52654069Y7620500D01*
X52525931Y7620500D01*
X52498528Y7615049D01*
X52400260Y7595503D01*
X52400257Y7595502D01*
X52281876Y7546467D01*
X52175331Y7475277D01*
X52175330Y7475275D01*
X52084725Y7384670D01*
X52084723Y7384669D01*
X52013533Y7278124D01*
X51964498Y7159743D01*
X51964497Y7159740D01*
X51950513Y7089435D01*
X51939500Y7034069D01*
X50525500Y7034069D01*
X50525500Y7089437D01*
X50525499Y7089438D01*
X50499911Y7184935D01*
X50499909Y7184940D01*
X50459284Y7255304D01*
X50450475Y7270562D01*
X50380562Y7340475D01*
X50332295Y7368342D01*
X50294939Y7389910D01*
X50294934Y7389912D01*
X50199437Y7415500D01*
X50199435Y7415500D01*
X50100565Y7415500D01*
X50100563Y7415500D01*
X50005065Y7389912D01*
X50005060Y7389910D01*
X49919437Y7340475D01*
X49849525Y7270563D01*
X49800090Y7184940D01*
X49800088Y7184935D01*
X49774500Y7089438D01*
X49774500Y6990560D01*
X49774597Y6990199D01*
X49774572Y6990013D01*
X49775133Y6985754D01*
X49773991Y6985604D01*
X49767199Y6934047D01*
X49722263Y6899573D01*
X49686651Y6898908D01*
X49636952Y6910251D01*
X49636951Y6910252D01*
X49476900Y6928285D01*
X49279736Y6950500D01*
X49118105Y6950500D01*
X49065779Y6972174D01*
X49044105Y7024500D01*
X49065779Y7076826D01*
X49081475Y7092522D01*
X49137493Y7189548D01*
X49166489Y7297765D01*
X49166490Y7297765D01*
X49166490Y7409805D01*
X49166489Y7409806D01*
X49164963Y7415500D01*
X49137493Y7518022D01*
X49081475Y7615048D01*
X49002253Y7694270D01*
X48905231Y7750286D01*
X48905222Y7750290D01*
X48797010Y7779285D01*
X48797008Y7779285D01*
X48684972Y7779285D01*
X48684970Y7779285D01*
X48576757Y7750290D01*
X48576748Y7750286D01*
X48479726Y7694270D01*
X48400505Y7615049D01*
X48344489Y7518027D01*
X48344485Y7518018D01*
X48315490Y7409806D01*
X48315490Y7297765D01*
X48344485Y7189553D01*
X48344489Y7189544D01*
X48400505Y7092522D01*
X48483157Y7009870D01*
X48481430Y7008144D01*
X48505769Y6966019D01*
X48491127Y6911307D01*
X48448872Y6884192D01*
X48212596Y6830264D01*
X48212584Y6830260D01*
X47873295Y6711538D01*
X47549419Y6555567D01*
X47245043Y6364315D01*
X46963993Y6140185D01*
X46709815Y5886007D01*
X46485685Y5604957D01*
X46294433Y5300581D01*
X46138462Y4976705D01*
X46093847Y4849201D01*
X46056107Y4806970D01*
X45999559Y4803795D01*
X45957328Y4841535D01*
X45950000Y4873642D01*
X45950000Y6600000D01*
X31500000Y6600000D01*
X3700499Y6600000D01*
X3700499Y7161518D01*
X3696790Y7184935D01*
X3685646Y7255305D01*
X3685645Y7255307D01*
X3628049Y7368343D01*
X3538343Y7458049D01*
X3538342Y7458050D01*
X3425304Y7515646D01*
X3425302Y7515647D01*
X3425301Y7515647D01*
X3331519Y7530500D01*
X2068480Y7530500D01*
X1974695Y7515647D01*
X1974693Y7515646D01*
X1861657Y7458050D01*
X1771951Y7368344D01*
X1714353Y7255302D01*
X1699500Y7161520D01*
X941323Y7161520D01*
X937139Y7167782D01*
X797782Y7307139D01*
X747892Y7340475D01*
X633913Y7416633D01*
X451839Y7492050D01*
X451829Y7492053D01*
X321246Y7518027D01*
X258541Y7530500D01*
X61459Y7530500D01*
X6662Y7519601D01*
X-131830Y7492053D01*
X-131840Y7492050D01*
X-313914Y7416633D01*
X-477782Y7307140D01*
X-477783Y7307138D01*
X-617138Y7167783D01*
X-617140Y7167782D01*
X-726633Y7003914D01*
X-802050Y6821840D01*
X-802053Y6821830D01*
X-840500Y6628540D01*
X-9427500Y6628540D01*
X-9427500Y9168540D01*
X-840500Y9168540D01*
X-840500Y8971461D01*
X-802053Y8778171D01*
X-802050Y8778161D01*
X-726633Y8596087D01*
X-617140Y8432219D01*
X-477782Y8292861D01*
X-313914Y8183368D01*
X-184321Y8129689D01*
X-131835Y8107949D01*
X61459Y8069500D01*
X61461Y8069500D01*
X258539Y8069500D01*
X258541Y8069500D01*
X451835Y8107949D01*
X633914Y8183368D01*
X797782Y8292861D01*
X937139Y8432218D01*
X1046632Y8596086D01*
X1122051Y8778165D01*
X1160500Y8971459D01*
X1160500Y9168540D01*
X1699500Y9168540D01*
X1699500Y8971461D01*
X1737947Y8778171D01*
X1737950Y8778161D01*
X1813367Y8596087D01*
X1922860Y8432219D01*
X2062218Y8292861D01*
X2226086Y8183368D01*
X2355679Y8129689D01*
X2408165Y8107949D01*
X2601459Y8069500D01*
X2601461Y8069500D01*
X2798539Y8069500D01*
X2798541Y8069500D01*
X2991835Y8107949D01*
X3173914Y8183368D01*
X3337782Y8292861D01*
X3477139Y8432218D01*
X3586632Y8596086D01*
X3662051Y8778165D01*
X3700500Y8971459D01*
X3700500Y9168541D01*
X3662051Y9361835D01*
X3586632Y9543914D01*
X3477139Y9707782D01*
X3337782Y9847139D01*
X3249794Y9905931D01*
X3173913Y9956633D01*
X2991839Y10032050D01*
X2991829Y10032053D01*
X2862388Y10057800D01*
X2798541Y10070500D01*
X2601459Y10070500D01*
X2546662Y10059601D01*
X2408170Y10032053D01*
X2408160Y10032050D01*
X2226086Y9956633D01*
X2062218Y9847140D01*
X2062217Y9847138D01*
X1922862Y9707783D01*
X1922860Y9707782D01*
X1813367Y9543914D01*
X1737950Y9361840D01*
X1737947Y9361830D01*
X1699500Y9168540D01*
X1160500Y9168540D01*
X1160500Y9168541D01*
X1122051Y9361835D01*
X1046632Y9543914D01*
X937139Y9707782D01*
X797782Y9847139D01*
X709794Y9905931D01*
X633913Y9956633D01*
X451839Y10032050D01*
X451829Y10032053D01*
X322388Y10057800D01*
X258541Y10070500D01*
X61459Y10070500D01*
X6662Y10059601D01*
X-131830Y10032053D01*
X-131840Y10032050D01*
X-313914Y9956633D01*
X-477782Y9847140D01*
X-477783Y9847138D01*
X-617138Y9707783D01*
X-617140Y9707782D01*
X-726633Y9543914D01*
X-802050Y9361840D01*
X-802053Y9361830D01*
X-840500Y9168540D01*
X-9427500Y9168540D01*
X-9427500Y11708540D01*
X-840500Y11708540D01*
X-840500Y11511461D01*
X-802053Y11318171D01*
X-802050Y11318161D01*
X-726633Y11136087D01*
X-625346Y10984501D01*
X-617139Y10972218D01*
X-477782Y10832861D01*
X-313914Y10723368D01*
X-131835Y10647949D01*
X61459Y10609500D01*
X61461Y10609500D01*
X258539Y10609500D01*
X258541Y10609500D01*
X451835Y10647949D01*
X633914Y10723368D01*
X797782Y10832861D01*
X937139Y10972218D01*
X1046632Y11136086D01*
X1122051Y11318165D01*
X1160500Y11511459D01*
X1160500Y11708540D01*
X1699500Y11708540D01*
X1699500Y11511461D01*
X1737947Y11318171D01*
X1737950Y11318161D01*
X1813367Y11136087D01*
X1914654Y10984501D01*
X1922861Y10972218D01*
X2062218Y10832861D01*
X2226086Y10723368D01*
X2408165Y10647949D01*
X2601459Y10609500D01*
X2601461Y10609500D01*
X2798539Y10609500D01*
X2798541Y10609500D01*
X2925777Y10634809D01*
X33049500Y10634809D01*
X33049500Y10365191D01*
X33057524Y10293980D01*
X33079688Y10097266D01*
X33099717Y10009516D01*
X33136778Y9847139D01*
X33139683Y9834414D01*
X33139686Y9834402D01*
X33228732Y9579922D01*
X33345713Y9337008D01*
X33345715Y9337004D01*
X33345716Y9337003D01*
X33489162Y9108711D01*
X33657266Y8897915D01*
X33847915Y8707266D01*
X34058711Y8539162D01*
X34287003Y8395716D01*
X34529921Y8278733D01*
X34784409Y8189684D01*
X35047268Y8129688D01*
X35315191Y8099500D01*
X35315195Y8099500D01*
X35584805Y8099500D01*
X35584809Y8099500D01*
X35852732Y8129688D01*
X36115591Y8189684D01*
X36370079Y8278733D01*
X36612997Y8395716D01*
X36841289Y8539162D01*
X37052085Y8707266D01*
X37242734Y8897915D01*
X37410838Y9108711D01*
X37554284Y9337003D01*
X37671267Y9579921D01*
X37760316Y9834409D01*
X37820312Y10097268D01*
X37850500Y10365191D01*
X37850500Y10406021D01*
X39398500Y10406021D01*
X39398500Y10293980D01*
X39427495Y10185768D01*
X39427499Y10185759D01*
X39442521Y10159740D01*
X39483515Y10088737D01*
X39562737Y10009515D01*
X39659763Y9953497D01*
X39767979Y9924501D01*
X39767980Y9924500D01*
X39767982Y9924500D01*
X39880020Y9924500D01*
X39880020Y9924501D01*
X39988237Y9953497D01*
X40085263Y10009515D01*
X40164485Y10088737D01*
X40220503Y10185763D01*
X40249499Y10293980D01*
X40249500Y10293980D01*
X40249500Y10406020D01*
X40249499Y10406021D01*
X40220504Y10514233D01*
X40220503Y10514237D01*
X40164485Y10611263D01*
X40085263Y10690485D01*
X40028308Y10723368D01*
X39988241Y10746501D01*
X39988232Y10746505D01*
X39880020Y10775500D01*
X39880018Y10775500D01*
X39767982Y10775500D01*
X39767980Y10775500D01*
X39659767Y10746505D01*
X39659758Y10746501D01*
X39562736Y10690485D01*
X39483515Y10611264D01*
X39427499Y10514242D01*
X39427495Y10514233D01*
X39398500Y10406021D01*
X37850500Y10406021D01*
X37850500Y10634809D01*
X37820312Y10902732D01*
X37760316Y11165591D01*
X37681847Y11389844D01*
X37681847Y11389845D01*
X37674991Y11409438D01*
X50354500Y11409438D01*
X50354500Y11310563D01*
X50380088Y11215066D01*
X50380090Y11215061D01*
X50399948Y11180667D01*
X50429525Y11129438D01*
X50499438Y11059525D01*
X50585062Y11010090D01*
X50585063Y11010090D01*
X50585065Y11010089D01*
X50632813Y10997295D01*
X50680562Y10984501D01*
X50680563Y10984500D01*
X50680565Y10984500D01*
X50779437Y10984500D01*
X50779437Y10984501D01*
X50874938Y11010090D01*
X50960562Y11059525D01*
X51030475Y11129438D01*
X51079910Y11215062D01*
X51079910Y11215063D01*
X51081414Y11217667D01*
X51126347Y11252146D01*
X51182500Y11244753D01*
X51216979Y11199820D01*
X51219500Y11180667D01*
X51219500Y8980436D01*
X51239977Y8904014D01*
X51239979Y8904010D01*
X51243498Y8897916D01*
X51243497Y8897916D01*
X51243501Y8897911D01*
X51279539Y8835490D01*
X51770492Y8344537D01*
X51789644Y8311364D01*
X51810088Y8235066D01*
X51810090Y8235061D01*
X51859525Y8149438D01*
X51929438Y8079525D01*
X52015062Y8030090D01*
X52015063Y8030090D01*
X52015065Y8030089D01*
X52062813Y8017295D01*
X52110562Y8004501D01*
X52110563Y8004500D01*
X52110565Y8004500D01*
X52209437Y8004500D01*
X52209437Y8004501D01*
X52304938Y8030090D01*
X52390562Y8079525D01*
X52460475Y8149438D01*
X52509910Y8235062D01*
X52535499Y8330563D01*
X52535500Y8330563D01*
X52535500Y8429437D01*
X52535499Y8429438D01*
X52534754Y8432217D01*
X52509910Y8524938D01*
X52460475Y8610562D01*
X52390562Y8680475D01*
X52344152Y8707270D01*
X52304939Y8729910D01*
X52304934Y8729912D01*
X52228636Y8750356D01*
X52195463Y8769508D01*
X51842174Y9122797D01*
X51820500Y9175123D01*
X51820500Y9756091D01*
X51842174Y9808417D01*
X51894500Y9830091D01*
X51946826Y9808417D01*
X51961971Y9783145D01*
X51963108Y9783615D01*
X51964498Y9780258D01*
X51964499Y9780256D01*
X52013535Y9661873D01*
X52061207Y9590527D01*
X52068293Y9579921D01*
X52084724Y9555331D01*
X52175331Y9464724D01*
X52281873Y9393535D01*
X52400256Y9344499D01*
X52400258Y9344499D01*
X52400260Y9344498D01*
X52437915Y9337008D01*
X52525931Y9319500D01*
X52525933Y9319500D01*
X52654067Y9319500D01*
X52654069Y9319500D01*
X52779744Y9344499D01*
X52898127Y9393535D01*
X53004669Y9464724D01*
X53095276Y9555331D01*
X53166465Y9661873D01*
X53215501Y9780256D01*
X53240500Y9905931D01*
X53240500Y10034069D01*
X53215501Y10159744D01*
X53166465Y10278127D01*
X53095276Y10384669D01*
X53004669Y10475276D01*
X52898127Y10546465D01*
X52898124Y10546467D01*
X52898123Y10546467D01*
X52779742Y10595502D01*
X52779739Y10595503D01*
X52689696Y10613414D01*
X52654069Y10620500D01*
X52525931Y10620500D01*
X52494726Y10614293D01*
X52400260Y10595503D01*
X52400257Y10595502D01*
X52281876Y10546467D01*
X52175331Y10475277D01*
X52175330Y10475275D01*
X52084725Y10384670D01*
X52084723Y10384669D01*
X52013533Y10278124D01*
X51978976Y10194696D01*
X51975277Y10185763D01*
X51963108Y10156385D01*
X51961055Y10157236D01*
X51929373Y10118642D01*
X51873007Y10113100D01*
X51829232Y10149037D01*
X51820500Y10183910D01*
X51820500Y12921898D01*
X55757500Y12921898D01*
X55757500Y12778103D01*
X55785552Y12637073D01*
X55785555Y12637063D01*
X55840582Y12504216D01*
X55916731Y12390249D01*
X56117433Y12590952D01*
X56127401Y12573686D01*
X56211186Y12489901D01*
X56228448Y12479935D01*
X56027747Y12279234D01*
X56141715Y12203083D01*
X56274562Y12148056D01*
X56274572Y12148053D01*
X56415603Y12120000D01*
X56559397Y12120000D01*
X56700427Y12148053D01*
X56700437Y12148056D01*
X56833284Y12203083D01*
X56947251Y12279233D01*
X56947251Y12279234D01*
X56746550Y12479935D01*
X56763814Y12489901D01*
X56847599Y12573686D01*
X56857565Y12590950D01*
X57058266Y12390249D01*
X57058267Y12390249D01*
X57134417Y12504216D01*
X57189444Y12637063D01*
X57189447Y12637073D01*
X57217500Y12778103D01*
X57217500Y12921898D01*
X57189447Y13062928D01*
X57189444Y13062938D01*
X57134417Y13195785D01*
X57058266Y13309753D01*
X56857565Y13109052D01*
X56847599Y13126314D01*
X56763814Y13210099D01*
X56746548Y13220067D01*
X56947251Y13420769D01*
X56833284Y13496918D01*
X56700437Y13551945D01*
X56700427Y13551948D01*
X56559397Y13580000D01*
X56415603Y13580000D01*
X56274572Y13551948D01*
X56274562Y13551945D01*
X56141713Y13496917D01*
X56027747Y13420770D01*
X56027747Y13420769D01*
X56228449Y13220067D01*
X56211186Y13210099D01*
X56127401Y13126314D01*
X56117433Y13109051D01*
X55916731Y13309753D01*
X55916730Y13309753D01*
X55840583Y13195787D01*
X55785555Y13062938D01*
X55785552Y13062928D01*
X55757500Y12921898D01*
X51820500Y12921898D01*
X51820500Y13564877D01*
X51842174Y13617203D01*
X52925446Y14700475D01*
X54041460Y15816489D01*
X54068930Y15864069D01*
X54081021Y15885011D01*
X54101499Y15961436D01*
X54101500Y15961436D01*
X54101500Y17221898D01*
X55757500Y17221898D01*
X55757500Y17078103D01*
X55785552Y16937073D01*
X55785555Y16937063D01*
X55840582Y16804216D01*
X55916731Y16690249D01*
X56117433Y16890952D01*
X56127401Y16873686D01*
X56211186Y16789901D01*
X56228448Y16779935D01*
X56027747Y16579234D01*
X56141715Y16503083D01*
X56274562Y16448056D01*
X56274572Y16448053D01*
X56415603Y16420000D01*
X56559397Y16420000D01*
X56700427Y16448053D01*
X56700437Y16448056D01*
X56833284Y16503083D01*
X56947251Y16579233D01*
X56947251Y16579234D01*
X56746550Y16779935D01*
X56763814Y16789901D01*
X56847599Y16873686D01*
X56857565Y16890950D01*
X57058266Y16690249D01*
X57058267Y16690249D01*
X57134417Y16804216D01*
X57189444Y16937063D01*
X57189447Y16937073D01*
X57217500Y17078103D01*
X57217500Y17221898D01*
X57189447Y17362928D01*
X57189444Y17362938D01*
X57134417Y17495785D01*
X57058266Y17609753D01*
X56857565Y17409052D01*
X56847599Y17426314D01*
X56763814Y17510099D01*
X56746548Y17520067D01*
X56947251Y17720769D01*
X56833284Y17796918D01*
X56700437Y17851945D01*
X56700427Y17851948D01*
X56559397Y17880000D01*
X56415603Y17880000D01*
X56274572Y17851948D01*
X56274562Y17851945D01*
X56141713Y17796917D01*
X56027747Y17720770D01*
X56027747Y17720769D01*
X56228449Y17520067D01*
X56211186Y17510099D01*
X56127401Y17426314D01*
X56117433Y17409051D01*
X55916731Y17609753D01*
X55916730Y17609753D01*
X55840583Y17495787D01*
X55785555Y17362938D01*
X55785552Y17362928D01*
X55757500Y17221898D01*
X54101500Y17221898D01*
X54101500Y18238564D01*
X54101499Y18238565D01*
X54081022Y18314986D01*
X54081020Y18314991D01*
X54041459Y18383512D01*
X53334511Y19090460D01*
X53265990Y19130021D01*
X53265985Y19130023D01*
X53189564Y19150500D01*
X53189562Y19150500D01*
X52900347Y19150500D01*
X52863348Y19160414D01*
X52829675Y19179855D01*
X52800196Y19196875D01*
X52800193Y19196876D01*
X52794938Y19199910D01*
X52777593Y19204558D01*
X52777586Y19204560D01*
X52699437Y19225500D01*
X52699435Y19225500D01*
X52600565Y19225500D01*
X52600563Y19225500D01*
X52505065Y19199912D01*
X52505060Y19199910D01*
X52419437Y19150475D01*
X52351826Y19082863D01*
X52299500Y19061189D01*
X52247174Y19082863D01*
X52225500Y19135189D01*
X52225500Y19199437D01*
X52225499Y19199438D01*
X52223992Y19205061D01*
X52199910Y19294938D01*
X52196662Y19300563D01*
X52148050Y19384762D01*
X52149440Y19385565D01*
X52136283Y19434653D01*
X52148777Y19464818D01*
X52148050Y19465238D01*
X52150475Y19469438D01*
X52199910Y19555062D01*
X52225499Y19650563D01*
X52225500Y19650563D01*
X52225500Y19739438D01*
X52604500Y19739438D01*
X52604500Y19640563D01*
X52630088Y19545066D01*
X52630090Y19545061D01*
X52676176Y19465238D01*
X52679525Y19459438D01*
X52749438Y19389525D01*
X52782910Y19370200D01*
X52829799Y19343128D01*
X52829801Y19343128D01*
X52835062Y19340090D01*
X52930562Y19314501D01*
X52930563Y19314500D01*
X52930565Y19314500D01*
X53029437Y19314500D01*
X53029437Y19314501D01*
X53124938Y19340090D01*
X53210562Y19389525D01*
X53280475Y19459438D01*
X53329910Y19545062D01*
X53355499Y19640563D01*
X53355500Y19640563D01*
X53355500Y19739437D01*
X53355499Y19739438D01*
X53352820Y19749435D01*
X53340343Y19796000D01*
X53329911Y19834935D01*
X53329909Y19834940D01*
X53286847Y19909525D01*
X53280475Y19920562D01*
X53210562Y19990475D01*
X53209277Y19991217D01*
X53124939Y20039910D01*
X53124934Y20039912D01*
X53029437Y20065500D01*
X53029435Y20065500D01*
X52930565Y20065500D01*
X52930563Y20065500D01*
X52835065Y20039912D01*
X52835060Y20039910D01*
X52749437Y19990475D01*
X52679525Y19920563D01*
X52630090Y19834940D01*
X52630088Y19834935D01*
X52604500Y19739438D01*
X52225500Y19739438D01*
X52225500Y19749437D01*
X52225499Y19749438D01*
X52217293Y19780062D01*
X52202590Y19834935D01*
X52199911Y19844935D01*
X52199909Y19844940D01*
X52182229Y19875563D01*
X52150475Y19930562D01*
X52080562Y20000475D01*
X52012259Y20039910D01*
X51994939Y20049910D01*
X51994934Y20049912D01*
X51899437Y20075500D01*
X51899435Y20075500D01*
X51800565Y20075500D01*
X51800563Y20075500D01*
X51705065Y20049912D01*
X51705060Y20049910D01*
X51619437Y20000475D01*
X51549525Y19930563D01*
X51500090Y19844940D01*
X51500088Y19844935D01*
X51474500Y19749438D01*
X51474500Y19650563D01*
X51500088Y19555066D01*
X51500090Y19555061D01*
X51551950Y19465238D01*
X51550562Y19464437D01*
X51563714Y19415332D01*
X51551224Y19385182D01*
X51551950Y19384762D01*
X51500090Y19294940D01*
X51500088Y19294935D01*
X51474500Y19199438D01*
X51474500Y19100563D01*
X51500088Y19005066D01*
X51500090Y19005061D01*
X51551950Y18915238D01*
X51550562Y18914437D01*
X51563714Y18865332D01*
X51551224Y18835182D01*
X51551950Y18834762D01*
X51500090Y18744940D01*
X51500088Y18744935D01*
X51474500Y18649438D01*
X51474500Y18550563D01*
X51500088Y18455066D01*
X51500090Y18455061D01*
X51551950Y18365238D01*
X51550562Y18364437D01*
X51563714Y18315332D01*
X51551224Y18285182D01*
X51551950Y18284762D01*
X51500090Y18194940D01*
X51500088Y18194935D01*
X51474500Y18099438D01*
X51474500Y18000563D01*
X51500088Y17905066D01*
X51500090Y17905061D01*
X51530755Y17851948D01*
X51549525Y17819438D01*
X51619438Y17749525D01*
X51705062Y17700090D01*
X51705063Y17700090D01*
X51705065Y17700089D01*
X51740852Y17690500D01*
X51800562Y17674501D01*
X51800563Y17674500D01*
X51800565Y17674500D01*
X51899437Y17674500D01*
X51899437Y17674501D01*
X51994938Y17700090D01*
X52080562Y17749525D01*
X52150475Y17819438D01*
X52199910Y17905062D01*
X52225499Y18000563D01*
X52225500Y18000563D01*
X52225500Y18099437D01*
X52225499Y18099438D01*
X52199911Y18194935D01*
X52199909Y18194940D01*
X52148050Y18284762D01*
X52149440Y18285565D01*
X52136283Y18334653D01*
X52148777Y18364818D01*
X52148050Y18365238D01*
X52158600Y18383511D01*
X52199910Y18455062D01*
X52225499Y18550563D01*
X52225500Y18550563D01*
X52225500Y18564811D01*
X52247174Y18617137D01*
X52299500Y18638811D01*
X52351826Y18617137D01*
X52419438Y18549525D01*
X52505062Y18500090D01*
X52505063Y18500090D01*
X52505065Y18500089D01*
X52552813Y18487295D01*
X52600562Y18474501D01*
X52600563Y18474500D01*
X52600565Y18474500D01*
X52699437Y18474500D01*
X52699437Y18474501D01*
X52794938Y18500090D01*
X52863347Y18539587D01*
X52900347Y18549500D01*
X52994877Y18549500D01*
X53047203Y18527826D01*
X53478826Y18096203D01*
X53500500Y18043877D01*
X53500500Y16156123D01*
X53478826Y16103797D01*
X51279540Y13904512D01*
X51239979Y13835991D01*
X51239977Y13835986D01*
X51219500Y13759565D01*
X51219500Y11539334D01*
X51197826Y11487008D01*
X51145500Y11465334D01*
X51093174Y11487008D01*
X51081414Y11502334D01*
X51030474Y11590563D01*
X50960562Y11660475D01*
X50874939Y11709910D01*
X50874934Y11709912D01*
X50779437Y11735500D01*
X50779435Y11735500D01*
X50680565Y11735500D01*
X50680563Y11735500D01*
X50585065Y11709912D01*
X50585060Y11709910D01*
X50499437Y11660475D01*
X50429525Y11590563D01*
X50380090Y11504940D01*
X50380088Y11504935D01*
X50354500Y11409438D01*
X37674991Y11409438D01*
X37671268Y11420077D01*
X37554286Y11662993D01*
X37554285Y11662994D01*
X37554284Y11662997D01*
X37410838Y11891289D01*
X37242734Y12102085D01*
X37052085Y12292734D01*
X37043678Y12299438D01*
X42984500Y12299438D01*
X42984500Y12200563D01*
X43010088Y12105066D01*
X43010090Y12105061D01*
X43059525Y12019438D01*
X43129438Y11949525D01*
X43181550Y11919438D01*
X43212039Y11901835D01*
X43215062Y11900090D01*
X43215063Y11900090D01*
X43215065Y11900089D01*
X43262813Y11887295D01*
X43310562Y11874501D01*
X43310563Y11874500D01*
X43310565Y11874500D01*
X43409437Y11874500D01*
X43409437Y11874501D01*
X43504938Y11900090D01*
X43590562Y11949525D01*
X43660475Y12019438D01*
X43709910Y12105062D01*
X43735499Y12200563D01*
X43735500Y12200563D01*
X43735500Y12299437D01*
X43735499Y12299438D01*
X43709911Y12394935D01*
X43709909Y12394940D01*
X43687502Y12433750D01*
X43660475Y12480562D01*
X43590562Y12550475D01*
X43553193Y12572050D01*
X43504939Y12599910D01*
X43504934Y12599912D01*
X43409437Y12625500D01*
X43409435Y12625500D01*
X43310565Y12625500D01*
X43310563Y12625500D01*
X43215065Y12599912D01*
X43215060Y12599910D01*
X43129437Y12550475D01*
X43059525Y12480563D01*
X43010090Y12394940D01*
X43010088Y12394935D01*
X42984500Y12299438D01*
X37043678Y12299438D01*
X36841289Y12460838D01*
X36612997Y12604284D01*
X36612996Y12604285D01*
X36612992Y12604287D01*
X36370078Y12721268D01*
X36115598Y12810314D01*
X36115593Y12810316D01*
X36115591Y12810316D01*
X35852732Y12870312D01*
X35852735Y12870312D01*
X35737907Y12883250D01*
X35584809Y12900500D01*
X35315191Y12900500D01*
X35162092Y12883250D01*
X35047265Y12870312D01*
X34784413Y12810317D01*
X34784401Y12810314D01*
X34529921Y12721268D01*
X34287007Y12604287D01*
X34058710Y12460838D01*
X33847911Y12292731D01*
X33657269Y12102089D01*
X33489162Y11891290D01*
X33345713Y11662993D01*
X33228732Y11420079D01*
X33139686Y11165599D01*
X33139683Y11165587D01*
X33079688Y10902735D01*
X33079688Y10902732D01*
X33049500Y10634809D01*
X2925777Y10634809D01*
X2991835Y10647949D01*
X3173914Y10723368D01*
X3337782Y10832861D01*
X3477139Y10972218D01*
X3586632Y11136086D01*
X3662051Y11318165D01*
X3700500Y11511459D01*
X3700500Y11708541D01*
X3662051Y11901835D01*
X3586632Y12083914D01*
X3477139Y12247782D01*
X3337782Y12387139D01*
X3326115Y12394935D01*
X3173913Y12496633D01*
X2991839Y12572050D01*
X2991829Y12572053D01*
X2851770Y12599912D01*
X2798541Y12610500D01*
X2601459Y12610500D01*
X2548230Y12599912D01*
X2408170Y12572053D01*
X2408160Y12572050D01*
X2226086Y12496633D01*
X2062218Y12387140D01*
X2062217Y12387138D01*
X1922862Y12247783D01*
X1922860Y12247782D01*
X1813367Y12083914D01*
X1737950Y11901840D01*
X1737947Y11901830D01*
X1717710Y11800090D01*
X1699773Y11709910D01*
X1699500Y11708540D01*
X1160500Y11708540D01*
X1160500Y11708541D01*
X1122051Y11901835D01*
X1046632Y12083914D01*
X937139Y12247782D01*
X797782Y12387139D01*
X786115Y12394935D01*
X633913Y12496633D01*
X451839Y12572050D01*
X451829Y12572053D01*
X311770Y12599912D01*
X258541Y12610500D01*
X61459Y12610500D01*
X8230Y12599912D01*
X-131830Y12572053D01*
X-131840Y12572050D01*
X-313914Y12496633D01*
X-477782Y12387140D01*
X-477783Y12387138D01*
X-617138Y12247783D01*
X-617140Y12247782D01*
X-726633Y12083914D01*
X-802050Y11901840D01*
X-802053Y11901830D01*
X-822290Y11800090D01*
X-840227Y11709910D01*
X-840500Y11708540D01*
X-9427500Y11708540D01*
X-9427500Y14248541D01*
X-840500Y14248541D01*
X-840500Y14051459D01*
X-829257Y13994938D01*
X-802053Y13858171D01*
X-802050Y13858161D01*
X-726633Y13676087D01*
X-629951Y13531393D01*
X-617139Y13512218D01*
X-477782Y13372861D01*
X-313914Y13263368D01*
X-131835Y13187949D01*
X61459Y13149500D01*
X61461Y13149500D01*
X258539Y13149500D01*
X258541Y13149500D01*
X451835Y13187949D01*
X633914Y13263368D01*
X797782Y13372861D01*
X937139Y13512218D01*
X1046632Y13676086D01*
X1122051Y13858165D01*
X1160500Y14051459D01*
X1160500Y14248541D01*
X1699500Y14248541D01*
X1699500Y14051459D01*
X1710743Y13994938D01*
X1737947Y13858171D01*
X1737950Y13858161D01*
X1813367Y13676087D01*
X1910049Y13531393D01*
X1922861Y13512218D01*
X2062218Y13372861D01*
X2226086Y13263368D01*
X2408165Y13187949D01*
X2601459Y13149500D01*
X2601461Y13149500D01*
X2798539Y13149500D01*
X2798541Y13149500D01*
X2991835Y13187949D01*
X3173914Y13263368D01*
X3302727Y13349438D01*
X46714500Y13349438D01*
X46714500Y13250563D01*
X46740088Y13155066D01*
X46740090Y13155061D01*
X46789525Y13069438D01*
X46797887Y13061076D01*
X46819561Y13008750D01*
X46797887Y12956424D01*
X46789525Y12948063D01*
X46740090Y12862440D01*
X46740088Y12862435D01*
X46714500Y12766938D01*
X46714500Y12668063D01*
X46740088Y12572566D01*
X46740090Y12572561D01*
X46789525Y12486938D01*
X46790387Y12486076D01*
X46790622Y12485508D01*
X46792478Y12483089D01*
X46791830Y12482592D01*
X46812061Y12433750D01*
X46791830Y12384909D01*
X46792478Y12384411D01*
X46790622Y12381993D01*
X46790387Y12381424D01*
X46789525Y12380563D01*
X46740090Y12294940D01*
X46740088Y12294935D01*
X46714500Y12199438D01*
X46714500Y12100563D01*
X46740088Y12005066D01*
X46740090Y12005061D01*
X46772154Y11949525D01*
X46789525Y11919438D01*
X46859438Y11849525D01*
X46945062Y11800090D01*
X46945063Y11800090D01*
X46945065Y11800089D01*
X46992813Y11787295D01*
X47040562Y11774501D01*
X47040563Y11774500D01*
X47040565Y11774500D01*
X47139437Y11774500D01*
X47139437Y11774501D01*
X47234938Y11800090D01*
X47320562Y11849525D01*
X47390475Y11919438D01*
X47439910Y12005062D01*
X47465499Y12100563D01*
X47465500Y12100563D01*
X47465500Y12199437D01*
X47465499Y12199438D01*
X47464522Y12203083D01*
X47444118Y12279234D01*
X47439911Y12294935D01*
X47439909Y12294940D01*
X47390474Y12380563D01*
X47389613Y12381424D01*
X47389377Y12381993D01*
X47387522Y12384411D01*
X47388169Y12384909D01*
X47367939Y12433750D01*
X47388169Y12482592D01*
X47387522Y12483089D01*
X47389377Y12485508D01*
X47389613Y12486076D01*
X47390475Y12486938D01*
X47439910Y12572562D01*
X47465499Y12668063D01*
X47465500Y12668063D01*
X47465500Y12766937D01*
X47465499Y12766938D01*
X47462507Y12778103D01*
X47443243Y12850000D01*
X47439911Y12862435D01*
X47439909Y12862440D01*
X47390474Y12948063D01*
X47382113Y12956424D01*
X47360439Y13008750D01*
X47382113Y13061076D01*
X47383975Y13062938D01*
X47390475Y13069438D01*
X47439910Y13155062D01*
X47465499Y13250563D01*
X47465500Y13250563D01*
X47465500Y13349437D01*
X47465499Y13349438D01*
X47439911Y13444935D01*
X47439909Y13444940D01*
X47389995Y13531393D01*
X47382602Y13587545D01*
X47398405Y13614911D01*
X47397522Y13615589D01*
X47400473Y13619436D01*
X47400475Y13619438D01*
X47449910Y13705062D01*
X47475499Y13800563D01*
X47475500Y13800563D01*
X47475500Y13899437D01*
X47475499Y13899438D01*
X47474139Y13904512D01*
X47449910Y13994938D01*
X47400475Y14080562D01*
X47400474Y14080563D01*
X47399995Y14081393D01*
X47392602Y14137545D01*
X47408405Y14164911D01*
X47407522Y14165589D01*
X47410473Y14169436D01*
X47410475Y14169438D01*
X47459910Y14255062D01*
X47485499Y14350563D01*
X47485500Y14350563D01*
X47485500Y14449437D01*
X47485499Y14449438D01*
X47459911Y14544935D01*
X47459909Y14544940D01*
X47410474Y14630563D01*
X47340562Y14700475D01*
X47254939Y14749910D01*
X47254934Y14749912D01*
X47159437Y14775500D01*
X47159435Y14775500D01*
X47060565Y14775500D01*
X47060563Y14775500D01*
X46965065Y14749912D01*
X46965060Y14749910D01*
X46879437Y14700475D01*
X46809525Y14630563D01*
X46760090Y14544940D01*
X46760088Y14544935D01*
X46734500Y14449438D01*
X46734500Y14350563D01*
X46760088Y14255066D01*
X46760090Y14255061D01*
X46810004Y14168608D01*
X46817396Y14112455D01*
X46801598Y14085086D01*
X46802478Y14084411D01*
X46799526Y14080565D01*
X46750090Y13994940D01*
X46750088Y13994935D01*
X46724500Y13899438D01*
X46724500Y13800563D01*
X46750088Y13705066D01*
X46750090Y13705061D01*
X46800004Y13618608D01*
X46807396Y13562455D01*
X46791598Y13535086D01*
X46792478Y13534411D01*
X46789526Y13530565D01*
X46740090Y13444940D01*
X46740088Y13444935D01*
X46714500Y13349438D01*
X3302727Y13349438D01*
X3337782Y13372861D01*
X3477139Y13512218D01*
X3586632Y13676086D01*
X3662051Y13858165D01*
X3700500Y14051459D01*
X3700500Y14248541D01*
X3662051Y14441835D01*
X3586632Y14623914D01*
X3477139Y14787782D01*
X3337782Y14927139D01*
X3173914Y15036632D01*
X3173915Y15036632D01*
X3173913Y15036633D01*
X2991839Y15112050D01*
X2991829Y15112053D01*
X2862388Y15137800D01*
X2798541Y15150500D01*
X2601459Y15150500D01*
X2546662Y15139601D01*
X2408170Y15112053D01*
X2408160Y15112050D01*
X2226086Y15036633D01*
X2062218Y14927140D01*
X2062217Y14927138D01*
X1922862Y14787783D01*
X1922860Y14787782D01*
X1813367Y14623914D01*
X1737950Y14441840D01*
X1737947Y14441830D01*
X1705850Y14280465D01*
X1699500Y14248541D01*
X1160500Y14248541D01*
X1122051Y14441835D01*
X1046632Y14623914D01*
X937139Y14787782D01*
X797782Y14927139D01*
X633914Y15036632D01*
X633915Y15036632D01*
X633913Y15036633D01*
X451839Y15112050D01*
X451829Y15112053D01*
X322388Y15137800D01*
X258541Y15150500D01*
X61459Y15150500D01*
X6662Y15139601D01*
X-131830Y15112053D01*
X-131840Y15112050D01*
X-313914Y15036633D01*
X-477782Y14927140D01*
X-477783Y14927138D01*
X-617138Y14787783D01*
X-617140Y14787782D01*
X-726633Y14623914D01*
X-802050Y14441840D01*
X-802053Y14441830D01*
X-834150Y14280465D01*
X-840500Y14248541D01*
X-9427500Y14248541D01*
X-9427500Y16788540D01*
X-840500Y16788540D01*
X-840500Y16591461D01*
X-802053Y16398171D01*
X-802050Y16398161D01*
X-726633Y16216087D01*
X-726632Y16216086D01*
X-617139Y16052218D01*
X-477782Y15912861D01*
X-313914Y15803368D01*
X-131835Y15727949D01*
X61459Y15689500D01*
X61461Y15689500D01*
X258539Y15689500D01*
X258541Y15689500D01*
X451835Y15727949D01*
X633914Y15803368D01*
X797782Y15912861D01*
X937139Y16052218D01*
X1046632Y16216086D01*
X1122051Y16398165D01*
X1160500Y16591459D01*
X1160500Y16788540D01*
X1699500Y16788540D01*
X1699500Y16591461D01*
X1737947Y16398171D01*
X1737950Y16398161D01*
X1813367Y16216087D01*
X1813368Y16216086D01*
X1922861Y16052218D01*
X2062218Y15912861D01*
X2226086Y15803368D01*
X2408165Y15727949D01*
X2601459Y15689500D01*
X2601461Y15689500D01*
X2798539Y15689500D01*
X2798541Y15689500D01*
X2991835Y15727949D01*
X3173914Y15803368D01*
X3337782Y15912861D01*
X3477139Y16052218D01*
X3586632Y16216086D01*
X3662051Y16398165D01*
X3700500Y16591459D01*
X3700500Y16788541D01*
X3662051Y16981835D01*
X3586632Y17163914D01*
X3477139Y17327782D01*
X3337782Y17467139D01*
X3294911Y17495785D01*
X3173913Y17576633D01*
X2991839Y17652050D01*
X2991829Y17652053D01*
X2862388Y17677800D01*
X2798541Y17690500D01*
X2601459Y17690500D01*
X2546662Y17679601D01*
X2408170Y17652053D01*
X2408160Y17652050D01*
X2226086Y17576633D01*
X2062218Y17467140D01*
X2062217Y17467138D01*
X1922862Y17327783D01*
X1922860Y17327782D01*
X1813367Y17163914D01*
X1737950Y16981840D01*
X1737947Y16981830D01*
X1699500Y16788540D01*
X1160500Y16788540D01*
X1160500Y16788541D01*
X1122051Y16981835D01*
X1046632Y17163914D01*
X937139Y17327782D01*
X797782Y17467139D01*
X754911Y17495785D01*
X633913Y17576633D01*
X451839Y17652050D01*
X451829Y17652053D01*
X322388Y17677800D01*
X258541Y17690500D01*
X61459Y17690500D01*
X6662Y17679601D01*
X-131830Y17652053D01*
X-131840Y17652050D01*
X-313914Y17576633D01*
X-477782Y17467140D01*
X-477783Y17467138D01*
X-617138Y17327783D01*
X-617140Y17327782D01*
X-726633Y17163914D01*
X-802050Y16981840D01*
X-802053Y16981830D01*
X-840500Y16788540D01*
X-9427500Y16788540D01*
X-9427500Y19326521D01*
X-820000Y19326521D01*
X-820000Y19133480D01*
X-782341Y18944150D01*
X-782338Y18944140D01*
X-708466Y18765797D01*
X-601217Y18605287D01*
X-588473Y18592543D01*
X-246660Y18934357D01*
X-240099Y18922993D01*
X-147007Y18829901D01*
X-135644Y18823341D01*
X-477457Y18481527D01*
X-464714Y18468784D01*
X-304204Y18361535D01*
X-125861Y18287663D01*
X-125851Y18287660D01*
X63480Y18250000D01*
X256520Y18250000D01*
X445850Y18287660D01*
X445860Y18287663D01*
X624203Y18361535D01*
X784713Y18468784D01*
X784715Y18468785D01*
X797457Y18481527D01*
X455643Y18823341D01*
X467007Y18829901D01*
X560099Y18922993D01*
X566659Y18934357D01*
X908473Y18592543D01*
X921215Y18605285D01*
X921216Y18605287D01*
X1028465Y18765797D01*
X1102337Y18944140D01*
X1102340Y18944150D01*
X1140000Y19133480D01*
X1140000Y19326521D01*
X1720000Y19326521D01*
X1720000Y19133480D01*
X1757659Y18944150D01*
X1757662Y18944140D01*
X1831534Y18765797D01*
X1938783Y18605287D01*
X1951527Y18592543D01*
X2293340Y18934357D01*
X2299901Y18922993D01*
X2392993Y18829901D01*
X2404356Y18823341D01*
X2062543Y18481527D01*
X2075286Y18468784D01*
X2235796Y18361535D01*
X2414139Y18287663D01*
X2414149Y18287660D01*
X2603480Y18250000D01*
X2796520Y18250000D01*
X2985850Y18287660D01*
X2985860Y18287663D01*
X3164203Y18361535D01*
X3324713Y18468784D01*
X3324715Y18468785D01*
X3337457Y18481527D01*
X2995643Y18823341D01*
X3007007Y18829901D01*
X3100099Y18922993D01*
X3106659Y18934357D01*
X3448473Y18592543D01*
X3461215Y18605285D01*
X3461216Y18605287D01*
X3568465Y18765797D01*
X3642337Y18944140D01*
X3642340Y18944150D01*
X3680000Y19133480D01*
X3680000Y19326521D01*
X3642340Y19515851D01*
X3642337Y19515861D01*
X3568465Y19694204D01*
X3461216Y19854714D01*
X3448473Y19867457D01*
X3106659Y19525644D01*
X3100099Y19537007D01*
X3007007Y19630099D01*
X2995643Y19636660D01*
X3337457Y19978473D01*
X3324713Y19991217D01*
X3164203Y20098466D01*
X2985860Y20172338D01*
X2985850Y20172341D01*
X2796520Y20210000D01*
X2603480Y20210000D01*
X2414149Y20172341D01*
X2414139Y20172338D01*
X2235796Y20098466D01*
X2075286Y19991217D01*
X2075285Y19991215D01*
X2062543Y19978473D01*
X2404356Y19636660D01*
X2392993Y19630099D01*
X2299901Y19537007D01*
X2293340Y19525644D01*
X1951527Y19867457D01*
X1938785Y19854715D01*
X1938783Y19854714D01*
X1831534Y19694204D01*
X1757662Y19515861D01*
X1757659Y19515851D01*
X1720000Y19326521D01*
X1140000Y19326521D01*
X1102340Y19515851D01*
X1102337Y19515861D01*
X1028465Y19694204D01*
X921216Y19854714D01*
X908473Y19867457D01*
X566659Y19525644D01*
X560099Y19537007D01*
X467007Y19630099D01*
X455643Y19636660D01*
X797457Y19978473D01*
X784713Y19991217D01*
X624203Y20098466D01*
X445860Y20172338D01*
X445850Y20172341D01*
X256520Y20210000D01*
X63480Y20210000D01*
X-125851Y20172341D01*
X-125861Y20172338D01*
X-304204Y20098466D01*
X-464714Y19991217D01*
X-464715Y19991215D01*
X-477457Y19978473D01*
X-135644Y19636660D01*
X-147007Y19630099D01*
X-240099Y19537007D01*
X-246660Y19525644D01*
X-588473Y19867457D01*
X-601215Y19854715D01*
X-601217Y19854714D01*
X-708466Y19694204D01*
X-782338Y19515861D01*
X-782341Y19515851D01*
X-820000Y19326521D01*
X-9427500Y19326521D01*
X-9427500Y27499438D01*
X1624500Y27499438D01*
X1624500Y27400563D01*
X1650088Y27305066D01*
X1650090Y27305061D01*
X1699525Y27219438D01*
X1769438Y27149525D01*
X1855062Y27100090D01*
X1855063Y27100090D01*
X1855065Y27100089D01*
X1902813Y27087295D01*
X1950562Y27074501D01*
X1950563Y27074500D01*
X1950565Y27074500D01*
X2049437Y27074500D01*
X2049437Y27074501D01*
X2144938Y27100090D01*
X2230562Y27149525D01*
X2300475Y27219438D01*
X2349910Y27305062D01*
X2375499Y27400563D01*
X2375500Y27400563D01*
X2375500Y27499437D01*
X2375499Y27499438D01*
X2349911Y27594935D01*
X2349909Y27594940D01*
X2300474Y27680563D01*
X2230562Y27750475D01*
X2144939Y27799910D01*
X2144934Y27799912D01*
X2049437Y27825500D01*
X2049435Y27825500D01*
X1950565Y27825500D01*
X1950563Y27825500D01*
X1855065Y27799912D01*
X1855060Y27799910D01*
X1769437Y27750475D01*
X1699525Y27680563D01*
X1650090Y27594940D01*
X1650088Y27594935D01*
X1624500Y27499438D01*
X-9427500Y27499438D01*
X-9427500Y31956974D01*
X-6870000Y31956974D01*
X-6870000Y31823027D01*
X-6843870Y31691658D01*
X-6843868Y31691651D01*
X-6792608Y31567899D01*
X-6724721Y31466299D01*
X-6486854Y31704166D01*
X-6470070Y31675095D01*
X-6404905Y31609930D01*
X-6375838Y31593148D01*
X-6613704Y31355282D01*
X-6613704Y31355281D01*
X-6512101Y31287392D01*
X-6388350Y31236133D01*
X-6388343Y31236131D01*
X-6256973Y31210000D01*
X-6123027Y31210000D01*
X-5991658Y31236131D01*
X-5991651Y31236133D01*
X-5867900Y31287392D01*
X-5766298Y31355281D01*
X-5766298Y31355282D01*
X-6004164Y31593148D01*
X-5975095Y31609930D01*
X-5909930Y31675095D01*
X-5893148Y31704164D01*
X-5655282Y31466298D01*
X-5655281Y31466298D01*
X-5587392Y31567900D01*
X-5536133Y31691651D01*
X-5536131Y31691658D01*
X-5510000Y31823027D01*
X-5510000Y31956974D01*
X-2070000Y31956974D01*
X-2070000Y31823027D01*
X-2043870Y31691658D01*
X-2043868Y31691651D01*
X-1992608Y31567899D01*
X-1924721Y31466299D01*
X-1686854Y31704166D01*
X-1670070Y31675095D01*
X-1604905Y31609930D01*
X-1575838Y31593148D01*
X-1813704Y31355282D01*
X-1813704Y31355281D01*
X-1712101Y31287392D01*
X-1588350Y31236133D01*
X-1588343Y31236131D01*
X-1456973Y31210000D01*
X-1323027Y31210000D01*
X-1191658Y31236131D01*
X-1191651Y31236133D01*
X-1067900Y31287392D01*
X-966298Y31355281D01*
X-966298Y31355282D01*
X-1204164Y31593148D01*
X-1175095Y31609930D01*
X-1109930Y31675095D01*
X-1093148Y31704164D01*
X-855282Y31466298D01*
X-855281Y31466298D01*
X-787392Y31567900D01*
X-736133Y31691651D01*
X-736131Y31691658D01*
X-710000Y31823027D01*
X-710000Y31956974D01*
X-736131Y32088343D01*
X-736133Y32088350D01*
X-787392Y32212101D01*
X-855282Y32313704D01*
X-1093148Y32075838D01*
X-1109930Y32104905D01*
X-1175095Y32170070D01*
X-1204165Y32186854D01*
X-966298Y32424721D01*
X-1067899Y32492608D01*
X-1191651Y32543868D01*
X-1191658Y32543870D01*
X-1323027Y32570000D01*
X-1456973Y32570000D01*
X-1588343Y32543870D01*
X-1588350Y32543868D01*
X-1712102Y32492608D01*
X-1813704Y32424721D01*
X-1575837Y32186853D01*
X-1604905Y32170070D01*
X-1670070Y32104905D01*
X-1686853Y32075837D01*
X-1924721Y32313704D01*
X-1992608Y32212102D01*
X-2043868Y32088350D01*
X-2043870Y32088343D01*
X-2070000Y31956974D01*
X-5510000Y31956974D01*
X-5536131Y32088343D01*
X-5536133Y32088350D01*
X-5587392Y32212101D01*
X-5655282Y32313704D01*
X-5893148Y32075838D01*
X-5909930Y32104905D01*
X-5975095Y32170070D01*
X-6004165Y32186854D01*
X-5766298Y32424721D01*
X-5867899Y32492608D01*
X-5991651Y32543868D01*
X-5991658Y32543870D01*
X-6123027Y32570000D01*
X-6256973Y32570000D01*
X-6388343Y32543870D01*
X-6388350Y32543868D01*
X-6512102Y32492608D01*
X-6613704Y32424721D01*
X-6375837Y32186853D01*
X-6404905Y32170070D01*
X-6470070Y32104905D01*
X-6486853Y32075837D01*
X-6724721Y32313704D01*
X-6792608Y32212102D01*
X-6843868Y32088350D01*
X-6843870Y32088343D01*
X-6870000Y31956974D01*
X-9427500Y31956974D01*
X-9427500Y34109842D01*
X-8070500Y34109842D01*
X-8070500Y33970158D01*
X-8034348Y33835235D01*
X-8034347Y33835233D01*
X-8034346Y33835231D01*
X-7993872Y33765128D01*
X-7964506Y33714265D01*
X-7865735Y33615494D01*
X-7744765Y33545652D01*
X-7609842Y33509500D01*
X-7609840Y33509500D01*
X-7470160Y33509500D01*
X-7470158Y33509500D01*
X-7335235Y33545652D01*
X-7214265Y33615494D01*
X-7115494Y33714265D01*
X-7045652Y33835235D01*
X-7009500Y33970158D01*
X-7009500Y34104576D01*
X-740500Y34104576D01*
X-740500Y33975424D01*
X-721773Y33905534D01*
X-707074Y33850674D01*
X-707072Y33850670D01*
X-642501Y33738830D01*
X-642500Y33738829D01*
X-642498Y33738826D01*
X-551174Y33647502D01*
X-551172Y33647501D01*
X-551171Y33647500D01*
X-521835Y33630563D01*
X-439326Y33582926D01*
X-314576Y33549500D01*
X-314575Y33549500D01*
X234575Y33549500D01*
X234576Y33549500D01*
X359326Y33582926D01*
X471174Y33647502D01*
X562498Y33738826D01*
X627074Y33850674D01*
X660500Y33975424D01*
X660500Y34104576D01*
X627074Y34229326D01*
X579631Y34311499D01*
X562500Y34341171D01*
X562499Y34341172D01*
X562498Y34341174D01*
X471174Y34432498D01*
X471171Y34432500D01*
X471170Y34432501D01*
X434594Y34453618D01*
X359330Y34497072D01*
X359326Y34497074D01*
X295902Y34514068D01*
X295898Y34514069D01*
X13149500Y34514069D01*
X13149500Y33015363D01*
X13168357Y32920565D01*
X13168569Y32919500D01*
X13168569Y32919499D01*
X13174497Y32889695D01*
X13174499Y32889688D01*
X13223535Y32771305D01*
X13294722Y32664764D01*
X13837254Y32122232D01*
X13858928Y32069906D01*
X13858928Y25526503D01*
X13874240Y25449526D01*
X13879440Y25423386D01*
X13879440Y25423385D01*
X13883925Y25400835D01*
X13883927Y25400828D01*
X13932963Y25282445D01*
X14004151Y25175903D01*
X15135331Y24044723D01*
X15236560Y23977085D01*
X15241873Y23973535D01*
X15360256Y23924499D01*
X15360258Y23924499D01*
X15360260Y23924498D01*
X15402903Y23916016D01*
X15485931Y23899500D01*
X16799902Y23899500D01*
X16852228Y23877826D01*
X25441331Y15288723D01*
X25538893Y15223535D01*
X25547873Y15217535D01*
X25666256Y15168499D01*
X25666258Y15168499D01*
X25666260Y15168498D01*
X25708903Y15160016D01*
X25791931Y15143500D01*
X25791933Y15143500D01*
X27608068Y15143500D01*
X27608069Y15143500D01*
X27631083Y15148079D01*
X27645520Y15149500D01*
X40164067Y15149500D01*
X40164069Y15149500D01*
X40289744Y15174499D01*
X40408127Y15223535D01*
X40514669Y15294723D01*
X42169384Y16949438D01*
X49724500Y16949438D01*
X49724500Y16850563D01*
X49750088Y16755066D01*
X49750090Y16755061D01*
X49781887Y16699988D01*
X49799525Y16669438D01*
X49869438Y16599525D01*
X49955062Y16550090D01*
X49955063Y16550090D01*
X49955065Y16550089D01*
X50002813Y16537295D01*
X50050562Y16524501D01*
X50050563Y16524500D01*
X50050565Y16524500D01*
X50149437Y16524500D01*
X50149437Y16524501D01*
X50244938Y16550090D01*
X50330562Y16599525D01*
X50400475Y16669438D01*
X50449910Y16755062D01*
X50475499Y16850563D01*
X50475500Y16850563D01*
X50475500Y16949437D01*
X50475499Y16949438D01*
X50449911Y17044935D01*
X50449909Y17044940D01*
X50430762Y17078103D01*
X50400475Y17130562D01*
X50330562Y17200475D01*
X50315372Y17209245D01*
X50244939Y17249910D01*
X50244934Y17249912D01*
X50149437Y17275500D01*
X50149435Y17275500D01*
X50050565Y17275500D01*
X50050563Y17275500D01*
X49955065Y17249912D01*
X49955060Y17249910D01*
X49869437Y17200475D01*
X49799525Y17130563D01*
X49750090Y17044940D01*
X49750088Y17044935D01*
X49724500Y16949438D01*
X42169384Y16949438D01*
X42947772Y17727826D01*
X43000098Y17749500D01*
X47364067Y17749500D01*
X47364069Y17749500D01*
X47489744Y17774499D01*
X47608127Y17823535D01*
X47714669Y17894724D01*
X47805276Y17985331D01*
X47876465Y18091873D01*
X47879599Y18099438D01*
X48424500Y18099438D01*
X48424500Y18000563D01*
X48450088Y17905066D01*
X48450090Y17905061D01*
X48480755Y17851948D01*
X48499525Y17819438D01*
X48569438Y17749525D01*
X48655062Y17700090D01*
X48655063Y17700090D01*
X48655065Y17700089D01*
X48690852Y17690500D01*
X48750562Y17674501D01*
X48750563Y17674500D01*
X48750565Y17674500D01*
X48849437Y17674500D01*
X48849437Y17674501D01*
X48944938Y17700090D01*
X49030562Y17749525D01*
X49100475Y17819438D01*
X49149910Y17905062D01*
X49175499Y18000563D01*
X49175500Y18000563D01*
X49175500Y18099437D01*
X49175499Y18099438D01*
X49149911Y18194935D01*
X49149909Y18194940D01*
X49124724Y18238562D01*
X49100475Y18280562D01*
X49030562Y18350475D01*
X48997717Y18369438D01*
X48944939Y18399910D01*
X48944934Y18399912D01*
X48849437Y18425500D01*
X48849435Y18425500D01*
X48750565Y18425500D01*
X48750563Y18425500D01*
X48655065Y18399912D01*
X48655060Y18399910D01*
X48569437Y18350475D01*
X48499525Y18280563D01*
X48450090Y18194940D01*
X48450088Y18194935D01*
X48424500Y18099438D01*
X47879599Y18099438D01*
X47925501Y18210256D01*
X47950500Y18335931D01*
X47950500Y18464069D01*
X47925501Y18589744D01*
X47876465Y18708127D01*
X47805276Y18814669D01*
X47714669Y18905276D01*
X47608127Y18976465D01*
X47608124Y18976467D01*
X47608123Y18976467D01*
X47489742Y19025502D01*
X47489739Y19025503D01*
X47394232Y19044500D01*
X47364069Y19050500D01*
X47075931Y19050500D01*
X47045768Y19044500D01*
X46950261Y19025503D01*
X46950252Y19025500D01*
X46948307Y19024694D01*
X46947598Y19024694D01*
X46946784Y19024447D01*
X46946709Y19024694D01*
X46893291Y19024694D01*
X46893216Y19024447D01*
X46892402Y19024694D01*
X46891693Y19024694D01*
X46889747Y19025500D01*
X46889738Y19025503D01*
X46794232Y19044500D01*
X46764069Y19050500D01*
X42635931Y19050500D01*
X42605768Y19044500D01*
X42510260Y19025503D01*
X42510257Y19025502D01*
X42391872Y18976465D01*
X42285330Y18905277D01*
X42285329Y18905275D01*
X39852228Y16472174D01*
X39799902Y16450500D01*
X27485931Y16450500D01*
X27473645Y16448056D01*
X27462917Y16445922D01*
X27448480Y16444500D01*
X26156098Y16444500D01*
X26103772Y16466174D01*
X18874304Y23695642D01*
X18870477Y23704881D01*
X18862544Y23710968D01*
X18860022Y23730121D01*
X18852630Y23747968D01*
X18856457Y23757208D01*
X18855152Y23767121D01*
X18866911Y23782446D01*
X18874304Y23800294D01*
X18889630Y23812054D01*
X18902676Y23819586D01*
X18939676Y23829500D01*
X19944877Y23829500D01*
X19997203Y23807826D01*
X26789540Y17015489D01*
X26845489Y16959540D01*
X26914011Y16919979D01*
X26914012Y16919979D01*
X26914014Y16919978D01*
X26952224Y16909740D01*
X26990435Y16899501D01*
X26990436Y16899500D01*
X26990438Y16899500D01*
X38969564Y16899500D01*
X38969564Y16899501D01*
X39045989Y16919979D01*
X39114511Y16959540D01*
X39170460Y17015489D01*
X42129409Y19974438D01*
X50074500Y19974438D01*
X50074500Y19875563D01*
X50100088Y19780066D01*
X50100090Y19780061D01*
X50149525Y19694438D01*
X50154137Y19689826D01*
X50175811Y19637500D01*
X50154137Y19585174D01*
X50149525Y19580563D01*
X50100090Y19494940D01*
X50100088Y19494935D01*
X50074500Y19399438D01*
X50074500Y19300563D01*
X50100088Y19205066D01*
X50100090Y19205061D01*
X50131591Y19150500D01*
X50149525Y19119438D01*
X50219438Y19049525D01*
X50305062Y19000090D01*
X50305063Y19000090D01*
X50305065Y19000089D01*
X50324289Y18994938D01*
X50400562Y18974501D01*
X50400563Y18974500D01*
X50400565Y18974500D01*
X50499437Y18974500D01*
X50499437Y18974501D01*
X50594938Y19000090D01*
X50680562Y19049525D01*
X50750475Y19119438D01*
X50799910Y19205062D01*
X50825499Y19300563D01*
X50825500Y19300563D01*
X50825500Y19399437D01*
X50825499Y19399438D01*
X50799911Y19494935D01*
X50799909Y19494940D01*
X50770971Y19545062D01*
X50750475Y19580562D01*
X50745863Y19585174D01*
X50724189Y19637500D01*
X50745863Y19689826D01*
X50750475Y19694438D01*
X50799910Y19780062D01*
X50825499Y19875563D01*
X50825500Y19875563D01*
X50825500Y19974437D01*
X50825499Y19974438D01*
X50825482Y19974500D01*
X50807956Y20039910D01*
X50799911Y20069935D01*
X50799909Y20069940D01*
X50750474Y20155563D01*
X50680562Y20225475D01*
X50621737Y20259438D01*
X53404500Y20259438D01*
X53404500Y20160563D01*
X53430088Y20065066D01*
X53430090Y20065061D01*
X53473153Y19990475D01*
X53479525Y19979438D01*
X53549438Y19909525D01*
X53635062Y19860090D01*
X53635063Y19860090D01*
X53635065Y19860089D01*
X53655125Y19854714D01*
X53730562Y19834501D01*
X53730563Y19834500D01*
X53730565Y19834500D01*
X53829437Y19834500D01*
X53829437Y19834501D01*
X53924938Y19860090D01*
X54010562Y19909525D01*
X54080475Y19979438D01*
X54129910Y20065062D01*
X54155499Y20160563D01*
X54155500Y20160563D01*
X54155500Y20259437D01*
X54155499Y20259438D01*
X54129911Y20354935D01*
X54129909Y20354940D01*
X54095716Y20414163D01*
X54080475Y20440562D01*
X54010562Y20510475D01*
X53924939Y20559910D01*
X53924934Y20559912D01*
X53829437Y20585500D01*
X53829435Y20585500D01*
X53730565Y20585500D01*
X53730563Y20585500D01*
X53635065Y20559912D01*
X53635060Y20559910D01*
X53549437Y20510475D01*
X53479525Y20440563D01*
X53430090Y20354940D01*
X53430088Y20354935D01*
X53404500Y20259438D01*
X50621737Y20259438D01*
X50594939Y20274910D01*
X50594934Y20274912D01*
X50499437Y20300500D01*
X50499435Y20300500D01*
X50400565Y20300500D01*
X50400563Y20300500D01*
X50305065Y20274912D01*
X50305060Y20274910D01*
X50219437Y20225475D01*
X50149525Y20155563D01*
X50100090Y20069940D01*
X50100088Y20069935D01*
X50074500Y19974438D01*
X42129409Y19974438D01*
X45332797Y23177826D01*
X45385123Y23199500D01*
X48239564Y23199500D01*
X48239564Y23199501D01*
X48315989Y23219979D01*
X48384511Y23259540D01*
X48440460Y23315489D01*
X48754408Y23629438D01*
X51904500Y23629438D01*
X51904500Y23530563D01*
X51930088Y23435066D01*
X51930090Y23435061D01*
X51979525Y23349438D01*
X52049438Y23279525D01*
X52135062Y23230090D01*
X52135063Y23230090D01*
X52135065Y23230089D01*
X52172793Y23219980D01*
X52230562Y23204501D01*
X52230563Y23204500D01*
X52230565Y23204500D01*
X52329437Y23204500D01*
X52329437Y23204501D01*
X52424938Y23230090D01*
X52510562Y23279525D01*
X52580475Y23349438D01*
X52629910Y23435062D01*
X52655499Y23530563D01*
X52655500Y23530563D01*
X52655500Y23569438D01*
X52844500Y23569438D01*
X52844500Y23470563D01*
X52870088Y23375066D01*
X52870090Y23375061D01*
X52904484Y23315489D01*
X52919525Y23289438D01*
X52989438Y23219525D01*
X53041389Y23189531D01*
X53067423Y23174500D01*
X53075062Y23170090D01*
X53075063Y23170090D01*
X53075065Y23170089D01*
X53122813Y23157295D01*
X53170562Y23144501D01*
X53170563Y23144500D01*
X53170565Y23144500D01*
X53269437Y23144500D01*
X53269437Y23144501D01*
X53364938Y23170090D01*
X53450562Y23219525D01*
X53520475Y23289438D01*
X53569910Y23375062D01*
X53595499Y23470563D01*
X53595500Y23470563D01*
X53595500Y23569437D01*
X53595499Y23569438D01*
X53592518Y23580562D01*
X53579423Y23629435D01*
X53569911Y23664935D01*
X53569909Y23664940D01*
X53552591Y23694935D01*
X53520475Y23750562D01*
X53450562Y23820475D01*
X53434930Y23829500D01*
X53364939Y23869910D01*
X53364934Y23869912D01*
X53269437Y23895500D01*
X53269435Y23895500D01*
X53170565Y23895500D01*
X53170563Y23895500D01*
X53075065Y23869912D01*
X53075060Y23869910D01*
X52989437Y23820475D01*
X52919525Y23750563D01*
X52870090Y23664940D01*
X52870088Y23664935D01*
X52844500Y23569438D01*
X52655500Y23569438D01*
X52655500Y23629437D01*
X52655499Y23629438D01*
X52629911Y23724935D01*
X52629909Y23724940D01*
X52598108Y23780021D01*
X52580475Y23810562D01*
X52510562Y23880475D01*
X52471849Y23902826D01*
X52424939Y23929910D01*
X52424934Y23929912D01*
X52329437Y23955500D01*
X52329435Y23955500D01*
X52230565Y23955500D01*
X52230563Y23955500D01*
X52135065Y23929912D01*
X52135060Y23929910D01*
X52049437Y23880475D01*
X51979525Y23810563D01*
X51930090Y23724940D01*
X51930088Y23724935D01*
X51904500Y23629438D01*
X48754408Y23629438D01*
X49027796Y23902827D01*
X49080122Y23924500D01*
X49149437Y23924500D01*
X49149437Y23924501D01*
X49244938Y23950090D01*
X49330562Y23999525D01*
X49400475Y24069438D01*
X49449910Y24155062D01*
X49475499Y24250563D01*
X49475500Y24250563D01*
X49475500Y24349437D01*
X49475499Y24349438D01*
X49449911Y24444935D01*
X49449909Y24444940D01*
X49421302Y24494489D01*
X49400475Y24530562D01*
X49330562Y24600475D01*
X49244939Y24649910D01*
X49244934Y24649912D01*
X49149437Y24675500D01*
X49149435Y24675500D01*
X49050565Y24675500D01*
X49050563Y24675500D01*
X48955065Y24649912D01*
X48955060Y24649910D01*
X48869437Y24600475D01*
X48799526Y24530564D01*
X48799523Y24530560D01*
X48796106Y24524642D01*
X48784351Y24509324D01*
X48097203Y23822174D01*
X48044877Y23800500D01*
X45190436Y23800500D01*
X45114014Y23780023D01*
X45114009Y23780021D01*
X45062827Y23750470D01*
X45045488Y23740460D01*
X44610252Y23305224D01*
X44557926Y23283550D01*
X44505600Y23305224D01*
X44483926Y23357550D01*
X44493841Y23394551D01*
X44499910Y23405062D01*
X44525499Y23500563D01*
X44525500Y23500563D01*
X44525500Y23599437D01*
X44525499Y23599438D01*
X44517461Y23629435D01*
X44507949Y23664935D01*
X44499911Y23694935D01*
X44499909Y23694940D01*
X44482591Y23724935D01*
X44450475Y23780562D01*
X44380562Y23850475D01*
X44346896Y23869912D01*
X44294939Y23899910D01*
X44294934Y23899912D01*
X44199437Y23925500D01*
X44199435Y23925500D01*
X44174412Y23925500D01*
X44122086Y23947174D01*
X44100412Y23999500D01*
X44110326Y24036500D01*
X44146713Y24099525D01*
X44149910Y24105062D01*
X44175499Y24200563D01*
X44175500Y24200563D01*
X44175500Y24299437D01*
X44175499Y24299438D01*
X44149911Y24394935D01*
X44149909Y24394940D01*
X44121044Y24444935D01*
X44100475Y24480562D01*
X44030562Y24550475D01*
X43944939Y24599910D01*
X43944934Y24599912D01*
X43849437Y24625500D01*
X43849435Y24625500D01*
X43813768Y24625500D01*
X43761442Y24647174D01*
X43739768Y24699500D01*
X43761442Y24751826D01*
X44682442Y25672826D01*
X44734768Y25694500D01*
X45530581Y25694500D01*
X45582907Y25672826D01*
X45604581Y25620500D01*
X45600475Y25599856D01*
X45601345Y25599623D01*
X45574500Y25499438D01*
X45574500Y25400563D01*
X45600088Y25305066D01*
X45600090Y25305061D01*
X45632206Y25249435D01*
X45649525Y25219438D01*
X45719438Y25149525D01*
X45805062Y25100090D01*
X45805063Y25100090D01*
X45805065Y25100089D01*
X45852813Y25087295D01*
X45900562Y25074501D01*
X45900563Y25074500D01*
X45900565Y25074500D01*
X45999437Y25074500D01*
X45999437Y25074501D01*
X46094938Y25100090D01*
X46180562Y25149525D01*
X46250475Y25219438D01*
X46299910Y25305062D01*
X46325499Y25400563D01*
X46325500Y25400563D01*
X46325500Y25499437D01*
X46325499Y25499438D01*
X46298655Y25599623D01*
X46301050Y25600265D01*
X46301053Y25648822D01*
X46341104Y25688869D01*
X46369419Y25694500D01*
X49795233Y25694500D01*
X49847559Y25672826D01*
X50062826Y25457559D01*
X50084500Y25405233D01*
X50084500Y25400563D01*
X50110088Y25305066D01*
X50110090Y25305061D01*
X50142206Y25249435D01*
X50159525Y25219438D01*
X50229438Y25149525D01*
X50315062Y25100090D01*
X50315063Y25100090D01*
X50315065Y25100089D01*
X50362813Y25087295D01*
X50410562Y25074501D01*
X50410563Y25074500D01*
X50410565Y25074500D01*
X50509437Y25074500D01*
X50509437Y25074501D01*
X50604938Y25100090D01*
X50690562Y25149525D01*
X50760475Y25219438D01*
X50809910Y25305062D01*
X50835499Y25400563D01*
X50835500Y25400563D01*
X50835500Y25499437D01*
X50835499Y25499438D01*
X50828783Y25524501D01*
X50817129Y25567998D01*
X50809911Y25594935D01*
X50809909Y25594940D01*
X50779864Y25646979D01*
X50760475Y25680562D01*
X50690562Y25750475D01*
X50682610Y25755066D01*
X50604939Y25799910D01*
X50604934Y25799912D01*
X50509437Y25825500D01*
X50509435Y25825500D01*
X50504768Y25825500D01*
X50452442Y25847174D01*
X50096059Y26203556D01*
X50096057Y26203558D01*
X50067225Y26215500D01*
X50065842Y26216073D01*
X49994800Y26245500D01*
X44535200Y26245500D01*
X44464158Y26216073D01*
X44464157Y26216073D01*
X44433943Y26203559D01*
X44433940Y26203557D01*
X37847559Y19617174D01*
X37795233Y19595500D01*
X28474767Y19595500D01*
X28422441Y19617174D01*
X28295941Y19743674D01*
X28274267Y19796000D01*
X28295941Y19848326D01*
X28348267Y19870000D01*
X28472048Y19870000D01*
X28593758Y19894210D01*
X28593764Y19894212D01*
X28708416Y19941702D01*
X28797654Y20001329D01*
X28797654Y20001330D01*
X28522841Y20276143D01*
X28551614Y20288060D01*
X28621940Y20358386D01*
X28633857Y20387159D01*
X28908670Y20112346D01*
X28908671Y20112346D01*
X28968298Y20201584D01*
X29015788Y20316236D01*
X29015790Y20316242D01*
X29040000Y20437952D01*
X29040000Y20562049D01*
X29015790Y20683759D01*
X29015788Y20683765D01*
X28968297Y20798418D01*
X28908670Y20887656D01*
X28633857Y20612843D01*
X28621940Y20641614D01*
X28551614Y20711940D01*
X28522840Y20723859D01*
X28797654Y20998673D01*
X28708417Y21058298D01*
X28593764Y21105789D01*
X28593758Y21105791D01*
X28472048Y21130000D01*
X28347952Y21130000D01*
X28226241Y21105791D01*
X28226235Y21105789D01*
X28111579Y21058297D01*
X28022344Y20998674D01*
X28022344Y20998673D01*
X28297158Y20723858D01*
X28268386Y20711940D01*
X28198060Y20641614D01*
X28186142Y20612842D01*
X27911327Y20887656D01*
X27911326Y20887656D01*
X27851703Y20798421D01*
X27804211Y20683765D01*
X27804209Y20683759D01*
X27780000Y20562049D01*
X27780000Y20438267D01*
X27758326Y20385941D01*
X27706000Y20364267D01*
X27653674Y20385941D01*
X27120846Y20918769D01*
X24604549Y23435066D01*
X22076058Y25963557D01*
X21974800Y26005500D01*
X21974799Y26005500D01*
X16356189Y26005500D01*
X16303863Y26027174D01*
X16280562Y26050475D01*
X16194939Y26099910D01*
X16194934Y26099912D01*
X16099437Y26125500D01*
X16099435Y26125500D01*
X16000565Y26125500D01*
X16000563Y26125500D01*
X15905065Y26099912D01*
X15905060Y26099910D01*
X15819437Y26050475D01*
X15749525Y25980563D01*
X15700090Y25894940D01*
X15700088Y25894935D01*
X15674500Y25799438D01*
X15674500Y25700563D01*
X15700088Y25605066D01*
X15700090Y25605061D01*
X15745445Y25526504D01*
X15749525Y25519438D01*
X15819438Y25449525D01*
X15852283Y25430562D01*
X15904242Y25400563D01*
X15905062Y25400090D01*
X15905063Y25400090D01*
X15905065Y25400089D01*
X15952813Y25387295D01*
X16000562Y25374501D01*
X16000563Y25374500D01*
X16000565Y25374500D01*
X16099437Y25374500D01*
X16099437Y25374501D01*
X16194938Y25400090D01*
X16272007Y25444587D01*
X16309007Y25454500D01*
X21775233Y25454500D01*
X21827559Y25432826D01*
X28096443Y19163942D01*
X28173942Y19086443D01*
X28275200Y19044500D01*
X28275201Y19044500D01*
X37994798Y19044500D01*
X37994800Y19044500D01*
X38096058Y19086443D01*
X38173557Y19163942D01*
X38173556Y19163942D01*
X38208517Y19198903D01*
X38208516Y19198903D01*
X43298174Y24288560D01*
X43350500Y24310233D01*
X43402826Y24288559D01*
X43424500Y24236233D01*
X43424500Y24200563D01*
X43450088Y24105066D01*
X43450090Y24105061D01*
X43484927Y24044723D01*
X43499525Y24019438D01*
X43569438Y23949525D01*
X43655062Y23900090D01*
X43655063Y23900090D01*
X43655065Y23900089D01*
X43672192Y23895500D01*
X43750562Y23874501D01*
X43750563Y23874500D01*
X43775588Y23874500D01*
X43827914Y23852826D01*
X43849588Y23800500D01*
X43839674Y23763500D01*
X43800090Y23694940D01*
X43800088Y23694935D01*
X43774500Y23599438D01*
X43774500Y23500563D01*
X43800088Y23405066D01*
X43800090Y23405061D01*
X43849525Y23319438D01*
X43919438Y23249525D01*
X43970613Y23219979D01*
X43997423Y23204500D01*
X44005062Y23200090D01*
X44005063Y23200090D01*
X44005065Y23200089D01*
X44044469Y23189531D01*
X44100562Y23174501D01*
X44100563Y23174500D01*
X44100565Y23174500D01*
X44199437Y23174500D01*
X44199437Y23174501D01*
X44294938Y23200090D01*
X44305448Y23206159D01*
X44361599Y23213554D01*
X44406534Y23179077D01*
X44413930Y23122925D01*
X44394776Y23089748D01*
X38827203Y17522174D01*
X38774877Y17500500D01*
X27185123Y17500500D01*
X27132797Y17522174D01*
X23736202Y20918769D01*
X20284511Y24370460D01*
X20276407Y24375139D01*
X20276404Y24375141D01*
X20276404Y24375142D01*
X20215987Y24410022D01*
X20215988Y24410022D01*
X20139564Y24430500D01*
X20139562Y24430500D01*
X18989223Y24430500D01*
X18950020Y24443808D01*
X18949339Y24442627D01*
X18859516Y24494487D01*
X18859511Y24494489D01*
X18764014Y24520077D01*
X18764012Y24520077D01*
X18665142Y24520077D01*
X18665140Y24520077D01*
X18569642Y24494489D01*
X18569637Y24494487D01*
X18484014Y24445052D01*
X18414101Y24375139D01*
X18382052Y24319630D01*
X18337118Y24285152D01*
X18280966Y24292546D01*
X18265641Y24304305D01*
X17514668Y25055278D01*
X17408127Y25126465D01*
X17289744Y25175501D01*
X17289735Y25175504D01*
X17287725Y25175903D01*
X17287723Y25175903D01*
X17164069Y25200500D01*
X17164067Y25200500D01*
X15850098Y25200500D01*
X15797772Y25222174D01*
X15181602Y25838344D01*
X15159928Y25890670D01*
X15159928Y31849568D01*
X15310953Y31849568D01*
X15310953Y31737527D01*
X15339948Y31629315D01*
X15339952Y31629306D01*
X15340870Y31627716D01*
X15395968Y31532284D01*
X15475190Y31453062D01*
X15572216Y31397044D01*
X15680435Y31368047D01*
X15680438Y31368047D01*
X15684603Y31366931D01*
X15729537Y31332452D01*
X15736929Y31314605D01*
X15767042Y31202221D01*
X15767046Y31202212D01*
X15788819Y31164501D01*
X15823062Y31105190D01*
X15902284Y31025968D01*
X15999310Y30969950D01*
X16107526Y30940954D01*
X16107527Y30940953D01*
X16107529Y30940953D01*
X16219567Y30940953D01*
X16219567Y30940954D01*
X16327784Y30969950D01*
X16424810Y31025968D01*
X16504032Y31105190D01*
X16560050Y31202216D01*
X16589046Y31310433D01*
X16589047Y31310433D01*
X16589047Y31422473D01*
X16589046Y31422474D01*
X16560051Y31530686D01*
X16560050Y31530690D01*
X16504032Y31627716D01*
X16424810Y31706938D01*
X16400385Y31721040D01*
X16327788Y31762954D01*
X16327779Y31762958D01*
X16215395Y31793071D01*
X16170462Y31827549D01*
X16163069Y31845397D01*
X16161953Y31849563D01*
X16161953Y31849565D01*
X16132956Y31957784D01*
X16076938Y32054810D01*
X15997716Y32134032D01*
X15900694Y32190048D01*
X15900685Y32190052D01*
X15792473Y32219047D01*
X15792471Y32219047D01*
X15680435Y32219047D01*
X15680433Y32219047D01*
X15572220Y32190052D01*
X15572211Y32190048D01*
X15475189Y32134032D01*
X15395968Y32054811D01*
X15339952Y31957789D01*
X15339948Y31957780D01*
X15310953Y31849568D01*
X15159928Y31849568D01*
X15159928Y32434072D01*
X15134930Y32559744D01*
X15134929Y32559747D01*
X15124207Y32585633D01*
X15085893Y32678131D01*
X15050792Y32730664D01*
X15014705Y32784673D01*
X14472174Y33327204D01*
X14450500Y33379530D01*
X14450500Y34149903D01*
X14472173Y34202228D01*
X14976277Y34706332D01*
X15028601Y34728005D01*
X15080927Y34706331D01*
X15100079Y34673158D01*
X15123495Y34585768D01*
X15123499Y34585759D01*
X15164890Y34514068D01*
X15179515Y34488737D01*
X15258737Y34409515D01*
X15355763Y34353497D01*
X15366833Y34350532D01*
X15384677Y34343141D01*
X15404011Y34331978D01*
X15404013Y34331978D01*
X15404014Y34331977D01*
X15442224Y34321739D01*
X15480435Y34311500D01*
X15480436Y34311499D01*
X15480438Y34311499D01*
X15566035Y34311499D01*
X15618361Y34289825D01*
X15707107Y34201079D01*
X15728781Y34148753D01*
X15728781Y33929161D01*
X15707107Y33876835D01*
X15654781Y33855161D01*
X15635629Y33857682D01*
X15613068Y33863727D01*
X15501032Y33863727D01*
X15501030Y33863727D01*
X15392817Y33834732D01*
X15392808Y33834728D01*
X15295786Y33778712D01*
X15216565Y33699491D01*
X15160549Y33602469D01*
X15160545Y33602460D01*
X15131550Y33494248D01*
X15131550Y33382207D01*
X15160545Y33273995D01*
X15160549Y33273986D01*
X15162576Y33270475D01*
X15216565Y33176964D01*
X15295787Y33097742D01*
X15392813Y33041724D01*
X15501032Y33012727D01*
X15501035Y33012727D01*
X15505200Y33011611D01*
X15550134Y32977132D01*
X15557526Y32959285D01*
X15587639Y32846901D01*
X15587643Y32846892D01*
X15600247Y32825062D01*
X15643659Y32749870D01*
X15722881Y32670648D01*
X15819907Y32614630D01*
X15928123Y32585634D01*
X15928124Y32585633D01*
X15928126Y32585633D01*
X16040164Y32585633D01*
X16040164Y32585634D01*
X16148381Y32614630D01*
X16245407Y32670648D01*
X16324629Y32749870D01*
X16380647Y32846896D01*
X16409643Y32955113D01*
X16409644Y32955113D01*
X16409644Y32986733D01*
X16431318Y33039059D01*
X16483644Y33060733D01*
X16535970Y33039059D01*
X19844952Y29730077D01*
X19900901Y29674128D01*
X19969423Y29634567D01*
X19969424Y29634567D01*
X19969426Y29634566D01*
X20007636Y29624328D01*
X20045847Y29614089D01*
X20045848Y29614088D01*
X20045850Y29614088D01*
X20124974Y29614088D01*
X20209578Y29614088D01*
X20261904Y29592414D01*
X26664788Y23189530D01*
X26744712Y23143386D01*
X26744713Y23143386D01*
X26744715Y23143385D01*
X26789284Y23131443D01*
X26833853Y23119501D01*
X26833854Y23119500D01*
X26833856Y23119500D01*
X26854166Y23119500D01*
X26906492Y23097826D01*
X27865663Y22138655D01*
X27884815Y22105482D01*
X27903495Y22035767D01*
X27903497Y22035762D01*
X27903499Y22035759D01*
X27959515Y21938737D01*
X28038737Y21859515D01*
X28135763Y21803497D01*
X28243979Y21774501D01*
X28243980Y21774500D01*
X28243982Y21774500D01*
X28356020Y21774500D01*
X28356020Y21774501D01*
X28464237Y21803497D01*
X28561263Y21859515D01*
X28640485Y21938737D01*
X28696503Y22035763D01*
X28725499Y22143980D01*
X28725500Y22143980D01*
X28725500Y22256020D01*
X28725499Y22256021D01*
X28696504Y22364233D01*
X28696503Y22364237D01*
X28640485Y22461263D01*
X28591939Y22509809D01*
X33049500Y22509809D01*
X33049500Y22240191D01*
X33062520Y22124634D01*
X33079688Y21972266D01*
X33139683Y21709414D01*
X33139686Y21709402D01*
X33228732Y21454922D01*
X33345713Y21212008D01*
X33345715Y21212004D01*
X33345716Y21212003D01*
X33489162Y20983711D01*
X33657266Y20772915D01*
X33847915Y20582266D01*
X34058711Y20414162D01*
X34287003Y20270716D01*
X34529921Y20153733D01*
X34784409Y20064684D01*
X35047268Y20004688D01*
X35315191Y19974500D01*
X35315195Y19974500D01*
X35584805Y19974500D01*
X35584809Y19974500D01*
X35852732Y20004688D01*
X36115591Y20064684D01*
X36370079Y20153733D01*
X36612997Y20270716D01*
X36841289Y20414162D01*
X37052085Y20582266D01*
X37242734Y20772915D01*
X37410838Y20983711D01*
X37554284Y21212003D01*
X37671267Y21454921D01*
X37760316Y21709409D01*
X37820312Y21972268D01*
X37850500Y22240191D01*
X37850500Y22509809D01*
X37820312Y22777732D01*
X37760316Y23040591D01*
X37671267Y23295079D01*
X37603853Y23435066D01*
X37554286Y23537993D01*
X37554285Y23537994D01*
X37554284Y23537997D01*
X37410838Y23766289D01*
X37242734Y23977085D01*
X37052085Y24167734D01*
X36841289Y24335838D01*
X36612997Y24479284D01*
X36612996Y24479285D01*
X36612992Y24479287D01*
X36370078Y24596268D01*
X36115598Y24685314D01*
X36115593Y24685316D01*
X36115591Y24685316D01*
X35852732Y24745312D01*
X35852735Y24745312D01*
X35737907Y24758250D01*
X35584809Y24775500D01*
X35315191Y24775500D01*
X35162092Y24758250D01*
X35047265Y24745312D01*
X34784413Y24685317D01*
X34784401Y24685314D01*
X34529921Y24596268D01*
X34287007Y24479287D01*
X34058710Y24335838D01*
X33847911Y24167731D01*
X33657269Y23977089D01*
X33489162Y23766290D01*
X33345713Y23537993D01*
X33228732Y23295079D01*
X33139686Y23040599D01*
X33139683Y23040587D01*
X33079688Y22777735D01*
X33079688Y22777732D01*
X33049500Y22509809D01*
X28591939Y22509809D01*
X28561263Y22540485D01*
X28464238Y22596503D01*
X28464233Y22596505D01*
X28394518Y22615185D01*
X28361345Y22634337D01*
X27596244Y23399438D01*
X30774500Y23399438D01*
X30774500Y23300563D01*
X30800088Y23205066D01*
X30800090Y23205061D01*
X30835699Y23143385D01*
X30849525Y23119438D01*
X30919438Y23049525D01*
X31005062Y23000090D01*
X31005063Y23000090D01*
X31005065Y23000089D01*
X31052813Y22987295D01*
X31100562Y22974501D01*
X31100563Y22974500D01*
X31100565Y22974500D01*
X31199437Y22974500D01*
X31199437Y22974501D01*
X31294938Y23000090D01*
X31380562Y23049525D01*
X31450475Y23119438D01*
X31499910Y23205062D01*
X31525499Y23300563D01*
X31525500Y23300563D01*
X31525500Y23399437D01*
X31525499Y23399438D01*
X31523992Y23405061D01*
X31499910Y23494938D01*
X31496662Y23500563D01*
X31450474Y23580563D01*
X31380562Y23650475D01*
X31294939Y23699910D01*
X31294934Y23699912D01*
X31199437Y23725500D01*
X31199435Y23725500D01*
X31100565Y23725500D01*
X31100563Y23725500D01*
X31005065Y23699912D01*
X31005060Y23699910D01*
X30919437Y23650475D01*
X30849525Y23580563D01*
X30800090Y23494940D01*
X30800088Y23494935D01*
X30774500Y23399438D01*
X27596244Y23399438D01*
X27245212Y23750470D01*
X27165289Y23796614D01*
X27165284Y23796616D01*
X27076146Y23820500D01*
X27076144Y23820500D01*
X27055834Y23820500D01*
X27003508Y23842174D01*
X26396244Y24449438D01*
X28574500Y24449438D01*
X28574500Y24350563D01*
X28600088Y24255066D01*
X28600090Y24255061D01*
X28618554Y24223081D01*
X28649525Y24169438D01*
X28719438Y24099525D01*
X28805062Y24050090D01*
X28805063Y24050090D01*
X28805065Y24050089D01*
X28852813Y24037295D01*
X28900562Y24024501D01*
X28900563Y24024500D01*
X28900565Y24024500D01*
X28999437Y24024500D01*
X28999437Y24024501D01*
X29094938Y24050090D01*
X29180562Y24099525D01*
X29208863Y24127826D01*
X29261189Y24149500D01*
X32149827Y24149500D01*
X32149828Y24149500D01*
X32241897Y24187636D01*
X34472087Y26417826D01*
X34524413Y26439500D01*
X36429811Y26439500D01*
X36482137Y26417826D01*
X36503811Y26365500D01*
X36482137Y26313174D01*
X36449525Y26280563D01*
X36400090Y26194940D01*
X36400088Y26194935D01*
X36374500Y26099438D01*
X36374500Y26000563D01*
X36400088Y25905066D01*
X36400090Y25905061D01*
X36446025Y25825500D01*
X36449525Y25819438D01*
X36519438Y25749525D01*
X36582117Y25713337D01*
X36604242Y25700563D01*
X36605062Y25700090D01*
X36605063Y25700090D01*
X36605065Y25700089D01*
X36623830Y25695061D01*
X36700562Y25674501D01*
X36700563Y25674500D01*
X36700565Y25674500D01*
X36799437Y25674500D01*
X36799437Y25674501D01*
X36894938Y25700090D01*
X36980562Y25749525D01*
X37050475Y25819438D01*
X37099910Y25905062D01*
X37125499Y26000563D01*
X37125500Y26000563D01*
X37125500Y26099437D01*
X37125499Y26099438D01*
X37122086Y26112174D01*
X37099910Y26194938D01*
X37050475Y26280562D01*
X37017863Y26313174D01*
X36996189Y26365500D01*
X37017863Y26417826D01*
X37070189Y26439500D01*
X50205587Y26439500D01*
X50257913Y26417826D01*
X50973415Y25702325D01*
X50973418Y25702321D01*
X50977636Y25698103D01*
X51048103Y25627636D01*
X51086238Y25611841D01*
X51086239Y25611840D01*
X51140173Y25589499D01*
X51248440Y25589499D01*
X51248448Y25589500D01*
X51598811Y25589500D01*
X51651137Y25567826D01*
X51679438Y25539525D01*
X51707759Y25523174D01*
X51748872Y25499437D01*
X51765062Y25490090D01*
X51765063Y25490090D01*
X51765065Y25490089D01*
X51812813Y25477295D01*
X51860562Y25464501D01*
X51860563Y25464500D01*
X51860565Y25464500D01*
X51959437Y25464500D01*
X51959437Y25464501D01*
X52054938Y25490090D01*
X52140562Y25539525D01*
X52210475Y25609438D01*
X52259910Y25695062D01*
X52285499Y25790563D01*
X52285500Y25790563D01*
X52285500Y25889437D01*
X52285499Y25889438D01*
X52259911Y25984935D01*
X52259909Y25984940D01*
X52235525Y26027174D01*
X52210475Y26070562D01*
X52140562Y26140475D01*
X52085658Y26172174D01*
X52054939Y26189910D01*
X52054934Y26189912D01*
X51959437Y26215500D01*
X51959435Y26215500D01*
X51860565Y26215500D01*
X51860563Y26215500D01*
X51765065Y26189912D01*
X51765060Y26189910D01*
X51679437Y26140475D01*
X51651137Y26112174D01*
X51598811Y26090500D01*
X51324412Y26090500D01*
X51272086Y26112174D01*
X50884760Y26499500D01*
X50481897Y26902364D01*
X50481894Y26902366D01*
X50389828Y26940500D01*
X34439828Y26940500D01*
X34340172Y26940500D01*
X34248105Y26902366D01*
X32017913Y24672174D01*
X31965587Y24650500D01*
X29261189Y24650500D01*
X29208863Y24672174D01*
X29180562Y24700475D01*
X29094939Y24749910D01*
X29094934Y24749912D01*
X28999437Y24775500D01*
X28999435Y24775500D01*
X28900565Y24775500D01*
X28900563Y24775500D01*
X28805065Y24749912D01*
X28805060Y24749910D01*
X28719437Y24700475D01*
X28649525Y24630563D01*
X28600090Y24544940D01*
X28600088Y24544935D01*
X28574500Y24449438D01*
X26396244Y24449438D01*
X24896244Y25949438D01*
X28274500Y25949438D01*
X28274500Y25850563D01*
X28300088Y25755066D01*
X28300090Y25755061D01*
X28346602Y25674501D01*
X28349525Y25669438D01*
X28419438Y25599525D01*
X28505062Y25550090D01*
X28505063Y25550090D01*
X28505065Y25550089D01*
X28544487Y25539526D01*
X28600562Y25524501D01*
X28600563Y25524500D01*
X28600565Y25524500D01*
X28699437Y25524500D01*
X28699437Y25524501D01*
X28794938Y25550090D01*
X28880562Y25599525D01*
X28908863Y25627826D01*
X28961189Y25649500D01*
X29551385Y25649500D01*
X29603711Y25627826D01*
X29625385Y25575500D01*
X29603711Y25523174D01*
X29588385Y25511414D01*
X29569437Y25500475D01*
X29499525Y25430563D01*
X29450090Y25344940D01*
X29450088Y25344935D01*
X29424500Y25249438D01*
X29424500Y25150563D01*
X29450088Y25055066D01*
X29450090Y25055061D01*
X29489018Y24987637D01*
X29499525Y24969438D01*
X29569438Y24899525D01*
X29655062Y24850090D01*
X29655063Y24850090D01*
X29655065Y24850089D01*
X29702813Y24837295D01*
X29750562Y24824501D01*
X29750563Y24824500D01*
X29750565Y24824500D01*
X29849437Y24824500D01*
X29849437Y24824501D01*
X29944938Y24850090D01*
X30030562Y24899525D01*
X30058863Y24927826D01*
X30111189Y24949500D01*
X31799827Y24949500D01*
X31799828Y24949500D01*
X31891897Y24987636D01*
X34042087Y27137826D01*
X34094413Y27159500D01*
X49334827Y27159500D01*
X49334828Y27159500D01*
X49426897Y27197636D01*
X52082086Y29852827D01*
X52134412Y29874500D01*
X52174437Y29874500D01*
X52174437Y29874501D01*
X52269938Y29900090D01*
X52355562Y29949525D01*
X52425475Y30019438D01*
X52474910Y30105062D01*
X52500499Y30200563D01*
X52500500Y30200563D01*
X52500500Y30299437D01*
X52500499Y30299438D01*
X52497820Y30309435D01*
X52474910Y30394938D01*
X52425475Y30480562D01*
X52355562Y30550475D01*
X52269939Y30599910D01*
X52269934Y30599912D01*
X52174437Y30625500D01*
X52174435Y30625500D01*
X52075565Y30625500D01*
X52075563Y30625500D01*
X51980065Y30599912D01*
X51980060Y30599910D01*
X51894437Y30550475D01*
X51824525Y30480563D01*
X51775090Y30394940D01*
X51775088Y30394935D01*
X51749500Y30299438D01*
X51749500Y30259413D01*
X51727826Y30207087D01*
X49202913Y27682174D01*
X49150587Y27660500D01*
X33910172Y27660500D01*
X33818105Y27622366D01*
X31667913Y25472174D01*
X31615587Y25450500D01*
X30111189Y25450500D01*
X30064438Y25467139D01*
X30061518Y25469519D01*
X30030562Y25500475D01*
X30006471Y25514384D01*
X30001864Y25518139D01*
X29991034Y25538235D01*
X29977136Y25556348D01*
X29977948Y25562520D01*
X29974996Y25567998D01*
X29981548Y25589865D01*
X29984529Y25612500D01*
X29989467Y25616290D01*
X29991254Y25622251D01*
X30011349Y25633081D01*
X30029463Y25646979D01*
X30039623Y25648317D01*
X30041113Y25649119D01*
X30042519Y25648698D01*
X30048615Y25649500D01*
X31399827Y25649500D01*
X31399828Y25649500D01*
X31491897Y25687636D01*
X33632086Y27827827D01*
X33684412Y27849500D01*
X48809827Y27849500D01*
X48809828Y27849500D01*
X48901897Y27887636D01*
X50467086Y29452827D01*
X50519412Y29474500D01*
X50559437Y29474500D01*
X50559437Y29474501D01*
X50654938Y29500090D01*
X50740562Y29549525D01*
X50810475Y29619438D01*
X50859910Y29705062D01*
X50885499Y29800563D01*
X50885500Y29800563D01*
X50885500Y29899437D01*
X50885499Y29899438D01*
X50859911Y29994935D01*
X50859909Y29994940D01*
X50815634Y30071626D01*
X50810475Y30080562D01*
X50740562Y30150475D01*
X50654939Y30199910D01*
X50654934Y30199912D01*
X50559437Y30225500D01*
X50559435Y30225500D01*
X50460565Y30225500D01*
X50460563Y30225500D01*
X50365065Y30199912D01*
X50365060Y30199910D01*
X50279437Y30150475D01*
X50209525Y30080563D01*
X50160090Y29994940D01*
X50160088Y29994935D01*
X50134500Y29899438D01*
X50134500Y29859413D01*
X50112826Y29807087D01*
X48677913Y28372174D01*
X48625587Y28350500D01*
X33500172Y28350500D01*
X33408105Y28312366D01*
X31267913Y26172174D01*
X31215587Y26150500D01*
X28961189Y26150500D01*
X28908863Y26172174D01*
X28880562Y26200475D01*
X28794939Y26249910D01*
X28794934Y26249912D01*
X28699437Y26275500D01*
X28699435Y26275500D01*
X28600565Y26275500D01*
X28600563Y26275500D01*
X28505065Y26249912D01*
X28505060Y26249910D01*
X28419437Y26200475D01*
X28349525Y26130563D01*
X28300090Y26044940D01*
X28300088Y26044935D01*
X28274500Y25949438D01*
X24896244Y25949438D01*
X24046244Y26799438D01*
X29524500Y26799438D01*
X29524500Y26700563D01*
X29550088Y26605066D01*
X29550090Y26605061D01*
X29589018Y26537637D01*
X29599525Y26519438D01*
X29669438Y26449525D01*
X29755062Y26400090D01*
X29755063Y26400090D01*
X29755065Y26400089D01*
X29802813Y26387295D01*
X29850562Y26374501D01*
X29850563Y26374500D01*
X29850565Y26374500D01*
X29949437Y26374500D01*
X29949437Y26374501D01*
X30044938Y26400090D01*
X30130562Y26449525D01*
X30158863Y26477826D01*
X30211189Y26499500D01*
X31199827Y26499500D01*
X31199828Y26499500D01*
X31291897Y26537636D01*
X33282086Y28527827D01*
X33334412Y28549500D01*
X48079827Y28549500D01*
X48079828Y28549500D01*
X48171897Y28587636D01*
X49447087Y29862826D01*
X49499413Y29884500D01*
X49509437Y29884500D01*
X49509437Y29884501D01*
X49604938Y29910090D01*
X49690562Y29959525D01*
X49760475Y30029438D01*
X49809910Y30115062D01*
X49835499Y30210563D01*
X49835500Y30210563D01*
X49835500Y30309437D01*
X49835499Y30309438D01*
X49809911Y30404935D01*
X49809909Y30404940D01*
X49760474Y30490563D01*
X49690562Y30560475D01*
X49604939Y30609910D01*
X49604934Y30609912D01*
X49509437Y30635500D01*
X49509435Y30635500D01*
X49410565Y30635500D01*
X49410563Y30635500D01*
X49315065Y30609912D01*
X49315060Y30609910D01*
X49229437Y30560475D01*
X49159525Y30490563D01*
X49110090Y30404940D01*
X49110088Y30404935D01*
X49084500Y30309438D01*
X49084500Y30239414D01*
X49062826Y30187088D01*
X47947913Y29072174D01*
X47895587Y29050500D01*
X33150172Y29050500D01*
X33058105Y29012366D01*
X31067913Y27022174D01*
X31015587Y27000500D01*
X30211189Y27000500D01*
X30158863Y27022174D01*
X30130562Y27050475D01*
X30044939Y27099910D01*
X30044934Y27099912D01*
X29949437Y27125500D01*
X29949435Y27125500D01*
X29850565Y27125500D01*
X29850563Y27125500D01*
X29755065Y27099912D01*
X29755060Y27099910D01*
X29669437Y27050475D01*
X29599525Y26980563D01*
X29550090Y26894940D01*
X29550088Y26894935D01*
X29524500Y26799438D01*
X24046244Y26799438D01*
X21146244Y29699438D01*
X36674500Y29699438D01*
X36674500Y29600563D01*
X36700088Y29505066D01*
X36700090Y29505061D01*
X36747180Y29423500D01*
X36749525Y29419438D01*
X36819438Y29349525D01*
X36905062Y29300090D01*
X36905063Y29300090D01*
X36905065Y29300089D01*
X36952813Y29287295D01*
X37000562Y29274501D01*
X37000563Y29274500D01*
X37000565Y29274500D01*
X37099437Y29274500D01*
X37099437Y29274501D01*
X37194938Y29300090D01*
X37280562Y29349525D01*
X37350475Y29419438D01*
X37399910Y29505062D01*
X37425499Y29600563D01*
X37425500Y29600563D01*
X37425500Y29659438D01*
X39544500Y29659438D01*
X39544500Y29560563D01*
X39570088Y29465066D01*
X39570090Y29465061D01*
X39616199Y29385198D01*
X39619525Y29379438D01*
X39689438Y29309525D01*
X39775062Y29260090D01*
X39775063Y29260090D01*
X39775065Y29260089D01*
X39822813Y29247295D01*
X39870562Y29234501D01*
X39870563Y29234500D01*
X39870565Y29234500D01*
X39969437Y29234500D01*
X39969437Y29234501D01*
X40064938Y29260090D01*
X40150562Y29309525D01*
X40220475Y29379438D01*
X40245914Y29423501D01*
X40290847Y29457978D01*
X40347000Y29450586D01*
X40374085Y29423501D01*
X40399525Y29379438D01*
X40469438Y29309525D01*
X40555062Y29260090D01*
X40555063Y29260090D01*
X40555065Y29260089D01*
X40602813Y29247295D01*
X40650562Y29234501D01*
X40650563Y29234500D01*
X40650565Y29234500D01*
X40749437Y29234500D01*
X40749437Y29234501D01*
X40844938Y29260090D01*
X40930562Y29309525D01*
X41000475Y29379438D01*
X41003801Y29385201D01*
X41048729Y29419681D01*
X41104882Y29412295D01*
X41126597Y29393253D01*
X41129522Y29389441D01*
X41129525Y29389438D01*
X41199438Y29319525D01*
X41262117Y29283337D01*
X41277423Y29274500D01*
X41285062Y29270090D01*
X41285063Y29270090D01*
X41285065Y29270089D01*
X41322379Y29260091D01*
X41380562Y29244501D01*
X41380563Y29244500D01*
X41380565Y29244500D01*
X41479437Y29244500D01*
X41479437Y29244501D01*
X41574938Y29270090D01*
X41660562Y29319525D01*
X41730475Y29389438D01*
X41779910Y29475062D01*
X41805499Y29570563D01*
X41805500Y29570563D01*
X41805500Y29669437D01*
X41805499Y29669438D01*
X41804242Y29674128D01*
X41782590Y29754935D01*
X41779911Y29764935D01*
X41779909Y29764940D01*
X41762591Y29794935D01*
X41730475Y29850562D01*
X41660562Y29920475D01*
X41610246Y29949525D01*
X41574939Y29969910D01*
X41574934Y29969912D01*
X41479437Y29995500D01*
X41479435Y29995500D01*
X41380565Y29995500D01*
X41380563Y29995500D01*
X41285065Y29969912D01*
X41285060Y29969910D01*
X41199437Y29920475D01*
X41129526Y29850564D01*
X41129525Y29850562D01*
X41126194Y29844795D01*
X41081262Y29810317D01*
X41025109Y29817710D01*
X41003401Y29836749D01*
X41000476Y29840561D01*
X40930562Y29910475D01*
X40844939Y29959910D01*
X40844934Y29959912D01*
X40749437Y29985500D01*
X40749435Y29985500D01*
X40650565Y29985500D01*
X40650563Y29985500D01*
X40555065Y29959912D01*
X40555060Y29959910D01*
X40469437Y29910475D01*
X40399525Y29840563D01*
X40374086Y29796501D01*
X40329152Y29762022D01*
X40273000Y29769415D01*
X40245914Y29796501D01*
X40222676Y29836749D01*
X40220475Y29840562D01*
X40150562Y29910475D01*
X40064939Y29959910D01*
X40064934Y29959912D01*
X39969437Y29985500D01*
X39969435Y29985500D01*
X39870565Y29985500D01*
X39870563Y29985500D01*
X39775065Y29959912D01*
X39775060Y29959910D01*
X39689437Y29910475D01*
X39619525Y29840563D01*
X39570090Y29754940D01*
X39570088Y29754935D01*
X39544500Y29659438D01*
X37425500Y29659438D01*
X37425500Y29699437D01*
X37425499Y29699438D01*
X37423992Y29705061D01*
X37407949Y29764935D01*
X37399911Y29794935D01*
X37399909Y29794940D01*
X37375770Y29836749D01*
X37350475Y29880562D01*
X37280562Y29950475D01*
X37246896Y29969912D01*
X37194939Y29999910D01*
X37194934Y29999912D01*
X37099437Y30025500D01*
X37099435Y30025500D01*
X37000565Y30025500D01*
X37000563Y30025500D01*
X36905065Y29999912D01*
X36905060Y29999910D01*
X36819437Y29950475D01*
X36749525Y29880563D01*
X36700090Y29794940D01*
X36700088Y29794935D01*
X36674500Y29699438D01*
X21146244Y29699438D01*
X20780944Y30064738D01*
X20769184Y30080064D01*
X20768896Y30080562D01*
X20740469Y30129800D01*
X20675212Y30195057D01*
X20675209Y30195059D01*
X20675208Y30195060D01*
X20595289Y30241202D01*
X20595284Y30241204D01*
X20506146Y30265088D01*
X20506144Y30265088D01*
X20413856Y30265088D01*
X20413854Y30265088D01*
X20324715Y30241204D01*
X20324710Y30241202D01*
X20296653Y30225002D01*
X20259653Y30215088D01*
X20240535Y30215088D01*
X20188209Y30236762D01*
X19557684Y30867287D01*
X19536010Y30919613D01*
X19557684Y30971939D01*
X19610010Y30993613D01*
X19638325Y30987981D01*
X19670873Y30974499D01*
X19670875Y30974499D01*
X19670877Y30974498D01*
X19713520Y30966016D01*
X19796548Y30949500D01*
X19796550Y30949500D01*
X21914067Y30949500D01*
X21914069Y30949500D01*
X22039744Y30974499D01*
X22158127Y31023535D01*
X22182528Y31039839D01*
X22264669Y31094723D01*
X22621277Y31451331D01*
X22692465Y31557873D01*
X22705540Y31589438D01*
X48694500Y31589438D01*
X48694500Y31490563D01*
X48720088Y31395066D01*
X48720090Y31395061D01*
X48766542Y31314605D01*
X48769525Y31309438D01*
X48839438Y31239525D01*
X48925062Y31190090D01*
X48925063Y31190090D01*
X48925065Y31190089D01*
X48972813Y31177295D01*
X49020562Y31164501D01*
X49020563Y31164500D01*
X49020565Y31164500D01*
X49119437Y31164500D01*
X49119437Y31164501D01*
X49214938Y31190090D01*
X49300562Y31239525D01*
X49370475Y31309438D01*
X49370480Y31309449D01*
X49372203Y31311692D01*
X49378593Y31318979D01*
X49392066Y31332452D01*
X49443557Y31383942D01*
X49443556Y31383942D01*
X51032442Y32972826D01*
X51084768Y32994500D01*
X51813811Y32994500D01*
X51866137Y32972826D01*
X51869438Y32969525D01*
X51923601Y32938254D01*
X51954242Y32920563D01*
X51955062Y32920090D01*
X51955063Y32920090D01*
X51955065Y32920089D01*
X51979518Y32913537D01*
X52050562Y32894501D01*
X52050563Y32894500D01*
X52050565Y32894500D01*
X52149437Y32894500D01*
X52149437Y32894501D01*
X52244938Y32920090D01*
X52330562Y32969525D01*
X52400475Y33039438D01*
X52449910Y33125062D01*
X52475499Y33220563D01*
X52475500Y33220563D01*
X52475500Y33319437D01*
X52475499Y33319438D01*
X52449911Y33414935D01*
X52449909Y33414940D01*
X52400474Y33500563D01*
X52330562Y33570475D01*
X52244939Y33619910D01*
X52244934Y33619912D01*
X52149437Y33645500D01*
X52149435Y33645500D01*
X52050565Y33645500D01*
X52050563Y33645500D01*
X51955065Y33619912D01*
X51955060Y33619910D01*
X51869437Y33570475D01*
X51866137Y33567174D01*
X51813811Y33545500D01*
X50885200Y33545500D01*
X50813598Y33515843D01*
X50813599Y33515842D01*
X50783942Y33503558D01*
X49209939Y31929556D01*
X49157613Y31907882D01*
X49138464Y31910402D01*
X49125481Y31913880D01*
X49119435Y31915500D01*
X49020565Y31915500D01*
X49020563Y31915500D01*
X48925065Y31889912D01*
X48925060Y31889910D01*
X48839437Y31840475D01*
X48769525Y31770563D01*
X48720090Y31684940D01*
X48720088Y31684935D01*
X48694500Y31589438D01*
X22705540Y31589438D01*
X22741501Y31676257D01*
X22749596Y31716953D01*
X22766500Y31801931D01*
X22766500Y34098636D01*
X22741501Y34224311D01*
X22692465Y34342694D01*
X22677070Y34365735D01*
X22621276Y34449237D01*
X22029236Y35041277D01*
X21922694Y35112465D01*
X21804311Y35161501D01*
X21804309Y35161502D01*
X21804306Y35161503D01*
X21714263Y35179414D01*
X21678636Y35186500D01*
X21678634Y35186500D01*
X19733244Y35186500D01*
X19680918Y35208174D01*
X17177815Y37711276D01*
X17177813Y37711278D01*
X17071272Y37782465D01*
X16952887Y37831502D01*
X16952884Y37831503D01*
X16862841Y37849414D01*
X16827214Y37856500D01*
X16827212Y37856500D01*
X16400045Y37856500D01*
X16347719Y37878174D01*
X16326045Y37930500D01*
X16335959Y37967500D01*
X16337843Y37970765D01*
X16346503Y37985763D01*
X16375499Y38093980D01*
X16375500Y38093980D01*
X16375500Y38119878D01*
X16397173Y38172203D01*
X17790460Y39565489D01*
X17830022Y39634012D01*
X17850500Y39710438D01*
X17850500Y39789562D01*
X17850500Y48894877D01*
X17872174Y48947203D01*
X21302797Y52377826D01*
X21355123Y52399500D01*
X35994877Y52399500D01*
X36047203Y52377826D01*
X37582826Y50842203D01*
X37604429Y50793124D01*
X37604500Y50791508D01*
X37604500Y50763982D01*
X37605945Y50758587D01*
X37606301Y50750498D01*
X37599175Y50730907D01*
X37596452Y50710241D01*
X37589805Y50705143D01*
X37586943Y50697271D01*
X37568052Y50688457D01*
X37551514Y50675770D01*
X37543210Y50676865D01*
X37535619Y50673322D01*
X37516027Y50680448D01*
X37495362Y50683171D01*
X37483493Y50692280D01*
X37482392Y50692680D01*
X37482068Y50693373D01*
X37480046Y50694925D01*
X36264511Y51910460D01*
X36250578Y51918504D01*
X36245714Y51921312D01*
X36195990Y51950021D01*
X36195985Y51950023D01*
X36119564Y51970500D01*
X36119562Y51970500D01*
X21330438Y51970500D01*
X21330436Y51970500D01*
X21254014Y51950023D01*
X21254009Y51950021D01*
X21199422Y51918504D01*
X21185488Y51910460D01*
X18459540Y49184512D01*
X18419979Y49115991D01*
X18419977Y49115986D01*
X18399500Y49039565D01*
X18399500Y38980123D01*
X18377826Y38927797D01*
X17947203Y38497174D01*
X17894877Y38475500D01*
X17843980Y38475500D01*
X17735767Y38446505D01*
X17735758Y38446501D01*
X17638736Y38390485D01*
X17559515Y38311264D01*
X17503499Y38214242D01*
X17503495Y38214233D01*
X17474500Y38106021D01*
X17474500Y37993980D01*
X17503495Y37885768D01*
X17503499Y37885759D01*
X17534825Y37831501D01*
X17559515Y37788737D01*
X17638737Y37709515D01*
X17735763Y37653497D01*
X17843979Y37624501D01*
X17843980Y37624500D01*
X17843982Y37624500D01*
X17956020Y37624500D01*
X17956020Y37624501D01*
X18064237Y37653497D01*
X18161263Y37709515D01*
X18240485Y37788737D01*
X18296503Y37885763D01*
X18325499Y37993980D01*
X18325500Y37993980D01*
X18325500Y37994878D01*
X18325673Y37995297D01*
X18326133Y37998789D01*
X18327068Y37998666D01*
X18347173Y38047203D01*
X18940460Y38640489D01*
X18980022Y38709012D01*
X19000500Y38785438D01*
X19000500Y38864562D01*
X19000500Y48844877D01*
X19022174Y48897203D01*
X21472797Y51347826D01*
X21525123Y51369500D01*
X24924415Y51369500D01*
X24976741Y51347826D01*
X24998415Y51295500D01*
X24976741Y51243174D01*
X24965528Y51233972D01*
X24955653Y51227375D01*
X24847627Y51119349D01*
X24762760Y50992337D01*
X24704302Y50851206D01*
X24704300Y50851199D01*
X24674500Y50701380D01*
X24674500Y50548621D01*
X24704300Y50398802D01*
X24704302Y50398795D01*
X24762760Y50257664D01*
X24841886Y50139244D01*
X24847630Y50130648D01*
X24851453Y50126825D01*
X24873127Y50074500D01*
X24851453Y50022174D01*
X24799127Y50000500D01*
X21139562Y50000500D01*
X21060438Y50000500D01*
X20984012Y49980022D01*
X20984011Y49980022D01*
X20984009Y49980021D01*
X20984007Y49980020D01*
X20915492Y49940463D01*
X19615489Y48640460D01*
X19559540Y48584512D01*
X19519979Y48515991D01*
X19519977Y48515986D01*
X19499500Y48439565D01*
X19499500Y38131900D01*
X19477826Y38079574D01*
X19434515Y38036264D01*
X19378499Y37939242D01*
X19378495Y37939233D01*
X19349500Y37831021D01*
X19349500Y37718980D01*
X19378495Y37610768D01*
X19378499Y37610759D01*
X19434515Y37513737D01*
X19513737Y37434515D01*
X19610763Y37378497D01*
X19718979Y37349501D01*
X19718980Y37349500D01*
X19718982Y37349500D01*
X19831020Y37349500D01*
X19831020Y37349501D01*
X19939237Y37378497D01*
X20036263Y37434515D01*
X20115485Y37513737D01*
X20171503Y37610763D01*
X20200499Y37718980D01*
X20200500Y37718980D01*
X20200500Y37831020D01*
X20200499Y37831021D01*
X20200370Y37831501D01*
X20171503Y37939237D01*
X20115485Y38036263D01*
X20115484Y38036264D01*
X20113060Y38040463D01*
X20114037Y38041028D01*
X20100500Y38080912D01*
X20100500Y45499438D01*
X47024500Y45499438D01*
X47024500Y45400563D01*
X47050088Y45305066D01*
X47050090Y45305061D01*
X47099525Y45219438D01*
X47169438Y45149525D01*
X47255062Y45100090D01*
X47255063Y45100090D01*
X47255065Y45100089D01*
X47302813Y45087295D01*
X47350562Y45074501D01*
X47350563Y45074500D01*
X47350565Y45074500D01*
X47449437Y45074500D01*
X47449437Y45074501D01*
X47544938Y45100090D01*
X47630562Y45149525D01*
X47700475Y45219438D01*
X47749910Y45305062D01*
X47775499Y45400563D01*
X47775500Y45400563D01*
X47775500Y45499437D01*
X47775499Y45499438D01*
X47749911Y45594935D01*
X47749909Y45594940D01*
X47700474Y45680563D01*
X47630562Y45750475D01*
X47544939Y45799910D01*
X47544934Y45799912D01*
X47449437Y45825500D01*
X47449435Y45825500D01*
X47350565Y45825500D01*
X47350563Y45825500D01*
X47255065Y45799912D01*
X47255060Y45799910D01*
X47169437Y45750475D01*
X47099525Y45680563D01*
X47050090Y45594940D01*
X47050088Y45594935D01*
X47024500Y45499438D01*
X20100500Y45499438D01*
X20100500Y47474438D01*
X46724500Y47474438D01*
X46724500Y47375563D01*
X46750088Y47280066D01*
X46750090Y47280061D01*
X46799525Y47194438D01*
X46816637Y47177326D01*
X46838311Y47125000D01*
X46816637Y47072674D01*
X46799525Y47055563D01*
X46750090Y46969940D01*
X46750088Y46969935D01*
X46724500Y46874438D01*
X46724500Y46775563D01*
X46750088Y46680066D01*
X46750090Y46680061D01*
X46799525Y46594438D01*
X46869438Y46524525D01*
X46955062Y46475090D01*
X46955063Y46475090D01*
X46955065Y46475089D01*
X47002813Y46462295D01*
X47050562Y46449501D01*
X47050563Y46449500D01*
X47050565Y46449500D01*
X47149437Y46449500D01*
X47149437Y46449501D01*
X47244938Y46475090D01*
X47330562Y46524525D01*
X47400475Y46594438D01*
X47449910Y46680062D01*
X47475499Y46775563D01*
X47475500Y46775563D01*
X47475500Y46874437D01*
X47475499Y46874438D01*
X47449911Y46969935D01*
X47449909Y46969940D01*
X47400474Y47055563D01*
X47383363Y47072674D01*
X47361689Y47125000D01*
X47383363Y47177326D01*
X47400475Y47194438D01*
X47449910Y47280062D01*
X47475499Y47375563D01*
X47475500Y47375563D01*
X47475500Y47474437D01*
X47475499Y47474438D01*
X47449911Y47569935D01*
X47449909Y47569940D01*
X47432842Y47599501D01*
X47400475Y47655562D01*
X47330562Y47725475D01*
X47297717Y47744438D01*
X47244939Y47774910D01*
X47244934Y47774912D01*
X47149437Y47800500D01*
X47149435Y47800500D01*
X47050565Y47800500D01*
X47050563Y47800500D01*
X46955065Y47774912D01*
X46955060Y47774910D01*
X46869437Y47725475D01*
X46799525Y47655563D01*
X46750090Y47569940D01*
X46750088Y47569935D01*
X46724500Y47474438D01*
X20100500Y47474438D01*
X20100500Y48244877D01*
X20122174Y48297203D01*
X20504409Y48679438D01*
X44694500Y48679438D01*
X44694500Y48580563D01*
X44720088Y48485066D01*
X44720090Y48485061D01*
X44759905Y48416100D01*
X44769525Y48399438D01*
X44839438Y48329525D01*
X44925062Y48280090D01*
X44998613Y48260382D01*
X45043545Y48225904D01*
X45050938Y48169751D01*
X45043545Y48151905D01*
X45025092Y48119944D01*
X45025088Y48119935D01*
X44999500Y48024438D01*
X44999500Y47925563D01*
X45025088Y47830066D01*
X45025090Y47830061D01*
X45049301Y47788127D01*
X45074525Y47744438D01*
X45144438Y47674525D01*
X45230062Y47625090D01*
X45230063Y47625090D01*
X45230065Y47625089D01*
X45277813Y47612295D01*
X45325562Y47599501D01*
X45325563Y47599500D01*
X45325565Y47599500D01*
X45424437Y47599500D01*
X45424437Y47599501D01*
X45519938Y47625090D01*
X45605562Y47674525D01*
X45675475Y47744438D01*
X45724910Y47830062D01*
X45726547Y47836175D01*
X45748490Y47918060D01*
X45750500Y47925564D01*
X45750500Y48024437D01*
X45750499Y48024438D01*
X45724911Y48119935D01*
X45724909Y48119940D01*
X45675474Y48205563D01*
X45605562Y48275475D01*
X45519939Y48324910D01*
X45519934Y48324912D01*
X45446387Y48344619D01*
X45438454Y48350707D01*
X45428538Y48352012D01*
X45416777Y48367340D01*
X45401454Y48379098D01*
X45400148Y48389013D01*
X45394061Y48396947D01*
X45396582Y48416100D01*
X45394483Y48432049D01*
X50830000Y48432049D01*
X50830000Y48307952D01*
X50854209Y48186242D01*
X50854211Y48186236D01*
X50901702Y48071583D01*
X50961327Y47982346D01*
X51236141Y48257160D01*
X51248060Y48228386D01*
X51318386Y48158060D01*
X51347157Y48146143D01*
X51072344Y47871330D01*
X51161582Y47811703D01*
X51276235Y47764212D01*
X51276241Y47764210D01*
X51397952Y47740000D01*
X51522048Y47740000D01*
X51643758Y47764210D01*
X51643764Y47764212D01*
X51758416Y47811702D01*
X51847654Y47871329D01*
X51847654Y47871330D01*
X51572841Y48146143D01*
X51601614Y48158060D01*
X51671940Y48228386D01*
X51683857Y48257159D01*
X51958670Y47982346D01*
X51958671Y47982346D01*
X52018298Y48071584D01*
X52065788Y48186236D01*
X52065790Y48186242D01*
X52090000Y48307952D01*
X52090000Y48432049D01*
X52065790Y48553759D01*
X52065788Y48553765D01*
X52018297Y48668418D01*
X51958670Y48757656D01*
X51683857Y48482843D01*
X51671940Y48511614D01*
X51601614Y48581940D01*
X51572840Y48593859D01*
X51847654Y48868673D01*
X51758417Y48928298D01*
X51643764Y48975789D01*
X51643758Y48975791D01*
X51522048Y49000000D01*
X51397952Y49000000D01*
X51276241Y48975791D01*
X51276235Y48975789D01*
X51161579Y48928297D01*
X51072344Y48868674D01*
X51072344Y48868673D01*
X51347158Y48593858D01*
X51318386Y48581940D01*
X51248060Y48511614D01*
X51236142Y48482842D01*
X50961327Y48757656D01*
X50961326Y48757656D01*
X50901703Y48668421D01*
X50854211Y48553765D01*
X50854209Y48553759D01*
X50830000Y48432049D01*
X45394483Y48432049D01*
X45394062Y48435250D01*
X45401452Y48453092D01*
X45419910Y48485062D01*
X45445499Y48580563D01*
X45445500Y48580563D01*
X45445500Y48679437D01*
X45445499Y48679438D01*
X45440123Y48699500D01*
X45419910Y48774938D01*
X45370475Y48860562D01*
X45300562Y48930475D01*
X45214939Y48979910D01*
X45214934Y48979912D01*
X45119437Y49005500D01*
X45119435Y49005500D01*
X45020565Y49005500D01*
X45020563Y49005500D01*
X44925065Y48979912D01*
X44925060Y48979910D01*
X44839437Y48930475D01*
X44769525Y48860563D01*
X44720090Y48774940D01*
X44720088Y48774935D01*
X44694500Y48679438D01*
X20504409Y48679438D01*
X21202797Y49377826D01*
X21255123Y49399500D01*
X36641000Y49399500D01*
X36693326Y49377826D01*
X37227612Y48843540D01*
X37296135Y48803978D01*
X37372561Y48783500D01*
X37372563Y48783500D01*
X37887441Y48783500D01*
X37887441Y48783501D01*
X37963866Y48803979D01*
X38032388Y48843540D01*
X38088337Y48899489D01*
X38301673Y49112827D01*
X38353999Y49134500D01*
X38436020Y49134500D01*
X38436020Y49134501D01*
X38544237Y49163497D01*
X38641263Y49219515D01*
X38720485Y49298737D01*
X38776503Y49395763D01*
X38805499Y49503980D01*
X38805500Y49503980D01*
X38805500Y49616020D01*
X38805499Y49616021D01*
X38776504Y49724233D01*
X38776503Y49724237D01*
X38762495Y49748500D01*
X38755103Y49804653D01*
X38789581Y49849586D01*
X38826581Y49859500D01*
X38989637Y49859500D01*
X39041963Y49837826D01*
X39061114Y49804655D01*
X39062877Y49798076D01*
X39063497Y49795762D01*
X39063499Y49795759D01*
X39104795Y49724233D01*
X39119515Y49698737D01*
X39198737Y49619515D01*
X39295763Y49563497D01*
X39403979Y49534501D01*
X39403980Y49534500D01*
X39403982Y49534500D01*
X39516020Y49534500D01*
X39516020Y49534501D01*
X39624237Y49563497D01*
X39721263Y49619515D01*
X39800485Y49698737D01*
X39800890Y49699438D01*
X42944500Y49699438D01*
X42944500Y49600563D01*
X42970088Y49505066D01*
X42970090Y49505061D01*
X43019525Y49419438D01*
X43089438Y49349525D01*
X43175062Y49300090D01*
X43175063Y49300090D01*
X43175065Y49300089D01*
X43214487Y49289526D01*
X43270562Y49274501D01*
X43270563Y49274500D01*
X43270565Y49274500D01*
X43369437Y49274500D01*
X43369437Y49274501D01*
X43464938Y49300090D01*
X43550562Y49349525D01*
X43552665Y49351629D01*
X43554053Y49352204D01*
X43554408Y49352476D01*
X43554480Y49352381D01*
X43604986Y49373312D01*
X43657315Y49351647D01*
X43657325Y49351638D01*
X43719438Y49289525D01*
X43805062Y49240090D01*
X43805063Y49240090D01*
X43805065Y49240089D01*
X43825879Y49234512D01*
X43900562Y49214501D01*
X43900563Y49214500D01*
X43900565Y49214500D01*
X43999437Y49214500D01*
X43999437Y49214501D01*
X44094938Y49240090D01*
X44180562Y49289525D01*
X44250475Y49359438D01*
X44299910Y49445062D01*
X44325499Y49540563D01*
X44325500Y49540563D01*
X44325500Y49639437D01*
X44325499Y49639438D01*
X44299911Y49734935D01*
X44299909Y49734940D01*
X44270718Y49785500D01*
X44250475Y49820562D01*
X44180562Y49890475D01*
X44130220Y49919540D01*
X44094939Y49939910D01*
X44094934Y49939912D01*
X43999437Y49965500D01*
X43999435Y49965500D01*
X43900565Y49965500D01*
X43900563Y49965500D01*
X43805065Y49939912D01*
X43805060Y49939910D01*
X43719435Y49890474D01*
X43719429Y49890469D01*
X43717315Y49888355D01*
X43715924Y49887780D01*
X43715589Y49887522D01*
X43715520Y49887612D01*
X43664986Y49866690D01*
X43612673Y49888364D01*
X43550562Y49950475D01*
X43464939Y49999910D01*
X43464934Y49999912D01*
X43369437Y50025500D01*
X43369435Y50025500D01*
X43270565Y50025500D01*
X43270563Y50025500D01*
X43175065Y49999912D01*
X43175060Y49999910D01*
X43089437Y49950475D01*
X43019525Y49880563D01*
X42970090Y49794940D01*
X42970088Y49794935D01*
X42944500Y49699438D01*
X39800890Y49699438D01*
X39856503Y49795763D01*
X39885499Y49903980D01*
X39885500Y49903980D01*
X39885500Y50016020D01*
X39885499Y50016021D01*
X39883850Y50022174D01*
X39856503Y50124237D01*
X39800485Y50221263D01*
X39721263Y50300485D01*
X39677278Y50325880D01*
X39624241Y50356501D01*
X39624232Y50356505D01*
X39516020Y50385500D01*
X39516018Y50385500D01*
X39489127Y50385500D01*
X39449282Y50399025D01*
X39448711Y50398035D01*
X39375990Y50440021D01*
X39375985Y50440023D01*
X39299564Y50460500D01*
X39299562Y50460500D01*
X38441940Y50460500D01*
X38389614Y50482174D01*
X38367940Y50534500D01*
X38377854Y50571500D01*
X38411917Y50630500D01*
X38426503Y50655763D01*
X38445323Y50726003D01*
X44424500Y50726003D01*
X44424500Y50523998D01*
X44463907Y50325880D01*
X44463909Y50325873D01*
X44541214Y50139244D01*
X44646292Y49981982D01*
X44653442Y49971282D01*
X44796282Y49828442D01*
X44964244Y49716214D01*
X45150873Y49638909D01*
X45348997Y49599500D01*
X45348998Y49599500D01*
X45551002Y49599500D01*
X45551003Y49599500D01*
X45749127Y49638909D01*
X45935756Y49716214D01*
X46103718Y49828442D01*
X46246558Y49971282D01*
X46358786Y50139244D01*
X46363807Y50151368D01*
X46403852Y50191417D01*
X46460489Y50191421D01*
X46494832Y50162423D01*
X46608211Y49981982D01*
X46821834Y49714107D01*
X47064107Y49471834D01*
X47331982Y49258211D01*
X47622090Y49075924D01*
X47821461Y48979912D01*
X47930791Y48927261D01*
X48166235Y48844877D01*
X48254183Y48814103D01*
X48254186Y48814103D01*
X48254187Y48814102D01*
X48388262Y48783500D01*
X48588217Y48737861D01*
X48928688Y48699500D01*
X48928692Y48699500D01*
X49271308Y48699500D01*
X49271312Y48699500D01*
X49611783Y48737861D01*
X49945817Y48814103D01*
X50078593Y48860563D01*
X50222571Y48910942D01*
X50269208Y48927261D01*
X50269212Y48927264D01*
X50269215Y48927264D01*
X50577910Y49075924D01*
X50868018Y49258211D01*
X51135893Y49471834D01*
X51378166Y49714107D01*
X51591789Y49981982D01*
X51774076Y50272090D01*
X51922736Y50580785D01*
X51922736Y50580788D01*
X51922739Y50580792D01*
X52017359Y50851205D01*
X52035897Y50904183D01*
X52112139Y51238217D01*
X52150500Y51578688D01*
X52150500Y51921312D01*
X52112139Y52261783D01*
X52035897Y52595817D01*
X52024458Y52628508D01*
X51922739Y52919209D01*
X51774076Y53227909D01*
X51774076Y53227910D01*
X51591789Y53518018D01*
X51378166Y53785893D01*
X51135893Y54028166D01*
X50868018Y54241789D01*
X50577910Y54424076D01*
X50569718Y54428021D01*
X50269208Y54572740D01*
X49945830Y54685893D01*
X49945812Y54685899D01*
X49611786Y54762139D01*
X49465866Y54778580D01*
X49271312Y54800500D01*
X48928688Y54800500D01*
X48758452Y54781320D01*
X48588213Y54762139D01*
X48254187Y54685899D01*
X48254169Y54685893D01*
X47930791Y54572740D01*
X47622091Y54424077D01*
X47331981Y54241789D01*
X47064103Y54028163D01*
X46821837Y53785897D01*
X46608211Y53518019D01*
X46425923Y53227909D01*
X46277260Y52919209D01*
X46164107Y52595831D01*
X46164101Y52595813D01*
X46087861Y52261787D01*
X46049500Y51921309D01*
X46049500Y51596230D01*
X46027826Y51543904D01*
X45975500Y51522230D01*
X45939531Y51533135D01*
X45938964Y51532072D01*
X45935761Y51533784D01*
X45749127Y51611091D01*
X45749120Y51611093D01*
X45599862Y51640782D01*
X45551003Y51650500D01*
X45348997Y51650500D01*
X45309803Y51642704D01*
X45150879Y51611093D01*
X45150872Y51611091D01*
X44964243Y51533786D01*
X44796282Y51421559D01*
X44796281Y51421557D01*
X44653443Y51278719D01*
X44653441Y51278718D01*
X44541214Y51110757D01*
X44463909Y50924128D01*
X44463907Y50924121D01*
X44424500Y50726003D01*
X38445323Y50726003D01*
X38455499Y50763980D01*
X38455500Y50763980D01*
X38455500Y50876020D01*
X38455499Y50876021D01*
X38426504Y50984233D01*
X38426503Y50984237D01*
X38370485Y51081263D01*
X38291263Y51160485D01*
X38194241Y51216501D01*
X38194232Y51216505D01*
X38086020Y51245500D01*
X38086018Y51245500D01*
X38060123Y51245500D01*
X38007797Y51267174D01*
X36334511Y52940460D01*
X36265990Y52980021D01*
X36265985Y52980023D01*
X36189564Y53000500D01*
X36189562Y53000500D01*
X21239562Y53000500D01*
X21160438Y53000500D01*
X21084012Y52980022D01*
X21084011Y52980022D01*
X21084009Y52980021D01*
X21084007Y52980020D01*
X21015492Y52940463D01*
X17365489Y49290460D01*
X17309540Y49234512D01*
X17269979Y49165991D01*
X17269977Y49165986D01*
X17249500Y49089565D01*
X17249500Y39905123D01*
X17227826Y39852797D01*
X15972203Y38597174D01*
X15919877Y38575500D01*
X15893980Y38575500D01*
X15785767Y38546505D01*
X15785758Y38546501D01*
X15688736Y38490485D01*
X15609515Y38411264D01*
X15553499Y38314242D01*
X15553495Y38314233D01*
X15524500Y38206021D01*
X15524500Y38093980D01*
X15553495Y37985768D01*
X15553499Y37985759D01*
X15564041Y37967500D01*
X15566562Y37948348D01*
X15573955Y37930500D01*
X15570127Y37921261D01*
X15571433Y37911347D01*
X15559673Y37896023D01*
X15552281Y37878174D01*
X15543042Y37874348D01*
X15536955Y37866414D01*
X15499955Y37856500D01*
X15394098Y37856500D01*
X15341772Y37878174D01*
X15172174Y38047772D01*
X15150500Y38100098D01*
X15150500Y46742752D01*
X15156133Y46771070D01*
X15198948Y46874435D01*
X15205501Y46890256D01*
X15230500Y47015931D01*
X15230500Y47544069D01*
X15214384Y47625089D01*
X15205502Y47669740D01*
X15205501Y47669743D01*
X15203520Y47674525D01*
X15156465Y47788127D01*
X15085276Y47894669D01*
X14994669Y47985276D01*
X14888127Y48056465D01*
X14888124Y48056467D01*
X14888123Y48056467D01*
X14769742Y48105502D01*
X14769739Y48105503D01*
X14679696Y48123414D01*
X14644069Y48130500D01*
X14515931Y48130500D01*
X14484726Y48124293D01*
X14390260Y48105503D01*
X14390257Y48105502D01*
X14271876Y48056467D01*
X14165331Y47985277D01*
X14165330Y47985275D01*
X14074725Y47894670D01*
X14074723Y47894669D01*
X14003533Y47788124D01*
X13954498Y47669743D01*
X13954497Y47669740D01*
X13929500Y47544068D01*
X13929500Y47337248D01*
X13923867Y47308930D01*
X13874499Y47189747D01*
X13874497Y47189740D01*
X13849500Y47064068D01*
X13849500Y37735932D01*
X13854755Y37709514D01*
X13874497Y37610262D01*
X13874499Y37610256D01*
X13923535Y37491873D01*
X13994723Y37385331D01*
X14679331Y36700723D01*
X14785873Y36629535D01*
X14904256Y36580499D01*
X14904258Y36580499D01*
X14904260Y36580498D01*
X14946903Y36572016D01*
X15029931Y36555500D01*
X16463047Y36555500D01*
X16515373Y36533826D01*
X19018475Y34030725D01*
X19018481Y34030720D01*
X19116301Y33965360D01*
X19120917Y33962276D01*
X19125019Y33959535D01*
X19155823Y33946776D01*
X19157387Y33946040D01*
X19175373Y33926283D01*
X19194264Y33907393D01*
X19194264Y33905534D01*
X19195515Y33904159D01*
X19194264Y33877472D01*
X19194264Y33850756D01*
X19192880Y33847950D01*
X19192863Y33847584D01*
X19192566Y33847315D01*
X19189983Y33842075D01*
X19180092Y33824944D01*
X19180088Y33824935D01*
X19154500Y33729438D01*
X19154500Y33630563D01*
X19180088Y33535066D01*
X19180090Y33535061D01*
X19218973Y33467715D01*
X19229525Y33449438D01*
X19299438Y33379525D01*
X19385062Y33330090D01*
X19385063Y33330090D01*
X19385065Y33330089D01*
X19404058Y33325000D01*
X19480562Y33304501D01*
X19480563Y33304500D01*
X19480565Y33304500D01*
X19579437Y33304500D01*
X19579437Y33304501D01*
X19674938Y33330090D01*
X19760562Y33379525D01*
X19766005Y33384969D01*
X19818329Y33406645D01*
X19870656Y33384974D01*
X19876105Y33379525D01*
X19961729Y33330090D01*
X19961730Y33330090D01*
X19961732Y33330089D01*
X19980725Y33325000D01*
X20057229Y33304501D01*
X20057230Y33304500D01*
X20057232Y33304500D01*
X20156104Y33304500D01*
X20156104Y33304501D01*
X20251605Y33330090D01*
X20337229Y33379525D01*
X20342674Y33384970D01*
X20395000Y33406644D01*
X20447326Y33384970D01*
X20452771Y33379525D01*
X20538395Y33330090D01*
X20538396Y33330090D01*
X20538398Y33330089D01*
X20557391Y33325000D01*
X20633895Y33304501D01*
X20633896Y33304500D01*
X20633898Y33304500D01*
X20732770Y33304500D01*
X20732770Y33304501D01*
X20828271Y33330090D01*
X20913895Y33379525D01*
X20919341Y33384972D01*
X20946269Y33396126D01*
X20971662Y33406645D01*
X20971666Y33406645D01*
X20997055Y33396129D01*
X21023989Y33384974D01*
X21031637Y33377326D01*
X21053311Y33325000D01*
X21031637Y33272674D01*
X20959525Y33200563D01*
X20910090Y33114940D01*
X20910088Y33114935D01*
X20884500Y33019438D01*
X20884500Y32920563D01*
X20910088Y32825066D01*
X20910090Y32825061D01*
X20951725Y32752948D01*
X20959525Y32739438D01*
X21029438Y32669525D01*
X21115062Y32620090D01*
X21115063Y32620090D01*
X21115065Y32620089D01*
X21147654Y32611357D01*
X21210562Y32594501D01*
X21210563Y32594500D01*
X21210565Y32594500D01*
X21309437Y32594500D01*
X21309437Y32594501D01*
X21350243Y32605435D01*
X21372347Y32611357D01*
X21428500Y32603965D01*
X21462978Y32559032D01*
X21465500Y32539879D01*
X21465500Y32324500D01*
X21443826Y32272174D01*
X21391500Y32250500D01*
X20160714Y32250500D01*
X20108388Y32272174D01*
X18965174Y33415389D01*
X18943500Y33467715D01*
X18943500Y33521068D01*
X18940716Y33535062D01*
X18921719Y33630565D01*
X18918502Y33646740D01*
X18918501Y33646743D01*
X18918210Y33647447D01*
X18869465Y33765127D01*
X18857609Y33782870D01*
X18834063Y33818111D01*
X18834058Y33818117D01*
X18829794Y33824499D01*
X18798277Y33871669D01*
X16488669Y36181277D01*
X16475612Y36190001D01*
X16382127Y36252465D01*
X16263742Y36301502D01*
X16263739Y36301503D01*
X16173696Y36319414D01*
X16138069Y36326500D01*
X14961931Y36326500D01*
X14930726Y36320293D01*
X14836260Y36301503D01*
X14836257Y36301502D01*
X14717872Y36252465D01*
X14611331Y36181278D01*
X14611330Y36181276D01*
X13294725Y34864672D01*
X13294725Y34864671D01*
X13294723Y34864669D01*
X13248937Y34796144D01*
X13223535Y34758128D01*
X13174498Y34639743D01*
X13174497Y34639740D01*
X13163762Y34585768D01*
X13149500Y34514069D01*
X295898Y34514069D01*
X234576Y34530500D01*
X-314576Y34530500D01*
X-375899Y34514069D01*
X-439327Y34497074D01*
X-439331Y34497072D01*
X-551171Y34432501D01*
X-642501Y34341171D01*
X-707072Y34229331D01*
X-707074Y34229327D01*
X-714643Y34201079D01*
X-740500Y34104576D01*
X-7009500Y34104576D01*
X-7009500Y34109842D01*
X-7045652Y34244765D01*
X-7115494Y34365735D01*
X-7214265Y34464506D01*
X-7300109Y34514068D01*
X-7335231Y34534346D01*
X-7335233Y34534347D01*
X-7335234Y34534348D01*
X-7335235Y34534348D01*
X-7470158Y34570500D01*
X-7609842Y34570500D01*
X-7744765Y34534348D01*
X-7744766Y34534348D01*
X-7744768Y34534347D01*
X-7744770Y34534346D01*
X-7865736Y34464506D01*
X-7964506Y34365736D01*
X-8034346Y34244770D01*
X-8034347Y34244768D01*
X-8034348Y34244766D01*
X-8034348Y34244765D01*
X-8070500Y34109842D01*
X-9427500Y34109842D01*
X-9427500Y36256974D01*
X-6870000Y36256974D01*
X-6870000Y36123027D01*
X-6843870Y35991658D01*
X-6843868Y35991651D01*
X-6792608Y35867899D01*
X-6724721Y35766299D01*
X-6486854Y36004166D01*
X-6470070Y35975095D01*
X-6404905Y35909930D01*
X-6375838Y35893148D01*
X-6613704Y35655282D01*
X-6613704Y35655281D01*
X-6512101Y35587392D01*
X-6388350Y35536133D01*
X-6388343Y35536131D01*
X-6256973Y35510000D01*
X-6123027Y35510000D01*
X-5991658Y35536131D01*
X-5991651Y35536133D01*
X-5867900Y35587392D01*
X-5766298Y35655281D01*
X-5766298Y35655282D01*
X-5775454Y35664438D01*
X-4575500Y35664438D01*
X-4575500Y35565563D01*
X-4549912Y35470066D01*
X-4549910Y35470061D01*
X-4527167Y35430670D01*
X-4500475Y35384438D01*
X-4430562Y35314525D01*
X-4344938Y35265090D01*
X-4344937Y35265090D01*
X-4344935Y35265089D01*
X-4297187Y35252295D01*
X-4249438Y35239501D01*
X-4249437Y35239500D01*
X-4249435Y35239500D01*
X-4150563Y35239500D01*
X-4150563Y35239501D01*
X-4055062Y35265090D01*
X-3969438Y35314525D01*
X-3899525Y35384438D01*
X-3872833Y35430671D01*
X-3827900Y35465149D01*
X-3771747Y35457756D01*
X-3744662Y35430671D01*
X-3717969Y35384438D01*
X-3648056Y35314525D01*
X-3562432Y35265090D01*
X-3562431Y35265090D01*
X-3562429Y35265089D01*
X-3514681Y35252295D01*
X-3466932Y35239501D01*
X-3466931Y35239500D01*
X-3466929Y35239500D01*
X-3368057Y35239500D01*
X-3368057Y35239501D01*
X-3272556Y35265090D01*
X-3186932Y35314525D01*
X-3117019Y35384438D01*
X-3067584Y35470062D01*
X-3041995Y35565563D01*
X-3041994Y35565563D01*
X-3041994Y35664437D01*
X-3041995Y35664438D01*
X-3067583Y35759935D01*
X-3067585Y35759940D01*
X-3117020Y35845563D01*
X-3186932Y35915475D01*
X-3272555Y35964910D01*
X-3272560Y35964912D01*
X-3368057Y35990500D01*
X-3368059Y35990500D01*
X-3466929Y35990500D01*
X-3466931Y35990500D01*
X-3562429Y35964912D01*
X-3562434Y35964910D01*
X-3648057Y35915475D01*
X-3717968Y35845564D01*
X-3744661Y35799330D01*
X-3789595Y35764852D01*
X-3845748Y35772245D01*
X-3872833Y35799330D01*
X-3899525Y35845562D01*
X-3969438Y35915475D01*
X-4055061Y35964910D01*
X-4055066Y35964912D01*
X-4150563Y35990500D01*
X-4150565Y35990500D01*
X-4249435Y35990500D01*
X-4249437Y35990500D01*
X-4344935Y35964912D01*
X-4344940Y35964910D01*
X-4430563Y35915475D01*
X-4500475Y35845563D01*
X-4549910Y35759940D01*
X-4549912Y35759935D01*
X-4575500Y35664438D01*
X-5775454Y35664438D01*
X-6004164Y35893148D01*
X-5975095Y35909930D01*
X-5909930Y35975095D01*
X-5893148Y36004164D01*
X-5655282Y35766298D01*
X-5655281Y35766298D01*
X-5587392Y35867900D01*
X-5536133Y35991651D01*
X-5536131Y35991658D01*
X-5510000Y36123027D01*
X-5510000Y36256974D01*
X-2070000Y36256974D01*
X-2070000Y36123027D01*
X-2043870Y35991658D01*
X-2043868Y35991651D01*
X-1992608Y35867899D01*
X-1924721Y35766299D01*
X-1686854Y36004166D01*
X-1670070Y35975095D01*
X-1604905Y35909930D01*
X-1575838Y35893148D01*
X-1813704Y35655282D01*
X-1813704Y35655281D01*
X-1712101Y35587392D01*
X-1588350Y35536133D01*
X-1588343Y35536131D01*
X-1456973Y35510000D01*
X-1323027Y35510000D01*
X-1191658Y35536131D01*
X-1191651Y35536133D01*
X-1067900Y35587392D01*
X-966298Y35655281D01*
X-966298Y35655282D01*
X-1204164Y35893148D01*
X-1175095Y35909930D01*
X-1109930Y35975095D01*
X-1093148Y36004164D01*
X-855282Y35766298D01*
X-855281Y35766298D01*
X-787392Y35867900D01*
X-736133Y35991651D01*
X-736131Y35991658D01*
X-710000Y36123027D01*
X-710000Y36256974D01*
X-736131Y36388343D01*
X-736133Y36388350D01*
X-787392Y36512101D01*
X-855282Y36613704D01*
X-1093148Y36375838D01*
X-1109930Y36404905D01*
X-1175095Y36470070D01*
X-1204165Y36486854D01*
X-966298Y36724721D01*
X-1067899Y36792608D01*
X-1191651Y36843868D01*
X-1191658Y36843870D01*
X-1323027Y36870000D01*
X-1456973Y36870000D01*
X-1588343Y36843870D01*
X-1588350Y36843868D01*
X-1712102Y36792608D01*
X-1813704Y36724721D01*
X-1575837Y36486853D01*
X-1604905Y36470070D01*
X-1670070Y36404905D01*
X-1686853Y36375837D01*
X-1924721Y36613704D01*
X-1992608Y36512102D01*
X-2043868Y36388350D01*
X-2043870Y36388343D01*
X-2070000Y36256974D01*
X-5510000Y36256974D01*
X-5536131Y36388343D01*
X-5536133Y36388350D01*
X-5587392Y36512101D01*
X-5655282Y36613704D01*
X-5893148Y36375838D01*
X-5909930Y36404905D01*
X-5975095Y36470070D01*
X-6004165Y36486854D01*
X-5766298Y36724721D01*
X-5867899Y36792608D01*
X-5991651Y36843868D01*
X-5991658Y36843870D01*
X-6123027Y36870000D01*
X-6256973Y36870000D01*
X-6388343Y36843870D01*
X-6388350Y36843868D01*
X-6512102Y36792608D01*
X-6613704Y36724721D01*
X-6375837Y36486853D01*
X-6404905Y36470070D01*
X-6470070Y36404905D01*
X-6486853Y36375837D01*
X-6724721Y36613704D01*
X-6792608Y36512102D01*
X-6843868Y36388350D01*
X-6843870Y36388343D01*
X-6870000Y36256974D01*
X-9427500Y36256974D01*
X-9427500Y39192049D01*
X-1000000Y39192049D01*
X-1000000Y39067952D01*
X-975791Y38946242D01*
X-975789Y38946236D01*
X-928298Y38831583D01*
X-868673Y38742346D01*
X-593859Y39017160D01*
X-581940Y38988386D01*
X-511614Y38918060D01*
X-482843Y38906143D01*
X-757656Y38631330D01*
X-668418Y38571703D01*
X-553765Y38524212D01*
X-553759Y38524210D01*
X-432048Y38500000D01*
X-307952Y38500000D01*
X-186242Y38524210D01*
X-186236Y38524212D01*
X-71584Y38571702D01*
X17654Y38631329D01*
X17654Y38631330D01*
X-257159Y38906143D01*
X-228386Y38918060D01*
X-158060Y38988386D01*
X-146143Y39017159D01*
X128670Y38742346D01*
X128671Y38742346D01*
X188298Y38831584D01*
X235788Y38946236D01*
X235790Y38946242D01*
X260000Y39067952D01*
X260000Y39192049D01*
X235790Y39313759D01*
X235788Y39313765D01*
X188297Y39428418D01*
X128670Y39517656D01*
X-146143Y39242843D01*
X-158060Y39271614D01*
X-228386Y39341940D01*
X-257160Y39353859D01*
X17654Y39628673D01*
X-71583Y39688298D01*
X-186236Y39735789D01*
X-186242Y39735791D01*
X-307952Y39760000D01*
X-432048Y39760000D01*
X-553759Y39735791D01*
X-553765Y39735789D01*
X-668421Y39688297D01*
X-757656Y39628674D01*
X-757656Y39628673D01*
X-482842Y39353858D01*
X-511614Y39341940D01*
X-581940Y39271614D01*
X-593858Y39242842D01*
X-868673Y39517656D01*
X-868674Y39517656D01*
X-928297Y39428421D01*
X-975789Y39313765D01*
X-975791Y39313759D01*
X-1000000Y39192049D01*
X-9427500Y39192049D01*
X-9427500Y54428021D01*
X40774500Y54428021D01*
X40774500Y54315980D01*
X40803495Y54207768D01*
X40803499Y54207759D01*
X40861672Y54107000D01*
X40869064Y54050847D01*
X40861672Y54033000D01*
X40803499Y53932242D01*
X40803495Y53932233D01*
X40774500Y53824021D01*
X40774500Y53711980D01*
X40803495Y53603768D01*
X40803496Y53603765D01*
X40803497Y53603763D01*
X40859515Y53506737D01*
X40938737Y53427515D01*
X41035763Y53371497D01*
X41143979Y53342501D01*
X41143980Y53342500D01*
X41143982Y53342500D01*
X41256020Y53342500D01*
X41256020Y53342501D01*
X41364237Y53371497D01*
X41461263Y53427515D01*
X41540485Y53506737D01*
X41596503Y53603763D01*
X41625499Y53711980D01*
X41625500Y53711980D01*
X41625500Y53824020D01*
X41625499Y53824021D01*
X41596504Y53932233D01*
X41596503Y53932237D01*
X41540485Y54029263D01*
X41540483Y54029265D01*
X41538327Y54033000D01*
X41530934Y54089152D01*
X41538327Y54107000D01*
X41540485Y54110737D01*
X41596503Y54207763D01*
X41625499Y54315980D01*
X41625500Y54315980D01*
X41625500Y54428020D01*
X41625499Y54428021D01*
X41596504Y54536233D01*
X41596503Y54536237D01*
X41540485Y54633263D01*
X41461263Y54712485D01*
X41375260Y54762139D01*
X41364241Y54768501D01*
X41364232Y54768505D01*
X41256020Y54797500D01*
X41256018Y54797500D01*
X41143982Y54797500D01*
X41143980Y54797500D01*
X41035767Y54768505D01*
X41035758Y54768501D01*
X40938736Y54712485D01*
X40859515Y54633264D01*
X40803499Y54536242D01*
X40803495Y54536233D01*
X40774500Y54428021D01*
X-9427500Y54428021D01*
X-9427500Y57076258D01*
X-9405826Y57128584D01*
X-9353500Y57150258D01*
X-9301174Y57128584D01*
X-9283653Y57100699D01*
X-9218781Y56915304D01*
X-9080866Y56628921D01*
X-8911754Y56359780D01*
X-8713573Y56111269D01*
X-8656700Y56054396D01*
X-7610182Y57100914D01*
X-7499166Y56989898D01*
X-8545684Y55943380D01*
X-8488812Y55886508D01*
X-8240301Y55688327D01*
X-7971160Y55519215D01*
X-7684777Y55381300D01*
X-7384767Y55276322D01*
X-7384751Y55276317D01*
X-7074875Y55205590D01*
X-6759005Y55170000D01*
X-6441155Y55170000D01*
X-6125287Y55205590D01*
X-6125286Y55205590D01*
X-5815410Y55276317D01*
X-5815394Y55276322D01*
X-5515384Y55381300D01*
X-5229001Y55519215D01*
X-4959860Y55688327D01*
X-4711349Y55886508D01*
X-4654476Y55943380D01*
X-5700994Y56989898D01*
X-5589978Y57100914D01*
X-4543460Y56054396D01*
X-4486588Y56111269D01*
X-4288407Y56359780D01*
X-4200654Y56499438D01*
X18664500Y56499438D01*
X18664500Y56400563D01*
X18690088Y56305066D01*
X18690090Y56305061D01*
X18698461Y56290563D01*
X18739525Y56219438D01*
X18809438Y56149525D01*
X18895062Y56100090D01*
X18895063Y56100090D01*
X18895065Y56100089D01*
X18942813Y56087295D01*
X18990562Y56074501D01*
X18990563Y56074500D01*
X18990565Y56074500D01*
X19089437Y56074500D01*
X19089437Y56074501D01*
X19184938Y56100090D01*
X19270562Y56149525D01*
X19340475Y56219438D01*
X19389910Y56305062D01*
X19412519Y56389438D01*
X22464500Y56389438D01*
X22464500Y56290563D01*
X22490088Y56195066D01*
X22490090Y56195061D01*
X22516380Y56149526D01*
X22539525Y56109438D01*
X22609438Y56039525D01*
X22695062Y55990090D01*
X22695063Y55990090D01*
X22695065Y55990089D01*
X22742813Y55977295D01*
X22790562Y55964501D01*
X22790563Y55964500D01*
X22790565Y55964500D01*
X22889437Y55964500D01*
X22889437Y55964501D01*
X22984938Y55990090D01*
X23070562Y56039525D01*
X23140475Y56109438D01*
X23189910Y56195062D01*
X23215499Y56290563D01*
X23215500Y56290563D01*
X23215500Y56389437D01*
X23215499Y56389438D01*
X23212518Y56400562D01*
X23189910Y56484938D01*
X23140475Y56570562D01*
X23070562Y56640475D01*
X23054064Y56650000D01*
X22984939Y56689910D01*
X22984934Y56689912D01*
X22889437Y56715500D01*
X22889435Y56715500D01*
X22790565Y56715500D01*
X22790563Y56715500D01*
X22695065Y56689912D01*
X22695060Y56689910D01*
X22609437Y56640475D01*
X22539525Y56570563D01*
X22490090Y56484940D01*
X22490088Y56484935D01*
X22464500Y56389438D01*
X19412519Y56389438D01*
X19415500Y56400565D01*
X19415500Y56499435D01*
X19415500Y56499437D01*
X19415499Y56499438D01*
X19389911Y56594935D01*
X19389909Y56594940D01*
X19340474Y56680563D01*
X19270562Y56750475D01*
X19184939Y56799910D01*
X19184934Y56799912D01*
X19089437Y56825500D01*
X19089435Y56825500D01*
X18990565Y56825500D01*
X18990563Y56825500D01*
X18895065Y56799912D01*
X18895060Y56799910D01*
X18809437Y56750475D01*
X18739525Y56680563D01*
X18690090Y56594940D01*
X18690088Y56594935D01*
X18664500Y56499438D01*
X-4200654Y56499438D01*
X-4172870Y56543655D01*
X-4119295Y56628921D01*
X-3981380Y56915304D01*
X-3876402Y57215314D01*
X-3876397Y57215330D01*
X-3805670Y57525206D01*
X-3805670Y57525207D01*
X-3770080Y57841075D01*
X-3770080Y58158926D01*
X-3805670Y58474794D01*
X-3805670Y58474795D01*
X-3876397Y58784671D01*
X-3876402Y58784687D01*
X-3981380Y59084697D01*
X-4119295Y59371080D01*
X-4288407Y59640221D01*
X-4486588Y59888732D01*
X-4543460Y59945604D01*
X-5589978Y58899086D01*
X-5700994Y59010102D01*
X-4654476Y60056620D01*
X-4711349Y60113493D01*
X-4959860Y60311674D01*
X-5229004Y60480788D01*
X-5449199Y60586828D01*
X-5486939Y60629059D01*
X-5483764Y60685607D01*
X-5441533Y60723347D01*
X-5417092Y60727500D01*
X53817012Y60727500D01*
X53869338Y60705826D01*
G37*
%TD.AperFunction*%
%TA.AperFunction,Conductor*%
G36*
X57820172Y-892307D02*
G01*
X57827500Y-924414D01*
X57827500Y-2703500D01*
X57805826Y-2755826D01*
X57753500Y-2777500D01*
X56068978Y-2777500D01*
X56016652Y-2755826D01*
X55994978Y-2703500D01*
X56016652Y-2651174D01*
X56044538Y-2633653D01*
X56084693Y-2619602D01*
X56371079Y-2481685D01*
X56640220Y-2312573D01*
X56888731Y-2114392D01*
X56945604Y-2057520D01*
X55899086Y-1011002D01*
X56010102Y-899986D01*
X57056620Y-1946504D01*
X57113492Y-1889631D01*
X57311673Y-1641120D01*
X57480785Y-1371979D01*
X57618700Y-1085596D01*
X57683653Y-899973D01*
X57721393Y-857742D01*
X57777941Y-854567D01*
X57820172Y-892307D01*
G37*
%TD.AperFunction*%
%TA.AperFunction,Conductor*%
G36*
X57805826Y60705826D02*
G01*
X57827500Y60653500D01*
X57827500Y58923515D01*
X57805826Y58871189D01*
X57753500Y58849515D01*
X57701174Y58871189D01*
X57683653Y58899074D01*
X57618700Y59084697D01*
X57480785Y59371080D01*
X57311673Y59640221D01*
X57113492Y59888732D01*
X57056620Y59945604D01*
X56010102Y58899086D01*
X55899086Y59010102D01*
X56945604Y60056620D01*
X56888731Y60113493D01*
X56640220Y60311674D01*
X56371076Y60480788D01*
X56150881Y60586828D01*
X56113141Y60629059D01*
X56116316Y60685607D01*
X56158547Y60723347D01*
X56182988Y60727500D01*
X57753500Y60727500D01*
X57805826Y60705826D01*
G37*
%TD.AperFunction*%
%TA.AperFunction,Conductor*%
G36*
X-7730742Y60705826D02*
G01*
X-7709068Y60653500D01*
X-7730742Y60601174D01*
X-7750961Y60586828D01*
X-7971157Y60480788D01*
X-8240301Y60311674D01*
X-8488812Y60113493D01*
X-8545684Y60056620D01*
X-7499166Y59010102D01*
X-7610182Y58899086D01*
X-8656700Y59945604D01*
X-8713573Y59888732D01*
X-8911754Y59640221D01*
X-9080866Y59371080D01*
X-9218781Y59084697D01*
X-9283653Y58899302D01*
X-9321393Y58857071D01*
X-9377941Y58853896D01*
X-9420172Y58891636D01*
X-9427500Y58923743D01*
X-9427500Y60653500D01*
X-9405826Y60705826D01*
X-9353500Y60727500D01*
X-7783068Y60727500D01*
X-7730742Y60705826D01*
G37*
%TD.AperFunction*%
%TD*%
M02*
