%TF.GenerationSoftware,KiCad,Pcbnew,9.0.6*%
%TF.CreationDate,2026-03-31T07:19:29-07:00*%
%TF.ProjectId,hub-carrier-board,6875622d-6361-4727-9269-65722d626f61,2*%
%TF.SameCoordinates,Original*%
%TF.FileFunction,Legend,Bot*%
%TF.FilePolarity,Positive*%
%FSLAX46Y46*%
G04 Gerber Fmt 4.6, Leading zero omitted, Abs format (unit mm)*
G04 Created by KiCad (PCBNEW 9.0.6) date 2026-03-31 07:19:29*
%MOMM*%
%LPD*%
G01*
G04 APERTURE LIST*
G04 Aperture macros list*
%AMRoundRect*
0 Rectangle with rounded corners*
0 $1 Rounding radius*
0 $2 $3 $4 $5 $6 $7 $8 $9 X,Y pos of 4 corners*
0 Add a 4 corners polygon primitive as box body*
4,1,4,$2,$3,$4,$5,$6,$7,$8,$9,$2,$3,0*
0 Add four circle primitives for the rounded corners*
1,1,$1+$1,$2,$3*
1,1,$1+$1,$4,$5*
1,1,$1+$1,$6,$7*
1,1,$1+$1,$8,$9*
0 Add four rect primitives between the rounded corners*
20,1,$1+$1,$2,$3,$4,$5,0*
20,1,$1+$1,$4,$5,$6,$7,0*
20,1,$1+$1,$6,$7,$8,$9,0*
20,1,$1+$1,$8,$9,$2,$3,0*%
G04 Aperture macros list end*
%ADD10C,0.000250*%
%ADD11C,0.000000*%
%ADD12C,0.120000*%
%ADD13C,0.250000*%
%ADD14C,0.150000*%
%ADD15RoundRect,0.250000X0.625000X-0.350000X0.625000X0.350000X-0.625000X0.350000X-0.625000X-0.350000X0*%
%ADD16O,1.750000X1.200000*%
%ADD17C,0.660000*%
%ADD18O,1.000000X0.580000*%
%ADD19C,1.100000*%
%ADD20C,4.500000*%
%ADD21C,5.400000*%
%ADD22RoundRect,0.250000X0.600000X0.600000X-0.600000X0.600000X-0.600000X-0.600000X0.600000X-0.600000X0*%
%ADD23C,1.700000*%
%ADD24C,1.150000*%
%ADD25C,1.650000*%
%ADD26C,1.000000*%
%ADD27C,1.200000*%
%ADD28RoundRect,0.135000X0.135000X0.185000X-0.135000X0.185000X-0.135000X-0.185000X0.135000X-0.185000X0*%
%ADD29RoundRect,0.135000X0.185000X-0.135000X0.185000X0.135000X-0.185000X0.135000X-0.185000X-0.135000X0*%
%ADD30R,0.600000X1.550000*%
%ADD31R,1.200000X1.800000*%
%ADD32C,0.900000*%
%ADD33R,0.700000X0.600000*%
%ADD34R,0.700000X0.900000*%
%ADD35RoundRect,0.125000X0.125000X-0.175000X0.125000X0.175000X-0.125000X0.175000X-0.125000X-0.175000X0*%
%ADD36C,6.400000*%
%ADD37C,6.000000*%
%ADD38R,0.700000X0.200000*%
%ADD39C,5.700000*%
%ADD40C,6.100000*%
G04 APERTURE END LIST*
D10*
X44007809Y13940154D02*
X44007809Y13941154D01*
X44007714Y13940535D02*
X44007428Y13940154D01*
X44007428Y13940821D02*
X44007809Y13940440D01*
X44006999Y13940154D02*
X44006999Y13940821D01*
X44006999Y13941154D02*
X44007047Y13941106D01*
X44007047Y13941106D02*
X44006999Y13941059D01*
X44006999Y13941059D02*
X44006952Y13941106D01*
X44006952Y13941106D02*
X44006999Y13941154D01*
X44006999Y13941154D02*
X44006999Y13941059D01*
X44006523Y13940154D02*
X44006523Y13941154D01*
X44006523Y13940773D02*
X44006428Y13940821D01*
X44006428Y13940821D02*
X44006238Y13940821D01*
X44006238Y13940821D02*
X44006142Y13940773D01*
X44006142Y13940773D02*
X44006095Y13940725D01*
X44006095Y13940725D02*
X44006047Y13940630D01*
X44006047Y13940630D02*
X44006047Y13940344D01*
X44006047Y13940344D02*
X44006095Y13940249D01*
X44006095Y13940249D02*
X44006142Y13940201D01*
X44006142Y13940201D02*
X44006238Y13940154D01*
X44006238Y13940154D02*
X44006428Y13940154D01*
X44006428Y13940154D02*
X44006523Y13940201D01*
X44005190Y13940821D02*
X44005190Y13940154D01*
X44005618Y13940821D02*
X44005618Y13940297D01*
X44005618Y13940297D02*
X44005571Y13940201D01*
X44005571Y13940201D02*
X44005476Y13940154D01*
X44005476Y13940154D02*
X44005333Y13940154D01*
X44005333Y13940154D02*
X44005237Y13940201D01*
X44005237Y13940201D02*
X44005190Y13940249D01*
X44004809Y13940821D02*
X44004285Y13940821D01*
X44004285Y13940821D02*
X44004809Y13940154D01*
X44004809Y13940154D02*
X44004285Y13940154D01*
X44003999Y13940821D02*
X44003475Y13940821D01*
X44003475Y13940821D02*
X44003999Y13940154D01*
X44003999Y13940154D02*
X44003475Y13940154D01*
X44002665Y13940154D02*
X44002665Y13940678D01*
X44002665Y13940678D02*
X44002712Y13940773D01*
X44002712Y13940773D02*
X44002808Y13940821D01*
X44002808Y13940821D02*
X44002998Y13940821D01*
X44002998Y13940821D02*
X44003093Y13940773D01*
X44002665Y13940201D02*
X44002760Y13940154D01*
X44002760Y13940154D02*
X44002998Y13940154D01*
X44002998Y13940154D02*
X44003093Y13940201D01*
X44003093Y13940201D02*
X44003141Y13940297D01*
X44003141Y13940297D02*
X44003141Y13940392D01*
X44003141Y13940392D02*
X44003093Y13940487D01*
X44003093Y13940487D02*
X44002998Y13940535D01*
X44002998Y13940535D02*
X44002760Y13940535D01*
X44002760Y13940535D02*
X44002665Y13940582D01*
X44002188Y13940154D02*
X44002188Y13940821D01*
X44002188Y13940630D02*
X44002141Y13940725D01*
X44002141Y13940725D02*
X44002093Y13940773D01*
X44002093Y13940773D02*
X44001998Y13940821D01*
X44001998Y13940821D02*
X44001903Y13940821D01*
X44001141Y13940154D02*
X44001141Y13941154D01*
X44001141Y13940201D02*
X44001236Y13940154D01*
X44001236Y13940154D02*
X44001427Y13940154D01*
X44001427Y13940154D02*
X44001522Y13940201D01*
X44001522Y13940201D02*
X44001569Y13940249D01*
X44001569Y13940249D02*
X44001617Y13940344D01*
X44001617Y13940344D02*
X44001617Y13940630D01*
X44001617Y13940630D02*
X44001569Y13940725D01*
X44001569Y13940725D02*
X44001522Y13940773D01*
X44001522Y13940773D02*
X44001427Y13940821D01*
X44001427Y13940821D02*
X44001236Y13940821D01*
X44001236Y13940821D02*
X44001141Y13940773D01*
X44000664Y13940535D02*
X43999903Y13940535D01*
X43998998Y13941154D02*
X43999188Y13941154D01*
X43999188Y13941154D02*
X43999284Y13941106D01*
X43999284Y13941106D02*
X43999331Y13941059D01*
X43999331Y13941059D02*
X43999426Y13940916D01*
X43999426Y13940916D02*
X43999474Y13940725D01*
X43999474Y13940725D02*
X43999474Y13940344D01*
X43999474Y13940344D02*
X43999426Y13940249D01*
X43999426Y13940249D02*
X43999379Y13940201D01*
X43999379Y13940201D02*
X43999284Y13940154D01*
X43999284Y13940154D02*
X43999093Y13940154D01*
X43999093Y13940154D02*
X43998998Y13940201D01*
X43998998Y13940201D02*
X43998950Y13940249D01*
X43998950Y13940249D02*
X43998903Y13940344D01*
X43998903Y13940344D02*
X43998903Y13940582D01*
X43998903Y13940582D02*
X43998950Y13940678D01*
X43998950Y13940678D02*
X43998998Y13940725D01*
X43998998Y13940725D02*
X43999093Y13940773D01*
X43999093Y13940773D02*
X43999284Y13940773D01*
X43999284Y13940773D02*
X43999379Y13940725D01*
X43999379Y13940725D02*
X43999426Y13940678D01*
X43999426Y13940678D02*
X43999474Y13940582D01*
X43998570Y13941154D02*
X43997903Y13941154D01*
X43997903Y13941154D02*
X43998332Y13940154D01*
X43996951Y13940249D02*
X43996999Y13940201D01*
X43996999Y13940201D02*
X43997141Y13940154D01*
X43997141Y13940154D02*
X43997237Y13940154D01*
X43997237Y13940154D02*
X43997380Y13940201D01*
X43997380Y13940201D02*
X43997475Y13940297D01*
X43997475Y13940297D02*
X43997522Y13940392D01*
X43997522Y13940392D02*
X43997570Y13940582D01*
X43997570Y13940582D02*
X43997570Y13940725D01*
X43997570Y13940725D02*
X43997522Y13940916D01*
X43997522Y13940916D02*
X43997475Y13941011D01*
X43997475Y13941011D02*
X43997380Y13941106D01*
X43997380Y13941106D02*
X43997237Y13941154D01*
X43997237Y13941154D02*
X43997141Y13941154D01*
X43997141Y13941154D02*
X43996999Y13941106D01*
X43996999Y13941106D02*
X43996951Y13941059D01*
X43995951Y13940249D02*
X43995999Y13940201D01*
X43995999Y13940201D02*
X43996141Y13940154D01*
X43996141Y13940154D02*
X43996237Y13940154D01*
X43996237Y13940154D02*
X43996380Y13940201D01*
X43996380Y13940201D02*
X43996475Y13940297D01*
X43996475Y13940297D02*
X43996522Y13940392D01*
X43996522Y13940392D02*
X43996570Y13940582D01*
X43996570Y13940582D02*
X43996570Y13940725D01*
X43996570Y13940725D02*
X43996522Y13940916D01*
X43996522Y13940916D02*
X43996475Y13941011D01*
X43996475Y13941011D02*
X43996380Y13941106D01*
X43996380Y13941106D02*
X43996237Y13941154D01*
X43996237Y13941154D02*
X43996141Y13941154D01*
X43996141Y13941154D02*
X43995999Y13941106D01*
X43995999Y13941106D02*
X43995951Y13941059D01*
X43995094Y13941154D02*
X43995284Y13941154D01*
X43995284Y13941154D02*
X43995380Y13941106D01*
X43995380Y13941106D02*
X43995427Y13941059D01*
X43995427Y13941059D02*
X43995522Y13940916D01*
X43995522Y13940916D02*
X43995570Y13940725D01*
X43995570Y13940725D02*
X43995570Y13940344D01*
X43995570Y13940344D02*
X43995522Y13940249D01*
X43995522Y13940249D02*
X43995475Y13940201D01*
X43995475Y13940201D02*
X43995380Y13940154D01*
X43995380Y13940154D02*
X43995189Y13940154D01*
X43995189Y13940154D02*
X43995094Y13940201D01*
X43995094Y13940201D02*
X43995046Y13940249D01*
X43995046Y13940249D02*
X43994999Y13940344D01*
X43994999Y13940344D02*
X43994999Y13940582D01*
X43994999Y13940582D02*
X43995046Y13940678D01*
X43995046Y13940678D02*
X43995094Y13940725D01*
X43995094Y13940725D02*
X43995189Y13940773D01*
X43995189Y13940773D02*
X43995380Y13940773D01*
X43995380Y13940773D02*
X43995475Y13940725D01*
X43995475Y13940725D02*
X43995522Y13940678D01*
X43995522Y13940678D02*
X43995570Y13940582D01*
X43994570Y13940154D02*
X43994570Y13941154D01*
X43994570Y13941154D02*
X43994332Y13941154D01*
X43994332Y13941154D02*
X43994189Y13941106D01*
X43994189Y13941106D02*
X43994094Y13941011D01*
X43994094Y13941011D02*
X43994047Y13940916D01*
X43994047Y13940916D02*
X43993999Y13940725D01*
X43993999Y13940725D02*
X43993999Y13940582D01*
X43993999Y13940582D02*
X43994047Y13940392D01*
X43994047Y13940392D02*
X43994094Y13940297D01*
X43994094Y13940297D02*
X43994189Y13940201D01*
X43994189Y13940201D02*
X43994332Y13940154D01*
X43994332Y13940154D02*
X43994570Y13940154D01*
X43993523Y13940154D02*
X43993332Y13940154D01*
X43993332Y13940154D02*
X43993237Y13940201D01*
X43993237Y13940201D02*
X43993189Y13940249D01*
X43993189Y13940249D02*
X43993094Y13940392D01*
X43993094Y13940392D02*
X43993047Y13940582D01*
X43993047Y13940582D02*
X43993047Y13940963D01*
X43993047Y13940963D02*
X43993094Y13941059D01*
X43993094Y13941059D02*
X43993142Y13941106D01*
X43993142Y13941106D02*
X43993237Y13941154D01*
X43993237Y13941154D02*
X43993428Y13941154D01*
X43993428Y13941154D02*
X43993523Y13941106D01*
X43993523Y13941106D02*
X43993570Y13941059D01*
X43993570Y13941059D02*
X43993618Y13940963D01*
X43993618Y13940963D02*
X43993618Y13940725D01*
X43993618Y13940725D02*
X43993570Y13940630D01*
X43993570Y13940630D02*
X43993523Y13940582D01*
X43993523Y13940582D02*
X43993428Y13940535D01*
X43993428Y13940535D02*
X43993237Y13940535D01*
X43993237Y13940535D02*
X43993142Y13940582D01*
X43993142Y13940582D02*
X43993094Y13940630D01*
X43993094Y13940630D02*
X43993047Y13940725D01*
X43992618Y13940678D02*
X43992285Y13940678D01*
X43992142Y13940154D02*
X43992618Y13940154D01*
X43992618Y13940154D02*
X43992618Y13941154D01*
X43992618Y13941154D02*
X43992142Y13941154D01*
X38687728Y-1188320D02*
X38687728Y-1187320D01*
X38687633Y-1187939D02*
X38687347Y-1188320D01*
X38687347Y-1187653D02*
X38687728Y-1188034D01*
X38686918Y-1188320D02*
X38686918Y-1187653D01*
X38686918Y-1187320D02*
X38686966Y-1187368D01*
X38686966Y-1187368D02*
X38686918Y-1187415D01*
X38686918Y-1187415D02*
X38686871Y-1187368D01*
X38686871Y-1187368D02*
X38686918Y-1187320D01*
X38686918Y-1187320D02*
X38686918Y-1187415D01*
X38686442Y-1188320D02*
X38686442Y-1187320D01*
X38686442Y-1187701D02*
X38686347Y-1187653D01*
X38686347Y-1187653D02*
X38686157Y-1187653D01*
X38686157Y-1187653D02*
X38686061Y-1187701D01*
X38686061Y-1187701D02*
X38686014Y-1187749D01*
X38686014Y-1187749D02*
X38685966Y-1187844D01*
X38685966Y-1187844D02*
X38685966Y-1188130D01*
X38685966Y-1188130D02*
X38686014Y-1188225D01*
X38686014Y-1188225D02*
X38686061Y-1188273D01*
X38686061Y-1188273D02*
X38686157Y-1188320D01*
X38686157Y-1188320D02*
X38686347Y-1188320D01*
X38686347Y-1188320D02*
X38686442Y-1188273D01*
X38685109Y-1187653D02*
X38685109Y-1188320D01*
X38685537Y-1187653D02*
X38685537Y-1188177D01*
X38685537Y-1188177D02*
X38685490Y-1188273D01*
X38685490Y-1188273D02*
X38685395Y-1188320D01*
X38685395Y-1188320D02*
X38685252Y-1188320D01*
X38685252Y-1188320D02*
X38685156Y-1188273D01*
X38685156Y-1188273D02*
X38685109Y-1188225D01*
X38684728Y-1187653D02*
X38684204Y-1187653D01*
X38684204Y-1187653D02*
X38684728Y-1188320D01*
X38684728Y-1188320D02*
X38684204Y-1188320D01*
X38683918Y-1187653D02*
X38683394Y-1187653D01*
X38683394Y-1187653D02*
X38683918Y-1188320D01*
X38683918Y-1188320D02*
X38683394Y-1188320D01*
X38682584Y-1188320D02*
X38682584Y-1187796D01*
X38682584Y-1187796D02*
X38682631Y-1187701D01*
X38682631Y-1187701D02*
X38682727Y-1187653D01*
X38682727Y-1187653D02*
X38682917Y-1187653D01*
X38682917Y-1187653D02*
X38683012Y-1187701D01*
X38682584Y-1188273D02*
X38682679Y-1188320D01*
X38682679Y-1188320D02*
X38682917Y-1188320D01*
X38682917Y-1188320D02*
X38683012Y-1188273D01*
X38683012Y-1188273D02*
X38683060Y-1188177D01*
X38683060Y-1188177D02*
X38683060Y-1188082D01*
X38683060Y-1188082D02*
X38683012Y-1187987D01*
X38683012Y-1187987D02*
X38682917Y-1187939D01*
X38682917Y-1187939D02*
X38682679Y-1187939D01*
X38682679Y-1187939D02*
X38682584Y-1187892D01*
X38682107Y-1188320D02*
X38682107Y-1187653D01*
X38682107Y-1187844D02*
X38682060Y-1187749D01*
X38682060Y-1187749D02*
X38682012Y-1187701D01*
X38682012Y-1187701D02*
X38681917Y-1187653D01*
X38681917Y-1187653D02*
X38681822Y-1187653D01*
X38681060Y-1188320D02*
X38681060Y-1187320D01*
X38681060Y-1188273D02*
X38681155Y-1188320D01*
X38681155Y-1188320D02*
X38681346Y-1188320D01*
X38681346Y-1188320D02*
X38681441Y-1188273D01*
X38681441Y-1188273D02*
X38681488Y-1188225D01*
X38681488Y-1188225D02*
X38681536Y-1188130D01*
X38681536Y-1188130D02*
X38681536Y-1187844D01*
X38681536Y-1187844D02*
X38681488Y-1187749D01*
X38681488Y-1187749D02*
X38681441Y-1187701D01*
X38681441Y-1187701D02*
X38681346Y-1187653D01*
X38681346Y-1187653D02*
X38681155Y-1187653D01*
X38681155Y-1187653D02*
X38681060Y-1187701D01*
X38680583Y-1187939D02*
X38679822Y-1187939D01*
X38678917Y-1187320D02*
X38679107Y-1187320D01*
X38679107Y-1187320D02*
X38679203Y-1187368D01*
X38679203Y-1187368D02*
X38679250Y-1187415D01*
X38679250Y-1187415D02*
X38679345Y-1187558D01*
X38679345Y-1187558D02*
X38679393Y-1187749D01*
X38679393Y-1187749D02*
X38679393Y-1188130D01*
X38679393Y-1188130D02*
X38679345Y-1188225D01*
X38679345Y-1188225D02*
X38679298Y-1188273D01*
X38679298Y-1188273D02*
X38679203Y-1188320D01*
X38679203Y-1188320D02*
X38679012Y-1188320D01*
X38679012Y-1188320D02*
X38678917Y-1188273D01*
X38678917Y-1188273D02*
X38678869Y-1188225D01*
X38678869Y-1188225D02*
X38678822Y-1188130D01*
X38678822Y-1188130D02*
X38678822Y-1187892D01*
X38678822Y-1187892D02*
X38678869Y-1187796D01*
X38678869Y-1187796D02*
X38678917Y-1187749D01*
X38678917Y-1187749D02*
X38679012Y-1187701D01*
X38679012Y-1187701D02*
X38679203Y-1187701D01*
X38679203Y-1187701D02*
X38679298Y-1187749D01*
X38679298Y-1187749D02*
X38679345Y-1187796D01*
X38679345Y-1187796D02*
X38679393Y-1187892D01*
X38678489Y-1187320D02*
X38677822Y-1187320D01*
X38677822Y-1187320D02*
X38678251Y-1188320D01*
X38676870Y-1188225D02*
X38676918Y-1188273D01*
X38676918Y-1188273D02*
X38677060Y-1188320D01*
X38677060Y-1188320D02*
X38677156Y-1188320D01*
X38677156Y-1188320D02*
X38677299Y-1188273D01*
X38677299Y-1188273D02*
X38677394Y-1188177D01*
X38677394Y-1188177D02*
X38677441Y-1188082D01*
X38677441Y-1188082D02*
X38677489Y-1187892D01*
X38677489Y-1187892D02*
X38677489Y-1187749D01*
X38677489Y-1187749D02*
X38677441Y-1187558D01*
X38677441Y-1187558D02*
X38677394Y-1187463D01*
X38677394Y-1187463D02*
X38677299Y-1187368D01*
X38677299Y-1187368D02*
X38677156Y-1187320D01*
X38677156Y-1187320D02*
X38677060Y-1187320D01*
X38677060Y-1187320D02*
X38676918Y-1187368D01*
X38676918Y-1187368D02*
X38676870Y-1187415D01*
X38675870Y-1188225D02*
X38675918Y-1188273D01*
X38675918Y-1188273D02*
X38676060Y-1188320D01*
X38676060Y-1188320D02*
X38676156Y-1188320D01*
X38676156Y-1188320D02*
X38676299Y-1188273D01*
X38676299Y-1188273D02*
X38676394Y-1188177D01*
X38676394Y-1188177D02*
X38676441Y-1188082D01*
X38676441Y-1188082D02*
X38676489Y-1187892D01*
X38676489Y-1187892D02*
X38676489Y-1187749D01*
X38676489Y-1187749D02*
X38676441Y-1187558D01*
X38676441Y-1187558D02*
X38676394Y-1187463D01*
X38676394Y-1187463D02*
X38676299Y-1187368D01*
X38676299Y-1187368D02*
X38676156Y-1187320D01*
X38676156Y-1187320D02*
X38676060Y-1187320D01*
X38676060Y-1187320D02*
X38675918Y-1187368D01*
X38675918Y-1187368D02*
X38675870Y-1187415D01*
X38675537Y-1187320D02*
X38674870Y-1187320D01*
X38674870Y-1187320D02*
X38675299Y-1188320D01*
X38674061Y-1187653D02*
X38674061Y-1188320D01*
X38674299Y-1187273D02*
X38674537Y-1187987D01*
X38674537Y-1187987D02*
X38673918Y-1187987D01*
X38673109Y-1187653D02*
X38673109Y-1188320D01*
X38673347Y-1187273D02*
X38673585Y-1187987D01*
X38673585Y-1187987D02*
X38672966Y-1187987D01*
X38672109Y-1187320D02*
X38672585Y-1187320D01*
X38672585Y-1187320D02*
X38672633Y-1187796D01*
X38672633Y-1187796D02*
X38672585Y-1187749D01*
X38672585Y-1187749D02*
X38672490Y-1187701D01*
X38672490Y-1187701D02*
X38672252Y-1187701D01*
X38672252Y-1187701D02*
X38672157Y-1187749D01*
X38672157Y-1187749D02*
X38672109Y-1187796D01*
X38672109Y-1187796D02*
X38672062Y-1187892D01*
X38672062Y-1187892D02*
X38672062Y-1188130D01*
X38672062Y-1188130D02*
X38672109Y-1188225D01*
X38672109Y-1188225D02*
X38672157Y-1188273D01*
X38672157Y-1188273D02*
X38672252Y-1188320D01*
X38672252Y-1188320D02*
X38672490Y-1188320D01*
X38672490Y-1188320D02*
X38672585Y-1188273D01*
X38672585Y-1188273D02*
X38672633Y-1188225D01*
X44107832Y15293015D02*
X44107832Y15294015D01*
X44107737Y15293396D02*
X44107451Y15293015D01*
X44107451Y15293682D02*
X44107832Y15293301D01*
X44107022Y15293015D02*
X44107022Y15293682D01*
X44107022Y15294015D02*
X44107070Y15293967D01*
X44107070Y15293967D02*
X44107022Y15293920D01*
X44107022Y15293920D02*
X44106975Y15293967D01*
X44106975Y15293967D02*
X44107022Y15294015D01*
X44107022Y15294015D02*
X44107022Y15293920D01*
X44106546Y15293015D02*
X44106546Y15294015D01*
X44106546Y15293634D02*
X44106451Y15293682D01*
X44106451Y15293682D02*
X44106261Y15293682D01*
X44106261Y15293682D02*
X44106165Y15293634D01*
X44106165Y15293634D02*
X44106118Y15293586D01*
X44106118Y15293586D02*
X44106070Y15293491D01*
X44106070Y15293491D02*
X44106070Y15293205D01*
X44106070Y15293205D02*
X44106118Y15293110D01*
X44106118Y15293110D02*
X44106165Y15293062D01*
X44106165Y15293062D02*
X44106261Y15293015D01*
X44106261Y15293015D02*
X44106451Y15293015D01*
X44106451Y15293015D02*
X44106546Y15293062D01*
X44105213Y15293682D02*
X44105213Y15293015D01*
X44105641Y15293682D02*
X44105641Y15293158D01*
X44105641Y15293158D02*
X44105594Y15293062D01*
X44105594Y15293062D02*
X44105499Y15293015D01*
X44105499Y15293015D02*
X44105356Y15293015D01*
X44105356Y15293015D02*
X44105260Y15293062D01*
X44105260Y15293062D02*
X44105213Y15293110D01*
X44104832Y15293682D02*
X44104308Y15293682D01*
X44104308Y15293682D02*
X44104832Y15293015D01*
X44104832Y15293015D02*
X44104308Y15293015D01*
X44104022Y15293682D02*
X44103498Y15293682D01*
X44103498Y15293682D02*
X44104022Y15293015D01*
X44104022Y15293015D02*
X44103498Y15293015D01*
X44102688Y15293015D02*
X44102688Y15293539D01*
X44102688Y15293539D02*
X44102735Y15293634D01*
X44102735Y15293634D02*
X44102831Y15293682D01*
X44102831Y15293682D02*
X44103021Y15293682D01*
X44103021Y15293682D02*
X44103116Y15293634D01*
X44102688Y15293062D02*
X44102783Y15293015D01*
X44102783Y15293015D02*
X44103021Y15293015D01*
X44103021Y15293015D02*
X44103116Y15293062D01*
X44103116Y15293062D02*
X44103164Y15293158D01*
X44103164Y15293158D02*
X44103164Y15293253D01*
X44103164Y15293253D02*
X44103116Y15293348D01*
X44103116Y15293348D02*
X44103021Y15293396D01*
X44103021Y15293396D02*
X44102783Y15293396D01*
X44102783Y15293396D02*
X44102688Y15293443D01*
X44102211Y15293015D02*
X44102211Y15293682D01*
X44102211Y15293491D02*
X44102164Y15293586D01*
X44102164Y15293586D02*
X44102116Y15293634D01*
X44102116Y15293634D02*
X44102021Y15293682D01*
X44102021Y15293682D02*
X44101926Y15293682D01*
X44101164Y15293015D02*
X44101164Y15294015D01*
X44101164Y15293062D02*
X44101259Y15293015D01*
X44101259Y15293015D02*
X44101450Y15293015D01*
X44101450Y15293015D02*
X44101545Y15293062D01*
X44101545Y15293062D02*
X44101592Y15293110D01*
X44101592Y15293110D02*
X44101640Y15293205D01*
X44101640Y15293205D02*
X44101640Y15293491D01*
X44101640Y15293491D02*
X44101592Y15293586D01*
X44101592Y15293586D02*
X44101545Y15293634D01*
X44101545Y15293634D02*
X44101450Y15293682D01*
X44101450Y15293682D02*
X44101259Y15293682D01*
X44101259Y15293682D02*
X44101164Y15293634D01*
X44100687Y15293396D02*
X44099926Y15293396D01*
X44099021Y15294015D02*
X44099211Y15294015D01*
X44099211Y15294015D02*
X44099307Y15293967D01*
X44099307Y15293967D02*
X44099354Y15293920D01*
X44099354Y15293920D02*
X44099449Y15293777D01*
X44099449Y15293777D02*
X44099497Y15293586D01*
X44099497Y15293586D02*
X44099497Y15293205D01*
X44099497Y15293205D02*
X44099449Y15293110D01*
X44099449Y15293110D02*
X44099402Y15293062D01*
X44099402Y15293062D02*
X44099307Y15293015D01*
X44099307Y15293015D02*
X44099116Y15293015D01*
X44099116Y15293015D02*
X44099021Y15293062D01*
X44099021Y15293062D02*
X44098973Y15293110D01*
X44098973Y15293110D02*
X44098926Y15293205D01*
X44098926Y15293205D02*
X44098926Y15293443D01*
X44098926Y15293443D02*
X44098973Y15293539D01*
X44098973Y15293539D02*
X44099021Y15293586D01*
X44099021Y15293586D02*
X44099116Y15293634D01*
X44099116Y15293634D02*
X44099307Y15293634D01*
X44099307Y15293634D02*
X44099402Y15293586D01*
X44099402Y15293586D02*
X44099449Y15293539D01*
X44099449Y15293539D02*
X44099497Y15293443D01*
X44098593Y15294015D02*
X44097926Y15294015D01*
X44097926Y15294015D02*
X44098355Y15293015D01*
X44096974Y15293110D02*
X44097022Y15293062D01*
X44097022Y15293062D02*
X44097164Y15293015D01*
X44097164Y15293015D02*
X44097260Y15293015D01*
X44097260Y15293015D02*
X44097403Y15293062D01*
X44097403Y15293062D02*
X44097498Y15293158D01*
X44097498Y15293158D02*
X44097545Y15293253D01*
X44097545Y15293253D02*
X44097593Y15293443D01*
X44097593Y15293443D02*
X44097593Y15293586D01*
X44097593Y15293586D02*
X44097545Y15293777D01*
X44097545Y15293777D02*
X44097498Y15293872D01*
X44097498Y15293872D02*
X44097403Y15293967D01*
X44097403Y15293967D02*
X44097260Y15294015D01*
X44097260Y15294015D02*
X44097164Y15294015D01*
X44097164Y15294015D02*
X44097022Y15293967D01*
X44097022Y15293967D02*
X44096974Y15293920D01*
X44095974Y15293110D02*
X44096022Y15293062D01*
X44096022Y15293062D02*
X44096164Y15293015D01*
X44096164Y15293015D02*
X44096260Y15293015D01*
X44096260Y15293015D02*
X44096403Y15293062D01*
X44096403Y15293062D02*
X44096498Y15293158D01*
X44096498Y15293158D02*
X44096545Y15293253D01*
X44096545Y15293253D02*
X44096593Y15293443D01*
X44096593Y15293443D02*
X44096593Y15293586D01*
X44096593Y15293586D02*
X44096545Y15293777D01*
X44096545Y15293777D02*
X44096498Y15293872D01*
X44096498Y15293872D02*
X44096403Y15293967D01*
X44096403Y15293967D02*
X44096260Y15294015D01*
X44096260Y15294015D02*
X44096164Y15294015D01*
X44096164Y15294015D02*
X44096022Y15293967D01*
X44096022Y15293967D02*
X44095974Y15293920D01*
X44095117Y15294015D02*
X44095307Y15294015D01*
X44095307Y15294015D02*
X44095403Y15293967D01*
X44095403Y15293967D02*
X44095450Y15293920D01*
X44095450Y15293920D02*
X44095545Y15293777D01*
X44095545Y15293777D02*
X44095593Y15293586D01*
X44095593Y15293586D02*
X44095593Y15293205D01*
X44095593Y15293205D02*
X44095545Y15293110D01*
X44095545Y15293110D02*
X44095498Y15293062D01*
X44095498Y15293062D02*
X44095403Y15293015D01*
X44095403Y15293015D02*
X44095212Y15293015D01*
X44095212Y15293015D02*
X44095117Y15293062D01*
X44095117Y15293062D02*
X44095069Y15293110D01*
X44095069Y15293110D02*
X44095022Y15293205D01*
X44095022Y15293205D02*
X44095022Y15293443D01*
X44095022Y15293443D02*
X44095069Y15293539D01*
X44095069Y15293539D02*
X44095117Y15293586D01*
X44095117Y15293586D02*
X44095212Y15293634D01*
X44095212Y15293634D02*
X44095403Y15293634D01*
X44095403Y15293634D02*
X44095498Y15293586D01*
X44095498Y15293586D02*
X44095545Y15293539D01*
X44095545Y15293539D02*
X44095593Y15293443D01*
X44094593Y15293015D02*
X44094593Y15294015D01*
X44094593Y15294015D02*
X44094355Y15294015D01*
X44094355Y15294015D02*
X44094212Y15293967D01*
X44094212Y15293967D02*
X44094117Y15293872D01*
X44094117Y15293872D02*
X44094070Y15293777D01*
X44094070Y15293777D02*
X44094022Y15293586D01*
X44094022Y15293586D02*
X44094022Y15293443D01*
X44094022Y15293443D02*
X44094070Y15293253D01*
X44094070Y15293253D02*
X44094117Y15293158D01*
X44094117Y15293158D02*
X44094212Y15293062D01*
X44094212Y15293062D02*
X44094355Y15293015D01*
X44094355Y15293015D02*
X44094593Y15293015D01*
X44093546Y15293015D02*
X44093355Y15293015D01*
X44093355Y15293015D02*
X44093260Y15293062D01*
X44093260Y15293062D02*
X44093212Y15293110D01*
X44093212Y15293110D02*
X44093117Y15293253D01*
X44093117Y15293253D02*
X44093070Y15293443D01*
X44093070Y15293443D02*
X44093070Y15293824D01*
X44093070Y15293824D02*
X44093117Y15293920D01*
X44093117Y15293920D02*
X44093165Y15293967D01*
X44093165Y15293967D02*
X44093260Y15294015D01*
X44093260Y15294015D02*
X44093451Y15294015D01*
X44093451Y15294015D02*
X44093546Y15293967D01*
X44093546Y15293967D02*
X44093593Y15293920D01*
X44093593Y15293920D02*
X44093641Y15293824D01*
X44093641Y15293824D02*
X44093641Y15293586D01*
X44093641Y15293586D02*
X44093593Y15293491D01*
X44093593Y15293491D02*
X44093546Y15293443D01*
X44093546Y15293443D02*
X44093451Y15293396D01*
X44093451Y15293396D02*
X44093260Y15293396D01*
X44093260Y15293396D02*
X44093165Y15293443D01*
X44093165Y15293443D02*
X44093117Y15293491D01*
X44093117Y15293491D02*
X44093070Y15293586D01*
X44092213Y15293682D02*
X44092213Y15293015D01*
X44092451Y15294062D02*
X44092689Y15293348D01*
X44092689Y15293348D02*
X44092070Y15293348D01*
X48207761Y3296663D02*
X48207761Y3297663D01*
X48207666Y3297044D02*
X48207380Y3296663D01*
X48207380Y3297330D02*
X48207761Y3296949D01*
X48206951Y3296663D02*
X48206951Y3297330D01*
X48206951Y3297663D02*
X48206999Y3297615D01*
X48206999Y3297615D02*
X48206951Y3297568D01*
X48206951Y3297568D02*
X48206904Y3297615D01*
X48206904Y3297615D02*
X48206951Y3297663D01*
X48206951Y3297663D02*
X48206951Y3297568D01*
X48206475Y3296663D02*
X48206475Y3297663D01*
X48206475Y3297282D02*
X48206380Y3297330D01*
X48206380Y3297330D02*
X48206190Y3297330D01*
X48206190Y3297330D02*
X48206094Y3297282D01*
X48206094Y3297282D02*
X48206047Y3297234D01*
X48206047Y3297234D02*
X48205999Y3297139D01*
X48205999Y3297139D02*
X48205999Y3296853D01*
X48205999Y3296853D02*
X48206047Y3296758D01*
X48206047Y3296758D02*
X48206094Y3296710D01*
X48206094Y3296710D02*
X48206190Y3296663D01*
X48206190Y3296663D02*
X48206380Y3296663D01*
X48206380Y3296663D02*
X48206475Y3296710D01*
X48205142Y3297330D02*
X48205142Y3296663D01*
X48205570Y3297330D02*
X48205570Y3296806D01*
X48205570Y3296806D02*
X48205523Y3296710D01*
X48205523Y3296710D02*
X48205428Y3296663D01*
X48205428Y3296663D02*
X48205285Y3296663D01*
X48205285Y3296663D02*
X48205189Y3296710D01*
X48205189Y3296710D02*
X48205142Y3296758D01*
X48204761Y3297330D02*
X48204237Y3297330D01*
X48204237Y3297330D02*
X48204761Y3296663D01*
X48204761Y3296663D02*
X48204237Y3296663D01*
X48203951Y3297330D02*
X48203427Y3297330D01*
X48203427Y3297330D02*
X48203951Y3296663D01*
X48203951Y3296663D02*
X48203427Y3296663D01*
X48202617Y3296663D02*
X48202617Y3297187D01*
X48202617Y3297187D02*
X48202664Y3297282D01*
X48202664Y3297282D02*
X48202760Y3297330D01*
X48202760Y3297330D02*
X48202950Y3297330D01*
X48202950Y3297330D02*
X48203045Y3297282D01*
X48202617Y3296710D02*
X48202712Y3296663D01*
X48202712Y3296663D02*
X48202950Y3296663D01*
X48202950Y3296663D02*
X48203045Y3296710D01*
X48203045Y3296710D02*
X48203093Y3296806D01*
X48203093Y3296806D02*
X48203093Y3296901D01*
X48203093Y3296901D02*
X48203045Y3296996D01*
X48203045Y3296996D02*
X48202950Y3297044D01*
X48202950Y3297044D02*
X48202712Y3297044D01*
X48202712Y3297044D02*
X48202617Y3297091D01*
X48202140Y3296663D02*
X48202140Y3297330D01*
X48202140Y3297139D02*
X48202093Y3297234D01*
X48202093Y3297234D02*
X48202045Y3297282D01*
X48202045Y3297282D02*
X48201950Y3297330D01*
X48201950Y3297330D02*
X48201855Y3297330D01*
X48201093Y3296663D02*
X48201093Y3297663D01*
X48201093Y3296710D02*
X48201188Y3296663D01*
X48201188Y3296663D02*
X48201379Y3296663D01*
X48201379Y3296663D02*
X48201474Y3296710D01*
X48201474Y3296710D02*
X48201521Y3296758D01*
X48201521Y3296758D02*
X48201569Y3296853D01*
X48201569Y3296853D02*
X48201569Y3297139D01*
X48201569Y3297139D02*
X48201521Y3297234D01*
X48201521Y3297234D02*
X48201474Y3297282D01*
X48201474Y3297282D02*
X48201379Y3297330D01*
X48201379Y3297330D02*
X48201188Y3297330D01*
X48201188Y3297330D02*
X48201093Y3297282D01*
X48200616Y3297044D02*
X48199855Y3297044D01*
X48198950Y3297663D02*
X48199140Y3297663D01*
X48199140Y3297663D02*
X48199236Y3297615D01*
X48199236Y3297615D02*
X48199283Y3297568D01*
X48199283Y3297568D02*
X48199378Y3297425D01*
X48199378Y3297425D02*
X48199426Y3297234D01*
X48199426Y3297234D02*
X48199426Y3296853D01*
X48199426Y3296853D02*
X48199378Y3296758D01*
X48199378Y3296758D02*
X48199331Y3296710D01*
X48199331Y3296710D02*
X48199236Y3296663D01*
X48199236Y3296663D02*
X48199045Y3296663D01*
X48199045Y3296663D02*
X48198950Y3296710D01*
X48198950Y3296710D02*
X48198902Y3296758D01*
X48198902Y3296758D02*
X48198855Y3296853D01*
X48198855Y3296853D02*
X48198855Y3297091D01*
X48198855Y3297091D02*
X48198902Y3297187D01*
X48198902Y3297187D02*
X48198950Y3297234D01*
X48198950Y3297234D02*
X48199045Y3297282D01*
X48199045Y3297282D02*
X48199236Y3297282D01*
X48199236Y3297282D02*
X48199331Y3297234D01*
X48199331Y3297234D02*
X48199378Y3297187D01*
X48199378Y3297187D02*
X48199426Y3297091D01*
X48198522Y3297663D02*
X48197855Y3297663D01*
X48197855Y3297663D02*
X48198284Y3296663D01*
X48197474Y3297187D02*
X48197141Y3297187D01*
X48196998Y3296663D02*
X48197474Y3296663D01*
X48197474Y3296663D02*
X48197474Y3297663D01*
X48197474Y3297663D02*
X48196998Y3297663D01*
X48196236Y3297187D02*
X48196093Y3297139D01*
X48196093Y3297139D02*
X48196046Y3297091D01*
X48196046Y3297091D02*
X48195998Y3296996D01*
X48195998Y3296996D02*
X48195998Y3296853D01*
X48195998Y3296853D02*
X48196046Y3296758D01*
X48196046Y3296758D02*
X48196093Y3296710D01*
X48196093Y3296710D02*
X48196188Y3296663D01*
X48196188Y3296663D02*
X48196569Y3296663D01*
X48196569Y3296663D02*
X48196569Y3297663D01*
X48196569Y3297663D02*
X48196236Y3297663D01*
X48196236Y3297663D02*
X48196141Y3297615D01*
X48196141Y3297615D02*
X48196093Y3297568D01*
X48196093Y3297568D02*
X48196046Y3297472D01*
X48196046Y3297472D02*
X48196046Y3297377D01*
X48196046Y3297377D02*
X48196093Y3297282D01*
X48196093Y3297282D02*
X48196141Y3297234D01*
X48196141Y3297234D02*
X48196236Y3297187D01*
X48196236Y3297187D02*
X48196569Y3297187D01*
X48195617Y3296949D02*
X48195141Y3296949D01*
X48195712Y3296663D02*
X48195379Y3297663D01*
X48195379Y3297663D02*
X48195046Y3296663D01*
X48194141Y3296758D02*
X48194189Y3296710D01*
X48194189Y3296710D02*
X48194331Y3296663D01*
X48194331Y3296663D02*
X48194427Y3296663D01*
X48194427Y3296663D02*
X48194570Y3296710D01*
X48194570Y3296710D02*
X48194665Y3296806D01*
X48194665Y3296806D02*
X48194712Y3296901D01*
X48194712Y3296901D02*
X48194760Y3297091D01*
X48194760Y3297091D02*
X48194760Y3297234D01*
X48194760Y3297234D02*
X48194712Y3297425D01*
X48194712Y3297425D02*
X48194665Y3297520D01*
X48194665Y3297520D02*
X48194570Y3297615D01*
X48194570Y3297615D02*
X48194427Y3297663D01*
X48194427Y3297663D02*
X48194331Y3297663D01*
X48194331Y3297663D02*
X48194189Y3297615D01*
X48194189Y3297615D02*
X48194141Y3297568D01*
X48193284Y3297330D02*
X48193284Y3296663D01*
X48193522Y3297710D02*
X48193760Y3296996D01*
X48193760Y3296996D02*
X48193141Y3296996D01*
X48192189Y3296758D02*
X48192237Y3296710D01*
X48192237Y3296710D02*
X48192379Y3296663D01*
X48192379Y3296663D02*
X48192475Y3296663D01*
X48192475Y3296663D02*
X48192618Y3296710D01*
X48192618Y3296710D02*
X48192713Y3296806D01*
X48192713Y3296806D02*
X48192760Y3296901D01*
X48192760Y3296901D02*
X48192808Y3297091D01*
X48192808Y3297091D02*
X48192808Y3297234D01*
X48192808Y3297234D02*
X48192760Y3297425D01*
X48192760Y3297425D02*
X48192713Y3297520D01*
X48192713Y3297520D02*
X48192618Y3297615D01*
X48192618Y3297615D02*
X48192475Y3297663D01*
X48192475Y3297663D02*
X48192379Y3297663D01*
X48192379Y3297663D02*
X48192237Y3297615D01*
X48192237Y3297615D02*
X48192189Y3297568D01*
X47207760Y6648809D02*
X47207760Y6649809D01*
X47207665Y6649190D02*
X47207379Y6648809D01*
X47207379Y6649476D02*
X47207760Y6649095D01*
X47206950Y6648809D02*
X47206950Y6649476D01*
X47206950Y6649809D02*
X47206998Y6649761D01*
X47206998Y6649761D02*
X47206950Y6649714D01*
X47206950Y6649714D02*
X47206903Y6649761D01*
X47206903Y6649761D02*
X47206950Y6649809D01*
X47206950Y6649809D02*
X47206950Y6649714D01*
X47206474Y6648809D02*
X47206474Y6649809D01*
X47206474Y6649428D02*
X47206379Y6649476D01*
X47206379Y6649476D02*
X47206189Y6649476D01*
X47206189Y6649476D02*
X47206093Y6649428D01*
X47206093Y6649428D02*
X47206046Y6649380D01*
X47206046Y6649380D02*
X47205998Y6649285D01*
X47205998Y6649285D02*
X47205998Y6648999D01*
X47205998Y6648999D02*
X47206046Y6648904D01*
X47206046Y6648904D02*
X47206093Y6648856D01*
X47206093Y6648856D02*
X47206189Y6648809D01*
X47206189Y6648809D02*
X47206379Y6648809D01*
X47206379Y6648809D02*
X47206474Y6648856D01*
X47205141Y6649476D02*
X47205141Y6648809D01*
X47205569Y6649476D02*
X47205569Y6648952D01*
X47205569Y6648952D02*
X47205522Y6648856D01*
X47205522Y6648856D02*
X47205427Y6648809D01*
X47205427Y6648809D02*
X47205284Y6648809D01*
X47205284Y6648809D02*
X47205188Y6648856D01*
X47205188Y6648856D02*
X47205141Y6648904D01*
X47204760Y6649476D02*
X47204236Y6649476D01*
X47204236Y6649476D02*
X47204760Y6648809D01*
X47204760Y6648809D02*
X47204236Y6648809D01*
X47203950Y6649476D02*
X47203426Y6649476D01*
X47203426Y6649476D02*
X47203950Y6648809D01*
X47203950Y6648809D02*
X47203426Y6648809D01*
X47202616Y6648809D02*
X47202616Y6649333D01*
X47202616Y6649333D02*
X47202663Y6649428D01*
X47202663Y6649428D02*
X47202759Y6649476D01*
X47202759Y6649476D02*
X47202949Y6649476D01*
X47202949Y6649476D02*
X47203044Y6649428D01*
X47202616Y6648856D02*
X47202711Y6648809D01*
X47202711Y6648809D02*
X47202949Y6648809D01*
X47202949Y6648809D02*
X47203044Y6648856D01*
X47203044Y6648856D02*
X47203092Y6648952D01*
X47203092Y6648952D02*
X47203092Y6649047D01*
X47203092Y6649047D02*
X47203044Y6649142D01*
X47203044Y6649142D02*
X47202949Y6649190D01*
X47202949Y6649190D02*
X47202711Y6649190D01*
X47202711Y6649190D02*
X47202616Y6649237D01*
X47202139Y6648809D02*
X47202139Y6649476D01*
X47202139Y6649285D02*
X47202092Y6649380D01*
X47202092Y6649380D02*
X47202044Y6649428D01*
X47202044Y6649428D02*
X47201949Y6649476D01*
X47201949Y6649476D02*
X47201854Y6649476D01*
X47201092Y6648809D02*
X47201092Y6649809D01*
X47201092Y6648856D02*
X47201187Y6648809D01*
X47201187Y6648809D02*
X47201378Y6648809D01*
X47201378Y6648809D02*
X47201473Y6648856D01*
X47201473Y6648856D02*
X47201520Y6648904D01*
X47201520Y6648904D02*
X47201568Y6648999D01*
X47201568Y6648999D02*
X47201568Y6649285D01*
X47201568Y6649285D02*
X47201520Y6649380D01*
X47201520Y6649380D02*
X47201473Y6649428D01*
X47201473Y6649428D02*
X47201378Y6649476D01*
X47201378Y6649476D02*
X47201187Y6649476D01*
X47201187Y6649476D02*
X47201092Y6649428D01*
X47200615Y6649190D02*
X47199854Y6649190D01*
X47198949Y6649809D02*
X47199139Y6649809D01*
X47199139Y6649809D02*
X47199235Y6649761D01*
X47199235Y6649761D02*
X47199282Y6649714D01*
X47199282Y6649714D02*
X47199377Y6649571D01*
X47199377Y6649571D02*
X47199425Y6649380D01*
X47199425Y6649380D02*
X47199425Y6648999D01*
X47199425Y6648999D02*
X47199377Y6648904D01*
X47199377Y6648904D02*
X47199330Y6648856D01*
X47199330Y6648856D02*
X47199235Y6648809D01*
X47199235Y6648809D02*
X47199044Y6648809D01*
X47199044Y6648809D02*
X47198949Y6648856D01*
X47198949Y6648856D02*
X47198901Y6648904D01*
X47198901Y6648904D02*
X47198854Y6648999D01*
X47198854Y6648999D02*
X47198854Y6649237D01*
X47198854Y6649237D02*
X47198901Y6649333D01*
X47198901Y6649333D02*
X47198949Y6649380D01*
X47198949Y6649380D02*
X47199044Y6649428D01*
X47199044Y6649428D02*
X47199235Y6649428D01*
X47199235Y6649428D02*
X47199330Y6649380D01*
X47199330Y6649380D02*
X47199377Y6649333D01*
X47199377Y6649333D02*
X47199425Y6649237D01*
X47198521Y6649809D02*
X47197854Y6649809D01*
X47197854Y6649809D02*
X47198283Y6648809D01*
X47197569Y6649809D02*
X47196902Y6649809D01*
X47196902Y6649809D02*
X47197331Y6648809D01*
X47196474Y6648809D02*
X47196283Y6648809D01*
X47196283Y6648809D02*
X47196188Y6648856D01*
X47196188Y6648856D02*
X47196140Y6648904D01*
X47196140Y6648904D02*
X47196045Y6649047D01*
X47196045Y6649047D02*
X47195998Y6649237D01*
X47195998Y6649237D02*
X47195998Y6649618D01*
X47195998Y6649618D02*
X47196045Y6649714D01*
X47196045Y6649714D02*
X47196093Y6649761D01*
X47196093Y6649761D02*
X47196188Y6649809D01*
X47196188Y6649809D02*
X47196379Y6649809D01*
X47196379Y6649809D02*
X47196474Y6649761D01*
X47196474Y6649761D02*
X47196521Y6649714D01*
X47196521Y6649714D02*
X47196569Y6649618D01*
X47196569Y6649618D02*
X47196569Y6649380D01*
X47196569Y6649380D02*
X47196521Y6649285D01*
X47196521Y6649285D02*
X47196474Y6649237D01*
X47196474Y6649237D02*
X47196379Y6649190D01*
X47196379Y6649190D02*
X47196188Y6649190D01*
X47196188Y6649190D02*
X47196093Y6649237D01*
X47196093Y6649237D02*
X47196045Y6649285D01*
X47196045Y6649285D02*
X47195998Y6649380D01*
X47195093Y6649809D02*
X47195569Y6649809D01*
X47195569Y6649809D02*
X47195617Y6649333D01*
X47195617Y6649333D02*
X47195569Y6649380D01*
X47195569Y6649380D02*
X47195474Y6649428D01*
X47195474Y6649428D02*
X47195236Y6649428D01*
X47195236Y6649428D02*
X47195141Y6649380D01*
X47195141Y6649380D02*
X47195093Y6649333D01*
X47195093Y6649333D02*
X47195046Y6649237D01*
X47195046Y6649237D02*
X47195046Y6648999D01*
X47195046Y6648999D02*
X47195093Y6648904D01*
X47195093Y6648904D02*
X47195141Y6648856D01*
X47195141Y6648856D02*
X47195236Y6648809D01*
X47195236Y6648809D02*
X47195474Y6648809D01*
X47195474Y6648809D02*
X47195569Y6648856D01*
X47195569Y6648856D02*
X47195617Y6648904D01*
X47194141Y6649809D02*
X47194617Y6649809D01*
X47194617Y6649809D02*
X47194665Y6649333D01*
X47194665Y6649333D02*
X47194617Y6649380D01*
X47194617Y6649380D02*
X47194522Y6649428D01*
X47194522Y6649428D02*
X47194284Y6649428D01*
X47194284Y6649428D02*
X47194189Y6649380D01*
X47194189Y6649380D02*
X47194141Y6649333D01*
X47194141Y6649333D02*
X47194094Y6649237D01*
X47194094Y6649237D02*
X47194094Y6648999D01*
X47194094Y6648999D02*
X47194141Y6648904D01*
X47194141Y6648904D02*
X47194189Y6648856D01*
X47194189Y6648856D02*
X47194284Y6648809D01*
X47194284Y6648809D02*
X47194522Y6648809D01*
X47194522Y6648809D02*
X47194617Y6648856D01*
X47194617Y6648856D02*
X47194665Y6648904D01*
X47193618Y6648809D02*
X47193427Y6648809D01*
X47193427Y6648809D02*
X47193332Y6648856D01*
X47193332Y6648856D02*
X47193284Y6648904D01*
X47193284Y6648904D02*
X47193189Y6649047D01*
X47193189Y6649047D02*
X47193142Y6649237D01*
X47193142Y6649237D02*
X47193142Y6649618D01*
X47193142Y6649618D02*
X47193189Y6649714D01*
X47193189Y6649714D02*
X47193237Y6649761D01*
X47193237Y6649761D02*
X47193332Y6649809D01*
X47193332Y6649809D02*
X47193523Y6649809D01*
X47193523Y6649809D02*
X47193618Y6649761D01*
X47193618Y6649761D02*
X47193665Y6649714D01*
X47193665Y6649714D02*
X47193713Y6649618D01*
X47193713Y6649618D02*
X47193713Y6649380D01*
X47193713Y6649380D02*
X47193665Y6649285D01*
X47193665Y6649285D02*
X47193618Y6649237D01*
X47193618Y6649237D02*
X47193523Y6649190D01*
X47193523Y6649190D02*
X47193332Y6649190D01*
X47193332Y6649190D02*
X47193237Y6649237D01*
X47193237Y6649237D02*
X47193189Y6649285D01*
X47193189Y6649285D02*
X47193142Y6649380D01*
X47192761Y6649714D02*
X47192713Y6649761D01*
X47192713Y6649761D02*
X47192618Y6649809D01*
X47192618Y6649809D02*
X47192380Y6649809D01*
X47192380Y6649809D02*
X47192285Y6649761D01*
X47192285Y6649761D02*
X47192237Y6649714D01*
X47192237Y6649714D02*
X47192190Y6649618D01*
X47192190Y6649618D02*
X47192190Y6649523D01*
X47192190Y6649523D02*
X47192237Y6649380D01*
X47192237Y6649380D02*
X47192809Y6648809D01*
X47192809Y6648809D02*
X47192190Y6648809D01*
X657666Y45036711D02*
X657666Y45037711D01*
X657571Y45037092D02*
X657285Y45036711D01*
X657285Y45037378D02*
X657666Y45036997D01*
X656856Y45036711D02*
X656856Y45037378D01*
X656856Y45037711D02*
X656904Y45037663D01*
X656904Y45037663D02*
X656856Y45037616D01*
X656856Y45037616D02*
X656809Y45037663D01*
X656809Y45037663D02*
X656856Y45037711D01*
X656856Y45037711D02*
X656856Y45037616D01*
X656380Y45036711D02*
X656380Y45037711D01*
X656380Y45037330D02*
X656285Y45037378D01*
X656285Y45037378D02*
X656095Y45037378D01*
X656095Y45037378D02*
X655999Y45037330D01*
X655999Y45037330D02*
X655952Y45037282D01*
X655952Y45037282D02*
X655904Y45037187D01*
X655904Y45037187D02*
X655904Y45036901D01*
X655904Y45036901D02*
X655952Y45036806D01*
X655952Y45036806D02*
X655999Y45036758D01*
X655999Y45036758D02*
X656095Y45036711D01*
X656095Y45036711D02*
X656285Y45036711D01*
X656285Y45036711D02*
X656380Y45036758D01*
X655047Y45037378D02*
X655047Y45036711D01*
X655475Y45037378D02*
X655475Y45036854D01*
X655475Y45036854D02*
X655428Y45036758D01*
X655428Y45036758D02*
X655333Y45036711D01*
X655333Y45036711D02*
X655190Y45036711D01*
X655190Y45036711D02*
X655094Y45036758D01*
X655094Y45036758D02*
X655047Y45036806D01*
X654666Y45037378D02*
X654142Y45037378D01*
X654142Y45037378D02*
X654666Y45036711D01*
X654666Y45036711D02*
X654142Y45036711D01*
X653856Y45037378D02*
X653332Y45037378D01*
X653332Y45037378D02*
X653856Y45036711D01*
X653856Y45036711D02*
X653332Y45036711D01*
X652522Y45036711D02*
X652522Y45037235D01*
X652522Y45037235D02*
X652569Y45037330D01*
X652569Y45037330D02*
X652665Y45037378D01*
X652665Y45037378D02*
X652855Y45037378D01*
X652855Y45037378D02*
X652950Y45037330D01*
X652522Y45036758D02*
X652617Y45036711D01*
X652617Y45036711D02*
X652855Y45036711D01*
X652855Y45036711D02*
X652950Y45036758D01*
X652950Y45036758D02*
X652998Y45036854D01*
X652998Y45036854D02*
X652998Y45036949D01*
X652998Y45036949D02*
X652950Y45037044D01*
X652950Y45037044D02*
X652855Y45037092D01*
X652855Y45037092D02*
X652617Y45037092D01*
X652617Y45037092D02*
X652522Y45037139D01*
X652045Y45036711D02*
X652045Y45037378D01*
X652045Y45037187D02*
X651998Y45037282D01*
X651998Y45037282D02*
X651950Y45037330D01*
X651950Y45037330D02*
X651855Y45037378D01*
X651855Y45037378D02*
X651760Y45037378D01*
X650998Y45036711D02*
X650998Y45037711D01*
X650998Y45036758D02*
X651093Y45036711D01*
X651093Y45036711D02*
X651284Y45036711D01*
X651284Y45036711D02*
X651379Y45036758D01*
X651379Y45036758D02*
X651426Y45036806D01*
X651426Y45036806D02*
X651474Y45036901D01*
X651474Y45036901D02*
X651474Y45037187D01*
X651474Y45037187D02*
X651426Y45037282D01*
X651426Y45037282D02*
X651379Y45037330D01*
X651379Y45037330D02*
X651284Y45037378D01*
X651284Y45037378D02*
X651093Y45037378D01*
X651093Y45037378D02*
X650998Y45037330D01*
X650521Y45037092D02*
X649760Y45037092D01*
X648855Y45037711D02*
X649045Y45037711D01*
X649045Y45037711D02*
X649141Y45037663D01*
X649141Y45037663D02*
X649188Y45037616D01*
X649188Y45037616D02*
X649283Y45037473D01*
X649283Y45037473D02*
X649331Y45037282D01*
X649331Y45037282D02*
X649331Y45036901D01*
X649331Y45036901D02*
X649283Y45036806D01*
X649283Y45036806D02*
X649236Y45036758D01*
X649236Y45036758D02*
X649141Y45036711D01*
X649141Y45036711D02*
X648950Y45036711D01*
X648950Y45036711D02*
X648855Y45036758D01*
X648855Y45036758D02*
X648807Y45036806D01*
X648807Y45036806D02*
X648760Y45036901D01*
X648760Y45036901D02*
X648760Y45037139D01*
X648760Y45037139D02*
X648807Y45037235D01*
X648807Y45037235D02*
X648855Y45037282D01*
X648855Y45037282D02*
X648950Y45037330D01*
X648950Y45037330D02*
X649141Y45037330D01*
X649141Y45037330D02*
X649236Y45037282D01*
X649236Y45037282D02*
X649283Y45037235D01*
X649283Y45037235D02*
X649331Y45037139D01*
X648427Y45037711D02*
X647760Y45037711D01*
X647760Y45037711D02*
X648189Y45036711D01*
X647379Y45037235D02*
X647046Y45037235D01*
X646903Y45036711D02*
X647379Y45036711D01*
X647379Y45036711D02*
X647379Y45037711D01*
X647379Y45037711D02*
X646903Y45037711D01*
X646141Y45037235D02*
X645998Y45037187D01*
X645998Y45037187D02*
X645951Y45037139D01*
X645951Y45037139D02*
X645903Y45037044D01*
X645903Y45037044D02*
X645903Y45036901D01*
X645903Y45036901D02*
X645951Y45036806D01*
X645951Y45036806D02*
X645998Y45036758D01*
X645998Y45036758D02*
X646093Y45036711D01*
X646093Y45036711D02*
X646474Y45036711D01*
X646474Y45036711D02*
X646474Y45037711D01*
X646474Y45037711D02*
X646141Y45037711D01*
X646141Y45037711D02*
X646046Y45037663D01*
X646046Y45037663D02*
X645998Y45037616D01*
X645998Y45037616D02*
X645951Y45037520D01*
X645951Y45037520D02*
X645951Y45037425D01*
X645951Y45037425D02*
X645998Y45037330D01*
X645998Y45037330D02*
X646046Y45037282D01*
X646046Y45037282D02*
X646141Y45037235D01*
X646141Y45037235D02*
X646474Y45037235D01*
X645141Y45037235D02*
X645474Y45037235D01*
X645474Y45036711D02*
X645474Y45037711D01*
X645474Y45037711D02*
X644998Y45037711D01*
X644427Y45037711D02*
X644332Y45037711D01*
X644332Y45037711D02*
X644236Y45037663D01*
X644236Y45037663D02*
X644189Y45037616D01*
X644189Y45037616D02*
X644141Y45037520D01*
X644141Y45037520D02*
X644094Y45037330D01*
X644094Y45037330D02*
X644094Y45037092D01*
X644094Y45037092D02*
X644141Y45036901D01*
X644141Y45036901D02*
X644189Y45036806D01*
X644189Y45036806D02*
X644236Y45036758D01*
X644236Y45036758D02*
X644332Y45036711D01*
X644332Y45036711D02*
X644427Y45036711D01*
X644427Y45036711D02*
X644522Y45036758D01*
X644522Y45036758D02*
X644570Y45036806D01*
X644570Y45036806D02*
X644617Y45036901D01*
X644617Y45036901D02*
X644665Y45037092D01*
X644665Y45037092D02*
X644665Y45037330D01*
X644665Y45037330D02*
X644617Y45037520D01*
X644617Y45037520D02*
X644570Y45037616D01*
X644570Y45037616D02*
X644522Y45037663D01*
X644522Y45037663D02*
X644427Y45037711D01*
X643713Y45036997D02*
X643237Y45036997D01*
X643808Y45036711D02*
X643475Y45037711D01*
X643475Y45037711D02*
X643142Y45036711D01*
X642618Y45037711D02*
X642523Y45037711D01*
X642523Y45037711D02*
X642427Y45037663D01*
X642427Y45037663D02*
X642380Y45037616D01*
X642380Y45037616D02*
X642332Y45037520D01*
X642332Y45037520D02*
X642285Y45037330D01*
X642285Y45037330D02*
X642285Y45037092D01*
X642285Y45037092D02*
X642332Y45036901D01*
X642332Y45036901D02*
X642380Y45036806D01*
X642380Y45036806D02*
X642427Y45036758D01*
X642427Y45036758D02*
X642523Y45036711D01*
X642523Y45036711D02*
X642618Y45036711D01*
X642618Y45036711D02*
X642713Y45036758D01*
X642713Y45036758D02*
X642761Y45036806D01*
X642761Y45036806D02*
X642808Y45036901D01*
X642808Y45036901D02*
X642856Y45037092D01*
X642856Y45037092D02*
X642856Y45037330D01*
X642856Y45037330D02*
X642808Y45037520D01*
X642808Y45037520D02*
X642761Y45037616D01*
X642761Y45037616D02*
X642713Y45037663D01*
X642713Y45037663D02*
X642618Y45037711D01*
D11*
%TO.C,kibuzzard-67CC6D9E*%
G36*
X44389763Y17471960D02*
G01*
X44390908Y17470815D01*
X44386330Y17467382D01*
X44384041Y17467382D01*
X44389763Y17471960D01*
G37*
G36*
X43970879Y17476538D02*
G01*
X43966301Y17471960D01*
X43975457Y17463948D01*
X43974313Y17463948D01*
X43965157Y17470815D01*
X43966301Y17471960D01*
X43965157Y17473104D01*
X43970879Y17477682D01*
X43970879Y17476538D01*
G37*
G36*
X44239835Y17696853D02*
G01*
X44261580Y17644778D01*
X44239262Y17593848D01*
X44176888Y17576109D01*
X44115085Y17594421D01*
X44093340Y17644778D01*
X44116230Y17696853D01*
X44179177Y17715737D01*
X44239835Y17696853D01*
G37*
G36*
X44223812Y17370672D02*
G01*
X44238690Y17334621D01*
X44222667Y17299142D01*
X44178032Y17286552D01*
X44133397Y17298569D01*
X44118519Y17334621D01*
X44134541Y17370100D01*
X44179177Y17382690D01*
X44223812Y17370672D01*
G37*
G36*
X43478747Y18011397D02*
G01*
X43741981Y18011397D01*
X44180321Y18011397D01*
X44471022Y18011397D01*
X44661771Y18011397D01*
X45002702Y17500000D01*
X44661771Y16988603D01*
X44471022Y16988603D01*
X43188046Y16988603D01*
X42997298Y16988603D01*
X42997298Y17340343D01*
X43190335Y17340343D01*
X43203497Y17303720D01*
X43238404Y17264807D01*
X43383755Y17134335D01*
X43402066Y17119456D01*
X43479892Y17100000D01*
X43560006Y17123462D01*
X43582896Y17205293D01*
X43582896Y17640200D01*
X43883898Y17640200D01*
X43892926Y17579924D01*
X43920013Y17524225D01*
X43965157Y17473104D01*
X43964012Y17471960D01*
X43965157Y17470815D01*
X43921380Y17409585D01*
X43906787Y17335765D01*
X43915689Y17269131D01*
X43942394Y17209617D01*
X43986902Y17157225D01*
X44043999Y17116532D01*
X44108472Y17092116D01*
X44180321Y17083977D01*
X44251280Y17092243D01*
X44314608Y17117040D01*
X44370307Y17158369D01*
X44413543Y17211652D01*
X44439485Y17272310D01*
X44448132Y17340343D01*
X44433826Y17405579D01*
X44390908Y17470815D01*
X44392052Y17471960D01*
X44390908Y17473104D01*
X44435416Y17525751D01*
X44462120Y17581450D01*
X44471022Y17640200D01*
X44460976Y17717326D01*
X44430838Y17783898D01*
X44380607Y17839914D01*
X44318169Y17882197D01*
X44251407Y17907566D01*
X44180321Y17916023D01*
X44100906Y17907248D01*
X44030520Y17880925D01*
X43969162Y17837053D01*
X43921793Y17780083D01*
X43893371Y17714465D01*
X43883898Y17640200D01*
X43582896Y17640200D01*
X43582896Y17794707D01*
X43632109Y17794707D01*
X43638261Y17741345D01*
X43656716Y17707153D01*
X43690622Y17688698D01*
X43743125Y17682546D01*
X43827818Y17707153D01*
X43845843Y17741059D01*
X43851852Y17793562D01*
X43827245Y17878255D01*
X43741981Y17902289D01*
X43656716Y17878255D01*
X43632109Y17794707D01*
X43582896Y17794707D01*
X43582896Y17800429D01*
X43560006Y17880544D01*
X43478747Y17903433D01*
X43398633Y17880544D01*
X43375743Y17799285D01*
X43375743Y17412446D01*
X43364298Y17422747D01*
X43293912Y17455937D01*
X43225815Y17415880D01*
X43190335Y17340343D01*
X42997298Y17340343D01*
X42997298Y18011397D01*
X43188046Y18011397D01*
X43478747Y18011397D01*
G37*
D12*
%TO.C,R103*%
X46393641Y17850000D02*
X46086359Y17850000D01*
X46393641Y17090000D02*
X46086359Y17090000D01*
%TO.C,R102*%
X45400000Y18726359D02*
X45400000Y19033641D01*
X46160000Y18726359D02*
X46160000Y19033641D01*
D13*
%TO.C,CN1*%
X-6200000Y50150000D02*
X-6200000Y50750000D01*
X-6200000Y50150000D02*
X-6200000Y48300000D01*
X-6200000Y48300000D02*
X-5230000Y48300000D01*
X-5160000Y52600000D02*
X-3230000Y52600000D01*
X-3160000Y48300000D02*
X-2200000Y48300000D01*
X-2200000Y48300000D02*
X-2200000Y50750000D01*
D11*
%TO.C,kibuzzard-67CC7445*%
G36*
X33573482Y3284164D02*
G01*
X33452452Y3533949D01*
X33694512Y3533949D01*
X33573482Y3284164D01*
G37*
G36*
X43781208Y3284164D02*
G01*
X43660178Y3533949D01*
X43902238Y3533949D01*
X43781208Y3284164D01*
G37*
G36*
X34137431Y4994035D02*
G01*
X34794083Y4994035D01*
X37037002Y4994035D01*
X38195800Y4994035D01*
X39720263Y4994035D01*
X41445585Y4994035D01*
X44345156Y4994035D01*
X44703096Y4994035D01*
X45346873Y4994035D01*
X45346873Y1860129D01*
X44703096Y1860129D01*
X32656744Y1860129D01*
X32012967Y1860129D01*
X32012967Y4163563D01*
X32679920Y4163563D01*
X32713396Y3982018D01*
X33359748Y2642962D01*
X33449877Y2543820D01*
X33576057Y2506481D01*
X33701594Y2541245D01*
X33789791Y2645537D01*
X34436143Y3982018D01*
X34453280Y4072146D01*
X34562323Y4072146D01*
X34562323Y2735666D01*
X34567474Y2649400D01*
X34593225Y2581159D01*
X34664040Y2525794D01*
X34799233Y2509056D01*
X34916401Y2524507D01*
X34982066Y2556696D01*
X35028418Y2609485D01*
X35672195Y3474721D01*
X35672195Y2735666D01*
X35677345Y2650687D01*
X35703096Y2582447D01*
X35775199Y2527082D01*
X35909105Y2509056D01*
X36043010Y2527082D01*
X36115113Y2586309D01*
X36139577Y2657125D01*
X36141424Y2699614D01*
X36254169Y2699614D01*
X36269620Y2587597D01*
X36319834Y2528370D01*
X36379062Y2507769D01*
X36452452Y2503906D01*
X37629276Y2503906D01*
X37702667Y2507769D01*
X37760607Y2528370D01*
X37809534Y2588885D01*
X37824984Y2702189D01*
X37809534Y2815494D01*
X37759319Y2876009D01*
X37700092Y2896610D01*
X37626701Y2900473D01*
X37271336Y2900473D01*
X37271336Y4072146D01*
X37961465Y4072146D01*
X37961465Y2740816D01*
X38014255Y2556696D01*
X38203525Y2506481D01*
X39146014Y2506481D01*
X39234856Y2510344D01*
X39304384Y2534807D01*
X39362323Y2606910D01*
X39380349Y2743391D01*
X39362323Y2877297D01*
X39303096Y2949400D01*
X39232281Y2973863D01*
X39143439Y2977726D01*
X38432710Y2977726D01*
X38432710Y3206910D01*
X38909105Y3206910D01*
X38992796Y3210773D01*
X39054598Y3231374D01*
X39103525Y3293176D01*
X39117688Y3410344D01*
X39103525Y3524936D01*
X39053311Y3584164D01*
X38988933Y3604764D01*
X38903954Y3608627D01*
X38432710Y3608627D01*
X38432710Y3837812D01*
X39146014Y3837812D01*
X39234856Y3841674D01*
X39304384Y3866138D01*
X39362323Y3938241D01*
X39380009Y4072146D01*
X39488504Y4072146D01*
X39488504Y2735666D01*
X39493654Y2649400D01*
X39519405Y2581159D01*
X39590220Y2525794D01*
X39725414Y2509056D01*
X39842581Y2524507D01*
X39908246Y2556696D01*
X39954598Y2609485D01*
X40598375Y3474721D01*
X40598375Y2735666D01*
X40603525Y2650687D01*
X40629276Y2582447D01*
X40701379Y2527082D01*
X40835285Y2509056D01*
X40969190Y2527082D01*
X41041293Y2586309D01*
X41065757Y2657125D01*
X41069620Y2745966D01*
X41069620Y4072146D01*
X41213826Y4072146D01*
X41213826Y2735666D01*
X41218976Y2649400D01*
X41244727Y2581159D01*
X41315542Y2525794D01*
X41450735Y2509056D01*
X41567903Y2524507D01*
X41633568Y2556696D01*
X41679920Y2609485D01*
X42323697Y3474721D01*
X42323697Y2735666D01*
X42328847Y2650687D01*
X42354598Y2582447D01*
X42426701Y2527082D01*
X42560607Y2509056D01*
X42694512Y2527082D01*
X42766615Y2586309D01*
X42791079Y2657125D01*
X42794941Y2745966D01*
X42794941Y4074721D01*
X42791079Y4163563D01*
X42887645Y4163563D01*
X42921122Y3982018D01*
X43567474Y2642962D01*
X43657602Y2543820D01*
X43783783Y2506481D01*
X43909319Y2541245D01*
X43997517Y2645537D01*
X44643868Y3982018D01*
X44678632Y4164850D01*
X44535714Y4291030D01*
X44345156Y4328370D01*
X44218976Y4180301D01*
X44100521Y3935666D01*
X43467044Y3935666D01*
X43348590Y4182876D01*
X43219834Y4325794D01*
X43031851Y4288455D01*
X42887645Y4163563D01*
X42791079Y4163563D01*
X42766615Y4233091D01*
X42694512Y4291030D01*
X42558032Y4309056D01*
X42425414Y4294893D01*
X42349448Y4239528D01*
X41682495Y3358842D01*
X41682495Y4074721D01*
X41678632Y4163563D01*
X41654169Y4233091D01*
X41582066Y4291030D01*
X41445585Y4309056D01*
X41312967Y4291030D01*
X41243439Y4233091D01*
X41218976Y4162275D01*
X41213826Y4072146D01*
X41069620Y4072146D01*
X41069620Y4074721D01*
X41065757Y4163563D01*
X41041293Y4233091D01*
X40969190Y4291030D01*
X40832710Y4309056D01*
X40700092Y4294893D01*
X40624126Y4239528D01*
X39957173Y3358842D01*
X39957173Y4074721D01*
X39953311Y4163563D01*
X39928847Y4233091D01*
X39856744Y4291030D01*
X39720263Y4309056D01*
X39587645Y4291030D01*
X39518117Y4233091D01*
X39493654Y4162275D01*
X39488504Y4072146D01*
X39380009Y4072146D01*
X39380349Y4074721D01*
X39362323Y4208627D01*
X39303096Y4280730D01*
X39232281Y4305194D01*
X39143439Y4309056D01*
X38195800Y4309056D01*
X38061894Y4291030D01*
X37989791Y4231803D01*
X37965328Y4160988D01*
X37961465Y4072146D01*
X37271336Y4072146D01*
X37271336Y4079872D01*
X37267474Y4166138D01*
X37243010Y4234378D01*
X37170907Y4291030D01*
X37037002Y4309056D01*
X36904384Y4291030D01*
X36834856Y4233091D01*
X36811680Y4163563D01*
X36807817Y4077297D01*
X36807817Y2900473D01*
X36449877Y2900473D01*
X36376487Y2896610D01*
X36318547Y2876009D01*
X36269620Y2815494D01*
X36254169Y2699614D01*
X36141424Y2699614D01*
X36143439Y2745966D01*
X36143439Y4074721D01*
X36139577Y4163563D01*
X36115113Y4233091D01*
X36043010Y4291030D01*
X35906529Y4309056D01*
X35773911Y4294893D01*
X35697946Y4239528D01*
X35030993Y3358842D01*
X35030993Y4074721D01*
X35027130Y4163563D01*
X35002667Y4233091D01*
X34930564Y4291030D01*
X34794083Y4309056D01*
X34661465Y4291030D01*
X34591937Y4233091D01*
X34567474Y4162275D01*
X34562323Y4072146D01*
X34453280Y4072146D01*
X34470907Y4164850D01*
X34327989Y4291030D01*
X34137431Y4328370D01*
X34011250Y4180301D01*
X33892796Y3935666D01*
X33259319Y3935666D01*
X33140864Y4182876D01*
X33012109Y4325794D01*
X32824126Y4288455D01*
X32679920Y4163563D01*
X32012967Y4163563D01*
X32012967Y4994035D01*
X32656744Y4994035D01*
X34137431Y4994035D01*
G37*
%TO.C,kibuzzard-67CC6D94*%
G36*
X43479558Y19358536D02*
G01*
X43930488Y19358536D01*
X44377984Y19358536D01*
X44686997Y19358536D01*
X44877746Y19358536D01*
X45216770Y18850000D01*
X44877746Y18341464D01*
X44686997Y18341464D01*
X43173979Y18341464D01*
X42983230Y18341464D01*
X42983230Y19006795D01*
X43173979Y19006795D01*
X43202591Y18952718D01*
X43288428Y18934692D01*
X43351375Y18947282D01*
X43384565Y19001073D01*
X43386854Y19007368D01*
X43395438Y19021102D01*
X43412605Y19038269D01*
X43440073Y19052003D01*
X43480703Y19058298D01*
X43552233Y19040558D01*
X43579129Y18993062D01*
X43557097Y18943276D01*
X43491003Y18926681D01*
X43459529Y18926681D01*
X43433206Y18921531D01*
X43407455Y18907225D01*
X43393721Y18877468D01*
X43386854Y18827110D01*
X43394293Y18769886D01*
X43418328Y18740129D01*
X43447512Y18730401D01*
X43484136Y18728684D01*
X43492148Y18728684D01*
X43545366Y18721245D01*
X43561962Y18692060D01*
X43543077Y18652575D01*
X43491003Y18638269D01*
X43441790Y18649714D01*
X43408600Y18684049D01*
X43373756Y18731227D01*
X43325687Y18744580D01*
X43264394Y18724106D01*
X43207741Y18661159D01*
X43224336Y18582189D01*
X43226053Y18578183D01*
X43232348Y18565594D01*
X43243793Y18546710D01*
X43262105Y18523820D01*
X43287283Y18499213D01*
X43321046Y18475751D01*
X43363392Y18455722D01*
X43416039Y18441989D01*
X43479558Y18436838D01*
X43562788Y18445486D01*
X43633937Y18471427D01*
X43693006Y18514664D01*
X43737196Y18568455D01*
X43763710Y18626061D01*
X43772548Y18687482D01*
X43752806Y18771316D01*
X43693578Y18828255D01*
X43757670Y18890057D01*
X43780846Y18935837D01*
X43788571Y18990773D01*
X43786467Y19006795D01*
X44072405Y19006795D01*
X44101017Y18952718D01*
X44186854Y18934692D01*
X44249801Y18947282D01*
X44282992Y19001073D01*
X44285281Y19007368D01*
X44293864Y19021102D01*
X44311032Y19038269D01*
X44338499Y19052003D01*
X44379129Y19058298D01*
X44450660Y19040558D01*
X44477555Y18993062D01*
X44455524Y18943276D01*
X44389429Y18926681D01*
X44357956Y18926681D01*
X44331632Y18921531D01*
X44305881Y18907225D01*
X44292148Y18877468D01*
X44285281Y18827110D01*
X44292720Y18769886D01*
X44316754Y18740129D01*
X44345939Y18730401D01*
X44382562Y18728684D01*
X44390574Y18728684D01*
X44443793Y18721245D01*
X44460388Y18692060D01*
X44441504Y18652575D01*
X44389429Y18638269D01*
X44340216Y18649714D01*
X44307026Y18684049D01*
X44272182Y18731227D01*
X44224114Y18744580D01*
X44162820Y18724106D01*
X44106168Y18661159D01*
X44122763Y18582189D01*
X44124479Y18578183D01*
X44130774Y18565594D01*
X44142219Y18546710D01*
X44160531Y18523820D01*
X44185710Y18499213D01*
X44219472Y18475751D01*
X44261818Y18455722D01*
X44314465Y18441989D01*
X44377984Y18436838D01*
X44461214Y18445486D01*
X44532364Y18471427D01*
X44591432Y18514664D01*
X44635622Y18568455D01*
X44662136Y18626061D01*
X44670974Y18687482D01*
X44651232Y18771316D01*
X44592004Y18828255D01*
X44656096Y18890057D01*
X44679272Y18935837D01*
X44686997Y18990773D01*
X44677269Y19064847D01*
X44648085Y19129892D01*
X44599444Y19185908D01*
X44535924Y19228827D01*
X44462105Y19254578D01*
X44377984Y19263162D01*
X44299777Y19254578D01*
X44228437Y19228827D01*
X44163964Y19185908D01*
X44113098Y19131672D01*
X44082578Y19071968D01*
X44072405Y19006795D01*
X43786467Y19006795D01*
X43778843Y19064847D01*
X43749658Y19129892D01*
X43738284Y19142990D01*
X43820617Y19142990D01*
X43826768Y19089628D01*
X43845223Y19055436D01*
X43879129Y19036981D01*
X43931632Y19030830D01*
X44016325Y19055436D01*
X44034351Y19089342D01*
X44040359Y19141845D01*
X44015753Y19226538D01*
X43930488Y19250572D01*
X43845223Y19226538D01*
X43820617Y19142990D01*
X43738284Y19142990D01*
X43701017Y19185908D01*
X43637498Y19228827D01*
X43563678Y19254578D01*
X43479558Y19263162D01*
X43401351Y19254578D01*
X43330011Y19228827D01*
X43265538Y19185908D01*
X43214672Y19131672D01*
X43184152Y19071968D01*
X43173979Y19006795D01*
X42983230Y19006795D01*
X42983230Y19358536D01*
X43173979Y19358536D01*
X43479558Y19358536D01*
G37*
%TO.C,kibuzzard-67EBAC4C*%
G36*
X46324622Y7044206D02*
G01*
X46357527Y6965522D01*
X46326768Y6891130D01*
X46253092Y6861087D01*
X46098585Y6861087D01*
X46098585Y7069957D01*
X46255953Y7069957D01*
X46324622Y7044206D01*
G37*
G36*
X48879165Y7336588D02*
G01*
X48954808Y7282403D01*
X49005774Y7201395D01*
X49022763Y7102861D01*
X49005595Y7005043D01*
X48954093Y6923319D01*
X48878628Y6868062D01*
X48789572Y6849642D01*
X48699444Y6868062D01*
X48623621Y6923319D01*
X48572119Y7005043D01*
X48554952Y7102861D01*
X48572298Y7198712D01*
X48624336Y7280258D01*
X48699980Y7336052D01*
X48788142Y7354649D01*
X48879165Y7336588D01*
G37*
G36*
X46464823Y7854888D02*
G01*
X47290288Y7854888D01*
X48102877Y7854888D01*
X48795295Y7854888D01*
X49692291Y7854888D01*
X50059959Y7854888D01*
X50298395Y7854888D01*
X50801653Y7100000D01*
X50298395Y6345112D01*
X50059959Y6345112D01*
X45836783Y6345112D01*
X45598347Y6345112D01*
X45598347Y7467668D01*
X45836783Y7467668D01*
X45836783Y6729471D01*
X45838929Y6681545D01*
X45852519Y6642203D01*
X45892577Y6609299D01*
X45968399Y6599285D01*
X46255953Y6599285D01*
X46314072Y6605007D01*
X46373979Y6622175D01*
X46433707Y6650072D01*
X46491289Y6687983D01*
X46542612Y6738591D01*
X46583564Y6804578D01*
X46610388Y6882010D01*
X46619329Y6966953D01*
X46605341Y7074090D01*
X46563376Y7166603D01*
X46501143Y7235908D01*
X46693721Y7235908D01*
X46693721Y7002718D01*
X46695867Y6953362D01*
X46709458Y6914735D01*
X46749515Y6882546D01*
X46823907Y6872532D01*
X46898299Y6882546D01*
X46938356Y6915451D01*
X46951947Y6954793D01*
X46954093Y7004149D01*
X46954093Y7235908D01*
X46981275Y7311731D01*
X47057097Y7338913D01*
X47132205Y7311016D01*
X47160102Y7235908D01*
X47160102Y7001288D01*
X47162248Y6953362D01*
X47175838Y6914735D01*
X47215180Y6882546D01*
X47290288Y6872532D01*
X47364680Y6882546D01*
X47404737Y6915451D01*
X47418328Y6954793D01*
X47420474Y7002718D01*
X47420474Y7469099D01*
X47506311Y7469099D01*
X47506311Y6998426D01*
X47509172Y6951216D01*
X47522763Y6914020D01*
X47562105Y6883262D01*
X47636497Y6873963D01*
X47703735Y6882546D01*
X47742362Y6906152D01*
X47758099Y6933333D01*
X47762391Y6962661D01*
X47838929Y6901144D01*
X47942648Y6873963D01*
X48028167Y6885249D01*
X48099698Y6919107D01*
X48157241Y6975536D01*
X48199364Y7049611D01*
X48216537Y7108584D01*
X48293149Y7108584D01*
X48302090Y7003970D01*
X48328914Y6907582D01*
X48373621Y6819421D01*
X48436210Y6739485D01*
X48511586Y6673140D01*
X48594651Y6625751D01*
X48685406Y6597318D01*
X48783850Y6587840D01*
X48884351Y6597183D01*
X48976983Y6625215D01*
X49061747Y6671933D01*
X49138643Y6737339D01*
X49202484Y6816246D01*
X49248085Y6903469D01*
X49275445Y6999008D01*
X49284565Y7102861D01*
X49275579Y7204927D01*
X49248621Y7299392D01*
X49214120Y7366094D01*
X49326053Y7366094D01*
X49386139Y7274535D01*
X49445589Y7241472D01*
X49507582Y7251009D01*
X49572119Y7303147D01*
X49630059Y7355365D01*
X49686568Y7368956D01*
X49770974Y7348212D01*
X49796725Y7281688D01*
X49759529Y7237339D01*
X49647226Y7203720D01*
X49579093Y7185300D01*
X49524909Y7165808D01*
X49444794Y7120029D01*
X49387570Y7058512D01*
X49353235Y6981259D01*
X49341790Y6888269D01*
X49352440Y6805532D01*
X49384390Y6732809D01*
X49437641Y6670100D01*
X49507105Y6622016D01*
X49587697Y6593165D01*
X49679415Y6583548D01*
X49787347Y6593085D01*
X49878430Y6621698D01*
X49952663Y6669385D01*
X50004165Y6743062D01*
X49969830Y6831044D01*
X49885424Y6900429D01*
X49789572Y6873963D01*
X49773120Y6860372D01*
X49753092Y6843920D01*
X49725195Y6833190D01*
X49677984Y6828183D01*
X49625052Y6846066D01*
X49602162Y6889700D01*
X49627198Y6936195D01*
X49683707Y6961230D01*
X49770974Y6979113D01*
X49862534Y7001288D01*
X49943542Y7038484D01*
X50006311Y7092847D01*
X50046547Y7170458D01*
X50059959Y7277396D01*
X50053879Y7345708D01*
X50035638Y7407582D01*
X49973406Y7504149D01*
X49885424Y7567811D01*
X49787426Y7604292D01*
X49692291Y7615021D01*
X49612176Y7608584D01*
X49544937Y7592847D01*
X49489859Y7569242D01*
X49445509Y7542060D01*
X49411175Y7514163D01*
X49386139Y7489127D01*
X49370402Y7469099D01*
X49361818Y7459084D01*
X49326053Y7366094D01*
X49214120Y7366094D01*
X49203691Y7386257D01*
X49140788Y7465522D01*
X49065279Y7531554D01*
X48982527Y7578720D01*
X48892532Y7607019D01*
X48795295Y7616452D01*
X48695331Y7607153D01*
X48602877Y7579256D01*
X48517934Y7532761D01*
X48440502Y7467668D01*
X48376035Y7389431D01*
X48329987Y7303505D01*
X48302359Y7209889D01*
X48293149Y7108584D01*
X48216537Y7108584D01*
X48224638Y7136401D01*
X48233063Y7235908D01*
X48233063Y7470529D01*
X48230917Y7518455D01*
X48217326Y7557082D01*
X48177984Y7589270D01*
X48102877Y7599285D01*
X48027055Y7589270D01*
X47986997Y7556366D01*
X47973406Y7517024D01*
X47971261Y7469099D01*
X47971261Y7235908D01*
X47944794Y7160086D01*
X47869687Y7132904D01*
X47793864Y7160801D01*
X47765252Y7235908D01*
X47765252Y7470529D01*
X47763106Y7518455D01*
X47749515Y7557082D01*
X47709458Y7589270D01*
X47635066Y7599285D01*
X47561389Y7589270D01*
X47522047Y7557082D01*
X47508457Y7518455D01*
X47506311Y7469099D01*
X47420474Y7469099D01*
X47420474Y7473391D01*
X47419758Y7511302D01*
X47411890Y7544206D01*
X47391861Y7573534D01*
X47353235Y7591416D01*
X47290288Y7599285D01*
X47204808Y7582475D01*
X47165824Y7532046D01*
X47096082Y7581402D01*
X47018471Y7597854D01*
X46931044Y7586250D01*
X46853791Y7551439D01*
X46786711Y7493419D01*
X46735050Y7418391D01*
X46704053Y7332554D01*
X46693721Y7235908D01*
X46501143Y7235908D01*
X46493435Y7244492D01*
X46596439Y7381831D01*
X46635066Y7480544D01*
X46566396Y7564950D01*
X46464823Y7604292D01*
X46384708Y7537768D01*
X46231632Y7330329D01*
X46098585Y7330329D01*
X46098585Y7469099D01*
X46096439Y7518455D01*
X46082849Y7557082D01*
X46042791Y7589270D01*
X45966969Y7599285D01*
X45892577Y7589270D01*
X45852519Y7556366D01*
X45838929Y7517024D01*
X45836783Y7467668D01*
X45598347Y7467668D01*
X45598347Y7854888D01*
X45836783Y7854888D01*
X46464823Y7854888D01*
G37*
D13*
%TO.C,SW101*%
X51410000Y11220000D02*
X52080000Y11220000D01*
X51410000Y10000000D02*
X51410000Y11220000D01*
X51410000Y5720000D02*
X51410000Y6940000D01*
X52080000Y5720000D02*
X51410000Y5720000D01*
X53240000Y11220000D02*
X53910000Y11220000D01*
X53410000Y9970000D02*
X53910000Y9970000D01*
X53410000Y6970000D02*
X53410000Y9970000D01*
X53910000Y9970000D02*
X53910000Y9520000D01*
X53910000Y7220000D02*
X55210000Y7220000D01*
X53910000Y6970000D02*
X53410000Y6970000D01*
X53910000Y5720000D02*
X53240000Y5720000D01*
X53910000Y5720000D02*
X53910000Y11220000D01*
X55210000Y8420000D02*
X53910000Y8420000D01*
X55210000Y7220000D02*
X55210000Y8420000D01*
D11*
%TO.C,kibuzzard-67795592*%
G36*
X44927627Y10392060D02*
G01*
X44960531Y10313376D01*
X44929773Y10238984D01*
X44856096Y10208941D01*
X44701590Y10208941D01*
X44701590Y10417811D01*
X44858957Y10417811D01*
X44927627Y10392060D01*
G37*
G36*
X45791003Y10392060D02*
G01*
X45824622Y10313376D01*
X45793864Y10238984D01*
X45718757Y10208941D01*
X45565681Y10208941D01*
X45565681Y10417811D01*
X45720188Y10417811D01*
X45791003Y10392060D01*
G37*
G36*
X47924229Y10684442D02*
G01*
X47999873Y10630258D01*
X48050838Y10549249D01*
X48067827Y10450715D01*
X48050660Y10352897D01*
X47999158Y10271173D01*
X47923693Y10215916D01*
X47834637Y10197496D01*
X47744508Y10215916D01*
X47668685Y10271173D01*
X47617183Y10352897D01*
X47600016Y10450715D01*
X47617362Y10546567D01*
X47669401Y10628112D01*
X47745045Y10683906D01*
X47833206Y10702504D01*
X47924229Y10684442D01*
G37*
G36*
X48955703Y10684442D02*
G01*
X49031346Y10630258D01*
X49082312Y10549249D01*
X49099301Y10450715D01*
X49082133Y10352897D01*
X49030631Y10271173D01*
X48955166Y10215916D01*
X48866110Y10197496D01*
X48775982Y10215916D01*
X48700159Y10271173D01*
X48648657Y10352897D01*
X48631489Y10450715D01*
X48648836Y10546567D01*
X48700874Y10628112D01*
X48776518Y10683906D01*
X48864680Y10702504D01*
X48955703Y10684442D01*
G37*
G36*
X46976268Y10683906D02*
G01*
X46998442Y10676037D01*
X47019901Y10651717D01*
X47027770Y10606652D01*
X47009172Y10547282D01*
X46949086Y10533691D01*
X46930488Y10533691D01*
X46848943Y10508655D01*
X46824622Y10423534D01*
X46850374Y10341273D01*
X46937641Y10317668D01*
X46954808Y10317668D01*
X46989143Y10307654D01*
X46999158Y10263305D01*
X46984136Y10218956D01*
X46924766Y10207511D01*
X46751661Y10207511D01*
X46751661Y10685336D01*
X46956239Y10685336D01*
X46976268Y10683906D01*
G37*
G36*
X44219472Y11202742D02*
G01*
X45067827Y11202742D01*
X45434065Y11202742D01*
X46275266Y11202742D01*
X46620045Y11202742D01*
X47840359Y11202742D01*
X48871833Y11202742D01*
X49837498Y11202742D01*
X50275266Y11202742D01*
X50513702Y11202742D01*
X51015530Y10450000D01*
X50513702Y9697258D01*
X50275266Y9697258D01*
X43622906Y9697258D01*
X43384470Y9697258D01*
X43384470Y10816953D01*
X43622906Y10816953D01*
X43622906Y10346280D01*
X43625767Y10299070D01*
X43639358Y10261874D01*
X43678700Y10231116D01*
X43753092Y10221817D01*
X43820331Y10230401D01*
X43858957Y10254006D01*
X43874694Y10281187D01*
X43878986Y10310515D01*
X43955524Y10248999D01*
X44059243Y10221817D01*
X44144762Y10233103D01*
X44216293Y10266961D01*
X44273836Y10323391D01*
X44315959Y10397465D01*
X44341234Y10484255D01*
X44349658Y10583763D01*
X44349658Y10815522D01*
X44439787Y10815522D01*
X44439787Y10077325D01*
X44441933Y10029399D01*
X44455524Y9990057D01*
X44495581Y9957153D01*
X44571404Y9947139D01*
X44858957Y9947139D01*
X44917076Y9952861D01*
X44976983Y9970029D01*
X45036711Y9997926D01*
X45094293Y10035837D01*
X45145617Y10086445D01*
X45186568Y10152432D01*
X45213392Y10229864D01*
X45222333Y10314807D01*
X45208345Y10421944D01*
X45166381Y10514457D01*
X45096439Y10592346D01*
X45199444Y10729685D01*
X45233032Y10815522D01*
X45303879Y10815522D01*
X45303879Y10077325D01*
X45306024Y10029399D01*
X45319615Y9990057D01*
X45359673Y9957153D01*
X45435495Y9947139D01*
X45720188Y9947139D01*
X45778485Y9952861D01*
X45838929Y9970029D01*
X45899014Y9997926D01*
X45956239Y10035837D01*
X46007205Y10086445D01*
X46048514Y10152432D01*
X46075874Y10229864D01*
X46084994Y10314807D01*
X46076053Y10399392D01*
X46049229Y10475751D01*
X46008278Y10540665D01*
X45956954Y10590916D01*
X45899014Y10628827D01*
X45838213Y10656724D01*
X45777233Y10673891D01*
X45718757Y10679614D01*
X45565681Y10679614D01*
X45565681Y10816953D01*
X46145080Y10816953D01*
X46145080Y10077325D01*
X46147226Y10029399D01*
X46160817Y9990057D01*
X46200874Y9957153D01*
X46276697Y9947139D01*
X46351089Y9957153D01*
X46391146Y9990057D01*
X46404737Y10029399D01*
X46406883Y10078755D01*
X46406883Y10814092D01*
X46489859Y10814092D01*
X46489859Y10075894D01*
X46492004Y10027969D01*
X46505595Y9988627D01*
X46545653Y9955722D01*
X46621475Y9945708D01*
X46956239Y9945708D01*
X47036830Y9955802D01*
X47108838Y9986083D01*
X47172262Y10036552D01*
X47221539Y10100850D01*
X47251105Y10172620D01*
X47260960Y10251860D01*
X47249158Y10335551D01*
X47213750Y10412089D01*
X47238844Y10456438D01*
X47338213Y10456438D01*
X47347155Y10351824D01*
X47373979Y10255436D01*
X47418685Y10167275D01*
X47481275Y10087339D01*
X47556650Y10020994D01*
X47639715Y9973605D01*
X47730470Y9945172D01*
X47828914Y9935694D01*
X47929415Y9945038D01*
X48022047Y9973069D01*
X48106811Y10019787D01*
X48183707Y10085193D01*
X48247548Y10164101D01*
X48293149Y10251323D01*
X48320509Y10346862D01*
X48329630Y10450715D01*
X48329126Y10456438D01*
X48369687Y10456438D01*
X48378628Y10351824D01*
X48405452Y10255436D01*
X48450159Y10167275D01*
X48512748Y10087339D01*
X48588124Y10020994D01*
X48671189Y9973605D01*
X48761944Y9945172D01*
X48860388Y9935694D01*
X48960889Y9945038D01*
X49053521Y9973069D01*
X49138285Y10019787D01*
X49179019Y10054435D01*
X49402591Y10054435D01*
X49411175Y9992203D01*
X49439072Y9959299D01*
X49471976Y9947854D01*
X49512748Y9945708D01*
X50166540Y9945708D01*
X50207312Y9947854D01*
X50239501Y9959299D01*
X50266683Y9992918D01*
X50275266Y10055866D01*
X50266683Y10118813D01*
X50238786Y10152432D01*
X50205881Y10163877D01*
X50165109Y10166023D01*
X49967684Y10166023D01*
X49967684Y10821245D01*
X49965538Y10869170D01*
X49951947Y10907082D01*
X49911890Y10938555D01*
X49837498Y10948569D01*
X49763821Y10938555D01*
X49725195Y10906366D01*
X49712319Y10867740D01*
X49710173Y10819814D01*
X49710173Y10166023D01*
X49511318Y10166023D01*
X49470545Y10163877D01*
X49438356Y10152432D01*
X49411175Y10118813D01*
X49402591Y10054435D01*
X49179019Y10054435D01*
X49215180Y10085193D01*
X49279022Y10164101D01*
X49324622Y10251323D01*
X49351983Y10346862D01*
X49361103Y10450715D01*
X49352117Y10552781D01*
X49325159Y10647246D01*
X49280229Y10734111D01*
X49217326Y10813376D01*
X49141817Y10879408D01*
X49059065Y10926574D01*
X48969070Y10954873D01*
X48871833Y10964306D01*
X48771869Y10955007D01*
X48679415Y10927110D01*
X48594472Y10880615D01*
X48517040Y10815522D01*
X48452573Y10737285D01*
X48406525Y10651359D01*
X48378896Y10557743D01*
X48369687Y10456438D01*
X48329126Y10456438D01*
X48320644Y10552781D01*
X48293685Y10647246D01*
X48248755Y10734111D01*
X48185853Y10813376D01*
X48110343Y10879408D01*
X48027591Y10926574D01*
X47937596Y10954873D01*
X47840359Y10964306D01*
X47740395Y10955007D01*
X47647942Y10927110D01*
X47562999Y10880615D01*
X47485567Y10815522D01*
X47421100Y10737285D01*
X47375052Y10651359D01*
X47347423Y10557743D01*
X47338213Y10456438D01*
X47238844Y10456438D01*
X47270617Y10512589D01*
X47289572Y10622389D01*
X47278366Y10708385D01*
X47246654Y10785161D01*
X47194436Y10852718D01*
X47127913Y10905174D01*
X47053282Y10936648D01*
X46970545Y10947139D01*
X46620045Y10947139D01*
X46545653Y10937124D01*
X46505595Y10904220D01*
X46492004Y10864163D01*
X46489859Y10814092D01*
X46406883Y10814092D01*
X46406883Y10818383D01*
X46404737Y10867740D01*
X46391146Y10906366D01*
X46351089Y10938555D01*
X46275266Y10948569D01*
X46200874Y10938555D01*
X46160817Y10905651D01*
X46147226Y10866309D01*
X46145080Y10816953D01*
X45565681Y10816953D01*
X45563535Y10866309D01*
X45549944Y10904936D01*
X45509887Y10937124D01*
X45434065Y10947139D01*
X45359673Y10937124D01*
X45319615Y10904220D01*
X45306024Y10864878D01*
X45303879Y10815522D01*
X45233032Y10815522D01*
X45238070Y10828398D01*
X45169401Y10912804D01*
X45067827Y10952146D01*
X44987713Y10885622D01*
X44834637Y10678183D01*
X44701590Y10678183D01*
X44701590Y10816953D01*
X44699444Y10866309D01*
X44685853Y10904936D01*
X44645796Y10937124D01*
X44569973Y10947139D01*
X44495581Y10937124D01*
X44455524Y10904220D01*
X44441933Y10864878D01*
X44439787Y10815522D01*
X44349658Y10815522D01*
X44349658Y10818383D01*
X44347512Y10866309D01*
X44333921Y10904936D01*
X44294580Y10937124D01*
X44219472Y10947139D01*
X44143650Y10937124D01*
X44103592Y10904220D01*
X44090002Y10864878D01*
X44087856Y10816953D01*
X44087856Y10583763D01*
X44061389Y10507940D01*
X43986282Y10480758D01*
X43910459Y10508655D01*
X43881847Y10583763D01*
X43881847Y10818383D01*
X43879701Y10866309D01*
X43866110Y10904936D01*
X43826053Y10937124D01*
X43751661Y10947139D01*
X43677984Y10937124D01*
X43638643Y10904936D01*
X43625052Y10866309D01*
X43622906Y10816953D01*
X43384470Y10816953D01*
X43384470Y11202742D01*
X43622906Y11202742D01*
X44219472Y11202742D01*
G37*
%TO.C,kibuzzard-67EBF0A0*%
G36*
X738913Y51849919D02*
G01*
X664950Y52002566D01*
X812876Y52002566D01*
X738913Y51849919D01*
G37*
G36*
X-501144Y48979008D02*
G01*
X-464950Y48892456D01*
X-498784Y48810625D01*
X-579828Y48777577D01*
X-749785Y48777577D01*
X-749785Y49007334D01*
X-576681Y49007334D01*
X-501144Y48979008D01*
G37*
G36*
X1451001Y50743362D02*
G01*
X1491130Y50695365D01*
X1511588Y50624549D01*
X1520243Y50555308D01*
X1521030Y50492361D01*
X1521030Y50484492D01*
X1512670Y50361942D01*
X1487589Y50274406D01*
X1445789Y50221885D01*
X1387268Y50204378D01*
X1328058Y50221983D01*
X1285765Y50274800D01*
X1260390Y50362827D01*
X1251931Y50486066D01*
X1260291Y50607927D01*
X1285372Y50694971D01*
X1327173Y50747198D01*
X1385694Y50764607D01*
X1451001Y50743362D01*
G37*
G36*
X-907153Y52894840D02*
G01*
X1083548Y52894840D01*
X2200858Y52894840D01*
X2370815Y52894840D01*
X2764235Y52894840D01*
X2764235Y48085160D01*
X2370815Y48085160D01*
X-1070815Y48085160D01*
X-1464235Y48085160D01*
X-1464235Y49444816D01*
X-1037768Y49444816D01*
X-1037768Y48632799D01*
X-1035408Y48580081D01*
X-1020458Y48536805D01*
X-976395Y48500610D01*
X-892990Y48489595D01*
X-576681Y48489595D01*
X-512750Y48495889D01*
X-446853Y48514773D01*
X-381152Y48545460D01*
X-317811Y48587163D01*
X-297065Y48607620D01*
X-118741Y48607620D01*
X-109299Y48539165D01*
X-78612Y48502971D01*
X-42418Y48490381D01*
X2432Y48488021D01*
X721602Y48488021D01*
X766452Y48490381D01*
X801860Y48502971D01*
X831760Y48539952D01*
X841202Y48609194D01*
X831760Y48678436D01*
X801073Y48715417D01*
X764878Y48728007D01*
X720029Y48730367D01*
X502861Y48730367D01*
X502861Y49034087D01*
X886838Y49034087D01*
X896674Y48923929D01*
X926180Y48823214D01*
X971030Y48735678D01*
X1026896Y48665060D01*
X1092400Y48607620D01*
X1166166Y48559623D01*
X1243276Y48522445D01*
X1318813Y48497463D01*
X1391792Y48483300D01*
X1461230Y48478579D01*
X1554952Y48488371D01*
X1651470Y48517746D01*
X1750787Y48566705D01*
X1793276Y48596605D01*
X1822389Y48629652D01*
X1837339Y48676862D01*
X1802718Y48764988D01*
X1743705Y48828722D01*
X1689413Y48849967D01*
X1604435Y48813772D01*
X1594206Y48806691D01*
X1580830Y48798035D01*
X1565880Y48789380D01*
X1544635Y48781512D01*
X1519456Y48775217D01*
X1487983Y48769709D01*
X1450215Y48768135D01*
X1360515Y48783872D01*
X1271602Y48830296D01*
X1201574Y48916061D01*
X1181509Y48975074D01*
X1174821Y49041955D01*
X1186820Y49127917D01*
X1222818Y49200110D01*
X1273766Y49255385D01*
X1330615Y49290596D01*
X1450215Y49315775D01*
X1533226Y49302792D01*
X1612303Y49263844D01*
X1690987Y49232370D01*
X1744492Y49254795D01*
X1801144Y49322070D01*
X1835765Y49413343D01*
X1813734Y49470782D01*
X1749213Y49518779D01*
X1655842Y49567738D01*
X1558274Y49597113D01*
X1456509Y49606905D01*
X1389825Y49602184D01*
X1318813Y49588021D01*
X1244456Y49562645D01*
X1167740Y49524287D01*
X1093974Y49474716D01*
X1028469Y49415703D01*
X972407Y49343118D01*
X926967Y49252828D01*
X896871Y49148572D01*
X886838Y49034087D01*
X502861Y49034087D01*
X502861Y49451111D01*
X500501Y49503829D01*
X485551Y49545532D01*
X441488Y49580153D01*
X359657Y49591168D01*
X278612Y49580153D01*
X236123Y49544745D01*
X221960Y49502256D01*
X219599Y49449537D01*
X219599Y48730367D01*
X858Y48730367D01*
X-43991Y48728007D01*
X-79399Y48715417D01*
X-109299Y48678436D01*
X-118741Y48607620D01*
X-297065Y48607620D01*
X-261356Y48642831D01*
X-216309Y48715417D01*
X-186803Y48800593D01*
X-176967Y48894030D01*
X-192354Y49011880D01*
X-238515Y49113645D01*
X-315451Y49199323D01*
X-202146Y49350396D01*
X-159657Y49458979D01*
X-235193Y49551826D01*
X-346924Y49595103D01*
X-435050Y49521927D01*
X-603433Y49293743D01*
X-749785Y49293743D01*
X-749785Y49446390D01*
X-752146Y49500682D01*
X-767096Y49543171D01*
X-811159Y49578579D01*
X-894564Y49589595D01*
X-976395Y49578579D01*
X-1020458Y49542384D01*
X-1035408Y49499108D01*
X-1037768Y49444816D01*
X-1464235Y49444816D01*
X-1464235Y50700086D01*
X-1070815Y50700086D01*
X-1031474Y50625730D01*
X-913448Y50600944D01*
X-826896Y50618255D01*
X-781259Y50692217D01*
X-778112Y50700873D01*
X-766309Y50719757D01*
X-742704Y50743362D01*
X-704936Y50762246D01*
X-649070Y50770901D01*
X-550715Y50746509D01*
X-513734Y50681202D01*
X-544027Y50612747D01*
X-634907Y50589928D01*
X-678183Y50589928D01*
X-714378Y50582847D01*
X-749785Y50563176D01*
X-768670Y50522260D01*
X-778112Y50453019D01*
X-767883Y50374335D01*
X-734835Y50333419D01*
X-694707Y50320043D01*
X-644349Y50317682D01*
X-633333Y50317682D01*
X-560157Y50307454D01*
X-537339Y50267325D01*
X-563305Y50213033D01*
X-634907Y50193362D01*
X-702575Y50209099D01*
X-748212Y50256309D01*
X-796121Y50321179D01*
X-862216Y50339539D01*
X-946495Y50311388D01*
X-1024392Y50224835D01*
X-1001574Y50116252D01*
X-999213Y50110744D01*
X-990558Y50093433D01*
X-974821Y50067468D01*
X-949642Y50035994D01*
X-915021Y50002160D01*
X-868598Y49969900D01*
X-810372Y49942361D01*
X-737983Y49923476D01*
X-650644Y49916395D01*
X-536203Y49928285D01*
X-438372Y49963955D01*
X-357153Y50023405D01*
X-356506Y50024192D01*
X-158083Y50024192D01*
X-69957Y49949442D01*
X48069Y49925837D01*
X120458Y50015536D01*
X359657Y50604450D01*
X369099Y50627697D01*
X617740Y50015536D01*
X691702Y49926624D01*
X808155Y49949442D01*
X898641Y50024979D01*
X880544Y50133562D01*
X720908Y50484492D01*
X963948Y50484492D01*
X965916Y50418398D01*
X971817Y50352303D01*
X984603Y50282275D01*
X1007225Y50204378D01*
X1038895Y50127661D01*
X1078827Y50061173D01*
X1131938Y50004717D01*
X1203147Y49958097D01*
X1289700Y49926820D01*
X1388841Y49916395D01*
X1456509Y49923576D01*
X1485229Y49926624D01*
X1569814Y49957310D01*
X1639843Y50003144D01*
X1692561Y50058813D01*
X1732493Y50124514D01*
X1764163Y50200443D01*
X1786981Y50278144D01*
X1800358Y50349156D01*
X1806849Y50417217D01*
X1809013Y50486066D01*
X1806652Y50556685D01*
X1799571Y50626910D01*
X1785604Y50699299D01*
X1762589Y50776409D01*
X1730919Y50850962D01*
X1690987Y50915680D01*
X1638662Y50970365D01*
X1569814Y51014821D01*
X1486803Y51044328D01*
X1391989Y51054163D01*
X1308190Y51047475D01*
X1233047Y51027411D01*
X1168723Y50995347D01*
X1117382Y50952661D01*
X1040272Y50848798D01*
X1012142Y50789785D01*
X992275Y50724478D01*
X970243Y50599371D01*
X963948Y50484492D01*
X720908Y50484492D01*
X507582Y50953448D01*
X453290Y51010887D01*
X372246Y51032132D01*
X284120Y51012461D01*
X230615Y50953448D01*
X-142346Y50133562D01*
X-158083Y50024192D01*
X-356506Y50024192D01*
X-346924Y50035856D01*
X-296392Y50097368D01*
X-259935Y50176576D01*
X-247783Y50261030D01*
X-274928Y50376302D01*
X-356366Y50454592D01*
X-268240Y50539571D01*
X-236373Y50602518D01*
X-225751Y50678054D01*
X-239127Y50779906D01*
X-279256Y50869344D01*
X-346137Y50946366D01*
X-433476Y51005379D01*
X-534979Y51040787D01*
X-650644Y51052589D01*
X-758178Y51040787D01*
X-856271Y51005379D01*
X-944921Y50946366D01*
X-1014863Y50871791D01*
X-1056827Y50789698D01*
X-1070815Y50700086D01*
X-1464235Y50700086D01*
X-1464235Y52329890D01*
X-1048784Y52329890D01*
X-1048784Y51517873D01*
X-1046423Y51465155D01*
X-1031474Y51422666D01*
X-987411Y51387258D01*
X-904006Y51376242D01*
X-862303Y51378603D01*
X-833977Y51382537D01*
X-813519Y51389619D01*
X-800143Y51397487D01*
X-788340Y51409289D01*
X-778112Y51420305D01*
X-650644Y51584014D01*
X-457082Y51832608D01*
X-137625Y51421879D01*
X-90415Y51385684D01*
X-7010Y51376242D01*
X74821Y51387258D01*
X118097Y51422666D01*
X133047Y51465942D01*
X136195Y51521021D01*
X136195Y52333038D01*
X133047Y52386543D01*
X132756Y52387330D01*
X192847Y52387330D01*
X213305Y52276385D01*
X372246Y51947104D01*
X608298Y51458073D01*
X663376Y51397487D01*
X740486Y51374669D01*
X817203Y51395913D01*
X871102Y51459647D01*
X1266094Y52276385D01*
X1277614Y52336972D01*
X1312518Y52336972D01*
X1366810Y52235470D01*
X1648498Y51925455D01*
X1365236Y51615441D01*
X1312518Y51514726D01*
X1373104Y51412437D01*
X1391989Y51402578D01*
X1480114Y51356571D01*
X1576109Y51421879D01*
X1842060Y51713009D01*
X2106438Y51421879D01*
X2202432Y51356571D01*
X2309442Y51412437D01*
X2370815Y51514726D01*
X2317310Y51615441D01*
X2034049Y51925455D01*
X2315737Y52235470D01*
X2370029Y52336972D01*
X2307868Y52436900D01*
X2200858Y52492766D01*
X2104864Y52427458D01*
X1842060Y52137902D01*
X1577682Y52427458D01*
X1481688Y52492766D01*
X1374678Y52436900D01*
X1312518Y52336972D01*
X1277614Y52336972D01*
X1287339Y52388116D01*
X1200000Y52465227D01*
X1083548Y52488045D01*
X1006438Y52397558D01*
X934049Y52248059D01*
X546924Y52248059D01*
X474535Y52399132D01*
X395851Y52486471D01*
X280973Y52463653D01*
X192847Y52387330D01*
X132756Y52387330D01*
X117310Y52429032D01*
X74034Y52463653D01*
X-8584Y52474669D01*
X-90415Y52463653D01*
X-134478Y52427458D01*
X-149428Y52384182D01*
X-151788Y52329890D01*
X-151788Y51882966D01*
X-335908Y52133181D01*
X-345351Y52145770D01*
X-360300Y52163081D01*
X-380758Y52178817D01*
X-413805Y52192980D01*
X-457082Y52197701D01*
X-527897Y52181571D01*
X-579828Y52133181D01*
X-762375Y51884540D01*
X-762375Y52333038D01*
X-764735Y52385756D01*
X-779685Y52428245D01*
X-823748Y52463653D01*
X-907153Y52474669D01*
X-988197Y52463653D01*
X-1030687Y52428245D01*
X-1045637Y52384969D01*
X-1048784Y52329890D01*
X-1464235Y52329890D01*
X-1464235Y52894840D01*
X-1070815Y52894840D01*
X-907153Y52894840D01*
G37*
D12*
%TO.C,R104*%
X53160000Y32963641D02*
X53160000Y32656359D01*
X53920000Y32963641D02*
X53920000Y32656359D01*
%TO.C,D701*%
X-4260000Y38460000D02*
X-4260000Y37300000D01*
X-4260000Y38460000D02*
X-3950000Y38460000D01*
X-2340000Y38460000D02*
X-2650000Y38460000D01*
X-2340000Y38460000D02*
X-2340000Y37300000D01*
D14*
X-2725000Y36650000D02*
G75*
G02*
X-2875000Y36650000I-75000J0D01*
G01*
X-2875000Y36650000D02*
G75*
G02*
X-2725000Y36650000I75000J0D01*
G01*
D12*
%TO.C,J102*%
X12600000Y51750000D02*
X12600000Y3750000D01*
X14160000Y36650000D02*
X17040000Y36650000D01*
X14160000Y35650000D02*
X14160000Y36650000D01*
X14160000Y14850000D02*
X14160000Y13850000D01*
X14160000Y13850000D02*
X17040000Y13850000D01*
X16100000Y250000D02*
X49100000Y250000D01*
X17040000Y35650000D02*
X17040000Y36650000D01*
X17040000Y14850000D02*
X17040000Y13850000D01*
X49100000Y55250000D02*
X16100000Y55250000D01*
X52600000Y3750000D02*
X52600000Y51750000D01*
X12600000Y51750000D02*
G75*
G02*
X16100000Y55250000I3500000J0D01*
G01*
X16100000Y250000D02*
G75*
G02*
X12600000Y3750000I0J3500000D01*
G01*
X49100000Y55250000D02*
G75*
G02*
X52600000Y51750000I1J-3499999D01*
G01*
X52600000Y3750000D02*
G75*
G02*
X49100000Y250000I-3499999J-1D01*
G01*
%TO.C,J101*%
X12600000Y51750000D02*
X12600000Y3750000D01*
X16100000Y250000D02*
X49100000Y250000D01*
X48160000Y36650000D02*
X50960000Y36650000D01*
X48160000Y35650000D02*
X48160000Y36650000D01*
X48160000Y14850000D02*
X48160000Y13850000D01*
X48160000Y13850000D02*
X50960000Y13850000D01*
X49100000Y55250000D02*
X16100000Y55250000D01*
X50960000Y35650000D02*
X50960000Y36650000D01*
X50960000Y14850000D02*
X50960000Y13850000D01*
X52600000Y3750000D02*
X52600000Y51750000D01*
X12600000Y51750000D02*
G75*
G02*
X16100000Y55250000I3500000J0D01*
G01*
X16100000Y250000D02*
G75*
G02*
X12600000Y3750000I0J3500000D01*
G01*
X49100000Y55250000D02*
G75*
G02*
X52600000Y51750000I1J-3499999D01*
G01*
X52600000Y3750000D02*
G75*
G02*
X49100000Y250000I-3499999J-1D01*
G01*
%TD*%
%LPC*%
D15*
%TO.C,J2*%
X9050000Y3400000D03*
D16*
X9050000Y5400000D03*
%TD*%
D17*
%TO.C,J5*%
X-7540000Y34040000D03*
D18*
X-40000Y34040000D03*
D19*
X-6190000Y36190000D03*
X-6190000Y31890000D03*
X-1390000Y36190000D03*
X-1390000Y31890000D03*
%TD*%
D20*
%TO.C,M701*%
X35450000Y22375000D03*
%TD*%
D21*
%TO.C,H105*%
X-6600080Y-900D03*
%TD*%
D22*
%TO.C,J1*%
X2700000Y6530000D03*
D23*
X160000Y6530000D03*
X2700000Y9070000D03*
X160000Y9070000D03*
X2700000Y11610000D03*
X160000Y11610000D03*
X2700000Y14150000D03*
X160000Y14150000D03*
X2700000Y16690000D03*
X160000Y16690000D03*
X2700000Y19230000D03*
X160000Y19230000D03*
%TD*%
D20*
%TO.C,M702*%
X35450000Y10500000D03*
%TD*%
D21*
%TO.C,H103*%
X55000000Y58000000D03*
%TD*%
D24*
%TO.C,J701*%
X25450000Y50625000D03*
D25*
X45450000Y50625000D03*
%TD*%
D26*
%TO.C,TP105*%
X-370000Y39130000D03*
%TD*%
D21*
%TO.C,H104*%
X55000000Y-900D03*
%TD*%
%TO.C,H102*%
X-6600080Y58000000D03*
%TD*%
D27*
%TO.C,SW501*%
X56487500Y17150000D03*
X56487500Y12850000D03*
%TD*%
D26*
%TO.C,TP104*%
X51460000Y48370000D03*
%TD*%
%TO.C,TP106*%
X28410000Y20500000D03*
%TD*%
D28*
%TO.C,R103*%
X46750000Y17470000D03*
X45730000Y17470000D03*
%TD*%
D29*
%TO.C,R102*%
X45780000Y18370000D03*
X45780000Y19390000D03*
%TD*%
D30*
%TO.C,CN1*%
X-4700000Y48010000D03*
X-3700000Y48010000D03*
D31*
X-2400000Y51890000D03*
X-6000000Y51890000D03*
%TD*%
D32*
%TO.C,SW101*%
X52590000Y9970000D03*
X52590000Y6970000D03*
D33*
X51400000Y9470000D03*
X51400000Y7470000D03*
D34*
X52660000Y5470000D03*
X52660000Y11470000D03*
D33*
X51400000Y8470000D03*
%TD*%
D29*
%TO.C,R104*%
X53540000Y32300000D03*
X53540000Y33320000D03*
%TD*%
D35*
%TO.C,D701*%
X-2800000Y37300000D03*
X-3800000Y37300000D03*
X-3300000Y38599999D03*
%TD*%
D36*
%TO.C,J102*%
X49100000Y3750000D03*
D37*
X49100000Y51750000D03*
D38*
X17140000Y35050000D03*
X14060000Y35050000D03*
X17140000Y34650000D03*
X14060000Y34650000D03*
X17140000Y34250000D03*
X14060000Y34250000D03*
X17140000Y33850000D03*
X14060000Y33850000D03*
X17140000Y33450000D03*
X14060000Y33450000D03*
X17140000Y33050000D03*
X14060000Y33050000D03*
X17140000Y32650000D03*
X14060000Y32650000D03*
X17140000Y32250000D03*
X14060000Y32250000D03*
X17140000Y31850000D03*
X14060000Y31850000D03*
X17140000Y31450000D03*
X14060000Y31450000D03*
X17140000Y31050000D03*
X14060000Y31050000D03*
X17140000Y30650000D03*
X14060000Y30650000D03*
X17140000Y30250000D03*
X14060000Y30250000D03*
X17140000Y29850000D03*
X14060000Y29850000D03*
X17140000Y29450000D03*
X14060000Y29450000D03*
X17140000Y29050000D03*
X14060000Y29050000D03*
X17140000Y28650000D03*
X14060000Y28650000D03*
X17140000Y28250000D03*
X14060000Y28250000D03*
X17140000Y27850000D03*
X14060000Y27850000D03*
X17140000Y27450000D03*
X14060000Y27450000D03*
X17140000Y27050000D03*
X14060000Y27050000D03*
X17140000Y26650000D03*
X14060000Y26650000D03*
X17140000Y26250000D03*
X14060000Y26250000D03*
X17140000Y25850000D03*
X14060000Y25850000D03*
X17140000Y25450000D03*
X14060000Y25450000D03*
X17140000Y25050000D03*
X14060000Y25050000D03*
X17140000Y24650000D03*
X14060000Y24650000D03*
X17140000Y24250000D03*
X14060000Y24250000D03*
X17140000Y23850000D03*
X14060000Y23850000D03*
X17140000Y23450000D03*
X14060000Y23450000D03*
X17140000Y23050000D03*
X14060000Y23050000D03*
X17140000Y22650000D03*
X14060000Y22650000D03*
X17140000Y22250000D03*
X14060000Y22250000D03*
X17140000Y21850000D03*
X14060000Y21850000D03*
X17140000Y21450000D03*
X14060000Y21450000D03*
X17140000Y21050000D03*
X14060000Y21050000D03*
X17140000Y20650000D03*
X14060000Y20650000D03*
X17140000Y20250000D03*
X14060000Y20250000D03*
X17140000Y19850000D03*
X14060000Y19850000D03*
X17140000Y19450000D03*
X14060000Y19450000D03*
X17140000Y19050000D03*
X14060000Y19050000D03*
X17140000Y18650000D03*
X14060000Y18650000D03*
X17140000Y18250000D03*
X14060000Y18250000D03*
X17140000Y17850000D03*
X14060000Y17850000D03*
X17140000Y17450000D03*
X14060000Y17450000D03*
X17140000Y17050000D03*
X14060000Y17050000D03*
X17140000Y16650000D03*
X14060000Y16650000D03*
X17140000Y16250000D03*
X14060000Y16250000D03*
X17140000Y15850000D03*
X14060000Y15850000D03*
X17140000Y15450000D03*
X14060000Y15450000D03*
%TD*%
D39*
%TO.C,J101*%
X49100000Y3750000D03*
D40*
X49100000Y51750000D03*
D38*
X51140000Y35050000D03*
X48060000Y35050000D03*
X51140000Y34650000D03*
X48060000Y34650000D03*
X51140000Y34250000D03*
X48060000Y34250000D03*
X51140000Y33850000D03*
X48060000Y33850000D03*
X51140000Y33450000D03*
X48060000Y33450000D03*
X51140000Y33050000D03*
X48060000Y33050000D03*
X51140000Y32650000D03*
X48060000Y32650000D03*
X51140000Y32250000D03*
X48060000Y32250000D03*
X51140000Y31850000D03*
X48060000Y31850000D03*
X51140000Y31450000D03*
X48060000Y31450000D03*
X51140000Y31050000D03*
X48060000Y31050000D03*
X51140000Y30650000D03*
X48060000Y30650000D03*
X51140000Y30250000D03*
X48060000Y30250000D03*
X51140000Y29850000D03*
X48060000Y29850000D03*
X51140000Y29450000D03*
X48060000Y29450000D03*
X51140000Y29050000D03*
X48060000Y29050000D03*
X51140000Y28650000D03*
X48060000Y28650000D03*
X51140000Y28250000D03*
X48060000Y28250000D03*
X51140000Y27850000D03*
X48060000Y27850000D03*
X51140000Y27450000D03*
X48060000Y27450000D03*
X51140000Y27050000D03*
X48060000Y27050000D03*
X51140000Y26650000D03*
X48060000Y26650000D03*
X51140000Y26250000D03*
X48060000Y26250000D03*
X51140000Y25850000D03*
X48060000Y25850000D03*
X51140000Y25450000D03*
X48060000Y25450000D03*
X51140000Y25050000D03*
X48060000Y25050000D03*
X51140000Y24650000D03*
X48060000Y24650000D03*
X51140000Y24250000D03*
X48060000Y24250000D03*
X51140000Y23850000D03*
X48060000Y23850000D03*
X51140000Y23450000D03*
X48060000Y23450000D03*
X51140000Y23050000D03*
X48060000Y23050000D03*
X51140000Y22650000D03*
X48060000Y22650000D03*
X51140000Y22250000D03*
X48060000Y22250000D03*
X51140000Y21850000D03*
X48060000Y21850000D03*
X51140000Y21450000D03*
X48060000Y21450000D03*
X51140000Y21050000D03*
X48060000Y21050000D03*
X51140000Y20650000D03*
X48060000Y20650000D03*
X51140000Y20250000D03*
X48060000Y20250000D03*
X51140000Y19850000D03*
X48060000Y19850000D03*
X51140000Y19450000D03*
X48060000Y19450000D03*
X51140000Y19050000D03*
X48060000Y19050000D03*
X51140000Y18650000D03*
X48060000Y18650000D03*
X51140000Y18250000D03*
X48060000Y18250000D03*
X51140000Y17850000D03*
X48060000Y17850000D03*
X51140000Y17450000D03*
X48060000Y17450000D03*
X51140000Y17050000D03*
X48060000Y17050000D03*
X51140000Y16650000D03*
X48060000Y16650000D03*
X51140000Y16250000D03*
X48060000Y16250000D03*
X51140000Y15850000D03*
X48060000Y15850000D03*
X51140000Y15450000D03*
X48060000Y15450000D03*
%TD*%
%LPD*%
M02*
