%TF.GenerationSoftware,KiCad,Pcbnew,9.0.6*%
%TF.CreationDate,2025-11-07T06:51:29-08:00*%
%TF.ProjectId,bramble_valve_indexer,6272616d-626c-4655-9f76-616c76655f69,rev?*%
%TF.SameCoordinates,Original*%
%TF.FileFunction,Copper,L2,Bot*%
%TF.FilePolarity,Positive*%
%FSLAX46Y46*%
G04 Gerber Fmt 4.6, Leading zero omitted, Abs format (unit mm)*
G04 Created by KiCad (PCBNEW 9.0.6) date 2025-11-07 06:51:29*
%MOMM*%
%LPD*%
G01*
G04 APERTURE LIST*
G04 Aperture macros list*
%AMRoundRect*
0 Rectangle with rounded corners*
0 $1 Rounding radius*
0 $2 $3 $4 $5 $6 $7 $8 $9 X,Y pos of 4 corners*
0 Add a 4 corners polygon primitive as box body*
4,1,4,$2,$3,$4,$5,$6,$7,$8,$9,$2,$3,0*
0 Add four circle primitives for the rounded corners*
1,1,$1+$1,$2,$3*
1,1,$1+$1,$4,$5*
1,1,$1+$1,$6,$7*
1,1,$1+$1,$8,$9*
0 Add four rect primitives between the rounded corners*
20,1,$1+$1,$2,$3,$4,$5,0*
20,1,$1+$1,$4,$5,$6,$7,0*
20,1,$1+$1,$6,$7,$8,$9,0*
20,1,$1+$1,$8,$9,$2,$3,0*%
G04 Aperture macros list end*
%TA.AperFunction,ComponentPad*%
%ADD10C,6.000000*%
%TD*%
%TA.AperFunction,ComponentPad*%
%ADD11C,1.803400*%
%TD*%
%TA.AperFunction,ComponentPad*%
%ADD12R,1.700000X1.700000*%
%TD*%
%TA.AperFunction,ComponentPad*%
%ADD13C,1.700000*%
%TD*%
%TA.AperFunction,SMDPad,CuDef*%
%ADD14RoundRect,0.250000X0.262500X0.450000X-0.262500X0.450000X-0.262500X-0.450000X0.262500X-0.450000X0*%
%TD*%
%TA.AperFunction,SMDPad,CuDef*%
%ADD15RoundRect,0.150000X0.587500X0.150000X-0.587500X0.150000X-0.587500X-0.150000X0.587500X-0.150000X0*%
%TD*%
%TA.AperFunction,SMDPad,CuDef*%
%ADD16RoundRect,0.250000X-0.262500X-0.450000X0.262500X-0.450000X0.262500X0.450000X-0.262500X0.450000X0*%
%TD*%
%TA.AperFunction,SMDPad,CuDef*%
%ADD17RoundRect,0.250000X0.250000X0.475000X-0.250000X0.475000X-0.250000X-0.475000X0.250000X-0.475000X0*%
%TD*%
%TA.AperFunction,SMDPad,CuDef*%
%ADD18RoundRect,0.250000X0.475000X-0.250000X0.475000X0.250000X-0.475000X0.250000X-0.475000X-0.250000X0*%
%TD*%
%TA.AperFunction,ViaPad*%
%ADD19C,0.600000*%
%TD*%
%TA.AperFunction,Conductor*%
%ADD20C,0.200000*%
%TD*%
%TA.AperFunction,Conductor*%
%ADD21C,0.381000*%
%TD*%
G04 APERTURE END LIST*
D10*
%TO.P,H1,1*%
%TO.N,N/C*%
X18389600Y-18262600D03*
%TD*%
D11*
%TO.P,M4,1,1*%
%TO.N,/M+*%
X45542200Y-42211600D03*
%TO.P,M4,2,2*%
%TO.N,Net-(K4-Pad4)*%
X45542200Y-37131600D03*
%TD*%
%TO.P,M2,1,1*%
%TO.N,/M+*%
X19126200Y-42418000D03*
%TO.P,M2,2,2*%
%TO.N,Net-(K2-Pad4)*%
X19126200Y-37338000D03*
%TD*%
%TO.P,M3,1,1*%
%TO.N,/M+*%
X45313600Y-30175200D03*
%TO.P,M3,2,2*%
%TO.N,Net-(K3-Pad4)*%
X45313600Y-25095200D03*
%TD*%
D10*
%TO.P,H3,1*%
%TO.N,N/C*%
X44958000Y-50090700D03*
%TD*%
%TO.P,H2,1*%
%TO.N,N/C*%
X44958000Y-18262600D03*
%TD*%
D12*
%TO.P,J1,1,Pin_1*%
%TO.N,+9V*%
X26500000Y-51411500D03*
D13*
%TO.P,J1,2,Pin_2*%
%TO.N,/MOTOR_HI_1*%
X26500000Y-48871500D03*
%TO.P,J1,3,Pin_3*%
%TO.N,/VALVE_1*%
X29040000Y-51411500D03*
%TO.P,J1,4,Pin_4*%
%TO.N,/MOTOR_HI_2*%
X29040000Y-48871500D03*
%TO.P,J1,5,Pin_5*%
%TO.N,/VALVE_2*%
X31580000Y-51411500D03*
%TO.P,J1,6,Pin_6*%
%TO.N,/MOTOR_LO_1*%
X31580000Y-48871500D03*
%TO.P,J1,7,Pin_7*%
%TO.N,/VALVE_3*%
X34120000Y-51411500D03*
%TO.P,J1,8,Pin_8*%
%TO.N,/MOTOR_LO_2*%
X34120000Y-48871500D03*
%TO.P,J1,9,Pin_9*%
%TO.N,/VALVE_4*%
X36660000Y-51411500D03*
%TO.P,J1,10,Pin_10*%
%TO.N,GND*%
X36660000Y-48871500D03*
%TD*%
D11*
%TO.P,M1,1,1*%
%TO.N,/M+*%
X19126200Y-30403800D03*
%TO.P,M1,2,2*%
%TO.N,Net-(K1-Pad4)*%
X19126200Y-25323800D03*
%TD*%
D10*
%TO.P,H4,1*%
%TO.N,N/C*%
X18389600Y-50039900D03*
%TD*%
D14*
%TO.P,R19,1*%
%TO.N,Net-(Q2-G)*%
X27292900Y-37959250D03*
%TO.P,R19,2*%
%TO.N,GND*%
X25467900Y-37959250D03*
%TD*%
D15*
%TO.P,Q4,1,G*%
%TO.N,Net-(Q4-G)*%
X25875000Y-24050000D03*
%TO.P,Q4,2,S*%
%TO.N,/M-*%
X25875000Y-25950000D03*
%TO.P,Q4,3,D*%
%TO.N,GND*%
X24000000Y-25000000D03*
%TD*%
%TO.P,Q6,1,G*%
%TO.N,Net-(Q6-G)*%
X38375000Y-24050000D03*
%TO.P,Q6,2,S*%
%TO.N,GND*%
X38375000Y-25950000D03*
%TO.P,Q6,3,D*%
%TO.N,Net-(Q6-D)*%
X36500000Y-25000000D03*
%TD*%
%TO.P,Q2,1,G*%
%TO.N,Net-(Q2-G)*%
X26842900Y-40344650D03*
%TO.P,Q2,2,S*%
%TO.N,/M+*%
X26842900Y-42244650D03*
%TO.P,Q2,3,D*%
%TO.N,GND*%
X24967900Y-41294650D03*
%TD*%
D14*
%TO.P,R24,1*%
%TO.N,Net-(Q6-D)*%
X32325000Y-30500000D03*
%TO.P,R24,2*%
%TO.N,Net-(Q9-G)*%
X30500000Y-30500000D03*
%TD*%
D16*
%TO.P,R23,1*%
%TO.N,+9V*%
X30500000Y-19000000D03*
%TO.P,R23,2*%
%TO.N,Net-(Q9-G)*%
X32325000Y-19000000D03*
%TD*%
D14*
%TO.P,R14,1*%
%TO.N,Net-(Q8-G)*%
X33620400Y-37908450D03*
%TO.P,R14,2*%
%TO.N,/MOTOR_HI_1*%
X31795400Y-37908450D03*
%TD*%
D15*
%TO.P,Q7,1,G*%
%TO.N,Net-(Q7-G)*%
X37632800Y-40344650D03*
%TO.P,Q7,2,S*%
%TO.N,/M+*%
X37632800Y-42244650D03*
%TO.P,Q7,3,D*%
%TO.N,+9V*%
X35757800Y-41294650D03*
%TD*%
D16*
%TO.P,R27,1*%
%TO.N,/MOTOR_HI_2*%
X25320300Y-45020450D03*
%TO.P,R27,2*%
%TO.N,Net-(Q6-G)*%
X27145300Y-45020450D03*
%TD*%
D14*
%TO.P,R22,1*%
%TO.N,Net-(Q4-G)*%
X26325000Y-30500000D03*
%TO.P,R22,2*%
%TO.N,GND*%
X24500000Y-30500000D03*
%TD*%
D17*
%TO.P,R16,1*%
%TO.N,Net-(Q7-G)*%
X33644600Y-35292250D03*
%TO.P,R16,2*%
%TO.N,Net-(Q8-D)*%
X31744600Y-35292250D03*
%TD*%
D16*
%TO.P,R15,1*%
%TO.N,Net-(Q8-G)*%
X37000000Y-30475400D03*
%TO.P,R15,2*%
%TO.N,GND*%
X38825000Y-30475400D03*
%TD*%
D18*
%TO.P,R18,1*%
%TO.N,+9V*%
X40304400Y-42246850D03*
%TO.P,R18,2*%
%TO.N,Net-(Q7-G)*%
X40304400Y-40346850D03*
%TD*%
D16*
%TO.P,R26,1*%
%TO.N,Net-(Q6-G)*%
X31898900Y-45020450D03*
%TO.P,R26,2*%
%TO.N,GND*%
X33723900Y-45020450D03*
%TD*%
D15*
%TO.P,Q9,1,G*%
%TO.N,Net-(Q9-G)*%
X32000000Y-24000000D03*
%TO.P,Q9,2,S*%
%TO.N,/M-*%
X32000000Y-25900000D03*
%TO.P,Q9,3,D*%
%TO.N,+9V*%
X30125000Y-24950000D03*
%TD*%
D16*
%TO.P,R25,1*%
%TO.N,/MOTOR_LO_2*%
X24500000Y-19000000D03*
%TO.P,R25,2*%
%TO.N,Net-(Q4-G)*%
X26325000Y-19000000D03*
%TD*%
D15*
%TO.P,Q8,1,G*%
%TO.N,Net-(Q8-G)*%
X33342900Y-40344650D03*
%TO.P,Q8,2,S*%
%TO.N,GND*%
X33342900Y-42244650D03*
%TO.P,Q8,3,D*%
%TO.N,Net-(Q8-D)*%
X31467900Y-41294650D03*
%TD*%
D17*
%TO.P,R17,1*%
%TO.N,Net-(Q2-G)*%
X27345400Y-35393850D03*
%TO.P,R17,2*%
%TO.N,/MOTOR_LO_1*%
X25445400Y-35393850D03*
%TD*%
D19*
%TO.N,GND*%
X23000000Y-39250000D03*
%TO.N,/M-*%
X29250000Y-30000000D03*
%TO.N,GND*%
X22750000Y-30500000D03*
X24000000Y-24000000D03*
X26500000Y-39250000D03*
X38825000Y-27500000D03*
%TO.N,/MOTOR_HI_1*%
X35000000Y-42500000D03*
%TO.N,/MOTOR_LO_1*%
X25500000Y-34000000D03*
%TO.N,/M+*%
X39000000Y-43000000D03*
%TD*%
D20*
%TO.N,GND*%
X23000000Y-39250000D02*
X26500000Y-39250000D01*
%TO.N,Net-(Q6-G)*%
X38375000Y-24570532D02*
X37000000Y-25945532D01*
X26818960Y-45020450D02*
X27145300Y-45020450D01*
X37000000Y-25945532D02*
X37000000Y-29000000D01*
X32976740Y-33000000D02*
X25000000Y-33000000D01*
X36976740Y-29000000D02*
X32976740Y-33000000D01*
X37000000Y-29000000D02*
X36976740Y-29000000D01*
X38375000Y-24050000D02*
X38375000Y-24570532D01*
X25000000Y-33000000D02*
X22250000Y-35750000D01*
X22250000Y-40451490D02*
X26818960Y-45020450D01*
X22250000Y-35750000D02*
X22250000Y-40451490D01*
D21*
%TO.N,/M-*%
X29250000Y-27912501D02*
X29250000Y-30000000D01*
X31262501Y-25900000D02*
X29250000Y-27912501D01*
X32000000Y-25900000D02*
X31262501Y-25900000D01*
D20*
%TO.N,GND*%
X24500000Y-30500000D02*
X22750000Y-30500000D01*
X24000000Y-24000000D02*
X24000000Y-25000000D01*
X26500000Y-39250000D02*
X26500000Y-38991350D01*
X26500000Y-38991350D02*
X25467900Y-37959250D01*
X38825000Y-27500000D02*
X38825000Y-30475400D01*
X24500000Y-30500000D02*
X24000000Y-30000000D01*
X24000000Y-30000000D02*
X24000000Y-25000000D01*
%TO.N,/MOTOR_HI_1*%
X34143650Y-41643650D02*
X35000000Y-42500000D01*
X33196368Y-41643650D02*
X34143650Y-41643650D01*
X31795400Y-40242682D02*
X33196368Y-41643650D01*
X31795400Y-37908450D02*
X31795400Y-40242682D01*
D21*
%TO.N,/MOTOR_LO_1*%
X25445400Y-35393850D02*
X25445400Y-34054600D01*
X25445400Y-34054600D02*
X25500000Y-34000000D01*
D20*
%TO.N,Net-(Q7-G)*%
X37632800Y-40344650D02*
X36344650Y-40344650D01*
X36344650Y-40344650D02*
X36000000Y-40000000D01*
X36000000Y-40000000D02*
X36000000Y-36677450D01*
X36000000Y-36677450D02*
X34614800Y-35292250D01*
X34614800Y-35292250D02*
X33644600Y-35292250D01*
D21*
%TO.N,/MOTOR_LO_2*%
X24500000Y-19000000D02*
X24500000Y-19823072D01*
X21161536Y-23161536D02*
X21161536Y-47661536D01*
X24500000Y-19823072D02*
X21161536Y-23161536D01*
X21161536Y-47661536D02*
X23670000Y-50170000D01*
X23670000Y-50170000D02*
X32821500Y-50170000D01*
X32821500Y-50170000D02*
X34120000Y-48871500D01*
D20*
%TO.N,GND*%
X27519450Y-44019450D02*
X26500000Y-43000000D01*
X26500000Y-43000000D02*
X25467900Y-43000000D01*
X25467900Y-43000000D02*
X24967900Y-42500000D01*
X33723900Y-45020450D02*
X32722900Y-44019450D01*
X32722900Y-44019450D02*
X27519450Y-44019450D01*
%TO.N,Net-(Q8-G)*%
X37000000Y-30475400D02*
X36950290Y-30475400D01*
X36950290Y-30475400D02*
X32843600Y-34582090D01*
X32843600Y-34582090D02*
X32843600Y-37131650D01*
X32843600Y-37131650D02*
X33620400Y-37908450D01*
D21*
%TO.N,/M+*%
X45313600Y-30175200D02*
X44742800Y-30175200D01*
X44742800Y-30175200D02*
X44000000Y-30918000D01*
X41582000Y-28500000D02*
X44000000Y-30918000D01*
X41582000Y-28500000D02*
X41582000Y-21758928D01*
X41582000Y-21758928D02*
X36241072Y-16418000D01*
X36241072Y-16418000D02*
X23082000Y-16418000D01*
X23082000Y-16418000D02*
X22500000Y-17000000D01*
X22500000Y-21000000D02*
X20419400Y-23080600D01*
X22500000Y-17000000D02*
X22500000Y-21000000D01*
X20419400Y-23080600D02*
X20419400Y-31697000D01*
%TO.N,+9V*%
X30500000Y-19000000D02*
X30500000Y-17500000D01*
X30500000Y-17500000D02*
X31000000Y-17000000D01*
X31000000Y-17000000D02*
X36000000Y-17000000D01*
X41753150Y-42246850D02*
X40304400Y-42246850D01*
X36000000Y-17000000D02*
X41000000Y-22000000D01*
X41000000Y-22000000D02*
X41000000Y-37500000D01*
X41000000Y-37500000D02*
X42500000Y-39000000D01*
X42500000Y-39000000D02*
X42500000Y-41500000D01*
X42500000Y-41500000D02*
X41753150Y-42246850D01*
D20*
%TO.N,GND*%
X36660000Y-45660000D02*
X36000000Y-45000000D01*
X36660000Y-48871500D02*
X36660000Y-45660000D01*
X35979550Y-45020450D02*
X33723900Y-45020450D01*
X36000000Y-45000000D02*
X35979550Y-45020450D01*
D21*
%TO.N,/M+*%
X39000000Y-43000000D02*
X38388150Y-43000000D01*
X38388150Y-43000000D02*
X37632800Y-42244650D01*
X44000000Y-40669400D02*
X45542200Y-42211600D01*
X44000000Y-30918000D02*
X44000000Y-40669400D01*
X19126200Y-42418000D02*
X20419400Y-41124800D01*
X20419400Y-41124800D02*
X20419400Y-31697000D01*
X20419400Y-31697000D02*
X19126200Y-30403800D01*
X37632800Y-42244650D02*
X36377450Y-43500000D01*
X36377450Y-43500000D02*
X28098250Y-43500000D01*
X28098250Y-43500000D02*
X26842900Y-42244650D01*
D20*
%TO.N,GND*%
X38375000Y-25950000D02*
X38825000Y-26400000D01*
X24967900Y-41294650D02*
X29339600Y-41294650D01*
X25467900Y-40794650D02*
X24967900Y-41294650D01*
X30304000Y-42244650D02*
X33342900Y-42244650D01*
X30296800Y-42251850D02*
X30304000Y-42244650D01*
X24967900Y-42500000D02*
X24967900Y-41294650D01*
X25467900Y-37959250D02*
X25467900Y-40794650D01*
X38825000Y-26400000D02*
X38825000Y-27500000D01*
X29339600Y-41294650D02*
X30296800Y-42251850D01*
D21*
%TO.N,+9V*%
X26500000Y-51411500D02*
X26500000Y-52000000D01*
X40304400Y-42246850D02*
X40304400Y-52195600D01*
D20*
X39352200Y-41294650D02*
X40304400Y-42246850D01*
D21*
X39500000Y-53000000D02*
X27500000Y-53000000D01*
X26500000Y-52000000D02*
X27500000Y-53000000D01*
X40304400Y-52195600D02*
X39500000Y-53000000D01*
D20*
X30500000Y-19000000D02*
X30500000Y-24575000D01*
X35757800Y-41294650D02*
X39352200Y-41294650D01*
X30500000Y-24575000D02*
X30125000Y-24950000D01*
D21*
%TO.N,/MOTOR_HI_2*%
X29040000Y-48871500D02*
X25320300Y-45151800D01*
X25320300Y-45151800D02*
X25320300Y-45020450D01*
D20*
%TO.N,Net-(Q2-G)*%
X27292900Y-39894650D02*
X26842900Y-40344650D01*
X27345400Y-37906750D02*
X27292900Y-37959250D01*
X27292900Y-37959250D02*
X27292900Y-39894650D01*
X27345400Y-35393850D02*
X27345400Y-37906750D01*
%TO.N,/M-*%
X31950000Y-25950000D02*
X32000000Y-25900000D01*
X25875000Y-25950000D02*
X31950000Y-25950000D01*
%TO.N,Net-(Q4-G)*%
X26325000Y-30500000D02*
X24836500Y-29011500D01*
X26325000Y-23600000D02*
X25875000Y-24050000D01*
X24836500Y-25542968D02*
X25875000Y-24504468D01*
X26325000Y-19000000D02*
X26325000Y-23600000D01*
X25875000Y-24504468D02*
X25875000Y-24050000D01*
X24836500Y-29011500D02*
X24836500Y-25542968D01*
%TO.N,Net-(Q6-D)*%
X32325000Y-27521568D02*
X34846568Y-25000000D01*
X34846568Y-25000000D02*
X36500000Y-25000000D01*
X32325000Y-30500000D02*
X32325000Y-27521568D01*
%TO.N,Net-(Q6-G)*%
X27145300Y-45020450D02*
X31898900Y-45020450D01*
%TO.N,Net-(Q7-G)*%
X37632800Y-40344650D02*
X40302200Y-40344650D01*
X40302200Y-40344650D02*
X40304400Y-40346850D01*
%TO.N,Net-(Q8-G)*%
X33620400Y-40067150D02*
X33342900Y-40344650D01*
X33620400Y-37908450D02*
X33620400Y-40067150D01*
%TO.N,Net-(Q8-D)*%
X31744600Y-35292250D02*
X30881000Y-35292250D01*
X30881000Y-35292250D02*
X30500000Y-35673250D01*
X30500000Y-35673250D02*
X30500000Y-40326750D01*
X30500000Y-40326750D02*
X31467900Y-41294650D01*
%TO.N,Net-(Q9-G)*%
X32000000Y-24000000D02*
X33038500Y-25038500D01*
X32309268Y-26970200D02*
X31245600Y-26970200D01*
X32325000Y-23675000D02*
X32000000Y-24000000D01*
X32325000Y-19000000D02*
X32325000Y-23675000D01*
X30500000Y-27715800D02*
X30500000Y-30500000D01*
X33038500Y-25038500D02*
X33038500Y-26240968D01*
X31245600Y-26970200D02*
X30500000Y-27715800D01*
X33038500Y-26240968D02*
X32309268Y-26970200D01*
%TD*%
M02*
