%TF.GenerationSoftware,KiCad,Pcbnew,9.0.6*%
%TF.CreationDate,2025-11-07T06:51:29-08:00*%
%TF.ProjectId,bramble_valve_indexer,6272616d-626c-4655-9f76-616c76655f69,rev?*%
%TF.SameCoordinates,Original*%
%TF.FileFunction,Copper,L1,Top*%
%TF.FilePolarity,Positive*%
%FSLAX46Y46*%
G04 Gerber Fmt 4.6, Leading zero omitted, Abs format (unit mm)*
G04 Created by KiCad (PCBNEW 9.0.6) date 2025-11-07 06:51:29*
%MOMM*%
%LPD*%
G01*
G04 APERTURE LIST*
G04 Aperture macros list*
%AMRoundRect*
0 Rectangle with rounded corners*
0 $1 Rounding radius*
0 $2 $3 $4 $5 $6 $7 $8 $9 X,Y pos of 4 corners*
0 Add a 4 corners polygon primitive as box body*
4,1,4,$2,$3,$4,$5,$6,$7,$8,$9,$2,$3,0*
0 Add four circle primitives for the rounded corners*
1,1,$1+$1,$2,$3*
1,1,$1+$1,$4,$5*
1,1,$1+$1,$6,$7*
1,1,$1+$1,$8,$9*
0 Add four rect primitives between the rounded corners*
20,1,$1+$1,$2,$3,$4,$5,0*
20,1,$1+$1,$4,$5,$6,$7,0*
20,1,$1+$1,$6,$7,$8,$9,0*
20,1,$1+$1,$8,$9,$2,$3,0*%
G04 Aperture macros list end*
%TA.AperFunction,SMDPad,CuDef*%
%ADD10RoundRect,0.250000X0.450000X-0.262500X0.450000X0.262500X-0.450000X0.262500X-0.450000X-0.262500X0*%
%TD*%
%TA.AperFunction,ComponentPad*%
%ADD11C,6.000000*%
%TD*%
%TA.AperFunction,ComponentPad*%
%ADD12C,1.803400*%
%TD*%
%TA.AperFunction,SMDPad,CuDef*%
%ADD13R,1.500000X1.500000*%
%TD*%
%TA.AperFunction,ComponentPad*%
%ADD14R,1.700000X1.700000*%
%TD*%
%TA.AperFunction,ComponentPad*%
%ADD15C,1.700000*%
%TD*%
%TA.AperFunction,ViaPad*%
%ADD16C,0.600000*%
%TD*%
%TA.AperFunction,Conductor*%
%ADD17C,0.381000*%
%TD*%
%TA.AperFunction,Conductor*%
%ADD18C,0.200000*%
%TD*%
G04 APERTURE END LIST*
D10*
%TO.P,R12,1*%
%TO.N,/VALVE_1*%
X28270200Y-45794300D03*
%TO.P,R12,2*%
%TO.N,Net-(K1-Pad1)*%
X28270200Y-43969300D03*
%TD*%
%TO.P,R21,1*%
%TO.N,/VALVE_4*%
X35280600Y-45897800D03*
%TO.P,R21,2*%
%TO.N,Net-(K4-Pad1)*%
X35280600Y-44072800D03*
%TD*%
D11*
%TO.P,H1,1*%
%TO.N,N/C*%
X18389600Y-18262600D03*
%TD*%
D12*
%TO.P,M4,1,1*%
%TO.N,/M+*%
X45542200Y-42211600D03*
%TO.P,M4,2,2*%
%TO.N,Net-(K4-Pad4)*%
X45542200Y-37131600D03*
%TD*%
D13*
%TO.P,K4,1,1*%
%TO.N,Net-(K4-Pad1)*%
X27230000Y-41000000D03*
%TO.P,K4,2,2*%
%TO.N,GND*%
X29770000Y-41000000D03*
%TO.P,K4,3,3*%
%TO.N,/M-*%
X29770000Y-31500000D03*
%TO.P,K4,4,4*%
%TO.N,Net-(K4-Pad4)*%
X27230000Y-31500000D03*
%TD*%
D12*
%TO.P,M2,1,1*%
%TO.N,/M+*%
X19126200Y-42418000D03*
%TO.P,M2,2,2*%
%TO.N,Net-(K2-Pad4)*%
X19126200Y-37338000D03*
%TD*%
%TO.P,M3,1,1*%
%TO.N,/M+*%
X45313600Y-30175200D03*
%TO.P,M3,2,2*%
%TO.N,Net-(K3-Pad4)*%
X45313600Y-25095200D03*
%TD*%
D13*
%TO.P,K3,1,1*%
%TO.N,Net-(K3-Pad1)*%
X35000000Y-41000000D03*
%TO.P,K3,2,2*%
%TO.N,GND*%
X37540000Y-41000000D03*
%TO.P,K3,3,3*%
%TO.N,/M-*%
X37540000Y-31500000D03*
%TO.P,K3,4,4*%
%TO.N,Net-(K3-Pad4)*%
X35000000Y-31500000D03*
%TD*%
%TO.P,K2,1,1*%
%TO.N,Net-(K2-Pad1)*%
X27500000Y-26000000D03*
%TO.P,K2,2,2*%
%TO.N,GND*%
X30040000Y-26000000D03*
%TO.P,K2,3,3*%
%TO.N,/M-*%
X30040000Y-16500000D03*
%TO.P,K2,4,4*%
%TO.N,Net-(K2-Pad4)*%
X27500000Y-16500000D03*
%TD*%
D10*
%TO.P,R13,1*%
%TO.N,/VALVE_2*%
X25806400Y-45794300D03*
%TO.P,R13,2*%
%TO.N,Net-(K2-Pad1)*%
X25806400Y-43969300D03*
%TD*%
D13*
%TO.P,K1,1,1*%
%TO.N,Net-(K1-Pad1)*%
X35000000Y-26000000D03*
%TO.P,K1,2,2*%
%TO.N,GND*%
X37540000Y-26000000D03*
%TO.P,K1,3,3*%
%TO.N,/M-*%
X37540000Y-16500000D03*
%TO.P,K1,4,4*%
%TO.N,Net-(K1-Pad4)*%
X35000000Y-16500000D03*
%TD*%
D11*
%TO.P,H3,1*%
%TO.N,N/C*%
X44958000Y-50090700D03*
%TD*%
%TO.P,H2,1*%
%TO.N,N/C*%
X44958000Y-18262600D03*
%TD*%
D14*
%TO.P,J1,1,Pin_1*%
%TO.N,+9V*%
X26500000Y-51411500D03*
D15*
%TO.P,J1,2,Pin_2*%
%TO.N,/MOTOR_HI_1*%
X26500000Y-48871500D03*
%TO.P,J1,3,Pin_3*%
%TO.N,/VALVE_1*%
X29040000Y-51411500D03*
%TO.P,J1,4,Pin_4*%
%TO.N,/MOTOR_HI_2*%
X29040000Y-48871500D03*
%TO.P,J1,5,Pin_5*%
%TO.N,/VALVE_2*%
X31580000Y-51411500D03*
%TO.P,J1,6,Pin_6*%
%TO.N,/MOTOR_LO_1*%
X31580000Y-48871500D03*
%TO.P,J1,7,Pin_7*%
%TO.N,/VALVE_3*%
X34120000Y-51411500D03*
%TO.P,J1,8,Pin_8*%
%TO.N,/MOTOR_LO_2*%
X34120000Y-48871500D03*
%TO.P,J1,9,Pin_9*%
%TO.N,/VALVE_4*%
X36660000Y-51411500D03*
%TO.P,J1,10,Pin_10*%
%TO.N,GND*%
X36660000Y-48871500D03*
%TD*%
D12*
%TO.P,M1,1,1*%
%TO.N,/M+*%
X19126200Y-30403800D03*
%TO.P,M1,2,2*%
%TO.N,Net-(K1-Pad4)*%
X19126200Y-25323800D03*
%TD*%
D10*
%TO.P,R20,1*%
%TO.N,/VALVE_3*%
X37439600Y-45897800D03*
%TO.P,R20,2*%
%TO.N,Net-(K3-Pad1)*%
X37439600Y-44072800D03*
%TD*%
D11*
%TO.P,H4,1*%
%TO.N,N/C*%
X18389600Y-50039900D03*
%TD*%
D16*
%TO.N,GND*%
X23000000Y-39250000D03*
%TO.N,/M-*%
X29250000Y-30000000D03*
%TO.N,GND*%
X22750000Y-30500000D03*
X24000000Y-24000000D03*
X26500000Y-39250000D03*
X38825000Y-27500000D03*
%TO.N,/MOTOR_HI_1*%
X35000000Y-42500000D03*
%TO.N,/MOTOR_LO_1*%
X25500000Y-34000000D03*
%TO.N,/M+*%
X39000000Y-43000000D03*
%TD*%
D17*
%TO.N,/M-*%
X29750000Y-31500000D02*
X29250000Y-31000000D01*
X29770000Y-31500000D02*
X29750000Y-31500000D01*
X29250000Y-31000000D02*
X29250000Y-30000000D01*
D18*
%TO.N,/MOTOR_HI_1*%
X35000000Y-42500000D02*
X35206460Y-42500000D01*
X35206460Y-42500000D02*
X36281600Y-43575140D01*
X27662100Y-50033600D02*
X26500000Y-48871500D01*
X36281600Y-43575140D02*
X36281600Y-44570460D01*
X36281600Y-44570460D02*
X35965760Y-44886300D01*
X32731000Y-49348260D02*
X32045660Y-50033600D01*
X35965760Y-44886300D02*
X34595440Y-44886300D01*
X32045660Y-50033600D02*
X27662100Y-50033600D01*
X34595440Y-44886300D02*
X32731000Y-46750740D01*
X32731000Y-46750740D02*
X32731000Y-49348260D01*
%TO.N,/MOTOR_LO_1*%
X25500000Y-34000000D02*
X25500000Y-41372000D01*
X25500000Y-41372000D02*
X26179000Y-42051000D01*
X26179000Y-42051000D02*
X27713900Y-42051000D01*
X30500000Y-43000000D02*
X31580000Y-44080000D01*
X27713900Y-42051000D02*
X28662900Y-43000000D01*
X28662900Y-43000000D02*
X30500000Y-43000000D01*
X31580000Y-44080000D02*
X31580000Y-48871500D01*
%TO.N,Net-(K3-Pad4)*%
X35000000Y-31500000D02*
X33949000Y-30449000D01*
X43817400Y-23599000D02*
X45313600Y-25095200D01*
X33949000Y-30449000D02*
X33949000Y-23983900D01*
X33949000Y-23983900D02*
X34333900Y-23599000D01*
X34333900Y-23599000D02*
X43817400Y-23599000D01*
D17*
%TO.N,/M+*%
X45542200Y-42211600D02*
X45542200Y-42457800D01*
X45542200Y-42457800D02*
X45000000Y-43000000D01*
X45000000Y-43000000D02*
X39000000Y-43000000D01*
D18*
%TO.N,/VALVE_1*%
X25273000Y-46890300D02*
X27686000Y-46890300D01*
X29040000Y-51411500D02*
X29040000Y-52292700D01*
X27686000Y-46890300D02*
X28270200Y-46306100D01*
X25134300Y-52712300D02*
X24632600Y-52210600D01*
X28620400Y-52712300D02*
X25134300Y-52712300D01*
X24632600Y-52210600D02*
X24632600Y-47530700D01*
X28270200Y-46306100D02*
X28270200Y-45794300D01*
X24632600Y-47530700D02*
X25273000Y-46890300D01*
X29040000Y-52292700D02*
X28620400Y-52712300D01*
%TO.N,/VALVE_4*%
X38303200Y-51411500D02*
X36660000Y-51411500D01*
X38816600Y-47454500D02*
X38816600Y-50898100D01*
X35280600Y-45897800D02*
X35280600Y-46661700D01*
X35687000Y-47068100D02*
X38430200Y-47068100D01*
X35280600Y-46661700D02*
X35687000Y-47068100D01*
X38816600Y-50898100D02*
X38303200Y-51411500D01*
X38430200Y-47068100D02*
X38816600Y-47454500D01*
%TO.N,/VALVE_2*%
X24231600Y-52376700D02*
X24968200Y-53113300D01*
X24968200Y-53113300D02*
X30861000Y-53113300D01*
X24819600Y-45794300D02*
X24231600Y-46382300D01*
X25806400Y-45794300D02*
X24819600Y-45794300D01*
X31597600Y-52376700D02*
X31580000Y-52359100D01*
X31580000Y-52359100D02*
X31580000Y-51411500D01*
X30861000Y-53113300D02*
X31597600Y-52376700D01*
X24231600Y-46382300D02*
X24231600Y-52376700D01*
%TO.N,/VALVE_3*%
X34594800Y-53011700D02*
X34120000Y-52536900D01*
X39217600Y-52427500D02*
X38633400Y-53011700D01*
X34120000Y-52536900D02*
X34120000Y-51411500D01*
X38834700Y-45897800D02*
X39217600Y-46280700D01*
X37439600Y-45897800D02*
X38834700Y-45897800D01*
X39217600Y-46280700D02*
X39217600Y-52427500D01*
X38633400Y-53011700D02*
X34594800Y-53011700D01*
D17*
%TO.N,/M+*%
X46675200Y-30175200D02*
X47500000Y-31000000D01*
X47500000Y-31000000D02*
X47500000Y-41500000D01*
X46788400Y-42211600D02*
X47500000Y-41500000D01*
X45313600Y-30175200D02*
X46675200Y-30175200D01*
X45542200Y-42211600D02*
X46788400Y-42211600D01*
D18*
%TO.N,Net-(K1-Pad1)*%
X25000000Y-29500000D02*
X24500000Y-30000000D01*
X28500000Y-33500000D02*
X28500000Y-30000000D01*
X24500000Y-30000000D02*
X24500000Y-42500000D01*
X30000000Y-35000000D02*
X28500000Y-33500000D01*
X28270200Y-43969300D02*
X28270200Y-43770200D01*
X35000000Y-26000000D02*
X35000000Y-28000000D01*
X35000000Y-28000000D02*
X35500000Y-28500000D01*
X25000000Y-43000000D02*
X27500000Y-43000000D01*
X40000000Y-29000000D02*
X40000000Y-34000000D01*
X39500000Y-28500000D02*
X40000000Y-29000000D01*
X40000000Y-34000000D02*
X39000000Y-35000000D01*
X28000000Y-29500000D02*
X25000000Y-29500000D01*
X28500000Y-30000000D02*
X28000000Y-29500000D01*
X39000000Y-35000000D02*
X30000000Y-35000000D01*
X35500000Y-28500000D02*
X39500000Y-28500000D01*
X28270200Y-43770200D02*
X27500000Y-43000000D01*
X24500000Y-42500000D02*
X25000000Y-43000000D01*
%TO.N,Net-(K1-Pad4)*%
X25500000Y-14500000D02*
X34500000Y-14500000D01*
X23500000Y-16500000D02*
X25500000Y-14500000D01*
X35000000Y-15000000D02*
X35000000Y-16500000D01*
X23500000Y-20950000D02*
X23500000Y-16500000D01*
X19126200Y-25323800D02*
X23500000Y-20950000D01*
X34500000Y-14500000D02*
X35000000Y-15000000D01*
%TO.N,Net-(K2-Pad1)*%
X24500000Y-26000000D02*
X24000000Y-26500000D01*
X24530700Y-43969300D02*
X25806400Y-43969300D01*
X27500000Y-26000000D02*
X24500000Y-26000000D01*
X24000000Y-43500000D02*
X24500000Y-44000000D01*
X24500000Y-44000000D02*
X24530700Y-43969300D01*
X24000000Y-26500000D02*
X24000000Y-43500000D01*
%TO.N,Net-(K2-Pad4)*%
X27500000Y-16500000D02*
X27500000Y-19000000D01*
X21500000Y-25000000D02*
X21500000Y-36000000D01*
X21500000Y-36000000D02*
X20162000Y-37338000D01*
X20162000Y-37338000D02*
X19126200Y-37338000D01*
X27500000Y-19000000D02*
X21500000Y-25000000D01*
D17*
%TO.N,/M-*%
X29770000Y-31500000D02*
X29770000Y-32770000D01*
X29770000Y-32770000D02*
X30500000Y-33500000D01*
X31500000Y-33500000D02*
X37000000Y-33500000D01*
X32500000Y-33000000D02*
X32500000Y-19500000D01*
X32000000Y-33500000D02*
X32500000Y-33000000D01*
X30500000Y-33500000D02*
X31500000Y-33500000D01*
X30500000Y-18500000D02*
X30040000Y-18040000D01*
X30040000Y-18040000D02*
X30040000Y-16500000D01*
X37000000Y-18500000D02*
X31500000Y-18500000D01*
X31500000Y-33500000D02*
X32000000Y-33500000D01*
X37540000Y-32960000D02*
X37540000Y-31500000D01*
X37000000Y-33500000D02*
X37540000Y-32960000D01*
X37540000Y-16500000D02*
X37540000Y-17960000D01*
X32500000Y-19500000D02*
X31500000Y-18500000D01*
X37540000Y-17960000D02*
X37000000Y-18500000D01*
X31500000Y-18500000D02*
X30500000Y-18500000D01*
D18*
%TO.N,Net-(K3-Pad1)*%
X37439600Y-43439600D02*
X37439600Y-44072800D01*
X35000000Y-41000000D02*
X37439600Y-43439600D01*
%TO.N,Net-(K4-Pad4)*%
X29631600Y-37131600D02*
X45542200Y-37131600D01*
X27230000Y-31500000D02*
X27230000Y-34730000D01*
X27230000Y-34730000D02*
X29631600Y-37131600D01*
%TO.N,Net-(K4-Pad1)*%
X27230000Y-41000000D02*
X28730000Y-42500000D01*
X34000000Y-42500000D02*
X35280600Y-43780600D01*
X28730000Y-42500000D02*
X34000000Y-42500000D01*
X35280600Y-43780600D02*
X35280600Y-44072800D01*
%TD*%
%TA.AperFunction,Conductor*%
%TO.N,GND*%
G36*
X37775270Y-49633217D02*
G01*
X37775270Y-49633216D01*
X37814622Y-49579054D01*
X37911095Y-49389717D01*
X37974169Y-49195596D01*
X38013606Y-49137921D01*
X38077965Y-49110722D01*
X38146811Y-49122636D01*
X38198287Y-49169881D01*
X38216100Y-49233914D01*
X38216100Y-50598003D01*
X38207455Y-50627443D01*
X38200932Y-50657430D01*
X38197177Y-50662445D01*
X38196415Y-50665042D01*
X38179781Y-50685684D01*
X38090784Y-50774681D01*
X38029461Y-50808166D01*
X38003103Y-50811000D01*
X37945719Y-50811000D01*
X37878680Y-50791315D01*
X37835235Y-50743295D01*
X37815052Y-50703685D01*
X37815051Y-50703684D01*
X37690109Y-50531713D01*
X37539786Y-50381390D01*
X37367817Y-50256449D01*
X37358504Y-50251704D01*
X37307707Y-50203730D01*
X37290912Y-50135909D01*
X37313449Y-50069774D01*
X37358507Y-50030732D01*
X37367555Y-50026122D01*
X37421716Y-49986770D01*
X37421717Y-49986770D01*
X36789408Y-49354462D01*
X36852993Y-49337425D01*
X36967007Y-49271599D01*
X37060099Y-49178507D01*
X37125925Y-49064493D01*
X37142962Y-49000908D01*
X37775270Y-49633217D01*
G37*
%TD.AperFunction*%
%TA.AperFunction,Conductor*%
G36*
X36194075Y-49064493D02*
G01*
X36259901Y-49178507D01*
X36352993Y-49271599D01*
X36467007Y-49337425D01*
X36530590Y-49354462D01*
X35898282Y-49986769D01*
X35898282Y-49986770D01*
X35952452Y-50026126D01*
X35952451Y-50026126D01*
X35961495Y-50030734D01*
X36012292Y-50078708D01*
X36029087Y-50146529D01*
X36006550Y-50212664D01*
X35961499Y-50251702D01*
X35952182Y-50256449D01*
X35780213Y-50381390D01*
X35629890Y-50531713D01*
X35504949Y-50703682D01*
X35500484Y-50712446D01*
X35452509Y-50763242D01*
X35384688Y-50780036D01*
X35318553Y-50757498D01*
X35279516Y-50712446D01*
X35275050Y-50703682D01*
X35150109Y-50531713D01*
X34999786Y-50381390D01*
X34827820Y-50256451D01*
X34827115Y-50256091D01*
X34819054Y-50251985D01*
X34768259Y-50204012D01*
X34751463Y-50136192D01*
X34773999Y-50070056D01*
X34819054Y-50031015D01*
X34827816Y-50026551D01*
X34882572Y-49986769D01*
X34999786Y-49901609D01*
X34999788Y-49901606D01*
X34999792Y-49901604D01*
X35150104Y-49751292D01*
X35150106Y-49751288D01*
X35150109Y-49751286D01*
X35235890Y-49633217D01*
X35275051Y-49579316D01*
X35279793Y-49570008D01*
X35327763Y-49519211D01*
X35395583Y-49502411D01*
X35461719Y-49524945D01*
X35500763Y-49570000D01*
X35505373Y-49579047D01*
X35544728Y-49633216D01*
X36177037Y-49000908D01*
X36194075Y-49064493D01*
G37*
%TD.AperFunction*%
%TA.AperFunction,Conductor*%
G36*
X34061362Y-46372124D02*
G01*
X34117296Y-46413995D01*
X34135733Y-46449299D01*
X34145786Y-46479634D01*
X34237888Y-46628956D01*
X34361944Y-46753012D01*
X34511266Y-46845114D01*
X34677803Y-46900299D01*
X34677806Y-46900299D01*
X34684230Y-46902428D01*
X34683843Y-46903595D01*
X34739162Y-46933565D01*
X34759157Y-46959536D01*
X34800075Y-47030409D01*
X34800081Y-47030417D01*
X34918949Y-47149285D01*
X34918955Y-47149290D01*
X35202139Y-47432474D01*
X35202149Y-47432485D01*
X35206479Y-47436815D01*
X35206480Y-47436816D01*
X35318284Y-47548620D01*
X35318286Y-47548621D01*
X35318290Y-47548624D01*
X35441820Y-47619943D01*
X35455216Y-47627677D01*
X35567019Y-47657634D01*
X35607942Y-47668600D01*
X35607943Y-47668600D01*
X35775020Y-47668600D01*
X35778998Y-47668856D01*
X35808230Y-47679521D01*
X35838075Y-47688285D01*
X35840768Y-47691393D01*
X35844635Y-47692804D01*
X35863463Y-47717584D01*
X35883830Y-47741089D01*
X35883977Y-47741923D01*
X36530591Y-48388537D01*
X36467007Y-48405575D01*
X36352993Y-48471401D01*
X36259901Y-48564493D01*
X36194075Y-48678507D01*
X36177037Y-48742091D01*
X35544728Y-48109782D01*
X35544727Y-48109782D01*
X35505380Y-48163940D01*
X35505376Y-48163946D01*
X35500760Y-48173005D01*
X35452781Y-48223797D01*
X35384959Y-48240587D01*
X35318826Y-48218043D01*
X35279794Y-48172993D01*
X35275051Y-48163684D01*
X35275049Y-48163681D01*
X35275048Y-48163679D01*
X35150109Y-47991713D01*
X34999786Y-47841390D01*
X34827820Y-47716451D01*
X34638414Y-47619944D01*
X34638413Y-47619943D01*
X34638412Y-47619943D01*
X34436243Y-47554254D01*
X34436241Y-47554253D01*
X34436240Y-47554253D01*
X34272882Y-47528380D01*
X34226287Y-47521000D01*
X34013713Y-47521000D01*
X33967118Y-47528380D01*
X33803760Y-47554253D01*
X33601582Y-47619945D01*
X33511794Y-47665694D01*
X33443125Y-47678590D01*
X33378385Y-47652313D01*
X33338128Y-47595207D01*
X33331500Y-47555209D01*
X33331500Y-47050836D01*
X33351185Y-46983797D01*
X33367815Y-46963159D01*
X33930350Y-46400623D01*
X33991671Y-46367140D01*
X34061362Y-46372124D01*
G37*
%TD.AperFunction*%
%TA.AperFunction,Conductor*%
G36*
X38159139Y-47688285D02*
G01*
X38204894Y-47741089D01*
X38216100Y-47792600D01*
X38216100Y-48509085D01*
X38196415Y-48576124D01*
X38143611Y-48621879D01*
X38074453Y-48631823D01*
X38010897Y-48602798D01*
X37974169Y-48547403D01*
X37911095Y-48353282D01*
X37814624Y-48163949D01*
X37775270Y-48109782D01*
X37775269Y-48109782D01*
X37142962Y-48742090D01*
X37125925Y-48678507D01*
X37060099Y-48564493D01*
X36967007Y-48471401D01*
X36852993Y-48405575D01*
X36789409Y-48388537D01*
X37438568Y-47739376D01*
X37439708Y-47733953D01*
X37488759Y-47684196D01*
X37548963Y-47668600D01*
X38092100Y-47668600D01*
X38159139Y-47688285D01*
G37*
%TD.AperFunction*%
%TA.AperFunction,Conductor*%
G36*
X27729343Y-30109144D02*
G01*
X27759330Y-30115668D01*
X27764345Y-30119422D01*
X27766942Y-30120185D01*
X27787583Y-30136818D01*
X27863181Y-30212416D01*
X27896666Y-30273739D01*
X27899500Y-30300097D01*
X27899500Y-30425500D01*
X27879815Y-30492539D01*
X27827011Y-30538294D01*
X27775500Y-30549500D01*
X26460247Y-30549500D01*
X26401770Y-30561131D01*
X26401769Y-30561132D01*
X26335447Y-30605447D01*
X26291132Y-30671769D01*
X26291131Y-30671770D01*
X26279500Y-30730247D01*
X26279500Y-32269752D01*
X26291131Y-32328229D01*
X26291132Y-32328230D01*
X26335447Y-32394552D01*
X26401769Y-32438867D01*
X26401770Y-32438868D01*
X26460247Y-32450499D01*
X26460250Y-32450500D01*
X26460252Y-32450500D01*
X26505500Y-32450500D01*
X26572539Y-32470185D01*
X26618294Y-32522989D01*
X26629500Y-32574500D01*
X26629500Y-34643330D01*
X26629499Y-34643348D01*
X26629499Y-34809054D01*
X26629498Y-34809054D01*
X26670423Y-34961785D01*
X26699358Y-35011900D01*
X26699359Y-35011904D01*
X26699360Y-35011904D01*
X26749479Y-35098714D01*
X26749481Y-35098717D01*
X26868349Y-35217585D01*
X26868355Y-35217590D01*
X29146739Y-37495974D01*
X29146749Y-37495985D01*
X29151079Y-37500315D01*
X29151080Y-37500316D01*
X29262884Y-37612120D01*
X29349695Y-37662239D01*
X29349697Y-37662241D01*
X29399813Y-37691176D01*
X29399815Y-37691177D01*
X29552542Y-37732100D01*
X29552543Y-37732100D01*
X44198457Y-37732100D01*
X44265496Y-37751785D01*
X44308942Y-37799806D01*
X44342929Y-37866511D01*
X44350009Y-37876255D01*
X44472662Y-38045072D01*
X44628728Y-38201138D01*
X44807287Y-38330869D01*
X44903740Y-38380014D01*
X45003941Y-38431070D01*
X45003944Y-38431071D01*
X45108896Y-38465171D01*
X45213851Y-38499273D01*
X45431844Y-38533800D01*
X45431845Y-38533800D01*
X45652555Y-38533800D01*
X45652556Y-38533800D01*
X45870549Y-38499273D01*
X46080458Y-38431070D01*
X46277113Y-38330869D01*
X46455672Y-38201138D01*
X46597319Y-38059491D01*
X46658642Y-38026006D01*
X46728334Y-38030990D01*
X46784267Y-38072862D01*
X46808684Y-38138326D01*
X46809000Y-38147172D01*
X46809000Y-41162414D01*
X46800355Y-41191854D01*
X46793832Y-41221841D01*
X46790077Y-41226856D01*
X46789315Y-41229453D01*
X46772681Y-41250095D01*
X46755874Y-41266902D01*
X46694551Y-41300387D01*
X46624859Y-41295403D01*
X46580512Y-41266902D01*
X46455674Y-41142064D01*
X46455672Y-41142062D01*
X46277113Y-41012331D01*
X46080458Y-40912129D01*
X46080455Y-40912128D01*
X45870550Y-40843927D01*
X45761552Y-40826663D01*
X45652556Y-40809400D01*
X45431844Y-40809400D01*
X45359179Y-40820909D01*
X45213849Y-40843927D01*
X45003944Y-40912128D01*
X45003941Y-40912129D01*
X44807286Y-41012331D01*
X44754990Y-41050327D01*
X44628728Y-41142062D01*
X44628726Y-41142064D01*
X44628725Y-41142064D01*
X44472664Y-41298125D01*
X44472664Y-41298126D01*
X44472662Y-41298128D01*
X44436092Y-41348462D01*
X44342931Y-41476686D01*
X44242732Y-41673337D01*
X44242728Y-41673344D01*
X44174527Y-41883249D01*
X44140000Y-42101244D01*
X44140000Y-42185000D01*
X44120315Y-42252039D01*
X44067511Y-42297794D01*
X44016000Y-42309000D01*
X39444323Y-42309000D01*
X39385490Y-42291724D01*
X39384553Y-42293479D01*
X39379181Y-42290607D01*
X39379179Y-42290606D01*
X39379176Y-42290605D01*
X39379171Y-42290602D01*
X39233501Y-42230264D01*
X39233489Y-42230261D01*
X39078845Y-42199500D01*
X39078842Y-42199500D01*
X38921158Y-42199500D01*
X38921153Y-42199500D01*
X38835452Y-42216547D01*
X38765860Y-42210320D01*
X38710683Y-42167456D01*
X38687439Y-42101567D01*
X38703507Y-42033570D01*
X38711996Y-42020617D01*
X38733352Y-41992090D01*
X38733354Y-41992086D01*
X38783596Y-41857379D01*
X38783598Y-41857372D01*
X38789999Y-41797844D01*
X38790000Y-41797827D01*
X38790000Y-41250000D01*
X37790000Y-41250000D01*
X37790000Y-42250000D01*
X38318559Y-42250000D01*
X38385598Y-42269685D01*
X38431353Y-42322489D01*
X38441297Y-42391647D01*
X38412272Y-42455203D01*
X38406240Y-42461681D01*
X38378213Y-42489707D01*
X38378210Y-42489711D01*
X38290609Y-42620814D01*
X38290602Y-42620827D01*
X38230264Y-42766498D01*
X38230261Y-42766510D01*
X38199500Y-42921153D01*
X38199500Y-42950639D01*
X38179815Y-43017678D01*
X38127011Y-43063433D01*
X38061177Y-43073809D01*
X38048553Y-43072341D01*
X38042397Y-43070301D01*
X37948622Y-43060720D01*
X37947721Y-43060616D01*
X37916338Y-43047297D01*
X37884749Y-43034408D01*
X37883646Y-43033422D01*
X37883404Y-43033320D01*
X37883205Y-43033029D01*
X37874371Y-43025135D01*
X37808316Y-42959080D01*
X37808315Y-42959079D01*
X37803985Y-42954749D01*
X37803974Y-42954739D01*
X37282298Y-42433063D01*
X37248813Y-42371740D01*
X37253797Y-42302048D01*
X37282299Y-42257700D01*
X37290000Y-42249999D01*
X37290000Y-41250000D01*
X36289999Y-41250000D01*
X36282297Y-41257702D01*
X36274351Y-41262040D01*
X36268927Y-41269287D01*
X36244170Y-41278520D01*
X36220974Y-41291187D01*
X36211943Y-41290540D01*
X36203463Y-41293704D01*
X36177641Y-41288086D01*
X36151282Y-41286201D01*
X36142229Y-41280383D01*
X36135190Y-41278852D01*
X36106936Y-41257701D01*
X35986819Y-41137584D01*
X35953334Y-41076261D01*
X35950500Y-41049903D01*
X35950500Y-40230249D01*
X35950499Y-40230247D01*
X35949066Y-40223038D01*
X35949066Y-40223037D01*
X35944912Y-40202155D01*
X36290000Y-40202155D01*
X36290000Y-40750000D01*
X37290000Y-40750000D01*
X37790000Y-40750000D01*
X38790000Y-40750000D01*
X38790000Y-40202172D01*
X38789999Y-40202155D01*
X38783598Y-40142627D01*
X38783596Y-40142620D01*
X38733354Y-40007913D01*
X38733350Y-40007906D01*
X38647190Y-39892812D01*
X38647187Y-39892809D01*
X38532093Y-39806649D01*
X38532086Y-39806645D01*
X38397379Y-39756403D01*
X38397372Y-39756401D01*
X38337844Y-39750000D01*
X37790000Y-39750000D01*
X37790000Y-40750000D01*
X37290000Y-40750000D01*
X37290000Y-39750000D01*
X36742155Y-39750000D01*
X36682627Y-39756401D01*
X36682620Y-39756403D01*
X36547913Y-39806645D01*
X36547906Y-39806649D01*
X36432812Y-39892809D01*
X36432809Y-39892812D01*
X36346649Y-40007906D01*
X36346645Y-40007913D01*
X36296403Y-40142620D01*
X36296401Y-40142627D01*
X36290000Y-40202155D01*
X35944912Y-40202155D01*
X35938867Y-40171770D01*
X35938867Y-40171769D01*
X35894552Y-40105447D01*
X35828230Y-40061132D01*
X35828229Y-40061131D01*
X35769752Y-40049500D01*
X35769748Y-40049500D01*
X34230252Y-40049500D01*
X34230247Y-40049500D01*
X34171770Y-40061131D01*
X34171769Y-40061132D01*
X34105447Y-40105447D01*
X34061132Y-40171769D01*
X34061131Y-40171770D01*
X34049500Y-40230247D01*
X34049500Y-41775499D01*
X34046950Y-41784180D01*
X34048239Y-41793136D01*
X34037260Y-41817180D01*
X34029815Y-41842538D01*
X34022978Y-41848461D01*
X34019220Y-41856694D01*
X33996982Y-41870987D01*
X33977011Y-41888293D01*
X33966502Y-41890579D01*
X33960445Y-41894473D01*
X33925529Y-41899494D01*
X33925510Y-41899499D01*
X33920943Y-41899499D01*
X33920941Y-41899499D01*
X33913341Y-41899500D01*
X33913339Y-41899499D01*
X33913331Y-41899500D01*
X31144000Y-41899500D01*
X31076961Y-41879815D01*
X31031206Y-41827011D01*
X31020000Y-41775500D01*
X31020000Y-41250000D01*
X28519999Y-41250000D01*
X28512297Y-41257702D01*
X28504351Y-41262040D01*
X28498927Y-41269287D01*
X28474170Y-41278520D01*
X28450974Y-41291187D01*
X28441943Y-41290540D01*
X28433463Y-41293704D01*
X28407641Y-41288086D01*
X28381282Y-41286201D01*
X28372229Y-41280383D01*
X28365190Y-41278852D01*
X28336936Y-41257701D01*
X28216819Y-41137584D01*
X28183334Y-41076261D01*
X28180500Y-41049903D01*
X28180500Y-40230249D01*
X28180499Y-40230247D01*
X28179066Y-40223038D01*
X28179066Y-40223037D01*
X28174912Y-40202155D01*
X28520000Y-40202155D01*
X28520000Y-40750000D01*
X29520000Y-40750000D01*
X30020000Y-40750000D01*
X31020000Y-40750000D01*
X31020000Y-40202172D01*
X31019999Y-40202155D01*
X31013598Y-40142627D01*
X31013596Y-40142620D01*
X30963354Y-40007913D01*
X30963350Y-40007906D01*
X30877190Y-39892812D01*
X30877187Y-39892809D01*
X30762093Y-39806649D01*
X30762086Y-39806645D01*
X30627379Y-39756403D01*
X30627372Y-39756401D01*
X30567844Y-39750000D01*
X30020000Y-39750000D01*
X30020000Y-40750000D01*
X29520000Y-40750000D01*
X29520000Y-39750000D01*
X28972155Y-39750000D01*
X28912627Y-39756401D01*
X28912620Y-39756403D01*
X28777913Y-39806645D01*
X28777906Y-39806649D01*
X28662812Y-39892809D01*
X28662809Y-39892812D01*
X28576649Y-40007906D01*
X28576645Y-40007913D01*
X28526403Y-40142620D01*
X28526401Y-40142627D01*
X28520000Y-40202155D01*
X28174912Y-40202155D01*
X28168867Y-40171770D01*
X28168867Y-40171769D01*
X28124552Y-40105447D01*
X28058230Y-40061132D01*
X28058229Y-40061131D01*
X27999752Y-40049500D01*
X27999748Y-40049500D01*
X26460252Y-40049500D01*
X26460247Y-40049500D01*
X26401770Y-40061131D01*
X26401769Y-40061132D01*
X26335448Y-40105447D01*
X26327601Y-40117191D01*
X26273988Y-40161995D01*
X26204663Y-40170701D01*
X26141636Y-40140545D01*
X26104918Y-40081102D01*
X26100500Y-40048298D01*
X26100500Y-34579765D01*
X26120185Y-34512726D01*
X26121398Y-34510874D01*
X26209390Y-34379185D01*
X26209390Y-34379184D01*
X26209394Y-34379179D01*
X26213728Y-34368717D01*
X26223067Y-34346166D01*
X26269737Y-34233497D01*
X26300500Y-34078842D01*
X26300500Y-33921158D01*
X26300500Y-33921155D01*
X26300499Y-33921153D01*
X26290377Y-33870265D01*
X26269737Y-33766503D01*
X26263425Y-33751264D01*
X26209397Y-33620827D01*
X26209390Y-33620814D01*
X26121789Y-33489711D01*
X26121786Y-33489707D01*
X26010292Y-33378213D01*
X26010288Y-33378210D01*
X25879185Y-33290609D01*
X25879172Y-33290602D01*
X25733501Y-33230264D01*
X25733489Y-33230261D01*
X25578845Y-33199500D01*
X25578842Y-33199500D01*
X25421158Y-33199500D01*
X25421155Y-33199500D01*
X25266510Y-33230261D01*
X25260676Y-33232031D01*
X25259873Y-33229385D01*
X25202056Y-33235396D01*
X25139687Y-33203902D01*
X25104245Y-33143689D01*
X25100500Y-33113444D01*
X25100500Y-30300098D01*
X25120185Y-30233059D01*
X25136819Y-30212416D01*
X25212418Y-30136818D01*
X25273742Y-30103334D01*
X25300099Y-30100500D01*
X27699903Y-30100500D01*
X27729343Y-30109144D01*
G37*
%TD.AperFunction*%
%TA.AperFunction,Conductor*%
G36*
X25201436Y-13770185D02*
G01*
X25247191Y-13822989D01*
X25257135Y-13892147D01*
X25228110Y-13955703D01*
X25196397Y-13981887D01*
X25131287Y-14019477D01*
X25131282Y-14019481D01*
X23019481Y-16131282D01*
X23019479Y-16131285D01*
X22969361Y-16218094D01*
X22969359Y-16218096D01*
X22940425Y-16268209D01*
X22940424Y-16268210D01*
X22940423Y-16268215D01*
X22899499Y-16420943D01*
X22899499Y-16420945D01*
X22899499Y-16589046D01*
X22899500Y-16589059D01*
X22899500Y-20649902D01*
X22879815Y-20716941D01*
X22863181Y-20737583D01*
X19651751Y-23949012D01*
X19590428Y-23982497D01*
X19525752Y-23979262D01*
X19500465Y-23971045D01*
X19454550Y-23956127D01*
X19345552Y-23938863D01*
X19236556Y-23921600D01*
X19015844Y-23921600D01*
X18943179Y-23933109D01*
X18797849Y-23956127D01*
X18587944Y-24024328D01*
X18587941Y-24024329D01*
X18391286Y-24124531D01*
X18312566Y-24181725D01*
X18212728Y-24254262D01*
X18212726Y-24254264D01*
X18212725Y-24254264D01*
X18056664Y-24410325D01*
X18056664Y-24410326D01*
X18056662Y-24410328D01*
X18000947Y-24487012D01*
X17926931Y-24588886D01*
X17826729Y-24785541D01*
X17826728Y-24785544D01*
X17758527Y-24995449D01*
X17724000Y-25213444D01*
X17724000Y-25434155D01*
X17758527Y-25652150D01*
X17826728Y-25862055D01*
X17826729Y-25862058D01*
X17926931Y-26058713D01*
X18056662Y-26237272D01*
X18212728Y-26393338D01*
X18391287Y-26523069D01*
X18487740Y-26572214D01*
X18587941Y-26623270D01*
X18587944Y-26623271D01*
X18692896Y-26657371D01*
X18797851Y-26691473D01*
X19015844Y-26726000D01*
X19015845Y-26726000D01*
X19236555Y-26726000D01*
X19236556Y-26726000D01*
X19454549Y-26691473D01*
X19664458Y-26623270D01*
X19861113Y-26523069D01*
X20039672Y-26393338D01*
X20195738Y-26237272D01*
X20325469Y-26058713D01*
X20425670Y-25862058D01*
X20493873Y-25652149D01*
X20528400Y-25434156D01*
X20528400Y-25213444D01*
X20517184Y-25142627D01*
X20493873Y-24995450D01*
X20479388Y-24950871D01*
X20470736Y-24924245D01*
X20468742Y-24854405D01*
X20500985Y-24798248D01*
X23868713Y-21430521D01*
X23868716Y-21430520D01*
X23980520Y-21318716D01*
X24030639Y-21231904D01*
X24059577Y-21181785D01*
X24100500Y-21029058D01*
X24100500Y-20870943D01*
X24100500Y-16800097D01*
X24120185Y-16733058D01*
X24136819Y-16712416D01*
X25712416Y-15136819D01*
X25773739Y-15103334D01*
X25800097Y-15100500D01*
X34199903Y-15100500D01*
X34229343Y-15109144D01*
X34259330Y-15115668D01*
X34264345Y-15119422D01*
X34266942Y-15120185D01*
X34287584Y-15136819D01*
X34363181Y-15212416D01*
X34396666Y-15273739D01*
X34399500Y-15300097D01*
X34399500Y-15425500D01*
X34379815Y-15492539D01*
X34327011Y-15538294D01*
X34275500Y-15549500D01*
X34230247Y-15549500D01*
X34171770Y-15561131D01*
X34171769Y-15561132D01*
X34105447Y-15605447D01*
X34061132Y-15671769D01*
X34061131Y-15671770D01*
X34049500Y-15730247D01*
X34049500Y-17269752D01*
X34061131Y-17328229D01*
X34061132Y-17328230D01*
X34105447Y-17394552D01*
X34171769Y-17438867D01*
X34171770Y-17438868D01*
X34230247Y-17450499D01*
X34230250Y-17450500D01*
X34230252Y-17450500D01*
X35769750Y-17450500D01*
X35769751Y-17450499D01*
X35790813Y-17446310D01*
X35828229Y-17438868D01*
X35828229Y-17438867D01*
X35828231Y-17438867D01*
X35894552Y-17394552D01*
X35938867Y-17328231D01*
X35938867Y-17328229D01*
X35938868Y-17328229D01*
X35950499Y-17269752D01*
X35950500Y-17269750D01*
X35950500Y-15730249D01*
X35950499Y-15730247D01*
X35938868Y-15671770D01*
X35938867Y-15671769D01*
X35894552Y-15605447D01*
X35828230Y-15561132D01*
X35828229Y-15561131D01*
X35769752Y-15549500D01*
X35769748Y-15549500D01*
X35724500Y-15549500D01*
X35657461Y-15529815D01*
X35611706Y-15477011D01*
X35600500Y-15425500D01*
X35600500Y-15089060D01*
X35600501Y-15089047D01*
X35600501Y-14920944D01*
X35600501Y-14920943D01*
X35559577Y-14768216D01*
X35556046Y-14762100D01*
X35480524Y-14631290D01*
X35480518Y-14631282D01*
X34868715Y-14019479D01*
X34831119Y-13997774D01*
X34803602Y-13981887D01*
X34755387Y-13931321D01*
X34742163Y-13862714D01*
X34768131Y-13797849D01*
X34825044Y-13757320D01*
X34865602Y-13750500D01*
X49375500Y-13750500D01*
X49442539Y-13770185D01*
X49488294Y-13822989D01*
X49499500Y-13874500D01*
X49499500Y-54079600D01*
X49479815Y-54146639D01*
X49427011Y-54192394D01*
X49375500Y-54203600D01*
X13374500Y-54203600D01*
X13307461Y-54183915D01*
X13261706Y-54131111D01*
X13250500Y-54079600D01*
X13250500Y-49867931D01*
X14889100Y-49867931D01*
X14889100Y-50211869D01*
X14893051Y-50251984D01*
X14922810Y-50554149D01*
X14989908Y-50891472D01*
X15089750Y-51220606D01*
X15221370Y-51538364D01*
X15221372Y-51538369D01*
X15383493Y-51841675D01*
X15383504Y-51841693D01*
X15574575Y-52127651D01*
X15574585Y-52127665D01*
X15792776Y-52393532D01*
X16035967Y-52636723D01*
X16035972Y-52636727D01*
X16035973Y-52636728D01*
X16301840Y-52854919D01*
X16587813Y-53046000D01*
X16587822Y-53046005D01*
X16587824Y-53046006D01*
X16891130Y-53208127D01*
X16891132Y-53208127D01*
X16891138Y-53208131D01*
X17208895Y-53339750D01*
X17538022Y-53439590D01*
X17875350Y-53506689D01*
X18217631Y-53540400D01*
X18217634Y-53540400D01*
X18561566Y-53540400D01*
X18561569Y-53540400D01*
X18903850Y-53506689D01*
X19241178Y-53439590D01*
X19570305Y-53339750D01*
X19888062Y-53208131D01*
X20191387Y-53046000D01*
X20477360Y-52854919D01*
X20743227Y-52636728D01*
X20986428Y-52393527D01*
X21204619Y-52127660D01*
X21395700Y-51841687D01*
X21557831Y-51538362D01*
X21689450Y-51220605D01*
X21789290Y-50891478D01*
X21856389Y-50554150D01*
X21890100Y-50211869D01*
X21890100Y-49867931D01*
X21856389Y-49525650D01*
X21789290Y-49188322D01*
X21689450Y-48859195D01*
X21557831Y-48541438D01*
X21520395Y-48471401D01*
X21395706Y-48238124D01*
X21395705Y-48238122D01*
X21395700Y-48238113D01*
X21204619Y-47952140D01*
X20986428Y-47686273D01*
X20986427Y-47686272D01*
X20986423Y-47686267D01*
X20743232Y-47443076D01*
X20477365Y-47224885D01*
X20477364Y-47224884D01*
X20477360Y-47224881D01*
X20191387Y-47033800D01*
X20191382Y-47033797D01*
X20191375Y-47033793D01*
X19888069Y-46871672D01*
X19888064Y-46871670D01*
X19823947Y-46845112D01*
X19732659Y-46807299D01*
X19570306Y-46740050D01*
X19241172Y-46640208D01*
X18903848Y-46573110D01*
X18903849Y-46573110D01*
X18646056Y-46547721D01*
X18561569Y-46539400D01*
X18217631Y-46539400D01*
X18139566Y-46547088D01*
X17875350Y-46573110D01*
X17538027Y-46640208D01*
X17208893Y-46740050D01*
X16891135Y-46871670D01*
X16891130Y-46871672D01*
X16587824Y-47033793D01*
X16587806Y-47033804D01*
X16301848Y-47224875D01*
X16301834Y-47224885D01*
X16035967Y-47443076D01*
X15792776Y-47686267D01*
X15574585Y-47952134D01*
X15574575Y-47952148D01*
X15383504Y-48238106D01*
X15383493Y-48238124D01*
X15221372Y-48541430D01*
X15221370Y-48541435D01*
X15089750Y-48859193D01*
X14989908Y-49188327D01*
X14922810Y-49525650D01*
X14900588Y-49751286D01*
X14889100Y-49867931D01*
X13250500Y-49867931D01*
X13250500Y-42307644D01*
X17724000Y-42307644D01*
X17724000Y-42528355D01*
X17758527Y-42746350D01*
X17826728Y-42956255D01*
X17826729Y-42956258D01*
X17900225Y-43100500D01*
X17926931Y-43152913D01*
X18056662Y-43331472D01*
X18212728Y-43487538D01*
X18391287Y-43617269D01*
X18483873Y-43664444D01*
X18587941Y-43717470D01*
X18587944Y-43717471D01*
X18692896Y-43751571D01*
X18797851Y-43785673D01*
X19015844Y-43820200D01*
X19015845Y-43820200D01*
X19236555Y-43820200D01*
X19236556Y-43820200D01*
X19454549Y-43785673D01*
X19664458Y-43717470D01*
X19861113Y-43617269D01*
X19913711Y-43579054D01*
X23399498Y-43579054D01*
X23436587Y-43717471D01*
X23440423Y-43731785D01*
X23443728Y-43737509D01*
X23443730Y-43737517D01*
X23443732Y-43737516D01*
X23519477Y-43868712D01*
X23519479Y-43868715D01*
X23519480Y-43868716D01*
X23631284Y-43980520D01*
X23631285Y-43980521D01*
X24131284Y-44480520D01*
X24215042Y-44528877D01*
X24215044Y-44528879D01*
X24268211Y-44559575D01*
X24268215Y-44559577D01*
X24420943Y-44600501D01*
X24420946Y-44600501D01*
X24579057Y-44600501D01*
X24579058Y-44600501D01*
X24595422Y-44596116D01*
X24665271Y-44597777D01*
X24721680Y-44635210D01*
X24727977Y-44642560D01*
X24763688Y-44700456D01*
X24860727Y-44797495D01*
X24863833Y-44801120D01*
X24876289Y-44828801D01*
X24890836Y-44855442D01*
X24890485Y-44860349D01*
X24892504Y-44864836D01*
X24888017Y-44894854D01*
X24885852Y-44925134D01*
X24882776Y-44929919D01*
X24882176Y-44933938D01*
X24874740Y-44942423D01*
X24857351Y-44969481D01*
X24763688Y-45063143D01*
X24763687Y-45063144D01*
X24697585Y-45170312D01*
X24645637Y-45217036D01*
X24624143Y-45224988D01*
X24587817Y-45234722D01*
X24587812Y-45234724D01*
X24450887Y-45313777D01*
X24450882Y-45313781D01*
X23855817Y-45908846D01*
X23855814Y-45908848D01*
X23855815Y-45908849D01*
X23751078Y-46013586D01*
X23700961Y-46100394D01*
X23700959Y-46100396D01*
X23672025Y-46150509D01*
X23672024Y-46150510D01*
X23656192Y-46209595D01*
X23631099Y-46303243D01*
X23631099Y-46303245D01*
X23631099Y-46471346D01*
X23631100Y-46471359D01*
X23631100Y-52290030D01*
X23631099Y-52290048D01*
X23631099Y-52455754D01*
X23631098Y-52455754D01*
X23672024Y-52608489D01*
X23672025Y-52608490D01*
X23691940Y-52642983D01*
X23691941Y-52642984D01*
X23751077Y-52745412D01*
X23751081Y-52745417D01*
X23869949Y-52864285D01*
X23869954Y-52864289D01*
X24599484Y-53593820D01*
X24599486Y-53593821D01*
X24599490Y-53593824D01*
X24736409Y-53672873D01*
X24736416Y-53672877D01*
X24889143Y-53713801D01*
X24889145Y-53713801D01*
X25054854Y-53713801D01*
X25054870Y-53713800D01*
X30774331Y-53713800D01*
X30774347Y-53713801D01*
X30781943Y-53713801D01*
X30940054Y-53713801D01*
X30940057Y-53713801D01*
X31092785Y-53672877D01*
X31142904Y-53643939D01*
X31229716Y-53593820D01*
X31341520Y-53482016D01*
X31341520Y-53482014D01*
X31351728Y-53471807D01*
X31351729Y-53471804D01*
X32078120Y-52745416D01*
X32118665Y-52675188D01*
X32169228Y-52626974D01*
X32169237Y-52626968D01*
X32287816Y-52566551D01*
X32459792Y-52441604D01*
X32610104Y-52291292D01*
X32610106Y-52291288D01*
X32610109Y-52291286D01*
X32735048Y-52119320D01*
X32735047Y-52119320D01*
X32735051Y-52119316D01*
X32739514Y-52110554D01*
X32787488Y-52059759D01*
X32855308Y-52042963D01*
X32921444Y-52065499D01*
X32960484Y-52110554D01*
X32964591Y-52118615D01*
X32964951Y-52119320D01*
X33089890Y-52291286D01*
X33240213Y-52441609D01*
X33412179Y-52566548D01*
X33412181Y-52566549D01*
X33412184Y-52566551D01*
X33471944Y-52597000D01*
X33493432Y-52617294D01*
X33516661Y-52635564D01*
X33519774Y-52642173D01*
X33522740Y-52644974D01*
X33532832Y-52666936D01*
X33534280Y-52671120D01*
X33560423Y-52768685D01*
X33573513Y-52791357D01*
X33579435Y-52801615D01*
X33579437Y-52801619D01*
X33639475Y-52905609D01*
X33639479Y-52905614D01*
X33639480Y-52905616D01*
X33751284Y-53017420D01*
X33751285Y-53017421D01*
X34226084Y-53492220D01*
X34226086Y-53492221D01*
X34226090Y-53492224D01*
X34363009Y-53571273D01*
X34363012Y-53571275D01*
X34363016Y-53571277D01*
X34515743Y-53612201D01*
X34515745Y-53612201D01*
X34681454Y-53612201D01*
X34681470Y-53612200D01*
X38546731Y-53612200D01*
X38546747Y-53612201D01*
X38554343Y-53612201D01*
X38712454Y-53612201D01*
X38712457Y-53612201D01*
X38865185Y-53571277D01*
X38865187Y-53571275D01*
X38865189Y-53571275D01*
X38865190Y-53571274D01*
X38918664Y-53540401D01*
X38918665Y-53540400D01*
X39002116Y-53492220D01*
X39113920Y-53380416D01*
X39113921Y-53380414D01*
X39698120Y-52796216D01*
X39777177Y-52659284D01*
X39818101Y-52506557D01*
X39818101Y-52348442D01*
X39818101Y-52340847D01*
X39818100Y-52340829D01*
X39818100Y-49918734D01*
X41457500Y-49918734D01*
X41457500Y-50262665D01*
X41491210Y-50604949D01*
X41558308Y-50942272D01*
X41658150Y-51271406D01*
X41789770Y-51589164D01*
X41789772Y-51589169D01*
X41951893Y-51892475D01*
X41951904Y-51892493D01*
X42142975Y-52178451D01*
X42142985Y-52178465D01*
X42361176Y-52444332D01*
X42604367Y-52687523D01*
X42604372Y-52687527D01*
X42604373Y-52687528D01*
X42870240Y-52905719D01*
X43156213Y-53096800D01*
X43156222Y-53096805D01*
X43156224Y-53096806D01*
X43459530Y-53258927D01*
X43459532Y-53258927D01*
X43459538Y-53258931D01*
X43777295Y-53390550D01*
X44106422Y-53490390D01*
X44443750Y-53557489D01*
X44786031Y-53591200D01*
X44786034Y-53591200D01*
X45129966Y-53591200D01*
X45129969Y-53591200D01*
X45472250Y-53557489D01*
X45809578Y-53490390D01*
X46138705Y-53390550D01*
X46456462Y-53258931D01*
X46759787Y-53096800D01*
X47045760Y-52905719D01*
X47311627Y-52687528D01*
X47554828Y-52444327D01*
X47773019Y-52178460D01*
X47964100Y-51892487D01*
X48126231Y-51589162D01*
X48257850Y-51271405D01*
X48357690Y-50942278D01*
X48424789Y-50604950D01*
X48458500Y-50262669D01*
X48458500Y-49918731D01*
X48424789Y-49576450D01*
X48357690Y-49239122D01*
X48257850Y-48909995D01*
X48126231Y-48592238D01*
X48099073Y-48541430D01*
X47964106Y-48288924D01*
X47964105Y-48288922D01*
X47964100Y-48288913D01*
X47773019Y-48002940D01*
X47554828Y-47737073D01*
X47554827Y-47737072D01*
X47554823Y-47737067D01*
X47311632Y-47493876D01*
X47045765Y-47275685D01*
X47045764Y-47275684D01*
X47045760Y-47275681D01*
X46759787Y-47084600D01*
X46759782Y-47084597D01*
X46759775Y-47084593D01*
X46456469Y-46922472D01*
X46456464Y-46922470D01*
X46408078Y-46902428D01*
X46333820Y-46871669D01*
X46138706Y-46790850D01*
X45809572Y-46691008D01*
X45472248Y-46623910D01*
X45472249Y-46623910D01*
X45214456Y-46598521D01*
X45129969Y-46590200D01*
X44786031Y-46590200D01*
X44707966Y-46597888D01*
X44443750Y-46623910D01*
X44106427Y-46691008D01*
X43777293Y-46790850D01*
X43459535Y-46922470D01*
X43459530Y-46922472D01*
X43156224Y-47084593D01*
X43156206Y-47084604D01*
X42870248Y-47275675D01*
X42870234Y-47275685D01*
X42604367Y-47493876D01*
X42361176Y-47737067D01*
X42142985Y-48002934D01*
X42142975Y-48002948D01*
X41951904Y-48288906D01*
X41951893Y-48288924D01*
X41789772Y-48592230D01*
X41789770Y-48592235D01*
X41658150Y-48909993D01*
X41558308Y-49239127D01*
X41491210Y-49576450D01*
X41473991Y-49751292D01*
X41459187Y-49901609D01*
X41457500Y-49918734D01*
X39818100Y-49918734D01*
X39818100Y-46201645D01*
X39818100Y-46201643D01*
X39777177Y-46048916D01*
X39777173Y-46048909D01*
X39698124Y-45911990D01*
X39698121Y-45911986D01*
X39698120Y-45911984D01*
X39586316Y-45800180D01*
X39586315Y-45800179D01*
X39581985Y-45795849D01*
X39581974Y-45795839D01*
X39322290Y-45536155D01*
X39322288Y-45536152D01*
X39203417Y-45417281D01*
X39203416Y-45417280D01*
X39116014Y-45366819D01*
X39066485Y-45338223D01*
X38913757Y-45297299D01*
X38755643Y-45297299D01*
X38748047Y-45297299D01*
X38748031Y-45297300D01*
X38632108Y-45297300D01*
X38565069Y-45277615D01*
X38526569Y-45238397D01*
X38482312Y-45166644D01*
X38388649Y-45072981D01*
X38355164Y-45011658D01*
X38360148Y-44941966D01*
X38388649Y-44897619D01*
X38430826Y-44855442D01*
X38482312Y-44803956D01*
X38574414Y-44654634D01*
X38629599Y-44488097D01*
X38640100Y-44385309D01*
X38640099Y-43895687D01*
X38659783Y-43828649D01*
X38712587Y-43782894D01*
X38781746Y-43772950D01*
X38788291Y-43774071D01*
X38921155Y-43800500D01*
X38921158Y-43800500D01*
X39078844Y-43800500D01*
X39078845Y-43800499D01*
X39233497Y-43769737D01*
X39379179Y-43709394D01*
X39379188Y-43709387D01*
X39384553Y-43706521D01*
X39385705Y-43708676D01*
X39442131Y-43691019D01*
X39444323Y-43691000D01*
X45068060Y-43691000D01*
X45157870Y-43673134D01*
X45201557Y-43664445D01*
X45321396Y-43614805D01*
X45388244Y-43606894D01*
X45431844Y-43613800D01*
X45431846Y-43613800D01*
X45652555Y-43613800D01*
X45652556Y-43613800D01*
X45870549Y-43579273D01*
X46080458Y-43511070D01*
X46277113Y-43410869D01*
X46455672Y-43281138D01*
X46611738Y-43125072D01*
X46736237Y-42953713D01*
X46791567Y-42911049D01*
X46836555Y-42902600D01*
X46856460Y-42902600D01*
X46946270Y-42884734D01*
X46989957Y-42876045D01*
X47115711Y-42823956D01*
X47131527Y-42813388D01*
X47228887Y-42748335D01*
X48036735Y-41940487D01*
X48112356Y-41827312D01*
X48164445Y-41701558D01*
X48170057Y-41673342D01*
X48191000Y-41568058D01*
X48191000Y-30931942D01*
X48191000Y-30931939D01*
X48164446Y-30798448D01*
X48164445Y-30798447D01*
X48164445Y-30798443D01*
X48112356Y-30672689D01*
X48078346Y-30621789D01*
X48078346Y-30621788D01*
X48036733Y-30559510D01*
X47115692Y-29638469D01*
X47115685Y-29638463D01*
X47002512Y-29562844D01*
X47002509Y-29562842D01*
X46876761Y-29510756D01*
X46876751Y-29510753D01*
X46743260Y-29484200D01*
X46743258Y-29484200D01*
X46607955Y-29484200D01*
X46540916Y-29464515D01*
X46507637Y-29433086D01*
X46467769Y-29378213D01*
X46383138Y-29261728D01*
X46227072Y-29105662D01*
X46048513Y-28975931D01*
X46035613Y-28969358D01*
X45851858Y-28875729D01*
X45851855Y-28875728D01*
X45641950Y-28807527D01*
X45532952Y-28790263D01*
X45423956Y-28773000D01*
X45203244Y-28773000D01*
X45130579Y-28784509D01*
X44985249Y-28807527D01*
X44775344Y-28875728D01*
X44775341Y-28875729D01*
X44578686Y-28975931D01*
X44476812Y-29049947D01*
X44400128Y-29105662D01*
X44400126Y-29105664D01*
X44400125Y-29105664D01*
X44244064Y-29261725D01*
X44244064Y-29261726D01*
X44244062Y-29261728D01*
X44208144Y-29311165D01*
X44114331Y-29440286D01*
X44014129Y-29636941D01*
X44014128Y-29636944D01*
X43945927Y-29846849D01*
X43911400Y-30064844D01*
X43911400Y-30285555D01*
X43945927Y-30503550D01*
X44014128Y-30713455D01*
X44014129Y-30713458D01*
X44067252Y-30817716D01*
X44114331Y-30910113D01*
X44244062Y-31088672D01*
X44400128Y-31244738D01*
X44578687Y-31374469D01*
X44626312Y-31398735D01*
X44775341Y-31474670D01*
X44775344Y-31474671D01*
X44880296Y-31508771D01*
X44985251Y-31542873D01*
X45203244Y-31577400D01*
X45203245Y-31577400D01*
X45423955Y-31577400D01*
X45423956Y-31577400D01*
X45641949Y-31542873D01*
X45851858Y-31474670D01*
X46048513Y-31374469D01*
X46227072Y-31244738D01*
X46383138Y-31088672D01*
X46393874Y-31073894D01*
X46449203Y-31031228D01*
X46518817Y-31025247D01*
X46580612Y-31057852D01*
X46581875Y-31059097D01*
X46772681Y-31249903D01*
X46806166Y-31311226D01*
X46809000Y-31337584D01*
X46809000Y-36116028D01*
X46789315Y-36183067D01*
X46736511Y-36228822D01*
X46667353Y-36238766D01*
X46603797Y-36209741D01*
X46597319Y-36203709D01*
X46455674Y-36062064D01*
X46455672Y-36062062D01*
X46277113Y-35932331D01*
X46239820Y-35913329D01*
X46080458Y-35832129D01*
X46080455Y-35832128D01*
X45870550Y-35763927D01*
X45761552Y-35746663D01*
X45652556Y-35729400D01*
X45431844Y-35729400D01*
X45359179Y-35740909D01*
X45213849Y-35763927D01*
X45003944Y-35832128D01*
X45003941Y-35832129D01*
X44807286Y-35932331D01*
X44754990Y-35970327D01*
X44628728Y-36062062D01*
X44628726Y-36062064D01*
X44628725Y-36062064D01*
X44472664Y-36218125D01*
X44472664Y-36218126D01*
X44472662Y-36218128D01*
X44462740Y-36231785D01*
X44342929Y-36396688D01*
X44308942Y-36463394D01*
X44260968Y-36514191D01*
X44198457Y-36531100D01*
X29931697Y-36531100D01*
X29864658Y-36511415D01*
X29844016Y-36494781D01*
X27866819Y-34517584D01*
X27833334Y-34456261D01*
X27830500Y-34429903D01*
X27830500Y-33979098D01*
X27836738Y-33957852D01*
X27838318Y-33935765D01*
X27846390Y-33924981D01*
X27850185Y-33912059D01*
X27866916Y-33897560D01*
X27880189Y-33879831D01*
X27892811Y-33875123D01*
X27902989Y-33866304D01*
X27924904Y-33863152D01*
X27945653Y-33855414D01*
X27958814Y-33858276D01*
X27972147Y-33856360D01*
X27992288Y-33865558D01*
X28013926Y-33870265D01*
X28031652Y-33883535D01*
X28035703Y-33885385D01*
X28042166Y-33891402D01*
X28131284Y-33980520D01*
X28131286Y-33980521D01*
X28138356Y-33987591D01*
X29515139Y-35364374D01*
X29515149Y-35364385D01*
X29519479Y-35368715D01*
X29519480Y-35368716D01*
X29631284Y-35480520D01*
X29631286Y-35480521D01*
X29631290Y-35480524D01*
X29768209Y-35559573D01*
X29768216Y-35559577D01*
X29880019Y-35589534D01*
X29920942Y-35600500D01*
X29920943Y-35600500D01*
X38913331Y-35600500D01*
X38913347Y-35600501D01*
X38920943Y-35600501D01*
X39079054Y-35600501D01*
X39079057Y-35600501D01*
X39231785Y-35559577D01*
X39281904Y-35530639D01*
X39368716Y-35480520D01*
X39480520Y-35368716D01*
X39480520Y-35368714D01*
X39490728Y-35358507D01*
X39490729Y-35358504D01*
X40480520Y-34368716D01*
X40559577Y-34231784D01*
X40600501Y-34079057D01*
X40600501Y-33920942D01*
X40600501Y-33913347D01*
X40600500Y-33913329D01*
X40600500Y-29089060D01*
X40600501Y-29089047D01*
X40600501Y-28920944D01*
X40588386Y-28875730D01*
X40559577Y-28768216D01*
X40519095Y-28698098D01*
X40480524Y-28631290D01*
X40480518Y-28631282D01*
X39868717Y-28019481D01*
X39868716Y-28019480D01*
X39781904Y-27969360D01*
X39781904Y-27969359D01*
X39781900Y-27969358D01*
X39731785Y-27940423D01*
X39579057Y-27899499D01*
X39420943Y-27899499D01*
X39413347Y-27899499D01*
X39413331Y-27899500D01*
X35800098Y-27899500D01*
X35770657Y-27890855D01*
X35740671Y-27884332D01*
X35735655Y-27880577D01*
X35733059Y-27879815D01*
X35712417Y-27863181D01*
X35636819Y-27787583D01*
X35603334Y-27726260D01*
X35600500Y-27699902D01*
X35600500Y-27074500D01*
X35620185Y-27007461D01*
X35672989Y-26961706D01*
X35724500Y-26950500D01*
X35769750Y-26950500D01*
X35769751Y-26950499D01*
X35784568Y-26947552D01*
X35828229Y-26938868D01*
X35828229Y-26938867D01*
X35828231Y-26938867D01*
X35894552Y-26894552D01*
X35938867Y-26828231D01*
X35938867Y-26828229D01*
X35938868Y-26828229D01*
X35944911Y-26797844D01*
X36290000Y-26797844D01*
X36296401Y-26857372D01*
X36296403Y-26857379D01*
X36346645Y-26992086D01*
X36346649Y-26992093D01*
X36432809Y-27107187D01*
X36432812Y-27107190D01*
X36547906Y-27193350D01*
X36547913Y-27193354D01*
X36682620Y-27243596D01*
X36682627Y-27243598D01*
X36742155Y-27249999D01*
X36742172Y-27250000D01*
X37290000Y-27250000D01*
X37790000Y-27250000D01*
X38337828Y-27250000D01*
X38337844Y-27249999D01*
X38397372Y-27243598D01*
X38397379Y-27243596D01*
X38532086Y-27193354D01*
X38532093Y-27193350D01*
X38647187Y-27107190D01*
X38647190Y-27107187D01*
X38733350Y-26992093D01*
X38733354Y-26992086D01*
X38783596Y-26857379D01*
X38783598Y-26857372D01*
X38789999Y-26797844D01*
X38790000Y-26797827D01*
X38790000Y-26250000D01*
X37790000Y-26250000D01*
X37790000Y-27250000D01*
X37290000Y-27250000D01*
X37290000Y-26250000D01*
X36290000Y-26250000D01*
X36290000Y-26797844D01*
X35944911Y-26797844D01*
X35947552Y-26784568D01*
X35950500Y-26769748D01*
X35950500Y-25230252D01*
X35950500Y-25230249D01*
X35950499Y-25230247D01*
X35949066Y-25223038D01*
X35949066Y-25223037D01*
X35944912Y-25202155D01*
X36290000Y-25202155D01*
X36290000Y-25750000D01*
X37290000Y-25750000D01*
X37790000Y-25750000D01*
X38790000Y-25750000D01*
X38790000Y-25202172D01*
X38789999Y-25202155D01*
X38783598Y-25142627D01*
X38783596Y-25142620D01*
X38733354Y-25007913D01*
X38733350Y-25007906D01*
X38647190Y-24892812D01*
X38647187Y-24892809D01*
X38532093Y-24806649D01*
X38532086Y-24806645D01*
X38397379Y-24756403D01*
X38397372Y-24756401D01*
X38337844Y-24750000D01*
X37790000Y-24750000D01*
X37790000Y-25750000D01*
X37290000Y-25750000D01*
X37290000Y-24750000D01*
X36742155Y-24750000D01*
X36682627Y-24756401D01*
X36682620Y-24756403D01*
X36547913Y-24806645D01*
X36547906Y-24806649D01*
X36432812Y-24892809D01*
X36432809Y-24892812D01*
X36346649Y-25007906D01*
X36346645Y-25007913D01*
X36296403Y-25142620D01*
X36296401Y-25142627D01*
X36290000Y-25202155D01*
X35944912Y-25202155D01*
X35938867Y-25171770D01*
X35938867Y-25171769D01*
X35894552Y-25105447D01*
X35828230Y-25061132D01*
X35828229Y-25061131D01*
X35769752Y-25049500D01*
X35769748Y-25049500D01*
X34673500Y-25049500D01*
X34606461Y-25029815D01*
X34560706Y-24977011D01*
X34549500Y-24925500D01*
X34549500Y-24323500D01*
X34569185Y-24256461D01*
X34621989Y-24210706D01*
X34673500Y-24199500D01*
X43517303Y-24199500D01*
X43584342Y-24219185D01*
X43604984Y-24235819D01*
X43938812Y-24569647D01*
X43972297Y-24630970D01*
X43969062Y-24695645D01*
X43945927Y-24766847D01*
X43921521Y-24920943D01*
X43911400Y-24984844D01*
X43911400Y-25205556D01*
X43915756Y-25233057D01*
X43945927Y-25423550D01*
X44014128Y-25633455D01*
X44014129Y-25633458D01*
X44073511Y-25750000D01*
X44114331Y-25830113D01*
X44244062Y-26008672D01*
X44400128Y-26164738D01*
X44578687Y-26294469D01*
X44675140Y-26343614D01*
X44775341Y-26394670D01*
X44775344Y-26394671D01*
X44856209Y-26420945D01*
X44985251Y-26462873D01*
X45203244Y-26497400D01*
X45203245Y-26497400D01*
X45423955Y-26497400D01*
X45423956Y-26497400D01*
X45641949Y-26462873D01*
X45851858Y-26394670D01*
X46048513Y-26294469D01*
X46227072Y-26164738D01*
X46383138Y-26008672D01*
X46512869Y-25830113D01*
X46613070Y-25633458D01*
X46681273Y-25423549D01*
X46715800Y-25205556D01*
X46715800Y-24984844D01*
X46681273Y-24766851D01*
X46634656Y-24623378D01*
X46613071Y-24556944D01*
X46613070Y-24556941D01*
X46538365Y-24410326D01*
X46512869Y-24360287D01*
X46383138Y-24181728D01*
X46227072Y-24025662D01*
X46048513Y-23895931D01*
X45851858Y-23795729D01*
X45851855Y-23795728D01*
X45641950Y-23727527D01*
X45532952Y-23710263D01*
X45423956Y-23693000D01*
X45203244Y-23693000D01*
X45159645Y-23699905D01*
X44985247Y-23727527D01*
X44914045Y-23750662D01*
X44844204Y-23752657D01*
X44788047Y-23720412D01*
X44304990Y-23237355D01*
X44304988Y-23237352D01*
X44186117Y-23118481D01*
X44186116Y-23118480D01*
X44099304Y-23068360D01*
X44099304Y-23068359D01*
X44099300Y-23068358D01*
X44049185Y-23039423D01*
X43896457Y-22998499D01*
X43738343Y-22998499D01*
X43730747Y-22998499D01*
X43730731Y-22998500D01*
X34420570Y-22998500D01*
X34420554Y-22998499D01*
X34412958Y-22998499D01*
X34254843Y-22998499D01*
X34114636Y-23036067D01*
X34102111Y-23039424D01*
X33965187Y-23118477D01*
X33965182Y-23118481D01*
X33573217Y-23510446D01*
X33573214Y-23510448D01*
X33573215Y-23510449D01*
X33468478Y-23615186D01*
X33432182Y-23678055D01*
X33432180Y-23678058D01*
X33422386Y-23695021D01*
X33371818Y-23743236D01*
X33303211Y-23756457D01*
X33238347Y-23730488D01*
X33197819Y-23673573D01*
X33191000Y-23633019D01*
X33191000Y-19431939D01*
X33172551Y-19339192D01*
X33178778Y-19269600D01*
X33221641Y-19214423D01*
X33287531Y-19191178D01*
X33294168Y-19191000D01*
X37068060Y-19191000D01*
X37157870Y-19173134D01*
X37201557Y-19164445D01*
X37298817Y-19124158D01*
X37327304Y-19112359D01*
X37327304Y-19112358D01*
X37327311Y-19112356D01*
X37377145Y-19079058D01*
X37377147Y-19079057D01*
X37398259Y-19064950D01*
X37440487Y-19036735D01*
X38076735Y-18400487D01*
X38152356Y-18287311D01*
X38204445Y-18161557D01*
X38210428Y-18131480D01*
X38218554Y-18090631D01*
X41457500Y-18090631D01*
X41457500Y-18434569D01*
X41462023Y-18480492D01*
X41491210Y-18776849D01*
X41558308Y-19114172D01*
X41658150Y-19443306D01*
X41677795Y-19490732D01*
X41785146Y-19749902D01*
X41789770Y-19761064D01*
X41789772Y-19761069D01*
X41951893Y-20064375D01*
X41951904Y-20064393D01*
X42142975Y-20350351D01*
X42142985Y-20350365D01*
X42361176Y-20616232D01*
X42604367Y-20859423D01*
X42604372Y-20859427D01*
X42604373Y-20859428D01*
X42870240Y-21077619D01*
X43156213Y-21268700D01*
X43156222Y-21268705D01*
X43156224Y-21268706D01*
X43459530Y-21430827D01*
X43459532Y-21430827D01*
X43459538Y-21430831D01*
X43777295Y-21562450D01*
X44106422Y-21662290D01*
X44443750Y-21729389D01*
X44786031Y-21763100D01*
X44786034Y-21763100D01*
X45129966Y-21763100D01*
X45129969Y-21763100D01*
X45472250Y-21729389D01*
X45809578Y-21662290D01*
X46138705Y-21562450D01*
X46456462Y-21430831D01*
X46759787Y-21268700D01*
X47045760Y-21077619D01*
X47311627Y-20859428D01*
X47554828Y-20616227D01*
X47773019Y-20350360D01*
X47964100Y-20064387D01*
X48126231Y-19761062D01*
X48257850Y-19443305D01*
X48357690Y-19114178D01*
X48424789Y-18776850D01*
X48458500Y-18434569D01*
X48458500Y-18090631D01*
X48424789Y-17748350D01*
X48365543Y-17450500D01*
X48357691Y-17411027D01*
X48357690Y-17411026D01*
X48357690Y-17411022D01*
X48257850Y-17081895D01*
X48126231Y-16764138D01*
X48109618Y-16733058D01*
X47964106Y-16460824D01*
X47964105Y-16460822D01*
X47964100Y-16460813D01*
X47773019Y-16174840D01*
X47554828Y-15908973D01*
X47554827Y-15908972D01*
X47554823Y-15908967D01*
X47311632Y-15665776D01*
X47045765Y-15447585D01*
X47045764Y-15447584D01*
X47045760Y-15447581D01*
X46759787Y-15256500D01*
X46759782Y-15256497D01*
X46759775Y-15256493D01*
X46456469Y-15094372D01*
X46456464Y-15094370D01*
X46443613Y-15089047D01*
X46363394Y-15055819D01*
X46138706Y-14962750D01*
X45809572Y-14862908D01*
X45472248Y-14795810D01*
X45472249Y-14795810D01*
X45214456Y-14770421D01*
X45129969Y-14762100D01*
X44786031Y-14762100D01*
X44723933Y-14768216D01*
X44443750Y-14795810D01*
X44106427Y-14862908D01*
X43777293Y-14962750D01*
X43459535Y-15094370D01*
X43459530Y-15094372D01*
X43156224Y-15256493D01*
X43156206Y-15256504D01*
X42870248Y-15447575D01*
X42870234Y-15447585D01*
X42604367Y-15665776D01*
X42361176Y-15908967D01*
X42142985Y-16174834D01*
X42142975Y-16174848D01*
X41951904Y-16460806D01*
X41951893Y-16460824D01*
X41789772Y-16764130D01*
X41789770Y-16764135D01*
X41658150Y-17081893D01*
X41558308Y-17411027D01*
X41491210Y-17748350D01*
X41469189Y-17971943D01*
X41457500Y-18090631D01*
X38218554Y-18090631D01*
X38223971Y-18063396D01*
X38223971Y-18063394D01*
X38231000Y-18028059D01*
X38231000Y-17567928D01*
X38250685Y-17500889D01*
X38303489Y-17455134D01*
X38330805Y-17446311D01*
X38368231Y-17438867D01*
X38434552Y-17394552D01*
X38478867Y-17328231D01*
X38478867Y-17328229D01*
X38478868Y-17328229D01*
X38490499Y-17269752D01*
X38490500Y-17269750D01*
X38490500Y-15730249D01*
X38490499Y-15730247D01*
X38478868Y-15671770D01*
X38478867Y-15671769D01*
X38434552Y-15605447D01*
X38368230Y-15561132D01*
X38368229Y-15561131D01*
X38309752Y-15549500D01*
X38309748Y-15549500D01*
X36770252Y-15549500D01*
X36770247Y-15549500D01*
X36711770Y-15561131D01*
X36711769Y-15561132D01*
X36645447Y-15605447D01*
X36601132Y-15671769D01*
X36601131Y-15671770D01*
X36589500Y-15730247D01*
X36589500Y-17269752D01*
X36601131Y-17328229D01*
X36601132Y-17328230D01*
X36645447Y-17394552D01*
X36670104Y-17411027D01*
X36711769Y-17438867D01*
X36749191Y-17446310D01*
X36777321Y-17461025D01*
X36806203Y-17474215D01*
X36808059Y-17477104D01*
X36811101Y-17478695D01*
X36826809Y-17506278D01*
X36843977Y-17532993D01*
X36844637Y-17537586D01*
X36845676Y-17539410D01*
X36849000Y-17567928D01*
X36849000Y-17622416D01*
X36829315Y-17689455D01*
X36812681Y-17710097D01*
X36750097Y-17772681D01*
X36688774Y-17806166D01*
X36662416Y-17809000D01*
X30855000Y-17809000D01*
X30787961Y-17789315D01*
X30742206Y-17736511D01*
X30731000Y-17685000D01*
X30731000Y-17567928D01*
X30750685Y-17500889D01*
X30803489Y-17455134D01*
X30830805Y-17446311D01*
X30868231Y-17438867D01*
X30934552Y-17394552D01*
X30978867Y-17328231D01*
X30978867Y-17328229D01*
X30978868Y-17328229D01*
X30990499Y-17269752D01*
X30990500Y-17269750D01*
X30990500Y-15730249D01*
X30990499Y-15730247D01*
X30978868Y-15671770D01*
X30978867Y-15671769D01*
X30934552Y-15605447D01*
X30868230Y-15561132D01*
X30868229Y-15561131D01*
X30809752Y-15549500D01*
X30809748Y-15549500D01*
X29270252Y-15549500D01*
X29270247Y-15549500D01*
X29211770Y-15561131D01*
X29211769Y-15561132D01*
X29145447Y-15605447D01*
X29101132Y-15671769D01*
X29101131Y-15671770D01*
X29089500Y-15730247D01*
X29089500Y-17269752D01*
X29101131Y-17328229D01*
X29101132Y-17328230D01*
X29145447Y-17394552D01*
X29170104Y-17411027D01*
X29211769Y-17438867D01*
X29249191Y-17446310D01*
X29311101Y-17478695D01*
X29345676Y-17539410D01*
X29349000Y-17567928D01*
X29349000Y-17971943D01*
X29349000Y-18108057D01*
X29349000Y-18108059D01*
X29348999Y-18108059D01*
X29375553Y-18241551D01*
X29375556Y-18241561D01*
X29427642Y-18367309D01*
X29427644Y-18367312D01*
X29503263Y-18480485D01*
X29503269Y-18480492D01*
X30059510Y-19036733D01*
X30122856Y-19079059D01*
X30172682Y-19112352D01*
X30172695Y-19112359D01*
X30298438Y-19164443D01*
X30298443Y-19164445D01*
X30298447Y-19164445D01*
X30298448Y-19164446D01*
X30431939Y-19191000D01*
X30431942Y-19191000D01*
X31162416Y-19191000D01*
X31229455Y-19210685D01*
X31250097Y-19227319D01*
X31772681Y-19749902D01*
X31806166Y-19811225D01*
X31809000Y-19837583D01*
X31809000Y-32662416D01*
X31800355Y-32691856D01*
X31793832Y-32721843D01*
X31790077Y-32726858D01*
X31789315Y-32729455D01*
X31772681Y-32750097D01*
X31750097Y-32772681D01*
X31688774Y-32806166D01*
X31662416Y-32809000D01*
X30837583Y-32809000D01*
X30770544Y-32789315D01*
X30749906Y-32772685D01*
X30595882Y-32618660D01*
X30562399Y-32557339D01*
X30567383Y-32487647D01*
X30609255Y-32431714D01*
X30614642Y-32427901D01*
X30664552Y-32394552D01*
X30708867Y-32328231D01*
X30708867Y-32328229D01*
X30708868Y-32328229D01*
X30720499Y-32269752D01*
X30720500Y-32269750D01*
X30720500Y-30730249D01*
X30720499Y-30730247D01*
X30708868Y-30671770D01*
X30708867Y-30671769D01*
X30664552Y-30605447D01*
X30598230Y-30561132D01*
X30598229Y-30561131D01*
X30539752Y-30549500D01*
X30539748Y-30549500D01*
X30074424Y-30549500D01*
X30007385Y-30529815D01*
X29961630Y-30477011D01*
X29951686Y-30407853D01*
X29959863Y-30378048D01*
X30019735Y-30233501D01*
X30019737Y-30233497D01*
X30050500Y-30078842D01*
X30050500Y-29921158D01*
X30050500Y-29921155D01*
X30050499Y-29921153D01*
X30019737Y-29766503D01*
X30019735Y-29766498D01*
X29959397Y-29620827D01*
X29959390Y-29620814D01*
X29871789Y-29489711D01*
X29871786Y-29489707D01*
X29760292Y-29378213D01*
X29760288Y-29378210D01*
X29629185Y-29290609D01*
X29629172Y-29290602D01*
X29483501Y-29230264D01*
X29483489Y-29230261D01*
X29328845Y-29199500D01*
X29328842Y-29199500D01*
X29171158Y-29199500D01*
X29171155Y-29199500D01*
X29016510Y-29230261D01*
X29016498Y-29230264D01*
X28870827Y-29290602D01*
X28870814Y-29290609D01*
X28816972Y-29326586D01*
X28750294Y-29347464D01*
X28682914Y-29328979D01*
X28660400Y-29311165D01*
X28597970Y-29248735D01*
X28480521Y-29131285D01*
X28480520Y-29131284D01*
X28368716Y-29019480D01*
X28281904Y-28969360D01*
X28281904Y-28969359D01*
X28281900Y-28969358D01*
X28231785Y-28940423D01*
X28079057Y-28899499D01*
X27920943Y-28899499D01*
X27913347Y-28899499D01*
X27913331Y-28899500D01*
X25086670Y-28899500D01*
X25086654Y-28899499D01*
X25079058Y-28899499D01*
X24920943Y-28899499D01*
X24768216Y-28940423D01*
X24768214Y-28940424D01*
X24760366Y-28942527D01*
X24759739Y-28940190D01*
X24702472Y-28946342D01*
X24639996Y-28915061D01*
X24604349Y-28854969D01*
X24600500Y-28824314D01*
X24600500Y-26800098D01*
X24609144Y-26770660D01*
X24615668Y-26740670D01*
X24619423Y-26735653D01*
X24620185Y-26733059D01*
X24636819Y-26712416D01*
X24712418Y-26636818D01*
X24773742Y-26603334D01*
X24800099Y-26600500D01*
X26425500Y-26600500D01*
X26492539Y-26620185D01*
X26538294Y-26672989D01*
X26549500Y-26724500D01*
X26549500Y-26769752D01*
X26561131Y-26828229D01*
X26561132Y-26828230D01*
X26605447Y-26894552D01*
X26671769Y-26938867D01*
X26671770Y-26938868D01*
X26730247Y-26950499D01*
X26730250Y-26950500D01*
X26730252Y-26950500D01*
X28269750Y-26950500D01*
X28269751Y-26950499D01*
X28284568Y-26947552D01*
X28328229Y-26938868D01*
X28328229Y-26938867D01*
X28328231Y-26938867D01*
X28394552Y-26894552D01*
X28438867Y-26828231D01*
X28438867Y-26828229D01*
X28438868Y-26828229D01*
X28444911Y-26797844D01*
X28790000Y-26797844D01*
X28796401Y-26857372D01*
X28796403Y-26857379D01*
X28846645Y-26992086D01*
X28846649Y-26992093D01*
X28932809Y-27107187D01*
X28932812Y-27107190D01*
X29047906Y-27193350D01*
X29047913Y-27193354D01*
X29182620Y-27243596D01*
X29182627Y-27243598D01*
X29242155Y-27249999D01*
X29242172Y-27250000D01*
X29790000Y-27250000D01*
X30290000Y-27250000D01*
X30837828Y-27250000D01*
X30837844Y-27249999D01*
X30897372Y-27243598D01*
X30897379Y-27243596D01*
X31032086Y-27193354D01*
X31032093Y-27193350D01*
X31147187Y-27107190D01*
X31147190Y-27107187D01*
X31233350Y-26992093D01*
X31233354Y-26992086D01*
X31283596Y-26857379D01*
X31283598Y-26857372D01*
X31289999Y-26797844D01*
X31290000Y-26797827D01*
X31290000Y-26250000D01*
X30290000Y-26250000D01*
X30290000Y-27250000D01*
X29790000Y-27250000D01*
X29790000Y-26250000D01*
X28790000Y-26250000D01*
X28790000Y-26797844D01*
X28444911Y-26797844D01*
X28447552Y-26784568D01*
X28450500Y-26769748D01*
X28450500Y-25230252D01*
X28450500Y-25230249D01*
X28450499Y-25230247D01*
X28449066Y-25223038D01*
X28449066Y-25223037D01*
X28444912Y-25202155D01*
X28790000Y-25202155D01*
X28790000Y-25750000D01*
X29790000Y-25750000D01*
X30290000Y-25750000D01*
X31290000Y-25750000D01*
X31290000Y-25202172D01*
X31289999Y-25202155D01*
X31283598Y-25142627D01*
X31283596Y-25142620D01*
X31233354Y-25007913D01*
X31233350Y-25007906D01*
X31147190Y-24892812D01*
X31147187Y-24892809D01*
X31032093Y-24806649D01*
X31032086Y-24806645D01*
X30897379Y-24756403D01*
X30897372Y-24756401D01*
X30837844Y-24750000D01*
X30290000Y-24750000D01*
X30290000Y-25750000D01*
X29790000Y-25750000D01*
X29790000Y-24750000D01*
X29242155Y-24750000D01*
X29182627Y-24756401D01*
X29182620Y-24756403D01*
X29047913Y-24806645D01*
X29047906Y-24806649D01*
X28932812Y-24892809D01*
X28932809Y-24892812D01*
X28846649Y-25007906D01*
X28846645Y-25007913D01*
X28796403Y-25142620D01*
X28796401Y-25142627D01*
X28790000Y-25202155D01*
X28444912Y-25202155D01*
X28438867Y-25171770D01*
X28438867Y-25171769D01*
X28394552Y-25105447D01*
X28328230Y-25061132D01*
X28328229Y-25061131D01*
X28269752Y-25049500D01*
X28269748Y-25049500D01*
X26730252Y-25049500D01*
X26730247Y-25049500D01*
X26671770Y-25061131D01*
X26671769Y-25061132D01*
X26605447Y-25105447D01*
X26561132Y-25171769D01*
X26561131Y-25171770D01*
X26549500Y-25230247D01*
X26549500Y-25275500D01*
X26529815Y-25342539D01*
X26477011Y-25388294D01*
X26425500Y-25399500D01*
X24586670Y-25399500D01*
X24586654Y-25399499D01*
X24579058Y-25399499D01*
X24420943Y-25399499D01*
X24344579Y-25419961D01*
X24268214Y-25440423D01*
X24268209Y-25440426D01*
X24131290Y-25519475D01*
X24131282Y-25519481D01*
X23624217Y-26026546D01*
X23624214Y-26026548D01*
X23624215Y-26026549D01*
X23519477Y-26131287D01*
X23503319Y-26159276D01*
X23503318Y-26159278D01*
X23440423Y-26268215D01*
X23399499Y-26420943D01*
X23399499Y-26579057D01*
X23399499Y-26579059D01*
X23399500Y-26589053D01*
X23399500Y-43413330D01*
X23399499Y-43413348D01*
X23399499Y-43579054D01*
X23399498Y-43579054D01*
X19913711Y-43579054D01*
X20039672Y-43487538D01*
X20195738Y-43331472D01*
X20325469Y-43152913D01*
X20425670Y-42956258D01*
X20493873Y-42746349D01*
X20528400Y-42528356D01*
X20528400Y-42307644D01*
X20493873Y-42089651D01*
X20454788Y-41969360D01*
X20425671Y-41879744D01*
X20425670Y-41879741D01*
X20334880Y-41701558D01*
X20325469Y-41683087D01*
X20195738Y-41504528D01*
X20039672Y-41348462D01*
X19861113Y-41218731D01*
X19851392Y-41213778D01*
X19664458Y-41118529D01*
X19664455Y-41118528D01*
X19454550Y-41050327D01*
X19345552Y-41033063D01*
X19236556Y-41015800D01*
X19015844Y-41015800D01*
X18943179Y-41027309D01*
X18797849Y-41050327D01*
X18587944Y-41118528D01*
X18587941Y-41118529D01*
X18391286Y-41218731D01*
X18308538Y-41278852D01*
X18212728Y-41348462D01*
X18212726Y-41348464D01*
X18212725Y-41348464D01*
X18056664Y-41504525D01*
X18056664Y-41504526D01*
X18056662Y-41504528D01*
X18010505Y-41568058D01*
X17926931Y-41683086D01*
X17826729Y-41879741D01*
X17826728Y-41879744D01*
X17758527Y-42089649D01*
X17724000Y-42307644D01*
X13250500Y-42307644D01*
X13250500Y-37227644D01*
X17724000Y-37227644D01*
X17724000Y-37448355D01*
X17758527Y-37666350D01*
X17826728Y-37876255D01*
X17826729Y-37876258D01*
X17905570Y-38030990D01*
X17926931Y-38072913D01*
X18056662Y-38251472D01*
X18212728Y-38407538D01*
X18391287Y-38537269D01*
X18487740Y-38586414D01*
X18587941Y-38637470D01*
X18587944Y-38637471D01*
X18692896Y-38671571D01*
X18797851Y-38705673D01*
X19015844Y-38740200D01*
X19015845Y-38740200D01*
X19236555Y-38740200D01*
X19236556Y-38740200D01*
X19454549Y-38705673D01*
X19664458Y-38637470D01*
X19861113Y-38537269D01*
X20039672Y-38407538D01*
X20195738Y-38251472D01*
X20325469Y-38072913D01*
X20406893Y-37913107D01*
X20454867Y-37862312D01*
X20455126Y-37862161D01*
X20530716Y-37818520D01*
X20642520Y-37706716D01*
X20642520Y-37706714D01*
X20652724Y-37696511D01*
X20652727Y-37696506D01*
X21980520Y-36368716D01*
X22059577Y-36231784D01*
X22100501Y-36079057D01*
X22100501Y-35920942D01*
X22100501Y-35913347D01*
X22100500Y-35913329D01*
X22100500Y-25300096D01*
X22120185Y-25233057D01*
X22136814Y-25212420D01*
X27858506Y-19490727D01*
X27858511Y-19490724D01*
X27868714Y-19480520D01*
X27868716Y-19480520D01*
X27980520Y-19368716D01*
X28059577Y-19231784D01*
X28100500Y-19079057D01*
X28100500Y-17574500D01*
X28120185Y-17507461D01*
X28172989Y-17461706D01*
X28224500Y-17450500D01*
X28269750Y-17450500D01*
X28269751Y-17450499D01*
X28290813Y-17446310D01*
X28328229Y-17438868D01*
X28328229Y-17438867D01*
X28328231Y-17438867D01*
X28394552Y-17394552D01*
X28438867Y-17328231D01*
X28438867Y-17328229D01*
X28438868Y-17328229D01*
X28450499Y-17269752D01*
X28450500Y-17269750D01*
X28450500Y-15730249D01*
X28450499Y-15730247D01*
X28438868Y-15671770D01*
X28438867Y-15671769D01*
X28394552Y-15605447D01*
X28328230Y-15561132D01*
X28328229Y-15561131D01*
X28269752Y-15549500D01*
X28269748Y-15549500D01*
X26730252Y-15549500D01*
X26730247Y-15549500D01*
X26671770Y-15561131D01*
X26671769Y-15561132D01*
X26605447Y-15605447D01*
X26561132Y-15671769D01*
X26561131Y-15671770D01*
X26549500Y-15730247D01*
X26549500Y-17269752D01*
X26561131Y-17328229D01*
X26561132Y-17328230D01*
X26605447Y-17394552D01*
X26671769Y-17438867D01*
X26671770Y-17438868D01*
X26730247Y-17450499D01*
X26730250Y-17450500D01*
X26730252Y-17450500D01*
X26775500Y-17450500D01*
X26842539Y-17470185D01*
X26888294Y-17522989D01*
X26899500Y-17574500D01*
X26899500Y-18699902D01*
X26879815Y-18766941D01*
X26863181Y-18787583D01*
X21019482Y-24631281D01*
X21019480Y-24631283D01*
X21011761Y-24644654D01*
X21006109Y-24654444D01*
X20954305Y-24744170D01*
X20941211Y-24766851D01*
X20940423Y-24768215D01*
X20899499Y-24920943D01*
X20899499Y-24920945D01*
X20899499Y-25089046D01*
X20899500Y-25089059D01*
X20899500Y-35699902D01*
X20879815Y-35766941D01*
X20863181Y-35787583D01*
X20298668Y-36352095D01*
X20237345Y-36385580D01*
X20167653Y-36380596D01*
X20123306Y-36352096D01*
X20123305Y-36352095D01*
X20039672Y-36268462D01*
X19861113Y-36138731D01*
X19816556Y-36116028D01*
X19664458Y-36038529D01*
X19664455Y-36038528D01*
X19454550Y-35970327D01*
X19345552Y-35953063D01*
X19236556Y-35935800D01*
X19015844Y-35935800D01*
X18943179Y-35947309D01*
X18797849Y-35970327D01*
X18587944Y-36038528D01*
X18587941Y-36038529D01*
X18391286Y-36138731D01*
X18301853Y-36203709D01*
X18212728Y-36268462D01*
X18212726Y-36268464D01*
X18212725Y-36268464D01*
X18056664Y-36424525D01*
X18056664Y-36424526D01*
X18056662Y-36424528D01*
X18028424Y-36463394D01*
X17926931Y-36603086D01*
X17826729Y-36799741D01*
X17826728Y-36799744D01*
X17758527Y-37009649D01*
X17724000Y-37227644D01*
X13250500Y-37227644D01*
X13250500Y-30293444D01*
X17724000Y-30293444D01*
X17724000Y-30514156D01*
X17738459Y-30605447D01*
X17758527Y-30732150D01*
X17826728Y-30942055D01*
X17826729Y-30942058D01*
X17901434Y-31088672D01*
X17926931Y-31138713D01*
X18056662Y-31317272D01*
X18212728Y-31473338D01*
X18391287Y-31603069D01*
X18487740Y-31652214D01*
X18587941Y-31703270D01*
X18587944Y-31703271D01*
X18692896Y-31737371D01*
X18797851Y-31771473D01*
X19015844Y-31806000D01*
X19015845Y-31806000D01*
X19236555Y-31806000D01*
X19236556Y-31806000D01*
X19454549Y-31771473D01*
X19664458Y-31703270D01*
X19861113Y-31603069D01*
X20039672Y-31473338D01*
X20195738Y-31317272D01*
X20325469Y-31138713D01*
X20425670Y-30942058D01*
X20493873Y-30732149D01*
X20528400Y-30514156D01*
X20528400Y-30293444D01*
X20493873Y-30075451D01*
X20425670Y-29865542D01*
X20425670Y-29865541D01*
X20325468Y-29668886D01*
X20195738Y-29490328D01*
X20039672Y-29334262D01*
X19861113Y-29204531D01*
X19851239Y-29199500D01*
X19664458Y-29104329D01*
X19664455Y-29104328D01*
X19454550Y-29036127D01*
X19345552Y-29018863D01*
X19236556Y-29001600D01*
X19015844Y-29001600D01*
X18943179Y-29013109D01*
X18797849Y-29036127D01*
X18587944Y-29104328D01*
X18587941Y-29104329D01*
X18391286Y-29204531D01*
X18312566Y-29261725D01*
X18212728Y-29334262D01*
X18212726Y-29334264D01*
X18212725Y-29334264D01*
X18056664Y-29490325D01*
X18056664Y-29490326D01*
X18056662Y-29490328D01*
X18003977Y-29562842D01*
X17926931Y-29668886D01*
X17826729Y-29865541D01*
X17826728Y-29865544D01*
X17758527Y-30075449D01*
X17725249Y-30285556D01*
X17724000Y-30293444D01*
X13250500Y-30293444D01*
X13250500Y-18090631D01*
X14889100Y-18090631D01*
X14889100Y-18434569D01*
X14893623Y-18480492D01*
X14922810Y-18776849D01*
X14989908Y-19114172D01*
X15089750Y-19443306D01*
X15109395Y-19490732D01*
X15216746Y-19749902D01*
X15221370Y-19761064D01*
X15221372Y-19761069D01*
X15383493Y-20064375D01*
X15383504Y-20064393D01*
X15574575Y-20350351D01*
X15574585Y-20350365D01*
X15792776Y-20616232D01*
X16035967Y-20859423D01*
X16035972Y-20859427D01*
X16035973Y-20859428D01*
X16301840Y-21077619D01*
X16587813Y-21268700D01*
X16587822Y-21268705D01*
X16587824Y-21268706D01*
X16891130Y-21430827D01*
X16891132Y-21430827D01*
X16891138Y-21430831D01*
X17208895Y-21562450D01*
X17538022Y-21662290D01*
X17875350Y-21729389D01*
X18217631Y-21763100D01*
X18217634Y-21763100D01*
X18561566Y-21763100D01*
X18561569Y-21763100D01*
X18903850Y-21729389D01*
X19241178Y-21662290D01*
X19570305Y-21562450D01*
X19888062Y-21430831D01*
X20191387Y-21268700D01*
X20477360Y-21077619D01*
X20743227Y-20859428D01*
X20986428Y-20616227D01*
X21204619Y-20350360D01*
X21395700Y-20064387D01*
X21557831Y-19761062D01*
X21689450Y-19443305D01*
X21789290Y-19114178D01*
X21856389Y-18776850D01*
X21890100Y-18434569D01*
X21890100Y-18090631D01*
X21856389Y-17748350D01*
X21797143Y-17450500D01*
X21789291Y-17411027D01*
X21789290Y-17411026D01*
X21789290Y-17411022D01*
X21689450Y-17081895D01*
X21557831Y-16764138D01*
X21541218Y-16733058D01*
X21395706Y-16460824D01*
X21395705Y-16460822D01*
X21395700Y-16460813D01*
X21204619Y-16174840D01*
X20986428Y-15908973D01*
X20986427Y-15908972D01*
X20986423Y-15908967D01*
X20743232Y-15665776D01*
X20477365Y-15447585D01*
X20477364Y-15447584D01*
X20477360Y-15447581D01*
X20191387Y-15256500D01*
X20191382Y-15256497D01*
X20191375Y-15256493D01*
X19888069Y-15094372D01*
X19888064Y-15094370D01*
X19875213Y-15089047D01*
X19794994Y-15055819D01*
X19570306Y-14962750D01*
X19241172Y-14862908D01*
X18903848Y-14795810D01*
X18903849Y-14795810D01*
X18646056Y-14770421D01*
X18561569Y-14762100D01*
X18217631Y-14762100D01*
X18155533Y-14768216D01*
X17875350Y-14795810D01*
X17538027Y-14862908D01*
X17208893Y-14962750D01*
X16891135Y-15094370D01*
X16891130Y-15094372D01*
X16587824Y-15256493D01*
X16587806Y-15256504D01*
X16301848Y-15447575D01*
X16301834Y-15447585D01*
X16035967Y-15665776D01*
X15792776Y-15908967D01*
X15574585Y-16174834D01*
X15574575Y-16174848D01*
X15383504Y-16460806D01*
X15383493Y-16460824D01*
X15221372Y-16764130D01*
X15221370Y-16764135D01*
X15089750Y-17081893D01*
X14989908Y-17411027D01*
X14922810Y-17748350D01*
X14900789Y-17971943D01*
X14889100Y-18090631D01*
X13250500Y-18090631D01*
X13250500Y-13874500D01*
X13270185Y-13807461D01*
X13322989Y-13761706D01*
X13374500Y-13750500D01*
X25134397Y-13750500D01*
X25201436Y-13770185D01*
G37*
%TD.AperFunction*%
%TD*%
M02*
