%TF.GenerationSoftware,KiCad,Pcbnew,9.0.6*%
%TF.CreationDate,2026-03-03T14:06:12-08:00*%
%TF.ProjectId,bramble,6272616d-626c-4652-9e6b-696361645f70,rev?*%
%TF.SameCoordinates,Original*%
%TF.FileFunction,Soldermask,Bot*%
%TF.FilePolarity,Negative*%
%FSLAX46Y46*%
G04 Gerber Fmt 4.6, Leading zero omitted, Abs format (unit mm)*
G04 Created by KiCad (PCBNEW 9.0.6) date 2026-03-03 14:06:12*
%MOMM*%
%LPD*%
G01*
G04 APERTURE LIST*
G04 Aperture macros list*
%AMRoundRect*
0 Rectangle with rounded corners*
0 $1 Rounding radius*
0 $2 $3 $4 $5 $6 $7 $8 $9 X,Y pos of 4 corners*
0 Add a 4 corners polygon primitive as box body*
4,1,4,$2,$3,$4,$5,$6,$7,$8,$9,$2,$3,0*
0 Add four circle primitives for the rounded corners*
1,1,$1+$1,$2,$3*
1,1,$1+$1,$4,$5*
1,1,$1+$1,$6,$7*
1,1,$1+$1,$8,$9*
0 Add four rect primitives between the rounded corners*
20,1,$1+$1,$2,$3,$4,$5,0*
20,1,$1+$1,$4,$5,$6,$7,0*
20,1,$1+$1,$6,$7,$8,$9,0*
20,1,$1+$1,$8,$9,$2,$3,0*%
%AMFreePoly0*
4,1,9,5.362500,-0.866500,1.237500,-0.866500,1.237500,-0.450000,-1.237500,-0.450000,-1.237500,0.450000,1.237500,0.450000,1.237500,0.866500,5.362500,0.866500,5.362500,-0.866500,5.362500,-0.866500,$1*%
G04 Aperture macros list end*
%ADD10RoundRect,0.250000X-0.600000X-0.600000X0.600000X-0.600000X0.600000X0.600000X-0.600000X0.600000X0*%
%ADD11C,1.700000*%
%ADD12C,1.400000*%
%ADD13RoundRect,0.250000X0.350000X0.625000X-0.350000X0.625000X-0.350000X-0.625000X0.350000X-0.625000X0*%
%ADD14O,1.200000X1.750000*%
%ADD15C,7.000000*%
%ADD16C,0.660000*%
%ADD17O,1.000000X0.580000*%
%ADD18C,1.100000*%
%ADD19C,2.400000*%
%ADD20C,0.600000*%
%ADD21RoundRect,0.250000X-0.600000X-0.725000X0.600000X-0.725000X0.600000X0.725000X-0.600000X0.725000X0*%
%ADD22O,1.700000X1.950000*%
%ADD23RoundRect,0.250000X-0.262500X-0.450000X0.262500X-0.450000X0.262500X0.450000X-0.262500X0.450000X0*%
%ADD24R,1.500000X1.500000*%
%ADD25RoundRect,0.250000X0.475000X-0.250000X0.475000X0.250000X-0.475000X0.250000X-0.475000X-0.250000X0*%
%ADD26RoundRect,0.100000X0.637500X0.100000X-0.637500X0.100000X-0.637500X-0.100000X0.637500X-0.100000X0*%
%ADD27RoundRect,0.250000X-0.250000X-0.475000X0.250000X-0.475000X0.250000X0.475000X-0.250000X0.475000X0*%
%ADD28RoundRect,0.250000X0.262500X0.450000X-0.262500X0.450000X-0.262500X-0.450000X0.262500X-0.450000X0*%
%ADD29RoundRect,0.250000X0.450000X-0.262500X0.450000X0.262500X-0.450000X0.262500X-0.450000X-0.262500X0*%
%ADD30R,1.800000X1.000000*%
%ADD31RoundRect,0.225000X-0.225000X0.925000X-0.225000X-0.925000X0.225000X-0.925000X0.225000X0.925000X0*%
%ADD32FreePoly0,270.000000*%
%ADD33RoundRect,0.250000X0.250000X0.475000X-0.250000X0.475000X-0.250000X-0.475000X0.250000X-0.475000X0*%
%ADD34RoundRect,0.150000X-0.825000X-0.150000X0.825000X-0.150000X0.825000X0.150000X-0.825000X0.150000X0*%
%ADD35R,2.290000X3.000000*%
%ADD36RoundRect,0.250000X-0.475000X0.250000X-0.475000X-0.250000X0.475000X-0.250000X0.475000X0.250000X0*%
G04 APERTURE END LIST*
D10*
%TO.C,J8*%
X62280000Y-52690000D03*
D11*
X64820000Y-52690000D03*
X62280000Y-55230000D03*
X64820000Y-55230000D03*
X62280000Y-57770000D03*
X64820000Y-57770000D03*
X62280000Y-60310000D03*
X64820000Y-60310000D03*
X62280000Y-62850000D03*
X64820000Y-62850000D03*
X62280000Y-65390000D03*
X64820000Y-65390000D03*
%TD*%
D12*
%TO.C,JP1*%
X56450000Y-75200000D03*
X58990000Y-75200000D03*
%TD*%
D13*
%TO.C,MAIN SUPPLY*%
X51650000Y-76550000D03*
D14*
X49650000Y-76550000D03*
%TD*%
D13*
%TO.C,PMU SUPPLY*%
X65650000Y-76550000D03*
D14*
X63650000Y-76550000D03*
%TD*%
D15*
%TO.C,H4*%
X76200000Y-75100000D03*
%TD*%
%TO.C,H3*%
X14600000Y-75100000D03*
%TD*%
D10*
%TO.C,J6*%
X74100000Y-52560000D03*
D11*
X76640000Y-52560000D03*
X74100000Y-55100000D03*
X76640000Y-55100000D03*
X74100000Y-57640000D03*
X76640000Y-57640000D03*
X74100000Y-60180000D03*
X76640000Y-60180000D03*
X74100000Y-62720000D03*
X76640000Y-62720000D03*
X74100000Y-65260000D03*
X76640000Y-65260000D03*
%TD*%
D15*
%TO.C,H2*%
X14600000Y-17100000D03*
%TD*%
D16*
%TO.C,J5*%
X49150000Y-16200000D03*
D17*
X41650000Y-16200000D03*
D18*
X47800000Y-18350000D03*
X47800000Y-14050000D03*
X43000000Y-18350000D03*
X43000000Y-14050000D03*
%TD*%
D19*
%TO.C,R4*%
X16775000Y-67070000D03*
X16775000Y-51830000D03*
%TD*%
D20*
%TO.C,U6*%
X44820167Y-39266667D03*
X44820167Y-40400000D03*
X44820167Y-41533333D03*
X45953500Y-39266667D03*
X45953500Y-40400000D03*
X45953500Y-41533333D03*
X47086833Y-39266667D03*
X47086833Y-40400000D03*
X47086833Y-41533333D03*
%TD*%
D21*
%TO.C,J1*%
X23100000Y-16100000D03*
D22*
X25600000Y-16100000D03*
X28100000Y-16100000D03*
X30600000Y-16100000D03*
X33100000Y-16100000D03*
%TD*%
D12*
%TO.C,JP3*%
X56550000Y-72750000D03*
X59090000Y-72750000D03*
%TD*%
%TO.C,JP2*%
X56450000Y-77600000D03*
X58990000Y-77600000D03*
%TD*%
D15*
%TO.C,H1*%
X76200000Y-17100000D03*
%TD*%
D10*
%TO.C,J7*%
X73533000Y-26873200D03*
D11*
X76073000Y-26873200D03*
X73533000Y-29413200D03*
X76073000Y-29413200D03*
X73533000Y-31953200D03*
X76073000Y-31953200D03*
X73533000Y-34493200D03*
X76073000Y-34493200D03*
X73533000Y-37033200D03*
X76073000Y-37033200D03*
X73533000Y-39573200D03*
X76073000Y-39573200D03*
%TD*%
D23*
%TO.C,R6*%
X25762500Y-47700000D03*
X27587500Y-47700000D03*
%TD*%
%TO.C,R2*%
X32912500Y-52700000D03*
X34737500Y-52700000D03*
%TD*%
D24*
%TO.C,TX*%
X38049200Y-33807400D03*
%TD*%
D25*
%TO.C,C9*%
X43525000Y-21770000D03*
X43525000Y-19870000D03*
%TD*%
D26*
%TO.C,U2*%
X39362500Y-25325000D03*
X39362500Y-25975000D03*
X39362500Y-26625000D03*
X39362500Y-27275000D03*
X39362500Y-27925000D03*
X39362500Y-28575000D03*
X39362500Y-29225000D03*
X39362500Y-29875000D03*
X39362500Y-30525000D03*
X39362500Y-31175000D03*
X33637500Y-31175000D03*
X33637500Y-30525000D03*
X33637500Y-29875000D03*
X33637500Y-29225000D03*
X33637500Y-28575000D03*
X33637500Y-27925000D03*
X33637500Y-27275000D03*
X33637500Y-26625000D03*
X33637500Y-25975000D03*
X33637500Y-25325000D03*
%TD*%
D27*
%TO.C,C5*%
X45875000Y-27250000D03*
X47775000Y-27250000D03*
%TD*%
D26*
%TO.C,U1*%
X29725000Y-50100000D03*
X29725000Y-50750000D03*
X29725000Y-51400000D03*
X29725000Y-52050000D03*
X29725000Y-52700000D03*
X29725000Y-53350000D03*
X29725000Y-54000000D03*
X24000000Y-54000000D03*
X24000000Y-53350000D03*
X24000000Y-52700000D03*
X24000000Y-52050000D03*
X24000000Y-51400000D03*
X24000000Y-50750000D03*
X24000000Y-50100000D03*
%TD*%
D28*
%TO.C,R8*%
X33712500Y-54975000D03*
X31887500Y-54975000D03*
%TD*%
D25*
%TO.C,C10*%
X46175000Y-21770000D03*
X46175000Y-19870000D03*
%TD*%
D28*
%TO.C,R5*%
X31612500Y-47700000D03*
X29787500Y-47700000D03*
%TD*%
D29*
%TO.C,R1*%
X16775000Y-56537500D03*
X16775000Y-54712500D03*
%TD*%
D23*
%TO.C,R7*%
X31887500Y-57600000D03*
X33712500Y-57600000D03*
%TD*%
D30*
%TO.C,Y1*%
X43750000Y-23800000D03*
X43750000Y-26300000D03*
%TD*%
D31*
%TO.C,U3*%
X22862500Y-28800000D03*
D32*
X24362500Y-28887500D03*
D31*
X25862500Y-28800000D03*
%TD*%
D33*
%TO.C,C7*%
X28337500Y-35900000D03*
X26437500Y-35900000D03*
%TD*%
D34*
%TO.C,U4*%
X20555000Y-26080000D03*
X20555000Y-24810000D03*
X20555000Y-23540000D03*
X20555000Y-22270000D03*
X25505000Y-22270000D03*
X25505000Y-23540000D03*
X25505000Y-24810000D03*
X25505000Y-26080000D03*
D35*
X23030000Y-24175000D03*
%TD*%
D25*
%TO.C,C8*%
X37600000Y-21770000D03*
X37600000Y-19870000D03*
%TD*%
D28*
%TO.C,R3*%
X33725000Y-50650000D03*
X31900000Y-50650000D03*
%TD*%
D29*
%TO.C,R10*%
X40200000Y-21712500D03*
X40200000Y-19887500D03*
%TD*%
D27*
%TO.C,C3*%
X47050000Y-25150000D03*
X48950000Y-25150000D03*
%TD*%
%TO.C,C6*%
X22587500Y-35925000D03*
X24487500Y-35925000D03*
%TD*%
D36*
%TO.C,C4*%
X30525000Y-27500000D03*
X30525000Y-29400000D03*
%TD*%
D24*
%TO.C,RX*%
X34899600Y-33807400D03*
%TD*%
M02*
