%TF.GenerationSoftware,KiCad,Pcbnew,9.0.6*%
%TF.CreationDate,2025-12-18T05:42:00-08:00*%
%TF.ProjectId,bramble,6272616d-626c-4652-9e6b-696361645f70,rev?*%
%TF.SameCoordinates,Original*%
%TF.FileFunction,Copper,L1,Top*%
%TF.FilePolarity,Positive*%
%FSLAX46Y46*%
G04 Gerber Fmt 4.6, Leading zero omitted, Abs format (unit mm)*
G04 Created by KiCad (PCBNEW 9.0.6) date 2025-12-18 05:42:00*
%MOMM*%
%LPD*%
G01*
G04 APERTURE LIST*
G04 Aperture macros list*
%AMRoundRect*
0 Rectangle with rounded corners*
0 $1 Rounding radius*
0 $2 $3 $4 $5 $6 $7 $8 $9 X,Y pos of 4 corners*
0 Add a 4 corners polygon primitive as box body*
4,1,4,$2,$3,$4,$5,$6,$7,$8,$9,$2,$3,0*
0 Add four circle primitives for the rounded corners*
1,1,$1+$1,$2,$3*
1,1,$1+$1,$4,$5*
1,1,$1+$1,$6,$7*
1,1,$1+$1,$8,$9*
0 Add four rect primitives between the rounded corners*
20,1,$1+$1,$2,$3,$4,$5,0*
20,1,$1+$1,$4,$5,$6,$7,0*
20,1,$1+$1,$6,$7,$8,$9,0*
20,1,$1+$1,$8,$9,$2,$3,0*%
%AMFreePoly0*
4,1,225,0.443481,0.567403,0.447996,0.566500,0.453500,0.566500,0.454481,0.566403,0.464481,0.564403,0.465357,0.564142,0.480357,0.558142,0.480736,0.557972,0.484552,0.556064,0.489357,0.554142,0.490500,0.553500,0.494298,0.550651,0.499072,0.547787,0.499500,0.547500,0.503500,0.544500,0.504036,0.544036,0.507788,0.540284,0.511500,0.537500,0.512500,0.536500,0.515284,0.532788,
0.519036,0.529036,0.519500,0.528500,0.522500,0.524500,0.522787,0.524072,0.525651,0.519298,0.528500,0.515500,0.529142,0.514357,0.531064,0.509552,0.532972,0.505736,0.533142,0.505357,0.539142,0.490357,0.539403,0.489481,0.541403,0.479481,0.541500,0.478500,0.541500,0.472996,0.542403,0.468481,0.542500,0.467500,0.542500,-0.517500,0.542403,-0.518481,0.541500,-0.522996,
0.541500,-0.528500,0.541403,-0.529481,0.539403,-0.539481,0.539142,-0.540357,0.533142,-0.555357,0.532972,-0.555736,0.531064,-0.559552,0.529142,-0.564357,0.528500,-0.565500,0.525651,-0.569298,0.522787,-0.574072,0.522500,-0.574500,0.519500,-0.578500,0.519036,-0.579036,0.515284,-0.582788,0.512500,-0.586500,0.511500,-0.587500,0.507788,-0.590284,0.504036,-0.594036,0.503500,-0.594500,
0.499500,-0.597500,0.499072,-0.597787,0.494298,-0.600651,0.490500,-0.603500,0.489357,-0.604142,0.484552,-0.606064,0.480736,-0.607972,0.480357,-0.608142,0.465357,-0.614142,0.464481,-0.614403,0.454481,-0.616403,0.453500,-0.616500,0.447996,-0.616500,0.443481,-0.617403,0.442500,-0.617500,-1.012500,-0.617500,-1.013481,-0.617403,-1.017996,-0.616500,-1.023500,-0.616500,-1.024481,-0.616403,
-1.034481,-0.614403,-1.035357,-0.614142,-1.050357,-0.608142,-1.050736,-0.607972,-1.054552,-0.606064,-1.059357,-0.604142,-1.060500,-0.603500,-1.064298,-0.600651,-1.069072,-0.597787,-1.069500,-0.597500,-1.073500,-0.594500,-1.074036,-0.594036,-1.077788,-0.590284,-1.081500,-0.587500,-1.082500,-0.586500,-1.085284,-0.582788,-1.089036,-0.579036,-1.089500,-0.578500,-1.092500,-0.574500,-1.092787,-0.574072,
-1.095651,-0.569298,-1.098500,-0.565500,-1.099142,-0.564357,-1.101064,-0.559552,-1.102972,-0.555736,-1.103142,-0.555357,-1.109142,-0.540357,-1.109403,-0.539481,-1.111403,-0.529481,-1.111500,-0.528500,-1.111500,-0.522996,-1.112403,-0.518481,-1.112500,-0.517500,-1.112500,-0.187500,-1.112403,-0.186519,-1.111500,-0.182004,-1.111500,-0.176500,-1.111403,-0.175519,-1.109403,-0.165519,-1.109142,-0.164643,
-1.103142,-0.149643,-1.102972,-0.149264,-1.101064,-0.145448,-1.099142,-0.140643,-1.098500,-0.139500,-1.095651,-0.135701,-1.092787,-0.130928,-1.092500,-0.130500,-1.089500,-0.126500,-1.089036,-0.125964,-1.085284,-0.122212,-1.082500,-0.118500,-1.081500,-0.117500,-1.077788,-0.114716,-1.074036,-0.110964,-1.073500,-0.110500,-1.069500,-0.107500,-1.069072,-0.107213,-1.064298,-0.104349,-1.060500,-0.101500,
-1.059357,-0.100858,-1.054552,-0.098936,-1.050736,-0.097028,-1.050357,-0.096858,-1.035357,-0.090858,-1.034481,-0.090597,-1.024481,-0.088597,-1.023500,-0.088500,-1.017996,-0.088500,-1.013481,-0.087597,-1.012500,-0.087500,-0.899915,-0.087500,-0.897500,-0.086500,-0.894680,-0.086500,-0.893736,-0.086028,-0.892466,-0.085728,-0.890546,-0.084933,-0.888736,-0.084028,-0.887466,-0.083728,-0.886329,-0.083257,
-0.886036,-0.082964,-0.882622,-0.081550,-0.882036,-0.080964,-0.880329,-0.080257,-0.877036,-0.076964,-0.875329,-0.076257,-0.874035,-0.074964,-0.556036,0.244036,-0.553742,0.246329,-0.553036,0.248036,-0.550742,0.250329,-0.550036,0.252036,-0.547742,0.254329,-0.547500,0.254915,-0.547500,0.255500,-0.546036,0.259036,-0.545742,0.259329,-0.545271,0.260466,-0.544972,0.261736,-0.544500,0.262680,
-0.544500,0.263500,-0.543500,0.265915,-0.543500,0.268500,-0.542972,0.270736,-0.542500,0.271680,-0.542500,0.467500,-0.542403,0.468481,-0.541500,0.472996,-0.541500,0.478500,-0.541403,0.479481,-0.539403,0.489481,-0.539142,0.490357,-0.533142,0.505357,-0.532972,0.505736,-0.531064,0.509552,-0.529142,0.514357,-0.528500,0.515500,-0.525651,0.519298,-0.522787,0.524072,-0.522500,0.524500,
-0.519500,0.528500,-0.519036,0.529036,-0.515284,0.532788,-0.512500,0.536500,-0.511500,0.537500,-0.507788,0.540284,-0.504036,0.544036,-0.503500,0.544500,-0.499500,0.547500,-0.499072,0.547787,-0.494298,0.550651,-0.490500,0.553500,-0.489357,0.554142,-0.484552,0.556064,-0.480736,0.557972,-0.480357,0.558142,-0.465357,0.564142,-0.464481,0.564403,-0.454481,0.566403,-0.453500,0.566500,
-0.447996,0.566500,-0.443481,0.567403,-0.442500,0.567500,0.442500,0.567500,0.443481,0.567403,0.443481,0.567403,$1*%
%AMFreePoly1*
4,1,153,1.105981,0.379903,1.110496,0.379000,1.116000,0.379000,1.116981,0.378903,1.126981,0.376903,1.127857,0.376642,1.142857,0.370642,1.143236,0.370472,1.147052,0.368564,1.151857,0.366642,1.153000,0.366000,1.156798,0.363151,1.161572,0.360287,1.162000,0.360000,1.166000,0.357000,1.166536,0.356536,1.170288,0.352784,1.174000,0.350000,1.175000,0.349000,1.177784,0.345288,
1.181536,0.341536,1.182000,0.341000,1.185000,0.337000,1.185287,0.336572,1.188151,0.331798,1.191000,0.328000,1.191642,0.326857,1.193564,0.322052,1.195472,0.318236,1.195642,0.317857,1.201642,0.302857,1.201903,0.301981,1.203903,0.291981,1.204000,0.291000,1.204000,0.285496,1.204903,0.280981,1.205000,0.280000,1.205000,-1.830000,1.204903,-1.830981,1.204000,-1.835496,
1.204000,-1.841000,1.203903,-1.841981,1.201903,-1.851981,1.201642,-1.852857,1.195642,-1.867857,1.195472,-1.868236,1.193564,-1.872052,1.191642,-1.876857,1.191000,-1.878000,1.188151,-1.881798,1.185287,-1.886572,1.185000,-1.887000,1.182000,-1.891000,1.181536,-1.891536,1.177784,-1.895288,1.175000,-1.899000,1.174000,-1.900000,1.170288,-1.902784,1.166536,-1.906536,1.166000,-1.907000,
1.162000,-1.910000,1.161572,-1.910287,1.156798,-1.913151,1.153000,-1.916000,1.151857,-1.916642,1.147052,-1.918564,1.143236,-1.920472,1.142857,-1.920642,1.127857,-1.926642,1.126981,-1.926903,1.116981,-1.928903,1.116000,-1.929000,1.110496,-1.929000,1.105981,-1.929903,1.105000,-1.930000,-0.205000,-1.930000,-0.205981,-1.929903,-0.210496,-1.929000,-0.216000,-1.929000,-0.216981,-1.928903,
-0.226981,-1.926903,-0.227857,-1.926642,-0.242857,-1.920642,-0.243236,-1.920472,-0.247052,-1.918564,-0.251857,-1.916642,-0.253000,-1.916000,-0.256798,-1.913151,-0.261572,-1.910287,-0.262000,-1.910000,-0.266000,-1.907000,-0.266536,-1.906536,-0.270288,-1.902784,-0.274000,-1.900000,-0.275000,-1.899000,-0.277784,-1.895288,-0.281536,-1.891536,-0.282000,-1.891000,-0.285000,-1.887000,-0.285287,-1.886572,
-0.288151,-1.881798,-0.291000,-1.878000,-0.291642,-1.876857,-0.293564,-1.872052,-0.295472,-1.868236,-0.295642,-1.867857,-0.301642,-1.852857,-0.301903,-1.851981,-0.303903,-1.841981,-0.304000,-1.841000,-0.304000,-1.835496,-0.304903,-1.830981,-0.305000,-1.830000,-0.305000,0.280000,-0.304903,0.280981,-0.304000,0.285496,-0.304000,0.291000,-0.303903,0.291981,-0.301903,0.301981,-0.301642,0.302857,
-0.295642,0.317857,-0.295472,0.318236,-0.293564,0.322052,-0.291642,0.326857,-0.291000,0.328000,-0.288151,0.331798,-0.285287,0.336572,-0.285000,0.337000,-0.282000,0.341000,-0.281536,0.341536,-0.277784,0.345288,-0.275000,0.349000,-0.274000,0.350000,-0.270288,0.352784,-0.266536,0.356536,-0.266000,0.357000,-0.262000,0.360000,-0.261572,0.360287,-0.256798,0.363151,-0.253000,0.366000,
-0.251857,0.366642,-0.247052,0.368564,-0.243236,0.370472,-0.242857,0.370642,-0.227857,0.376642,-0.226981,0.376903,-0.216981,0.378903,-0.216000,0.379000,-0.210496,0.379000,-0.205981,0.379903,-0.205000,0.380000,1.105000,0.380000,1.105981,0.379903,1.105981,0.379903,$1*%
%AMFreePoly2*
4,1,225,0.443481,0.567403,0.447996,0.566500,0.453500,0.566500,0.454481,0.566403,0.464481,0.564403,0.465357,0.564142,0.480357,0.558142,0.480736,0.557972,0.484552,0.556064,0.489357,0.554142,0.490500,0.553500,0.494298,0.550651,0.499072,0.547787,0.499500,0.547500,0.503500,0.544500,0.504036,0.544036,0.507788,0.540284,0.511500,0.537500,0.512500,0.536500,0.515284,0.532788,
0.519036,0.529036,0.519500,0.528500,0.522500,0.524500,0.522787,0.524072,0.525651,0.519298,0.528500,0.515500,0.529142,0.514357,0.531064,0.509552,0.532972,0.505736,0.533142,0.505357,0.539142,0.490357,0.539403,0.489481,0.541403,0.479481,0.541500,0.478500,0.541500,0.472996,0.542403,0.468481,0.542500,0.467500,0.542500,0.271680,0.542972,0.270736,0.543500,0.268500,
0.543500,0.265915,0.544500,0.263500,0.544500,0.262680,0.544972,0.261736,0.545271,0.260466,0.545742,0.259329,0.546036,0.259036,0.547500,0.255500,0.547500,0.254915,0.547742,0.254329,0.550036,0.252036,0.550742,0.250329,0.553036,0.248036,0.553742,0.246329,0.556036,0.244036,0.874035,-0.074964,0.875329,-0.076257,0.877036,-0.076964,0.880329,-0.080257,0.882036,-0.080964,
0.882622,-0.081550,0.886036,-0.082964,0.886329,-0.083257,0.887466,-0.083728,0.888736,-0.084028,0.890546,-0.084933,0.892466,-0.085728,0.893736,-0.086028,0.894680,-0.086500,0.897500,-0.086500,0.899915,-0.087500,1.012500,-0.087500,1.013481,-0.087597,1.017996,-0.088500,1.023500,-0.088500,1.024481,-0.088597,1.034481,-0.090597,1.035357,-0.090858,1.050357,-0.096858,1.050736,-0.097028,
1.054552,-0.098936,1.059357,-0.100858,1.060500,-0.101500,1.064298,-0.104349,1.069072,-0.107213,1.069500,-0.107500,1.073500,-0.110500,1.074036,-0.110964,1.077788,-0.114716,1.081500,-0.117500,1.082500,-0.118500,1.085284,-0.122212,1.089036,-0.125964,1.089500,-0.126500,1.092500,-0.130500,1.092787,-0.130928,1.095651,-0.135701,1.098500,-0.139500,1.099142,-0.140643,1.101064,-0.145448,
1.102972,-0.149264,1.103142,-0.149643,1.109142,-0.164643,1.109403,-0.165519,1.111403,-0.175519,1.111500,-0.176500,1.111500,-0.182004,1.112403,-0.186519,1.112500,-0.187500,1.112500,-0.517500,1.112403,-0.518481,1.111500,-0.522996,1.111500,-0.528500,1.111403,-0.529481,1.109403,-0.539481,1.109142,-0.540357,1.103142,-0.555357,1.102972,-0.555736,1.101064,-0.559552,1.099142,-0.564357,
1.098500,-0.565500,1.095651,-0.569298,1.092787,-0.574072,1.092500,-0.574500,1.089500,-0.578500,1.089036,-0.579036,1.085284,-0.582788,1.082500,-0.586500,1.081500,-0.587500,1.077788,-0.590284,1.074036,-0.594036,1.073500,-0.594500,1.069500,-0.597500,1.069072,-0.597787,1.064298,-0.600651,1.060500,-0.603500,1.059357,-0.604142,1.054552,-0.606064,1.050736,-0.607972,1.050357,-0.608142,
1.035357,-0.614142,1.034481,-0.614403,1.024481,-0.616403,1.023500,-0.616500,1.017996,-0.616500,1.013481,-0.617403,1.012500,-0.617500,-0.442500,-0.617500,-0.443481,-0.617403,-0.447996,-0.616500,-0.453500,-0.616500,-0.454481,-0.616403,-0.464481,-0.614403,-0.465357,-0.614142,-0.480357,-0.608142,-0.480736,-0.607972,-0.484552,-0.606064,-0.489357,-0.604142,-0.490500,-0.603500,-0.494298,-0.600651,
-0.499072,-0.597787,-0.499500,-0.597500,-0.503500,-0.594500,-0.504036,-0.594036,-0.507788,-0.590284,-0.511500,-0.587500,-0.512500,-0.586500,-0.515284,-0.582788,-0.519036,-0.579036,-0.519500,-0.578500,-0.522500,-0.574500,-0.522787,-0.574072,-0.525651,-0.569298,-0.528500,-0.565500,-0.529142,-0.564357,-0.531064,-0.559552,-0.532972,-0.555736,-0.533142,-0.555357,-0.539142,-0.540357,-0.539403,-0.539481,
-0.541403,-0.529481,-0.541500,-0.528500,-0.541500,-0.522996,-0.542403,-0.518481,-0.542500,-0.517500,-0.542500,0.467500,-0.542403,0.468481,-0.541500,0.472996,-0.541500,0.478500,-0.541403,0.479481,-0.539403,0.489481,-0.539142,0.490357,-0.533142,0.505357,-0.532972,0.505736,-0.531064,0.509552,-0.529142,0.514357,-0.528500,0.515500,-0.525651,0.519298,-0.522787,0.524072,-0.522500,0.524500,
-0.519500,0.528500,-0.519036,0.529036,-0.515284,0.532788,-0.512500,0.536500,-0.511500,0.537500,-0.507788,0.540284,-0.504036,0.544036,-0.503500,0.544500,-0.499500,0.547500,-0.499072,0.547787,-0.494298,0.550651,-0.490500,0.553500,-0.489357,0.554142,-0.484552,0.556064,-0.480736,0.557972,-0.480357,0.558142,-0.465357,0.564142,-0.464481,0.564403,-0.454481,0.566403,-0.453500,0.566500,
-0.447996,0.566500,-0.443481,0.567403,-0.442500,0.567500,0.442500,0.567500,0.443481,0.567403,0.443481,0.567403,$1*%
G04 Aperture macros list end*
%TA.AperFunction,SMDPad,CuDef*%
%ADD10R,0.700000X0.700000*%
%TD*%
%TA.AperFunction,SMDPad,CuDef*%
%ADD11RoundRect,0.250000X0.250000X0.475000X-0.250000X0.475000X-0.250000X-0.475000X0.250000X-0.475000X0*%
%TD*%
%TA.AperFunction,SMDPad,CuDef*%
%ADD12RoundRect,0.250000X-0.475000X0.250000X-0.475000X-0.250000X0.475000X-0.250000X0.475000X0.250000X0*%
%TD*%
%TA.AperFunction,SMDPad,CuDef*%
%ADD13R,0.600000X1.500000*%
%TD*%
%TA.AperFunction,SMDPad,CuDef*%
%ADD14RoundRect,0.250000X0.475000X-0.250000X0.475000X0.250000X-0.475000X0.250000X-0.475000X-0.250000X0*%
%TD*%
%TA.AperFunction,ComponentPad*%
%ADD15C,5.000000*%
%TD*%
%TA.AperFunction,SMDPad,CuDef*%
%ADD16RoundRect,0.317500X0.317500X-1.157500X0.317500X1.157500X-0.317500X1.157500X-0.317500X-1.157500X0*%
%TD*%
%TA.AperFunction,ComponentPad*%
%ADD17C,0.600000*%
%TD*%
%TA.AperFunction,SMDPad,CuDef*%
%ADD18RoundRect,0.144000X-1.456000X1.456000X-1.456000X-1.456000X1.456000X-1.456000X1.456000X1.456000X0*%
%TD*%
%TA.AperFunction,SMDPad,CuDef*%
%ADD19RoundRect,0.050000X-0.387500X0.050000X-0.387500X-0.050000X0.387500X-0.050000X0.387500X0.050000X0*%
%TD*%
%TA.AperFunction,SMDPad,CuDef*%
%ADD20RoundRect,0.050000X-0.050000X0.387500X-0.050000X-0.387500X0.050000X-0.387500X0.050000X0.387500X0*%
%TD*%
%TA.AperFunction,ComponentPad*%
%ADD21O,1.700000X1.950000*%
%TD*%
%TA.AperFunction,ComponentPad*%
%ADD22RoundRect,0.250000X0.600000X0.725000X-0.600000X0.725000X-0.600000X-0.725000X0.600000X-0.725000X0*%
%TD*%
%TA.AperFunction,SMDPad,CuDef*%
%ADD23RoundRect,0.250000X-0.262500X-0.450000X0.262500X-0.450000X0.262500X0.450000X-0.262500X0.450000X0*%
%TD*%
%TA.AperFunction,SMDPad,CuDef*%
%ADD24RoundRect,0.055000X-0.245000X0.055000X-0.245000X-0.055000X0.245000X-0.055000X0.245000X0.055000X0*%
%TD*%
%TA.AperFunction,SMDPad,CuDef*%
%ADD25FreePoly0,270.000000*%
%TD*%
%TA.AperFunction,ComponentPad*%
%ADD26C,0.450000*%
%TD*%
%TA.AperFunction,SMDPad,CuDef*%
%ADD27R,0.500000X0.500000*%
%TD*%
%TA.AperFunction,ComponentPad*%
%ADD28FreePoly1,270.000000*%
%TD*%
%TA.AperFunction,SMDPad,CuDef*%
%ADD29FreePoly2,270.000000*%
%TD*%
%TA.AperFunction,ComponentPad*%
%ADD30C,1.800000*%
%TD*%
%TA.AperFunction,ComponentPad*%
%ADD31R,1.800000X1.800000*%
%TD*%
%TA.AperFunction,ComponentPad*%
%ADD32C,1.700000*%
%TD*%
%TA.AperFunction,ComponentPad*%
%ADD33R,1.700000X1.700000*%
%TD*%
%TA.AperFunction,SMDPad,CuDef*%
%ADD34RoundRect,0.250000X0.475000X0.250000X-0.475000X0.250000X-0.475000X-0.250000X0.475000X-0.250000X0*%
%TD*%
%TA.AperFunction,SMDPad,CuDef*%
%ADD35RoundRect,0.250000X0.840000X0.750000X-0.840000X0.750000X-0.840000X-0.750000X0.840000X-0.750000X0*%
%TD*%
%TA.AperFunction,SMDPad,CuDef*%
%ADD36RoundRect,0.150000X0.150000X0.425000X-0.150000X0.425000X-0.150000X-0.425000X0.150000X-0.425000X0*%
%TD*%
%TA.AperFunction,SMDPad,CuDef*%
%ADD37RoundRect,0.075000X0.075000X0.500000X-0.075000X0.500000X-0.075000X-0.500000X0.075000X-0.500000X0*%
%TD*%
%TA.AperFunction,SMDPad,CuDef*%
%ADD38RoundRect,0.250000X-0.250000X-0.475000X0.250000X-0.475000X0.250000X0.475000X-0.250000X0.475000X0*%
%TD*%
%TA.AperFunction,SMDPad,CuDef*%
%ADD39RoundRect,0.105000X0.995000X-0.420000X0.995000X0.420000X-0.995000X0.420000X-0.995000X-0.420000X0*%
%TD*%
%TA.AperFunction,SMDPad,CuDef*%
%ADD40RoundRect,0.100000X0.400000X-0.400000X0.400000X0.400000X-0.400000X0.400000X-0.400000X-0.400000X0*%
%TD*%
%TA.AperFunction,SMDPad,CuDef*%
%ADD41RoundRect,0.150000X-0.150000X0.587500X-0.150000X-0.587500X0.150000X-0.587500X0.150000X0.587500X0*%
%TD*%
%TA.AperFunction,SMDPad,CuDef*%
%ADD42RoundRect,0.250000X-0.450000X0.262500X-0.450000X-0.262500X0.450000X-0.262500X0.450000X0.262500X0*%
%TD*%
%TA.AperFunction,SMDPad,CuDef*%
%ADD43RoundRect,0.250000X0.450000X-0.262500X0.450000X0.262500X-0.450000X0.262500X-0.450000X-0.262500X0*%
%TD*%
%TA.AperFunction,SMDPad,CuDef*%
%ADD44RoundRect,0.162500X0.650000X0.162500X-0.650000X0.162500X-0.650000X-0.162500X0.650000X-0.162500X0*%
%TD*%
%TA.AperFunction,ComponentPad*%
%ADD45O,1.950000X1.700000*%
%TD*%
%TA.AperFunction,ComponentPad*%
%ADD46RoundRect,0.250000X0.725000X-0.600000X0.725000X0.600000X-0.725000X0.600000X-0.725000X-0.600000X0*%
%TD*%
%TA.AperFunction,SMDPad,CuDef*%
%ADD47RoundRect,0.250000X0.262500X0.450000X-0.262500X0.450000X-0.262500X-0.450000X0.262500X-0.450000X0*%
%TD*%
%TA.AperFunction,SMDPad,CuDef*%
%ADD48RoundRect,0.250000X-0.475000X-0.250000X0.475000X-0.250000X0.475000X0.250000X-0.475000X0.250000X0*%
%TD*%
%TA.AperFunction,ComponentPad*%
%ADD49C,2.400000*%
%TD*%
%TA.AperFunction,SMDPad,CuDef*%
%ADD50RoundRect,0.150000X0.587500X0.150000X-0.587500X0.150000X-0.587500X-0.150000X0.587500X-0.150000X0*%
%TD*%
%TA.AperFunction,SMDPad,CuDef*%
%ADD51RoundRect,0.225000X-0.225000X-0.375000X0.225000X-0.375000X0.225000X0.375000X-0.225000X0.375000X0*%
%TD*%
%TA.AperFunction,ViaPad*%
%ADD52C,0.600000*%
%TD*%
%TA.AperFunction,ViaPad*%
%ADD53C,0.800000*%
%TD*%
%TA.AperFunction,Conductor*%
%ADD54C,0.200000*%
%TD*%
%TA.AperFunction,Conductor*%
%ADD55C,0.400000*%
%TD*%
%TA.AperFunction,Conductor*%
%ADD56C,0.500000*%
%TD*%
%TA.AperFunction,Conductor*%
%ADD57C,0.800000*%
%TD*%
%TA.AperFunction,Conductor*%
%ADD58C,0.900000*%
%TD*%
%TA.AperFunction,Conductor*%
%ADD59C,1.500000*%
%TD*%
G04 APERTURE END LIST*
D10*
%TO.P,LED1,4,VDD*%
%TO.N,+3V3*%
X25100000Y-16250000D03*
%TO.P,LED1,3,DIN*%
%TO.N,/rp2040/RGB_LED*%
X25100000Y-17350000D03*
%TO.P,LED1,2,VSS*%
%TO.N,GND*%
X23270000Y-17350000D03*
%TO.P,LED1,1,DOUT*%
%TO.N,unconnected-(RPI_STATUS1-DOUT-Pad1)*%
X23270000Y-16250000D03*
%TD*%
D11*
%TO.P,C12,2,2*%
%TO.N,GND*%
X14150000Y-44708000D03*
%TO.P,C12,1,1*%
%TO.N,1.2V*%
X16050000Y-44708000D03*
%TD*%
D12*
%TO.P,C17,2,2*%
%TO.N,GND*%
X29400000Y-50752500D03*
%TO.P,C17,1,1*%
%TO.N,+3V3*%
X29400000Y-48852500D03*
%TD*%
D13*
%TO.P,U6,16,C*%
%TO.N,/rp2040/SCK*%
X14660000Y-21600000D03*
%TO.P,U6,15,DQ0*%
%TO.N,/rp2040/MOSI*%
X15930000Y-21600000D03*
%TO.P,U6,14,DNU*%
%TO.N,unconnected-(U6-DNU-Pad14)*%
X17200000Y-21600000D03*
%TO.P,U6,11,DNU*%
%TO.N,unconnected-(U6-DNU-Pad11)*%
X21010000Y-21600000D03*
%TO.P,U6,10,VSS*%
%TO.N,GND*%
X22280000Y-21600000D03*
%TO.P,U6,9,W#/DQ2*%
%TO.N,unconnected-(U6-W#{slash}DQ2-Pad9)*%
X23550000Y-21600000D03*
%TO.P,U6,8,DQ1*%
%TO.N,/rp2040/MISO*%
X23550000Y-30900000D03*
%TO.P,U6,7,S#*%
%TO.N,/rp2040/MT25_CS*%
X22280000Y-30900000D03*
%TO.P,U6,6,DNU*%
%TO.N,unconnected-(U6-DNU-Pad6)*%
X21010000Y-30900000D03*
%TO.P,U6,3,RESET#*%
%TO.N,/rp2040/MT25_RESET*%
X17200000Y-30900000D03*
%TO.P,U6,2,VCC*%
%TO.N,+3V3*%
X15930000Y-30900000D03*
%TO.P,U6,1,DQ3/HOLD#*%
%TO.N,unconnected-(U6-DQ3{slash}HOLD#-Pad1)*%
X14660000Y-30900000D03*
%TD*%
D14*
%TO.P,C20,2,2*%
%TO.N,GND*%
X22200000Y-32750000D03*
%TO.P,C20,1,1*%
%TO.N,+3V3*%
X22200000Y-34650000D03*
%TD*%
D11*
%TO.P,R4,2*%
%TO.N,Net-(Q2-G)*%
X52400000Y-24350000D03*
%TO.P,R4,1*%
%TO.N,+9V*%
X54300000Y-24350000D03*
%TD*%
D15*
%TO.P,U$3,1*%
%TO.N,N/C*%
X56750000Y-17000000D03*
%TD*%
D16*
%TO.P,U4,16,DIO2*%
%TO.N,/rp2040/RFM_IO2*%
X29000000Y-57725000D03*
%TO.P,U4,15,DIO1*%
%TO.N,/rp2040/RFM_IO1*%
X31000000Y-57725000D03*
%TO.P,U4,14,DIO0*%
%TO.N,/rp2040/RFM_IO0*%
X33000000Y-57725000D03*
%TO.P,U4,13,3.3V*%
%TO.N,+3V3*%
X35000000Y-57725000D03*
%TO.P,U4,12,DIO4*%
%TO.N,/rp2040/RFM_IO4*%
X37000000Y-57725000D03*
%TO.P,U4,11,DIO3*%
%TO.N,/rp2040/RFM_IO3*%
X39000000Y-57725000D03*
%TO.P,U4,10,GND*%
%TO.N,GND*%
X41000000Y-57725000D03*
%TO.P,U4,9,ANT*%
%TO.N,Net-(J5-In)*%
X43000000Y-57725000D03*
%TO.P,U4,8,GND*%
%TO.N,GND*%
X43000000Y-72775000D03*
%TO.P,U4,7,DIO5*%
%TO.N,/rp2040/RFM_IO5*%
X41000000Y-72775000D03*
%TO.P,U4,6,RESET*%
%TO.N,/rp2040/RFM_RST*%
X39000000Y-72775000D03*
%TO.P,U4,5,NSS*%
%TO.N,/rp2040/RFM_CS*%
X37000000Y-72775000D03*
%TO.P,U4,4,SCK*%
%TO.N,/rp2040/SCK*%
X35000000Y-72775000D03*
%TO.P,U4,3,MOSI*%
%TO.N,/rp2040/MOSI*%
X33000000Y-72775000D03*
%TO.P,U4,2,MISO*%
%TO.N,/rp2040/MISO*%
X31000000Y-72775000D03*
%TO.P,U4,1,GND*%
%TO.N,GND*%
X29000000Y-72775000D03*
%TD*%
D15*
%TO.P,U$2,1*%
%TO.N,N/C*%
X16750000Y-79500000D03*
%TD*%
D17*
%TO.P,IC1,57,GND*%
%TO.N,GND*%
X23125000Y-42400000D03*
X24400000Y-42400000D03*
X25675000Y-42400000D03*
X23125000Y-41125000D03*
D18*
X24400000Y-41125000D03*
D17*
X24400000Y-41125000D03*
X25675000Y-41125000D03*
X23125000Y-39850000D03*
X24400000Y-39850000D03*
X25675000Y-39850000D03*
D19*
%TO.P,IC1,56,~{QSPI_CS}*%
%TO.N,/rp2040/QSPI_CS*%
X27837500Y-38525000D03*
%TO.P,IC1,55,QSPI_SD1*%
%TO.N,/rp2040/QSPI_D1*%
X27837500Y-38925000D03*
%TO.P,IC1,54,QSPI_SD2*%
%TO.N,/rp2040/QSPI_D2*%
X27837500Y-39325000D03*
%TO.P,IC1,53,QSPI_SD0*%
%TO.N,/rp2040/QSPI_D0*%
X27837500Y-39725000D03*
%TO.P,IC1,52,QSPI_SCLK*%
%TO.N,/rp2040/QSPI_SCK*%
X27837500Y-40125000D03*
%TO.P,IC1,51,QSPI_SD3*%
%TO.N,/rp2040/QSPI_D3*%
X27837500Y-40525000D03*
%TO.P,IC1,50,DVDD*%
%TO.N,1.2V*%
X27837500Y-40925000D03*
%TO.P,IC1,49,IOVDD*%
%TO.N,+3V3*%
X27837500Y-41325000D03*
%TO.P,IC1,48,USB_IOVDD*%
X27837500Y-41725000D03*
%TO.P,IC1,47,USB_D+*%
%TO.N,/rp2040/D-*%
X27837500Y-42125000D03*
%TO.P,IC1,46,USB_D-*%
%TO.N,/rp2040/D+*%
X27837500Y-42525000D03*
%TO.P,IC1,45,VREG_VOUT*%
%TO.N,1.2V*%
X27837500Y-42925000D03*
%TO.P,IC1,44,VREG_IOVDD*%
%TO.N,+3V3*%
X27837500Y-43325000D03*
%TO.P,IC1,43,ADC_IOVDD*%
X27837500Y-43725000D03*
D20*
%TO.P,IC1,42,IOVDD*%
X27000000Y-44562500D03*
%TO.P,IC1,41,GPIO29/AD3*%
%TO.N,/rp2040/VALVE_1*%
X26600000Y-44562500D03*
%TO.P,IC1,40,GPIO28/AD2*%
%TO.N,/rp2040/VALVE_2*%
X26200000Y-44562500D03*
%TO.P,IC1,39,GPIO27/AD1*%
%TO.N,/rp2040/MOTOR_LO_2*%
X25800000Y-44562500D03*
%TO.P,IC1,38,GPIO26/AD0*%
%TO.N,/rp2040/MOTOR_LO_1*%
X25400000Y-44562500D03*
%TO.P,IC1,37,GPIO25*%
%TO.N,/rp2040/MOTOR_HI_2*%
X25000000Y-44562500D03*
%TO.P,IC1,36,GPIO24*%
%TO.N,/rp2040/MOTOR_HI_1*%
X24600000Y-44562500D03*
%TO.P,IC1,35,GPIO23*%
%TO.N,/rp2040/RFM_IO2*%
X24200000Y-44562500D03*
%TO.P,IC1,34,GPIO22*%
%TO.N,/rp2040/RFM_IO1*%
X23800000Y-44562500D03*
%TO.P,IC1,33,IOVDD*%
%TO.N,+3V3*%
X23400000Y-44562500D03*
%TO.P,IC1,32,GPIO21*%
%TO.N,/rp2040/RFM_IO0*%
X23000000Y-44562500D03*
%TO.P,IC1,31,GPIO20*%
%TO.N,/rp2040/RFM_IO4*%
X22600000Y-44562500D03*
%TO.P,IC1,30,GPIO19*%
%TO.N,/rp2040/RFM_IO3*%
X22200000Y-44562500D03*
%TO.P,IC1,29,GPIO18*%
%TO.N,/rp2040/RFM_IO5*%
X21800000Y-44562500D03*
D19*
%TO.P,IC1,28,GPIO17*%
%TO.N,/rp2040/RFM_RST*%
X20962500Y-43725000D03*
%TO.P,IC1,27,GPIO16*%
%TO.N,/rp2040/RFM_CS*%
X20962500Y-43325000D03*
%TO.P,IC1,26,/RUN*%
%TO.N,/rp2040/~{RESET}*%
X20962500Y-42925000D03*
%TO.P,IC1,25,SWDIO*%
%TO.N,/rp2040/SWDIO*%
X20962500Y-42525000D03*
%TO.P,IC1,24,SWCLK*%
%TO.N,/rp2040/SWCLK*%
X20962500Y-42125000D03*
%TO.P,IC1,23,DVDD*%
%TO.N,1.2V*%
X20962500Y-41725000D03*
%TO.P,IC1,22,IOVDD*%
%TO.N,+3V3*%
X20962500Y-41325000D03*
%TO.P,IC1,21,XOUT*%
%TO.N,Net-(IC1-XOUT)*%
X20962500Y-40925000D03*
%TO.P,IC1,20,XIN*%
%TO.N,Net-(IC1-XIN)*%
X20962500Y-40525000D03*
%TO.P,IC1,19,TESTEN*%
%TO.N,GND*%
X20962500Y-40125000D03*
%TO.P,IC1,18,GPIO15*%
%TO.N,/rp2040/MOSI*%
X20962500Y-39725000D03*
%TO.P,IC1,17,GPIO14*%
%TO.N,/rp2040/SCK*%
X20962500Y-39325000D03*
%TO.P,IC1,16,GPIO13*%
%TO.N,/rp2040/VALVE_3*%
X20962500Y-38925000D03*
%TO.P,IC1,15,GPIO12*%
%TO.N,/rp2040/VALVE_4*%
X20962500Y-38525000D03*
D20*
%TO.P,IC1,14,GPIO11*%
%TO.N,unconnected-(IC1-GPIO11-Pad14)*%
X21800000Y-37687500D03*
%TO.P,IC1,13,GPIO10*%
%TO.N,unconnected-(IC1-GPIO10-Pad13)*%
X22200000Y-37687500D03*
%TO.P,IC1,12,GPIO9*%
%TO.N,unconnected-(IC1-GPIO9-Pad12)*%
X22600000Y-37687500D03*
%TO.P,IC1,11,GPIO8*%
%TO.N,/rp2040/MISO*%
X23000000Y-37687500D03*
%TO.P,IC1,10,IOVDD*%
%TO.N,+3V3*%
X23400000Y-37687500D03*
%TO.P,IC1,9,GPIO7*%
%TO.N,/rp2040/MT25_RESET*%
X23800000Y-37687500D03*
%TO.P,IC1,8,GPIO6*%
%TO.N,/rp2040/MT25_CS*%
X24200000Y-37687500D03*
%TO.P,IC1,7,GPIO5*%
%TO.N,unconnected-(IC1-GPIO5-Pad7)*%
X24600000Y-37687500D03*
%TO.P,IC1,6,GPIO4*%
%TO.N,/rp2040/RGB_LED*%
X25000000Y-37687500D03*
%TO.P,IC1,5,GPIO3*%
%TO.N,VBUS*%
X25400000Y-37687500D03*
%TO.P,IC1,4,GPIO2*%
%TO.N,/rp2040/USBBOOT*%
X25800000Y-37687500D03*
%TO.P,IC1,3,GPIO1*%
%TO.N,/rp2040/RX*%
X26200000Y-37687500D03*
%TO.P,IC1,2,GPIO0*%
%TO.N,/rp2040/TX*%
X26600000Y-37687500D03*
%TO.P,IC1,1,IOVDD*%
%TO.N,+3V3*%
X27000000Y-37687500D03*
%TD*%
D21*
%TO.P,J2,3,Pin_3*%
%TO.N,+9V*%
X33900000Y-79700000D03*
%TO.P,J2,2,Pin_2*%
%TO.N,GNDPWR*%
X36400000Y-79700000D03*
D22*
%TO.P,J2,1,Pin_1*%
%TO.N,Net-(J2-Pin_1)*%
X38900000Y-79700000D03*
%TD*%
D23*
%TO.P,R17,2*%
%TO.N,Net-(IC1-XOUT)*%
X16070000Y-38070000D03*
%TO.P,R17,1*%
%TO.N,Net-(C11-Pad2)*%
X14245000Y-38070000D03*
%TD*%
D24*
%TO.P,VR1,7,VOS*%
%TO.N,+3V3*%
X59865000Y-27700000D03*
%TO.P,VR1,6,EN*%
%TO.N,/pmu/3V3_POWER_ON*%
X59865000Y-28200000D03*
%TO.P,VR1,5,PG*%
%TO.N,unconnected-(VR1-PG-Pad5)*%
X59865000Y-28700000D03*
D25*
%TO.P,VR1,4,PGND*%
%TO.N,GND*%
X59302500Y-29562500D03*
D26*
%TO.P,VR1,3,VOUT*%
%TO.N,+3V3*%
X56515000Y-29800000D03*
X57300000Y-29800000D03*
X58065000Y-29800000D03*
D27*
X57290000Y-29350000D03*
D26*
X56515000Y-28900000D03*
X57300000Y-28900000D03*
D28*
X58065000Y-28900000D03*
D26*
%TO.P,VR1,2,SW*%
%TO.N,unconnected-(VR1-SW-Pad2)*%
X56465000Y-27500000D03*
%TO.N,unconnected-(VR1-SW-Pad2)_1*%
X57265000Y-27500000D03*
%TO.N,unconnected-(VR1-SW-Pad2)_5*%
X58065000Y-27500000D03*
D27*
%TO.N,unconnected-(VR1-SW-Pad2)_6*%
X57290000Y-27050000D03*
D26*
%TO.N,unconnected-(VR1-SW-Pad2)_4*%
X56465000Y-26600000D03*
%TO.N,unconnected-(VR1-SW-Pad2)_3*%
X57265000Y-26600000D03*
D28*
%TO.N,unconnected-(VR1-SW-Pad2)_2*%
X58065000Y-26600000D03*
D29*
%TO.P,VR1,1,VIN*%
%TO.N,Net-(Q2-S)*%
X59302500Y-26837500D03*
%TD*%
D30*
%TO.P,D1,3,A2*%
%TO.N,Net-(D1-A2)*%
X57740000Y-40000000D03*
%TO.P,D1,2,K*%
%TO.N,GND*%
X55200000Y-40000000D03*
D31*
%TO.P,D1,1,A1*%
%TO.N,Net-(D1-A1)*%
X52660000Y-40000000D03*
%TD*%
D12*
%TO.P,C18,2,2*%
%TO.N,GND*%
X31550000Y-50750000D03*
%TO.P,C18,1,1*%
%TO.N,+3V3*%
X31550000Y-48850000D03*
%TD*%
D32*
%TO.P,J6,12,Pin_12*%
%TO.N,GND*%
X56450000Y-61410000D03*
%TO.P,J6,11,Pin_11*%
%TO.N,VDD*%
X58990000Y-61410000D03*
%TO.P,J6,10,Pin_10*%
%TO.N,/rp2040/MOTOR_LO_2*%
X56450000Y-63950000D03*
%TO.P,J6,9,Pin_9*%
%TO.N,/rp2040/VALVE_1*%
X58990000Y-63950000D03*
%TO.P,J6,8,Pin_8*%
%TO.N,/rp2040/MOTOR_LO_1*%
X56450000Y-66490000D03*
%TO.P,J6,7,Pin_7*%
%TO.N,/rp2040/VALVE_2*%
X58990000Y-66490000D03*
%TO.P,J6,6,Pin_6*%
%TO.N,/rp2040/MOTOR_HI_2*%
X56450000Y-69030000D03*
%TO.P,J6,5,Pin_5*%
%TO.N,/rp2040/VALVE_4*%
X58990000Y-69030000D03*
%TO.P,J6,4,Pin_4*%
%TO.N,/rp2040/MOTOR_HI_1*%
X56450000Y-71570000D03*
%TO.P,J6,3,Pin_3*%
%TO.N,/rp2040/VALVE_3*%
X58990000Y-71570000D03*
%TO.P,J6,2,Pin_2*%
%TO.N,+3V3*%
X56450000Y-74110000D03*
D33*
%TO.P,J6,1,Pin_1*%
%TO.N,+9V*%
X58990000Y-74110000D03*
%TD*%
D34*
%TO.P,RESET,2,2*%
%TO.N,GND*%
X19025000Y-71650000D03*
X24175000Y-71650000D03*
%TO.P,RESET,1,1*%
%TO.N,/rp2040/~{RESET}*%
X19025000Y-73350000D03*
X24175000Y-73350000D03*
%TD*%
D15*
%TO.P,U$4,1*%
%TO.N,N/C*%
X16750000Y-17000000D03*
%TD*%
D35*
%TO.P,J4,S1,SHIELD*%
%TO.N,GND*%
X34340000Y-15345000D03*
X34340000Y-19275000D03*
X44560000Y-15345000D03*
X44560000Y-19275000D03*
D36*
%TO.P,J4,B12,GND*%
X42650000Y-19850000D03*
%TO.P,J4,B9,VBUS*%
%TO.N,VBUS*%
X41850000Y-19850000D03*
D37*
%TO.P,J4,B8,SBU2*%
%TO.N,unconnected-(J4-SBU2-PadB8)*%
X41200000Y-19850000D03*
%TO.P,J4,B7,D-*%
%TO.N,unconnected-(J4-D--PadB7)*%
X40200000Y-19850000D03*
%TO.P,J4,B6,D+*%
%TO.N,unconnected-(J4-D+-PadB6)*%
X38700000Y-19850000D03*
%TO.P,J4,B5,CC2*%
%TO.N,Net-(J4-CC2)*%
X37700000Y-19850000D03*
D36*
%TO.P,J4,B4,VBUS*%
%TO.N,VBUS*%
X37050000Y-19850000D03*
%TO.P,J4,B1,GND*%
%TO.N,GND*%
X36250000Y-19850000D03*
%TO.P,J4,A12,GND*%
X36250000Y-19850000D03*
%TO.P,J4,A9,VBUS*%
%TO.N,VBUS*%
X37050000Y-19850000D03*
D37*
%TO.P,J4,A8,SBU1*%
%TO.N,unconnected-(J4-SBU1-PadA8)*%
X38200000Y-19850000D03*
%TO.P,J4,A7,D-*%
%TO.N,Net-(J4-D--PadA7)*%
X39200000Y-19850000D03*
%TO.P,J4,A6,D+*%
%TO.N,Net-(J4-D+-PadA6)*%
X39700000Y-19850000D03*
%TO.P,J4,A5,CC1*%
%TO.N,Net-(J4-CC1)*%
X40700000Y-19850000D03*
D36*
%TO.P,J4,A4,VBUS*%
%TO.N,VBUS*%
X41850000Y-19850000D03*
%TO.P,J4,A1,GND*%
%TO.N,GND*%
X42650000Y-19850000D03*
%TD*%
D38*
%TO.P,C19,2,2*%
%TO.N,GND*%
X33350000Y-41600000D03*
%TO.P,C19,1,1*%
%TO.N,+3V3*%
X31450000Y-41600000D03*
%TD*%
D39*
%TO.P,J5,2,Ext*%
%TO.N,GND*%
X49400000Y-80575000D03*
D40*
X50900000Y-79100000D03*
D39*
X49400000Y-77625000D03*
D40*
%TO.P,J5,1,In*%
%TO.N,Net-(J5-In)*%
X47900000Y-79100000D03*
%TD*%
D41*
%TO.P,Q1,3,D*%
%TO.N,Net-(Q1-D)*%
X53250000Y-34537500D03*
%TO.P,Q1,2,S*%
%TO.N,GND*%
X52300000Y-32662500D03*
%TO.P,Q1,1,G*%
%TO.N,Net-(Q1-G)*%
X54200000Y-32662500D03*
%TD*%
D42*
%TO.P,R22,2,2*%
%TO.N,/rp2040/D+*%
X47900000Y-16062500D03*
%TO.P,R22,1,1*%
%TO.N,Net-(J4-D--PadA7)*%
X47900000Y-14237500D03*
%TD*%
D43*
%TO.P,R23,2,2*%
%TO.N,Net-(J4-CC2)*%
X37700000Y-22287500D03*
%TO.P,R23,1,1*%
%TO.N,GND*%
X37700000Y-24112500D03*
%TD*%
D14*
%TO.P,C14,2,2*%
%TO.N,1.2V*%
X31800000Y-44450000D03*
%TO.P,C14,1,1*%
%TO.N,GND*%
X31800000Y-46350000D03*
%TD*%
D44*
%TO.P,U5,8,VCC*%
%TO.N,+3V3*%
X36675000Y-46812500D03*
%TO.P,U5,7,~{HOLD}/~{RESET}/IO_{3}*%
%TO.N,/rp2040/QSPI_D3*%
X36675000Y-45542500D03*
%TO.P,U5,6,CLK*%
%TO.N,/rp2040/QSPI_SCK*%
X36675000Y-44272500D03*
%TO.P,U5,5,DI/IO_{0}*%
%TO.N,/rp2040/QSPI_D0*%
X36675000Y-43002500D03*
%TO.P,U5,4,GND*%
%TO.N,GND*%
X43850000Y-43002500D03*
%TO.P,U5,3,~{WP}/IO_{2}*%
%TO.N,/rp2040/QSPI_D2*%
X43850000Y-44272500D03*
%TO.P,U5,2,DO/IO_{1}*%
%TO.N,/rp2040/QSPI_D1*%
X43850000Y-45542500D03*
%TO.P,U5,1,~{CS}*%
%TO.N,/rp2040/QSPI_CS*%
X43850000Y-46812500D03*
%TD*%
D32*
%TO.P,J3,3,Pin_3*%
%TO.N,GND*%
X53000000Y-45950000D03*
%TO.P,J3,2,Pin_2*%
%TO.N,/rp2040/SWDIO*%
X53000000Y-48490000D03*
D33*
%TO.P,J3,1,Pin_1*%
%TO.N,/rp2040/SWCLK*%
X53000000Y-51030000D03*
%TD*%
D11*
%TO.P,C13,2,2*%
%TO.N,1.2V*%
X31450000Y-39600000D03*
%TO.P,C13,1,1*%
%TO.N,GND*%
X33350000Y-39600000D03*
%TD*%
D38*
%TO.P,R3,2*%
%TO.N,Net-(Q1-D)*%
X54300000Y-26900000D03*
%TO.P,R3,1*%
%TO.N,Net-(Q2-G)*%
X52400000Y-26900000D03*
%TD*%
D14*
%TO.P,C15,2,2*%
%TO.N,GND*%
X28525000Y-33500000D03*
%TO.P,C15,1,1*%
%TO.N,+3V3*%
X28525000Y-35400000D03*
%TD*%
D45*
%TO.P,J1,5,Pin_5*%
%TO.N,GND*%
X58200000Y-45900000D03*
%TO.P,J1,4,Pin_4*%
%TO.N,/pmu/NRST*%
X58200000Y-48400000D03*
%TO.P,J1,3,Pin_3*%
%TO.N,Net-(J1-Pin_3)*%
X58200000Y-50900000D03*
%TO.P,J1,2,Pin_2*%
%TO.N,Net-(J1-Pin_2)*%
X58200000Y-53400000D03*
D46*
%TO.P,J1,1,Pin_1*%
%TO.N,VDD*%
X58200000Y-55900000D03*
%TD*%
D47*
%TO.P,R1,2*%
%TO.N,/pmu/3V3_POWER_ON*%
X52437500Y-29600000D03*
%TO.P,R1,1*%
%TO.N,Net-(Q1-G)*%
X54262500Y-29600000D03*
%TD*%
D34*
%TO.P,BOOT,2,2*%
%TO.N,GND*%
X19025000Y-64550000D03*
X24175000Y-64550000D03*
%TO.P,BOOT,1,1*%
%TO.N,/rp2040/USBBOOT*%
X19025000Y-66250000D03*
X24175000Y-66250000D03*
%TD*%
D15*
%TO.P,U$1,1*%
%TO.N,N/C*%
X56750000Y-79500000D03*
%TD*%
D11*
%TO.P,C16,2,2*%
%TO.N,GND*%
X14150000Y-40216000D03*
%TO.P,C16,1,1*%
%TO.N,+3V3*%
X16050000Y-40216000D03*
%TD*%
D23*
%TO.P,R25,2,2*%
%TO.N,+3V3*%
X48312500Y-41200000D03*
%TO.P,R25,1,1*%
%TO.N,/rp2040/QSPI_CS*%
X46487500Y-41200000D03*
%TD*%
D42*
%TO.P,R21,2,2*%
%TO.N,/rp2040/D-*%
X31000000Y-16062500D03*
%TO.P,R21,1,1*%
%TO.N,Net-(J4-D+-PadA6)*%
X31000000Y-14237500D03*
%TD*%
D23*
%TO.P,R2,2*%
%TO.N,GND*%
X58912500Y-31600000D03*
%TO.P,R2,1*%
%TO.N,Net-(Q1-G)*%
X57087500Y-31600000D03*
%TD*%
D48*
%TO.P,SW1,2,2*%
%TO.N,GND*%
X40750000Y-30200000D03*
X35600000Y-30200000D03*
%TO.P,SW1,1,1*%
%TO.N,/pmu/NRST*%
X40750000Y-28500000D03*
X35600000Y-28500000D03*
%TD*%
D42*
%TO.P,R19,2,2*%
%TO.N,+3V3*%
X45250000Y-76062500D03*
%TO.P,R19,1,1*%
%TO.N,/rp2040/RFM_RST*%
X45250000Y-74237500D03*
%TD*%
D23*
%TO.P,R18,2,2*%
%TO.N,Net-(D2-A)*%
X48312500Y-45200000D03*
%TO.P,R18,1,1*%
%TO.N,/rp2040/QSPI_CS*%
X46487500Y-45200000D03*
%TD*%
D47*
%TO.P,R20,2,2*%
%TO.N,+3V3*%
X14167500Y-49110000D03*
%TO.P,R20,1,1*%
%TO.N,/rp2040/RFM_CS*%
X15992500Y-49110000D03*
%TD*%
D49*
%TO.P,R8,2*%
%TO.N,GNDPWR*%
X15200000Y-73620000D03*
%TO.P,R8,1*%
%TO.N,GND*%
X15200000Y-58380000D03*
%TD*%
D50*
%TO.P,Q2,3,D*%
%TO.N,+9V*%
X52512500Y-21450000D03*
%TO.P,Q2,2,S*%
%TO.N,Net-(Q2-S)*%
X54387500Y-20500000D03*
%TO.P,Q2,1,G*%
%TO.N,Net-(Q2-G)*%
X54387500Y-22400000D03*
%TD*%
D12*
%TO.P,C22,2,2*%
%TO.N,GND*%
X23600000Y-52150000D03*
%TO.P,C22,1,1*%
%TO.N,+3V3*%
X23600000Y-50250000D03*
%TD*%
D38*
%TO.P,C9,2,2*%
%TO.N,1.2V*%
X16050000Y-42462000D03*
%TO.P,C9,1,1*%
%TO.N,GND*%
X14150000Y-42462000D03*
%TD*%
D12*
%TO.P,C21,2,2*%
%TO.N,GND*%
X29800000Y-46350000D03*
%TO.P,C21,1,1*%
%TO.N,+3V3*%
X29800000Y-44450000D03*
%TD*%
D23*
%TO.P,R16,2,2*%
%TO.N,/rp2040/~{RESET}*%
X15992500Y-46924000D03*
%TO.P,R16,1,1*%
%TO.N,+3V3*%
X14167500Y-46924000D03*
%TD*%
D43*
%TO.P,R24,2,2*%
%TO.N,Net-(J4-CC1)*%
X40500000Y-22287500D03*
%TO.P,R24,1,1*%
%TO.N,GND*%
X40500000Y-24112500D03*
%TD*%
D51*
%TO.P,D2,2,A*%
%TO.N,Net-(D2-A)*%
X34900000Y-33225000D03*
%TO.P,D2,1,K*%
%TO.N,/rp2040/USBBOOT*%
X31600000Y-33225000D03*
%TD*%
D52*
%TO.N,GND*%
X22280000Y-25830000D03*
X41000000Y-59840000D03*
X49400000Y-72900000D03*
X43000000Y-70775000D03*
X34500000Y-46100000D03*
X43900000Y-42100000D03*
X29250000Y-18250000D03*
X23580000Y-54490000D03*
X29300000Y-51900000D03*
X30750000Y-45500000D03*
X58912500Y-32950000D03*
X31750000Y-26750000D03*
X17050000Y-56550000D03*
X35400000Y-50750000D03*
X19628554Y-30228554D03*
X37100000Y-29000000D03*
X30000000Y-34522792D03*
X49400000Y-76150000D03*
X28000000Y-26750000D03*
X32600000Y-38400000D03*
%TO.N,Net-(J2-Pin_1)*%
X27000000Y-70700000D03*
X27000000Y-65450000D03*
D53*
%TO.N,+9V*%
X55450000Y-24350000D03*
D52*
%TO.N,Net-(C11-Pad2)*%
X18400000Y-38250000D03*
%TO.N,+3V3*%
X50750000Y-50950000D03*
X46800000Y-74110000D03*
X15950000Y-29600000D03*
X34390000Y-59990000D03*
X22100000Y-16700000D03*
X32650000Y-49300000D03*
X60100000Y-33450000D03*
X19796000Y-48000000D03*
X47500000Y-46550000D03*
X57425000Y-33475000D03*
X24040000Y-48590000D03*
X34809236Y-47103224D03*
%TO.N,/rp2040/SWDIO*%
X18595130Y-43017044D03*
X37054000Y-39500000D03*
X40000000Y-40500000D03*
%TO.N,/rp2040/MISO*%
X13181635Y-51568365D03*
X14250000Y-33400000D03*
%TO.N,/rp2040/SWCLK*%
X18996476Y-42325000D03*
X39213343Y-39650000D03*
X37054000Y-38450000D03*
%TO.N,/rp2040/MOSI*%
X13350000Y-33400000D03*
X13998000Y-35750000D03*
%TO.N,/rp2040/SCK*%
X12550000Y-33400000D03*
X15400000Y-35100000D03*
X14000000Y-36600000D03*
%TO.N,Net-(IC1-XIN)*%
X17750000Y-40100000D03*
%TO.N,/rp2040/~{RESET}*%
X14996446Y-50903554D03*
X13600000Y-54000000D03*
%TO.N,/rp2040/RX*%
X44025000Y-34150000D03*
%TO.N,/rp2040/TX*%
X43300000Y-33675000D03*
%TO.N,/rp2040/USBBOOT*%
X13551000Y-20199000D03*
X26300000Y-25600000D03*
X19100000Y-67500000D03*
X29300000Y-24600000D03*
%TO.N,/pmu/NRST*%
X40750000Y-27250000D03*
%TO.N,Net-(J4-D--PadA7)*%
X38900000Y-15550000D03*
X41850000Y-15550000D03*
%TO.N,/pmu/MEAS_V*%
X37300000Y-37000000D03*
X35150000Y-34750000D03*
X31700000Y-52598000D03*
X36700000Y-52500000D03*
%TO.N,VDD*%
X45000000Y-37250000D03*
X45887500Y-42581910D03*
%TO.N,/pmu/3V3_POWER_ON*%
X52400000Y-36100000D03*
%TO.N,/pmu/MEAS_CURRENT*%
X25350000Y-30000000D03*
X30650000Y-29951000D03*
%TD*%
D54*
%TO.N,/rp2040/VALVE_4*%
X26800322Y-75851000D02*
X33574678Y-75851000D01*
X34224678Y-75201000D02*
X33574678Y-75851000D01*
%TO.N,/rp2040/VALVE_3*%
X34100000Y-74900000D02*
X33450000Y-75550000D01*
D55*
%TO.N,GND*%
X58912500Y-32950000D02*
X58912500Y-33037500D01*
X58912500Y-33037500D02*
X56274000Y-35676000D01*
X56274000Y-35676000D02*
X52867612Y-35676000D01*
X52300000Y-35108388D02*
X52300000Y-32662500D01*
X52867612Y-35676000D02*
X52300000Y-35108388D01*
D54*
%TO.N,+3V3*%
X60100000Y-33450000D02*
X60667000Y-32883000D01*
X60667000Y-32883000D02*
X60667000Y-28202001D01*
X60667000Y-28202001D02*
X60164999Y-27700000D01*
X60164999Y-27700000D02*
X59865000Y-27700000D01*
%TO.N,/pmu/3V3_POWER_ON*%
X59865000Y-28200000D02*
X60028564Y-28200000D01*
X60028564Y-28200000D02*
X60366000Y-28537436D01*
X60366000Y-28537436D02*
X60366000Y-29846330D01*
X59703500Y-30508830D02*
X59703500Y-32963600D01*
X59703500Y-32963600D02*
X56590100Y-36077000D01*
X60366000Y-29846330D02*
X59703500Y-30508830D01*
D55*
%TO.N,GND*%
X23270000Y-17350000D02*
X23285000Y-17350000D01*
X23285000Y-17350000D02*
X26951000Y-21016000D01*
D54*
%TO.N,+3V3*%
X24564000Y-15699000D02*
X24564000Y-15714000D01*
X24564000Y-15714000D02*
X25100000Y-16250000D01*
%TO.N,/rp2040/RGB_LED*%
X24849000Y-30699000D02*
X24849000Y-29549000D01*
X27402000Y-20802000D02*
X25100000Y-18500000D01*
X24849000Y-29549000D02*
X25248000Y-29150000D01*
X28501000Y-26957521D02*
X28501000Y-26542479D01*
X25248000Y-29150000D02*
X26308521Y-29150000D01*
X25000000Y-30850000D02*
X24849000Y-30699000D01*
X25000000Y-37687500D02*
X25000000Y-30850000D01*
X26308521Y-29150000D02*
X28501000Y-26957521D01*
X25100000Y-18500000D02*
X25100000Y-17350000D01*
X28501000Y-26542479D02*
X27402000Y-25443479D01*
X27402000Y-25443479D02*
X27402000Y-20802000D01*
D55*
%TO.N,GND*%
X37700000Y-28500000D02*
X37700000Y-24112500D01*
X33351000Y-50099000D02*
X32700000Y-50750000D01*
X33351000Y-48851000D02*
X33351000Y-50099000D01*
X43900000Y-42952500D02*
X43850000Y-43002500D01*
X58912500Y-31600000D02*
X58912500Y-32950000D01*
X29400000Y-51800000D02*
X29300000Y-51900000D01*
X32700000Y-50750000D02*
X35400000Y-50750000D01*
X42787500Y-24112500D02*
X40500000Y-24112500D01*
X21075000Y-71650000D02*
X27875000Y-71650000D01*
X14150000Y-42462000D02*
X14150000Y-44708000D01*
X34915000Y-19850000D02*
X34340000Y-19275000D01*
X43000000Y-70775000D02*
X43000000Y-72775000D01*
X31800000Y-46350000D02*
X31600000Y-46350000D01*
X27875000Y-71650000D02*
X29000000Y-72775000D01*
X33500000Y-21000000D02*
X33500000Y-21400000D01*
X15200000Y-58380000D02*
X21370000Y-64550000D01*
X37700000Y-24112500D02*
X40500000Y-24112500D01*
X50900000Y-79100000D02*
X50875000Y-79100000D01*
X29800000Y-46350000D02*
X31800000Y-46350000D01*
X23150000Y-26700000D02*
X22280000Y-25830000D01*
X19628554Y-31270554D02*
X19900000Y-31542000D01*
X49400000Y-76150000D02*
X49400000Y-77625000D01*
X31550000Y-50750000D02*
X32700000Y-50750000D01*
X31750000Y-27241480D02*
X31750000Y-26750000D01*
X58150000Y-45950000D02*
X58200000Y-45900000D01*
X33000000Y-20500000D02*
X33500000Y-21000000D01*
X41000000Y-57725000D02*
X41000000Y-59840000D01*
X23580000Y-54490000D02*
X23580000Y-52170000D01*
X32950000Y-38400000D02*
X32600000Y-38400000D01*
X50110000Y-61410000D02*
X56450000Y-61410000D01*
X33500000Y-23050000D02*
X33500000Y-28991480D01*
X14150000Y-42462000D02*
X14150000Y-40216000D01*
X34500000Y-46100000D02*
X34500000Y-42750000D01*
X59302500Y-29562500D02*
X59302500Y-31210000D01*
X50875000Y-79100000D02*
X49400000Y-80575000D01*
X35400000Y-50750000D02*
X45192720Y-50750000D01*
X59302500Y-31210000D02*
X58912500Y-31600000D01*
X44560000Y-22340000D02*
X42787500Y-24112500D01*
D54*
X16530160Y-36999000D02*
X15534840Y-36999000D01*
D55*
X19025000Y-64550000D02*
X21370000Y-64550000D01*
X21370000Y-64550000D02*
X24175000Y-64550000D01*
X34340000Y-19275000D02*
X34340000Y-15345000D01*
X30000000Y-34522792D02*
X29547792Y-34522792D01*
X35600000Y-30200000D02*
X34708520Y-30200000D01*
X37100000Y-29000000D02*
X37300000Y-29000000D01*
D54*
X17099050Y-37567890D02*
X16530160Y-36999000D01*
D55*
X19628554Y-30228554D02*
X19628554Y-31270554D01*
D54*
X18873100Y-40125000D02*
X17099050Y-38350950D01*
D55*
X33500000Y-20115000D02*
X34340000Y-19275000D01*
X17800000Y-71000000D02*
X17800000Y-64950000D01*
X33500000Y-21400000D02*
X33500000Y-20115000D01*
X18200000Y-64550000D02*
X19025000Y-64550000D01*
X35600000Y-30200000D02*
X40750000Y-30200000D01*
X37750000Y-28550000D02*
X37700000Y-28500000D01*
X31550000Y-50750000D02*
X29402500Y-50750000D01*
D54*
X23400000Y-40125000D02*
X24400000Y-41125000D01*
D55*
X30750000Y-20500000D02*
X33000000Y-20500000D01*
X33500000Y-21400000D02*
X33500000Y-23050000D01*
X34708520Y-30200000D02*
X33500000Y-28991480D01*
X17800000Y-64950000D02*
X18200000Y-64550000D01*
X29400000Y-50752500D02*
X29400000Y-51800000D01*
X31800000Y-47300000D02*
X33351000Y-48851000D01*
X28000000Y-26750000D02*
X27950000Y-26700000D01*
D54*
X15534840Y-36999000D02*
X15100000Y-37433840D01*
D56*
X26951000Y-25701000D02*
X28000000Y-26750000D01*
D55*
X33350000Y-38800000D02*
X32950000Y-38400000D01*
X18450000Y-71650000D02*
X17800000Y-71000000D01*
X33350000Y-39600000D02*
X33350000Y-38800000D01*
X31800000Y-46350000D02*
X31800000Y-47300000D01*
D54*
X15100000Y-37433840D02*
X15100000Y-39750000D01*
D55*
X49400000Y-60700000D02*
X50110000Y-61410000D01*
X19025000Y-71650000D02*
X24175000Y-71650000D01*
X49425000Y-77625000D02*
X50900000Y-79100000D01*
X29250000Y-18250000D02*
X29750000Y-18250000D01*
X19025000Y-71650000D02*
X18450000Y-71650000D01*
X43900000Y-42100000D02*
X43900000Y-42952500D01*
X29402500Y-50750000D02*
X29400000Y-50752500D01*
D54*
X17099050Y-38350950D02*
X17099050Y-37567890D01*
D55*
X17030000Y-56550000D02*
X17050000Y-56550000D01*
X31600000Y-46350000D02*
X30750000Y-45500000D01*
X49400000Y-54957280D02*
X49400000Y-60700000D01*
X53000000Y-45950000D02*
X58150000Y-45950000D01*
X34500000Y-42750000D02*
X33350000Y-41600000D01*
X23600000Y-52150000D02*
X23560000Y-52150000D01*
X27950000Y-26700000D02*
X23150000Y-26700000D01*
D56*
X26951000Y-21016000D02*
X26951000Y-25701000D01*
D55*
X29547792Y-34522792D02*
X28525000Y-33500000D01*
D54*
X20962500Y-40125000D02*
X23400000Y-40125000D01*
D55*
X45192720Y-50750000D02*
X49400000Y-54957280D01*
X42650000Y-19850000D02*
X43985000Y-19850000D01*
X44560000Y-15345000D02*
X44560000Y-19275000D01*
X29750000Y-19500000D02*
X30750000Y-20500000D01*
X29750000Y-18250000D02*
X29750000Y-19500000D01*
D54*
X14634000Y-40216000D02*
X14150000Y-40216000D01*
X20962500Y-40125000D02*
X18873100Y-40125000D01*
D55*
X23580000Y-52170000D02*
X23600000Y-52150000D01*
D54*
X45114840Y-15899000D02*
X44799000Y-16214840D01*
D55*
X15200000Y-58380000D02*
X17030000Y-56550000D01*
X49400000Y-77625000D02*
X49425000Y-77625000D01*
D54*
X15100000Y-39750000D02*
X14634000Y-40216000D01*
D56*
X21108000Y-32750000D02*
X22200000Y-32750000D01*
D55*
X22280000Y-25830000D02*
X22280000Y-21600000D01*
X49400000Y-76150000D02*
X49400000Y-72900000D01*
D56*
X19900000Y-31542000D02*
X21108000Y-32750000D01*
D55*
X36250000Y-19850000D02*
X34915000Y-19850000D01*
X37700000Y-24112500D02*
X34562500Y-24112500D01*
X33350000Y-39600000D02*
X33350000Y-41600000D01*
X37300000Y-29000000D02*
X37750000Y-28550000D01*
X33500000Y-28991480D02*
X31750000Y-27241480D01*
X34562500Y-24112500D02*
X33500000Y-23050000D01*
X44560000Y-19275000D02*
X44560000Y-22340000D01*
X43985000Y-19850000D02*
X44560000Y-19275000D01*
D54*
%TO.N,Net-(Q1-G)*%
X54262500Y-29600000D02*
X54262500Y-31550000D01*
X54912500Y-32200000D02*
X54262500Y-31550000D01*
X54262500Y-31550000D02*
X54262500Y-32600000D01*
X57087500Y-32200000D02*
X54912500Y-32200000D01*
X54262500Y-32600000D02*
X54200000Y-32662500D01*
%TO.N,Net-(J2-Pin_1)*%
X26950000Y-65500000D02*
X27000000Y-65450000D01*
X27000000Y-70700000D02*
X26950000Y-70650000D01*
X26950000Y-70650000D02*
X26950000Y-65500000D01*
D57*
%TO.N,+9V*%
X37151000Y-76449000D02*
X42006298Y-76449000D01*
X50947000Y-82303000D02*
X53250000Y-80000000D01*
X54450000Y-75900000D02*
X58300000Y-75900000D01*
X53250000Y-77100000D02*
X54450000Y-75900000D01*
X42006298Y-76449000D02*
X47860298Y-82303000D01*
X54300000Y-24116232D02*
X54300000Y-24350000D01*
X58990000Y-75210000D02*
X58300000Y-75900000D01*
X52512500Y-21450000D02*
X52512500Y-22328732D01*
X33900000Y-79700000D02*
X37151000Y-76449000D01*
X53250000Y-80000000D02*
X53250000Y-77100000D01*
X47860298Y-82303000D02*
X50947000Y-82303000D01*
X58990000Y-74110000D02*
X58990000Y-75210000D01*
X52512500Y-22328732D02*
X54300000Y-24116232D01*
X54300000Y-24350000D02*
X55450000Y-24350000D01*
D54*
%TO.N,Net-(C11-Pad2)*%
X15368740Y-36598000D02*
X16748000Y-36598000D01*
X14245000Y-37721740D02*
X15368740Y-36598000D01*
X18400000Y-38250000D02*
X16748000Y-36598000D01*
X14245000Y-38070000D02*
X14245000Y-37721740D01*
%TO.N,1.2V*%
X31450000Y-39950000D02*
X30475000Y-40925000D01*
X22500000Y-42770314D02*
X22500000Y-42200000D01*
X22779686Y-43050000D02*
X22500000Y-42770314D01*
X16050000Y-42462000D02*
X16050000Y-44708000D01*
X26950000Y-41050000D02*
X26950000Y-42800000D01*
X31450000Y-44450000D02*
X31800000Y-44450000D01*
X26700000Y-43050000D02*
X22779686Y-43050000D01*
X26950000Y-42800000D02*
X27075000Y-42925000D01*
X29925000Y-42925000D02*
X31450000Y-44450000D01*
X27837500Y-42925000D02*
X29925000Y-42925000D01*
X20962500Y-41725000D02*
X16902500Y-41725000D01*
X27837500Y-40925000D02*
X27075000Y-40925000D01*
X27075000Y-40925000D02*
X26950000Y-41050000D01*
X31450000Y-39600000D02*
X31450000Y-39950000D01*
X26950000Y-42800000D02*
X26700000Y-43050000D01*
X27075000Y-42925000D02*
X27837500Y-42925000D01*
X16902500Y-41725000D02*
X16050000Y-42577500D01*
X31450000Y-39600000D02*
X31450000Y-40150000D01*
X22025000Y-41725000D02*
X20962500Y-41725000D01*
X22500000Y-42200000D02*
X22025000Y-41725000D01*
X30475000Y-40925000D02*
X27837500Y-40925000D01*
%TO.N,+3V3*%
X16325000Y-41325000D02*
X16050000Y-41050000D01*
X28000000Y-43887500D02*
X27837500Y-43725000D01*
X28675000Y-35250000D02*
X28525000Y-35400000D01*
X45250000Y-76062500D02*
X45787500Y-76062500D01*
X45750000Y-38950000D02*
X45750000Y-37050000D01*
X29400000Y-48852500D02*
X28675000Y-48852500D01*
X46895050Y-47438500D02*
X37301000Y-47438500D01*
X27000000Y-44000000D02*
X27000000Y-44562500D01*
X29525000Y-43325000D02*
X27837500Y-43325000D01*
X23820000Y-48590000D02*
X23400000Y-49010000D01*
X23700000Y-38600000D02*
X26750000Y-38600000D01*
X31450000Y-41600000D02*
X28800000Y-41600000D01*
X46350000Y-74560000D02*
X46350000Y-75500000D01*
X28475000Y-36900000D02*
X27687500Y-37687500D01*
X29800000Y-44450000D02*
X29800000Y-43600000D01*
X31000000Y-47800000D02*
X29738840Y-47800000D01*
X47499000Y-42013500D02*
X48312500Y-41200000D01*
X28675000Y-41725000D02*
X28800000Y-41600000D01*
X15400000Y-40200000D02*
X15416000Y-40216000D01*
X19082900Y-32100000D02*
X19082900Y-32115800D01*
X23400000Y-44000000D02*
X23600000Y-43800000D01*
X15000000Y-46200000D02*
X15000000Y-40600000D01*
X47500000Y-46550000D02*
X47500000Y-46233550D01*
X35000000Y-59380000D02*
X35000000Y-57725000D01*
X60100000Y-46550000D02*
X60100000Y-33450000D01*
X23400000Y-37687500D02*
X23400000Y-35550000D01*
X19082900Y-32115800D02*
X21517100Y-34550000D01*
X34390000Y-59990000D02*
X35000000Y-59380000D01*
X27687500Y-37687500D02*
X27000000Y-37687500D01*
X51400000Y-47350000D02*
X59300000Y-47350000D01*
X46800000Y-74110000D02*
X46350000Y-74560000D01*
X27000000Y-38350000D02*
X27000000Y-37687500D01*
X23400000Y-49010000D02*
X23400000Y-50050000D01*
X33628000Y-46077943D02*
X34653281Y-47103224D01*
X14167500Y-50783129D02*
X14167500Y-49110000D01*
X47500000Y-46550000D02*
X47500000Y-46833550D01*
X23600000Y-43800000D02*
X26800000Y-43800000D01*
X26750000Y-38600000D02*
X27000000Y-38350000D01*
X14276000Y-46924000D02*
X15000000Y-46200000D01*
X28404000Y-48581500D02*
X28404000Y-47036900D01*
X14788925Y-51404554D02*
X14167500Y-50783129D01*
X26800000Y-43800000D02*
X27000000Y-44000000D01*
X47916479Y-39550000D02*
X46350000Y-39550000D01*
X23000000Y-35150000D02*
X23000000Y-34550000D01*
X45750000Y-37050000D02*
X45250000Y-36550000D01*
X15930000Y-31480000D02*
X16550000Y-32100000D01*
X16550000Y-32100000D02*
X19082900Y-32100000D01*
X15950000Y-29600000D02*
X15950000Y-29750000D01*
X24040000Y-48590000D02*
X23820000Y-48590000D01*
X23400000Y-44562500D02*
X23400000Y-44000000D01*
X48312500Y-39946021D02*
X47916479Y-39550000D01*
X35092500Y-46812500D02*
X36675000Y-46812500D01*
X28525000Y-41325000D02*
X27837500Y-41325000D01*
X48312500Y-41200000D02*
X48312500Y-39946021D01*
X15950000Y-29750000D02*
X15930000Y-29770000D01*
X47499000Y-46232550D02*
X47499000Y-42013500D01*
X23400000Y-37687500D02*
X23400000Y-38300000D01*
X45250000Y-36550000D02*
X44700000Y-36550000D01*
X34652600Y-35250000D02*
X28675000Y-35250000D01*
X28475000Y-35450000D02*
X28475000Y-36900000D01*
X23400000Y-38300000D02*
X23700000Y-38600000D01*
X22734000Y-15699000D02*
X24564000Y-15699000D01*
X27837500Y-41725000D02*
X28675000Y-41725000D01*
X32200000Y-48850000D02*
X32650000Y-49300000D01*
X14167500Y-49110000D02*
X14167500Y-46924000D01*
X47500000Y-46833550D02*
X46895050Y-47438500D01*
X15416000Y-40216000D02*
X16050000Y-40216000D01*
X50750000Y-50950000D02*
X50850000Y-50850000D01*
X37202600Y-37800000D02*
X34652600Y-35250000D01*
X28404000Y-47036900D02*
X27000000Y-45632900D01*
X59300000Y-47350000D02*
X60100000Y-46550000D01*
X33628000Y-43632640D02*
X33628000Y-46077943D01*
X29400000Y-48852500D02*
X31547500Y-48852500D01*
X31550000Y-48850000D02*
X31550000Y-48350000D01*
X19796000Y-48000000D02*
X16391446Y-51404554D01*
X22100000Y-16700000D02*
X22100000Y-16333000D01*
X23400000Y-35550000D02*
X23000000Y-35150000D01*
X45787500Y-76062500D02*
X46350000Y-75500000D01*
X23400000Y-50050000D02*
X23600000Y-50250000D01*
X29800000Y-43600000D02*
X29525000Y-43325000D01*
X20962500Y-41325000D02*
X16325000Y-41325000D01*
X37301000Y-47438500D02*
X36675000Y-46812500D01*
X50850000Y-50850000D02*
X50850000Y-47900000D01*
X31450000Y-41600000D02*
X31595360Y-41600000D01*
X57800000Y-33100000D02*
X57425000Y-33475000D01*
X50850000Y-47900000D02*
X51400000Y-47350000D01*
X22100000Y-16333000D02*
X22734000Y-15699000D01*
X23400000Y-44562500D02*
X23400000Y-49010000D01*
X14167500Y-46924000D02*
X14276000Y-46924000D01*
X16391446Y-51404554D02*
X14788925Y-51404554D01*
X31547500Y-48852500D02*
X31550000Y-48850000D01*
X28675000Y-48852500D02*
X28404000Y-48581500D01*
X47500000Y-46233550D02*
X47499000Y-46232550D01*
X34809236Y-47095764D02*
X35092500Y-46812500D01*
X27000000Y-45632900D02*
X27000000Y-44562500D01*
X28800000Y-41600000D02*
X28525000Y-41325000D01*
X31595360Y-41600000D02*
X33628000Y-43632640D01*
X15930000Y-30900000D02*
X15930000Y-31480000D01*
X34809236Y-47103224D02*
X34809236Y-47095764D01*
X21517100Y-34550000D02*
X23000000Y-34550000D01*
X29738840Y-47800000D02*
X28000000Y-46061160D01*
X28525000Y-35400000D02*
X28475000Y-35450000D01*
X15930000Y-29770000D02*
X15930000Y-30900000D01*
X37202600Y-37800000D02*
X43450000Y-37800000D01*
X27837500Y-43325000D02*
X27837500Y-43725000D01*
X46350000Y-39550000D02*
X45750000Y-38950000D01*
X57800000Y-28850000D02*
X57800000Y-33100000D01*
X34653281Y-47103224D02*
X34809236Y-47103224D01*
X31550000Y-48350000D02*
X31000000Y-47800000D01*
X44700000Y-36550000D02*
X43450000Y-37800000D01*
X15000000Y-40600000D02*
X15400000Y-40200000D01*
X28000000Y-46061160D02*
X28000000Y-43887500D01*
X31550000Y-48850000D02*
X32200000Y-48850000D01*
X16050000Y-41050000D02*
X16050000Y-40180000D01*
%TO.N,/rp2040/RFM_IO5*%
X21198000Y-47601000D02*
X21800000Y-46999000D01*
X41000000Y-72775000D02*
X41000000Y-67204000D01*
X21198000Y-56466400D02*
X21198000Y-47601000D01*
X35600000Y-61804000D02*
X26535600Y-61804000D01*
X41000000Y-67204000D02*
X35600000Y-61804000D01*
X26535600Y-61804000D02*
X21198000Y-56466400D01*
X21800000Y-46999000D02*
X21800000Y-44562500D01*
%TO.N,Net-(D2-A)*%
X49399000Y-33566100D02*
X49399000Y-44113500D01*
X41425000Y-33225000D02*
X42950000Y-34750000D01*
X34900000Y-33225000D02*
X41425000Y-33225000D01*
X44925000Y-34750000D02*
X46674000Y-33001000D01*
X46674000Y-33001000D02*
X48833900Y-33001000D01*
X49399000Y-44113500D02*
X48312500Y-45200000D01*
X42950000Y-34750000D02*
X44925000Y-34750000D01*
X48833900Y-33001000D02*
X49399000Y-33566100D01*
%TO.N,/rp2040/SWDIO*%
X38000000Y-39500000D02*
X38750000Y-40250000D01*
X19155850Y-43017044D02*
X19647894Y-42525000D01*
X39750000Y-40250000D02*
X40000000Y-40500000D01*
X37054000Y-39500000D02*
X38000000Y-39500000D01*
X38750000Y-40250000D02*
X39750000Y-40250000D01*
X19647894Y-42525000D02*
X20962500Y-42525000D01*
X18595130Y-43017044D02*
X19155850Y-43017044D01*
%TO.N,/rp2040/MISO*%
X23550000Y-30100000D02*
X22550000Y-29100000D01*
X23550000Y-30900000D02*
X23550000Y-30100000D01*
X31000000Y-65009000D02*
X31000000Y-72775000D01*
X18950000Y-33400000D02*
X21300000Y-35750000D01*
X14100000Y-29100000D02*
X13450000Y-29750000D01*
X22550000Y-29100000D02*
X14100000Y-29100000D01*
X21300000Y-35750000D02*
X21650000Y-35750000D01*
X21650000Y-35750000D02*
X23000000Y-37100000D01*
X13181635Y-51568365D02*
X13181635Y-51581635D01*
X13181635Y-51581635D02*
X25409000Y-63809000D01*
X14250000Y-33400000D02*
X18950000Y-33400000D01*
X13450000Y-32600000D02*
X14250000Y-33400000D01*
X29800000Y-63809000D02*
X31000000Y-65009000D01*
X13450000Y-29750000D02*
X13450000Y-32600000D01*
X25409000Y-63809000D02*
X29800000Y-63809000D01*
X23000000Y-37100000D02*
X23000000Y-37687500D01*
%TO.N,/rp2040/SWCLK*%
X19196476Y-42125000D02*
X18996476Y-42325000D01*
X18996476Y-42253524D02*
X19124000Y-42126000D01*
X38250000Y-38500000D02*
X39213343Y-39463343D01*
X20962500Y-42125000D02*
X19196476Y-42125000D01*
X18996476Y-42325000D02*
X18996476Y-42253524D01*
X37054000Y-38450000D02*
X37104000Y-38500000D01*
X37104000Y-38500000D02*
X38250000Y-38500000D01*
X39213343Y-39463343D02*
X39213343Y-39650000D01*
%TO.N,/rp2040/QSPI_SCK*%
X34850000Y-41750000D02*
X35500000Y-42400000D01*
X35500000Y-42400000D02*
X35500000Y-43299990D01*
X35500000Y-43299990D02*
X36472510Y-44272500D01*
X30200000Y-39800000D02*
X30200000Y-38400000D01*
X29875000Y-40125000D02*
X30200000Y-39800000D01*
X34850000Y-38282900D02*
X34850000Y-41750000D01*
X30200000Y-38400000D02*
X31201000Y-37399000D01*
X33966100Y-37399000D02*
X34850000Y-38282900D01*
X36472510Y-44272500D02*
X36675000Y-44272500D01*
X27837500Y-40125000D02*
X29875000Y-40125000D01*
X31201000Y-37399000D02*
X33966100Y-37399000D01*
%TO.N,/rp2040/RFM_RST*%
X39000000Y-72775000D02*
X39000000Y-65800000D01*
X39401000Y-74451000D02*
X39000000Y-74050000D01*
X38987500Y-72787500D02*
X39000000Y-72775000D01*
X26369500Y-62205000D02*
X20797000Y-56632500D01*
X39000000Y-74050000D02*
X39000000Y-72775000D01*
X45036500Y-74451000D02*
X39401000Y-74451000D01*
X21200000Y-43962500D02*
X20962500Y-43725000D01*
X21200000Y-47000000D02*
X21200000Y-43962500D01*
X20797000Y-47403000D02*
X21200000Y-47000000D01*
X35405000Y-62205000D02*
X26369500Y-62205000D01*
X20797000Y-56632500D02*
X20797000Y-47403000D01*
X45250000Y-74237500D02*
X45036500Y-74451000D01*
X39000000Y-65800000D02*
X35405000Y-62205000D01*
%TO.N,Net-(IC1-XOUT)*%
X17025000Y-40400000D02*
X17025000Y-39025000D01*
X17025000Y-39025000D02*
X16070000Y-38070000D01*
X17550000Y-40925000D02*
X17025000Y-40400000D01*
X20962500Y-40925000D02*
X17550000Y-40925000D01*
%TO.N,VBUS*%
X25850000Y-35950000D02*
X25850000Y-32132900D01*
X28248000Y-23165100D02*
X28248000Y-17315840D01*
X41850000Y-19850000D02*
X41850000Y-22294738D01*
X36799000Y-21151000D02*
X37050000Y-20900000D01*
X41143738Y-23001000D02*
X37056262Y-23001000D01*
X41850000Y-22294738D02*
X41143738Y-23001000D01*
X31500000Y-28551356D02*
X30547000Y-27598356D01*
X27432900Y-30550000D02*
X29955943Y-30550000D01*
X37236000Y-15864840D02*
X35415160Y-14044000D01*
X32806000Y-14044000D02*
X31601000Y-15249000D01*
X30900000Y-30900000D02*
X31500000Y-30300000D01*
X35415160Y-14044000D02*
X32806000Y-14044000D01*
X36799000Y-22743738D02*
X36799000Y-21151000D01*
X30305943Y-30900000D02*
X30900000Y-30900000D01*
X37056262Y-23001000D02*
X36799000Y-22743738D01*
X29955943Y-30550000D02*
X30305943Y-30900000D01*
X28601000Y-23518100D02*
X28248000Y-23165100D01*
X30547000Y-26747000D02*
X28601000Y-24801000D01*
X25400000Y-37687500D02*
X25400000Y-36400000D01*
X37050000Y-20900000D02*
X37050000Y-19850000D01*
X25400000Y-36400000D02*
X25850000Y-35950000D01*
X28601000Y-24801000D02*
X28601000Y-23518100D01*
X37050000Y-19850000D02*
X37236000Y-19664000D01*
X31500000Y-30300000D02*
X31500000Y-28551356D01*
X31601000Y-15249000D02*
X30314840Y-15249000D01*
X30547000Y-27598356D02*
X30547000Y-26747000D01*
X25850000Y-32132900D02*
X27432900Y-30550000D01*
X37236000Y-19664000D02*
X37236000Y-15864840D01*
X28248000Y-17315840D02*
X30314840Y-15249000D01*
%TO.N,/rp2040/RFM_IO3*%
X21599000Y-47801000D02*
X22200000Y-47200000D01*
X26701700Y-61403000D02*
X21599000Y-56300300D01*
X22200000Y-47200000D02*
X22200000Y-44562500D01*
X39000000Y-57725000D02*
X39000000Y-59200000D01*
X21599000Y-56300300D02*
X21599000Y-47801000D01*
X39000000Y-59200000D02*
X36797000Y-61403000D01*
X36797000Y-61403000D02*
X26701700Y-61403000D01*
%TO.N,/rp2040/QSPI_CS*%
X30600000Y-35700000D02*
X34535500Y-35700000D01*
X46487500Y-44087500D02*
X46487500Y-45200000D01*
X46487500Y-41200000D02*
X46487500Y-43169500D01*
X45787500Y-46812500D02*
X46487500Y-46112500D01*
X46487500Y-46112500D02*
X46487500Y-45200000D01*
X36454000Y-37618500D02*
X36454000Y-40582300D01*
X28550000Y-37750000D02*
X30600000Y-35700000D01*
X38852000Y-43314500D02*
X39166000Y-43628500D01*
X27837500Y-38525000D02*
X28275000Y-38525000D01*
X39166000Y-43628500D02*
X46028500Y-43628500D01*
X37984200Y-40712500D02*
X38852000Y-41580300D01*
X28275000Y-38525000D02*
X28550000Y-38250000D01*
X36584200Y-40712500D02*
X37984200Y-40712500D01*
X38852000Y-41580300D02*
X38852000Y-43314500D01*
X43850000Y-46812500D02*
X45787500Y-46812500D01*
X36454000Y-40582300D02*
X36584200Y-40712500D01*
X34535500Y-35700000D02*
X36454000Y-37618500D01*
X46487500Y-43169500D02*
X46028500Y-43628500D01*
X28550000Y-38250000D02*
X28550000Y-37750000D01*
X46028500Y-43628500D02*
X46487500Y-44087500D01*
%TO.N,/rp2040/MOSI*%
X13484200Y-35750000D02*
X12950000Y-36284200D01*
X12950000Y-36284200D02*
X12950000Y-37600000D01*
X12948000Y-37602000D02*
X12948000Y-50598000D01*
X25758000Y-63408000D02*
X31800000Y-63408000D01*
X19023000Y-39248000D02*
X19500000Y-39725000D01*
X12950000Y-37600000D02*
X12948000Y-37602000D01*
X13998000Y-35750000D02*
X13484200Y-35750000D01*
X14629000Y-23851000D02*
X13024678Y-23851000D01*
X19023000Y-36652000D02*
X19023000Y-39248000D01*
X15930000Y-22550000D02*
X14629000Y-23851000D01*
X12851000Y-32901000D02*
X13350000Y-33400000D01*
X17951700Y-36403000D02*
X18778000Y-36403000D01*
X33000000Y-64608000D02*
X33000000Y-72775000D01*
X19500000Y-39725000D02*
X20962500Y-39725000D01*
X12851000Y-24099000D02*
X12851000Y-32901000D01*
X18778000Y-36403000D02*
X19025000Y-36650000D01*
X15930000Y-21600000D02*
X15930000Y-22550000D01*
X13024678Y-23851000D02*
X13024678Y-23925322D01*
X31800000Y-63408000D02*
X33000000Y-64608000D01*
X13998000Y-35750000D02*
X17298700Y-35750000D01*
X19025000Y-36650000D02*
X19023000Y-36652000D01*
X12948000Y-50598000D02*
X25758000Y-63408000D01*
X17298700Y-35750000D02*
X17951700Y-36403000D01*
X13024678Y-23925322D02*
X12851000Y-24099000D01*
%TO.N,/rp2040/SCK*%
X35000000Y-64207000D02*
X35000000Y-72775000D01*
X13350000Y-36850000D02*
X13350000Y-50500000D01*
X14660000Y-22940000D02*
X14050000Y-23550000D01*
X15400000Y-35100000D02*
X15600000Y-34900000D01*
X19625000Y-35675000D02*
X19625000Y-39025000D01*
X12550000Y-23900000D02*
X12550000Y-33400000D01*
X14660000Y-21600000D02*
X14660000Y-22940000D01*
X19925000Y-39325000D02*
X20962500Y-39325000D01*
X18850000Y-34900000D02*
X19625000Y-35675000D01*
X25857000Y-63007000D02*
X33800000Y-63007000D01*
X12900000Y-23550000D02*
X12550000Y-23900000D01*
X15600000Y-34900000D02*
X18850000Y-34900000D01*
X33800000Y-63007000D02*
X35000000Y-64207000D01*
X13350000Y-50500000D02*
X25857000Y-63007000D01*
X14050000Y-23550000D02*
X12900000Y-23550000D01*
X19625000Y-39025000D02*
X19925000Y-39325000D01*
X13600000Y-36600000D02*
X13350000Y-36850000D01*
X14000000Y-36600000D02*
X13600000Y-36600000D01*
%TO.N,/rp2040/D-*%
X45475000Y-31475000D02*
X46600000Y-32600000D01*
X49000000Y-32600000D02*
X49800000Y-33400000D01*
X30300000Y-16062500D02*
X28649000Y-17713500D01*
X47560500Y-47839500D02*
X34489556Y-47839500D01*
X49800000Y-45600000D02*
X47560500Y-47839500D01*
X31000000Y-16062500D02*
X30300000Y-16062500D01*
X33227000Y-43798740D02*
X32668710Y-43240450D01*
X31149000Y-25499000D02*
X31149000Y-27349000D01*
X31374650Y-43240450D02*
X30257200Y-42123000D01*
X35275000Y-31475000D02*
X45475000Y-31475000D01*
X31149000Y-27349000D02*
X35275000Y-31475000D01*
X29727000Y-42123000D02*
X29725000Y-42125000D01*
X33227000Y-46576944D02*
X33227000Y-43798740D01*
X30257200Y-42123000D02*
X29727000Y-42123000D01*
X28649000Y-17713500D02*
X28649000Y-22999000D01*
X46600000Y-32600000D02*
X49000000Y-32600000D01*
X34489556Y-47839500D02*
X33227000Y-46576944D01*
X32668710Y-43240450D02*
X31374650Y-43240450D01*
X28649000Y-22999000D02*
X31149000Y-25499000D01*
X29725000Y-42125000D02*
X27837500Y-42125000D01*
X49800000Y-33400000D02*
X49800000Y-45600000D01*
%TO.N,/rp2040/RFM_IO2*%
X25576000Y-54301000D02*
X25576000Y-48367340D01*
X24200000Y-46991340D02*
X24200000Y-44562500D01*
X29000000Y-57725000D02*
X25576000Y-54301000D01*
X25576000Y-48367340D02*
X24200000Y-46991340D01*
%TO.N,Net-(IC1-XIN)*%
X20962500Y-40525000D02*
X18175000Y-40525000D01*
X18175000Y-40525000D02*
X17750000Y-40100000D01*
%TO.N,/rp2040/~{RESET}*%
X19025000Y-73350000D02*
X14951000Y-69276000D01*
X15000000Y-50900000D02*
X15000000Y-48745262D01*
X14996446Y-50903554D02*
X15000000Y-50900000D01*
X15992500Y-47752762D02*
X15992500Y-46924000D01*
X13100000Y-60582842D02*
X13100000Y-54500000D01*
X20962500Y-42925000D02*
X19875000Y-42925000D01*
X16876000Y-46924000D02*
X15992500Y-46924000D01*
X14951000Y-62433842D02*
X13100000Y-60582842D01*
X19875000Y-42925000D02*
X19400000Y-43400000D01*
X19025000Y-73350000D02*
X24175000Y-73350000D01*
X14951000Y-69276000D02*
X14951000Y-62433842D01*
X19400000Y-44400000D02*
X16876000Y-46924000D01*
X15000000Y-48745262D02*
X15992500Y-47752762D01*
X13100000Y-54500000D02*
X13600000Y-54000000D01*
X19400000Y-43400000D02*
X19400000Y-44400000D01*
%TO.N,/rp2040/RFM_IO1*%
X25175000Y-48575000D02*
X25175000Y-58175000D01*
X27200000Y-60200000D02*
X30400000Y-60200000D01*
X31000000Y-59600000D02*
X31000000Y-57725000D01*
X25175000Y-58175000D02*
X27200000Y-60200000D01*
X23800000Y-47200000D02*
X25175000Y-48575000D01*
X30400000Y-60200000D02*
X31000000Y-59600000D01*
X23800000Y-44562500D02*
X23800000Y-47200000D01*
%TO.N,/rp2040/RFM_IO0*%
X33000000Y-59200000D02*
X31599000Y-60601000D01*
X33000000Y-57725000D02*
X33000000Y-59200000D01*
X31599000Y-60601000D02*
X27033900Y-60601000D01*
X22400000Y-55967100D02*
X22400000Y-48200000D01*
X27033900Y-60601000D02*
X22400000Y-55967100D01*
X23000000Y-47600000D02*
X23000000Y-44562500D01*
X22400000Y-48200000D02*
X23000000Y-47600000D01*
%TO.N,/rp2040/RX*%
X39400000Y-31925000D02*
X43500000Y-31925000D01*
X44025000Y-32450000D02*
X44025000Y-34150000D01*
X26774000Y-32558900D02*
X27308900Y-32024000D01*
X29741100Y-32024000D02*
X30275000Y-32557900D01*
X34283790Y-31924000D02*
X39399000Y-31924000D01*
X26200000Y-36950000D02*
X26775000Y-36375000D01*
X26775000Y-36375000D02*
X26774000Y-36374000D01*
X26774000Y-36374000D02*
X26774000Y-32558900D01*
X26200000Y-37687500D02*
X26200000Y-36950000D01*
X30275000Y-32557900D02*
X30275000Y-33268750D01*
X31456250Y-34450000D02*
X33450000Y-34450000D01*
X39399000Y-31924000D02*
X39400000Y-31925000D01*
X43500000Y-31925000D02*
X44025000Y-32450000D01*
X27308900Y-32024000D02*
X29741100Y-32024000D01*
X30275000Y-33268750D02*
X31456250Y-34450000D01*
X33748000Y-32459790D02*
X34283790Y-31924000D01*
X33748000Y-34152000D02*
X33748000Y-32459790D01*
X33450000Y-34450000D02*
X33748000Y-34152000D01*
%TO.N,/rp2040/RFM_CS*%
X37000000Y-64367100D02*
X37000000Y-72775000D01*
X15992500Y-49110000D02*
X17890000Y-49110000D01*
X17890000Y-49110000D02*
X20396000Y-46604000D01*
X19800000Y-43600000D02*
X19800000Y-45800000D01*
X35238900Y-62606000D02*
X37000000Y-64367100D01*
X20396000Y-46604000D02*
X20396000Y-46396000D01*
X20396000Y-56800000D02*
X20396000Y-46604000D01*
X26206000Y-62606000D02*
X35238900Y-62606000D01*
X20962500Y-43325000D02*
X20075000Y-43325000D01*
X20075000Y-43325000D02*
X19800000Y-43600000D01*
X19800000Y-45800000D02*
X20396000Y-46396000D01*
X26202000Y-62606000D02*
X20396000Y-56800000D01*
%TO.N,/rp2040/D+*%
X32826000Y-43964840D02*
X32826000Y-46743043D01*
X34382957Y-48300000D02*
X47667100Y-48300000D01*
X29757900Y-42525000D02*
X29758900Y-42524000D01*
X32502610Y-43641450D02*
X32826000Y-43964840D01*
X27837500Y-42525000D02*
X29757900Y-42525000D01*
X50200000Y-45767100D02*
X50200000Y-17000000D01*
X29758900Y-42524000D02*
X30091100Y-42524000D01*
X31208550Y-43641450D02*
X32502610Y-43641450D01*
X49262500Y-16062500D02*
X47900000Y-16062500D01*
X32826000Y-46743043D02*
X34382957Y-48300000D01*
X47667100Y-48300000D02*
X50200000Y-45767100D01*
X50200000Y-17000000D02*
X49262500Y-16062500D01*
X30091100Y-42524000D02*
X31208550Y-43641450D01*
%TO.N,/rp2040/RFM_IO4*%
X22000000Y-56134200D02*
X22000000Y-48000000D01*
X22000000Y-48000000D02*
X22600000Y-47400000D01*
X37000000Y-57725000D02*
X37000000Y-59200000D01*
X37000000Y-59200000D02*
X35198000Y-61002000D01*
X22600000Y-47400000D02*
X22600000Y-44562500D01*
X26867800Y-61002000D02*
X22000000Y-56134200D01*
X35198000Y-61002000D02*
X26867800Y-61002000D01*
%TO.N,/rp2040/TX*%
X31200000Y-34850000D02*
X33750000Y-34850000D01*
X27475000Y-32425000D02*
X29575000Y-32425000D01*
X29875000Y-32725000D02*
X29875000Y-33525000D01*
X43300000Y-32725000D02*
X43300000Y-33675000D01*
X26600000Y-37687500D02*
X26600000Y-37150000D01*
X33750000Y-34850000D02*
X34149000Y-34451000D01*
X27175000Y-36575000D02*
X27175000Y-32725000D01*
X42900000Y-32325000D02*
X43300000Y-32725000D01*
X26600000Y-37150000D02*
X27175000Y-36575000D01*
X34149000Y-32625890D02*
X34449890Y-32325000D01*
X29575000Y-32425000D02*
X29875000Y-32725000D01*
X34149000Y-34451000D02*
X34149000Y-32625890D01*
X27175000Y-32725000D02*
X27475000Y-32425000D01*
X29875000Y-33525000D02*
X31200000Y-34850000D01*
X34449890Y-32325000D02*
X42900000Y-32325000D01*
%TO.N,/rp2040/USBBOOT*%
X31850735Y-30516365D02*
X31850735Y-28476413D01*
X26927000Y-31623000D02*
X29998000Y-31623000D01*
X26373000Y-32177000D02*
X26927000Y-31623000D01*
X19025000Y-66250000D02*
X24175000Y-66250000D01*
X25800000Y-37687500D02*
X25800000Y-36698000D01*
X30848000Y-26480900D02*
X29300000Y-24932900D01*
X25199000Y-20199000D02*
X13551000Y-20199000D01*
X19100000Y-66325000D02*
X19025000Y-66250000D01*
X26300000Y-21300000D02*
X25199000Y-20199000D01*
X31850735Y-28476413D02*
X30848000Y-27473678D01*
X19100000Y-67500000D02*
X19100000Y-66325000D01*
X30744100Y-31623000D02*
X31850735Y-30516365D01*
X29998000Y-31623000D02*
X31600000Y-33225000D01*
X29998000Y-31623000D02*
X30744100Y-31623000D01*
X29300000Y-24932900D02*
X29300000Y-24600000D01*
X26373000Y-36125000D02*
X26373000Y-32177000D01*
X30848000Y-27473678D02*
X30848000Y-26480900D01*
X25800000Y-36698000D02*
X26373000Y-36125000D01*
X26300000Y-25600000D02*
X26300000Y-21300000D01*
%TO.N,/pmu/NRST*%
X50501000Y-45891778D02*
X50501000Y-16875322D01*
X48900000Y-15200000D02*
X46950000Y-15200000D01*
X50400000Y-16700000D02*
X48900000Y-15200000D01*
X58200000Y-48400000D02*
X56100000Y-48400000D01*
X49700000Y-27400000D02*
X48600000Y-28500000D01*
X46600000Y-16750000D02*
X47000000Y-17150000D01*
X50200000Y-52300000D02*
X50200000Y-46192778D01*
X55600000Y-52950000D02*
X55200000Y-53350000D01*
X35600000Y-28500000D02*
X36601000Y-29501000D01*
X39749000Y-29501000D02*
X40750000Y-28500000D01*
X49700000Y-17300000D02*
X49700000Y-27400000D01*
X51250000Y-53350000D02*
X50200000Y-52300000D01*
X46950000Y-15200000D02*
X46600000Y-15550000D01*
X36601000Y-29501000D02*
X39749000Y-29501000D01*
X56100000Y-48400000D02*
X55600000Y-48900000D01*
X48600000Y-28500000D02*
X40750000Y-28500000D01*
X55200000Y-53350000D02*
X51250000Y-53350000D01*
X50501000Y-16875322D02*
X50400000Y-16774322D01*
X50400000Y-16774322D02*
X50400000Y-16700000D01*
X46600000Y-15550000D02*
X46600000Y-16750000D01*
X40750000Y-27250000D02*
X40750000Y-28500000D01*
X55600000Y-48900000D02*
X55600000Y-52950000D01*
X47000000Y-17150000D02*
X49550000Y-17150000D01*
X49550000Y-17150000D02*
X49700000Y-17300000D01*
X50200000Y-46192778D02*
X50501000Y-45891778D01*
D56*
%TO.N,Net-(Q1-D)*%
X54300000Y-26900000D02*
X53399000Y-27801000D01*
D54*
X53350000Y-34437500D02*
X53250000Y-34537500D01*
D56*
X53399000Y-34388500D02*
X53250000Y-34537500D01*
X53399000Y-27801000D02*
X53399000Y-34388500D01*
D54*
%TO.N,Net-(J4-D+-PadA6)*%
X31000000Y-14237500D02*
X31594500Y-13643000D01*
X31594500Y-13643000D02*
X38293000Y-13643000D01*
X38293000Y-13643000D02*
X39700000Y-15050000D01*
X39700000Y-15050000D02*
X39700000Y-19850000D01*
%TO.N,Net-(J4-CC2)*%
X37700000Y-19850000D02*
X37700000Y-22287500D01*
%TO.N,Net-(J4-D--PadA7)*%
X41850000Y-15550000D02*
X41850000Y-14550000D01*
X39200000Y-19850000D02*
X39200000Y-15850000D01*
X42712500Y-13687500D02*
X47350000Y-13687500D01*
X41850000Y-14550000D02*
X42712500Y-13687500D01*
X39200000Y-15850000D02*
X38900000Y-15550000D01*
X47350000Y-13687500D02*
X47900000Y-14237500D01*
D58*
%TO.N,GNDPWR*%
X31001000Y-81326000D02*
X25275000Y-75600000D01*
X17180000Y-75600000D02*
X15200000Y-73620000D01*
X34774000Y-81326000D02*
X31001000Y-81326000D01*
X36400000Y-79700000D02*
X34774000Y-81326000D01*
X25275000Y-75600000D02*
X17180000Y-75600000D01*
D54*
%TO.N,/pmu/MEAS_V*%
X31798000Y-52500000D02*
X36700000Y-52500000D01*
X31700000Y-52598000D02*
X31798000Y-52500000D01*
X35150000Y-34750000D02*
X35224293Y-34824293D01*
X35224293Y-34824293D02*
X35224293Y-34924293D01*
X35224293Y-34924293D02*
X37300000Y-37000000D01*
%TO.N,/rp2040/MT25_CS*%
X24200000Y-35600000D02*
X24427000Y-35373000D01*
X22949000Y-31951000D02*
X22280000Y-31282000D01*
X24427000Y-33065840D02*
X23312160Y-31951000D01*
X23312160Y-31951000D02*
X22949000Y-31951000D01*
X22280000Y-31282000D02*
X22280000Y-30900000D01*
X24200000Y-37687500D02*
X24200000Y-35600000D01*
X24427000Y-35373000D02*
X24427000Y-33065840D01*
%TO.N,Net-(J4-CC1)*%
X40700000Y-19850000D02*
X40700000Y-22087500D01*
X40700000Y-22087500D02*
X40500000Y-22287500D01*
%TO.N,/rp2040/MT25_RESET*%
X21084200Y-33550000D02*
X20684200Y-33150000D01*
X24026000Y-33976000D02*
X23600000Y-33550000D01*
X18450000Y-30900000D02*
X17200000Y-30900000D01*
X23600000Y-33550000D02*
X21084200Y-33550000D01*
X23800000Y-35261160D02*
X24026000Y-35035160D01*
X23800000Y-37687500D02*
X23800000Y-35261160D01*
X24026000Y-35035160D02*
X24026000Y-33976000D01*
X20684200Y-33134200D02*
X18450000Y-30900000D01*
X20684200Y-33150000D02*
X20684200Y-33134200D01*
%TO.N,/rp2040/VALVE_4*%
X57839000Y-70181000D02*
X58990000Y-69030000D01*
X20962500Y-36162500D02*
X20962500Y-38525000D01*
X25649000Y-74849000D02*
X26000000Y-75200000D01*
X50649338Y-81602000D02*
X52501000Y-79750338D01*
X26000000Y-75200000D02*
X26149322Y-75200000D01*
X17487161Y-73985161D02*
X18351000Y-74849000D01*
X14100000Y-34000000D02*
X18800000Y-34000000D01*
X13221000Y-34875000D02*
X12146000Y-35950000D01*
X34224678Y-75201000D02*
X41749662Y-75201000D01*
X14249000Y-62749000D02*
X14249000Y-69524678D01*
X57839000Y-72093017D02*
X57839000Y-70181000D01*
X48150662Y-81602000D02*
X50649338Y-81602000D01*
X52501000Y-75549000D02*
X55099000Y-72951000D01*
X18351000Y-74849000D02*
X25649000Y-74849000D01*
X26149322Y-75200000D02*
X26800322Y-75851000D01*
X41749662Y-75201000D02*
X48150662Y-81602000D01*
X14249000Y-69524678D02*
X17487161Y-72762839D01*
X13225000Y-34875000D02*
X14100000Y-34000000D01*
X55099000Y-72951000D02*
X56981017Y-72951000D01*
X12146000Y-60646000D02*
X14249000Y-62749000D01*
X12146000Y-35950000D02*
X12146000Y-60646000D01*
X18800000Y-34000000D02*
X20962500Y-36162500D01*
X52501000Y-79750338D02*
X52501000Y-75549000D01*
X56981017Y-72951000D02*
X57839000Y-72093017D01*
X17487161Y-72762839D02*
X17487161Y-73985161D01*
%TO.N,/rp2040/MOTOR_HI_1*%
X26000000Y-54000000D02*
X26000000Y-48200000D01*
X54900000Y-69375678D02*
X47049000Y-61524678D01*
X27200000Y-55200000D02*
X26000000Y-54000000D01*
X54900000Y-70850000D02*
X54900000Y-69375678D01*
X24600000Y-46800000D02*
X24600000Y-44562500D01*
X56450000Y-71570000D02*
X55620000Y-71570000D01*
X26000000Y-48200000D02*
X24600000Y-46800000D01*
X45800000Y-55200000D02*
X27200000Y-55200000D01*
X55620000Y-71570000D02*
X54900000Y-70850000D01*
X46699000Y-56099000D02*
X45800000Y-55200000D01*
X47049000Y-61524678D02*
X47049000Y-61499000D01*
X46699000Y-61149000D02*
X46699000Y-56099000D01*
X47049000Y-61499000D02*
X46699000Y-61149000D01*
%TO.N,/rp2040/MOTOR_LO_1*%
X26800000Y-47800000D02*
X26800000Y-53600000D01*
X46432900Y-54400000D02*
X47750000Y-55717100D01*
X47750000Y-61325678D02*
X52914322Y-66490000D01*
X52914322Y-66490000D02*
X56450000Y-66490000D01*
X47750000Y-55717100D02*
X47750000Y-61325678D01*
X25400000Y-46400000D02*
X26800000Y-47800000D01*
X27600000Y-54400000D02*
X46432900Y-54400000D01*
X25400000Y-44562500D02*
X25400000Y-46400000D01*
X26800000Y-53600000D02*
X27600000Y-54400000D01*
%TO.N,/rp2040/VALVE_3*%
X60041000Y-68594661D02*
X60041000Y-70519000D01*
X20400000Y-38925000D02*
X20224000Y-38749000D01*
X17800000Y-73549000D02*
X17800000Y-72650000D01*
X58554661Y-67979000D02*
X59425339Y-67979000D01*
X17800000Y-72650000D02*
X14650000Y-69500000D01*
X57900000Y-68633661D02*
X58554661Y-67979000D01*
X57900000Y-69650000D02*
X57900000Y-68633661D01*
X52200000Y-79625660D02*
X52200000Y-75400000D01*
X60041000Y-70519000D02*
X58990000Y-71570000D01*
X57501000Y-72005339D02*
X57501000Y-70049000D01*
X18700000Y-74449000D02*
X17800000Y-73549000D01*
X56856339Y-72650000D02*
X57501000Y-72005339D01*
X54950000Y-72650000D02*
X56856339Y-72650000D01*
X34100000Y-74900000D02*
X41874340Y-74900000D01*
X20224000Y-35849678D02*
X18675322Y-34301000D01*
X12547000Y-60455520D02*
X14650000Y-62558520D01*
X59425339Y-67979000D02*
X60041000Y-68594661D01*
X14650000Y-62558520D02*
X14650000Y-69500000D01*
X14366100Y-34301000D02*
X12547000Y-36120100D01*
X52200000Y-75400000D02*
X54950000Y-72650000D01*
X57501000Y-70049000D02*
X57900000Y-69650000D01*
X20962500Y-38925000D02*
X20400000Y-38925000D01*
X41874340Y-74900000D02*
X48275340Y-81301000D01*
X12547000Y-36120100D02*
X12547000Y-60455520D01*
X18700000Y-74449000D02*
X25824000Y-74449000D01*
X20224000Y-38749000D02*
X20224000Y-35849678D01*
X48275340Y-81301000D02*
X50524660Y-81301000D01*
X25824000Y-74449000D02*
X26925000Y-75550000D01*
X18675322Y-34301000D02*
X14366100Y-34301000D01*
X26925000Y-75550000D02*
X33450000Y-75550000D01*
X50524660Y-81301000D02*
X52200000Y-79625660D01*
%TO.N,/rp2040/MOTOR_HI_2*%
X27400000Y-54800000D02*
X26400000Y-53800000D01*
X26400000Y-53800000D02*
X26400000Y-48000000D01*
X47350000Y-61400000D02*
X54980000Y-69030000D01*
X54980000Y-69030000D02*
X56450000Y-69030000D01*
X47350000Y-55850000D02*
X46300000Y-54800000D01*
X25000000Y-46600000D02*
X25000000Y-44562500D01*
X26400000Y-48000000D02*
X25000000Y-46600000D01*
X46300000Y-54800000D02*
X27400000Y-54800000D01*
X47350000Y-61400000D02*
X47350000Y-55850000D01*
%TO.N,/rp2040/VALVE_2*%
X27602000Y-47402000D02*
X26200000Y-46000000D01*
X58990000Y-66490000D02*
X57800000Y-65300000D01*
X48500000Y-61225678D02*
X48500000Y-55332900D01*
X27966100Y-53599000D02*
X27602000Y-53234900D01*
X57401000Y-62801000D02*
X50075322Y-62801000D01*
X50075322Y-62801000D02*
X48500000Y-61225678D01*
X27602000Y-53234900D02*
X27602000Y-47402000D01*
X57800000Y-65300000D02*
X57800000Y-63200000D01*
X26200000Y-46000000D02*
X26200000Y-44562500D01*
X46766100Y-53599000D02*
X27966100Y-53599000D01*
X57800000Y-63200000D02*
X57401000Y-62801000D01*
X48500000Y-55332900D02*
X46766100Y-53599000D01*
%TO.N,/rp2040/MOTOR_LO_2*%
X27201000Y-53401000D02*
X27201000Y-47601000D01*
X25800000Y-46200000D02*
X25800000Y-44562500D01*
X48150000Y-61300000D02*
X48150000Y-55548000D01*
X50800000Y-63950000D02*
X48150000Y-61300000D01*
X48148000Y-55548000D02*
X46600000Y-54000000D01*
X56450000Y-63950000D02*
X50800000Y-63950000D01*
X27800000Y-54000000D02*
X27201000Y-53401000D01*
X48150000Y-55548000D02*
X48148000Y-55548000D01*
X27201000Y-47601000D02*
X25800000Y-46200000D01*
X46600000Y-54000000D02*
X27800000Y-54000000D01*
%TO.N,/rp2040/VALVE_1*%
X28003000Y-47203000D02*
X26600000Y-45800000D01*
X50200000Y-62500000D02*
X48852000Y-61152000D01*
X46932200Y-53198000D02*
X29001000Y-53198000D01*
X48852000Y-55117800D02*
X46932200Y-53198000D01*
X48852000Y-61152000D02*
X48852000Y-55117800D01*
X28003000Y-52200000D02*
X28003000Y-47203000D01*
X57540000Y-62500000D02*
X50200000Y-62500000D01*
X26600000Y-45800000D02*
X26600000Y-44562500D01*
X58990000Y-63950000D02*
X57540000Y-62500000D01*
X29001000Y-53198000D02*
X28003000Y-52200000D01*
D57*
%TO.N,Net-(Q2-S)*%
X54387500Y-20500000D02*
X58250000Y-20500000D01*
X58250000Y-20500000D02*
X59302500Y-21552500D01*
X59302500Y-21552500D02*
X59302500Y-26837500D01*
D54*
%TO.N,/rp2040/QSPI_D0*%
X35251000Y-38116800D02*
X35251000Y-41578500D01*
X27837500Y-39725000D02*
X29437500Y-39725000D01*
X34132200Y-36998000D02*
X35251000Y-38116800D01*
X35251000Y-41578500D02*
X36675000Y-43002500D01*
X31034900Y-36998000D02*
X34132200Y-36998000D01*
X29799000Y-38233900D02*
X31034900Y-36998000D01*
X29799000Y-39363500D02*
X29799000Y-38233900D01*
X29437500Y-39725000D02*
X29799000Y-39363500D01*
%TO.N,/rp2040/QSPI_D2*%
X30915800Y-36550000D02*
X34251300Y-36550000D01*
X44662499Y-44272500D02*
X43850000Y-44272500D01*
X38000000Y-41950000D02*
X38000000Y-44173000D01*
X35652000Y-40914500D02*
X36687500Y-41950000D01*
X29350000Y-38115800D02*
X30915800Y-36550000D01*
X36687500Y-41950000D02*
X38000000Y-41950000D01*
X44963500Y-44573501D02*
X44662499Y-44272500D01*
X38000000Y-44173000D02*
X40013500Y-46186500D01*
X29350000Y-39200000D02*
X29350000Y-38115800D01*
X40013500Y-46186500D02*
X44678490Y-46186500D01*
X34251300Y-36550000D02*
X35652000Y-37950700D01*
X29225000Y-39325000D02*
X29350000Y-39200000D01*
X44963500Y-45901490D02*
X44963500Y-44573501D01*
X35652000Y-37950700D02*
X35652000Y-40914500D01*
X44678490Y-46186500D02*
X44963500Y-45901490D01*
X27837500Y-39325000D02*
X29225000Y-39325000D01*
%TO.N,/rp2040/QSPI_D1*%
X36053000Y-37784600D02*
X36053000Y-40748400D01*
X38451000Y-44047700D02*
X39945800Y-45542500D01*
X28950000Y-37950000D02*
X30799000Y-36101000D01*
X37818100Y-41113500D02*
X38451000Y-41746400D01*
X34369400Y-36101000D02*
X36053000Y-37784600D01*
X39945800Y-45542500D02*
X43850000Y-45542500D01*
X30799000Y-36101000D02*
X34369400Y-36101000D01*
X28950000Y-38850000D02*
X28950000Y-37950000D01*
X28875000Y-38925000D02*
X28950000Y-38850000D01*
X27837500Y-38925000D02*
X28875000Y-38925000D01*
X38451000Y-41746400D02*
X38451000Y-44047700D01*
X36053000Y-40748400D02*
X36418100Y-41113500D01*
X36418100Y-41113500D02*
X37818100Y-41113500D01*
%TO.N,/rp2040/QSPI_D3*%
X35862501Y-45542500D02*
X35496740Y-45176739D01*
X35100000Y-42567100D02*
X34450000Y-41917100D01*
X30307900Y-40525000D02*
X27837500Y-40525000D01*
X34450000Y-41917100D02*
X34450000Y-38450000D01*
X31401000Y-37799000D02*
X30600000Y-38600000D01*
X35496740Y-45176739D02*
X35496740Y-43863830D01*
X33799000Y-37799000D02*
X31401000Y-37799000D01*
X30600000Y-38600000D02*
X30600000Y-40232900D01*
X35100000Y-43467090D02*
X35100000Y-42567100D01*
X36675000Y-45542500D02*
X35862501Y-45542500D01*
X35496740Y-43863830D02*
X35100000Y-43467090D01*
X30600000Y-40232900D02*
X30307900Y-40525000D01*
X34450000Y-38450000D02*
X33799000Y-37799000D01*
%TO.N,Net-(Q2-G)*%
X51474000Y-21109032D02*
X51474000Y-23424000D01*
X53190968Y-20749000D02*
X51834032Y-20749000D01*
X51474000Y-23424000D02*
X52400000Y-24350000D01*
X54387500Y-22400000D02*
X54387500Y-21945532D01*
X51834032Y-20749000D02*
X51474000Y-21109032D01*
X52400000Y-24350000D02*
X52400000Y-26950000D01*
X54387500Y-21945532D02*
X53190968Y-20749000D01*
D59*
%TO.N,Net-(J5-In)*%
X48006102Y-76249000D02*
X47449000Y-76806102D01*
X43000000Y-65650000D02*
X44800000Y-67450000D01*
X48002551Y-78997449D02*
X47900000Y-79100000D01*
X47449000Y-76806102D02*
X47449000Y-78443898D01*
X48200000Y-76249000D02*
X48006102Y-76249000D01*
X47449000Y-78443898D02*
X48002551Y-78997449D01*
X43000000Y-57725000D02*
X43000000Y-65650000D01*
X44800000Y-67450000D02*
X48200000Y-70850000D01*
X48200000Y-70850000D02*
X48200000Y-76249000D01*
D54*
%TO.N,VDD*%
X58990000Y-56690000D02*
X58200000Y-55900000D01*
X45000000Y-37250000D02*
X45000000Y-41461411D01*
X45000000Y-41461411D02*
X45887500Y-42348911D01*
X58990000Y-61410000D02*
X58990000Y-56690000D01*
X45887500Y-42348911D02*
X45887500Y-42581910D01*
%TO.N,/pmu/3V3_POWER_ON*%
X52437500Y-29600000D02*
X51800000Y-30237500D01*
X51800000Y-30237500D02*
X51800000Y-35450000D01*
X51800000Y-35450000D02*
X52427000Y-36077000D01*
X52427000Y-36077000D02*
X56590100Y-36077000D01*
%TO.N,/pmu/MEAS_CURRENT*%
X30650000Y-29951000D02*
X30499000Y-29951000D01*
X30499000Y-29951000D02*
X30450000Y-30000000D01*
X30450000Y-30000000D02*
X25350000Y-30000000D01*
%TD*%
M02*
