%TF.GenerationSoftware,KiCad,Pcbnew,9.0.6*%
%TF.CreationDate,2026-03-03T14:06:12-08:00*%
%TF.ProjectId,bramble,6272616d-626c-4652-9e6b-696361645f70,rev?*%
%TF.SameCoordinates,Original*%
%TF.FileFunction,Soldermask,Top*%
%TF.FilePolarity,Negative*%
%FSLAX46Y46*%
G04 Gerber Fmt 4.6, Leading zero omitted, Abs format (unit mm)*
G04 Created by KiCad (PCBNEW 9.0.6) date 2026-03-03 14:06:12*
%MOMM*%
%LPD*%
G01*
G04 APERTURE LIST*
G04 Aperture macros list*
%AMRoundRect*
0 Rectangle with rounded corners*
0 $1 Rounding radius*
0 $2 $3 $4 $5 $6 $7 $8 $9 X,Y pos of 4 corners*
0 Add a 4 corners polygon primitive as box body*
4,1,4,$2,$3,$4,$5,$6,$7,$8,$9,$2,$3,0*
0 Add four circle primitives for the rounded corners*
1,1,$1+$1,$2,$3*
1,1,$1+$1,$4,$5*
1,1,$1+$1,$6,$7*
1,1,$1+$1,$8,$9*
0 Add four rect primitives between the rounded corners*
20,1,$1+$1,$2,$3,$4,$5,0*
20,1,$1+$1,$4,$5,$6,$7,0*
20,1,$1+$1,$6,$7,$8,$9,0*
20,1,$1+$1,$8,$9,$2,$3,0*%
G04 Aperture macros list end*
%ADD10C,0.010000*%
%ADD11RoundRect,0.137500X0.662500X-0.137500X0.662500X0.137500X-0.662500X0.137500X-0.662500X-0.137500X0*%
%ADD12RoundRect,0.250000X0.250000X-0.475000X0.250000X0.475000X-0.250000X0.475000X-0.250000X-0.475000X0*%
%ADD13R,1.500000X1.500000*%
%ADD14RoundRect,0.140000X0.140000X0.170000X-0.140000X0.170000X-0.140000X-0.170000X0.140000X-0.170000X0*%
%ADD15RoundRect,0.250000X-0.600000X-0.600000X0.600000X-0.600000X0.600000X0.600000X-0.600000X0.600000X0*%
%ADD16C,1.700000*%
%ADD17R,1.500000X0.600000*%
%ADD18C,1.400000*%
%ADD19RoundRect,0.140000X-0.170000X0.140000X-0.170000X-0.140000X0.170000X-0.140000X0.170000X0.140000X0*%
%ADD20RoundRect,0.140000X-0.140000X-0.170000X0.140000X-0.170000X0.140000X0.170000X-0.140000X0.170000X0*%
%ADD21RoundRect,0.250000X0.350000X0.625000X-0.350000X0.625000X-0.350000X-0.625000X0.350000X-0.625000X0*%
%ADD22O,1.200000X1.750000*%
%ADD23RoundRect,0.150000X0.625000X-0.150000X0.625000X0.150000X-0.625000X0.150000X-0.625000X-0.150000X0*%
%ADD24RoundRect,0.250000X0.650000X-0.350000X0.650000X0.350000X-0.650000X0.350000X-0.650000X-0.350000X0*%
%ADD25RoundRect,0.317500X-1.157500X-0.317500X1.157500X-0.317500X1.157500X0.317500X-1.157500X0.317500X0*%
%ADD26RoundRect,0.140000X0.170000X-0.140000X0.170000X0.140000X-0.170000X0.140000X-0.170000X-0.140000X0*%
%ADD27C,7.000000*%
%ADD28RoundRect,0.250000X-0.450000X-0.350000X0.450000X-0.350000X0.450000X0.350000X-0.450000X0.350000X0*%
%ADD29RoundRect,0.075000X0.075000X0.425000X-0.075000X0.425000X-0.075000X-0.425000X0.075000X-0.425000X0*%
%ADD30C,1.100000*%
%ADD31RoundRect,0.100000X-0.400000X-0.400000X0.400000X-0.400000X0.400000X0.400000X-0.400000X0.400000X0*%
%ADD32RoundRect,0.105000X-0.420000X-0.995000X0.420000X-0.995000X0.420000X0.995000X-0.420000X0.995000X0*%
%ADD33C,2.400000*%
%ADD34RoundRect,0.055000X0.335000X-0.055000X0.335000X0.055000X-0.335000X0.055000X-0.335000X-0.055000X0*%
%ADD35RoundRect,0.055000X-0.055000X-0.335000X0.055000X-0.335000X0.055000X0.335000X-0.055000X0.335000X0*%
%ADD36C,0.600000*%
%ADD37R,1.133333X1.133333*%
%ADD38RoundRect,0.162500X-0.650000X-0.162500X0.650000X-0.162500X0.650000X0.162500X-0.650000X0.162500X0*%
%ADD39RoundRect,0.250000X-0.600000X-0.725000X0.600000X-0.725000X0.600000X0.725000X-0.600000X0.725000X0*%
%ADD40O,1.700000X1.950000*%
%ADD41R,0.700000X0.700000*%
%ADD42RoundRect,0.250000X0.475000X-0.250000X0.475000X0.250000X-0.475000X0.250000X-0.475000X-0.250000X0*%
%ADD43RoundRect,0.200000X0.275000X-0.200000X0.275000X0.200000X-0.275000X0.200000X-0.275000X-0.200000X0*%
%ADD44RoundRect,0.250000X-0.475000X-0.250000X0.475000X-0.250000X0.475000X0.250000X-0.475000X0.250000X0*%
%ADD45RoundRect,0.250000X0.262500X0.450000X-0.262500X0.450000X-0.262500X-0.450000X0.262500X-0.450000X0*%
%ADD46RoundRect,0.225000X-0.225000X-0.375000X0.225000X-0.375000X0.225000X0.375000X-0.225000X0.375000X0*%
G04 APERTURE END LIST*
D10*
%TO.C,VR1*%
X31085000Y-74091000D02*
X31091000Y-74091000D01*
X31096000Y-74092000D01*
X31101000Y-74093000D01*
X31106000Y-74095000D01*
X31111000Y-74097000D01*
X31116000Y-74099000D01*
X31120000Y-74101000D01*
X31125000Y-74103000D01*
X31129000Y-74106000D01*
X31134000Y-74109000D01*
X31138000Y-74112000D01*
X31142000Y-74116000D01*
X31146000Y-74119000D01*
X31149000Y-74123000D01*
X31153000Y-74127000D01*
X31156000Y-74131000D01*
X31159000Y-74136000D01*
X31162000Y-74140000D01*
X31164000Y-74145000D01*
X31166000Y-74149000D01*
X31168000Y-74154000D01*
X31170000Y-74159000D01*
X31172000Y-74164000D01*
X31173000Y-74169000D01*
X31174000Y-74174000D01*
X31174000Y-74180000D01*
X31175000Y-74185000D01*
X31175000Y-74190000D01*
X31175000Y-74310000D01*
X31175000Y-74315000D01*
X31174000Y-74320000D01*
X31174000Y-74326000D01*
X31173000Y-74331000D01*
X31172000Y-74336000D01*
X31170000Y-74341000D01*
X31168000Y-74346000D01*
X31166000Y-74351000D01*
X31164000Y-74355000D01*
X31162000Y-74360000D01*
X31159000Y-74364000D01*
X31156000Y-74369000D01*
X31153000Y-74373000D01*
X31149000Y-74377000D01*
X31146000Y-74381000D01*
X31142000Y-74384000D01*
X31138000Y-74388000D01*
X31134000Y-74391000D01*
X31129000Y-74394000D01*
X31125000Y-74397000D01*
X31120000Y-74399000D01*
X31116000Y-74401000D01*
X31111000Y-74403000D01*
X31106000Y-74405000D01*
X31101000Y-74407000D01*
X31096000Y-74408000D01*
X31091000Y-74409000D01*
X31085000Y-74409000D01*
X31080000Y-74410000D01*
X31075000Y-74410000D01*
X30575000Y-74410000D01*
X30570000Y-74410000D01*
X30565000Y-74409000D01*
X30559000Y-74409000D01*
X30554000Y-74408000D01*
X30549000Y-74407000D01*
X30544000Y-74405000D01*
X30539000Y-74403000D01*
X30534000Y-74401000D01*
X30530000Y-74399000D01*
X30525000Y-74397000D01*
X30521000Y-74394000D01*
X30516000Y-74391000D01*
X30512000Y-74388000D01*
X30508000Y-74384000D01*
X30504000Y-74381000D01*
X30501000Y-74377000D01*
X30497000Y-74373000D01*
X30494000Y-74369000D01*
X30491000Y-74364000D01*
X30488000Y-74360000D01*
X30486000Y-74355000D01*
X30484000Y-74351000D01*
X30482000Y-74346000D01*
X30480000Y-74341000D01*
X30478000Y-74336000D01*
X30477000Y-74331000D01*
X30476000Y-74326000D01*
X30476000Y-74320000D01*
X30475000Y-74315000D01*
X30475000Y-74310000D01*
X30475000Y-74190000D01*
X30475000Y-74185000D01*
X30476000Y-74180000D01*
X30476000Y-74174000D01*
X30477000Y-74169000D01*
X30478000Y-74164000D01*
X30480000Y-74159000D01*
X30482000Y-74154000D01*
X30484000Y-74149000D01*
X30486000Y-74145000D01*
X30488000Y-74140000D01*
X30491000Y-74136000D01*
X30494000Y-74131000D01*
X30497000Y-74127000D01*
X30501000Y-74123000D01*
X30504000Y-74119000D01*
X30508000Y-74116000D01*
X30512000Y-74112000D01*
X30516000Y-74109000D01*
X30521000Y-74106000D01*
X30525000Y-74103000D01*
X30530000Y-74101000D01*
X30534000Y-74099000D01*
X30539000Y-74097000D01*
X30544000Y-74095000D01*
X30549000Y-74093000D01*
X30554000Y-74092000D01*
X30559000Y-74091000D01*
X30565000Y-74091000D01*
X30570000Y-74090000D01*
X30575000Y-74090000D01*
X31075000Y-74090000D01*
X31080000Y-74090000D01*
X31085000Y-74091000D01*
G36*
X31085000Y-74091000D02*
G01*
X31091000Y-74091000D01*
X31096000Y-74092000D01*
X31101000Y-74093000D01*
X31106000Y-74095000D01*
X31111000Y-74097000D01*
X31116000Y-74099000D01*
X31120000Y-74101000D01*
X31125000Y-74103000D01*
X31129000Y-74106000D01*
X31134000Y-74109000D01*
X31138000Y-74112000D01*
X31142000Y-74116000D01*
X31146000Y-74119000D01*
X31149000Y-74123000D01*
X31153000Y-74127000D01*
X31156000Y-74131000D01*
X31159000Y-74136000D01*
X31162000Y-74140000D01*
X31164000Y-74145000D01*
X31166000Y-74149000D01*
X31168000Y-74154000D01*
X31170000Y-74159000D01*
X31172000Y-74164000D01*
X31173000Y-74169000D01*
X31174000Y-74174000D01*
X31174000Y-74180000D01*
X31175000Y-74185000D01*
X31175000Y-74190000D01*
X31175000Y-74310000D01*
X31175000Y-74315000D01*
X31174000Y-74320000D01*
X31174000Y-74326000D01*
X31173000Y-74331000D01*
X31172000Y-74336000D01*
X31170000Y-74341000D01*
X31168000Y-74346000D01*
X31166000Y-74351000D01*
X31164000Y-74355000D01*
X31162000Y-74360000D01*
X31159000Y-74364000D01*
X31156000Y-74369000D01*
X31153000Y-74373000D01*
X31149000Y-74377000D01*
X31146000Y-74381000D01*
X31142000Y-74384000D01*
X31138000Y-74388000D01*
X31134000Y-74391000D01*
X31129000Y-74394000D01*
X31125000Y-74397000D01*
X31120000Y-74399000D01*
X31116000Y-74401000D01*
X31111000Y-74403000D01*
X31106000Y-74405000D01*
X31101000Y-74407000D01*
X31096000Y-74408000D01*
X31091000Y-74409000D01*
X31085000Y-74409000D01*
X31080000Y-74410000D01*
X31075000Y-74410000D01*
X30575000Y-74410000D01*
X30570000Y-74410000D01*
X30565000Y-74409000D01*
X30559000Y-74409000D01*
X30554000Y-74408000D01*
X30549000Y-74407000D01*
X30544000Y-74405000D01*
X30539000Y-74403000D01*
X30534000Y-74401000D01*
X30530000Y-74399000D01*
X30525000Y-74397000D01*
X30521000Y-74394000D01*
X30516000Y-74391000D01*
X30512000Y-74388000D01*
X30508000Y-74384000D01*
X30504000Y-74381000D01*
X30501000Y-74377000D01*
X30497000Y-74373000D01*
X30494000Y-74369000D01*
X30491000Y-74364000D01*
X30488000Y-74360000D01*
X30486000Y-74355000D01*
X30484000Y-74351000D01*
X30482000Y-74346000D01*
X30480000Y-74341000D01*
X30478000Y-74336000D01*
X30477000Y-74331000D01*
X30476000Y-74326000D01*
X30476000Y-74320000D01*
X30475000Y-74315000D01*
X30475000Y-74310000D01*
X30475000Y-74190000D01*
X30475000Y-74185000D01*
X30476000Y-74180000D01*
X30476000Y-74174000D01*
X30477000Y-74169000D01*
X30478000Y-74164000D01*
X30480000Y-74159000D01*
X30482000Y-74154000D01*
X30484000Y-74149000D01*
X30486000Y-74145000D01*
X30488000Y-74140000D01*
X30491000Y-74136000D01*
X30494000Y-74131000D01*
X30497000Y-74127000D01*
X30501000Y-74123000D01*
X30504000Y-74119000D01*
X30508000Y-74116000D01*
X30512000Y-74112000D01*
X30516000Y-74109000D01*
X30521000Y-74106000D01*
X30525000Y-74103000D01*
X30530000Y-74101000D01*
X30534000Y-74099000D01*
X30539000Y-74097000D01*
X30544000Y-74095000D01*
X30549000Y-74093000D01*
X30554000Y-74092000D01*
X30559000Y-74091000D01*
X30565000Y-74091000D01*
X30570000Y-74090000D01*
X30575000Y-74090000D01*
X31075000Y-74090000D01*
X31080000Y-74090000D01*
X31085000Y-74091000D01*
G37*
X31085000Y-75091000D02*
X31091000Y-75091000D01*
X31096000Y-75092000D01*
X31101000Y-75093000D01*
X31106000Y-75095000D01*
X31111000Y-75097000D01*
X31116000Y-75099000D01*
X31120000Y-75101000D01*
X31125000Y-75103000D01*
X31129000Y-75106000D01*
X31134000Y-75109000D01*
X31138000Y-75112000D01*
X31142000Y-75116000D01*
X31146000Y-75119000D01*
X31149000Y-75123000D01*
X31153000Y-75127000D01*
X31156000Y-75131000D01*
X31159000Y-75136000D01*
X31162000Y-75140000D01*
X31164000Y-75145000D01*
X31166000Y-75149000D01*
X31168000Y-75154000D01*
X31170000Y-75159000D01*
X31172000Y-75164000D01*
X31173000Y-75169000D01*
X31174000Y-75174000D01*
X31174000Y-75180000D01*
X31175000Y-75185000D01*
X31175000Y-75190000D01*
X31175000Y-75310000D01*
X31175000Y-75315000D01*
X31174000Y-75320000D01*
X31174000Y-75326000D01*
X31173000Y-75331000D01*
X31172000Y-75336000D01*
X31170000Y-75341000D01*
X31168000Y-75346000D01*
X31166000Y-75351000D01*
X31164000Y-75355000D01*
X31162000Y-75360000D01*
X31159000Y-75364000D01*
X31156000Y-75369000D01*
X31153000Y-75373000D01*
X31149000Y-75377000D01*
X31146000Y-75381000D01*
X31142000Y-75384000D01*
X31138000Y-75388000D01*
X31134000Y-75391000D01*
X31129000Y-75394000D01*
X31125000Y-75397000D01*
X31120000Y-75399000D01*
X31116000Y-75401000D01*
X31111000Y-75403000D01*
X31106000Y-75405000D01*
X31101000Y-75407000D01*
X31096000Y-75408000D01*
X31091000Y-75409000D01*
X31085000Y-75409000D01*
X31080000Y-75410000D01*
X31075000Y-75410000D01*
X30575000Y-75410000D01*
X30570000Y-75410000D01*
X30565000Y-75409000D01*
X30559000Y-75409000D01*
X30554000Y-75408000D01*
X30549000Y-75407000D01*
X30544000Y-75405000D01*
X30539000Y-75403000D01*
X30534000Y-75401000D01*
X30530000Y-75399000D01*
X30525000Y-75397000D01*
X30521000Y-75394000D01*
X30516000Y-75391000D01*
X30512000Y-75388000D01*
X30508000Y-75384000D01*
X30504000Y-75381000D01*
X30501000Y-75377000D01*
X30497000Y-75373000D01*
X30494000Y-75369000D01*
X30491000Y-75364000D01*
X30488000Y-75360000D01*
X30486000Y-75355000D01*
X30484000Y-75351000D01*
X30482000Y-75346000D01*
X30480000Y-75341000D01*
X30478000Y-75336000D01*
X30477000Y-75331000D01*
X30476000Y-75326000D01*
X30476000Y-75320000D01*
X30475000Y-75315000D01*
X30475000Y-75310000D01*
X30475000Y-75190000D01*
X30475000Y-75185000D01*
X30476000Y-75180000D01*
X30476000Y-75174000D01*
X30477000Y-75169000D01*
X30478000Y-75164000D01*
X30480000Y-75159000D01*
X30482000Y-75154000D01*
X30484000Y-75149000D01*
X30486000Y-75145000D01*
X30488000Y-75140000D01*
X30491000Y-75136000D01*
X30494000Y-75131000D01*
X30497000Y-75127000D01*
X30501000Y-75123000D01*
X30504000Y-75119000D01*
X30508000Y-75116000D01*
X30512000Y-75112000D01*
X30516000Y-75109000D01*
X30521000Y-75106000D01*
X30525000Y-75103000D01*
X30530000Y-75101000D01*
X30534000Y-75099000D01*
X30539000Y-75097000D01*
X30544000Y-75095000D01*
X30549000Y-75093000D01*
X30554000Y-75092000D01*
X30559000Y-75091000D01*
X30565000Y-75091000D01*
X30570000Y-75090000D01*
X30575000Y-75090000D01*
X31075000Y-75090000D01*
X31080000Y-75090000D01*
X31085000Y-75091000D01*
G36*
X31085000Y-75091000D02*
G01*
X31091000Y-75091000D01*
X31096000Y-75092000D01*
X31101000Y-75093000D01*
X31106000Y-75095000D01*
X31111000Y-75097000D01*
X31116000Y-75099000D01*
X31120000Y-75101000D01*
X31125000Y-75103000D01*
X31129000Y-75106000D01*
X31134000Y-75109000D01*
X31138000Y-75112000D01*
X31142000Y-75116000D01*
X31146000Y-75119000D01*
X31149000Y-75123000D01*
X31153000Y-75127000D01*
X31156000Y-75131000D01*
X31159000Y-75136000D01*
X31162000Y-75140000D01*
X31164000Y-75145000D01*
X31166000Y-75149000D01*
X31168000Y-75154000D01*
X31170000Y-75159000D01*
X31172000Y-75164000D01*
X31173000Y-75169000D01*
X31174000Y-75174000D01*
X31174000Y-75180000D01*
X31175000Y-75185000D01*
X31175000Y-75190000D01*
X31175000Y-75310000D01*
X31175000Y-75315000D01*
X31174000Y-75320000D01*
X31174000Y-75326000D01*
X31173000Y-75331000D01*
X31172000Y-75336000D01*
X31170000Y-75341000D01*
X31168000Y-75346000D01*
X31166000Y-75351000D01*
X31164000Y-75355000D01*
X31162000Y-75360000D01*
X31159000Y-75364000D01*
X31156000Y-75369000D01*
X31153000Y-75373000D01*
X31149000Y-75377000D01*
X31146000Y-75381000D01*
X31142000Y-75384000D01*
X31138000Y-75388000D01*
X31134000Y-75391000D01*
X31129000Y-75394000D01*
X31125000Y-75397000D01*
X31120000Y-75399000D01*
X31116000Y-75401000D01*
X31111000Y-75403000D01*
X31106000Y-75405000D01*
X31101000Y-75407000D01*
X31096000Y-75408000D01*
X31091000Y-75409000D01*
X31085000Y-75409000D01*
X31080000Y-75410000D01*
X31075000Y-75410000D01*
X30575000Y-75410000D01*
X30570000Y-75410000D01*
X30565000Y-75409000D01*
X30559000Y-75409000D01*
X30554000Y-75408000D01*
X30549000Y-75407000D01*
X30544000Y-75405000D01*
X30539000Y-75403000D01*
X30534000Y-75401000D01*
X30530000Y-75399000D01*
X30525000Y-75397000D01*
X30521000Y-75394000D01*
X30516000Y-75391000D01*
X30512000Y-75388000D01*
X30508000Y-75384000D01*
X30504000Y-75381000D01*
X30501000Y-75377000D01*
X30497000Y-75373000D01*
X30494000Y-75369000D01*
X30491000Y-75364000D01*
X30488000Y-75360000D01*
X30486000Y-75355000D01*
X30484000Y-75351000D01*
X30482000Y-75346000D01*
X30480000Y-75341000D01*
X30478000Y-75336000D01*
X30477000Y-75331000D01*
X30476000Y-75326000D01*
X30476000Y-75320000D01*
X30475000Y-75315000D01*
X30475000Y-75310000D01*
X30475000Y-75190000D01*
X30475000Y-75185000D01*
X30476000Y-75180000D01*
X30476000Y-75174000D01*
X30477000Y-75169000D01*
X30478000Y-75164000D01*
X30480000Y-75159000D01*
X30482000Y-75154000D01*
X30484000Y-75149000D01*
X30486000Y-75145000D01*
X30488000Y-75140000D01*
X30491000Y-75136000D01*
X30494000Y-75131000D01*
X30497000Y-75127000D01*
X30501000Y-75123000D01*
X30504000Y-75119000D01*
X30508000Y-75116000D01*
X30512000Y-75112000D01*
X30516000Y-75109000D01*
X30521000Y-75106000D01*
X30525000Y-75103000D01*
X30530000Y-75101000D01*
X30534000Y-75099000D01*
X30539000Y-75097000D01*
X30544000Y-75095000D01*
X30549000Y-75093000D01*
X30554000Y-75092000D01*
X30559000Y-75091000D01*
X30565000Y-75091000D01*
X30570000Y-75090000D01*
X30575000Y-75090000D01*
X31075000Y-75090000D01*
X31080000Y-75090000D01*
X31085000Y-75091000D01*
G37*
X31085000Y-74591000D02*
X31091000Y-74591000D01*
X31096000Y-74592000D01*
X31101000Y-74593000D01*
X31106000Y-74595000D01*
X31111000Y-74597000D01*
X31116000Y-74599000D01*
X31120000Y-74601000D01*
X31125000Y-74603000D01*
X31129000Y-74606000D01*
X31134000Y-74609000D01*
X31138000Y-74612000D01*
X31142000Y-74616000D01*
X31146000Y-74619000D01*
X31149000Y-74623000D01*
X31153000Y-74627000D01*
X31156000Y-74631000D01*
X31159000Y-74636000D01*
X31162000Y-74640000D01*
X31164000Y-74645000D01*
X31166000Y-74649000D01*
X31168000Y-74654000D01*
X31170000Y-74659000D01*
X31172000Y-74664000D01*
X31173000Y-74669000D01*
X31174000Y-74674000D01*
X31174000Y-74680000D01*
X31175000Y-74685000D01*
X31175000Y-74690000D01*
X31175000Y-74810000D01*
X31175000Y-74815000D01*
X31174000Y-74820000D01*
X31174000Y-74826000D01*
X31173000Y-74831000D01*
X31172000Y-74836000D01*
X31170000Y-74841000D01*
X31168000Y-74846000D01*
X31166000Y-74851000D01*
X31164000Y-74855000D01*
X31162000Y-74860000D01*
X31159000Y-74864000D01*
X31156000Y-74869000D01*
X31153000Y-74873000D01*
X31149000Y-74877000D01*
X31146000Y-74881000D01*
X31142000Y-74884000D01*
X31138000Y-74888000D01*
X31134000Y-74891000D01*
X31129000Y-74894000D01*
X31125000Y-74897000D01*
X31120000Y-74899000D01*
X31116000Y-74901000D01*
X31111000Y-74903000D01*
X31106000Y-74905000D01*
X31101000Y-74907000D01*
X31096000Y-74908000D01*
X31091000Y-74909000D01*
X31085000Y-74909000D01*
X31080000Y-74910000D01*
X31075000Y-74910000D01*
X30575000Y-74910000D01*
X30570000Y-74910000D01*
X30565000Y-74909000D01*
X30559000Y-74909000D01*
X30554000Y-74908000D01*
X30549000Y-74907000D01*
X30544000Y-74905000D01*
X30539000Y-74903000D01*
X30534000Y-74901000D01*
X30530000Y-74899000D01*
X30525000Y-74897000D01*
X30521000Y-74894000D01*
X30516000Y-74891000D01*
X30512000Y-74888000D01*
X30508000Y-74884000D01*
X30504000Y-74881000D01*
X30501000Y-74877000D01*
X30497000Y-74873000D01*
X30494000Y-74869000D01*
X30491000Y-74864000D01*
X30488000Y-74860000D01*
X30486000Y-74855000D01*
X30484000Y-74851000D01*
X30482000Y-74846000D01*
X30480000Y-74841000D01*
X30478000Y-74836000D01*
X30477000Y-74831000D01*
X30476000Y-74826000D01*
X30476000Y-74820000D01*
X30475000Y-74815000D01*
X30475000Y-74810000D01*
X30475000Y-74690000D01*
X30475000Y-74685000D01*
X30476000Y-74680000D01*
X30476000Y-74674000D01*
X30477000Y-74669000D01*
X30478000Y-74664000D01*
X30480000Y-74659000D01*
X30482000Y-74654000D01*
X30484000Y-74649000D01*
X30486000Y-74645000D01*
X30488000Y-74640000D01*
X30491000Y-74636000D01*
X30494000Y-74631000D01*
X30497000Y-74627000D01*
X30501000Y-74623000D01*
X30504000Y-74619000D01*
X30508000Y-74616000D01*
X30512000Y-74612000D01*
X30516000Y-74609000D01*
X30521000Y-74606000D01*
X30525000Y-74603000D01*
X30530000Y-74601000D01*
X30534000Y-74599000D01*
X30539000Y-74597000D01*
X30544000Y-74595000D01*
X30549000Y-74593000D01*
X30554000Y-74592000D01*
X30559000Y-74591000D01*
X30565000Y-74591000D01*
X30570000Y-74590000D01*
X30575000Y-74590000D01*
X31075000Y-74590000D01*
X31080000Y-74590000D01*
X31085000Y-74591000D01*
G36*
X31085000Y-74591000D02*
G01*
X31091000Y-74591000D01*
X31096000Y-74592000D01*
X31101000Y-74593000D01*
X31106000Y-74595000D01*
X31111000Y-74597000D01*
X31116000Y-74599000D01*
X31120000Y-74601000D01*
X31125000Y-74603000D01*
X31129000Y-74606000D01*
X31134000Y-74609000D01*
X31138000Y-74612000D01*
X31142000Y-74616000D01*
X31146000Y-74619000D01*
X31149000Y-74623000D01*
X31153000Y-74627000D01*
X31156000Y-74631000D01*
X31159000Y-74636000D01*
X31162000Y-74640000D01*
X31164000Y-74645000D01*
X31166000Y-74649000D01*
X31168000Y-74654000D01*
X31170000Y-74659000D01*
X31172000Y-74664000D01*
X31173000Y-74669000D01*
X31174000Y-74674000D01*
X31174000Y-74680000D01*
X31175000Y-74685000D01*
X31175000Y-74690000D01*
X31175000Y-74810000D01*
X31175000Y-74815000D01*
X31174000Y-74820000D01*
X31174000Y-74826000D01*
X31173000Y-74831000D01*
X31172000Y-74836000D01*
X31170000Y-74841000D01*
X31168000Y-74846000D01*
X31166000Y-74851000D01*
X31164000Y-74855000D01*
X31162000Y-74860000D01*
X31159000Y-74864000D01*
X31156000Y-74869000D01*
X31153000Y-74873000D01*
X31149000Y-74877000D01*
X31146000Y-74881000D01*
X31142000Y-74884000D01*
X31138000Y-74888000D01*
X31134000Y-74891000D01*
X31129000Y-74894000D01*
X31125000Y-74897000D01*
X31120000Y-74899000D01*
X31116000Y-74901000D01*
X31111000Y-74903000D01*
X31106000Y-74905000D01*
X31101000Y-74907000D01*
X31096000Y-74908000D01*
X31091000Y-74909000D01*
X31085000Y-74909000D01*
X31080000Y-74910000D01*
X31075000Y-74910000D01*
X30575000Y-74910000D01*
X30570000Y-74910000D01*
X30565000Y-74909000D01*
X30559000Y-74909000D01*
X30554000Y-74908000D01*
X30549000Y-74907000D01*
X30544000Y-74905000D01*
X30539000Y-74903000D01*
X30534000Y-74901000D01*
X30530000Y-74899000D01*
X30525000Y-74897000D01*
X30521000Y-74894000D01*
X30516000Y-74891000D01*
X30512000Y-74888000D01*
X30508000Y-74884000D01*
X30504000Y-74881000D01*
X30501000Y-74877000D01*
X30497000Y-74873000D01*
X30494000Y-74869000D01*
X30491000Y-74864000D01*
X30488000Y-74860000D01*
X30486000Y-74855000D01*
X30484000Y-74851000D01*
X30482000Y-74846000D01*
X30480000Y-74841000D01*
X30478000Y-74836000D01*
X30477000Y-74831000D01*
X30476000Y-74826000D01*
X30476000Y-74820000D01*
X30475000Y-74815000D01*
X30475000Y-74810000D01*
X30475000Y-74690000D01*
X30475000Y-74685000D01*
X30476000Y-74680000D01*
X30476000Y-74674000D01*
X30477000Y-74669000D01*
X30478000Y-74664000D01*
X30480000Y-74659000D01*
X30482000Y-74654000D01*
X30484000Y-74649000D01*
X30486000Y-74645000D01*
X30488000Y-74640000D01*
X30491000Y-74636000D01*
X30494000Y-74631000D01*
X30497000Y-74627000D01*
X30501000Y-74623000D01*
X30504000Y-74619000D01*
X30508000Y-74616000D01*
X30512000Y-74612000D01*
X30516000Y-74609000D01*
X30521000Y-74606000D01*
X30525000Y-74603000D01*
X30530000Y-74601000D01*
X30534000Y-74599000D01*
X30539000Y-74597000D01*
X30544000Y-74595000D01*
X30549000Y-74593000D01*
X30554000Y-74592000D01*
X30559000Y-74591000D01*
X30565000Y-74591000D01*
X30570000Y-74590000D01*
X30575000Y-74590000D01*
X31075000Y-74590000D01*
X31080000Y-74590000D01*
X31085000Y-74591000D01*
G37*
X30008000Y-72901000D02*
X30010000Y-72901000D01*
X30013000Y-72902000D01*
X30015000Y-72902000D01*
X30018000Y-72903000D01*
X30020000Y-72904000D01*
X30023000Y-72905000D01*
X30025000Y-72907000D01*
X30027000Y-72908000D01*
X30029000Y-72910000D01*
X30031000Y-72911000D01*
X30033000Y-72913000D01*
X30035000Y-72915000D01*
X30037000Y-72917000D01*
X30039000Y-72919000D01*
X30040000Y-72921000D01*
X30042000Y-72923000D01*
X30043000Y-72925000D01*
X30045000Y-72927000D01*
X30046000Y-72930000D01*
X30047000Y-72932000D01*
X30048000Y-72935000D01*
X30048000Y-72937000D01*
X30049000Y-72940000D01*
X30049000Y-72942000D01*
X30050000Y-72945000D01*
X30050000Y-72947000D01*
X30050000Y-72950000D01*
X30050000Y-73250000D01*
X30050000Y-73253000D01*
X30050000Y-73255000D01*
X30051000Y-73258000D01*
X30051000Y-73260000D01*
X30052000Y-73263000D01*
X30052000Y-73265000D01*
X30053000Y-73268000D01*
X30054000Y-73270000D01*
X30055000Y-73273000D01*
X30057000Y-73275000D01*
X30058000Y-73277000D01*
X30060000Y-73279000D01*
X30061000Y-73281000D01*
X30063000Y-73283000D01*
X30065000Y-73285000D01*
X30067000Y-73287000D01*
X30069000Y-73289000D01*
X30071000Y-73290000D01*
X30073000Y-73292000D01*
X30075000Y-73293000D01*
X30077000Y-73295000D01*
X30080000Y-73296000D01*
X30082000Y-73297000D01*
X30085000Y-73298000D01*
X30087000Y-73298000D01*
X30090000Y-73299000D01*
X30092000Y-73299000D01*
X30095000Y-73300000D01*
X30097000Y-73300000D01*
X30100000Y-73300000D01*
X30250000Y-73300000D01*
X30253000Y-73300000D01*
X30255000Y-73300000D01*
X30258000Y-73299000D01*
X30260000Y-73299000D01*
X30263000Y-73298000D01*
X30265000Y-73298000D01*
X30268000Y-73297000D01*
X30270000Y-73296000D01*
X30273000Y-73295000D01*
X30275000Y-73293000D01*
X30277000Y-73292000D01*
X30279000Y-73290000D01*
X30281000Y-73289000D01*
X30283000Y-73287000D01*
X30285000Y-73285000D01*
X30287000Y-73283000D01*
X30289000Y-73281000D01*
X30290000Y-73279000D01*
X30292000Y-73277000D01*
X30293000Y-73275000D01*
X30295000Y-73273000D01*
X30296000Y-73270000D01*
X30297000Y-73268000D01*
X30298000Y-73265000D01*
X30298000Y-73263000D01*
X30299000Y-73260000D01*
X30299000Y-73258000D01*
X30300000Y-73255000D01*
X30300000Y-73253000D01*
X30300000Y-73250000D01*
X30300000Y-72950000D01*
X30300000Y-72947000D01*
X30300000Y-72945000D01*
X30301000Y-72942000D01*
X30301000Y-72940000D01*
X30302000Y-72937000D01*
X30302000Y-72935000D01*
X30303000Y-72932000D01*
X30304000Y-72930000D01*
X30305000Y-72927000D01*
X30307000Y-72925000D01*
X30308000Y-72923000D01*
X30310000Y-72921000D01*
X30311000Y-72919000D01*
X30313000Y-72917000D01*
X30315000Y-72915000D01*
X30317000Y-72913000D01*
X30319000Y-72911000D01*
X30321000Y-72910000D01*
X30323000Y-72908000D01*
X30325000Y-72907000D01*
X30327000Y-72905000D01*
X30330000Y-72904000D01*
X30332000Y-72903000D01*
X30335000Y-72902000D01*
X30337000Y-72902000D01*
X30340000Y-72901000D01*
X30342000Y-72901000D01*
X30345000Y-72900000D01*
X30347000Y-72900000D01*
X30350000Y-72900000D01*
X30500000Y-72900000D01*
X30503000Y-72900000D01*
X30505000Y-72900000D01*
X30508000Y-72901000D01*
X30510000Y-72901000D01*
X30513000Y-72902000D01*
X30515000Y-72902000D01*
X30518000Y-72903000D01*
X30520000Y-72904000D01*
X30523000Y-72905000D01*
X30525000Y-72907000D01*
X30527000Y-72908000D01*
X30529000Y-72910000D01*
X30531000Y-72911000D01*
X30533000Y-72913000D01*
X30535000Y-72915000D01*
X30537000Y-72917000D01*
X30539000Y-72919000D01*
X30540000Y-72921000D01*
X30542000Y-72923000D01*
X30543000Y-72925000D01*
X30545000Y-72927000D01*
X30546000Y-72930000D01*
X30547000Y-72932000D01*
X30548000Y-72935000D01*
X30548000Y-72937000D01*
X30549000Y-72940000D01*
X30549000Y-72942000D01*
X30550000Y-72945000D01*
X30550000Y-72947000D01*
X30550000Y-72950000D01*
X30550000Y-73250000D01*
X30550000Y-73253000D01*
X30550000Y-73255000D01*
X30551000Y-73258000D01*
X30551000Y-73260000D01*
X30552000Y-73263000D01*
X30552000Y-73265000D01*
X30553000Y-73268000D01*
X30554000Y-73270000D01*
X30555000Y-73273000D01*
X30557000Y-73275000D01*
X30558000Y-73277000D01*
X30560000Y-73279000D01*
X30561000Y-73281000D01*
X30563000Y-73283000D01*
X30565000Y-73285000D01*
X30567000Y-73287000D01*
X30569000Y-73289000D01*
X30571000Y-73290000D01*
X30573000Y-73292000D01*
X30575000Y-73293000D01*
X30577000Y-73295000D01*
X30580000Y-73296000D01*
X30582000Y-73297000D01*
X30585000Y-73298000D01*
X30587000Y-73298000D01*
X30590000Y-73299000D01*
X30592000Y-73299000D01*
X30595000Y-73300000D01*
X30597000Y-73300000D01*
X30600000Y-73300000D01*
X30725000Y-73300000D01*
X30728000Y-73300000D01*
X30730000Y-73300000D01*
X30733000Y-73301000D01*
X30735000Y-73301000D01*
X30738000Y-73302000D01*
X30740000Y-73302000D01*
X30743000Y-73303000D01*
X30745000Y-73304000D01*
X30748000Y-73305000D01*
X30750000Y-73307000D01*
X30752000Y-73308000D01*
X30754000Y-73310000D01*
X30756000Y-73311000D01*
X30758000Y-73313000D01*
X30760000Y-73315000D01*
X30762000Y-73317000D01*
X30764000Y-73319000D01*
X30765000Y-73321000D01*
X30767000Y-73323000D01*
X30768000Y-73325000D01*
X30770000Y-73327000D01*
X30771000Y-73330000D01*
X30772000Y-73332000D01*
X30773000Y-73335000D01*
X30773000Y-73337000D01*
X30774000Y-73340000D01*
X30774000Y-73342000D01*
X30775000Y-73345000D01*
X30775000Y-73347000D01*
X30775000Y-73350000D01*
X30775000Y-73825000D01*
X30775000Y-73828000D01*
X30775000Y-73830000D01*
X30774000Y-73833000D01*
X30774000Y-73835000D01*
X30773000Y-73838000D01*
X30773000Y-73840000D01*
X30772000Y-73843000D01*
X30771000Y-73845000D01*
X30770000Y-73848000D01*
X30768000Y-73850000D01*
X30767000Y-73852000D01*
X30765000Y-73854000D01*
X30764000Y-73856000D01*
X30762000Y-73858000D01*
X30760000Y-73860000D01*
X30758000Y-73862000D01*
X30756000Y-73864000D01*
X30754000Y-73865000D01*
X30752000Y-73867000D01*
X30750000Y-73868000D01*
X30748000Y-73870000D01*
X30745000Y-73871000D01*
X30743000Y-73872000D01*
X30740000Y-73873000D01*
X30738000Y-73873000D01*
X30735000Y-73874000D01*
X30733000Y-73874000D01*
X30730000Y-73875000D01*
X30728000Y-73875000D01*
X30725000Y-73875000D01*
X30518000Y-73875000D01*
X30516000Y-73875000D01*
X30515000Y-73875000D01*
X30514000Y-73875000D01*
X30512000Y-73875000D01*
X30511000Y-73875000D01*
X30510000Y-73876000D01*
X30509000Y-73876000D01*
X30507000Y-73876000D01*
X30506000Y-73876000D01*
X30505000Y-73877000D01*
X30504000Y-73877000D01*
X30502000Y-73877000D01*
X30501000Y-73878000D01*
X30500000Y-73878000D01*
X30499000Y-73879000D01*
X30497000Y-73879000D01*
X30496000Y-73880000D01*
X30495000Y-73880000D01*
X30494000Y-73881000D01*
X30493000Y-73882000D01*
X30492000Y-73882000D01*
X30490000Y-73883000D01*
X30489000Y-73884000D01*
X30488000Y-73885000D01*
X30487000Y-73885000D01*
X30486000Y-73886000D01*
X30485000Y-73887000D01*
X30484000Y-73888000D01*
X30483000Y-73889000D01*
X30482000Y-73890000D01*
X30135000Y-74237000D01*
X30134000Y-74238000D01*
X30133000Y-74239000D01*
X30132000Y-74240000D01*
X30131000Y-74241000D01*
X30130000Y-74242000D01*
X30130000Y-74243000D01*
X30129000Y-74244000D01*
X30128000Y-74245000D01*
X30127000Y-74247000D01*
X30127000Y-74248000D01*
X30126000Y-74249000D01*
X30125000Y-74250000D01*
X30125000Y-74251000D01*
X30124000Y-74252000D01*
X30124000Y-74254000D01*
X30123000Y-74255000D01*
X30123000Y-74256000D01*
X30122000Y-74257000D01*
X30122000Y-74259000D01*
X30122000Y-74260000D01*
X30121000Y-74261000D01*
X30121000Y-74262000D01*
X30121000Y-74264000D01*
X30121000Y-74265000D01*
X30120000Y-74266000D01*
X30120000Y-74267000D01*
X30120000Y-74269000D01*
X30120000Y-74270000D01*
X30120000Y-74271000D01*
X30120000Y-74273000D01*
X30120000Y-74395000D01*
X30120000Y-74398000D01*
X30120000Y-74400000D01*
X30119000Y-74403000D01*
X30119000Y-74405000D01*
X30118000Y-74408000D01*
X30118000Y-74410000D01*
X30117000Y-74413000D01*
X30116000Y-74415000D01*
X30115000Y-74418000D01*
X30113000Y-74420000D01*
X30112000Y-74422000D01*
X30110000Y-74424000D01*
X30109000Y-74426000D01*
X30107000Y-74428000D01*
X30105000Y-74430000D01*
X30103000Y-74432000D01*
X30101000Y-74434000D01*
X30099000Y-74435000D01*
X30097000Y-74437000D01*
X30095000Y-74438000D01*
X30093000Y-74440000D01*
X30090000Y-74441000D01*
X30088000Y-74442000D01*
X30085000Y-74443000D01*
X30083000Y-74443000D01*
X30080000Y-74444000D01*
X30078000Y-74444000D01*
X30075000Y-74445000D01*
X30073000Y-74445000D01*
X30070000Y-74445000D01*
X29750000Y-74445000D01*
X29747000Y-74445000D01*
X29745000Y-74445000D01*
X29742000Y-74444000D01*
X29740000Y-74444000D01*
X29737000Y-74443000D01*
X29735000Y-74443000D01*
X29732000Y-74442000D01*
X29730000Y-74441000D01*
X29727000Y-74440000D01*
X29725000Y-74438000D01*
X29723000Y-74437000D01*
X29721000Y-74435000D01*
X29719000Y-74434000D01*
X29717000Y-74432000D01*
X29715000Y-74430000D01*
X29713000Y-74428000D01*
X29711000Y-74426000D01*
X29710000Y-74424000D01*
X29708000Y-74422000D01*
X29707000Y-74420000D01*
X29705000Y-74418000D01*
X29704000Y-74415000D01*
X29703000Y-74413000D01*
X29702000Y-74410000D01*
X29702000Y-74408000D01*
X29701000Y-74405000D01*
X29701000Y-74403000D01*
X29700000Y-74400000D01*
X29700000Y-74398000D01*
X29700000Y-74395000D01*
X29700000Y-73350000D01*
X29700000Y-73347000D01*
X29700000Y-73345000D01*
X29701000Y-73342000D01*
X29701000Y-73340000D01*
X29702000Y-73337000D01*
X29702000Y-73335000D01*
X29703000Y-73332000D01*
X29704000Y-73330000D01*
X29705000Y-73327000D01*
X29707000Y-73325000D01*
X29708000Y-73323000D01*
X29710000Y-73321000D01*
X29711000Y-73319000D01*
X29713000Y-73317000D01*
X29715000Y-73315000D01*
X29717000Y-73313000D01*
X29719000Y-73311000D01*
X29721000Y-73310000D01*
X29723000Y-73308000D01*
X29725000Y-73307000D01*
X29727000Y-73305000D01*
X29730000Y-73304000D01*
X29732000Y-73303000D01*
X29735000Y-73302000D01*
X29737000Y-73302000D01*
X29740000Y-73301000D01*
X29742000Y-73301000D01*
X29745000Y-73300000D01*
X29747000Y-73300000D01*
X29750000Y-73300000D01*
X29753000Y-73300000D01*
X29755000Y-73300000D01*
X29758000Y-73299000D01*
X29760000Y-73299000D01*
X29763000Y-73298000D01*
X29765000Y-73298000D01*
X29768000Y-73297000D01*
X29770000Y-73296000D01*
X29773000Y-73295000D01*
X29775000Y-73293000D01*
X29777000Y-73292000D01*
X29779000Y-73290000D01*
X29781000Y-73289000D01*
X29783000Y-73287000D01*
X29785000Y-73285000D01*
X29787000Y-73283000D01*
X29789000Y-73281000D01*
X29790000Y-73279000D01*
X29792000Y-73277000D01*
X29793000Y-73275000D01*
X29795000Y-73273000D01*
X29796000Y-73270000D01*
X29797000Y-73268000D01*
X29798000Y-73265000D01*
X29798000Y-73263000D01*
X29799000Y-73260000D01*
X29799000Y-73258000D01*
X29800000Y-73255000D01*
X29800000Y-73253000D01*
X29800000Y-73250000D01*
X29800000Y-72950000D01*
X29800000Y-72947000D01*
X29800000Y-72945000D01*
X29801000Y-72942000D01*
X29801000Y-72940000D01*
X29802000Y-72937000D01*
X29802000Y-72935000D01*
X29803000Y-72932000D01*
X29804000Y-72930000D01*
X29805000Y-72927000D01*
X29807000Y-72925000D01*
X29808000Y-72923000D01*
X29810000Y-72921000D01*
X29811000Y-72919000D01*
X29813000Y-72917000D01*
X29815000Y-72915000D01*
X29817000Y-72913000D01*
X29819000Y-72911000D01*
X29821000Y-72910000D01*
X29823000Y-72908000D01*
X29825000Y-72907000D01*
X29827000Y-72905000D01*
X29830000Y-72904000D01*
X29832000Y-72903000D01*
X29835000Y-72902000D01*
X29837000Y-72902000D01*
X29840000Y-72901000D01*
X29842000Y-72901000D01*
X29845000Y-72900000D01*
X29847000Y-72900000D01*
X29850000Y-72900000D01*
X30000000Y-72900000D01*
X30003000Y-72900000D01*
X30005000Y-72900000D01*
X30008000Y-72901000D01*
G36*
X30008000Y-72901000D02*
G01*
X30010000Y-72901000D01*
X30013000Y-72902000D01*
X30015000Y-72902000D01*
X30018000Y-72903000D01*
X30020000Y-72904000D01*
X30023000Y-72905000D01*
X30025000Y-72907000D01*
X30027000Y-72908000D01*
X30029000Y-72910000D01*
X30031000Y-72911000D01*
X30033000Y-72913000D01*
X30035000Y-72915000D01*
X30037000Y-72917000D01*
X30039000Y-72919000D01*
X30040000Y-72921000D01*
X30042000Y-72923000D01*
X30043000Y-72925000D01*
X30045000Y-72927000D01*
X30046000Y-72930000D01*
X30047000Y-72932000D01*
X30048000Y-72935000D01*
X30048000Y-72937000D01*
X30049000Y-72940000D01*
X30049000Y-72942000D01*
X30050000Y-72945000D01*
X30050000Y-72947000D01*
X30050000Y-72950000D01*
X30050000Y-73250000D01*
X30050000Y-73253000D01*
X30050000Y-73255000D01*
X30051000Y-73258000D01*
X30051000Y-73260000D01*
X30052000Y-73263000D01*
X30052000Y-73265000D01*
X30053000Y-73268000D01*
X30054000Y-73270000D01*
X30055000Y-73273000D01*
X30057000Y-73275000D01*
X30058000Y-73277000D01*
X30060000Y-73279000D01*
X30061000Y-73281000D01*
X30063000Y-73283000D01*
X30065000Y-73285000D01*
X30067000Y-73287000D01*
X30069000Y-73289000D01*
X30071000Y-73290000D01*
X30073000Y-73292000D01*
X30075000Y-73293000D01*
X30077000Y-73295000D01*
X30080000Y-73296000D01*
X30082000Y-73297000D01*
X30085000Y-73298000D01*
X30087000Y-73298000D01*
X30090000Y-73299000D01*
X30092000Y-73299000D01*
X30095000Y-73300000D01*
X30097000Y-73300000D01*
X30100000Y-73300000D01*
X30250000Y-73300000D01*
X30253000Y-73300000D01*
X30255000Y-73300000D01*
X30258000Y-73299000D01*
X30260000Y-73299000D01*
X30263000Y-73298000D01*
X30265000Y-73298000D01*
X30268000Y-73297000D01*
X30270000Y-73296000D01*
X30273000Y-73295000D01*
X30275000Y-73293000D01*
X30277000Y-73292000D01*
X30279000Y-73290000D01*
X30281000Y-73289000D01*
X30283000Y-73287000D01*
X30285000Y-73285000D01*
X30287000Y-73283000D01*
X30289000Y-73281000D01*
X30290000Y-73279000D01*
X30292000Y-73277000D01*
X30293000Y-73275000D01*
X30295000Y-73273000D01*
X30296000Y-73270000D01*
X30297000Y-73268000D01*
X30298000Y-73265000D01*
X30298000Y-73263000D01*
X30299000Y-73260000D01*
X30299000Y-73258000D01*
X30300000Y-73255000D01*
X30300000Y-73253000D01*
X30300000Y-73250000D01*
X30300000Y-72950000D01*
X30300000Y-72947000D01*
X30300000Y-72945000D01*
X30301000Y-72942000D01*
X30301000Y-72940000D01*
X30302000Y-72937000D01*
X30302000Y-72935000D01*
X30303000Y-72932000D01*
X30304000Y-72930000D01*
X30305000Y-72927000D01*
X30307000Y-72925000D01*
X30308000Y-72923000D01*
X30310000Y-72921000D01*
X30311000Y-72919000D01*
X30313000Y-72917000D01*
X30315000Y-72915000D01*
X30317000Y-72913000D01*
X30319000Y-72911000D01*
X30321000Y-72910000D01*
X30323000Y-72908000D01*
X30325000Y-72907000D01*
X30327000Y-72905000D01*
X30330000Y-72904000D01*
X30332000Y-72903000D01*
X30335000Y-72902000D01*
X30337000Y-72902000D01*
X30340000Y-72901000D01*
X30342000Y-72901000D01*
X30345000Y-72900000D01*
X30347000Y-72900000D01*
X30350000Y-72900000D01*
X30500000Y-72900000D01*
X30503000Y-72900000D01*
X30505000Y-72900000D01*
X30508000Y-72901000D01*
X30510000Y-72901000D01*
X30513000Y-72902000D01*
X30515000Y-72902000D01*
X30518000Y-72903000D01*
X30520000Y-72904000D01*
X30523000Y-72905000D01*
X30525000Y-72907000D01*
X30527000Y-72908000D01*
X30529000Y-72910000D01*
X30531000Y-72911000D01*
X30533000Y-72913000D01*
X30535000Y-72915000D01*
X30537000Y-72917000D01*
X30539000Y-72919000D01*
X30540000Y-72921000D01*
X30542000Y-72923000D01*
X30543000Y-72925000D01*
X30545000Y-72927000D01*
X30546000Y-72930000D01*
X30547000Y-72932000D01*
X30548000Y-72935000D01*
X30548000Y-72937000D01*
X30549000Y-72940000D01*
X30549000Y-72942000D01*
X30550000Y-72945000D01*
X30550000Y-72947000D01*
X30550000Y-72950000D01*
X30550000Y-73250000D01*
X30550000Y-73253000D01*
X30550000Y-73255000D01*
X30551000Y-73258000D01*
X30551000Y-73260000D01*
X30552000Y-73263000D01*
X30552000Y-73265000D01*
X30553000Y-73268000D01*
X30554000Y-73270000D01*
X30555000Y-73273000D01*
X30557000Y-73275000D01*
X30558000Y-73277000D01*
X30560000Y-73279000D01*
X30561000Y-73281000D01*
X30563000Y-73283000D01*
X30565000Y-73285000D01*
X30567000Y-73287000D01*
X30569000Y-73289000D01*
X30571000Y-73290000D01*
X30573000Y-73292000D01*
X30575000Y-73293000D01*
X30577000Y-73295000D01*
X30580000Y-73296000D01*
X30582000Y-73297000D01*
X30585000Y-73298000D01*
X30587000Y-73298000D01*
X30590000Y-73299000D01*
X30592000Y-73299000D01*
X30595000Y-73300000D01*
X30597000Y-73300000D01*
X30600000Y-73300000D01*
X30725000Y-73300000D01*
X30728000Y-73300000D01*
X30730000Y-73300000D01*
X30733000Y-73301000D01*
X30735000Y-73301000D01*
X30738000Y-73302000D01*
X30740000Y-73302000D01*
X30743000Y-73303000D01*
X30745000Y-73304000D01*
X30748000Y-73305000D01*
X30750000Y-73307000D01*
X30752000Y-73308000D01*
X30754000Y-73310000D01*
X30756000Y-73311000D01*
X30758000Y-73313000D01*
X30760000Y-73315000D01*
X30762000Y-73317000D01*
X30764000Y-73319000D01*
X30765000Y-73321000D01*
X30767000Y-73323000D01*
X30768000Y-73325000D01*
X30770000Y-73327000D01*
X30771000Y-73330000D01*
X30772000Y-73332000D01*
X30773000Y-73335000D01*
X30773000Y-73337000D01*
X30774000Y-73340000D01*
X30774000Y-73342000D01*
X30775000Y-73345000D01*
X30775000Y-73347000D01*
X30775000Y-73350000D01*
X30775000Y-73825000D01*
X30775000Y-73828000D01*
X30775000Y-73830000D01*
X30774000Y-73833000D01*
X30774000Y-73835000D01*
X30773000Y-73838000D01*
X30773000Y-73840000D01*
X30772000Y-73843000D01*
X30771000Y-73845000D01*
X30770000Y-73848000D01*
X30768000Y-73850000D01*
X30767000Y-73852000D01*
X30765000Y-73854000D01*
X30764000Y-73856000D01*
X30762000Y-73858000D01*
X30760000Y-73860000D01*
X30758000Y-73862000D01*
X30756000Y-73864000D01*
X30754000Y-73865000D01*
X30752000Y-73867000D01*
X30750000Y-73868000D01*
X30748000Y-73870000D01*
X30745000Y-73871000D01*
X30743000Y-73872000D01*
X30740000Y-73873000D01*
X30738000Y-73873000D01*
X30735000Y-73874000D01*
X30733000Y-73874000D01*
X30730000Y-73875000D01*
X30728000Y-73875000D01*
X30725000Y-73875000D01*
X30518000Y-73875000D01*
X30516000Y-73875000D01*
X30515000Y-73875000D01*
X30514000Y-73875000D01*
X30512000Y-73875000D01*
X30511000Y-73875000D01*
X30510000Y-73876000D01*
X30509000Y-73876000D01*
X30507000Y-73876000D01*
X30506000Y-73876000D01*
X30505000Y-73877000D01*
X30504000Y-73877000D01*
X30502000Y-73877000D01*
X30501000Y-73878000D01*
X30500000Y-73878000D01*
X30499000Y-73879000D01*
X30497000Y-73879000D01*
X30496000Y-73880000D01*
X30495000Y-73880000D01*
X30494000Y-73881000D01*
X30493000Y-73882000D01*
X30492000Y-73882000D01*
X30490000Y-73883000D01*
X30489000Y-73884000D01*
X30488000Y-73885000D01*
X30487000Y-73885000D01*
X30486000Y-73886000D01*
X30485000Y-73887000D01*
X30484000Y-73888000D01*
X30483000Y-73889000D01*
X30482000Y-73890000D01*
X30135000Y-74237000D01*
X30134000Y-74238000D01*
X30133000Y-74239000D01*
X30132000Y-74240000D01*
X30131000Y-74241000D01*
X30130000Y-74242000D01*
X30130000Y-74243000D01*
X30129000Y-74244000D01*
X30128000Y-74245000D01*
X30127000Y-74247000D01*
X30127000Y-74248000D01*
X30126000Y-74249000D01*
X30125000Y-74250000D01*
X30125000Y-74251000D01*
X30124000Y-74252000D01*
X30124000Y-74254000D01*
X30123000Y-74255000D01*
X30123000Y-74256000D01*
X30122000Y-74257000D01*
X30122000Y-74259000D01*
X30122000Y-74260000D01*
X30121000Y-74261000D01*
X30121000Y-74262000D01*
X30121000Y-74264000D01*
X30121000Y-74265000D01*
X30120000Y-74266000D01*
X30120000Y-74267000D01*
X30120000Y-74269000D01*
X30120000Y-74270000D01*
X30120000Y-74271000D01*
X30120000Y-74273000D01*
X30120000Y-74395000D01*
X30120000Y-74398000D01*
X30120000Y-74400000D01*
X30119000Y-74403000D01*
X30119000Y-74405000D01*
X30118000Y-74408000D01*
X30118000Y-74410000D01*
X30117000Y-74413000D01*
X30116000Y-74415000D01*
X30115000Y-74418000D01*
X30113000Y-74420000D01*
X30112000Y-74422000D01*
X30110000Y-74424000D01*
X30109000Y-74426000D01*
X30107000Y-74428000D01*
X30105000Y-74430000D01*
X30103000Y-74432000D01*
X30101000Y-74434000D01*
X30099000Y-74435000D01*
X30097000Y-74437000D01*
X30095000Y-74438000D01*
X30093000Y-74440000D01*
X30090000Y-74441000D01*
X30088000Y-74442000D01*
X30085000Y-74443000D01*
X30083000Y-74443000D01*
X30080000Y-74444000D01*
X30078000Y-74444000D01*
X30075000Y-74445000D01*
X30073000Y-74445000D01*
X30070000Y-74445000D01*
X29750000Y-74445000D01*
X29747000Y-74445000D01*
X29745000Y-74445000D01*
X29742000Y-74444000D01*
X29740000Y-74444000D01*
X29737000Y-74443000D01*
X29735000Y-74443000D01*
X29732000Y-74442000D01*
X29730000Y-74441000D01*
X29727000Y-74440000D01*
X29725000Y-74438000D01*
X29723000Y-74437000D01*
X29721000Y-74435000D01*
X29719000Y-74434000D01*
X29717000Y-74432000D01*
X29715000Y-74430000D01*
X29713000Y-74428000D01*
X29711000Y-74426000D01*
X29710000Y-74424000D01*
X29708000Y-74422000D01*
X29707000Y-74420000D01*
X29705000Y-74418000D01*
X29704000Y-74415000D01*
X29703000Y-74413000D01*
X29702000Y-74410000D01*
X29702000Y-74408000D01*
X29701000Y-74405000D01*
X29701000Y-74403000D01*
X29700000Y-74400000D01*
X29700000Y-74398000D01*
X29700000Y-74395000D01*
X29700000Y-73350000D01*
X29700000Y-73347000D01*
X29700000Y-73345000D01*
X29701000Y-73342000D01*
X29701000Y-73340000D01*
X29702000Y-73337000D01*
X29702000Y-73335000D01*
X29703000Y-73332000D01*
X29704000Y-73330000D01*
X29705000Y-73327000D01*
X29707000Y-73325000D01*
X29708000Y-73323000D01*
X29710000Y-73321000D01*
X29711000Y-73319000D01*
X29713000Y-73317000D01*
X29715000Y-73315000D01*
X29717000Y-73313000D01*
X29719000Y-73311000D01*
X29721000Y-73310000D01*
X29723000Y-73308000D01*
X29725000Y-73307000D01*
X29727000Y-73305000D01*
X29730000Y-73304000D01*
X29732000Y-73303000D01*
X29735000Y-73302000D01*
X29737000Y-73302000D01*
X29740000Y-73301000D01*
X29742000Y-73301000D01*
X29745000Y-73300000D01*
X29747000Y-73300000D01*
X29750000Y-73300000D01*
X29753000Y-73300000D01*
X29755000Y-73300000D01*
X29758000Y-73299000D01*
X29760000Y-73299000D01*
X29763000Y-73298000D01*
X29765000Y-73298000D01*
X29768000Y-73297000D01*
X29770000Y-73296000D01*
X29773000Y-73295000D01*
X29775000Y-73293000D01*
X29777000Y-73292000D01*
X29779000Y-73290000D01*
X29781000Y-73289000D01*
X29783000Y-73287000D01*
X29785000Y-73285000D01*
X29787000Y-73283000D01*
X29789000Y-73281000D01*
X29790000Y-73279000D01*
X29792000Y-73277000D01*
X29793000Y-73275000D01*
X29795000Y-73273000D01*
X29796000Y-73270000D01*
X29797000Y-73268000D01*
X29798000Y-73265000D01*
X29798000Y-73263000D01*
X29799000Y-73260000D01*
X29799000Y-73258000D01*
X29800000Y-73255000D01*
X29800000Y-73253000D01*
X29800000Y-73250000D01*
X29800000Y-72950000D01*
X29800000Y-72947000D01*
X29800000Y-72945000D01*
X29801000Y-72942000D01*
X29801000Y-72940000D01*
X29802000Y-72937000D01*
X29802000Y-72935000D01*
X29803000Y-72932000D01*
X29804000Y-72930000D01*
X29805000Y-72927000D01*
X29807000Y-72925000D01*
X29808000Y-72923000D01*
X29810000Y-72921000D01*
X29811000Y-72919000D01*
X29813000Y-72917000D01*
X29815000Y-72915000D01*
X29817000Y-72913000D01*
X29819000Y-72911000D01*
X29821000Y-72910000D01*
X29823000Y-72908000D01*
X29825000Y-72907000D01*
X29827000Y-72905000D01*
X29830000Y-72904000D01*
X29832000Y-72903000D01*
X29835000Y-72902000D01*
X29837000Y-72902000D01*
X29840000Y-72901000D01*
X29842000Y-72901000D01*
X29845000Y-72900000D01*
X29847000Y-72900000D01*
X29850000Y-72900000D01*
X30000000Y-72900000D01*
X30003000Y-72900000D01*
X30005000Y-72900000D01*
X30008000Y-72901000D01*
G37*
X30078000Y-75056000D02*
X30080000Y-75056000D01*
X30083000Y-75057000D01*
X30085000Y-75057000D01*
X30088000Y-75058000D01*
X30090000Y-75059000D01*
X30093000Y-75060000D01*
X30095000Y-75062000D01*
X30097000Y-75063000D01*
X30099000Y-75065000D01*
X30101000Y-75066000D01*
X30103000Y-75068000D01*
X30105000Y-75070000D01*
X30107000Y-75072000D01*
X30109000Y-75074000D01*
X30110000Y-75076000D01*
X30112000Y-75078000D01*
X30113000Y-75080000D01*
X30115000Y-75082000D01*
X30116000Y-75085000D01*
X30117000Y-75087000D01*
X30118000Y-75090000D01*
X30118000Y-75092000D01*
X30119000Y-75095000D01*
X30119000Y-75097000D01*
X30120000Y-75100000D01*
X30120000Y-75102000D01*
X30120000Y-75105000D01*
X30120000Y-75227000D01*
X30120000Y-75229000D01*
X30120000Y-75230000D01*
X30120000Y-75231000D01*
X30120000Y-75233000D01*
X30120000Y-75234000D01*
X30121000Y-75235000D01*
X30121000Y-75236000D01*
X30121000Y-75238000D01*
X30121000Y-75239000D01*
X30122000Y-75240000D01*
X30122000Y-75241000D01*
X30122000Y-75243000D01*
X30123000Y-75244000D01*
X30123000Y-75245000D01*
X30124000Y-75246000D01*
X30124000Y-75248000D01*
X30125000Y-75249000D01*
X30125000Y-75250000D01*
X30126000Y-75251000D01*
X30127000Y-75252000D01*
X30127000Y-75253000D01*
X30128000Y-75255000D01*
X30129000Y-75256000D01*
X30130000Y-75257000D01*
X30130000Y-75258000D01*
X30131000Y-75259000D01*
X30132000Y-75260000D01*
X30133000Y-75261000D01*
X30134000Y-75262000D01*
X30135000Y-75263000D01*
X30482000Y-75610000D01*
X30483000Y-75611000D01*
X30484000Y-75612000D01*
X30485000Y-75613000D01*
X30486000Y-75614000D01*
X30487000Y-75615000D01*
X30488000Y-75615000D01*
X30489000Y-75616000D01*
X30490000Y-75617000D01*
X30492000Y-75618000D01*
X30493000Y-75618000D01*
X30494000Y-75619000D01*
X30495000Y-75620000D01*
X30496000Y-75620000D01*
X30497000Y-75621000D01*
X30499000Y-75621000D01*
X30500000Y-75622000D01*
X30501000Y-75622000D01*
X30502000Y-75623000D01*
X30504000Y-75623000D01*
X30505000Y-75623000D01*
X30506000Y-75624000D01*
X30507000Y-75624000D01*
X30509000Y-75624000D01*
X30510000Y-75624000D01*
X30511000Y-75625000D01*
X30512000Y-75625000D01*
X30514000Y-75625000D01*
X30515000Y-75625000D01*
X30516000Y-75625000D01*
X30518000Y-75625000D01*
X30725000Y-75625000D01*
X30728000Y-75625000D01*
X30730000Y-75625000D01*
X30733000Y-75626000D01*
X30735000Y-75626000D01*
X30738000Y-75627000D01*
X30740000Y-75627000D01*
X30743000Y-75628000D01*
X30745000Y-75629000D01*
X30748000Y-75630000D01*
X30750000Y-75632000D01*
X30752000Y-75633000D01*
X30754000Y-75635000D01*
X30756000Y-75636000D01*
X30758000Y-75638000D01*
X30760000Y-75640000D01*
X30762000Y-75642000D01*
X30764000Y-75644000D01*
X30765000Y-75646000D01*
X30767000Y-75648000D01*
X30768000Y-75650000D01*
X30770000Y-75652000D01*
X30771000Y-75655000D01*
X30772000Y-75657000D01*
X30773000Y-75660000D01*
X30773000Y-75662000D01*
X30774000Y-75665000D01*
X30774000Y-75667000D01*
X30775000Y-75670000D01*
X30775000Y-75672000D01*
X30775000Y-75675000D01*
X30775000Y-76150000D01*
X30775000Y-76153000D01*
X30775000Y-76155000D01*
X30774000Y-76158000D01*
X30774000Y-76160000D01*
X30773000Y-76163000D01*
X30773000Y-76165000D01*
X30772000Y-76168000D01*
X30771000Y-76170000D01*
X30770000Y-76173000D01*
X30768000Y-76175000D01*
X30767000Y-76177000D01*
X30765000Y-76179000D01*
X30764000Y-76181000D01*
X30762000Y-76183000D01*
X30760000Y-76185000D01*
X30758000Y-76187000D01*
X30756000Y-76189000D01*
X30754000Y-76190000D01*
X30752000Y-76192000D01*
X30750000Y-76193000D01*
X30748000Y-76195000D01*
X30745000Y-76196000D01*
X30743000Y-76197000D01*
X30740000Y-76198000D01*
X30738000Y-76198000D01*
X30735000Y-76199000D01*
X30733000Y-76199000D01*
X30730000Y-76200000D01*
X30728000Y-76200000D01*
X30725000Y-76200000D01*
X30600000Y-76200000D01*
X30597000Y-76200000D01*
X30595000Y-76200000D01*
X30592000Y-76201000D01*
X30590000Y-76201000D01*
X30587000Y-76202000D01*
X30585000Y-76202000D01*
X30582000Y-76203000D01*
X30580000Y-76204000D01*
X30577000Y-76205000D01*
X30575000Y-76207000D01*
X30573000Y-76208000D01*
X30571000Y-76210000D01*
X30569000Y-76211000D01*
X30567000Y-76213000D01*
X30565000Y-76215000D01*
X30563000Y-76217000D01*
X30561000Y-76219000D01*
X30560000Y-76221000D01*
X30558000Y-76223000D01*
X30557000Y-76225000D01*
X30555000Y-76227000D01*
X30554000Y-76230000D01*
X30553000Y-76232000D01*
X30552000Y-76235000D01*
X30552000Y-76237000D01*
X30551000Y-76240000D01*
X30551000Y-76242000D01*
X30550000Y-76245000D01*
X30550000Y-76247000D01*
X30550000Y-76250000D01*
X30550000Y-76550000D01*
X30550000Y-76553000D01*
X30550000Y-76555000D01*
X30549000Y-76558000D01*
X30549000Y-76560000D01*
X30548000Y-76563000D01*
X30548000Y-76565000D01*
X30547000Y-76568000D01*
X30546000Y-76570000D01*
X30545000Y-76573000D01*
X30543000Y-76575000D01*
X30542000Y-76577000D01*
X30540000Y-76579000D01*
X30539000Y-76581000D01*
X30537000Y-76583000D01*
X30535000Y-76585000D01*
X30533000Y-76587000D01*
X30531000Y-76589000D01*
X30529000Y-76590000D01*
X30527000Y-76592000D01*
X30525000Y-76593000D01*
X30523000Y-76595000D01*
X30520000Y-76596000D01*
X30518000Y-76597000D01*
X30515000Y-76598000D01*
X30513000Y-76598000D01*
X30510000Y-76599000D01*
X30508000Y-76599000D01*
X30505000Y-76600000D01*
X30503000Y-76600000D01*
X30500000Y-76600000D01*
X30350000Y-76600000D01*
X30347000Y-76600000D01*
X30345000Y-76600000D01*
X30342000Y-76599000D01*
X30340000Y-76599000D01*
X30337000Y-76598000D01*
X30335000Y-76598000D01*
X30332000Y-76597000D01*
X30330000Y-76596000D01*
X30327000Y-76595000D01*
X30325000Y-76593000D01*
X30323000Y-76592000D01*
X30321000Y-76590000D01*
X30319000Y-76589000D01*
X30317000Y-76587000D01*
X30315000Y-76585000D01*
X30313000Y-76583000D01*
X30311000Y-76581000D01*
X30310000Y-76579000D01*
X30308000Y-76577000D01*
X30307000Y-76575000D01*
X30305000Y-76573000D01*
X30304000Y-76570000D01*
X30303000Y-76568000D01*
X30302000Y-76565000D01*
X30302000Y-76563000D01*
X30301000Y-76560000D01*
X30301000Y-76558000D01*
X30300000Y-76555000D01*
X30300000Y-76553000D01*
X30300000Y-76550000D01*
X30300000Y-76250000D01*
X30300000Y-76247000D01*
X30300000Y-76245000D01*
X30299000Y-76242000D01*
X30299000Y-76240000D01*
X30298000Y-76237000D01*
X30298000Y-76235000D01*
X30297000Y-76232000D01*
X30296000Y-76230000D01*
X30295000Y-76227000D01*
X30293000Y-76225000D01*
X30292000Y-76223000D01*
X30290000Y-76221000D01*
X30289000Y-76219000D01*
X30287000Y-76217000D01*
X30285000Y-76215000D01*
X30283000Y-76213000D01*
X30281000Y-76211000D01*
X30279000Y-76210000D01*
X30277000Y-76208000D01*
X30275000Y-76207000D01*
X30273000Y-76205000D01*
X30270000Y-76204000D01*
X30268000Y-76203000D01*
X30265000Y-76202000D01*
X30263000Y-76202000D01*
X30260000Y-76201000D01*
X30258000Y-76201000D01*
X30255000Y-76200000D01*
X30253000Y-76200000D01*
X30250000Y-76200000D01*
X30100000Y-76200000D01*
X30097000Y-76200000D01*
X30095000Y-76200000D01*
X30092000Y-76201000D01*
X30090000Y-76201000D01*
X30087000Y-76202000D01*
X30085000Y-76202000D01*
X30082000Y-76203000D01*
X30080000Y-76204000D01*
X30077000Y-76205000D01*
X30075000Y-76207000D01*
X30073000Y-76208000D01*
X30071000Y-76210000D01*
X30069000Y-76211000D01*
X30067000Y-76213000D01*
X30065000Y-76215000D01*
X30063000Y-76217000D01*
X30061000Y-76219000D01*
X30060000Y-76221000D01*
X30058000Y-76223000D01*
X30057000Y-76225000D01*
X30055000Y-76227000D01*
X30054000Y-76230000D01*
X30053000Y-76232000D01*
X30052000Y-76235000D01*
X30052000Y-76237000D01*
X30051000Y-76240000D01*
X30051000Y-76242000D01*
X30050000Y-76245000D01*
X30050000Y-76247000D01*
X30050000Y-76250000D01*
X30050000Y-76550000D01*
X30050000Y-76553000D01*
X30050000Y-76555000D01*
X30049000Y-76558000D01*
X30049000Y-76560000D01*
X30048000Y-76563000D01*
X30048000Y-76565000D01*
X30047000Y-76568000D01*
X30046000Y-76570000D01*
X30045000Y-76573000D01*
X30043000Y-76575000D01*
X30042000Y-76577000D01*
X30040000Y-76579000D01*
X30039000Y-76581000D01*
X30037000Y-76583000D01*
X30035000Y-76585000D01*
X30033000Y-76587000D01*
X30031000Y-76589000D01*
X30029000Y-76590000D01*
X30027000Y-76592000D01*
X30025000Y-76593000D01*
X30023000Y-76595000D01*
X30020000Y-76596000D01*
X30018000Y-76597000D01*
X30015000Y-76598000D01*
X30013000Y-76598000D01*
X30010000Y-76599000D01*
X30008000Y-76599000D01*
X30005000Y-76600000D01*
X30003000Y-76600000D01*
X30000000Y-76600000D01*
X29850000Y-76600000D01*
X29847000Y-76600000D01*
X29845000Y-76600000D01*
X29842000Y-76599000D01*
X29840000Y-76599000D01*
X29837000Y-76598000D01*
X29835000Y-76598000D01*
X29832000Y-76597000D01*
X29830000Y-76596000D01*
X29827000Y-76595000D01*
X29825000Y-76593000D01*
X29823000Y-76592000D01*
X29821000Y-76590000D01*
X29819000Y-76589000D01*
X29817000Y-76587000D01*
X29815000Y-76585000D01*
X29813000Y-76583000D01*
X29811000Y-76581000D01*
X29810000Y-76579000D01*
X29808000Y-76577000D01*
X29807000Y-76575000D01*
X29805000Y-76573000D01*
X29804000Y-76570000D01*
X29803000Y-76568000D01*
X29802000Y-76565000D01*
X29802000Y-76563000D01*
X29801000Y-76560000D01*
X29801000Y-76558000D01*
X29800000Y-76555000D01*
X29800000Y-76553000D01*
X29800000Y-76550000D01*
X29800000Y-76250000D01*
X29800000Y-76247000D01*
X29800000Y-76245000D01*
X29799000Y-76242000D01*
X29799000Y-76240000D01*
X29798000Y-76237000D01*
X29798000Y-76235000D01*
X29797000Y-76232000D01*
X29796000Y-76230000D01*
X29795000Y-76227000D01*
X29793000Y-76225000D01*
X29792000Y-76223000D01*
X29790000Y-76221000D01*
X29789000Y-76219000D01*
X29787000Y-76217000D01*
X29785000Y-76215000D01*
X29783000Y-76213000D01*
X29781000Y-76211000D01*
X29779000Y-76210000D01*
X29777000Y-76208000D01*
X29775000Y-76207000D01*
X29773000Y-76205000D01*
X29770000Y-76204000D01*
X29768000Y-76203000D01*
X29765000Y-76202000D01*
X29763000Y-76202000D01*
X29760000Y-76201000D01*
X29758000Y-76201000D01*
X29755000Y-76200000D01*
X29753000Y-76200000D01*
X29750000Y-76200000D01*
X29747000Y-76200000D01*
X29745000Y-76200000D01*
X29742000Y-76199000D01*
X29740000Y-76199000D01*
X29737000Y-76198000D01*
X29735000Y-76198000D01*
X29732000Y-76197000D01*
X29730000Y-76196000D01*
X29727000Y-76195000D01*
X29725000Y-76193000D01*
X29723000Y-76192000D01*
X29721000Y-76190000D01*
X29719000Y-76189000D01*
X29717000Y-76187000D01*
X29715000Y-76185000D01*
X29713000Y-76183000D01*
X29711000Y-76181000D01*
X29710000Y-76179000D01*
X29708000Y-76177000D01*
X29707000Y-76175000D01*
X29705000Y-76173000D01*
X29704000Y-76170000D01*
X29703000Y-76168000D01*
X29702000Y-76165000D01*
X29702000Y-76163000D01*
X29701000Y-76160000D01*
X29701000Y-76158000D01*
X29700000Y-76155000D01*
X29700000Y-76153000D01*
X29700000Y-76150000D01*
X29700000Y-75105000D01*
X29700000Y-75102000D01*
X29700000Y-75100000D01*
X29701000Y-75097000D01*
X29701000Y-75095000D01*
X29702000Y-75092000D01*
X29702000Y-75090000D01*
X29703000Y-75087000D01*
X29704000Y-75085000D01*
X29705000Y-75082000D01*
X29707000Y-75080000D01*
X29708000Y-75078000D01*
X29710000Y-75076000D01*
X29711000Y-75074000D01*
X29713000Y-75072000D01*
X29715000Y-75070000D01*
X29717000Y-75068000D01*
X29719000Y-75066000D01*
X29721000Y-75065000D01*
X29723000Y-75063000D01*
X29725000Y-75062000D01*
X29727000Y-75060000D01*
X29730000Y-75059000D01*
X29732000Y-75058000D01*
X29735000Y-75057000D01*
X29737000Y-75057000D01*
X29740000Y-75056000D01*
X29742000Y-75056000D01*
X29745000Y-75055000D01*
X29747000Y-75055000D01*
X29750000Y-75055000D01*
X30070000Y-75055000D01*
X30073000Y-75055000D01*
X30075000Y-75055000D01*
X30078000Y-75056000D01*
G36*
X30078000Y-75056000D02*
G01*
X30080000Y-75056000D01*
X30083000Y-75057000D01*
X30085000Y-75057000D01*
X30088000Y-75058000D01*
X30090000Y-75059000D01*
X30093000Y-75060000D01*
X30095000Y-75062000D01*
X30097000Y-75063000D01*
X30099000Y-75065000D01*
X30101000Y-75066000D01*
X30103000Y-75068000D01*
X30105000Y-75070000D01*
X30107000Y-75072000D01*
X30109000Y-75074000D01*
X30110000Y-75076000D01*
X30112000Y-75078000D01*
X30113000Y-75080000D01*
X30115000Y-75082000D01*
X30116000Y-75085000D01*
X30117000Y-75087000D01*
X30118000Y-75090000D01*
X30118000Y-75092000D01*
X30119000Y-75095000D01*
X30119000Y-75097000D01*
X30120000Y-75100000D01*
X30120000Y-75102000D01*
X30120000Y-75105000D01*
X30120000Y-75227000D01*
X30120000Y-75229000D01*
X30120000Y-75230000D01*
X30120000Y-75231000D01*
X30120000Y-75233000D01*
X30120000Y-75234000D01*
X30121000Y-75235000D01*
X30121000Y-75236000D01*
X30121000Y-75238000D01*
X30121000Y-75239000D01*
X30122000Y-75240000D01*
X30122000Y-75241000D01*
X30122000Y-75243000D01*
X30123000Y-75244000D01*
X30123000Y-75245000D01*
X30124000Y-75246000D01*
X30124000Y-75248000D01*
X30125000Y-75249000D01*
X30125000Y-75250000D01*
X30126000Y-75251000D01*
X30127000Y-75252000D01*
X30127000Y-75253000D01*
X30128000Y-75255000D01*
X30129000Y-75256000D01*
X30130000Y-75257000D01*
X30130000Y-75258000D01*
X30131000Y-75259000D01*
X30132000Y-75260000D01*
X30133000Y-75261000D01*
X30134000Y-75262000D01*
X30135000Y-75263000D01*
X30482000Y-75610000D01*
X30483000Y-75611000D01*
X30484000Y-75612000D01*
X30485000Y-75613000D01*
X30486000Y-75614000D01*
X30487000Y-75615000D01*
X30488000Y-75615000D01*
X30489000Y-75616000D01*
X30490000Y-75617000D01*
X30492000Y-75618000D01*
X30493000Y-75618000D01*
X30494000Y-75619000D01*
X30495000Y-75620000D01*
X30496000Y-75620000D01*
X30497000Y-75621000D01*
X30499000Y-75621000D01*
X30500000Y-75622000D01*
X30501000Y-75622000D01*
X30502000Y-75623000D01*
X30504000Y-75623000D01*
X30505000Y-75623000D01*
X30506000Y-75624000D01*
X30507000Y-75624000D01*
X30509000Y-75624000D01*
X30510000Y-75624000D01*
X30511000Y-75625000D01*
X30512000Y-75625000D01*
X30514000Y-75625000D01*
X30515000Y-75625000D01*
X30516000Y-75625000D01*
X30518000Y-75625000D01*
X30725000Y-75625000D01*
X30728000Y-75625000D01*
X30730000Y-75625000D01*
X30733000Y-75626000D01*
X30735000Y-75626000D01*
X30738000Y-75627000D01*
X30740000Y-75627000D01*
X30743000Y-75628000D01*
X30745000Y-75629000D01*
X30748000Y-75630000D01*
X30750000Y-75632000D01*
X30752000Y-75633000D01*
X30754000Y-75635000D01*
X30756000Y-75636000D01*
X30758000Y-75638000D01*
X30760000Y-75640000D01*
X30762000Y-75642000D01*
X30764000Y-75644000D01*
X30765000Y-75646000D01*
X30767000Y-75648000D01*
X30768000Y-75650000D01*
X30770000Y-75652000D01*
X30771000Y-75655000D01*
X30772000Y-75657000D01*
X30773000Y-75660000D01*
X30773000Y-75662000D01*
X30774000Y-75665000D01*
X30774000Y-75667000D01*
X30775000Y-75670000D01*
X30775000Y-75672000D01*
X30775000Y-75675000D01*
X30775000Y-76150000D01*
X30775000Y-76153000D01*
X30775000Y-76155000D01*
X30774000Y-76158000D01*
X30774000Y-76160000D01*
X30773000Y-76163000D01*
X30773000Y-76165000D01*
X30772000Y-76168000D01*
X30771000Y-76170000D01*
X30770000Y-76173000D01*
X30768000Y-76175000D01*
X30767000Y-76177000D01*
X30765000Y-76179000D01*
X30764000Y-76181000D01*
X30762000Y-76183000D01*
X30760000Y-76185000D01*
X30758000Y-76187000D01*
X30756000Y-76189000D01*
X30754000Y-76190000D01*
X30752000Y-76192000D01*
X30750000Y-76193000D01*
X30748000Y-76195000D01*
X30745000Y-76196000D01*
X30743000Y-76197000D01*
X30740000Y-76198000D01*
X30738000Y-76198000D01*
X30735000Y-76199000D01*
X30733000Y-76199000D01*
X30730000Y-76200000D01*
X30728000Y-76200000D01*
X30725000Y-76200000D01*
X30600000Y-76200000D01*
X30597000Y-76200000D01*
X30595000Y-76200000D01*
X30592000Y-76201000D01*
X30590000Y-76201000D01*
X30587000Y-76202000D01*
X30585000Y-76202000D01*
X30582000Y-76203000D01*
X30580000Y-76204000D01*
X30577000Y-76205000D01*
X30575000Y-76207000D01*
X30573000Y-76208000D01*
X30571000Y-76210000D01*
X30569000Y-76211000D01*
X30567000Y-76213000D01*
X30565000Y-76215000D01*
X30563000Y-76217000D01*
X30561000Y-76219000D01*
X30560000Y-76221000D01*
X30558000Y-76223000D01*
X30557000Y-76225000D01*
X30555000Y-76227000D01*
X30554000Y-76230000D01*
X30553000Y-76232000D01*
X30552000Y-76235000D01*
X30552000Y-76237000D01*
X30551000Y-76240000D01*
X30551000Y-76242000D01*
X30550000Y-76245000D01*
X30550000Y-76247000D01*
X30550000Y-76250000D01*
X30550000Y-76550000D01*
X30550000Y-76553000D01*
X30550000Y-76555000D01*
X30549000Y-76558000D01*
X30549000Y-76560000D01*
X30548000Y-76563000D01*
X30548000Y-76565000D01*
X30547000Y-76568000D01*
X30546000Y-76570000D01*
X30545000Y-76573000D01*
X30543000Y-76575000D01*
X30542000Y-76577000D01*
X30540000Y-76579000D01*
X30539000Y-76581000D01*
X30537000Y-76583000D01*
X30535000Y-76585000D01*
X30533000Y-76587000D01*
X30531000Y-76589000D01*
X30529000Y-76590000D01*
X30527000Y-76592000D01*
X30525000Y-76593000D01*
X30523000Y-76595000D01*
X30520000Y-76596000D01*
X30518000Y-76597000D01*
X30515000Y-76598000D01*
X30513000Y-76598000D01*
X30510000Y-76599000D01*
X30508000Y-76599000D01*
X30505000Y-76600000D01*
X30503000Y-76600000D01*
X30500000Y-76600000D01*
X30350000Y-76600000D01*
X30347000Y-76600000D01*
X30345000Y-76600000D01*
X30342000Y-76599000D01*
X30340000Y-76599000D01*
X30337000Y-76598000D01*
X30335000Y-76598000D01*
X30332000Y-76597000D01*
X30330000Y-76596000D01*
X30327000Y-76595000D01*
X30325000Y-76593000D01*
X30323000Y-76592000D01*
X30321000Y-76590000D01*
X30319000Y-76589000D01*
X30317000Y-76587000D01*
X30315000Y-76585000D01*
X30313000Y-76583000D01*
X30311000Y-76581000D01*
X30310000Y-76579000D01*
X30308000Y-76577000D01*
X30307000Y-76575000D01*
X30305000Y-76573000D01*
X30304000Y-76570000D01*
X30303000Y-76568000D01*
X30302000Y-76565000D01*
X30302000Y-76563000D01*
X30301000Y-76560000D01*
X30301000Y-76558000D01*
X30300000Y-76555000D01*
X30300000Y-76553000D01*
X30300000Y-76550000D01*
X30300000Y-76250000D01*
X30300000Y-76247000D01*
X30300000Y-76245000D01*
X30299000Y-76242000D01*
X30299000Y-76240000D01*
X30298000Y-76237000D01*
X30298000Y-76235000D01*
X30297000Y-76232000D01*
X30296000Y-76230000D01*
X30295000Y-76227000D01*
X30293000Y-76225000D01*
X30292000Y-76223000D01*
X30290000Y-76221000D01*
X30289000Y-76219000D01*
X30287000Y-76217000D01*
X30285000Y-76215000D01*
X30283000Y-76213000D01*
X30281000Y-76211000D01*
X30279000Y-76210000D01*
X30277000Y-76208000D01*
X30275000Y-76207000D01*
X30273000Y-76205000D01*
X30270000Y-76204000D01*
X30268000Y-76203000D01*
X30265000Y-76202000D01*
X30263000Y-76202000D01*
X30260000Y-76201000D01*
X30258000Y-76201000D01*
X30255000Y-76200000D01*
X30253000Y-76200000D01*
X30250000Y-76200000D01*
X30100000Y-76200000D01*
X30097000Y-76200000D01*
X30095000Y-76200000D01*
X30092000Y-76201000D01*
X30090000Y-76201000D01*
X30087000Y-76202000D01*
X30085000Y-76202000D01*
X30082000Y-76203000D01*
X30080000Y-76204000D01*
X30077000Y-76205000D01*
X30075000Y-76207000D01*
X30073000Y-76208000D01*
X30071000Y-76210000D01*
X30069000Y-76211000D01*
X30067000Y-76213000D01*
X30065000Y-76215000D01*
X30063000Y-76217000D01*
X30061000Y-76219000D01*
X30060000Y-76221000D01*
X30058000Y-76223000D01*
X30057000Y-76225000D01*
X30055000Y-76227000D01*
X30054000Y-76230000D01*
X30053000Y-76232000D01*
X30052000Y-76235000D01*
X30052000Y-76237000D01*
X30051000Y-76240000D01*
X30051000Y-76242000D01*
X30050000Y-76245000D01*
X30050000Y-76247000D01*
X30050000Y-76250000D01*
X30050000Y-76550000D01*
X30050000Y-76553000D01*
X30050000Y-76555000D01*
X30049000Y-76558000D01*
X30049000Y-76560000D01*
X30048000Y-76563000D01*
X30048000Y-76565000D01*
X30047000Y-76568000D01*
X30046000Y-76570000D01*
X30045000Y-76573000D01*
X30043000Y-76575000D01*
X30042000Y-76577000D01*
X30040000Y-76579000D01*
X30039000Y-76581000D01*
X30037000Y-76583000D01*
X30035000Y-76585000D01*
X30033000Y-76587000D01*
X30031000Y-76589000D01*
X30029000Y-76590000D01*
X30027000Y-76592000D01*
X30025000Y-76593000D01*
X30023000Y-76595000D01*
X30020000Y-76596000D01*
X30018000Y-76597000D01*
X30015000Y-76598000D01*
X30013000Y-76598000D01*
X30010000Y-76599000D01*
X30008000Y-76599000D01*
X30005000Y-76600000D01*
X30003000Y-76600000D01*
X30000000Y-76600000D01*
X29850000Y-76600000D01*
X29847000Y-76600000D01*
X29845000Y-76600000D01*
X29842000Y-76599000D01*
X29840000Y-76599000D01*
X29837000Y-76598000D01*
X29835000Y-76598000D01*
X29832000Y-76597000D01*
X29830000Y-76596000D01*
X29827000Y-76595000D01*
X29825000Y-76593000D01*
X29823000Y-76592000D01*
X29821000Y-76590000D01*
X29819000Y-76589000D01*
X29817000Y-76587000D01*
X29815000Y-76585000D01*
X29813000Y-76583000D01*
X29811000Y-76581000D01*
X29810000Y-76579000D01*
X29808000Y-76577000D01*
X29807000Y-76575000D01*
X29805000Y-76573000D01*
X29804000Y-76570000D01*
X29803000Y-76568000D01*
X29802000Y-76565000D01*
X29802000Y-76563000D01*
X29801000Y-76560000D01*
X29801000Y-76558000D01*
X29800000Y-76555000D01*
X29800000Y-76553000D01*
X29800000Y-76550000D01*
X29800000Y-76250000D01*
X29800000Y-76247000D01*
X29800000Y-76245000D01*
X29799000Y-76242000D01*
X29799000Y-76240000D01*
X29798000Y-76237000D01*
X29798000Y-76235000D01*
X29797000Y-76232000D01*
X29796000Y-76230000D01*
X29795000Y-76227000D01*
X29793000Y-76225000D01*
X29792000Y-76223000D01*
X29790000Y-76221000D01*
X29789000Y-76219000D01*
X29787000Y-76217000D01*
X29785000Y-76215000D01*
X29783000Y-76213000D01*
X29781000Y-76211000D01*
X29779000Y-76210000D01*
X29777000Y-76208000D01*
X29775000Y-76207000D01*
X29773000Y-76205000D01*
X29770000Y-76204000D01*
X29768000Y-76203000D01*
X29765000Y-76202000D01*
X29763000Y-76202000D01*
X29760000Y-76201000D01*
X29758000Y-76201000D01*
X29755000Y-76200000D01*
X29753000Y-76200000D01*
X29750000Y-76200000D01*
X29747000Y-76200000D01*
X29745000Y-76200000D01*
X29742000Y-76199000D01*
X29740000Y-76199000D01*
X29737000Y-76198000D01*
X29735000Y-76198000D01*
X29732000Y-76197000D01*
X29730000Y-76196000D01*
X29727000Y-76195000D01*
X29725000Y-76193000D01*
X29723000Y-76192000D01*
X29721000Y-76190000D01*
X29719000Y-76189000D01*
X29717000Y-76187000D01*
X29715000Y-76185000D01*
X29713000Y-76183000D01*
X29711000Y-76181000D01*
X29710000Y-76179000D01*
X29708000Y-76177000D01*
X29707000Y-76175000D01*
X29705000Y-76173000D01*
X29704000Y-76170000D01*
X29703000Y-76168000D01*
X29702000Y-76165000D01*
X29702000Y-76163000D01*
X29701000Y-76160000D01*
X29701000Y-76158000D01*
X29700000Y-76155000D01*
X29700000Y-76153000D01*
X29700000Y-76150000D01*
X29700000Y-75105000D01*
X29700000Y-75102000D01*
X29700000Y-75100000D01*
X29701000Y-75097000D01*
X29701000Y-75095000D01*
X29702000Y-75092000D01*
X29702000Y-75090000D01*
X29703000Y-75087000D01*
X29704000Y-75085000D01*
X29705000Y-75082000D01*
X29707000Y-75080000D01*
X29708000Y-75078000D01*
X29710000Y-75076000D01*
X29711000Y-75074000D01*
X29713000Y-75072000D01*
X29715000Y-75070000D01*
X29717000Y-75068000D01*
X29719000Y-75066000D01*
X29721000Y-75065000D01*
X29723000Y-75063000D01*
X29725000Y-75062000D01*
X29727000Y-75060000D01*
X29730000Y-75059000D01*
X29732000Y-75058000D01*
X29735000Y-75057000D01*
X29737000Y-75057000D01*
X29740000Y-75056000D01*
X29742000Y-75056000D01*
X29745000Y-75055000D01*
X29747000Y-75055000D01*
X29750000Y-75055000D01*
X30070000Y-75055000D01*
X30073000Y-75055000D01*
X30075000Y-75055000D01*
X30078000Y-75056000D01*
G37*
X29308000Y-75201000D02*
X29310000Y-75201000D01*
X29313000Y-75202000D01*
X29315000Y-75202000D01*
X29318000Y-75203000D01*
X29320000Y-75204000D01*
X29323000Y-75205000D01*
X29325000Y-75207000D01*
X29327000Y-75208000D01*
X29329000Y-75210000D01*
X29331000Y-75211000D01*
X29333000Y-75213000D01*
X29335000Y-75215000D01*
X29337000Y-75217000D01*
X29339000Y-75219000D01*
X29340000Y-75221000D01*
X29342000Y-75223000D01*
X29343000Y-75225000D01*
X29345000Y-75227000D01*
X29346000Y-75230000D01*
X29347000Y-75232000D01*
X29348000Y-75235000D01*
X29348000Y-75237000D01*
X29349000Y-75240000D01*
X29349000Y-75242000D01*
X29350000Y-75245000D01*
X29350000Y-75247000D01*
X29350000Y-75250000D01*
X29350000Y-76150000D01*
X29350000Y-76153000D01*
X29350000Y-76155000D01*
X29349000Y-76158000D01*
X29349000Y-76160000D01*
X29348000Y-76163000D01*
X29348000Y-76165000D01*
X29347000Y-76168000D01*
X29346000Y-76170000D01*
X29345000Y-76173000D01*
X29343000Y-76175000D01*
X29342000Y-76177000D01*
X29340000Y-76179000D01*
X29339000Y-76181000D01*
X29337000Y-76183000D01*
X29335000Y-76185000D01*
X29333000Y-76187000D01*
X29331000Y-76189000D01*
X29329000Y-76190000D01*
X29327000Y-76192000D01*
X29325000Y-76193000D01*
X29323000Y-76195000D01*
X29320000Y-76196000D01*
X29318000Y-76197000D01*
X29315000Y-76198000D01*
X29313000Y-76198000D01*
X29310000Y-76199000D01*
X29308000Y-76199000D01*
X29305000Y-76200000D01*
X29303000Y-76200000D01*
X29300000Y-76200000D01*
X29185000Y-76200000D01*
X29182000Y-76200000D01*
X29180000Y-76200000D01*
X29177000Y-76201000D01*
X29175000Y-76201000D01*
X29172000Y-76202000D01*
X29170000Y-76202000D01*
X29167000Y-76203000D01*
X29165000Y-76204000D01*
X29162000Y-76205000D01*
X29160000Y-76207000D01*
X29158000Y-76208000D01*
X29156000Y-76210000D01*
X29154000Y-76211000D01*
X29152000Y-76213000D01*
X29150000Y-76215000D01*
X29148000Y-76217000D01*
X29146000Y-76219000D01*
X29145000Y-76221000D01*
X29143000Y-76223000D01*
X29142000Y-76225000D01*
X29140000Y-76227000D01*
X29139000Y-76230000D01*
X29138000Y-76232000D01*
X29137000Y-76235000D01*
X29137000Y-76237000D01*
X29136000Y-76240000D01*
X29136000Y-76242000D01*
X29135000Y-76245000D01*
X29135000Y-76247000D01*
X29135000Y-76250000D01*
X29135000Y-76550000D01*
X29135000Y-76553000D01*
X29135000Y-76555000D01*
X29134000Y-76558000D01*
X29134000Y-76560000D01*
X29133000Y-76563000D01*
X29133000Y-76565000D01*
X29132000Y-76568000D01*
X29131000Y-76570000D01*
X29130000Y-76573000D01*
X29128000Y-76575000D01*
X29127000Y-76577000D01*
X29125000Y-76579000D01*
X29124000Y-76581000D01*
X29122000Y-76583000D01*
X29120000Y-76585000D01*
X29118000Y-76587000D01*
X29116000Y-76589000D01*
X29114000Y-76590000D01*
X29112000Y-76592000D01*
X29110000Y-76593000D01*
X29108000Y-76595000D01*
X29105000Y-76596000D01*
X29103000Y-76597000D01*
X29100000Y-76598000D01*
X29098000Y-76598000D01*
X29095000Y-76599000D01*
X29093000Y-76599000D01*
X29090000Y-76600000D01*
X29088000Y-76600000D01*
X29085000Y-76600000D01*
X28935000Y-76600000D01*
X28932000Y-76600000D01*
X28930000Y-76600000D01*
X28927000Y-76599000D01*
X28925000Y-76599000D01*
X28922000Y-76598000D01*
X28920000Y-76598000D01*
X28917000Y-76597000D01*
X28915000Y-76596000D01*
X28912000Y-76595000D01*
X28910000Y-76593000D01*
X28908000Y-76592000D01*
X28906000Y-76590000D01*
X28904000Y-76589000D01*
X28902000Y-76587000D01*
X28900000Y-76585000D01*
X28898000Y-76583000D01*
X28896000Y-76581000D01*
X28895000Y-76579000D01*
X28893000Y-76577000D01*
X28892000Y-76575000D01*
X28890000Y-76573000D01*
X28889000Y-76570000D01*
X28888000Y-76568000D01*
X28887000Y-76565000D01*
X28887000Y-76563000D01*
X28886000Y-76560000D01*
X28886000Y-76558000D01*
X28885000Y-76555000D01*
X28885000Y-76553000D01*
X28885000Y-76550000D01*
X28885000Y-76250000D01*
X28885000Y-76247000D01*
X28885000Y-76245000D01*
X28884000Y-76242000D01*
X28884000Y-76240000D01*
X28883000Y-76237000D01*
X28883000Y-76235000D01*
X28882000Y-76232000D01*
X28881000Y-76230000D01*
X28880000Y-76227000D01*
X28878000Y-76225000D01*
X28877000Y-76223000D01*
X28875000Y-76221000D01*
X28874000Y-76219000D01*
X28872000Y-76217000D01*
X28870000Y-76215000D01*
X28868000Y-76213000D01*
X28866000Y-76211000D01*
X28864000Y-76210000D01*
X28862000Y-76208000D01*
X28860000Y-76207000D01*
X28858000Y-76205000D01*
X28855000Y-76204000D01*
X28853000Y-76203000D01*
X28850000Y-76202000D01*
X28848000Y-76202000D01*
X28845000Y-76201000D01*
X28843000Y-76201000D01*
X28840000Y-76200000D01*
X28838000Y-76200000D01*
X28835000Y-76200000D01*
X28685000Y-76200000D01*
X28682000Y-76200000D01*
X28680000Y-76200000D01*
X28677000Y-76201000D01*
X28675000Y-76201000D01*
X28672000Y-76202000D01*
X28670000Y-76202000D01*
X28667000Y-76203000D01*
X28665000Y-76204000D01*
X28662000Y-76205000D01*
X28660000Y-76207000D01*
X28658000Y-76208000D01*
X28656000Y-76210000D01*
X28654000Y-76211000D01*
X28652000Y-76213000D01*
X28650000Y-76215000D01*
X28648000Y-76217000D01*
X28646000Y-76219000D01*
X28645000Y-76221000D01*
X28643000Y-76223000D01*
X28642000Y-76225000D01*
X28640000Y-76227000D01*
X28639000Y-76230000D01*
X28638000Y-76232000D01*
X28637000Y-76235000D01*
X28637000Y-76237000D01*
X28636000Y-76240000D01*
X28636000Y-76242000D01*
X28635000Y-76245000D01*
X28635000Y-76247000D01*
X28635000Y-76250000D01*
X28635000Y-76550000D01*
X28635000Y-76553000D01*
X28635000Y-76555000D01*
X28634000Y-76558000D01*
X28634000Y-76560000D01*
X28633000Y-76563000D01*
X28633000Y-76565000D01*
X28632000Y-76568000D01*
X28631000Y-76570000D01*
X28630000Y-76573000D01*
X28628000Y-76575000D01*
X28627000Y-76577000D01*
X28625000Y-76579000D01*
X28624000Y-76581000D01*
X28622000Y-76583000D01*
X28620000Y-76585000D01*
X28618000Y-76587000D01*
X28616000Y-76589000D01*
X28614000Y-76590000D01*
X28612000Y-76592000D01*
X28610000Y-76593000D01*
X28608000Y-76595000D01*
X28605000Y-76596000D01*
X28603000Y-76597000D01*
X28600000Y-76598000D01*
X28598000Y-76598000D01*
X28595000Y-76599000D01*
X28593000Y-76599000D01*
X28590000Y-76600000D01*
X28588000Y-76600000D01*
X28585000Y-76600000D01*
X28435000Y-76600000D01*
X28432000Y-76600000D01*
X28430000Y-76600000D01*
X28427000Y-76599000D01*
X28425000Y-76599000D01*
X28422000Y-76598000D01*
X28420000Y-76598000D01*
X28417000Y-76597000D01*
X28415000Y-76596000D01*
X28412000Y-76595000D01*
X28410000Y-76593000D01*
X28408000Y-76592000D01*
X28406000Y-76590000D01*
X28404000Y-76589000D01*
X28402000Y-76587000D01*
X28400000Y-76585000D01*
X28398000Y-76583000D01*
X28396000Y-76581000D01*
X28395000Y-76579000D01*
X28393000Y-76577000D01*
X28392000Y-76575000D01*
X28390000Y-76573000D01*
X28389000Y-76570000D01*
X28388000Y-76568000D01*
X28387000Y-76565000D01*
X28387000Y-76563000D01*
X28386000Y-76560000D01*
X28386000Y-76558000D01*
X28385000Y-76555000D01*
X28385000Y-76553000D01*
X28385000Y-76550000D01*
X28385000Y-76250000D01*
X28385000Y-76247000D01*
X28385000Y-76245000D01*
X28384000Y-76242000D01*
X28384000Y-76240000D01*
X28383000Y-76237000D01*
X28383000Y-76235000D01*
X28382000Y-76232000D01*
X28381000Y-76230000D01*
X28380000Y-76227000D01*
X28378000Y-76225000D01*
X28377000Y-76223000D01*
X28375000Y-76221000D01*
X28374000Y-76219000D01*
X28372000Y-76217000D01*
X28370000Y-76215000D01*
X28368000Y-76213000D01*
X28366000Y-76211000D01*
X28364000Y-76210000D01*
X28362000Y-76208000D01*
X28360000Y-76207000D01*
X28358000Y-76205000D01*
X28355000Y-76204000D01*
X28353000Y-76203000D01*
X28350000Y-76202000D01*
X28348000Y-76202000D01*
X28345000Y-76201000D01*
X28343000Y-76201000D01*
X28340000Y-76200000D01*
X28338000Y-76200000D01*
X28335000Y-76200000D01*
X28185000Y-76200000D01*
X28182000Y-76200000D01*
X28180000Y-76200000D01*
X28177000Y-76201000D01*
X28175000Y-76201000D01*
X28172000Y-76202000D01*
X28170000Y-76202000D01*
X28167000Y-76203000D01*
X28165000Y-76204000D01*
X28162000Y-76205000D01*
X28160000Y-76207000D01*
X28158000Y-76208000D01*
X28156000Y-76210000D01*
X28154000Y-76211000D01*
X28152000Y-76213000D01*
X28150000Y-76215000D01*
X28148000Y-76217000D01*
X28146000Y-76219000D01*
X28145000Y-76221000D01*
X28143000Y-76223000D01*
X28142000Y-76225000D01*
X28140000Y-76227000D01*
X28139000Y-76230000D01*
X28138000Y-76232000D01*
X28137000Y-76235000D01*
X28137000Y-76237000D01*
X28136000Y-76240000D01*
X28136000Y-76242000D01*
X28135000Y-76245000D01*
X28135000Y-76247000D01*
X28135000Y-76250000D01*
X28135000Y-76550000D01*
X28135000Y-76553000D01*
X28135000Y-76555000D01*
X28134000Y-76558000D01*
X28134000Y-76560000D01*
X28133000Y-76563000D01*
X28133000Y-76565000D01*
X28132000Y-76568000D01*
X28131000Y-76570000D01*
X28130000Y-76573000D01*
X28128000Y-76575000D01*
X28127000Y-76577000D01*
X28125000Y-76579000D01*
X28124000Y-76581000D01*
X28122000Y-76583000D01*
X28120000Y-76585000D01*
X28118000Y-76587000D01*
X28116000Y-76589000D01*
X28114000Y-76590000D01*
X28112000Y-76592000D01*
X28110000Y-76593000D01*
X28108000Y-76595000D01*
X28105000Y-76596000D01*
X28103000Y-76597000D01*
X28100000Y-76598000D01*
X28098000Y-76598000D01*
X28095000Y-76599000D01*
X28093000Y-76599000D01*
X28090000Y-76600000D01*
X28088000Y-76600000D01*
X28085000Y-76600000D01*
X27935000Y-76600000D01*
X27932000Y-76600000D01*
X27930000Y-76600000D01*
X27927000Y-76599000D01*
X27925000Y-76599000D01*
X27922000Y-76598000D01*
X27920000Y-76598000D01*
X27917000Y-76597000D01*
X27915000Y-76596000D01*
X27912000Y-76595000D01*
X27910000Y-76593000D01*
X27908000Y-76592000D01*
X27906000Y-76590000D01*
X27904000Y-76589000D01*
X27902000Y-76587000D01*
X27900000Y-76585000D01*
X27898000Y-76583000D01*
X27896000Y-76581000D01*
X27895000Y-76579000D01*
X27893000Y-76577000D01*
X27892000Y-76575000D01*
X27890000Y-76573000D01*
X27889000Y-76570000D01*
X27888000Y-76568000D01*
X27887000Y-76565000D01*
X27887000Y-76563000D01*
X27886000Y-76560000D01*
X27886000Y-76558000D01*
X27885000Y-76555000D01*
X27885000Y-76553000D01*
X27885000Y-76550000D01*
X27885000Y-76250000D01*
X27885000Y-76247000D01*
X27885000Y-76245000D01*
X27884000Y-76242000D01*
X27884000Y-76240000D01*
X27883000Y-76237000D01*
X27883000Y-76235000D01*
X27882000Y-76232000D01*
X27881000Y-76230000D01*
X27880000Y-76227000D01*
X27878000Y-76225000D01*
X27877000Y-76223000D01*
X27875000Y-76221000D01*
X27874000Y-76219000D01*
X27872000Y-76217000D01*
X27870000Y-76215000D01*
X27868000Y-76213000D01*
X27866000Y-76211000D01*
X27864000Y-76210000D01*
X27862000Y-76208000D01*
X27860000Y-76207000D01*
X27858000Y-76205000D01*
X27855000Y-76204000D01*
X27853000Y-76203000D01*
X27850000Y-76202000D01*
X27848000Y-76202000D01*
X27845000Y-76201000D01*
X27843000Y-76201000D01*
X27840000Y-76200000D01*
X27838000Y-76200000D01*
X27835000Y-76200000D01*
X27685000Y-76200000D01*
X27682000Y-76200000D01*
X27680000Y-76200000D01*
X27677000Y-76201000D01*
X27675000Y-76201000D01*
X27672000Y-76202000D01*
X27670000Y-76202000D01*
X27667000Y-76203000D01*
X27665000Y-76204000D01*
X27662000Y-76205000D01*
X27660000Y-76207000D01*
X27658000Y-76208000D01*
X27656000Y-76210000D01*
X27654000Y-76211000D01*
X27652000Y-76213000D01*
X27650000Y-76215000D01*
X27648000Y-76217000D01*
X27646000Y-76219000D01*
X27645000Y-76221000D01*
X27643000Y-76223000D01*
X27642000Y-76225000D01*
X27640000Y-76227000D01*
X27639000Y-76230000D01*
X27638000Y-76232000D01*
X27637000Y-76235000D01*
X27637000Y-76237000D01*
X27636000Y-76240000D01*
X27636000Y-76242000D01*
X27635000Y-76245000D01*
X27635000Y-76247000D01*
X27635000Y-76250000D01*
X27635000Y-76550000D01*
X27635000Y-76553000D01*
X27635000Y-76555000D01*
X27634000Y-76558000D01*
X27634000Y-76560000D01*
X27633000Y-76563000D01*
X27633000Y-76565000D01*
X27632000Y-76568000D01*
X27631000Y-76570000D01*
X27630000Y-76573000D01*
X27628000Y-76575000D01*
X27627000Y-76577000D01*
X27625000Y-76579000D01*
X27624000Y-76581000D01*
X27622000Y-76583000D01*
X27620000Y-76585000D01*
X27618000Y-76587000D01*
X27616000Y-76589000D01*
X27614000Y-76590000D01*
X27612000Y-76592000D01*
X27610000Y-76593000D01*
X27608000Y-76595000D01*
X27605000Y-76596000D01*
X27603000Y-76597000D01*
X27600000Y-76598000D01*
X27598000Y-76598000D01*
X27595000Y-76599000D01*
X27593000Y-76599000D01*
X27590000Y-76600000D01*
X27588000Y-76600000D01*
X27585000Y-76600000D01*
X27435000Y-76600000D01*
X27432000Y-76600000D01*
X27430000Y-76600000D01*
X27427000Y-76599000D01*
X27425000Y-76599000D01*
X27422000Y-76598000D01*
X27420000Y-76598000D01*
X27417000Y-76597000D01*
X27415000Y-76596000D01*
X27412000Y-76595000D01*
X27410000Y-76593000D01*
X27408000Y-76592000D01*
X27406000Y-76590000D01*
X27404000Y-76589000D01*
X27402000Y-76587000D01*
X27400000Y-76585000D01*
X27398000Y-76583000D01*
X27396000Y-76581000D01*
X27395000Y-76579000D01*
X27393000Y-76577000D01*
X27392000Y-76575000D01*
X27390000Y-76573000D01*
X27389000Y-76570000D01*
X27388000Y-76568000D01*
X27387000Y-76565000D01*
X27387000Y-76563000D01*
X27386000Y-76560000D01*
X27386000Y-76558000D01*
X27385000Y-76555000D01*
X27385000Y-76553000D01*
X27385000Y-76550000D01*
X27385000Y-76250000D01*
X27385000Y-76247000D01*
X27385000Y-76245000D01*
X27384000Y-76242000D01*
X27384000Y-76240000D01*
X27383000Y-76237000D01*
X27383000Y-76235000D01*
X27382000Y-76232000D01*
X27381000Y-76230000D01*
X27380000Y-76227000D01*
X27378000Y-76225000D01*
X27377000Y-76223000D01*
X27375000Y-76221000D01*
X27374000Y-76219000D01*
X27372000Y-76217000D01*
X27370000Y-76215000D01*
X27368000Y-76213000D01*
X27366000Y-76211000D01*
X27364000Y-76210000D01*
X27362000Y-76208000D01*
X27360000Y-76207000D01*
X27358000Y-76205000D01*
X27355000Y-76204000D01*
X27353000Y-76203000D01*
X27350000Y-76202000D01*
X27348000Y-76202000D01*
X27345000Y-76201000D01*
X27343000Y-76201000D01*
X27340000Y-76200000D01*
X27338000Y-76200000D01*
X27335000Y-76200000D01*
X27200000Y-76200000D01*
X27197000Y-76200000D01*
X27195000Y-76200000D01*
X27192000Y-76199000D01*
X27190000Y-76199000D01*
X27187000Y-76198000D01*
X27185000Y-76198000D01*
X27182000Y-76197000D01*
X27180000Y-76196000D01*
X27177000Y-76195000D01*
X27175000Y-76193000D01*
X27173000Y-76192000D01*
X27171000Y-76190000D01*
X27169000Y-76189000D01*
X27167000Y-76187000D01*
X27165000Y-76185000D01*
X27163000Y-76183000D01*
X27161000Y-76181000D01*
X27160000Y-76179000D01*
X27158000Y-76177000D01*
X27157000Y-76175000D01*
X27155000Y-76173000D01*
X27154000Y-76170000D01*
X27153000Y-76168000D01*
X27152000Y-76165000D01*
X27152000Y-76163000D01*
X27151000Y-76160000D01*
X27151000Y-76158000D01*
X27150000Y-76155000D01*
X27150000Y-76153000D01*
X27150000Y-76150000D01*
X27150000Y-75250000D01*
X27150000Y-75247000D01*
X27150000Y-75245000D01*
X27151000Y-75242000D01*
X27151000Y-75240000D01*
X27152000Y-75237000D01*
X27152000Y-75235000D01*
X27153000Y-75232000D01*
X27154000Y-75230000D01*
X27155000Y-75227000D01*
X27157000Y-75225000D01*
X27158000Y-75223000D01*
X27160000Y-75221000D01*
X27161000Y-75219000D01*
X27163000Y-75217000D01*
X27165000Y-75215000D01*
X27167000Y-75213000D01*
X27169000Y-75211000D01*
X27171000Y-75210000D01*
X27173000Y-75208000D01*
X27175000Y-75207000D01*
X27177000Y-75205000D01*
X27180000Y-75204000D01*
X27182000Y-75203000D01*
X27185000Y-75202000D01*
X27187000Y-75202000D01*
X27190000Y-75201000D01*
X27192000Y-75201000D01*
X27195000Y-75200000D01*
X27197000Y-75200000D01*
X27200000Y-75200000D01*
X29300000Y-75200000D01*
X29303000Y-75200000D01*
X29305000Y-75200000D01*
X29308000Y-75201000D01*
G36*
X29308000Y-75201000D02*
G01*
X29310000Y-75201000D01*
X29313000Y-75202000D01*
X29315000Y-75202000D01*
X29318000Y-75203000D01*
X29320000Y-75204000D01*
X29323000Y-75205000D01*
X29325000Y-75207000D01*
X29327000Y-75208000D01*
X29329000Y-75210000D01*
X29331000Y-75211000D01*
X29333000Y-75213000D01*
X29335000Y-75215000D01*
X29337000Y-75217000D01*
X29339000Y-75219000D01*
X29340000Y-75221000D01*
X29342000Y-75223000D01*
X29343000Y-75225000D01*
X29345000Y-75227000D01*
X29346000Y-75230000D01*
X29347000Y-75232000D01*
X29348000Y-75235000D01*
X29348000Y-75237000D01*
X29349000Y-75240000D01*
X29349000Y-75242000D01*
X29350000Y-75245000D01*
X29350000Y-75247000D01*
X29350000Y-75250000D01*
X29350000Y-76150000D01*
X29350000Y-76153000D01*
X29350000Y-76155000D01*
X29349000Y-76158000D01*
X29349000Y-76160000D01*
X29348000Y-76163000D01*
X29348000Y-76165000D01*
X29347000Y-76168000D01*
X29346000Y-76170000D01*
X29345000Y-76173000D01*
X29343000Y-76175000D01*
X29342000Y-76177000D01*
X29340000Y-76179000D01*
X29339000Y-76181000D01*
X29337000Y-76183000D01*
X29335000Y-76185000D01*
X29333000Y-76187000D01*
X29331000Y-76189000D01*
X29329000Y-76190000D01*
X29327000Y-76192000D01*
X29325000Y-76193000D01*
X29323000Y-76195000D01*
X29320000Y-76196000D01*
X29318000Y-76197000D01*
X29315000Y-76198000D01*
X29313000Y-76198000D01*
X29310000Y-76199000D01*
X29308000Y-76199000D01*
X29305000Y-76200000D01*
X29303000Y-76200000D01*
X29300000Y-76200000D01*
X29185000Y-76200000D01*
X29182000Y-76200000D01*
X29180000Y-76200000D01*
X29177000Y-76201000D01*
X29175000Y-76201000D01*
X29172000Y-76202000D01*
X29170000Y-76202000D01*
X29167000Y-76203000D01*
X29165000Y-76204000D01*
X29162000Y-76205000D01*
X29160000Y-76207000D01*
X29158000Y-76208000D01*
X29156000Y-76210000D01*
X29154000Y-76211000D01*
X29152000Y-76213000D01*
X29150000Y-76215000D01*
X29148000Y-76217000D01*
X29146000Y-76219000D01*
X29145000Y-76221000D01*
X29143000Y-76223000D01*
X29142000Y-76225000D01*
X29140000Y-76227000D01*
X29139000Y-76230000D01*
X29138000Y-76232000D01*
X29137000Y-76235000D01*
X29137000Y-76237000D01*
X29136000Y-76240000D01*
X29136000Y-76242000D01*
X29135000Y-76245000D01*
X29135000Y-76247000D01*
X29135000Y-76250000D01*
X29135000Y-76550000D01*
X29135000Y-76553000D01*
X29135000Y-76555000D01*
X29134000Y-76558000D01*
X29134000Y-76560000D01*
X29133000Y-76563000D01*
X29133000Y-76565000D01*
X29132000Y-76568000D01*
X29131000Y-76570000D01*
X29130000Y-76573000D01*
X29128000Y-76575000D01*
X29127000Y-76577000D01*
X29125000Y-76579000D01*
X29124000Y-76581000D01*
X29122000Y-76583000D01*
X29120000Y-76585000D01*
X29118000Y-76587000D01*
X29116000Y-76589000D01*
X29114000Y-76590000D01*
X29112000Y-76592000D01*
X29110000Y-76593000D01*
X29108000Y-76595000D01*
X29105000Y-76596000D01*
X29103000Y-76597000D01*
X29100000Y-76598000D01*
X29098000Y-76598000D01*
X29095000Y-76599000D01*
X29093000Y-76599000D01*
X29090000Y-76600000D01*
X29088000Y-76600000D01*
X29085000Y-76600000D01*
X28935000Y-76600000D01*
X28932000Y-76600000D01*
X28930000Y-76600000D01*
X28927000Y-76599000D01*
X28925000Y-76599000D01*
X28922000Y-76598000D01*
X28920000Y-76598000D01*
X28917000Y-76597000D01*
X28915000Y-76596000D01*
X28912000Y-76595000D01*
X28910000Y-76593000D01*
X28908000Y-76592000D01*
X28906000Y-76590000D01*
X28904000Y-76589000D01*
X28902000Y-76587000D01*
X28900000Y-76585000D01*
X28898000Y-76583000D01*
X28896000Y-76581000D01*
X28895000Y-76579000D01*
X28893000Y-76577000D01*
X28892000Y-76575000D01*
X28890000Y-76573000D01*
X28889000Y-76570000D01*
X28888000Y-76568000D01*
X28887000Y-76565000D01*
X28887000Y-76563000D01*
X28886000Y-76560000D01*
X28886000Y-76558000D01*
X28885000Y-76555000D01*
X28885000Y-76553000D01*
X28885000Y-76550000D01*
X28885000Y-76250000D01*
X28885000Y-76247000D01*
X28885000Y-76245000D01*
X28884000Y-76242000D01*
X28884000Y-76240000D01*
X28883000Y-76237000D01*
X28883000Y-76235000D01*
X28882000Y-76232000D01*
X28881000Y-76230000D01*
X28880000Y-76227000D01*
X28878000Y-76225000D01*
X28877000Y-76223000D01*
X28875000Y-76221000D01*
X28874000Y-76219000D01*
X28872000Y-76217000D01*
X28870000Y-76215000D01*
X28868000Y-76213000D01*
X28866000Y-76211000D01*
X28864000Y-76210000D01*
X28862000Y-76208000D01*
X28860000Y-76207000D01*
X28858000Y-76205000D01*
X28855000Y-76204000D01*
X28853000Y-76203000D01*
X28850000Y-76202000D01*
X28848000Y-76202000D01*
X28845000Y-76201000D01*
X28843000Y-76201000D01*
X28840000Y-76200000D01*
X28838000Y-76200000D01*
X28835000Y-76200000D01*
X28685000Y-76200000D01*
X28682000Y-76200000D01*
X28680000Y-76200000D01*
X28677000Y-76201000D01*
X28675000Y-76201000D01*
X28672000Y-76202000D01*
X28670000Y-76202000D01*
X28667000Y-76203000D01*
X28665000Y-76204000D01*
X28662000Y-76205000D01*
X28660000Y-76207000D01*
X28658000Y-76208000D01*
X28656000Y-76210000D01*
X28654000Y-76211000D01*
X28652000Y-76213000D01*
X28650000Y-76215000D01*
X28648000Y-76217000D01*
X28646000Y-76219000D01*
X28645000Y-76221000D01*
X28643000Y-76223000D01*
X28642000Y-76225000D01*
X28640000Y-76227000D01*
X28639000Y-76230000D01*
X28638000Y-76232000D01*
X28637000Y-76235000D01*
X28637000Y-76237000D01*
X28636000Y-76240000D01*
X28636000Y-76242000D01*
X28635000Y-76245000D01*
X28635000Y-76247000D01*
X28635000Y-76250000D01*
X28635000Y-76550000D01*
X28635000Y-76553000D01*
X28635000Y-76555000D01*
X28634000Y-76558000D01*
X28634000Y-76560000D01*
X28633000Y-76563000D01*
X28633000Y-76565000D01*
X28632000Y-76568000D01*
X28631000Y-76570000D01*
X28630000Y-76573000D01*
X28628000Y-76575000D01*
X28627000Y-76577000D01*
X28625000Y-76579000D01*
X28624000Y-76581000D01*
X28622000Y-76583000D01*
X28620000Y-76585000D01*
X28618000Y-76587000D01*
X28616000Y-76589000D01*
X28614000Y-76590000D01*
X28612000Y-76592000D01*
X28610000Y-76593000D01*
X28608000Y-76595000D01*
X28605000Y-76596000D01*
X28603000Y-76597000D01*
X28600000Y-76598000D01*
X28598000Y-76598000D01*
X28595000Y-76599000D01*
X28593000Y-76599000D01*
X28590000Y-76600000D01*
X28588000Y-76600000D01*
X28585000Y-76600000D01*
X28435000Y-76600000D01*
X28432000Y-76600000D01*
X28430000Y-76600000D01*
X28427000Y-76599000D01*
X28425000Y-76599000D01*
X28422000Y-76598000D01*
X28420000Y-76598000D01*
X28417000Y-76597000D01*
X28415000Y-76596000D01*
X28412000Y-76595000D01*
X28410000Y-76593000D01*
X28408000Y-76592000D01*
X28406000Y-76590000D01*
X28404000Y-76589000D01*
X28402000Y-76587000D01*
X28400000Y-76585000D01*
X28398000Y-76583000D01*
X28396000Y-76581000D01*
X28395000Y-76579000D01*
X28393000Y-76577000D01*
X28392000Y-76575000D01*
X28390000Y-76573000D01*
X28389000Y-76570000D01*
X28388000Y-76568000D01*
X28387000Y-76565000D01*
X28387000Y-76563000D01*
X28386000Y-76560000D01*
X28386000Y-76558000D01*
X28385000Y-76555000D01*
X28385000Y-76553000D01*
X28385000Y-76550000D01*
X28385000Y-76250000D01*
X28385000Y-76247000D01*
X28385000Y-76245000D01*
X28384000Y-76242000D01*
X28384000Y-76240000D01*
X28383000Y-76237000D01*
X28383000Y-76235000D01*
X28382000Y-76232000D01*
X28381000Y-76230000D01*
X28380000Y-76227000D01*
X28378000Y-76225000D01*
X28377000Y-76223000D01*
X28375000Y-76221000D01*
X28374000Y-76219000D01*
X28372000Y-76217000D01*
X28370000Y-76215000D01*
X28368000Y-76213000D01*
X28366000Y-76211000D01*
X28364000Y-76210000D01*
X28362000Y-76208000D01*
X28360000Y-76207000D01*
X28358000Y-76205000D01*
X28355000Y-76204000D01*
X28353000Y-76203000D01*
X28350000Y-76202000D01*
X28348000Y-76202000D01*
X28345000Y-76201000D01*
X28343000Y-76201000D01*
X28340000Y-76200000D01*
X28338000Y-76200000D01*
X28335000Y-76200000D01*
X28185000Y-76200000D01*
X28182000Y-76200000D01*
X28180000Y-76200000D01*
X28177000Y-76201000D01*
X28175000Y-76201000D01*
X28172000Y-76202000D01*
X28170000Y-76202000D01*
X28167000Y-76203000D01*
X28165000Y-76204000D01*
X28162000Y-76205000D01*
X28160000Y-76207000D01*
X28158000Y-76208000D01*
X28156000Y-76210000D01*
X28154000Y-76211000D01*
X28152000Y-76213000D01*
X28150000Y-76215000D01*
X28148000Y-76217000D01*
X28146000Y-76219000D01*
X28145000Y-76221000D01*
X28143000Y-76223000D01*
X28142000Y-76225000D01*
X28140000Y-76227000D01*
X28139000Y-76230000D01*
X28138000Y-76232000D01*
X28137000Y-76235000D01*
X28137000Y-76237000D01*
X28136000Y-76240000D01*
X28136000Y-76242000D01*
X28135000Y-76245000D01*
X28135000Y-76247000D01*
X28135000Y-76250000D01*
X28135000Y-76550000D01*
X28135000Y-76553000D01*
X28135000Y-76555000D01*
X28134000Y-76558000D01*
X28134000Y-76560000D01*
X28133000Y-76563000D01*
X28133000Y-76565000D01*
X28132000Y-76568000D01*
X28131000Y-76570000D01*
X28130000Y-76573000D01*
X28128000Y-76575000D01*
X28127000Y-76577000D01*
X28125000Y-76579000D01*
X28124000Y-76581000D01*
X28122000Y-76583000D01*
X28120000Y-76585000D01*
X28118000Y-76587000D01*
X28116000Y-76589000D01*
X28114000Y-76590000D01*
X28112000Y-76592000D01*
X28110000Y-76593000D01*
X28108000Y-76595000D01*
X28105000Y-76596000D01*
X28103000Y-76597000D01*
X28100000Y-76598000D01*
X28098000Y-76598000D01*
X28095000Y-76599000D01*
X28093000Y-76599000D01*
X28090000Y-76600000D01*
X28088000Y-76600000D01*
X28085000Y-76600000D01*
X27935000Y-76600000D01*
X27932000Y-76600000D01*
X27930000Y-76600000D01*
X27927000Y-76599000D01*
X27925000Y-76599000D01*
X27922000Y-76598000D01*
X27920000Y-76598000D01*
X27917000Y-76597000D01*
X27915000Y-76596000D01*
X27912000Y-76595000D01*
X27910000Y-76593000D01*
X27908000Y-76592000D01*
X27906000Y-76590000D01*
X27904000Y-76589000D01*
X27902000Y-76587000D01*
X27900000Y-76585000D01*
X27898000Y-76583000D01*
X27896000Y-76581000D01*
X27895000Y-76579000D01*
X27893000Y-76577000D01*
X27892000Y-76575000D01*
X27890000Y-76573000D01*
X27889000Y-76570000D01*
X27888000Y-76568000D01*
X27887000Y-76565000D01*
X27887000Y-76563000D01*
X27886000Y-76560000D01*
X27886000Y-76558000D01*
X27885000Y-76555000D01*
X27885000Y-76553000D01*
X27885000Y-76550000D01*
X27885000Y-76250000D01*
X27885000Y-76247000D01*
X27885000Y-76245000D01*
X27884000Y-76242000D01*
X27884000Y-76240000D01*
X27883000Y-76237000D01*
X27883000Y-76235000D01*
X27882000Y-76232000D01*
X27881000Y-76230000D01*
X27880000Y-76227000D01*
X27878000Y-76225000D01*
X27877000Y-76223000D01*
X27875000Y-76221000D01*
X27874000Y-76219000D01*
X27872000Y-76217000D01*
X27870000Y-76215000D01*
X27868000Y-76213000D01*
X27866000Y-76211000D01*
X27864000Y-76210000D01*
X27862000Y-76208000D01*
X27860000Y-76207000D01*
X27858000Y-76205000D01*
X27855000Y-76204000D01*
X27853000Y-76203000D01*
X27850000Y-76202000D01*
X27848000Y-76202000D01*
X27845000Y-76201000D01*
X27843000Y-76201000D01*
X27840000Y-76200000D01*
X27838000Y-76200000D01*
X27835000Y-76200000D01*
X27685000Y-76200000D01*
X27682000Y-76200000D01*
X27680000Y-76200000D01*
X27677000Y-76201000D01*
X27675000Y-76201000D01*
X27672000Y-76202000D01*
X27670000Y-76202000D01*
X27667000Y-76203000D01*
X27665000Y-76204000D01*
X27662000Y-76205000D01*
X27660000Y-76207000D01*
X27658000Y-76208000D01*
X27656000Y-76210000D01*
X27654000Y-76211000D01*
X27652000Y-76213000D01*
X27650000Y-76215000D01*
X27648000Y-76217000D01*
X27646000Y-76219000D01*
X27645000Y-76221000D01*
X27643000Y-76223000D01*
X27642000Y-76225000D01*
X27640000Y-76227000D01*
X27639000Y-76230000D01*
X27638000Y-76232000D01*
X27637000Y-76235000D01*
X27637000Y-76237000D01*
X27636000Y-76240000D01*
X27636000Y-76242000D01*
X27635000Y-76245000D01*
X27635000Y-76247000D01*
X27635000Y-76250000D01*
X27635000Y-76550000D01*
X27635000Y-76553000D01*
X27635000Y-76555000D01*
X27634000Y-76558000D01*
X27634000Y-76560000D01*
X27633000Y-76563000D01*
X27633000Y-76565000D01*
X27632000Y-76568000D01*
X27631000Y-76570000D01*
X27630000Y-76573000D01*
X27628000Y-76575000D01*
X27627000Y-76577000D01*
X27625000Y-76579000D01*
X27624000Y-76581000D01*
X27622000Y-76583000D01*
X27620000Y-76585000D01*
X27618000Y-76587000D01*
X27616000Y-76589000D01*
X27614000Y-76590000D01*
X27612000Y-76592000D01*
X27610000Y-76593000D01*
X27608000Y-76595000D01*
X27605000Y-76596000D01*
X27603000Y-76597000D01*
X27600000Y-76598000D01*
X27598000Y-76598000D01*
X27595000Y-76599000D01*
X27593000Y-76599000D01*
X27590000Y-76600000D01*
X27588000Y-76600000D01*
X27585000Y-76600000D01*
X27435000Y-76600000D01*
X27432000Y-76600000D01*
X27430000Y-76600000D01*
X27427000Y-76599000D01*
X27425000Y-76599000D01*
X27422000Y-76598000D01*
X27420000Y-76598000D01*
X27417000Y-76597000D01*
X27415000Y-76596000D01*
X27412000Y-76595000D01*
X27410000Y-76593000D01*
X27408000Y-76592000D01*
X27406000Y-76590000D01*
X27404000Y-76589000D01*
X27402000Y-76587000D01*
X27400000Y-76585000D01*
X27398000Y-76583000D01*
X27396000Y-76581000D01*
X27395000Y-76579000D01*
X27393000Y-76577000D01*
X27392000Y-76575000D01*
X27390000Y-76573000D01*
X27389000Y-76570000D01*
X27388000Y-76568000D01*
X27387000Y-76565000D01*
X27387000Y-76563000D01*
X27386000Y-76560000D01*
X27386000Y-76558000D01*
X27385000Y-76555000D01*
X27385000Y-76553000D01*
X27385000Y-76550000D01*
X27385000Y-76250000D01*
X27385000Y-76247000D01*
X27385000Y-76245000D01*
X27384000Y-76242000D01*
X27384000Y-76240000D01*
X27383000Y-76237000D01*
X27383000Y-76235000D01*
X27382000Y-76232000D01*
X27381000Y-76230000D01*
X27380000Y-76227000D01*
X27378000Y-76225000D01*
X27377000Y-76223000D01*
X27375000Y-76221000D01*
X27374000Y-76219000D01*
X27372000Y-76217000D01*
X27370000Y-76215000D01*
X27368000Y-76213000D01*
X27366000Y-76211000D01*
X27364000Y-76210000D01*
X27362000Y-76208000D01*
X27360000Y-76207000D01*
X27358000Y-76205000D01*
X27355000Y-76204000D01*
X27353000Y-76203000D01*
X27350000Y-76202000D01*
X27348000Y-76202000D01*
X27345000Y-76201000D01*
X27343000Y-76201000D01*
X27340000Y-76200000D01*
X27338000Y-76200000D01*
X27335000Y-76200000D01*
X27200000Y-76200000D01*
X27197000Y-76200000D01*
X27195000Y-76200000D01*
X27192000Y-76199000D01*
X27190000Y-76199000D01*
X27187000Y-76198000D01*
X27185000Y-76198000D01*
X27182000Y-76197000D01*
X27180000Y-76196000D01*
X27177000Y-76195000D01*
X27175000Y-76193000D01*
X27173000Y-76192000D01*
X27171000Y-76190000D01*
X27169000Y-76189000D01*
X27167000Y-76187000D01*
X27165000Y-76185000D01*
X27163000Y-76183000D01*
X27161000Y-76181000D01*
X27160000Y-76179000D01*
X27158000Y-76177000D01*
X27157000Y-76175000D01*
X27155000Y-76173000D01*
X27154000Y-76170000D01*
X27153000Y-76168000D01*
X27152000Y-76165000D01*
X27152000Y-76163000D01*
X27151000Y-76160000D01*
X27151000Y-76158000D01*
X27150000Y-76155000D01*
X27150000Y-76153000D01*
X27150000Y-76150000D01*
X27150000Y-75250000D01*
X27150000Y-75247000D01*
X27150000Y-75245000D01*
X27151000Y-75242000D01*
X27151000Y-75240000D01*
X27152000Y-75237000D01*
X27152000Y-75235000D01*
X27153000Y-75232000D01*
X27154000Y-75230000D01*
X27155000Y-75227000D01*
X27157000Y-75225000D01*
X27158000Y-75223000D01*
X27160000Y-75221000D01*
X27161000Y-75219000D01*
X27163000Y-75217000D01*
X27165000Y-75215000D01*
X27167000Y-75213000D01*
X27169000Y-75211000D01*
X27171000Y-75210000D01*
X27173000Y-75208000D01*
X27175000Y-75207000D01*
X27177000Y-75205000D01*
X27180000Y-75204000D01*
X27182000Y-75203000D01*
X27185000Y-75202000D01*
X27187000Y-75202000D01*
X27190000Y-75201000D01*
X27192000Y-75201000D01*
X27195000Y-75200000D01*
X27197000Y-75200000D01*
X27200000Y-75200000D01*
X29300000Y-75200000D01*
X29303000Y-75200000D01*
X29305000Y-75200000D01*
X29308000Y-75201000D01*
G37*
X27593000Y-72901000D02*
X27595000Y-72901000D01*
X27598000Y-72902000D01*
X27600000Y-72902000D01*
X27603000Y-72903000D01*
X27605000Y-72904000D01*
X27608000Y-72905000D01*
X27610000Y-72907000D01*
X27612000Y-72908000D01*
X27614000Y-72910000D01*
X27616000Y-72911000D01*
X27618000Y-72913000D01*
X27620000Y-72915000D01*
X27622000Y-72917000D01*
X27624000Y-72919000D01*
X27625000Y-72921000D01*
X27627000Y-72923000D01*
X27628000Y-72925000D01*
X27630000Y-72927000D01*
X27631000Y-72930000D01*
X27632000Y-72932000D01*
X27633000Y-72935000D01*
X27633000Y-72937000D01*
X27634000Y-72940000D01*
X27634000Y-72942000D01*
X27635000Y-72945000D01*
X27635000Y-72947000D01*
X27635000Y-72950000D01*
X27635000Y-73250000D01*
X27635000Y-73253000D01*
X27635000Y-73255000D01*
X27636000Y-73258000D01*
X27636000Y-73260000D01*
X27637000Y-73263000D01*
X27637000Y-73265000D01*
X27638000Y-73268000D01*
X27639000Y-73270000D01*
X27640000Y-73273000D01*
X27642000Y-73275000D01*
X27643000Y-73277000D01*
X27645000Y-73279000D01*
X27646000Y-73281000D01*
X27648000Y-73283000D01*
X27650000Y-73285000D01*
X27652000Y-73287000D01*
X27654000Y-73289000D01*
X27656000Y-73290000D01*
X27658000Y-73292000D01*
X27660000Y-73293000D01*
X27662000Y-73295000D01*
X27665000Y-73296000D01*
X27667000Y-73297000D01*
X27670000Y-73298000D01*
X27672000Y-73298000D01*
X27675000Y-73299000D01*
X27677000Y-73299000D01*
X27680000Y-73300000D01*
X27682000Y-73300000D01*
X27685000Y-73300000D01*
X27835000Y-73300000D01*
X27838000Y-73300000D01*
X27840000Y-73300000D01*
X27843000Y-73299000D01*
X27845000Y-73299000D01*
X27848000Y-73298000D01*
X27850000Y-73298000D01*
X27853000Y-73297000D01*
X27855000Y-73296000D01*
X27858000Y-73295000D01*
X27860000Y-73293000D01*
X27862000Y-73292000D01*
X27864000Y-73290000D01*
X27866000Y-73289000D01*
X27868000Y-73287000D01*
X27870000Y-73285000D01*
X27872000Y-73283000D01*
X27874000Y-73281000D01*
X27875000Y-73279000D01*
X27877000Y-73277000D01*
X27878000Y-73275000D01*
X27880000Y-73273000D01*
X27881000Y-73270000D01*
X27882000Y-73268000D01*
X27883000Y-73265000D01*
X27883000Y-73263000D01*
X27884000Y-73260000D01*
X27884000Y-73258000D01*
X27885000Y-73255000D01*
X27885000Y-73253000D01*
X27885000Y-73250000D01*
X27885000Y-72950000D01*
X27885000Y-72947000D01*
X27885000Y-72945000D01*
X27886000Y-72942000D01*
X27886000Y-72940000D01*
X27887000Y-72937000D01*
X27887000Y-72935000D01*
X27888000Y-72932000D01*
X27889000Y-72930000D01*
X27890000Y-72927000D01*
X27892000Y-72925000D01*
X27893000Y-72923000D01*
X27895000Y-72921000D01*
X27896000Y-72919000D01*
X27898000Y-72917000D01*
X27900000Y-72915000D01*
X27902000Y-72913000D01*
X27904000Y-72911000D01*
X27906000Y-72910000D01*
X27908000Y-72908000D01*
X27910000Y-72907000D01*
X27912000Y-72905000D01*
X27915000Y-72904000D01*
X27917000Y-72903000D01*
X27920000Y-72902000D01*
X27922000Y-72902000D01*
X27925000Y-72901000D01*
X27927000Y-72901000D01*
X27930000Y-72900000D01*
X27932000Y-72900000D01*
X27935000Y-72900000D01*
X28085000Y-72900000D01*
X28088000Y-72900000D01*
X28090000Y-72900000D01*
X28093000Y-72901000D01*
X28095000Y-72901000D01*
X28098000Y-72902000D01*
X28100000Y-72902000D01*
X28103000Y-72903000D01*
X28105000Y-72904000D01*
X28108000Y-72905000D01*
X28110000Y-72907000D01*
X28112000Y-72908000D01*
X28114000Y-72910000D01*
X28116000Y-72911000D01*
X28118000Y-72913000D01*
X28120000Y-72915000D01*
X28122000Y-72917000D01*
X28124000Y-72919000D01*
X28125000Y-72921000D01*
X28127000Y-72923000D01*
X28128000Y-72925000D01*
X28130000Y-72927000D01*
X28131000Y-72930000D01*
X28132000Y-72932000D01*
X28133000Y-72935000D01*
X28133000Y-72937000D01*
X28134000Y-72940000D01*
X28134000Y-72942000D01*
X28135000Y-72945000D01*
X28135000Y-72947000D01*
X28135000Y-72950000D01*
X28135000Y-73250000D01*
X28135000Y-73253000D01*
X28135000Y-73255000D01*
X28136000Y-73258000D01*
X28136000Y-73260000D01*
X28137000Y-73263000D01*
X28137000Y-73265000D01*
X28138000Y-73268000D01*
X28139000Y-73270000D01*
X28140000Y-73273000D01*
X28142000Y-73275000D01*
X28143000Y-73277000D01*
X28145000Y-73279000D01*
X28146000Y-73281000D01*
X28148000Y-73283000D01*
X28150000Y-73285000D01*
X28152000Y-73287000D01*
X28154000Y-73289000D01*
X28156000Y-73290000D01*
X28158000Y-73292000D01*
X28160000Y-73293000D01*
X28162000Y-73295000D01*
X28165000Y-73296000D01*
X28167000Y-73297000D01*
X28170000Y-73298000D01*
X28172000Y-73298000D01*
X28175000Y-73299000D01*
X28177000Y-73299000D01*
X28180000Y-73300000D01*
X28182000Y-73300000D01*
X28185000Y-73300000D01*
X28335000Y-73300000D01*
X28338000Y-73300000D01*
X28340000Y-73300000D01*
X28343000Y-73299000D01*
X28345000Y-73299000D01*
X28348000Y-73298000D01*
X28350000Y-73298000D01*
X28353000Y-73297000D01*
X28355000Y-73296000D01*
X28358000Y-73295000D01*
X28360000Y-73293000D01*
X28362000Y-73292000D01*
X28364000Y-73290000D01*
X28366000Y-73289000D01*
X28368000Y-73287000D01*
X28370000Y-73285000D01*
X28372000Y-73283000D01*
X28374000Y-73281000D01*
X28375000Y-73279000D01*
X28377000Y-73277000D01*
X28378000Y-73275000D01*
X28380000Y-73273000D01*
X28381000Y-73270000D01*
X28382000Y-73268000D01*
X28383000Y-73265000D01*
X28383000Y-73263000D01*
X28384000Y-73260000D01*
X28384000Y-73258000D01*
X28385000Y-73255000D01*
X28385000Y-73253000D01*
X28385000Y-73250000D01*
X28385000Y-72950000D01*
X28385000Y-72947000D01*
X28385000Y-72945000D01*
X28386000Y-72942000D01*
X28386000Y-72940000D01*
X28387000Y-72937000D01*
X28387000Y-72935000D01*
X28388000Y-72932000D01*
X28389000Y-72930000D01*
X28390000Y-72927000D01*
X28392000Y-72925000D01*
X28393000Y-72923000D01*
X28395000Y-72921000D01*
X28396000Y-72919000D01*
X28398000Y-72917000D01*
X28400000Y-72915000D01*
X28402000Y-72913000D01*
X28404000Y-72911000D01*
X28406000Y-72910000D01*
X28408000Y-72908000D01*
X28410000Y-72907000D01*
X28412000Y-72905000D01*
X28415000Y-72904000D01*
X28417000Y-72903000D01*
X28420000Y-72902000D01*
X28422000Y-72902000D01*
X28425000Y-72901000D01*
X28427000Y-72901000D01*
X28430000Y-72900000D01*
X28432000Y-72900000D01*
X28435000Y-72900000D01*
X28585000Y-72900000D01*
X28588000Y-72900000D01*
X28590000Y-72900000D01*
X28593000Y-72901000D01*
X28595000Y-72901000D01*
X28598000Y-72902000D01*
X28600000Y-72902000D01*
X28603000Y-72903000D01*
X28605000Y-72904000D01*
X28608000Y-72905000D01*
X28610000Y-72907000D01*
X28612000Y-72908000D01*
X28614000Y-72910000D01*
X28616000Y-72911000D01*
X28618000Y-72913000D01*
X28620000Y-72915000D01*
X28622000Y-72917000D01*
X28624000Y-72919000D01*
X28625000Y-72921000D01*
X28627000Y-72923000D01*
X28628000Y-72925000D01*
X28630000Y-72927000D01*
X28631000Y-72930000D01*
X28632000Y-72932000D01*
X28633000Y-72935000D01*
X28633000Y-72937000D01*
X28634000Y-72940000D01*
X28634000Y-72942000D01*
X28635000Y-72945000D01*
X28635000Y-72947000D01*
X28635000Y-72950000D01*
X28635000Y-73250000D01*
X28635000Y-73253000D01*
X28635000Y-73255000D01*
X28636000Y-73258000D01*
X28636000Y-73260000D01*
X28637000Y-73263000D01*
X28637000Y-73265000D01*
X28638000Y-73268000D01*
X28639000Y-73270000D01*
X28640000Y-73273000D01*
X28642000Y-73275000D01*
X28643000Y-73277000D01*
X28645000Y-73279000D01*
X28646000Y-73281000D01*
X28648000Y-73283000D01*
X28650000Y-73285000D01*
X28652000Y-73287000D01*
X28654000Y-73289000D01*
X28656000Y-73290000D01*
X28658000Y-73292000D01*
X28660000Y-73293000D01*
X28662000Y-73295000D01*
X28665000Y-73296000D01*
X28667000Y-73297000D01*
X28670000Y-73298000D01*
X28672000Y-73298000D01*
X28675000Y-73299000D01*
X28677000Y-73299000D01*
X28680000Y-73300000D01*
X28682000Y-73300000D01*
X28685000Y-73300000D01*
X28835000Y-73300000D01*
X28838000Y-73300000D01*
X28840000Y-73300000D01*
X28843000Y-73299000D01*
X28845000Y-73299000D01*
X28848000Y-73298000D01*
X28850000Y-73298000D01*
X28853000Y-73297000D01*
X28855000Y-73296000D01*
X28858000Y-73295000D01*
X28860000Y-73293000D01*
X28862000Y-73292000D01*
X28864000Y-73290000D01*
X28866000Y-73289000D01*
X28868000Y-73287000D01*
X28870000Y-73285000D01*
X28872000Y-73283000D01*
X28874000Y-73281000D01*
X28875000Y-73279000D01*
X28877000Y-73277000D01*
X28878000Y-73275000D01*
X28880000Y-73273000D01*
X28881000Y-73270000D01*
X28882000Y-73268000D01*
X28883000Y-73265000D01*
X28883000Y-73263000D01*
X28884000Y-73260000D01*
X28884000Y-73258000D01*
X28885000Y-73255000D01*
X28885000Y-73253000D01*
X28885000Y-73250000D01*
X28885000Y-72950000D01*
X28885000Y-72947000D01*
X28885000Y-72945000D01*
X28886000Y-72942000D01*
X28886000Y-72940000D01*
X28887000Y-72937000D01*
X28887000Y-72935000D01*
X28888000Y-72932000D01*
X28889000Y-72930000D01*
X28890000Y-72927000D01*
X28892000Y-72925000D01*
X28893000Y-72923000D01*
X28895000Y-72921000D01*
X28896000Y-72919000D01*
X28898000Y-72917000D01*
X28900000Y-72915000D01*
X28902000Y-72913000D01*
X28904000Y-72911000D01*
X28906000Y-72910000D01*
X28908000Y-72908000D01*
X28910000Y-72907000D01*
X28912000Y-72905000D01*
X28915000Y-72904000D01*
X28917000Y-72903000D01*
X28920000Y-72902000D01*
X28922000Y-72902000D01*
X28925000Y-72901000D01*
X28927000Y-72901000D01*
X28930000Y-72900000D01*
X28932000Y-72900000D01*
X28935000Y-72900000D01*
X29085000Y-72900000D01*
X29088000Y-72900000D01*
X29090000Y-72900000D01*
X29093000Y-72901000D01*
X29095000Y-72901000D01*
X29098000Y-72902000D01*
X29100000Y-72902000D01*
X29103000Y-72903000D01*
X29105000Y-72904000D01*
X29108000Y-72905000D01*
X29110000Y-72907000D01*
X29112000Y-72908000D01*
X29114000Y-72910000D01*
X29116000Y-72911000D01*
X29118000Y-72913000D01*
X29120000Y-72915000D01*
X29122000Y-72917000D01*
X29124000Y-72919000D01*
X29125000Y-72921000D01*
X29127000Y-72923000D01*
X29128000Y-72925000D01*
X29130000Y-72927000D01*
X29131000Y-72930000D01*
X29132000Y-72932000D01*
X29133000Y-72935000D01*
X29133000Y-72937000D01*
X29134000Y-72940000D01*
X29134000Y-72942000D01*
X29135000Y-72945000D01*
X29135000Y-72947000D01*
X29135000Y-72950000D01*
X29135000Y-73250000D01*
X29135000Y-73253000D01*
X29135000Y-73255000D01*
X29136000Y-73258000D01*
X29136000Y-73260000D01*
X29137000Y-73263000D01*
X29137000Y-73265000D01*
X29138000Y-73268000D01*
X29139000Y-73270000D01*
X29140000Y-73273000D01*
X29142000Y-73275000D01*
X29143000Y-73277000D01*
X29145000Y-73279000D01*
X29146000Y-73281000D01*
X29148000Y-73283000D01*
X29150000Y-73285000D01*
X29152000Y-73287000D01*
X29154000Y-73289000D01*
X29156000Y-73290000D01*
X29158000Y-73292000D01*
X29160000Y-73293000D01*
X29162000Y-73295000D01*
X29165000Y-73296000D01*
X29167000Y-73297000D01*
X29170000Y-73298000D01*
X29172000Y-73298000D01*
X29175000Y-73299000D01*
X29177000Y-73299000D01*
X29180000Y-73300000D01*
X29182000Y-73300000D01*
X29185000Y-73300000D01*
X29300000Y-73300000D01*
X29303000Y-73300000D01*
X29305000Y-73300000D01*
X29308000Y-73301000D01*
X29310000Y-73301000D01*
X29313000Y-73302000D01*
X29315000Y-73302000D01*
X29318000Y-73303000D01*
X29320000Y-73304000D01*
X29323000Y-73305000D01*
X29325000Y-73307000D01*
X29327000Y-73308000D01*
X29329000Y-73310000D01*
X29331000Y-73311000D01*
X29333000Y-73313000D01*
X29335000Y-73315000D01*
X29337000Y-73317000D01*
X29339000Y-73319000D01*
X29340000Y-73321000D01*
X29342000Y-73323000D01*
X29343000Y-73325000D01*
X29345000Y-73327000D01*
X29346000Y-73330000D01*
X29347000Y-73332000D01*
X29348000Y-73335000D01*
X29348000Y-73337000D01*
X29349000Y-73340000D01*
X29349000Y-73342000D01*
X29350000Y-73345000D01*
X29350000Y-73347000D01*
X29350000Y-73350000D01*
X29350000Y-74250000D01*
X29350000Y-74253000D01*
X29350000Y-74255000D01*
X29349000Y-74258000D01*
X29349000Y-74260000D01*
X29348000Y-74263000D01*
X29348000Y-74265000D01*
X29347000Y-74268000D01*
X29346000Y-74270000D01*
X29345000Y-74273000D01*
X29343000Y-74275000D01*
X29342000Y-74277000D01*
X29340000Y-74279000D01*
X29339000Y-74281000D01*
X29337000Y-74283000D01*
X29335000Y-74285000D01*
X29333000Y-74287000D01*
X29331000Y-74289000D01*
X29329000Y-74290000D01*
X29327000Y-74292000D01*
X29325000Y-74293000D01*
X29323000Y-74295000D01*
X29320000Y-74296000D01*
X29318000Y-74297000D01*
X29315000Y-74298000D01*
X29313000Y-74298000D01*
X29310000Y-74299000D01*
X29308000Y-74299000D01*
X29305000Y-74300000D01*
X29303000Y-74300000D01*
X29300000Y-74300000D01*
X27200000Y-74300000D01*
X27197000Y-74300000D01*
X27195000Y-74300000D01*
X27192000Y-74299000D01*
X27190000Y-74299000D01*
X27187000Y-74298000D01*
X27185000Y-74298000D01*
X27182000Y-74297000D01*
X27180000Y-74296000D01*
X27177000Y-74295000D01*
X27175000Y-74293000D01*
X27173000Y-74292000D01*
X27171000Y-74290000D01*
X27169000Y-74289000D01*
X27167000Y-74287000D01*
X27165000Y-74285000D01*
X27163000Y-74283000D01*
X27161000Y-74281000D01*
X27160000Y-74279000D01*
X27158000Y-74277000D01*
X27157000Y-74275000D01*
X27155000Y-74273000D01*
X27154000Y-74270000D01*
X27153000Y-74268000D01*
X27152000Y-74265000D01*
X27152000Y-74263000D01*
X27151000Y-74260000D01*
X27151000Y-74258000D01*
X27150000Y-74255000D01*
X27150000Y-74253000D01*
X27150000Y-74250000D01*
X27150000Y-73350000D01*
X27150000Y-73347000D01*
X27150000Y-73345000D01*
X27151000Y-73342000D01*
X27151000Y-73340000D01*
X27152000Y-73337000D01*
X27152000Y-73335000D01*
X27153000Y-73332000D01*
X27154000Y-73330000D01*
X27155000Y-73327000D01*
X27157000Y-73325000D01*
X27158000Y-73323000D01*
X27160000Y-73321000D01*
X27161000Y-73319000D01*
X27163000Y-73317000D01*
X27165000Y-73315000D01*
X27167000Y-73313000D01*
X27169000Y-73311000D01*
X27171000Y-73310000D01*
X27173000Y-73308000D01*
X27175000Y-73307000D01*
X27177000Y-73305000D01*
X27180000Y-73304000D01*
X27182000Y-73303000D01*
X27185000Y-73302000D01*
X27187000Y-73302000D01*
X27190000Y-73301000D01*
X27192000Y-73301000D01*
X27195000Y-73300000D01*
X27197000Y-73300000D01*
X27200000Y-73300000D01*
X27335000Y-73300000D01*
X27338000Y-73300000D01*
X27340000Y-73300000D01*
X27343000Y-73299000D01*
X27345000Y-73299000D01*
X27348000Y-73298000D01*
X27350000Y-73298000D01*
X27353000Y-73297000D01*
X27355000Y-73296000D01*
X27358000Y-73295000D01*
X27360000Y-73293000D01*
X27362000Y-73292000D01*
X27364000Y-73290000D01*
X27366000Y-73289000D01*
X27368000Y-73287000D01*
X27370000Y-73285000D01*
X27372000Y-73283000D01*
X27374000Y-73281000D01*
X27375000Y-73279000D01*
X27377000Y-73277000D01*
X27378000Y-73275000D01*
X27380000Y-73273000D01*
X27381000Y-73270000D01*
X27382000Y-73268000D01*
X27383000Y-73265000D01*
X27383000Y-73263000D01*
X27384000Y-73260000D01*
X27384000Y-73258000D01*
X27385000Y-73255000D01*
X27385000Y-73253000D01*
X27385000Y-73250000D01*
X27385000Y-72950000D01*
X27385000Y-72947000D01*
X27385000Y-72945000D01*
X27386000Y-72942000D01*
X27386000Y-72940000D01*
X27387000Y-72937000D01*
X27387000Y-72935000D01*
X27388000Y-72932000D01*
X27389000Y-72930000D01*
X27390000Y-72927000D01*
X27392000Y-72925000D01*
X27393000Y-72923000D01*
X27395000Y-72921000D01*
X27396000Y-72919000D01*
X27398000Y-72917000D01*
X27400000Y-72915000D01*
X27402000Y-72913000D01*
X27404000Y-72911000D01*
X27406000Y-72910000D01*
X27408000Y-72908000D01*
X27410000Y-72907000D01*
X27412000Y-72905000D01*
X27415000Y-72904000D01*
X27417000Y-72903000D01*
X27420000Y-72902000D01*
X27422000Y-72902000D01*
X27425000Y-72901000D01*
X27427000Y-72901000D01*
X27430000Y-72900000D01*
X27432000Y-72900000D01*
X27435000Y-72900000D01*
X27585000Y-72900000D01*
X27588000Y-72900000D01*
X27590000Y-72900000D01*
X27593000Y-72901000D01*
G36*
X27593000Y-72901000D02*
G01*
X27595000Y-72901000D01*
X27598000Y-72902000D01*
X27600000Y-72902000D01*
X27603000Y-72903000D01*
X27605000Y-72904000D01*
X27608000Y-72905000D01*
X27610000Y-72907000D01*
X27612000Y-72908000D01*
X27614000Y-72910000D01*
X27616000Y-72911000D01*
X27618000Y-72913000D01*
X27620000Y-72915000D01*
X27622000Y-72917000D01*
X27624000Y-72919000D01*
X27625000Y-72921000D01*
X27627000Y-72923000D01*
X27628000Y-72925000D01*
X27630000Y-72927000D01*
X27631000Y-72930000D01*
X27632000Y-72932000D01*
X27633000Y-72935000D01*
X27633000Y-72937000D01*
X27634000Y-72940000D01*
X27634000Y-72942000D01*
X27635000Y-72945000D01*
X27635000Y-72947000D01*
X27635000Y-72950000D01*
X27635000Y-73250000D01*
X27635000Y-73253000D01*
X27635000Y-73255000D01*
X27636000Y-73258000D01*
X27636000Y-73260000D01*
X27637000Y-73263000D01*
X27637000Y-73265000D01*
X27638000Y-73268000D01*
X27639000Y-73270000D01*
X27640000Y-73273000D01*
X27642000Y-73275000D01*
X27643000Y-73277000D01*
X27645000Y-73279000D01*
X27646000Y-73281000D01*
X27648000Y-73283000D01*
X27650000Y-73285000D01*
X27652000Y-73287000D01*
X27654000Y-73289000D01*
X27656000Y-73290000D01*
X27658000Y-73292000D01*
X27660000Y-73293000D01*
X27662000Y-73295000D01*
X27665000Y-73296000D01*
X27667000Y-73297000D01*
X27670000Y-73298000D01*
X27672000Y-73298000D01*
X27675000Y-73299000D01*
X27677000Y-73299000D01*
X27680000Y-73300000D01*
X27682000Y-73300000D01*
X27685000Y-73300000D01*
X27835000Y-73300000D01*
X27838000Y-73300000D01*
X27840000Y-73300000D01*
X27843000Y-73299000D01*
X27845000Y-73299000D01*
X27848000Y-73298000D01*
X27850000Y-73298000D01*
X27853000Y-73297000D01*
X27855000Y-73296000D01*
X27858000Y-73295000D01*
X27860000Y-73293000D01*
X27862000Y-73292000D01*
X27864000Y-73290000D01*
X27866000Y-73289000D01*
X27868000Y-73287000D01*
X27870000Y-73285000D01*
X27872000Y-73283000D01*
X27874000Y-73281000D01*
X27875000Y-73279000D01*
X27877000Y-73277000D01*
X27878000Y-73275000D01*
X27880000Y-73273000D01*
X27881000Y-73270000D01*
X27882000Y-73268000D01*
X27883000Y-73265000D01*
X27883000Y-73263000D01*
X27884000Y-73260000D01*
X27884000Y-73258000D01*
X27885000Y-73255000D01*
X27885000Y-73253000D01*
X27885000Y-73250000D01*
X27885000Y-72950000D01*
X27885000Y-72947000D01*
X27885000Y-72945000D01*
X27886000Y-72942000D01*
X27886000Y-72940000D01*
X27887000Y-72937000D01*
X27887000Y-72935000D01*
X27888000Y-72932000D01*
X27889000Y-72930000D01*
X27890000Y-72927000D01*
X27892000Y-72925000D01*
X27893000Y-72923000D01*
X27895000Y-72921000D01*
X27896000Y-72919000D01*
X27898000Y-72917000D01*
X27900000Y-72915000D01*
X27902000Y-72913000D01*
X27904000Y-72911000D01*
X27906000Y-72910000D01*
X27908000Y-72908000D01*
X27910000Y-72907000D01*
X27912000Y-72905000D01*
X27915000Y-72904000D01*
X27917000Y-72903000D01*
X27920000Y-72902000D01*
X27922000Y-72902000D01*
X27925000Y-72901000D01*
X27927000Y-72901000D01*
X27930000Y-72900000D01*
X27932000Y-72900000D01*
X27935000Y-72900000D01*
X28085000Y-72900000D01*
X28088000Y-72900000D01*
X28090000Y-72900000D01*
X28093000Y-72901000D01*
X28095000Y-72901000D01*
X28098000Y-72902000D01*
X28100000Y-72902000D01*
X28103000Y-72903000D01*
X28105000Y-72904000D01*
X28108000Y-72905000D01*
X28110000Y-72907000D01*
X28112000Y-72908000D01*
X28114000Y-72910000D01*
X28116000Y-72911000D01*
X28118000Y-72913000D01*
X28120000Y-72915000D01*
X28122000Y-72917000D01*
X28124000Y-72919000D01*
X28125000Y-72921000D01*
X28127000Y-72923000D01*
X28128000Y-72925000D01*
X28130000Y-72927000D01*
X28131000Y-72930000D01*
X28132000Y-72932000D01*
X28133000Y-72935000D01*
X28133000Y-72937000D01*
X28134000Y-72940000D01*
X28134000Y-72942000D01*
X28135000Y-72945000D01*
X28135000Y-72947000D01*
X28135000Y-72950000D01*
X28135000Y-73250000D01*
X28135000Y-73253000D01*
X28135000Y-73255000D01*
X28136000Y-73258000D01*
X28136000Y-73260000D01*
X28137000Y-73263000D01*
X28137000Y-73265000D01*
X28138000Y-73268000D01*
X28139000Y-73270000D01*
X28140000Y-73273000D01*
X28142000Y-73275000D01*
X28143000Y-73277000D01*
X28145000Y-73279000D01*
X28146000Y-73281000D01*
X28148000Y-73283000D01*
X28150000Y-73285000D01*
X28152000Y-73287000D01*
X28154000Y-73289000D01*
X28156000Y-73290000D01*
X28158000Y-73292000D01*
X28160000Y-73293000D01*
X28162000Y-73295000D01*
X28165000Y-73296000D01*
X28167000Y-73297000D01*
X28170000Y-73298000D01*
X28172000Y-73298000D01*
X28175000Y-73299000D01*
X28177000Y-73299000D01*
X28180000Y-73300000D01*
X28182000Y-73300000D01*
X28185000Y-73300000D01*
X28335000Y-73300000D01*
X28338000Y-73300000D01*
X28340000Y-73300000D01*
X28343000Y-73299000D01*
X28345000Y-73299000D01*
X28348000Y-73298000D01*
X28350000Y-73298000D01*
X28353000Y-73297000D01*
X28355000Y-73296000D01*
X28358000Y-73295000D01*
X28360000Y-73293000D01*
X28362000Y-73292000D01*
X28364000Y-73290000D01*
X28366000Y-73289000D01*
X28368000Y-73287000D01*
X28370000Y-73285000D01*
X28372000Y-73283000D01*
X28374000Y-73281000D01*
X28375000Y-73279000D01*
X28377000Y-73277000D01*
X28378000Y-73275000D01*
X28380000Y-73273000D01*
X28381000Y-73270000D01*
X28382000Y-73268000D01*
X28383000Y-73265000D01*
X28383000Y-73263000D01*
X28384000Y-73260000D01*
X28384000Y-73258000D01*
X28385000Y-73255000D01*
X28385000Y-73253000D01*
X28385000Y-73250000D01*
X28385000Y-72950000D01*
X28385000Y-72947000D01*
X28385000Y-72945000D01*
X28386000Y-72942000D01*
X28386000Y-72940000D01*
X28387000Y-72937000D01*
X28387000Y-72935000D01*
X28388000Y-72932000D01*
X28389000Y-72930000D01*
X28390000Y-72927000D01*
X28392000Y-72925000D01*
X28393000Y-72923000D01*
X28395000Y-72921000D01*
X28396000Y-72919000D01*
X28398000Y-72917000D01*
X28400000Y-72915000D01*
X28402000Y-72913000D01*
X28404000Y-72911000D01*
X28406000Y-72910000D01*
X28408000Y-72908000D01*
X28410000Y-72907000D01*
X28412000Y-72905000D01*
X28415000Y-72904000D01*
X28417000Y-72903000D01*
X28420000Y-72902000D01*
X28422000Y-72902000D01*
X28425000Y-72901000D01*
X28427000Y-72901000D01*
X28430000Y-72900000D01*
X28432000Y-72900000D01*
X28435000Y-72900000D01*
X28585000Y-72900000D01*
X28588000Y-72900000D01*
X28590000Y-72900000D01*
X28593000Y-72901000D01*
X28595000Y-72901000D01*
X28598000Y-72902000D01*
X28600000Y-72902000D01*
X28603000Y-72903000D01*
X28605000Y-72904000D01*
X28608000Y-72905000D01*
X28610000Y-72907000D01*
X28612000Y-72908000D01*
X28614000Y-72910000D01*
X28616000Y-72911000D01*
X28618000Y-72913000D01*
X28620000Y-72915000D01*
X28622000Y-72917000D01*
X28624000Y-72919000D01*
X28625000Y-72921000D01*
X28627000Y-72923000D01*
X28628000Y-72925000D01*
X28630000Y-72927000D01*
X28631000Y-72930000D01*
X28632000Y-72932000D01*
X28633000Y-72935000D01*
X28633000Y-72937000D01*
X28634000Y-72940000D01*
X28634000Y-72942000D01*
X28635000Y-72945000D01*
X28635000Y-72947000D01*
X28635000Y-72950000D01*
X28635000Y-73250000D01*
X28635000Y-73253000D01*
X28635000Y-73255000D01*
X28636000Y-73258000D01*
X28636000Y-73260000D01*
X28637000Y-73263000D01*
X28637000Y-73265000D01*
X28638000Y-73268000D01*
X28639000Y-73270000D01*
X28640000Y-73273000D01*
X28642000Y-73275000D01*
X28643000Y-73277000D01*
X28645000Y-73279000D01*
X28646000Y-73281000D01*
X28648000Y-73283000D01*
X28650000Y-73285000D01*
X28652000Y-73287000D01*
X28654000Y-73289000D01*
X28656000Y-73290000D01*
X28658000Y-73292000D01*
X28660000Y-73293000D01*
X28662000Y-73295000D01*
X28665000Y-73296000D01*
X28667000Y-73297000D01*
X28670000Y-73298000D01*
X28672000Y-73298000D01*
X28675000Y-73299000D01*
X28677000Y-73299000D01*
X28680000Y-73300000D01*
X28682000Y-73300000D01*
X28685000Y-73300000D01*
X28835000Y-73300000D01*
X28838000Y-73300000D01*
X28840000Y-73300000D01*
X28843000Y-73299000D01*
X28845000Y-73299000D01*
X28848000Y-73298000D01*
X28850000Y-73298000D01*
X28853000Y-73297000D01*
X28855000Y-73296000D01*
X28858000Y-73295000D01*
X28860000Y-73293000D01*
X28862000Y-73292000D01*
X28864000Y-73290000D01*
X28866000Y-73289000D01*
X28868000Y-73287000D01*
X28870000Y-73285000D01*
X28872000Y-73283000D01*
X28874000Y-73281000D01*
X28875000Y-73279000D01*
X28877000Y-73277000D01*
X28878000Y-73275000D01*
X28880000Y-73273000D01*
X28881000Y-73270000D01*
X28882000Y-73268000D01*
X28883000Y-73265000D01*
X28883000Y-73263000D01*
X28884000Y-73260000D01*
X28884000Y-73258000D01*
X28885000Y-73255000D01*
X28885000Y-73253000D01*
X28885000Y-73250000D01*
X28885000Y-72950000D01*
X28885000Y-72947000D01*
X28885000Y-72945000D01*
X28886000Y-72942000D01*
X28886000Y-72940000D01*
X28887000Y-72937000D01*
X28887000Y-72935000D01*
X28888000Y-72932000D01*
X28889000Y-72930000D01*
X28890000Y-72927000D01*
X28892000Y-72925000D01*
X28893000Y-72923000D01*
X28895000Y-72921000D01*
X28896000Y-72919000D01*
X28898000Y-72917000D01*
X28900000Y-72915000D01*
X28902000Y-72913000D01*
X28904000Y-72911000D01*
X28906000Y-72910000D01*
X28908000Y-72908000D01*
X28910000Y-72907000D01*
X28912000Y-72905000D01*
X28915000Y-72904000D01*
X28917000Y-72903000D01*
X28920000Y-72902000D01*
X28922000Y-72902000D01*
X28925000Y-72901000D01*
X28927000Y-72901000D01*
X28930000Y-72900000D01*
X28932000Y-72900000D01*
X28935000Y-72900000D01*
X29085000Y-72900000D01*
X29088000Y-72900000D01*
X29090000Y-72900000D01*
X29093000Y-72901000D01*
X29095000Y-72901000D01*
X29098000Y-72902000D01*
X29100000Y-72902000D01*
X29103000Y-72903000D01*
X29105000Y-72904000D01*
X29108000Y-72905000D01*
X29110000Y-72907000D01*
X29112000Y-72908000D01*
X29114000Y-72910000D01*
X29116000Y-72911000D01*
X29118000Y-72913000D01*
X29120000Y-72915000D01*
X29122000Y-72917000D01*
X29124000Y-72919000D01*
X29125000Y-72921000D01*
X29127000Y-72923000D01*
X29128000Y-72925000D01*
X29130000Y-72927000D01*
X29131000Y-72930000D01*
X29132000Y-72932000D01*
X29133000Y-72935000D01*
X29133000Y-72937000D01*
X29134000Y-72940000D01*
X29134000Y-72942000D01*
X29135000Y-72945000D01*
X29135000Y-72947000D01*
X29135000Y-72950000D01*
X29135000Y-73250000D01*
X29135000Y-73253000D01*
X29135000Y-73255000D01*
X29136000Y-73258000D01*
X29136000Y-73260000D01*
X29137000Y-73263000D01*
X29137000Y-73265000D01*
X29138000Y-73268000D01*
X29139000Y-73270000D01*
X29140000Y-73273000D01*
X29142000Y-73275000D01*
X29143000Y-73277000D01*
X29145000Y-73279000D01*
X29146000Y-73281000D01*
X29148000Y-73283000D01*
X29150000Y-73285000D01*
X29152000Y-73287000D01*
X29154000Y-73289000D01*
X29156000Y-73290000D01*
X29158000Y-73292000D01*
X29160000Y-73293000D01*
X29162000Y-73295000D01*
X29165000Y-73296000D01*
X29167000Y-73297000D01*
X29170000Y-73298000D01*
X29172000Y-73298000D01*
X29175000Y-73299000D01*
X29177000Y-73299000D01*
X29180000Y-73300000D01*
X29182000Y-73300000D01*
X29185000Y-73300000D01*
X29300000Y-73300000D01*
X29303000Y-73300000D01*
X29305000Y-73300000D01*
X29308000Y-73301000D01*
X29310000Y-73301000D01*
X29313000Y-73302000D01*
X29315000Y-73302000D01*
X29318000Y-73303000D01*
X29320000Y-73304000D01*
X29323000Y-73305000D01*
X29325000Y-73307000D01*
X29327000Y-73308000D01*
X29329000Y-73310000D01*
X29331000Y-73311000D01*
X29333000Y-73313000D01*
X29335000Y-73315000D01*
X29337000Y-73317000D01*
X29339000Y-73319000D01*
X29340000Y-73321000D01*
X29342000Y-73323000D01*
X29343000Y-73325000D01*
X29345000Y-73327000D01*
X29346000Y-73330000D01*
X29347000Y-73332000D01*
X29348000Y-73335000D01*
X29348000Y-73337000D01*
X29349000Y-73340000D01*
X29349000Y-73342000D01*
X29350000Y-73345000D01*
X29350000Y-73347000D01*
X29350000Y-73350000D01*
X29350000Y-74250000D01*
X29350000Y-74253000D01*
X29350000Y-74255000D01*
X29349000Y-74258000D01*
X29349000Y-74260000D01*
X29348000Y-74263000D01*
X29348000Y-74265000D01*
X29347000Y-74268000D01*
X29346000Y-74270000D01*
X29345000Y-74273000D01*
X29343000Y-74275000D01*
X29342000Y-74277000D01*
X29340000Y-74279000D01*
X29339000Y-74281000D01*
X29337000Y-74283000D01*
X29335000Y-74285000D01*
X29333000Y-74287000D01*
X29331000Y-74289000D01*
X29329000Y-74290000D01*
X29327000Y-74292000D01*
X29325000Y-74293000D01*
X29323000Y-74295000D01*
X29320000Y-74296000D01*
X29318000Y-74297000D01*
X29315000Y-74298000D01*
X29313000Y-74298000D01*
X29310000Y-74299000D01*
X29308000Y-74299000D01*
X29305000Y-74300000D01*
X29303000Y-74300000D01*
X29300000Y-74300000D01*
X27200000Y-74300000D01*
X27197000Y-74300000D01*
X27195000Y-74300000D01*
X27192000Y-74299000D01*
X27190000Y-74299000D01*
X27187000Y-74298000D01*
X27185000Y-74298000D01*
X27182000Y-74297000D01*
X27180000Y-74296000D01*
X27177000Y-74295000D01*
X27175000Y-74293000D01*
X27173000Y-74292000D01*
X27171000Y-74290000D01*
X27169000Y-74289000D01*
X27167000Y-74287000D01*
X27165000Y-74285000D01*
X27163000Y-74283000D01*
X27161000Y-74281000D01*
X27160000Y-74279000D01*
X27158000Y-74277000D01*
X27157000Y-74275000D01*
X27155000Y-74273000D01*
X27154000Y-74270000D01*
X27153000Y-74268000D01*
X27152000Y-74265000D01*
X27152000Y-74263000D01*
X27151000Y-74260000D01*
X27151000Y-74258000D01*
X27150000Y-74255000D01*
X27150000Y-74253000D01*
X27150000Y-74250000D01*
X27150000Y-73350000D01*
X27150000Y-73347000D01*
X27150000Y-73345000D01*
X27151000Y-73342000D01*
X27151000Y-73340000D01*
X27152000Y-73337000D01*
X27152000Y-73335000D01*
X27153000Y-73332000D01*
X27154000Y-73330000D01*
X27155000Y-73327000D01*
X27157000Y-73325000D01*
X27158000Y-73323000D01*
X27160000Y-73321000D01*
X27161000Y-73319000D01*
X27163000Y-73317000D01*
X27165000Y-73315000D01*
X27167000Y-73313000D01*
X27169000Y-73311000D01*
X27171000Y-73310000D01*
X27173000Y-73308000D01*
X27175000Y-73307000D01*
X27177000Y-73305000D01*
X27180000Y-73304000D01*
X27182000Y-73303000D01*
X27185000Y-73302000D01*
X27187000Y-73302000D01*
X27190000Y-73301000D01*
X27192000Y-73301000D01*
X27195000Y-73300000D01*
X27197000Y-73300000D01*
X27200000Y-73300000D01*
X27335000Y-73300000D01*
X27338000Y-73300000D01*
X27340000Y-73300000D01*
X27343000Y-73299000D01*
X27345000Y-73299000D01*
X27348000Y-73298000D01*
X27350000Y-73298000D01*
X27353000Y-73297000D01*
X27355000Y-73296000D01*
X27358000Y-73295000D01*
X27360000Y-73293000D01*
X27362000Y-73292000D01*
X27364000Y-73290000D01*
X27366000Y-73289000D01*
X27368000Y-73287000D01*
X27370000Y-73285000D01*
X27372000Y-73283000D01*
X27374000Y-73281000D01*
X27375000Y-73279000D01*
X27377000Y-73277000D01*
X27378000Y-73275000D01*
X27380000Y-73273000D01*
X27381000Y-73270000D01*
X27382000Y-73268000D01*
X27383000Y-73265000D01*
X27383000Y-73263000D01*
X27384000Y-73260000D01*
X27384000Y-73258000D01*
X27385000Y-73255000D01*
X27385000Y-73253000D01*
X27385000Y-73250000D01*
X27385000Y-72950000D01*
X27385000Y-72947000D01*
X27385000Y-72945000D01*
X27386000Y-72942000D01*
X27386000Y-72940000D01*
X27387000Y-72937000D01*
X27387000Y-72935000D01*
X27388000Y-72932000D01*
X27389000Y-72930000D01*
X27390000Y-72927000D01*
X27392000Y-72925000D01*
X27393000Y-72923000D01*
X27395000Y-72921000D01*
X27396000Y-72919000D01*
X27398000Y-72917000D01*
X27400000Y-72915000D01*
X27402000Y-72913000D01*
X27404000Y-72911000D01*
X27406000Y-72910000D01*
X27408000Y-72908000D01*
X27410000Y-72907000D01*
X27412000Y-72905000D01*
X27415000Y-72904000D01*
X27417000Y-72903000D01*
X27420000Y-72902000D01*
X27422000Y-72902000D01*
X27425000Y-72901000D01*
X27427000Y-72901000D01*
X27430000Y-72900000D01*
X27432000Y-72900000D01*
X27435000Y-72900000D01*
X27585000Y-72900000D01*
X27588000Y-72900000D01*
X27590000Y-72900000D01*
X27593000Y-72901000D01*
G37*
%TD*%
D11*
%TO.C,L1*%
X56100000Y-38700000D03*
X56100000Y-37250000D03*
%TD*%
D12*
%TO.C,WAKE*%
X60850000Y-19450000D03*
X60850000Y-14300000D03*
X62550000Y-19450000D03*
X62550000Y-14300000D03*
%TD*%
D13*
%TO.C,TP5*%
X56500000Y-70350000D03*
%TD*%
D14*
%TO.C,R12*%
X32630000Y-63460000D03*
X31670000Y-63460000D03*
%TD*%
D15*
%TO.C,J8*%
X62280000Y-52690000D03*
D16*
X64820000Y-52690000D03*
X62280000Y-55230000D03*
X64820000Y-55230000D03*
X62280000Y-57770000D03*
X64820000Y-57770000D03*
X62280000Y-60310000D03*
X64820000Y-60310000D03*
X62280000Y-62850000D03*
X64820000Y-62850000D03*
X62280000Y-65390000D03*
X64820000Y-65390000D03*
%TD*%
D14*
%TO.C,R11*%
X32630000Y-65450000D03*
X31670000Y-65450000D03*
%TD*%
D17*
%TO.C,U8*%
X31850000Y-29605000D03*
X31850000Y-28335000D03*
X31850000Y-27065000D03*
X31850000Y-23255000D03*
X31850000Y-21985000D03*
X31850000Y-20715000D03*
X22550000Y-20715000D03*
X22550000Y-21985000D03*
X22550000Y-23255000D03*
X22550000Y-27065000D03*
X22550000Y-28335000D03*
X22550000Y-29605000D03*
%TD*%
D18*
%TO.C,JP1*%
X56450000Y-75200000D03*
X58990000Y-75200000D03*
%TD*%
D19*
%TO.C,C27*%
X43150000Y-46545000D03*
X43150000Y-47505000D03*
%TD*%
D20*
%TO.C,C20*%
X53820000Y-40450000D03*
X54780000Y-40450000D03*
%TD*%
D21*
%TO.C,MAIN SUPPLY*%
X51650000Y-76550000D03*
D22*
X49650000Y-76550000D03*
%TD*%
D20*
%TO.C,C11*%
X48520000Y-32700000D03*
X49480000Y-32700000D03*
%TD*%
D23*
%TO.C,J2*%
X65675000Y-27700000D03*
X65675000Y-26700000D03*
X65675000Y-25700000D03*
D24*
X63150000Y-29000000D03*
X63150000Y-24400000D03*
%TD*%
D25*
%TO.C,U5*%
X35325000Y-55450000D03*
X35325000Y-57450000D03*
X35325000Y-59450000D03*
X35325000Y-61450000D03*
X35325000Y-63450000D03*
X35325000Y-65450000D03*
X35325000Y-67450000D03*
X35325000Y-69450000D03*
X50375000Y-69450000D03*
X50375000Y-67450000D03*
X50375000Y-65450000D03*
X50375000Y-63450000D03*
X50375000Y-61450000D03*
X50375000Y-59450000D03*
X50375000Y-57450000D03*
X50375000Y-55450000D03*
%TD*%
D26*
%TO.C,C25*%
X43900000Y-51180000D03*
X43900000Y-50220000D03*
%TD*%
D20*
%TO.C,R13*%
X48520000Y-33700000D03*
X49480000Y-33700000D03*
%TD*%
D14*
%TO.C,C23*%
X39660000Y-38200000D03*
X38700000Y-38200000D03*
%TD*%
D21*
%TO.C,PMU SUPPLY*%
X65650000Y-76550000D03*
D22*
X63650000Y-76550000D03*
%TD*%
D23*
%TO.C,STM UART*%
X65575000Y-35500000D03*
X65575000Y-34500000D03*
X65575000Y-33500000D03*
D24*
X63050000Y-36800000D03*
X63050000Y-32200000D03*
%TD*%
D27*
%TO.C,H4*%
X76200000Y-75100000D03*
%TD*%
%TO.C,H3*%
X14600000Y-75100000D03*
%TD*%
D14*
%TO.C,C13*%
X37894200Y-40030400D03*
X36934200Y-40030400D03*
%TD*%
D26*
%TO.C,R14*%
X48175000Y-48405000D03*
X48175000Y-47445000D03*
%TD*%
D15*
%TO.C,J6*%
X74100000Y-52560000D03*
D16*
X76640000Y-52560000D03*
X74100000Y-55100000D03*
X76640000Y-55100000D03*
X74100000Y-57640000D03*
X76640000Y-57640000D03*
X74100000Y-60180000D03*
X76640000Y-60180000D03*
X74100000Y-62720000D03*
X76640000Y-62720000D03*
X74100000Y-65260000D03*
X76640000Y-65260000D03*
%TD*%
D13*
%TO.C,+V*%
X30125000Y-70900000D03*
%TD*%
D28*
%TO.C,Y2*%
X45500000Y-51600000D03*
X47700000Y-51600000D03*
X47700000Y-49900000D03*
X45500000Y-49900000D03*
%TD*%
D27*
%TO.C,H2*%
X14600000Y-17100000D03*
%TD*%
D29*
%TO.C,J5*%
X48180000Y-16960000D03*
X47390000Y-16960000D03*
X46600000Y-16960000D03*
X45810000Y-16960000D03*
X45020000Y-16960000D03*
X44230000Y-16960000D03*
X43440000Y-16960000D03*
X42650000Y-16960000D03*
X42650000Y-15440000D03*
X43440000Y-15440000D03*
X44230000Y-15440000D03*
X45020000Y-15440000D03*
X45810000Y-15440000D03*
X46600000Y-15440000D03*
X47390000Y-15440000D03*
X48180000Y-15440000D03*
D30*
X47800000Y-18350000D03*
X47800000Y-14050000D03*
X43000000Y-18350000D03*
X43000000Y-14050000D03*
%TD*%
D31*
%TO.C,J4*%
X42850000Y-72350000D03*
D32*
X44325000Y-73850000D03*
D31*
X42850000Y-75350000D03*
D32*
X41375000Y-73850000D03*
%TD*%
D33*
%TO.C,R4*%
X16775000Y-67070000D03*
X16775000Y-51830000D03*
%TD*%
D20*
%TO.C,C19*%
X52170000Y-37000000D03*
X53130000Y-37000000D03*
%TD*%
D19*
%TO.C,R20*%
X39900000Y-15770000D03*
X39900000Y-16730000D03*
%TD*%
D34*
%TO.C,U6*%
X41057000Y-36600000D03*
X41057000Y-37000000D03*
X41057000Y-37400000D03*
X41057000Y-37800000D03*
X41057000Y-38200000D03*
X41057000Y-38600000D03*
X41057000Y-39000000D03*
X41057000Y-39400000D03*
X41057000Y-39800000D03*
X41057000Y-40200000D03*
X41057000Y-40600000D03*
X41057000Y-41000000D03*
X41057000Y-41400000D03*
X41057000Y-41800000D03*
X41057000Y-42200000D03*
X41057000Y-42600000D03*
X41057000Y-43000000D03*
X41057000Y-43400000D03*
X41057000Y-43800000D03*
X41057000Y-44200000D03*
D35*
X42153500Y-45296500D03*
X42553500Y-45296500D03*
X42953500Y-45296500D03*
X43353500Y-45296500D03*
X43753500Y-45296500D03*
X44153500Y-45296500D03*
X44553500Y-45296500D03*
X44953500Y-45296500D03*
X45353500Y-45296500D03*
X45753500Y-45296500D03*
X46153500Y-45296500D03*
X46553500Y-45296500D03*
X46953500Y-45296500D03*
X47353500Y-45296500D03*
X47753500Y-45296500D03*
X48153500Y-45296500D03*
X48553500Y-45296500D03*
X48953500Y-45296500D03*
X49353500Y-45296500D03*
X49753500Y-45296500D03*
D34*
X50850000Y-44200000D03*
X50850000Y-43800000D03*
X50850000Y-43400000D03*
X50850000Y-43000000D03*
X50850000Y-42600000D03*
X50850000Y-42200000D03*
X50850000Y-41800000D03*
X50850000Y-41400000D03*
X50850000Y-41000000D03*
X50850000Y-40600000D03*
X50850000Y-40200000D03*
X50850000Y-39800000D03*
X50850000Y-39400000D03*
X50850000Y-39000000D03*
X50850000Y-38600000D03*
X50850000Y-38200000D03*
X50850000Y-37800000D03*
X50850000Y-37400000D03*
X50850000Y-37000000D03*
X50850000Y-36600000D03*
D35*
X49753500Y-35503500D03*
X49353500Y-35503500D03*
X48953500Y-35503500D03*
X48553500Y-35503500D03*
X48153500Y-35503500D03*
X47753500Y-35503500D03*
X47353500Y-35503500D03*
X46953500Y-35503500D03*
X46553500Y-35503500D03*
X46153500Y-35503500D03*
X45753500Y-35503500D03*
X45353500Y-35503500D03*
X44953500Y-35503500D03*
X44553500Y-35503500D03*
X44153500Y-35503500D03*
X43753500Y-35503500D03*
X43353500Y-35503500D03*
X42953500Y-35503500D03*
X42553500Y-35503500D03*
X42153500Y-35503500D03*
D36*
X44820167Y-39266667D03*
D37*
X44820167Y-39266667D03*
D36*
X44820167Y-40400000D03*
D37*
X44820167Y-40400000D03*
D36*
X44820167Y-41533333D03*
D37*
X44820167Y-41533333D03*
D36*
X45953500Y-39266667D03*
D37*
X45953500Y-39266667D03*
D36*
X45953500Y-40400000D03*
D37*
X45953500Y-40400000D03*
D36*
X45953500Y-41533333D03*
D37*
X45953500Y-41533333D03*
D36*
X47086833Y-39266667D03*
D37*
X47086833Y-39266667D03*
D36*
X47086833Y-40400000D03*
D37*
X47086833Y-40400000D03*
D36*
X47086833Y-41533333D03*
D37*
X47086833Y-41533333D03*
%TD*%
D13*
%TO.C,TP6*%
X56450000Y-15700000D03*
%TD*%
D26*
%TO.C,R21*%
X51050000Y-16730000D03*
X51050000Y-15770000D03*
%TD*%
D38*
%TO.C,U7*%
X36662500Y-23345000D03*
X36662500Y-24615000D03*
X36662500Y-25885000D03*
X36662500Y-27155000D03*
X43837500Y-27155000D03*
X43837500Y-25885000D03*
X43837500Y-24615000D03*
X43837500Y-23345000D03*
%TD*%
D14*
%TO.C,R17*%
X14091800Y-31750000D03*
X13131800Y-31750000D03*
%TD*%
D20*
%TO.C,C16*%
X53220000Y-39450000D03*
X54180000Y-39450000D03*
%TD*%
D26*
%TO.C,C17*%
X43550000Y-33730000D03*
X43550000Y-32770000D03*
%TD*%
%TO.C,R15*%
X49175000Y-48610000D03*
X49175000Y-47650000D03*
%TD*%
%TO.C,C14*%
X51500000Y-33680000D03*
X51500000Y-32720000D03*
%TD*%
D39*
%TO.C,J1*%
X23100000Y-16100000D03*
D40*
X25600000Y-16100000D03*
X28100000Y-16100000D03*
X30600000Y-16100000D03*
X33100000Y-16100000D03*
%TD*%
D18*
%TO.C,JP3*%
X56550000Y-72750000D03*
X59090000Y-72750000D03*
%TD*%
D19*
%TO.C,C15*%
X47250000Y-46920000D03*
X47250000Y-47880000D03*
%TD*%
D14*
%TO.C,R23*%
X42440800Y-21818600D03*
X41480800Y-21818600D03*
%TD*%
%TO.C,R16*%
X39367400Y-21844000D03*
X38407400Y-21844000D03*
%TD*%
D18*
%TO.C,JP2*%
X56450000Y-77600000D03*
X58990000Y-77600000D03*
%TD*%
D12*
%TO.C,SW2*%
X66200000Y-19500000D03*
X66200000Y-14350000D03*
X67900000Y-19500000D03*
X67900000Y-14350000D03*
%TD*%
D41*
%TO.C,PMU*%
X55585000Y-18350000D03*
X55585000Y-19450000D03*
X57415000Y-19450000D03*
X57415000Y-18350000D03*
%TD*%
D14*
%TO.C,C12*%
X56180000Y-35000000D03*
X55220000Y-35000000D03*
%TD*%
D42*
%TO.C,C2*%
X23375000Y-75750000D03*
X23375000Y-73850000D03*
%TD*%
D14*
%TO.C,C24*%
X39580000Y-42300000D03*
X38620000Y-42300000D03*
%TD*%
D43*
%TO.C,R18*%
X48615600Y-31076400D03*
X48615600Y-29426400D03*
%TD*%
D20*
%TO.C,C21*%
X52240000Y-44350000D03*
X53200000Y-44350000D03*
%TD*%
D13*
%TO.C,TP1*%
X25425000Y-78000000D03*
%TD*%
D20*
%TO.C,C26*%
X50520000Y-50575000D03*
X51480000Y-50575000D03*
%TD*%
D27*
%TO.C,H1*%
X76200000Y-17100000D03*
%TD*%
D44*
%TO.C,BOOT*%
X13275000Y-23900000D03*
X18425000Y-23900000D03*
X13275000Y-25600000D03*
X18425000Y-25600000D03*
%TD*%
D41*
%TO.C,RPI_STATUS1*%
X14750000Y-35200000D03*
X14750000Y-36300000D03*
X16580000Y-36300000D03*
X16580000Y-35200000D03*
%TD*%
D42*
%TO.C,C1*%
X25425000Y-75750000D03*
X25425000Y-73850000D03*
%TD*%
D44*
%TO.C,RESET*%
X13275000Y-28150000D03*
X18425000Y-28150000D03*
X13275000Y-29850000D03*
X18425000Y-29850000D03*
%TD*%
D26*
%TO.C,R22*%
X49300000Y-50580000D03*
X49300000Y-49620000D03*
%TD*%
D43*
%TO.C,R19*%
X47115600Y-31076400D03*
X47115600Y-29426400D03*
%TD*%
D15*
%TO.C,J7*%
X73533000Y-26873200D03*
D16*
X76073000Y-26873200D03*
X73533000Y-29413200D03*
X76073000Y-29413200D03*
X73533000Y-31953200D03*
X76073000Y-31953200D03*
X73533000Y-34493200D03*
X76073000Y-34493200D03*
X73533000Y-37033200D03*
X76073000Y-37033200D03*
X73533000Y-39573200D03*
X76073000Y-39573200D03*
%TD*%
D45*
%TO.C,R9*%
X62612500Y-21550000D03*
X60787500Y-21550000D03*
%TD*%
D19*
%TO.C,C18*%
X45600000Y-47320000D03*
X45600000Y-48280000D03*
%TD*%
D46*
%TO.C,D1*%
X36000000Y-20100000D03*
X39300000Y-20100000D03*
%TD*%
D26*
%TO.C,C22*%
X46750000Y-34380000D03*
X46750000Y-33420000D03*
%TD*%
M02*
