M48
; DRILL file {KiCad 9.0.6} date 2025-12-18T05:42:00-0800
; FORMAT={-:-/ absolute / inch / decimal}
; #@! TF.CreationDate,2025-12-18T05:42:00-08:00
; #@! TF.GenerationSoftware,Kicad,Pcbnew,9.0.6
; #@! TF.FileFunction,Plated,1,2,PTH
FMAT,2
INCH
; #@! TA.AperFunction,Plated,PTH,ComponentDrill
T1C0.0079
; #@! TA.AperFunction,Plated,PTH,ViaDrill
T2C0.0118
; #@! TA.AperFunction,Plated,PTH,ComponentDrill
T3C0.0138
; #@! TA.AperFunction,Plated,PTH,ViaDrill
T4C0.0157
; #@! TA.AperFunction,Plated,PTH,ComponentDrill
T5C0.0354
; #@! TA.AperFunction,Plated,PTH,ComponentDrill
T6C0.0374
; #@! TA.AperFunction,Plated,PTH,ComponentDrill
T7C0.0394
; #@! TA.AperFunction,Plated,PTH,ComponentDrill
T8C0.0472
; #@! TA.AperFunction,Plated,PTH,ComponentDrill
T9C0.0984
%
G90
G05
T1
X2.223Y-1.0472
X2.223Y-1.0827
X2.225Y-1.1378
X2.225Y-1.1732
X2.2545Y-1.0472
X2.2545Y-1.0827
X2.2559Y-1.1378
X2.2559Y-1.1732
X2.286Y-1.0472
X2.286Y-1.0827
X2.286Y-1.1378
X2.286Y-1.1732
T2
X0.4941Y-1.315
X0.519Y-2.0303
X0.5256Y-1.315
X0.5335Y-0.7952
X0.5354Y-2.126
X0.5511Y-1.4075
X0.5512Y-1.4409
X0.561Y-1.315
X0.5904Y-2.0041
X0.6063Y-1.3819
X0.628Y-1.1654
X0.6713Y-2.2264
X0.6988Y-1.5787
X0.7244Y-1.5059
X0.7321Y-1.6936
X0.7479Y-1.6663
X0.752Y-2.6575
X0.7728Y-1.1901
X0.7794Y-1.8898
X0.8701Y-0.6575
X0.8772Y-1.0169
X0.9283Y-2.1453
X0.9465Y-1.913
X0.998Y-1.1811
X1.0354Y-1.0079
X1.063Y-2.5768
X1.063Y-2.7835
X1.1024Y-1.0531
X1.1516Y-0.7185
X1.1535Y-0.9685
X1.1535Y-2.0433
X1.1811Y-1.3592
X1.2067Y-1.1792
X1.2106Y-1.7913
X1.248Y-2.0708
X1.25Y-1.0531
X1.2835Y-1.5118
X1.2854Y-1.9409
X1.3539Y-2.3618
X1.3583Y-1.815
X1.3704Y-1.8545
X1.3839Y-1.3681
X1.3937Y-1.998
X1.4449Y-2.0669
X1.4588Y-1.5138
X1.4588Y-1.5551
X1.4606Y-1.1417
X1.4685Y-1.4567
X1.5315Y-0.6122
X1.5438Y-1.561
X1.5748Y-1.5945
X1.6043Y-1.0728
X1.6142Y-2.3559
X1.6476Y-0.6122
X1.6929Y-2.7864
X1.7047Y-1.3258
X1.7283Y-1.6575
X1.7333Y-1.3445
X1.7717Y-1.4665
X1.8066Y-1.6765
X1.8425Y-2.9177
X1.8701Y-1.8327
X1.9449Y-2.8701
X1.9449Y-2.998
X1.998Y-2.0059
X2.063Y-1.4213
X2.2608Y-1.3179
X2.3194Y-1.2972
X2.3661Y-1.3169
T3
X0.9104Y-1.5689
X0.9104Y-1.6191
X0.9104Y-1.6693
X0.9606Y-1.5689
X0.9606Y-1.6191
X0.9606Y-1.6693
X1.0108Y-1.5689
X1.0108Y-1.6191
X1.0108Y-1.6693
T4
X2.1831Y-0.9587
T5
X2.0732Y-1.5748
X2.1732Y-1.5748
X2.2732Y-1.5748
T6
X1.3346Y-3.1378
X1.4331Y-3.1378
X1.5315Y-3.1378
X2.2913Y-1.8071
X2.2913Y-1.9055
X2.2913Y-2.0039
X2.2913Y-2.1024
X2.2913Y-2.2008
T7
X2.0866Y-1.8091
X2.0866Y-1.9091
X2.0866Y-2.0091
X2.2224Y-2.4177
X2.2224Y-2.5177
X2.2224Y-2.6177
X2.2224Y-2.7177
X2.2224Y-2.8177
X2.2224Y-2.9177
X2.3224Y-2.4177
X2.3224Y-2.5177
X2.3224Y-2.6177
X2.3224Y-2.7177
X2.3224Y-2.8177
X2.3224Y-2.9177
T8
X0.5984Y-2.2984
X0.5984Y-2.8984
T9
X0.6594Y-0.6693
X0.6594Y-3.1299
X2.2343Y-0.6693
X2.2343Y-3.1299
M30
