M48
; DRILL file {KiCad 9.0.6} date 2026-03-03T14:06:12-0800
; FORMAT={-:-/ absolute / inch / decimal}
; #@! TF.CreationDate,2026-03-03T14:06:12-08:00
; #@! TF.GenerationSoftware,Kicad,Pcbnew,9.0.6
; #@! TF.FileFunction,Plated,1,2,PTH
FMAT,2
INCH
; #@! TA.AperFunction,Plated,PTH,ComponentDrill
T1C0.0079
; #@! TA.AperFunction,Plated,PTH,ComponentDrill
T2C0.0098
; #@! TA.AperFunction,Plated,PTH,ViaDrill
T3C0.0118
; #@! TA.AperFunction,Plated,PTH,ComponentDrill
T4C0.0276
; #@! TA.AperFunction,Plated,PTH,ComponentDrill
T5C0.0295
; #@! TA.AperFunction,Plated,PTH,ComponentDrill
T6C0.0315
; #@! TA.AperFunction,Plated,PTH,ComponentDrill
T7C0.0374
; #@! TA.AperFunction,Plated,PTH,ComponentDrill
T8C0.0394
; #@! TA.AperFunction,Plated,PTH,ComponentDrill
T9C0.0472
; #@! TA.AperFunction,Plated,PTH,ComponentDrill
T10C0.1378
%
G90
G05
T1
X1.0797Y-2.8799
X1.0797Y-2.9154
X1.0817Y-2.9705
X1.0817Y-3.0059
X1.1112Y-2.8799
X1.1112Y-2.9154
X1.1126Y-2.9705
X1.1126Y-3.0059
X1.1427Y-2.8799
X1.1427Y-2.9154
X1.1427Y-2.9705
X1.1427Y-3.0059
T2
X1.7646Y-1.5459
X1.7646Y-1.5906
X1.7646Y-1.6352
X1.8092Y-1.5459
X1.8092Y-1.5906
X1.8092Y-1.6352
X1.8538Y-1.5459
X1.8538Y-1.5906
X1.8538Y-1.6352
T3
X0.5118Y-1.561
X0.5118Y-1.8268
X0.5118Y-2.0925
X0.5118Y-2.3583
X0.5118Y-2.624
X0.7726Y-2.2421
X0.8071Y-0.812
X0.8356Y-2.8071
X0.874Y-2.1529
X0.874Y-2.3028
X0.874Y-2.4528
X0.874Y-2.6027
X1.0039Y-0.812
X1.0118Y-1.5669
X1.0689Y-2.8061
X1.0797Y-1.0492
X1.1073Y-2.1529
X1.1073Y-2.3028
X1.1073Y-2.4528
X1.1073Y-2.6027
X1.128Y-2.0236
X1.1299Y-1.2205
X1.1427Y-1.0482
X1.2146Y-2.6841
X1.2333Y-2.9941
X1.2395Y-2.9465
X1.254Y-1.708
X1.2579Y-2.3829
X1.2717Y-1.2551
X1.435Y-1.3159
X1.4478Y-1.3494
X1.4872Y-0.6909
X1.4902Y-1.6781
X1.5423Y-2.8445
X1.5423Y-2.9222
X1.5423Y-3.0
X1.5699Y-1.8031
X1.619Y-0.953
X1.6211Y-1.7785
X1.627Y-2.7982
X1.627Y-3.0315
X1.6614Y-1.8701
X1.6978Y-1.9459
X1.7156Y-1.253
X1.7539Y-2.7982
X1.7539Y-3.0315
X1.7657Y-0.8307
X1.8287Y-2.8445
X1.8287Y-2.9222
X1.8287Y-3.0
X1.8415Y-1.2854
X1.8593Y-1.9124
X1.935Y-1.3583
X1.939Y-1.5571
X1.939Y-1.6093
X1.9449Y-1.1073
X1.9695Y-0.7874
X1.9695Y-0.9852
X1.9734Y-1.1073
X2.0925Y-1.5217
X2.1Y-1.815
X2.1191Y-1.2982
X2.1309Y-2.2894
X2.1319Y-2.7037
X2.1329Y-1.4567
X2.142Y-2.009
X2.1663Y-0.9852
X2.2055Y-1.5894
X2.2411Y-2.2894
X2.2421Y-2.7037
X2.2549Y-1.5404
X2.2589Y-1.4587
X2.2677Y-1.2982
X2.3031Y-1.5689
X2.3435Y-0.6683
X2.4035Y-0.9173
X2.4833Y-1.3543
X2.497Y-1.0699
X2.5413Y-0.6693
X2.5423Y-0.9094
X2.6348Y-1.2224
X2.7259Y-1.5438
X2.752Y-0.6673
X2.7539Y-0.9055
X2.7569Y-1.062
X2.7696Y-2.7884
X2.77Y-2.66
X2.9419Y-0.9232
X3.0173Y-1.83
X3.0541Y-1.187
X3.0551Y-0.9764
X3.1319Y-1.83
T4
X1.6929Y-0.5531
X1.6929Y-0.7224
X1.8819Y-0.5531
X1.8819Y-0.7224
T5
X1.9547Y-3.0138
X2.0335Y-3.0138
X2.5059Y-3.0138
X2.5846Y-3.0138
T6
X2.2224Y-2.9606
X2.2224Y-3.0551
X2.2264Y-2.8642
X2.3224Y-2.9606
X2.3224Y-3.0551
X2.3264Y-2.8642
T7
X0.9094Y-0.6339
X1.0079Y-0.6339
X1.1063Y-0.6339
X1.2047Y-0.6339
X1.3031Y-0.6339
T8
X2.452Y-2.0744
X2.452Y-2.1744
X2.452Y-2.2744
X2.452Y-2.3744
X2.452Y-2.4744
X2.452Y-2.5744
X2.552Y-2.0744
X2.552Y-2.1744
X2.552Y-2.2744
X2.552Y-2.3744
X2.552Y-2.4744
X2.552Y-2.5744
X2.895Y-1.058
X2.895Y-1.158
X2.895Y-1.258
X2.895Y-1.358
X2.895Y-1.458
X2.895Y-1.558
X2.9173Y-2.0693
X2.9173Y-2.1693
X2.9173Y-2.2693
X2.9173Y-2.3693
X2.9173Y-2.4693
X2.9173Y-2.5693
X2.995Y-1.058
X2.995Y-1.158
X2.995Y-1.258
X2.995Y-1.358
X2.995Y-1.458
X2.995Y-1.558
X3.0173Y-2.0693
X3.0173Y-2.1693
X3.0173Y-2.2693
X3.0173Y-2.3693
X3.0173Y-2.4693
X3.0173Y-2.5693
T9
X0.6604Y-2.0406
X0.6604Y-2.6406
T10
X0.5748Y-0.6732
X0.5748Y-2.9567
X3.0Y-0.6732
X3.0Y-2.9567
M30
