%TF.GenerationSoftware,KiCad,Pcbnew,9.0.6*%
%TF.CreationDate,2025-12-18T05:42:00-08:00*%
%TF.ProjectId,bramble,6272616d-626c-4652-9e6b-696361645f70,rev?*%
%TF.SameCoordinates,Original*%
%TF.FileFunction,Legend,Top*%
%TF.FilePolarity,Positive*%
%FSLAX46Y46*%
G04 Gerber Fmt 4.6, Leading zero omitted, Abs format (unit mm)*
G04 Created by KiCad (PCBNEW 9.0.6) date 2025-12-18 05:42:00*
%MOMM*%
%LPD*%
G01*
G04 APERTURE LIST*
G04 Aperture macros list*
%AMRoundRect*
0 Rectangle with rounded corners*
0 $1 Rounding radius*
0 $2 $3 $4 $5 $6 $7 $8 $9 X,Y pos of 4 corners*
0 Add a 4 corners polygon primitive as box body*
4,1,4,$2,$3,$4,$5,$6,$7,$8,$9,$2,$3,0*
0 Add four circle primitives for the rounded corners*
1,1,$1+$1,$2,$3*
1,1,$1+$1,$4,$5*
1,1,$1+$1,$6,$7*
1,1,$1+$1,$8,$9*
0 Add four rect primitives between the rounded corners*
20,1,$1+$1,$2,$3,$4,$5,0*
20,1,$1+$1,$4,$5,$6,$7,0*
20,1,$1+$1,$6,$7,$8,$9,0*
20,1,$1+$1,$8,$9,$2,$3,0*%
G04 Aperture macros list end*
%ADD10C,0.150000*%
%ADD11C,0.200000*%
%ADD12C,0.120000*%
%ADD13C,0.127000*%
%ADD14C,0.010000*%
%ADD15R,0.700000X0.700000*%
%ADD16RoundRect,0.250000X0.250000X0.475000X-0.250000X0.475000X-0.250000X-0.475000X0.250000X-0.475000X0*%
%ADD17RoundRect,0.250000X-0.475000X0.250000X-0.475000X-0.250000X0.475000X-0.250000X0.475000X0.250000X0*%
%ADD18R,0.600000X1.500000*%
%ADD19RoundRect,0.250000X0.475000X-0.250000X0.475000X0.250000X-0.475000X0.250000X-0.475000X-0.250000X0*%
%ADD20C,5.000000*%
%ADD21RoundRect,0.317500X0.317500X-1.157500X0.317500X1.157500X-0.317500X1.157500X-0.317500X-1.157500X0*%
%ADD22RoundRect,0.144000X-1.456000X1.456000X-1.456000X-1.456000X1.456000X-1.456000X1.456000X1.456000X0*%
%ADD23RoundRect,0.050000X-0.387500X0.050000X-0.387500X-0.050000X0.387500X-0.050000X0.387500X0.050000X0*%
%ADD24RoundRect,0.050000X-0.050000X0.387500X-0.050000X-0.387500X0.050000X-0.387500X0.050000X0.387500X0*%
%ADD25O,1.700000X1.950000*%
%ADD26RoundRect,0.250000X0.600000X0.725000X-0.600000X0.725000X-0.600000X-0.725000X0.600000X-0.725000X0*%
%ADD27C,1.200000*%
%ADD28RoundRect,0.250000X-0.262500X-0.450000X0.262500X-0.450000X0.262500X0.450000X-0.262500X0.450000X0*%
%ADD29C,1.800000*%
%ADD30R,1.800000X1.800000*%
%ADD31C,1.700000*%
%ADD32R,1.700000X1.700000*%
%ADD33RoundRect,0.250000X0.475000X0.250000X-0.475000X0.250000X-0.475000X-0.250000X0.475000X-0.250000X0*%
%ADD34RoundRect,0.250000X0.840000X0.750000X-0.840000X0.750000X-0.840000X-0.750000X0.840000X-0.750000X0*%
%ADD35RoundRect,0.150000X0.150000X0.425000X-0.150000X0.425000X-0.150000X-0.425000X0.150000X-0.425000X0*%
%ADD36RoundRect,0.075000X0.075000X0.500000X-0.075000X0.500000X-0.075000X-0.500000X0.075000X-0.500000X0*%
%ADD37C,0.650000*%
%ADD38RoundRect,0.250000X-0.250000X-0.475000X0.250000X-0.475000X0.250000X0.475000X-0.250000X0.475000X0*%
%ADD39RoundRect,0.105000X0.995000X-0.420000X0.995000X0.420000X-0.995000X0.420000X-0.995000X-0.420000X0*%
%ADD40RoundRect,0.100000X0.400000X-0.400000X0.400000X0.400000X-0.400000X0.400000X-0.400000X-0.400000X0*%
%ADD41RoundRect,0.150000X-0.150000X0.587500X-0.150000X-0.587500X0.150000X-0.587500X0.150000X0.587500X0*%
%ADD42RoundRect,0.250000X-0.450000X0.262500X-0.450000X-0.262500X0.450000X-0.262500X0.450000X0.262500X0*%
%ADD43RoundRect,0.250000X0.450000X-0.262500X0.450000X0.262500X-0.450000X0.262500X-0.450000X-0.262500X0*%
%ADD44RoundRect,0.162500X0.650000X0.162500X-0.650000X0.162500X-0.650000X-0.162500X0.650000X-0.162500X0*%
%ADD45O,1.950000X1.700000*%
%ADD46RoundRect,0.250000X0.725000X-0.600000X0.725000X0.600000X-0.725000X0.600000X-0.725000X-0.600000X0*%
%ADD47RoundRect,0.250000X0.262500X0.450000X-0.262500X0.450000X-0.262500X-0.450000X0.262500X-0.450000X0*%
%ADD48RoundRect,0.250000X-0.475000X-0.250000X0.475000X-0.250000X0.475000X0.250000X-0.475000X0.250000X0*%
%ADD49C,2.400000*%
%ADD50RoundRect,0.150000X0.587500X0.150000X-0.587500X0.150000X-0.587500X-0.150000X0.587500X-0.150000X0*%
%ADD51RoundRect,0.225000X-0.225000X-0.375000X0.225000X-0.375000X0.225000X0.375000X-0.225000X0.375000X0*%
G04 APERTURE END LIST*
D10*
X55657200Y-58795237D02*
X55704819Y-58652380D01*
X55704819Y-58652380D02*
X55704819Y-58414285D01*
X55704819Y-58414285D02*
X55657200Y-58319047D01*
X55657200Y-58319047D02*
X55609580Y-58271428D01*
X55609580Y-58271428D02*
X55514342Y-58223809D01*
X55514342Y-58223809D02*
X55419104Y-58223809D01*
X55419104Y-58223809D02*
X55323866Y-58271428D01*
X55323866Y-58271428D02*
X55276247Y-58319047D01*
X55276247Y-58319047D02*
X55228628Y-58414285D01*
X55228628Y-58414285D02*
X55181009Y-58604761D01*
X55181009Y-58604761D02*
X55133390Y-58699999D01*
X55133390Y-58699999D02*
X55085771Y-58747618D01*
X55085771Y-58747618D02*
X54990533Y-58795237D01*
X54990533Y-58795237D02*
X54895295Y-58795237D01*
X54895295Y-58795237D02*
X54800057Y-58747618D01*
X54800057Y-58747618D02*
X54752438Y-58699999D01*
X54752438Y-58699999D02*
X54704819Y-58604761D01*
X54704819Y-58604761D02*
X54704819Y-58366666D01*
X54704819Y-58366666D02*
X54752438Y-58223809D01*
X54704819Y-57938094D02*
X54704819Y-57366666D01*
X55704819Y-57652380D02*
X54704819Y-57652380D01*
X55704819Y-57033332D02*
X54704819Y-57033332D01*
X54704819Y-57033332D02*
X55419104Y-56699999D01*
X55419104Y-56699999D02*
X54704819Y-56366666D01*
X54704819Y-56366666D02*
X55704819Y-56366666D01*
X55704819Y-55128570D02*
X54704819Y-55128570D01*
X54704819Y-55128570D02*
X54704819Y-54890475D01*
X54704819Y-54890475D02*
X54752438Y-54747618D01*
X54752438Y-54747618D02*
X54847676Y-54652380D01*
X54847676Y-54652380D02*
X54942914Y-54604761D01*
X54942914Y-54604761D02*
X55133390Y-54557142D01*
X55133390Y-54557142D02*
X55276247Y-54557142D01*
X55276247Y-54557142D02*
X55466723Y-54604761D01*
X55466723Y-54604761D02*
X55561961Y-54652380D01*
X55561961Y-54652380D02*
X55657200Y-54747618D01*
X55657200Y-54747618D02*
X55704819Y-54890475D01*
X55704819Y-54890475D02*
X55704819Y-55128570D01*
X55181009Y-54128570D02*
X55181009Y-53795237D01*
X55704819Y-53652380D02*
X55704819Y-54128570D01*
X55704819Y-54128570D02*
X54704819Y-54128570D01*
X54704819Y-54128570D02*
X54704819Y-53652380D01*
X55181009Y-52890475D02*
X55228628Y-52747618D01*
X55228628Y-52747618D02*
X55276247Y-52699999D01*
X55276247Y-52699999D02*
X55371485Y-52652380D01*
X55371485Y-52652380D02*
X55514342Y-52652380D01*
X55514342Y-52652380D02*
X55609580Y-52699999D01*
X55609580Y-52699999D02*
X55657200Y-52747618D01*
X55657200Y-52747618D02*
X55704819Y-52842856D01*
X55704819Y-52842856D02*
X55704819Y-53223808D01*
X55704819Y-53223808D02*
X54704819Y-53223808D01*
X54704819Y-53223808D02*
X54704819Y-52890475D01*
X54704819Y-52890475D02*
X54752438Y-52795237D01*
X54752438Y-52795237D02*
X54800057Y-52747618D01*
X54800057Y-52747618D02*
X54895295Y-52699999D01*
X54895295Y-52699999D02*
X54990533Y-52699999D01*
X54990533Y-52699999D02*
X55085771Y-52747618D01*
X55085771Y-52747618D02*
X55133390Y-52795237D01*
X55133390Y-52795237D02*
X55181009Y-52890475D01*
X55181009Y-52890475D02*
X55181009Y-53223808D01*
X54704819Y-52223808D02*
X55514342Y-52223808D01*
X55514342Y-52223808D02*
X55609580Y-52176189D01*
X55609580Y-52176189D02*
X55657200Y-52128570D01*
X55657200Y-52128570D02*
X55704819Y-52033332D01*
X55704819Y-52033332D02*
X55704819Y-51842856D01*
X55704819Y-51842856D02*
X55657200Y-51747618D01*
X55657200Y-51747618D02*
X55609580Y-51699999D01*
X55609580Y-51699999D02*
X55514342Y-51652380D01*
X55514342Y-51652380D02*
X54704819Y-51652380D01*
X54752438Y-50652380D02*
X54704819Y-50747618D01*
X54704819Y-50747618D02*
X54704819Y-50890475D01*
X54704819Y-50890475D02*
X54752438Y-51033332D01*
X54752438Y-51033332D02*
X54847676Y-51128570D01*
X54847676Y-51128570D02*
X54942914Y-51176189D01*
X54942914Y-51176189D02*
X55133390Y-51223808D01*
X55133390Y-51223808D02*
X55276247Y-51223808D01*
X55276247Y-51223808D02*
X55466723Y-51176189D01*
X55466723Y-51176189D02*
X55561961Y-51128570D01*
X55561961Y-51128570D02*
X55657200Y-51033332D01*
X55657200Y-51033332D02*
X55704819Y-50890475D01*
X55704819Y-50890475D02*
X55704819Y-50795237D01*
X55704819Y-50795237D02*
X55657200Y-50652380D01*
X55657200Y-50652380D02*
X55609580Y-50604761D01*
X55609580Y-50604761D02*
X55276247Y-50604761D01*
X55276247Y-50604761D02*
X55276247Y-50795237D01*
X21023809Y-15204819D02*
X20690476Y-14728628D01*
X20452381Y-15204819D02*
X20452381Y-14204819D01*
X20452381Y-14204819D02*
X20833333Y-14204819D01*
X20833333Y-14204819D02*
X20928571Y-14252438D01*
X20928571Y-14252438D02*
X20976190Y-14300057D01*
X20976190Y-14300057D02*
X21023809Y-14395295D01*
X21023809Y-14395295D02*
X21023809Y-14538152D01*
X21023809Y-14538152D02*
X20976190Y-14633390D01*
X20976190Y-14633390D02*
X20928571Y-14681009D01*
X20928571Y-14681009D02*
X20833333Y-14728628D01*
X20833333Y-14728628D02*
X20452381Y-14728628D01*
X21452381Y-15204819D02*
X21452381Y-14204819D01*
X21452381Y-14204819D02*
X21833333Y-14204819D01*
X21833333Y-14204819D02*
X21928571Y-14252438D01*
X21928571Y-14252438D02*
X21976190Y-14300057D01*
X21976190Y-14300057D02*
X22023809Y-14395295D01*
X22023809Y-14395295D02*
X22023809Y-14538152D01*
X22023809Y-14538152D02*
X21976190Y-14633390D01*
X21976190Y-14633390D02*
X21928571Y-14681009D01*
X21928571Y-14681009D02*
X21833333Y-14728628D01*
X21833333Y-14728628D02*
X21452381Y-14728628D01*
X22452381Y-15204819D02*
X22452381Y-14204819D01*
X23642857Y-15157200D02*
X23785714Y-15204819D01*
X23785714Y-15204819D02*
X24023809Y-15204819D01*
X24023809Y-15204819D02*
X24119047Y-15157200D01*
X24119047Y-15157200D02*
X24166666Y-15109580D01*
X24166666Y-15109580D02*
X24214285Y-15014342D01*
X24214285Y-15014342D02*
X24214285Y-14919104D01*
X24214285Y-14919104D02*
X24166666Y-14823866D01*
X24166666Y-14823866D02*
X24119047Y-14776247D01*
X24119047Y-14776247D02*
X24023809Y-14728628D01*
X24023809Y-14728628D02*
X23833333Y-14681009D01*
X23833333Y-14681009D02*
X23738095Y-14633390D01*
X23738095Y-14633390D02*
X23690476Y-14585771D01*
X23690476Y-14585771D02*
X23642857Y-14490533D01*
X23642857Y-14490533D02*
X23642857Y-14395295D01*
X23642857Y-14395295D02*
X23690476Y-14300057D01*
X23690476Y-14300057D02*
X23738095Y-14252438D01*
X23738095Y-14252438D02*
X23833333Y-14204819D01*
X23833333Y-14204819D02*
X24071428Y-14204819D01*
X24071428Y-14204819D02*
X24214285Y-14252438D01*
X24500000Y-14204819D02*
X25071428Y-14204819D01*
X24785714Y-15204819D02*
X24785714Y-14204819D01*
X25357143Y-14919104D02*
X25833333Y-14919104D01*
X25261905Y-15204819D02*
X25595238Y-14204819D01*
X25595238Y-14204819D02*
X25928571Y-15204819D01*
X26119048Y-14204819D02*
X26690476Y-14204819D01*
X26404762Y-15204819D02*
X26404762Y-14204819D01*
X27023810Y-14204819D02*
X27023810Y-15014342D01*
X27023810Y-15014342D02*
X27071429Y-15109580D01*
X27071429Y-15109580D02*
X27119048Y-15157200D01*
X27119048Y-15157200D02*
X27214286Y-15204819D01*
X27214286Y-15204819D02*
X27404762Y-15204819D01*
X27404762Y-15204819D02*
X27500000Y-15157200D01*
X27500000Y-15157200D02*
X27547619Y-15109580D01*
X27547619Y-15109580D02*
X27595238Y-15014342D01*
X27595238Y-15014342D02*
X27595238Y-14204819D01*
X28023810Y-15157200D02*
X28166667Y-15204819D01*
X28166667Y-15204819D02*
X28404762Y-15204819D01*
X28404762Y-15204819D02*
X28500000Y-15157200D01*
X28500000Y-15157200D02*
X28547619Y-15109580D01*
X28547619Y-15109580D02*
X28595238Y-15014342D01*
X28595238Y-15014342D02*
X28595238Y-14919104D01*
X28595238Y-14919104D02*
X28547619Y-14823866D01*
X28547619Y-14823866D02*
X28500000Y-14776247D01*
X28500000Y-14776247D02*
X28404762Y-14728628D01*
X28404762Y-14728628D02*
X28214286Y-14681009D01*
X28214286Y-14681009D02*
X28119048Y-14633390D01*
X28119048Y-14633390D02*
X28071429Y-14585771D01*
X28071429Y-14585771D02*
X28023810Y-14490533D01*
X28023810Y-14490533D02*
X28023810Y-14395295D01*
X28023810Y-14395295D02*
X28071429Y-14300057D01*
X28071429Y-14300057D02*
X28119048Y-14252438D01*
X28119048Y-14252438D02*
X28214286Y-14204819D01*
X28214286Y-14204819D02*
X28452381Y-14204819D01*
X28452381Y-14204819D02*
X28595238Y-14252438D01*
X53352438Y-74649999D02*
X53304819Y-74745237D01*
X53304819Y-74745237D02*
X53304819Y-74888094D01*
X53304819Y-74888094D02*
X53352438Y-75030951D01*
X53352438Y-75030951D02*
X53447676Y-75126189D01*
X53447676Y-75126189D02*
X53542914Y-75173808D01*
X53542914Y-75173808D02*
X53733390Y-75221427D01*
X53733390Y-75221427D02*
X53876247Y-75221427D01*
X53876247Y-75221427D02*
X54066723Y-75173808D01*
X54066723Y-75173808D02*
X54161961Y-75126189D01*
X54161961Y-75126189D02*
X54257200Y-75030951D01*
X54257200Y-75030951D02*
X54304819Y-74888094D01*
X54304819Y-74888094D02*
X54304819Y-74792856D01*
X54304819Y-74792856D02*
X54257200Y-74649999D01*
X54257200Y-74649999D02*
X54209580Y-74602380D01*
X54209580Y-74602380D02*
X53876247Y-74602380D01*
X53876247Y-74602380D02*
X53876247Y-74792856D01*
X54304819Y-74173808D02*
X53304819Y-74173808D01*
X53304819Y-74173808D02*
X53304819Y-73792856D01*
X53304819Y-73792856D02*
X53352438Y-73697618D01*
X53352438Y-73697618D02*
X53400057Y-73649999D01*
X53400057Y-73649999D02*
X53495295Y-73602380D01*
X53495295Y-73602380D02*
X53638152Y-73602380D01*
X53638152Y-73602380D02*
X53733390Y-73649999D01*
X53733390Y-73649999D02*
X53781009Y-73697618D01*
X53781009Y-73697618D02*
X53828628Y-73792856D01*
X53828628Y-73792856D02*
X53828628Y-74173808D01*
X54304819Y-73173808D02*
X53304819Y-73173808D01*
X53304819Y-72507142D02*
X53304819Y-72316666D01*
X53304819Y-72316666D02*
X53352438Y-72221428D01*
X53352438Y-72221428D02*
X53447676Y-72126190D01*
X53447676Y-72126190D02*
X53638152Y-72078571D01*
X53638152Y-72078571D02*
X53971485Y-72078571D01*
X53971485Y-72078571D02*
X54161961Y-72126190D01*
X54161961Y-72126190D02*
X54257200Y-72221428D01*
X54257200Y-72221428D02*
X54304819Y-72316666D01*
X54304819Y-72316666D02*
X54304819Y-72507142D01*
X54304819Y-72507142D02*
X54257200Y-72602380D01*
X54257200Y-72602380D02*
X54161961Y-72697618D01*
X54161961Y-72697618D02*
X53971485Y-72745237D01*
X53971485Y-72745237D02*
X53638152Y-72745237D01*
X53638152Y-72745237D02*
X53447676Y-72697618D01*
X53447676Y-72697618D02*
X53352438Y-72602380D01*
X53352438Y-72602380D02*
X53304819Y-72507142D01*
X34569047Y-26757200D02*
X34711904Y-26804819D01*
X34711904Y-26804819D02*
X34949999Y-26804819D01*
X34949999Y-26804819D02*
X35045237Y-26757200D01*
X35045237Y-26757200D02*
X35092856Y-26709580D01*
X35092856Y-26709580D02*
X35140475Y-26614342D01*
X35140475Y-26614342D02*
X35140475Y-26519104D01*
X35140475Y-26519104D02*
X35092856Y-26423866D01*
X35092856Y-26423866D02*
X35045237Y-26376247D01*
X35045237Y-26376247D02*
X34949999Y-26328628D01*
X34949999Y-26328628D02*
X34759523Y-26281009D01*
X34759523Y-26281009D02*
X34664285Y-26233390D01*
X34664285Y-26233390D02*
X34616666Y-26185771D01*
X34616666Y-26185771D02*
X34569047Y-26090533D01*
X34569047Y-26090533D02*
X34569047Y-25995295D01*
X34569047Y-25995295D02*
X34616666Y-25900057D01*
X34616666Y-25900057D02*
X34664285Y-25852438D01*
X34664285Y-25852438D02*
X34759523Y-25804819D01*
X34759523Y-25804819D02*
X34997618Y-25804819D01*
X34997618Y-25804819D02*
X35140475Y-25852438D01*
X35426190Y-25804819D02*
X35997618Y-25804819D01*
X35711904Y-26804819D02*
X35711904Y-25804819D01*
X36330952Y-26804819D02*
X36330952Y-25804819D01*
X36330952Y-25804819D02*
X36664285Y-26519104D01*
X36664285Y-26519104D02*
X36997618Y-25804819D01*
X36997618Y-25804819D02*
X36997618Y-26804819D01*
X38807142Y-26804819D02*
X38473809Y-26328628D01*
X38235714Y-26804819D02*
X38235714Y-25804819D01*
X38235714Y-25804819D02*
X38616666Y-25804819D01*
X38616666Y-25804819D02*
X38711904Y-25852438D01*
X38711904Y-25852438D02*
X38759523Y-25900057D01*
X38759523Y-25900057D02*
X38807142Y-25995295D01*
X38807142Y-25995295D02*
X38807142Y-26138152D01*
X38807142Y-26138152D02*
X38759523Y-26233390D01*
X38759523Y-26233390D02*
X38711904Y-26281009D01*
X38711904Y-26281009D02*
X38616666Y-26328628D01*
X38616666Y-26328628D02*
X38235714Y-26328628D01*
X39235714Y-26281009D02*
X39569047Y-26281009D01*
X39711904Y-26804819D02*
X39235714Y-26804819D01*
X39235714Y-26804819D02*
X39235714Y-25804819D01*
X39235714Y-25804819D02*
X39711904Y-25804819D01*
X40092857Y-26757200D02*
X40235714Y-26804819D01*
X40235714Y-26804819D02*
X40473809Y-26804819D01*
X40473809Y-26804819D02*
X40569047Y-26757200D01*
X40569047Y-26757200D02*
X40616666Y-26709580D01*
X40616666Y-26709580D02*
X40664285Y-26614342D01*
X40664285Y-26614342D02*
X40664285Y-26519104D01*
X40664285Y-26519104D02*
X40616666Y-26423866D01*
X40616666Y-26423866D02*
X40569047Y-26376247D01*
X40569047Y-26376247D02*
X40473809Y-26328628D01*
X40473809Y-26328628D02*
X40283333Y-26281009D01*
X40283333Y-26281009D02*
X40188095Y-26233390D01*
X40188095Y-26233390D02*
X40140476Y-26185771D01*
X40140476Y-26185771D02*
X40092857Y-26090533D01*
X40092857Y-26090533D02*
X40092857Y-25995295D01*
X40092857Y-25995295D02*
X40140476Y-25900057D01*
X40140476Y-25900057D02*
X40188095Y-25852438D01*
X40188095Y-25852438D02*
X40283333Y-25804819D01*
X40283333Y-25804819D02*
X40521428Y-25804819D01*
X40521428Y-25804819D02*
X40664285Y-25852438D01*
X41092857Y-26281009D02*
X41426190Y-26281009D01*
X41569047Y-26804819D02*
X41092857Y-26804819D01*
X41092857Y-26804819D02*
X41092857Y-25804819D01*
X41092857Y-25804819D02*
X41569047Y-25804819D01*
X41854762Y-25804819D02*
X42426190Y-25804819D01*
X42140476Y-26804819D02*
X42140476Y-25804819D01*
D11*
X53819209Y-60873810D02*
X53819209Y-61826191D01*
X53533495Y-61064286D02*
X53533495Y-61635714D01*
X54247780Y-61350000D02*
X53819209Y-61350000D01*
X53247780Y-61445238D02*
X53247780Y-61254762D01*
X59273810Y-56080790D02*
X60226191Y-56080790D01*
X59464286Y-56366504D02*
X60035714Y-56366504D01*
X59750000Y-55652219D02*
X59750000Y-56080790D01*
X59845238Y-56652219D02*
X59654762Y-56652219D01*
X54630790Y-44926189D02*
X54630790Y-43973808D01*
X54916504Y-44735713D02*
X54916504Y-44164285D01*
X54202219Y-44449999D02*
X54630790Y-44449999D01*
X55202219Y-44354761D02*
X55202219Y-44545237D01*
D10*
X50304819Y-51107142D02*
X49828628Y-51440475D01*
X50304819Y-51678570D02*
X49304819Y-51678570D01*
X49304819Y-51678570D02*
X49304819Y-51297618D01*
X49304819Y-51297618D02*
X49352438Y-51202380D01*
X49352438Y-51202380D02*
X49400057Y-51154761D01*
X49400057Y-51154761D02*
X49495295Y-51107142D01*
X49495295Y-51107142D02*
X49638152Y-51107142D01*
X49638152Y-51107142D02*
X49733390Y-51154761D01*
X49733390Y-51154761D02*
X49781009Y-51202380D01*
X49781009Y-51202380D02*
X49828628Y-51297618D01*
X49828628Y-51297618D02*
X49828628Y-51678570D01*
X50304819Y-50678570D02*
X49304819Y-50678570D01*
X49304819Y-50678570D02*
X49304819Y-50297618D01*
X49304819Y-50297618D02*
X49352438Y-50202380D01*
X49352438Y-50202380D02*
X49400057Y-50154761D01*
X49400057Y-50154761D02*
X49495295Y-50107142D01*
X49495295Y-50107142D02*
X49638152Y-50107142D01*
X49638152Y-50107142D02*
X49733390Y-50154761D01*
X49733390Y-50154761D02*
X49781009Y-50202380D01*
X49781009Y-50202380D02*
X49828628Y-50297618D01*
X49828628Y-50297618D02*
X49828628Y-50678570D01*
X50304819Y-49678570D02*
X49304819Y-49678570D01*
X50257200Y-48488094D02*
X50304819Y-48345237D01*
X50304819Y-48345237D02*
X50304819Y-48107142D01*
X50304819Y-48107142D02*
X50257200Y-48011904D01*
X50257200Y-48011904D02*
X50209580Y-47964285D01*
X50209580Y-47964285D02*
X50114342Y-47916666D01*
X50114342Y-47916666D02*
X50019104Y-47916666D01*
X50019104Y-47916666D02*
X49923866Y-47964285D01*
X49923866Y-47964285D02*
X49876247Y-48011904D01*
X49876247Y-48011904D02*
X49828628Y-48107142D01*
X49828628Y-48107142D02*
X49781009Y-48297618D01*
X49781009Y-48297618D02*
X49733390Y-48392856D01*
X49733390Y-48392856D02*
X49685771Y-48440475D01*
X49685771Y-48440475D02*
X49590533Y-48488094D01*
X49590533Y-48488094D02*
X49495295Y-48488094D01*
X49495295Y-48488094D02*
X49400057Y-48440475D01*
X49400057Y-48440475D02*
X49352438Y-48392856D01*
X49352438Y-48392856D02*
X49304819Y-48297618D01*
X49304819Y-48297618D02*
X49304819Y-48059523D01*
X49304819Y-48059523D02*
X49352438Y-47916666D01*
X49304819Y-47583332D02*
X50304819Y-47345237D01*
X50304819Y-47345237D02*
X49590533Y-47154761D01*
X49590533Y-47154761D02*
X50304819Y-46964285D01*
X50304819Y-46964285D02*
X49304819Y-46726190D01*
X50304819Y-46345237D02*
X49304819Y-46345237D01*
X49304819Y-46345237D02*
X49304819Y-46107142D01*
X49304819Y-46107142D02*
X49352438Y-45964285D01*
X49352438Y-45964285D02*
X49447676Y-45869047D01*
X49447676Y-45869047D02*
X49542914Y-45821428D01*
X49542914Y-45821428D02*
X49733390Y-45773809D01*
X49733390Y-45773809D02*
X49876247Y-45773809D01*
X49876247Y-45773809D02*
X50066723Y-45821428D01*
X50066723Y-45821428D02*
X50161961Y-45869047D01*
X50161961Y-45869047D02*
X50257200Y-45964285D01*
X50257200Y-45964285D02*
X50304819Y-46107142D01*
X50304819Y-46107142D02*
X50304819Y-46345237D01*
D11*
X39376189Y-77969209D02*
X38423808Y-77969209D01*
X39185713Y-77683495D02*
X38614285Y-77683495D01*
X38899999Y-78397780D02*
X38899999Y-77969209D01*
X38804761Y-77397780D02*
X38995237Y-77397780D01*
D10*
X12309819Y-27011904D02*
X13119342Y-27011904D01*
X13119342Y-27011904D02*
X13214580Y-26964285D01*
X13214580Y-26964285D02*
X13262200Y-26916666D01*
X13262200Y-26916666D02*
X13309819Y-26821428D01*
X13309819Y-26821428D02*
X13309819Y-26630952D01*
X13309819Y-26630952D02*
X13262200Y-26535714D01*
X13262200Y-26535714D02*
X13214580Y-26488095D01*
X13214580Y-26488095D02*
X13119342Y-26440476D01*
X13119342Y-26440476D02*
X12309819Y-26440476D01*
X12309819Y-25535714D02*
X12309819Y-25726190D01*
X12309819Y-25726190D02*
X12357438Y-25821428D01*
X12357438Y-25821428D02*
X12405057Y-25869047D01*
X12405057Y-25869047D02*
X12547914Y-25964285D01*
X12547914Y-25964285D02*
X12738390Y-26011904D01*
X12738390Y-26011904D02*
X13119342Y-26011904D01*
X13119342Y-26011904D02*
X13214580Y-25964285D01*
X13214580Y-25964285D02*
X13262200Y-25916666D01*
X13262200Y-25916666D02*
X13309819Y-25821428D01*
X13309819Y-25821428D02*
X13309819Y-25630952D01*
X13309819Y-25630952D02*
X13262200Y-25535714D01*
X13262200Y-25535714D02*
X13214580Y-25488095D01*
X13214580Y-25488095D02*
X13119342Y-25440476D01*
X13119342Y-25440476D02*
X12881247Y-25440476D01*
X12881247Y-25440476D02*
X12786009Y-25488095D01*
X12786009Y-25488095D02*
X12738390Y-25535714D01*
X12738390Y-25535714D02*
X12690771Y-25630952D01*
X12690771Y-25630952D02*
X12690771Y-25821428D01*
X12690771Y-25821428D02*
X12738390Y-25916666D01*
X12738390Y-25916666D02*
X12786009Y-25964285D01*
X12786009Y-25964285D02*
X12881247Y-26011904D01*
X54461905Y-37494819D02*
X54461905Y-36494819D01*
X54461905Y-36494819D02*
X54700000Y-36494819D01*
X54700000Y-36494819D02*
X54842857Y-36542438D01*
X54842857Y-36542438D02*
X54938095Y-36637676D01*
X54938095Y-36637676D02*
X54985714Y-36732914D01*
X54985714Y-36732914D02*
X55033333Y-36923390D01*
X55033333Y-36923390D02*
X55033333Y-37066247D01*
X55033333Y-37066247D02*
X54985714Y-37256723D01*
X54985714Y-37256723D02*
X54938095Y-37351961D01*
X54938095Y-37351961D02*
X54842857Y-37447200D01*
X54842857Y-37447200D02*
X54700000Y-37494819D01*
X54700000Y-37494819D02*
X54461905Y-37494819D01*
X55985714Y-37494819D02*
X55414286Y-37494819D01*
X55700000Y-37494819D02*
X55700000Y-36494819D01*
X55700000Y-36494819D02*
X55604762Y-36637676D01*
X55604762Y-36637676D02*
X55509524Y-36732914D01*
X55509524Y-36732914D02*
X55414286Y-36780533D01*
X20147618Y-75704819D02*
X19814285Y-75228628D01*
X19576190Y-75704819D02*
X19576190Y-74704819D01*
X19576190Y-74704819D02*
X19957142Y-74704819D01*
X19957142Y-74704819D02*
X20052380Y-74752438D01*
X20052380Y-74752438D02*
X20099999Y-74800057D01*
X20099999Y-74800057D02*
X20147618Y-74895295D01*
X20147618Y-74895295D02*
X20147618Y-75038152D01*
X20147618Y-75038152D02*
X20099999Y-75133390D01*
X20099999Y-75133390D02*
X20052380Y-75181009D01*
X20052380Y-75181009D02*
X19957142Y-75228628D01*
X19957142Y-75228628D02*
X19576190Y-75228628D01*
X20576190Y-75181009D02*
X20909523Y-75181009D01*
X21052380Y-75704819D02*
X20576190Y-75704819D01*
X20576190Y-75704819D02*
X20576190Y-74704819D01*
X20576190Y-74704819D02*
X21052380Y-74704819D01*
X21433333Y-75657200D02*
X21576190Y-75704819D01*
X21576190Y-75704819D02*
X21814285Y-75704819D01*
X21814285Y-75704819D02*
X21909523Y-75657200D01*
X21909523Y-75657200D02*
X21957142Y-75609580D01*
X21957142Y-75609580D02*
X22004761Y-75514342D01*
X22004761Y-75514342D02*
X22004761Y-75419104D01*
X22004761Y-75419104D02*
X21957142Y-75323866D01*
X21957142Y-75323866D02*
X21909523Y-75276247D01*
X21909523Y-75276247D02*
X21814285Y-75228628D01*
X21814285Y-75228628D02*
X21623809Y-75181009D01*
X21623809Y-75181009D02*
X21528571Y-75133390D01*
X21528571Y-75133390D02*
X21480952Y-75085771D01*
X21480952Y-75085771D02*
X21433333Y-74990533D01*
X21433333Y-74990533D02*
X21433333Y-74895295D01*
X21433333Y-74895295D02*
X21480952Y-74800057D01*
X21480952Y-74800057D02*
X21528571Y-74752438D01*
X21528571Y-74752438D02*
X21623809Y-74704819D01*
X21623809Y-74704819D02*
X21861904Y-74704819D01*
X21861904Y-74704819D02*
X22004761Y-74752438D01*
X22433333Y-75181009D02*
X22766666Y-75181009D01*
X22909523Y-75704819D02*
X22433333Y-75704819D01*
X22433333Y-75704819D02*
X22433333Y-74704819D01*
X22433333Y-74704819D02*
X22909523Y-74704819D01*
X23195238Y-74704819D02*
X23766666Y-74704819D01*
X23480952Y-75704819D02*
X23480952Y-74704819D01*
X20242857Y-68081009D02*
X20385714Y-68128628D01*
X20385714Y-68128628D02*
X20433333Y-68176247D01*
X20433333Y-68176247D02*
X20480952Y-68271485D01*
X20480952Y-68271485D02*
X20480952Y-68414342D01*
X20480952Y-68414342D02*
X20433333Y-68509580D01*
X20433333Y-68509580D02*
X20385714Y-68557200D01*
X20385714Y-68557200D02*
X20290476Y-68604819D01*
X20290476Y-68604819D02*
X19909524Y-68604819D01*
X19909524Y-68604819D02*
X19909524Y-67604819D01*
X19909524Y-67604819D02*
X20242857Y-67604819D01*
X20242857Y-67604819D02*
X20338095Y-67652438D01*
X20338095Y-67652438D02*
X20385714Y-67700057D01*
X20385714Y-67700057D02*
X20433333Y-67795295D01*
X20433333Y-67795295D02*
X20433333Y-67890533D01*
X20433333Y-67890533D02*
X20385714Y-67985771D01*
X20385714Y-67985771D02*
X20338095Y-68033390D01*
X20338095Y-68033390D02*
X20242857Y-68081009D01*
X20242857Y-68081009D02*
X19909524Y-68081009D01*
X21100000Y-67604819D02*
X21290476Y-67604819D01*
X21290476Y-67604819D02*
X21385714Y-67652438D01*
X21385714Y-67652438D02*
X21480952Y-67747676D01*
X21480952Y-67747676D02*
X21528571Y-67938152D01*
X21528571Y-67938152D02*
X21528571Y-68271485D01*
X21528571Y-68271485D02*
X21480952Y-68461961D01*
X21480952Y-68461961D02*
X21385714Y-68557200D01*
X21385714Y-68557200D02*
X21290476Y-68604819D01*
X21290476Y-68604819D02*
X21100000Y-68604819D01*
X21100000Y-68604819D02*
X21004762Y-68557200D01*
X21004762Y-68557200D02*
X20909524Y-68461961D01*
X20909524Y-68461961D02*
X20861905Y-68271485D01*
X20861905Y-68271485D02*
X20861905Y-67938152D01*
X20861905Y-67938152D02*
X20909524Y-67747676D01*
X20909524Y-67747676D02*
X21004762Y-67652438D01*
X21004762Y-67652438D02*
X21100000Y-67604819D01*
X22147619Y-67604819D02*
X22338095Y-67604819D01*
X22338095Y-67604819D02*
X22433333Y-67652438D01*
X22433333Y-67652438D02*
X22528571Y-67747676D01*
X22528571Y-67747676D02*
X22576190Y-67938152D01*
X22576190Y-67938152D02*
X22576190Y-68271485D01*
X22576190Y-68271485D02*
X22528571Y-68461961D01*
X22528571Y-68461961D02*
X22433333Y-68557200D01*
X22433333Y-68557200D02*
X22338095Y-68604819D01*
X22338095Y-68604819D02*
X22147619Y-68604819D01*
X22147619Y-68604819D02*
X22052381Y-68557200D01*
X22052381Y-68557200D02*
X21957143Y-68461961D01*
X21957143Y-68461961D02*
X21909524Y-68271485D01*
X21909524Y-68271485D02*
X21909524Y-67938152D01*
X21909524Y-67938152D02*
X21957143Y-67747676D01*
X21957143Y-67747676D02*
X22052381Y-67652438D01*
X22052381Y-67652438D02*
X22147619Y-67604819D01*
X22861905Y-67604819D02*
X23433333Y-67604819D01*
X23147619Y-68604819D02*
X23147619Y-67604819D01*
D12*
%TO.C,LED1*%
X25785000Y-15650000D02*
X25785000Y-17950000D01*
X22885000Y-15650000D02*
X25785000Y-15650000D01*
X22885000Y-15650000D02*
X22585000Y-15950000D01*
X22585000Y-17950000D02*
X25785000Y-17950000D01*
X22585000Y-17950000D02*
X22585000Y-15950000D01*
%TO.C,C12*%
X15361252Y-45443000D02*
X14838748Y-45443000D01*
X15361252Y-43973000D02*
X14838748Y-43973000D01*
%TO.C,C17*%
X30135000Y-49541248D02*
X30135000Y-50063752D01*
X28665000Y-49541248D02*
X28665000Y-50063752D01*
%TO.C,U6*%
X14080000Y-30700000D02*
X13750000Y-30940000D01*
X13750000Y-30460000D01*
X14080000Y-30700000D01*
G36*
X14080000Y-30700000D02*
G01*
X13750000Y-30940000D01*
X13750000Y-30460000D01*
X14080000Y-30700000D01*
G37*
D10*
X24430000Y-30125000D02*
X24430000Y-22375000D01*
X24430000Y-30125000D02*
X24155000Y-30125000D01*
X24430000Y-22375000D02*
X24155000Y-22375000D01*
X13780000Y-30125000D02*
X14055000Y-30125000D01*
X13780000Y-30125000D02*
X13780000Y-22375000D01*
X13780000Y-22375000D02*
X14055000Y-22375000D01*
D12*
%TO.C,C20*%
X22935000Y-33961252D02*
X22935000Y-33438748D01*
X21465000Y-33961252D02*
X21465000Y-33438748D01*
%TO.C,R4*%
X53611252Y-25085000D02*
X53088748Y-25085000D01*
X53611252Y-23615000D02*
X53088748Y-23615000D01*
%TO.C,U4*%
X28100000Y-73850000D02*
X27764000Y-74090000D01*
X27764000Y-73610000D01*
X28100000Y-73850000D01*
G36*
X28100000Y-73850000D02*
G01*
X27764000Y-74090000D01*
X27764000Y-73610000D01*
X28100000Y-73850000D01*
G37*
X44100000Y-73350000D02*
X44100000Y-57150000D01*
X44100000Y-57150000D02*
X43700000Y-57150000D01*
X43700000Y-73350000D02*
X44100000Y-73350000D01*
X27900000Y-73350000D02*
X27900000Y-57150000D01*
X27900000Y-57150000D02*
X28300000Y-57150000D01*
%TO.C,IC1*%
X28010000Y-44735000D02*
X27360000Y-44735000D01*
X28010000Y-44085000D02*
X28010000Y-44735000D01*
X28010000Y-38165000D02*
X28010000Y-37515000D01*
X20790000Y-44735000D02*
X21440000Y-44735000D01*
X20790000Y-44085000D02*
X20790000Y-44735000D01*
X20790000Y-38165000D02*
X20790000Y-37515000D01*
X20790000Y-37515000D02*
X21440000Y-37515000D01*
%TO.C,J2*%
X41750000Y-82450000D02*
X41750000Y-81200000D01*
X41460000Y-82160000D02*
X41460000Y-76190000D01*
X41460000Y-76190000D02*
X31340000Y-76190000D01*
X41450000Y-82150000D02*
X41450000Y-81400000D01*
X41450000Y-81400000D02*
X39650000Y-81400000D01*
X41450000Y-79900000D02*
X40700000Y-79900000D01*
X40700000Y-79900000D02*
X40700000Y-78560000D01*
X40500000Y-82450000D02*
X41750000Y-82450000D01*
X39650000Y-82150000D02*
X41450000Y-82150000D01*
X39650000Y-81400000D02*
X39650000Y-82150000D01*
X38150000Y-82150000D02*
X38150000Y-81400000D01*
X38150000Y-81400000D02*
X34650000Y-81400000D01*
X36400000Y-76950000D02*
X39640000Y-76950000D01*
X34650000Y-82150000D02*
X38150000Y-82150000D01*
X34650000Y-81400000D02*
X34650000Y-82150000D01*
X33150000Y-82150000D02*
X33150000Y-81400000D01*
X33150000Y-81400000D02*
X31350000Y-81400000D01*
X32100000Y-79900000D02*
X32100000Y-76950000D01*
X32100000Y-76950000D02*
X36400000Y-76950000D01*
X31350000Y-82150000D02*
X33150000Y-82150000D01*
X31350000Y-81400000D02*
X31350000Y-82150000D01*
X31350000Y-79900000D02*
X32100000Y-79900000D01*
X31340000Y-82160000D02*
X41460000Y-82160000D01*
X31340000Y-76190000D02*
X31340000Y-82160000D01*
%TO.C,R17*%
X14930436Y-38805000D02*
X15384564Y-38805000D01*
X14930436Y-37335000D02*
X15384564Y-37335000D01*
D11*
%TO.C,VR1*%
X59415000Y-25700000D02*
G75*
G02*
X59215000Y-25700000I-100000J0D01*
G01*
X59215000Y-25700000D02*
G75*
G02*
X59415000Y-25700000I100000J0D01*
G01*
D13*
X60215000Y-29250000D02*
X60215000Y-29850000D01*
X60215000Y-26550000D02*
X60215000Y-27150000D01*
X55790000Y-29850000D02*
X55790000Y-26550000D01*
D12*
%TO.C,D1*%
X56871437Y-41080000D02*
G75*
G02*
X53640000Y-41235516I-1671437J1080000D01*
G01*
X56240961Y-41080000D02*
G75*
G02*
X54159039Y-41080000I-1040961J1080000D01*
G01*
X54159039Y-38920000D02*
G75*
G02*
X56240961Y-38920000I1040961J-1080000D01*
G01*
X53640000Y-38764484D02*
G75*
G02*
X56871437Y-38920000I1560000J-1235516D01*
G01*
X53640000Y-41080000D02*
X53640000Y-41236000D01*
X53640000Y-38764000D02*
X53640000Y-38920000D01*
%TO.C,C18*%
X32285000Y-49538748D02*
X32285000Y-50061252D01*
X30815000Y-49538748D02*
X30815000Y-50061252D01*
%TO.C,J6*%
X60370000Y-75490000D02*
X58990000Y-75490000D01*
X60370000Y-74110000D02*
X60370000Y-75490000D01*
X60370000Y-72840000D02*
X60370000Y-60030000D01*
X60370000Y-72840000D02*
X57720000Y-72840000D01*
X60370000Y-60030000D02*
X55070000Y-60030000D01*
X57720000Y-75490000D02*
X55070000Y-75490000D01*
X57720000Y-72840000D02*
X57720000Y-75490000D01*
X55070000Y-75490000D02*
X55070000Y-60030000D01*
%TO.C,RESET*%
X24060000Y-74360000D02*
X24060000Y-74110000D01*
X24060000Y-70890000D02*
X24060000Y-70640000D01*
X24060000Y-70640000D02*
X19140000Y-70640000D01*
X19140000Y-74360000D02*
X24060000Y-74360000D01*
X19140000Y-74360000D02*
X19140000Y-74110000D01*
X19140000Y-70890000D02*
X19140000Y-70640000D01*
%TO.C,J4*%
X44030000Y-16605000D02*
X44030000Y-18015000D01*
X43210000Y-20685000D02*
X43210000Y-20535000D01*
X42410000Y-20685000D02*
X43210000Y-20685000D01*
X34870000Y-16605000D02*
X34870000Y-18015000D01*
%TO.C,C19*%
X32138748Y-42335000D02*
X32661252Y-42335000D01*
X32138748Y-40865000D02*
X32661252Y-40865000D01*
%TO.C,J5*%
X50900000Y-80400000D02*
X50700000Y-80600000D01*
X50900000Y-79800000D02*
X51400000Y-79800000D01*
X50900000Y-79800000D02*
X50900000Y-80400000D01*
X50900000Y-78400000D02*
X51400000Y-78400000D01*
X50900000Y-77600000D02*
X50900000Y-78400000D01*
X50700000Y-77600000D02*
X50900000Y-77600000D01*
X48100000Y-80600000D02*
X47900000Y-80600000D01*
X47900000Y-80600000D02*
X47900000Y-79800000D01*
X47900000Y-78400000D02*
X47900000Y-77600000D01*
X47900000Y-77600000D02*
X48100000Y-77600000D01*
%TO.C,Q1*%
X53630000Y-32300000D02*
X53300000Y-32540000D01*
X53300000Y-32060000D01*
X53630000Y-32300000D01*
G36*
X53630000Y-32300000D02*
G01*
X53300000Y-32540000D01*
X53300000Y-32060000D01*
X53630000Y-32300000D01*
G37*
X54810000Y-34360000D02*
X53810000Y-34360000D01*
X54810000Y-32840000D02*
X54810000Y-34360000D01*
X54760000Y-32840000D02*
X54810000Y-32840000D01*
X52860000Y-32840000D02*
X53640000Y-32840000D01*
X52690000Y-34360000D02*
X51690000Y-34360000D01*
X51690000Y-34360000D02*
X51690000Y-32840000D01*
X51690000Y-32840000D02*
X51740000Y-32840000D01*
%TO.C,R22*%
X48635000Y-14922936D02*
X48635000Y-15377064D01*
X47165000Y-14922936D02*
X47165000Y-15377064D01*
%TO.C,R23*%
X38435000Y-23427064D02*
X38435000Y-22972936D01*
X36965000Y-23427064D02*
X36965000Y-22972936D01*
%TO.C,C14*%
X32535000Y-45661252D02*
X32535000Y-45138748D01*
X31065000Y-45661252D02*
X31065000Y-45138748D01*
%TO.C,U5*%
X44192500Y-47877500D02*
X43512500Y-47877500D01*
X43852500Y-47407500D01*
X44192500Y-47877500D01*
G36*
X44192500Y-47877500D02*
G01*
X43512500Y-47877500D01*
X43852500Y-47407500D01*
X44192500Y-47877500D01*
G37*
X43022500Y-47667500D02*
X37502500Y-47667500D01*
X43022500Y-47397500D02*
X43022500Y-47667500D01*
X43022500Y-42147500D02*
X43022500Y-42417500D01*
X37502500Y-47667500D02*
X37502500Y-47397500D01*
X37502500Y-42417500D02*
X37502500Y-42147500D01*
X37502500Y-42147500D02*
X43022500Y-42147500D01*
%TO.C,J3*%
X54380000Y-52410000D02*
X53000000Y-52410000D01*
X54380000Y-51030000D02*
X54380000Y-52410000D01*
X54380000Y-49760000D02*
X54380000Y-44570000D01*
X54380000Y-49760000D02*
X51620000Y-49760000D01*
X54380000Y-44570000D02*
X51620000Y-44570000D01*
X51620000Y-49760000D02*
X51620000Y-44570000D01*
%TO.C,C13*%
X32661252Y-40335000D02*
X32138748Y-40335000D01*
X32661252Y-38865000D02*
X32138748Y-38865000D01*
%TO.C,R3*%
X53088748Y-27635000D02*
X53611252Y-27635000D01*
X53088748Y-26165000D02*
X53611252Y-26165000D01*
%TO.C,C15*%
X29260000Y-34711252D02*
X29260000Y-34188748D01*
X27790000Y-34711252D02*
X27790000Y-34188748D01*
%TO.C,J1*%
X60810000Y-58810000D02*
X60810000Y-56310000D01*
X60510000Y-58510000D02*
X60510000Y-43290000D01*
X60510000Y-43290000D02*
X56490000Y-43290000D01*
X59010000Y-58510000D02*
X59010000Y-57510000D01*
X59010000Y-57510000D02*
X60510000Y-57510000D01*
X59010000Y-44290000D02*
X60510000Y-44290000D01*
X59010000Y-43290000D02*
X59010000Y-44290000D01*
X58310000Y-58810000D02*
X60810000Y-58810000D01*
X58200000Y-58510000D02*
X58200000Y-58010000D01*
X58200000Y-58010000D02*
X56990000Y-58010000D01*
X58200000Y-43790000D02*
X58200000Y-43290000D01*
X56990000Y-58010000D02*
X56990000Y-43790000D01*
X56990000Y-43790000D02*
X58200000Y-43790000D01*
X56490000Y-58510000D02*
X60510000Y-58510000D01*
X56490000Y-43290000D02*
X56490000Y-58510000D01*
%TO.C,R1*%
X53577064Y-30335000D02*
X53122936Y-30335000D01*
X53577064Y-28865000D02*
X53122936Y-28865000D01*
%TO.C,BOOT*%
X24060000Y-67260000D02*
X24060000Y-67010000D01*
X24060000Y-63790000D02*
X24060000Y-63540000D01*
X24060000Y-63540000D02*
X19140000Y-63540000D01*
X19140000Y-67260000D02*
X24060000Y-67260000D01*
X19140000Y-67260000D02*
X19140000Y-67010000D01*
X19140000Y-63790000D02*
X19140000Y-63540000D01*
%TO.C,C16*%
X15361252Y-40951000D02*
X14838748Y-40951000D01*
X15361252Y-39481000D02*
X14838748Y-39481000D01*
%TO.C,R25*%
X47172936Y-41935000D02*
X47627064Y-41935000D01*
X47172936Y-40465000D02*
X47627064Y-40465000D01*
%TO.C,R21*%
X31735000Y-14922936D02*
X31735000Y-15377064D01*
X30265000Y-14922936D02*
X30265000Y-15377064D01*
%TO.C,R2*%
X57772936Y-32335000D02*
X58227064Y-32335000D01*
X57772936Y-30865000D02*
X58227064Y-30865000D01*
%TO.C,SW1*%
X40635000Y-30960000D02*
X40635000Y-31210000D01*
X40635000Y-27490000D02*
X40635000Y-27740000D01*
X40635000Y-27490000D02*
X35715000Y-27490000D01*
X35715000Y-31210000D02*
X40635000Y-31210000D01*
X35715000Y-30960000D02*
X35715000Y-31210000D01*
X35715000Y-27490000D02*
X35715000Y-27740000D01*
%TO.C,R19*%
X45985000Y-74922936D02*
X45985000Y-75377064D01*
X44515000Y-74922936D02*
X44515000Y-75377064D01*
%TO.C,R18*%
X47172936Y-45935000D02*
X47627064Y-45935000D01*
X47172936Y-44465000D02*
X47627064Y-44465000D01*
%TO.C,R20*%
X15307064Y-49845000D02*
X14852936Y-49845000D01*
X15307064Y-48375000D02*
X14852936Y-48375000D01*
%TO.C,R8*%
X17570000Y-59930000D02*
X12830000Y-59930000D01*
X12830000Y-72070000D01*
X17570000Y-72070000D01*
X17570000Y-59930000D01*
X15200000Y-72180000D02*
X15200000Y-72070000D01*
X15200000Y-59820000D02*
X15200000Y-59930000D01*
%TO.C,Q2*%
X54750000Y-21830000D02*
X54510000Y-21500000D01*
X54990000Y-21500000D01*
X54750000Y-21830000D01*
G36*
X54750000Y-21830000D02*
G01*
X54510000Y-21500000D01*
X54990000Y-21500000D01*
X54750000Y-21830000D01*
G37*
X54210000Y-23010000D02*
X52690000Y-23010000D01*
X54210000Y-22960000D02*
X54210000Y-23010000D01*
X54210000Y-21060000D02*
X54210000Y-21840000D01*
X54210000Y-19890000D02*
X54210000Y-19940000D01*
X52690000Y-23010000D02*
X52690000Y-22010000D01*
X52690000Y-20890000D02*
X52690000Y-19890000D01*
X52690000Y-19890000D02*
X54210000Y-19890000D01*
%TO.C,C22*%
X24335000Y-50938748D02*
X24335000Y-51461252D01*
X22865000Y-50938748D02*
X22865000Y-51461252D01*
%TO.C,C9*%
X14838748Y-43197000D02*
X15361252Y-43197000D01*
X14838748Y-41727000D02*
X15361252Y-41727000D01*
%TO.C,C21*%
X30535000Y-45138748D02*
X30535000Y-45661252D01*
X29065000Y-45138748D02*
X29065000Y-45661252D01*
%TO.C,R16*%
X14852936Y-47659000D02*
X15307064Y-47659000D01*
X14852936Y-46189000D02*
X15307064Y-46189000D01*
%TO.C,R24*%
X41235000Y-23427064D02*
X41235000Y-22972936D01*
X39765000Y-23427064D02*
X39765000Y-22972936D01*
%TO.C,D2*%
X30890000Y-34225000D02*
X34900000Y-34225000D01*
X30890000Y-32225000D02*
X34900000Y-32225000D01*
X30890000Y-32225000D02*
X30890000Y-34225000D01*
%TD*%
%LPC*%
D14*
%TO.C,VR1*%
X56633000Y-26351000D02*
X56635000Y-26351000D01*
X56638000Y-26352000D01*
X56640000Y-26352000D01*
X56643000Y-26353000D01*
X56645000Y-26354000D01*
X56648000Y-26355000D01*
X56650000Y-26357000D01*
X56652000Y-26358000D01*
X56654000Y-26360000D01*
X56656000Y-26361000D01*
X56658000Y-26363000D01*
X56660000Y-26365000D01*
X56662000Y-26367000D01*
X56664000Y-26369000D01*
X56665000Y-26371000D01*
X56667000Y-26373000D01*
X56668000Y-26375000D01*
X56670000Y-26377000D01*
X56671000Y-26380000D01*
X56672000Y-26382000D01*
X56673000Y-26385000D01*
X56673000Y-26387000D01*
X56674000Y-26390000D01*
X56674000Y-26392000D01*
X56675000Y-26395000D01*
X56675000Y-26397000D01*
X56675000Y-26400000D01*
X56675000Y-26700000D01*
X56675000Y-26703000D01*
X56675000Y-26705000D01*
X56676000Y-26708000D01*
X56676000Y-26710000D01*
X56677000Y-26713000D01*
X56677000Y-26715000D01*
X56678000Y-26718000D01*
X56679000Y-26720000D01*
X56680000Y-26723000D01*
X56682000Y-26725000D01*
X56683000Y-26727000D01*
X56685000Y-26729000D01*
X56686000Y-26731000D01*
X56688000Y-26733000D01*
X56690000Y-26735000D01*
X56692000Y-26737000D01*
X56694000Y-26739000D01*
X56696000Y-26740000D01*
X56698000Y-26742000D01*
X56700000Y-26743000D01*
X56702000Y-26745000D01*
X56705000Y-26746000D01*
X56707000Y-26747000D01*
X56710000Y-26748000D01*
X56712000Y-26748000D01*
X56715000Y-26749000D01*
X56717000Y-26749000D01*
X56720000Y-26750000D01*
X56722000Y-26750000D01*
X56725000Y-26750000D01*
X56875000Y-26750000D01*
X56878000Y-26750000D01*
X56880000Y-26750000D01*
X56883000Y-26749000D01*
X56885000Y-26749000D01*
X56888000Y-26748000D01*
X56890000Y-26748000D01*
X56893000Y-26747000D01*
X56895000Y-26746000D01*
X56898000Y-26745000D01*
X56900000Y-26743000D01*
X56902000Y-26742000D01*
X56904000Y-26740000D01*
X56906000Y-26739000D01*
X56908000Y-26737000D01*
X56910000Y-26735000D01*
X56912000Y-26733000D01*
X56914000Y-26731000D01*
X56915000Y-26729000D01*
X56917000Y-26727000D01*
X56918000Y-26725000D01*
X56920000Y-26723000D01*
X56921000Y-26720000D01*
X56922000Y-26718000D01*
X56923000Y-26715000D01*
X56923000Y-26713000D01*
X56924000Y-26710000D01*
X56924000Y-26708000D01*
X56925000Y-26705000D01*
X56925000Y-26703000D01*
X56925000Y-26700000D01*
X56925000Y-26400000D01*
X56925000Y-26397000D01*
X56925000Y-26395000D01*
X56926000Y-26392000D01*
X56926000Y-26390000D01*
X56927000Y-26387000D01*
X56927000Y-26385000D01*
X56928000Y-26382000D01*
X56929000Y-26380000D01*
X56930000Y-26377000D01*
X56932000Y-26375000D01*
X56933000Y-26373000D01*
X56935000Y-26371000D01*
X56936000Y-26369000D01*
X56938000Y-26367000D01*
X56940000Y-26365000D01*
X56942000Y-26363000D01*
X56944000Y-26361000D01*
X56946000Y-26360000D01*
X56948000Y-26358000D01*
X56950000Y-26357000D01*
X56952000Y-26355000D01*
X56955000Y-26354000D01*
X56957000Y-26353000D01*
X56960000Y-26352000D01*
X56962000Y-26352000D01*
X56965000Y-26351000D01*
X56967000Y-26351000D01*
X56970000Y-26350000D01*
X56972000Y-26350000D01*
X56975000Y-26350000D01*
X57125000Y-26350000D01*
X57128000Y-26350000D01*
X57130000Y-26350000D01*
X57133000Y-26351000D01*
X57135000Y-26351000D01*
X57138000Y-26352000D01*
X57140000Y-26352000D01*
X57143000Y-26353000D01*
X57145000Y-26354000D01*
X57148000Y-26355000D01*
X57150000Y-26357000D01*
X57152000Y-26358000D01*
X57154000Y-26360000D01*
X57156000Y-26361000D01*
X57158000Y-26363000D01*
X57160000Y-26365000D01*
X57162000Y-26367000D01*
X57164000Y-26369000D01*
X57165000Y-26371000D01*
X57167000Y-26373000D01*
X57168000Y-26375000D01*
X57170000Y-26377000D01*
X57171000Y-26380000D01*
X57172000Y-26382000D01*
X57173000Y-26385000D01*
X57173000Y-26387000D01*
X57174000Y-26390000D01*
X57174000Y-26392000D01*
X57175000Y-26395000D01*
X57175000Y-26397000D01*
X57175000Y-26400000D01*
X57175000Y-26700000D01*
X57175000Y-26703000D01*
X57175000Y-26705000D01*
X57176000Y-26708000D01*
X57176000Y-26710000D01*
X57177000Y-26713000D01*
X57177000Y-26715000D01*
X57178000Y-26718000D01*
X57179000Y-26720000D01*
X57180000Y-26723000D01*
X57182000Y-26725000D01*
X57183000Y-26727000D01*
X57185000Y-26729000D01*
X57186000Y-26731000D01*
X57188000Y-26733000D01*
X57190000Y-26735000D01*
X57192000Y-26737000D01*
X57194000Y-26739000D01*
X57196000Y-26740000D01*
X57198000Y-26742000D01*
X57200000Y-26743000D01*
X57202000Y-26745000D01*
X57205000Y-26746000D01*
X57207000Y-26747000D01*
X57210000Y-26748000D01*
X57212000Y-26748000D01*
X57215000Y-26749000D01*
X57217000Y-26749000D01*
X57220000Y-26750000D01*
X57222000Y-26750000D01*
X57225000Y-26750000D01*
X57375000Y-26750000D01*
X57378000Y-26750000D01*
X57380000Y-26750000D01*
X57383000Y-26749000D01*
X57385000Y-26749000D01*
X57388000Y-26748000D01*
X57390000Y-26748000D01*
X57393000Y-26747000D01*
X57395000Y-26746000D01*
X57398000Y-26745000D01*
X57400000Y-26743000D01*
X57402000Y-26742000D01*
X57404000Y-26740000D01*
X57406000Y-26739000D01*
X57408000Y-26737000D01*
X57410000Y-26735000D01*
X57412000Y-26733000D01*
X57414000Y-26731000D01*
X57415000Y-26729000D01*
X57417000Y-26727000D01*
X57418000Y-26725000D01*
X57420000Y-26723000D01*
X57421000Y-26720000D01*
X57422000Y-26718000D01*
X57423000Y-26715000D01*
X57423000Y-26713000D01*
X57424000Y-26710000D01*
X57424000Y-26708000D01*
X57425000Y-26705000D01*
X57425000Y-26703000D01*
X57425000Y-26700000D01*
X57425000Y-26400000D01*
X57425000Y-26397000D01*
X57425000Y-26395000D01*
X57426000Y-26392000D01*
X57426000Y-26390000D01*
X57427000Y-26387000D01*
X57427000Y-26385000D01*
X57428000Y-26382000D01*
X57429000Y-26380000D01*
X57430000Y-26377000D01*
X57432000Y-26375000D01*
X57433000Y-26373000D01*
X57435000Y-26371000D01*
X57436000Y-26369000D01*
X57438000Y-26367000D01*
X57440000Y-26365000D01*
X57442000Y-26363000D01*
X57444000Y-26361000D01*
X57446000Y-26360000D01*
X57448000Y-26358000D01*
X57450000Y-26357000D01*
X57452000Y-26355000D01*
X57455000Y-26354000D01*
X57457000Y-26353000D01*
X57460000Y-26352000D01*
X57462000Y-26352000D01*
X57465000Y-26351000D01*
X57467000Y-26351000D01*
X57470000Y-26350000D01*
X57472000Y-26350000D01*
X57475000Y-26350000D01*
X57625000Y-26350000D01*
X57628000Y-26350000D01*
X57630000Y-26350000D01*
X57633000Y-26351000D01*
X57635000Y-26351000D01*
X57638000Y-26352000D01*
X57640000Y-26352000D01*
X57643000Y-26353000D01*
X57645000Y-26354000D01*
X57648000Y-26355000D01*
X57650000Y-26357000D01*
X57652000Y-26358000D01*
X57654000Y-26360000D01*
X57656000Y-26361000D01*
X57658000Y-26363000D01*
X57660000Y-26365000D01*
X57662000Y-26367000D01*
X57664000Y-26369000D01*
X57665000Y-26371000D01*
X57667000Y-26373000D01*
X57668000Y-26375000D01*
X57670000Y-26377000D01*
X57671000Y-26380000D01*
X57672000Y-26382000D01*
X57673000Y-26385000D01*
X57673000Y-26387000D01*
X57674000Y-26390000D01*
X57674000Y-26392000D01*
X57675000Y-26395000D01*
X57675000Y-26397000D01*
X57675000Y-26400000D01*
X57675000Y-26700000D01*
X57675000Y-26703000D01*
X57675000Y-26705000D01*
X57676000Y-26708000D01*
X57676000Y-26710000D01*
X57677000Y-26713000D01*
X57677000Y-26715000D01*
X57678000Y-26718000D01*
X57679000Y-26720000D01*
X57680000Y-26723000D01*
X57682000Y-26725000D01*
X57683000Y-26727000D01*
X57685000Y-26729000D01*
X57686000Y-26731000D01*
X57688000Y-26733000D01*
X57690000Y-26735000D01*
X57692000Y-26737000D01*
X57694000Y-26739000D01*
X57696000Y-26740000D01*
X57698000Y-26742000D01*
X57700000Y-26743000D01*
X57702000Y-26745000D01*
X57705000Y-26746000D01*
X57707000Y-26747000D01*
X57710000Y-26748000D01*
X57712000Y-26748000D01*
X57715000Y-26749000D01*
X57717000Y-26749000D01*
X57720000Y-26750000D01*
X57722000Y-26750000D01*
X57725000Y-26750000D01*
X57875000Y-26750000D01*
X57878000Y-26750000D01*
X57880000Y-26750000D01*
X57883000Y-26749000D01*
X57885000Y-26749000D01*
X57888000Y-26748000D01*
X57890000Y-26748000D01*
X57893000Y-26747000D01*
X57895000Y-26746000D01*
X57898000Y-26745000D01*
X57900000Y-26743000D01*
X57902000Y-26742000D01*
X57904000Y-26740000D01*
X57906000Y-26739000D01*
X57908000Y-26737000D01*
X57910000Y-26735000D01*
X57912000Y-26733000D01*
X57914000Y-26731000D01*
X57915000Y-26729000D01*
X57917000Y-26727000D01*
X57918000Y-26725000D01*
X57920000Y-26723000D01*
X57921000Y-26720000D01*
X57922000Y-26718000D01*
X57923000Y-26715000D01*
X57923000Y-26713000D01*
X57924000Y-26710000D01*
X57924000Y-26708000D01*
X57925000Y-26705000D01*
X57925000Y-26703000D01*
X57925000Y-26700000D01*
X57925000Y-26400000D01*
X57925000Y-26397000D01*
X57925000Y-26395000D01*
X57926000Y-26392000D01*
X57926000Y-26390000D01*
X57927000Y-26387000D01*
X57927000Y-26385000D01*
X57928000Y-26382000D01*
X57929000Y-26380000D01*
X57930000Y-26377000D01*
X57932000Y-26375000D01*
X57933000Y-26373000D01*
X57935000Y-26371000D01*
X57936000Y-26369000D01*
X57938000Y-26367000D01*
X57940000Y-26365000D01*
X57942000Y-26363000D01*
X57944000Y-26361000D01*
X57946000Y-26360000D01*
X57948000Y-26358000D01*
X57950000Y-26357000D01*
X57952000Y-26355000D01*
X57955000Y-26354000D01*
X57957000Y-26353000D01*
X57960000Y-26352000D01*
X57962000Y-26352000D01*
X57965000Y-26351000D01*
X57967000Y-26351000D01*
X57970000Y-26350000D01*
X57972000Y-26350000D01*
X57975000Y-26350000D01*
X58125000Y-26350000D01*
X58128000Y-26350000D01*
X58130000Y-26350000D01*
X58133000Y-26351000D01*
X58135000Y-26351000D01*
X58138000Y-26352000D01*
X58140000Y-26352000D01*
X58143000Y-26353000D01*
X58145000Y-26354000D01*
X58148000Y-26355000D01*
X58150000Y-26357000D01*
X58152000Y-26358000D01*
X58154000Y-26360000D01*
X58156000Y-26361000D01*
X58158000Y-26363000D01*
X58160000Y-26365000D01*
X58162000Y-26367000D01*
X58164000Y-26369000D01*
X58165000Y-26371000D01*
X58167000Y-26373000D01*
X58168000Y-26375000D01*
X58170000Y-26377000D01*
X58171000Y-26380000D01*
X58172000Y-26382000D01*
X58173000Y-26385000D01*
X58173000Y-26387000D01*
X58174000Y-26390000D01*
X58174000Y-26392000D01*
X58175000Y-26395000D01*
X58175000Y-26397000D01*
X58175000Y-26400000D01*
X58175000Y-26700000D01*
X58175000Y-26703000D01*
X58175000Y-26705000D01*
X58176000Y-26708000D01*
X58176000Y-26710000D01*
X58177000Y-26713000D01*
X58177000Y-26715000D01*
X58178000Y-26718000D01*
X58179000Y-26720000D01*
X58180000Y-26723000D01*
X58182000Y-26725000D01*
X58183000Y-26727000D01*
X58185000Y-26729000D01*
X58186000Y-26731000D01*
X58188000Y-26733000D01*
X58190000Y-26735000D01*
X58192000Y-26737000D01*
X58194000Y-26739000D01*
X58196000Y-26740000D01*
X58198000Y-26742000D01*
X58200000Y-26743000D01*
X58202000Y-26745000D01*
X58205000Y-26746000D01*
X58207000Y-26747000D01*
X58210000Y-26748000D01*
X58212000Y-26748000D01*
X58215000Y-26749000D01*
X58217000Y-26749000D01*
X58220000Y-26750000D01*
X58222000Y-26750000D01*
X58225000Y-26750000D01*
X58340000Y-26750000D01*
X58343000Y-26750000D01*
X58345000Y-26750000D01*
X58348000Y-26751000D01*
X58350000Y-26751000D01*
X58353000Y-26752000D01*
X58355000Y-26752000D01*
X58358000Y-26753000D01*
X58360000Y-26754000D01*
X58363000Y-26755000D01*
X58365000Y-26757000D01*
X58367000Y-26758000D01*
X58369000Y-26760000D01*
X58371000Y-26761000D01*
X58373000Y-26763000D01*
X58375000Y-26765000D01*
X58377000Y-26767000D01*
X58379000Y-26769000D01*
X58380000Y-26771000D01*
X58382000Y-26773000D01*
X58383000Y-26775000D01*
X58385000Y-26777000D01*
X58386000Y-26780000D01*
X58387000Y-26782000D01*
X58388000Y-26785000D01*
X58388000Y-26787000D01*
X58389000Y-26790000D01*
X58389000Y-26792000D01*
X58390000Y-26795000D01*
X58390000Y-26797000D01*
X58390000Y-26800000D01*
X58390000Y-27700000D01*
X58390000Y-27703000D01*
X58390000Y-27705000D01*
X58389000Y-27708000D01*
X58389000Y-27710000D01*
X58388000Y-27713000D01*
X58388000Y-27715000D01*
X58387000Y-27718000D01*
X58386000Y-27720000D01*
X58385000Y-27723000D01*
X58383000Y-27725000D01*
X58382000Y-27727000D01*
X58380000Y-27729000D01*
X58379000Y-27731000D01*
X58377000Y-27733000D01*
X58375000Y-27735000D01*
X58373000Y-27737000D01*
X58371000Y-27739000D01*
X58369000Y-27740000D01*
X58367000Y-27742000D01*
X58365000Y-27743000D01*
X58363000Y-27745000D01*
X58360000Y-27746000D01*
X58358000Y-27747000D01*
X58355000Y-27748000D01*
X58353000Y-27748000D01*
X58350000Y-27749000D01*
X58348000Y-27749000D01*
X58345000Y-27750000D01*
X58343000Y-27750000D01*
X58340000Y-27750000D01*
X56240000Y-27750000D01*
X56237000Y-27750000D01*
X56235000Y-27750000D01*
X56232000Y-27749000D01*
X56230000Y-27749000D01*
X56227000Y-27748000D01*
X56225000Y-27748000D01*
X56222000Y-27747000D01*
X56220000Y-27746000D01*
X56217000Y-27745000D01*
X56215000Y-27743000D01*
X56213000Y-27742000D01*
X56211000Y-27740000D01*
X56209000Y-27739000D01*
X56207000Y-27737000D01*
X56205000Y-27735000D01*
X56203000Y-27733000D01*
X56201000Y-27731000D01*
X56200000Y-27729000D01*
X56198000Y-27727000D01*
X56197000Y-27725000D01*
X56195000Y-27723000D01*
X56194000Y-27720000D01*
X56193000Y-27718000D01*
X56192000Y-27715000D01*
X56192000Y-27713000D01*
X56191000Y-27710000D01*
X56191000Y-27708000D01*
X56190000Y-27705000D01*
X56190000Y-27703000D01*
X56190000Y-27700000D01*
X56190000Y-26800000D01*
X56190000Y-26797000D01*
X56190000Y-26795000D01*
X56191000Y-26792000D01*
X56191000Y-26790000D01*
X56192000Y-26787000D01*
X56192000Y-26785000D01*
X56193000Y-26782000D01*
X56194000Y-26780000D01*
X56195000Y-26777000D01*
X56197000Y-26775000D01*
X56198000Y-26773000D01*
X56200000Y-26771000D01*
X56201000Y-26769000D01*
X56203000Y-26767000D01*
X56205000Y-26765000D01*
X56207000Y-26763000D01*
X56209000Y-26761000D01*
X56211000Y-26760000D01*
X56213000Y-26758000D01*
X56215000Y-26757000D01*
X56217000Y-26755000D01*
X56220000Y-26754000D01*
X56222000Y-26753000D01*
X56225000Y-26752000D01*
X56227000Y-26752000D01*
X56230000Y-26751000D01*
X56232000Y-26751000D01*
X56235000Y-26750000D01*
X56237000Y-26750000D01*
X56240000Y-26750000D01*
X56375000Y-26750000D01*
X56378000Y-26750000D01*
X56380000Y-26750000D01*
X56383000Y-26749000D01*
X56385000Y-26749000D01*
X56388000Y-26748000D01*
X56390000Y-26748000D01*
X56393000Y-26747000D01*
X56395000Y-26746000D01*
X56398000Y-26745000D01*
X56400000Y-26743000D01*
X56402000Y-26742000D01*
X56404000Y-26740000D01*
X56406000Y-26739000D01*
X56408000Y-26737000D01*
X56410000Y-26735000D01*
X56412000Y-26733000D01*
X56414000Y-26731000D01*
X56415000Y-26729000D01*
X56417000Y-26727000D01*
X56418000Y-26725000D01*
X56420000Y-26723000D01*
X56421000Y-26720000D01*
X56422000Y-26718000D01*
X56423000Y-26715000D01*
X56423000Y-26713000D01*
X56424000Y-26710000D01*
X56424000Y-26708000D01*
X56425000Y-26705000D01*
X56425000Y-26703000D01*
X56425000Y-26700000D01*
X56425000Y-26400000D01*
X56425000Y-26397000D01*
X56425000Y-26395000D01*
X56426000Y-26392000D01*
X56426000Y-26390000D01*
X56427000Y-26387000D01*
X56427000Y-26385000D01*
X56428000Y-26382000D01*
X56429000Y-26380000D01*
X56430000Y-26377000D01*
X56432000Y-26375000D01*
X56433000Y-26373000D01*
X56435000Y-26371000D01*
X56436000Y-26369000D01*
X56438000Y-26367000D01*
X56440000Y-26365000D01*
X56442000Y-26363000D01*
X56444000Y-26361000D01*
X56446000Y-26360000D01*
X56448000Y-26358000D01*
X56450000Y-26357000D01*
X56452000Y-26355000D01*
X56455000Y-26354000D01*
X56457000Y-26353000D01*
X56460000Y-26352000D01*
X56462000Y-26352000D01*
X56465000Y-26351000D01*
X56467000Y-26351000D01*
X56470000Y-26350000D01*
X56472000Y-26350000D01*
X56475000Y-26350000D01*
X56625000Y-26350000D01*
X56628000Y-26350000D01*
X56630000Y-26350000D01*
X56633000Y-26351000D01*
G36*
X56633000Y-26351000D02*
G01*
X56635000Y-26351000D01*
X56638000Y-26352000D01*
X56640000Y-26352000D01*
X56643000Y-26353000D01*
X56645000Y-26354000D01*
X56648000Y-26355000D01*
X56650000Y-26357000D01*
X56652000Y-26358000D01*
X56654000Y-26360000D01*
X56656000Y-26361000D01*
X56658000Y-26363000D01*
X56660000Y-26365000D01*
X56662000Y-26367000D01*
X56664000Y-26369000D01*
X56665000Y-26371000D01*
X56667000Y-26373000D01*
X56668000Y-26375000D01*
X56670000Y-26377000D01*
X56671000Y-26380000D01*
X56672000Y-26382000D01*
X56673000Y-26385000D01*
X56673000Y-26387000D01*
X56674000Y-26390000D01*
X56674000Y-26392000D01*
X56675000Y-26395000D01*
X56675000Y-26397000D01*
X56675000Y-26400000D01*
X56675000Y-26700000D01*
X56675000Y-26703000D01*
X56675000Y-26705000D01*
X56676000Y-26708000D01*
X56676000Y-26710000D01*
X56677000Y-26713000D01*
X56677000Y-26715000D01*
X56678000Y-26718000D01*
X56679000Y-26720000D01*
X56680000Y-26723000D01*
X56682000Y-26725000D01*
X56683000Y-26727000D01*
X56685000Y-26729000D01*
X56686000Y-26731000D01*
X56688000Y-26733000D01*
X56690000Y-26735000D01*
X56692000Y-26737000D01*
X56694000Y-26739000D01*
X56696000Y-26740000D01*
X56698000Y-26742000D01*
X56700000Y-26743000D01*
X56702000Y-26745000D01*
X56705000Y-26746000D01*
X56707000Y-26747000D01*
X56710000Y-26748000D01*
X56712000Y-26748000D01*
X56715000Y-26749000D01*
X56717000Y-26749000D01*
X56720000Y-26750000D01*
X56722000Y-26750000D01*
X56725000Y-26750000D01*
X56875000Y-26750000D01*
X56878000Y-26750000D01*
X56880000Y-26750000D01*
X56883000Y-26749000D01*
X56885000Y-26749000D01*
X56888000Y-26748000D01*
X56890000Y-26748000D01*
X56893000Y-26747000D01*
X56895000Y-26746000D01*
X56898000Y-26745000D01*
X56900000Y-26743000D01*
X56902000Y-26742000D01*
X56904000Y-26740000D01*
X56906000Y-26739000D01*
X56908000Y-26737000D01*
X56910000Y-26735000D01*
X56912000Y-26733000D01*
X56914000Y-26731000D01*
X56915000Y-26729000D01*
X56917000Y-26727000D01*
X56918000Y-26725000D01*
X56920000Y-26723000D01*
X56921000Y-26720000D01*
X56922000Y-26718000D01*
X56923000Y-26715000D01*
X56923000Y-26713000D01*
X56924000Y-26710000D01*
X56924000Y-26708000D01*
X56925000Y-26705000D01*
X56925000Y-26703000D01*
X56925000Y-26700000D01*
X56925000Y-26400000D01*
X56925000Y-26397000D01*
X56925000Y-26395000D01*
X56926000Y-26392000D01*
X56926000Y-26390000D01*
X56927000Y-26387000D01*
X56927000Y-26385000D01*
X56928000Y-26382000D01*
X56929000Y-26380000D01*
X56930000Y-26377000D01*
X56932000Y-26375000D01*
X56933000Y-26373000D01*
X56935000Y-26371000D01*
X56936000Y-26369000D01*
X56938000Y-26367000D01*
X56940000Y-26365000D01*
X56942000Y-26363000D01*
X56944000Y-26361000D01*
X56946000Y-26360000D01*
X56948000Y-26358000D01*
X56950000Y-26357000D01*
X56952000Y-26355000D01*
X56955000Y-26354000D01*
X56957000Y-26353000D01*
X56960000Y-26352000D01*
X56962000Y-26352000D01*
X56965000Y-26351000D01*
X56967000Y-26351000D01*
X56970000Y-26350000D01*
X56972000Y-26350000D01*
X56975000Y-26350000D01*
X57125000Y-26350000D01*
X57128000Y-26350000D01*
X57130000Y-26350000D01*
X57133000Y-26351000D01*
X57135000Y-26351000D01*
X57138000Y-26352000D01*
X57140000Y-26352000D01*
X57143000Y-26353000D01*
X57145000Y-26354000D01*
X57148000Y-26355000D01*
X57150000Y-26357000D01*
X57152000Y-26358000D01*
X57154000Y-26360000D01*
X57156000Y-26361000D01*
X57158000Y-26363000D01*
X57160000Y-26365000D01*
X57162000Y-26367000D01*
X57164000Y-26369000D01*
X57165000Y-26371000D01*
X57167000Y-26373000D01*
X57168000Y-26375000D01*
X57170000Y-26377000D01*
X57171000Y-26380000D01*
X57172000Y-26382000D01*
X57173000Y-26385000D01*
X57173000Y-26387000D01*
X57174000Y-26390000D01*
X57174000Y-26392000D01*
X57175000Y-26395000D01*
X57175000Y-26397000D01*
X57175000Y-26400000D01*
X57175000Y-26700000D01*
X57175000Y-26703000D01*
X57175000Y-26705000D01*
X57176000Y-26708000D01*
X57176000Y-26710000D01*
X57177000Y-26713000D01*
X57177000Y-26715000D01*
X57178000Y-26718000D01*
X57179000Y-26720000D01*
X57180000Y-26723000D01*
X57182000Y-26725000D01*
X57183000Y-26727000D01*
X57185000Y-26729000D01*
X57186000Y-26731000D01*
X57188000Y-26733000D01*
X57190000Y-26735000D01*
X57192000Y-26737000D01*
X57194000Y-26739000D01*
X57196000Y-26740000D01*
X57198000Y-26742000D01*
X57200000Y-26743000D01*
X57202000Y-26745000D01*
X57205000Y-26746000D01*
X57207000Y-26747000D01*
X57210000Y-26748000D01*
X57212000Y-26748000D01*
X57215000Y-26749000D01*
X57217000Y-26749000D01*
X57220000Y-26750000D01*
X57222000Y-26750000D01*
X57225000Y-26750000D01*
X57375000Y-26750000D01*
X57378000Y-26750000D01*
X57380000Y-26750000D01*
X57383000Y-26749000D01*
X57385000Y-26749000D01*
X57388000Y-26748000D01*
X57390000Y-26748000D01*
X57393000Y-26747000D01*
X57395000Y-26746000D01*
X57398000Y-26745000D01*
X57400000Y-26743000D01*
X57402000Y-26742000D01*
X57404000Y-26740000D01*
X57406000Y-26739000D01*
X57408000Y-26737000D01*
X57410000Y-26735000D01*
X57412000Y-26733000D01*
X57414000Y-26731000D01*
X57415000Y-26729000D01*
X57417000Y-26727000D01*
X57418000Y-26725000D01*
X57420000Y-26723000D01*
X57421000Y-26720000D01*
X57422000Y-26718000D01*
X57423000Y-26715000D01*
X57423000Y-26713000D01*
X57424000Y-26710000D01*
X57424000Y-26708000D01*
X57425000Y-26705000D01*
X57425000Y-26703000D01*
X57425000Y-26700000D01*
X57425000Y-26400000D01*
X57425000Y-26397000D01*
X57425000Y-26395000D01*
X57426000Y-26392000D01*
X57426000Y-26390000D01*
X57427000Y-26387000D01*
X57427000Y-26385000D01*
X57428000Y-26382000D01*
X57429000Y-26380000D01*
X57430000Y-26377000D01*
X57432000Y-26375000D01*
X57433000Y-26373000D01*
X57435000Y-26371000D01*
X57436000Y-26369000D01*
X57438000Y-26367000D01*
X57440000Y-26365000D01*
X57442000Y-26363000D01*
X57444000Y-26361000D01*
X57446000Y-26360000D01*
X57448000Y-26358000D01*
X57450000Y-26357000D01*
X57452000Y-26355000D01*
X57455000Y-26354000D01*
X57457000Y-26353000D01*
X57460000Y-26352000D01*
X57462000Y-26352000D01*
X57465000Y-26351000D01*
X57467000Y-26351000D01*
X57470000Y-26350000D01*
X57472000Y-26350000D01*
X57475000Y-26350000D01*
X57625000Y-26350000D01*
X57628000Y-26350000D01*
X57630000Y-26350000D01*
X57633000Y-26351000D01*
X57635000Y-26351000D01*
X57638000Y-26352000D01*
X57640000Y-26352000D01*
X57643000Y-26353000D01*
X57645000Y-26354000D01*
X57648000Y-26355000D01*
X57650000Y-26357000D01*
X57652000Y-26358000D01*
X57654000Y-26360000D01*
X57656000Y-26361000D01*
X57658000Y-26363000D01*
X57660000Y-26365000D01*
X57662000Y-26367000D01*
X57664000Y-26369000D01*
X57665000Y-26371000D01*
X57667000Y-26373000D01*
X57668000Y-26375000D01*
X57670000Y-26377000D01*
X57671000Y-26380000D01*
X57672000Y-26382000D01*
X57673000Y-26385000D01*
X57673000Y-26387000D01*
X57674000Y-26390000D01*
X57674000Y-26392000D01*
X57675000Y-26395000D01*
X57675000Y-26397000D01*
X57675000Y-26400000D01*
X57675000Y-26700000D01*
X57675000Y-26703000D01*
X57675000Y-26705000D01*
X57676000Y-26708000D01*
X57676000Y-26710000D01*
X57677000Y-26713000D01*
X57677000Y-26715000D01*
X57678000Y-26718000D01*
X57679000Y-26720000D01*
X57680000Y-26723000D01*
X57682000Y-26725000D01*
X57683000Y-26727000D01*
X57685000Y-26729000D01*
X57686000Y-26731000D01*
X57688000Y-26733000D01*
X57690000Y-26735000D01*
X57692000Y-26737000D01*
X57694000Y-26739000D01*
X57696000Y-26740000D01*
X57698000Y-26742000D01*
X57700000Y-26743000D01*
X57702000Y-26745000D01*
X57705000Y-26746000D01*
X57707000Y-26747000D01*
X57710000Y-26748000D01*
X57712000Y-26748000D01*
X57715000Y-26749000D01*
X57717000Y-26749000D01*
X57720000Y-26750000D01*
X57722000Y-26750000D01*
X57725000Y-26750000D01*
X57875000Y-26750000D01*
X57878000Y-26750000D01*
X57880000Y-26750000D01*
X57883000Y-26749000D01*
X57885000Y-26749000D01*
X57888000Y-26748000D01*
X57890000Y-26748000D01*
X57893000Y-26747000D01*
X57895000Y-26746000D01*
X57898000Y-26745000D01*
X57900000Y-26743000D01*
X57902000Y-26742000D01*
X57904000Y-26740000D01*
X57906000Y-26739000D01*
X57908000Y-26737000D01*
X57910000Y-26735000D01*
X57912000Y-26733000D01*
X57914000Y-26731000D01*
X57915000Y-26729000D01*
X57917000Y-26727000D01*
X57918000Y-26725000D01*
X57920000Y-26723000D01*
X57921000Y-26720000D01*
X57922000Y-26718000D01*
X57923000Y-26715000D01*
X57923000Y-26713000D01*
X57924000Y-26710000D01*
X57924000Y-26708000D01*
X57925000Y-26705000D01*
X57925000Y-26703000D01*
X57925000Y-26700000D01*
X57925000Y-26400000D01*
X57925000Y-26397000D01*
X57925000Y-26395000D01*
X57926000Y-26392000D01*
X57926000Y-26390000D01*
X57927000Y-26387000D01*
X57927000Y-26385000D01*
X57928000Y-26382000D01*
X57929000Y-26380000D01*
X57930000Y-26377000D01*
X57932000Y-26375000D01*
X57933000Y-26373000D01*
X57935000Y-26371000D01*
X57936000Y-26369000D01*
X57938000Y-26367000D01*
X57940000Y-26365000D01*
X57942000Y-26363000D01*
X57944000Y-26361000D01*
X57946000Y-26360000D01*
X57948000Y-26358000D01*
X57950000Y-26357000D01*
X57952000Y-26355000D01*
X57955000Y-26354000D01*
X57957000Y-26353000D01*
X57960000Y-26352000D01*
X57962000Y-26352000D01*
X57965000Y-26351000D01*
X57967000Y-26351000D01*
X57970000Y-26350000D01*
X57972000Y-26350000D01*
X57975000Y-26350000D01*
X58125000Y-26350000D01*
X58128000Y-26350000D01*
X58130000Y-26350000D01*
X58133000Y-26351000D01*
X58135000Y-26351000D01*
X58138000Y-26352000D01*
X58140000Y-26352000D01*
X58143000Y-26353000D01*
X58145000Y-26354000D01*
X58148000Y-26355000D01*
X58150000Y-26357000D01*
X58152000Y-26358000D01*
X58154000Y-26360000D01*
X58156000Y-26361000D01*
X58158000Y-26363000D01*
X58160000Y-26365000D01*
X58162000Y-26367000D01*
X58164000Y-26369000D01*
X58165000Y-26371000D01*
X58167000Y-26373000D01*
X58168000Y-26375000D01*
X58170000Y-26377000D01*
X58171000Y-26380000D01*
X58172000Y-26382000D01*
X58173000Y-26385000D01*
X58173000Y-26387000D01*
X58174000Y-26390000D01*
X58174000Y-26392000D01*
X58175000Y-26395000D01*
X58175000Y-26397000D01*
X58175000Y-26400000D01*
X58175000Y-26700000D01*
X58175000Y-26703000D01*
X58175000Y-26705000D01*
X58176000Y-26708000D01*
X58176000Y-26710000D01*
X58177000Y-26713000D01*
X58177000Y-26715000D01*
X58178000Y-26718000D01*
X58179000Y-26720000D01*
X58180000Y-26723000D01*
X58182000Y-26725000D01*
X58183000Y-26727000D01*
X58185000Y-26729000D01*
X58186000Y-26731000D01*
X58188000Y-26733000D01*
X58190000Y-26735000D01*
X58192000Y-26737000D01*
X58194000Y-26739000D01*
X58196000Y-26740000D01*
X58198000Y-26742000D01*
X58200000Y-26743000D01*
X58202000Y-26745000D01*
X58205000Y-26746000D01*
X58207000Y-26747000D01*
X58210000Y-26748000D01*
X58212000Y-26748000D01*
X58215000Y-26749000D01*
X58217000Y-26749000D01*
X58220000Y-26750000D01*
X58222000Y-26750000D01*
X58225000Y-26750000D01*
X58340000Y-26750000D01*
X58343000Y-26750000D01*
X58345000Y-26750000D01*
X58348000Y-26751000D01*
X58350000Y-26751000D01*
X58353000Y-26752000D01*
X58355000Y-26752000D01*
X58358000Y-26753000D01*
X58360000Y-26754000D01*
X58363000Y-26755000D01*
X58365000Y-26757000D01*
X58367000Y-26758000D01*
X58369000Y-26760000D01*
X58371000Y-26761000D01*
X58373000Y-26763000D01*
X58375000Y-26765000D01*
X58377000Y-26767000D01*
X58379000Y-26769000D01*
X58380000Y-26771000D01*
X58382000Y-26773000D01*
X58383000Y-26775000D01*
X58385000Y-26777000D01*
X58386000Y-26780000D01*
X58387000Y-26782000D01*
X58388000Y-26785000D01*
X58388000Y-26787000D01*
X58389000Y-26790000D01*
X58389000Y-26792000D01*
X58390000Y-26795000D01*
X58390000Y-26797000D01*
X58390000Y-26800000D01*
X58390000Y-27700000D01*
X58390000Y-27703000D01*
X58390000Y-27705000D01*
X58389000Y-27708000D01*
X58389000Y-27710000D01*
X58388000Y-27713000D01*
X58388000Y-27715000D01*
X58387000Y-27718000D01*
X58386000Y-27720000D01*
X58385000Y-27723000D01*
X58383000Y-27725000D01*
X58382000Y-27727000D01*
X58380000Y-27729000D01*
X58379000Y-27731000D01*
X58377000Y-27733000D01*
X58375000Y-27735000D01*
X58373000Y-27737000D01*
X58371000Y-27739000D01*
X58369000Y-27740000D01*
X58367000Y-27742000D01*
X58365000Y-27743000D01*
X58363000Y-27745000D01*
X58360000Y-27746000D01*
X58358000Y-27747000D01*
X58355000Y-27748000D01*
X58353000Y-27748000D01*
X58350000Y-27749000D01*
X58348000Y-27749000D01*
X58345000Y-27750000D01*
X58343000Y-27750000D01*
X58340000Y-27750000D01*
X56240000Y-27750000D01*
X56237000Y-27750000D01*
X56235000Y-27750000D01*
X56232000Y-27749000D01*
X56230000Y-27749000D01*
X56227000Y-27748000D01*
X56225000Y-27748000D01*
X56222000Y-27747000D01*
X56220000Y-27746000D01*
X56217000Y-27745000D01*
X56215000Y-27743000D01*
X56213000Y-27742000D01*
X56211000Y-27740000D01*
X56209000Y-27739000D01*
X56207000Y-27737000D01*
X56205000Y-27735000D01*
X56203000Y-27733000D01*
X56201000Y-27731000D01*
X56200000Y-27729000D01*
X56198000Y-27727000D01*
X56197000Y-27725000D01*
X56195000Y-27723000D01*
X56194000Y-27720000D01*
X56193000Y-27718000D01*
X56192000Y-27715000D01*
X56192000Y-27713000D01*
X56191000Y-27710000D01*
X56191000Y-27708000D01*
X56190000Y-27705000D01*
X56190000Y-27703000D01*
X56190000Y-27700000D01*
X56190000Y-26800000D01*
X56190000Y-26797000D01*
X56190000Y-26795000D01*
X56191000Y-26792000D01*
X56191000Y-26790000D01*
X56192000Y-26787000D01*
X56192000Y-26785000D01*
X56193000Y-26782000D01*
X56194000Y-26780000D01*
X56195000Y-26777000D01*
X56197000Y-26775000D01*
X56198000Y-26773000D01*
X56200000Y-26771000D01*
X56201000Y-26769000D01*
X56203000Y-26767000D01*
X56205000Y-26765000D01*
X56207000Y-26763000D01*
X56209000Y-26761000D01*
X56211000Y-26760000D01*
X56213000Y-26758000D01*
X56215000Y-26757000D01*
X56217000Y-26755000D01*
X56220000Y-26754000D01*
X56222000Y-26753000D01*
X56225000Y-26752000D01*
X56227000Y-26752000D01*
X56230000Y-26751000D01*
X56232000Y-26751000D01*
X56235000Y-26750000D01*
X56237000Y-26750000D01*
X56240000Y-26750000D01*
X56375000Y-26750000D01*
X56378000Y-26750000D01*
X56380000Y-26750000D01*
X56383000Y-26749000D01*
X56385000Y-26749000D01*
X56388000Y-26748000D01*
X56390000Y-26748000D01*
X56393000Y-26747000D01*
X56395000Y-26746000D01*
X56398000Y-26745000D01*
X56400000Y-26743000D01*
X56402000Y-26742000D01*
X56404000Y-26740000D01*
X56406000Y-26739000D01*
X56408000Y-26737000D01*
X56410000Y-26735000D01*
X56412000Y-26733000D01*
X56414000Y-26731000D01*
X56415000Y-26729000D01*
X56417000Y-26727000D01*
X56418000Y-26725000D01*
X56420000Y-26723000D01*
X56421000Y-26720000D01*
X56422000Y-26718000D01*
X56423000Y-26715000D01*
X56423000Y-26713000D01*
X56424000Y-26710000D01*
X56424000Y-26708000D01*
X56425000Y-26705000D01*
X56425000Y-26703000D01*
X56425000Y-26700000D01*
X56425000Y-26400000D01*
X56425000Y-26397000D01*
X56425000Y-26395000D01*
X56426000Y-26392000D01*
X56426000Y-26390000D01*
X56427000Y-26387000D01*
X56427000Y-26385000D01*
X56428000Y-26382000D01*
X56429000Y-26380000D01*
X56430000Y-26377000D01*
X56432000Y-26375000D01*
X56433000Y-26373000D01*
X56435000Y-26371000D01*
X56436000Y-26369000D01*
X56438000Y-26367000D01*
X56440000Y-26365000D01*
X56442000Y-26363000D01*
X56444000Y-26361000D01*
X56446000Y-26360000D01*
X56448000Y-26358000D01*
X56450000Y-26357000D01*
X56452000Y-26355000D01*
X56455000Y-26354000D01*
X56457000Y-26353000D01*
X56460000Y-26352000D01*
X56462000Y-26352000D01*
X56465000Y-26351000D01*
X56467000Y-26351000D01*
X56470000Y-26350000D01*
X56472000Y-26350000D01*
X56475000Y-26350000D01*
X56625000Y-26350000D01*
X56628000Y-26350000D01*
X56630000Y-26350000D01*
X56633000Y-26351000D01*
G37*
X58348000Y-28651000D02*
X58350000Y-28651000D01*
X58353000Y-28652000D01*
X58355000Y-28652000D01*
X58358000Y-28653000D01*
X58360000Y-28654000D01*
X58363000Y-28655000D01*
X58365000Y-28657000D01*
X58367000Y-28658000D01*
X58369000Y-28660000D01*
X58371000Y-28661000D01*
X58373000Y-28663000D01*
X58375000Y-28665000D01*
X58377000Y-28667000D01*
X58379000Y-28669000D01*
X58380000Y-28671000D01*
X58382000Y-28673000D01*
X58383000Y-28675000D01*
X58385000Y-28677000D01*
X58386000Y-28680000D01*
X58387000Y-28682000D01*
X58388000Y-28685000D01*
X58388000Y-28687000D01*
X58389000Y-28690000D01*
X58389000Y-28692000D01*
X58390000Y-28695000D01*
X58390000Y-28697000D01*
X58390000Y-28700000D01*
X58390000Y-29600000D01*
X58390000Y-29603000D01*
X58390000Y-29605000D01*
X58389000Y-29608000D01*
X58389000Y-29610000D01*
X58388000Y-29613000D01*
X58388000Y-29615000D01*
X58387000Y-29618000D01*
X58386000Y-29620000D01*
X58385000Y-29623000D01*
X58383000Y-29625000D01*
X58382000Y-29627000D01*
X58380000Y-29629000D01*
X58379000Y-29631000D01*
X58377000Y-29633000D01*
X58375000Y-29635000D01*
X58373000Y-29637000D01*
X58371000Y-29639000D01*
X58369000Y-29640000D01*
X58367000Y-29642000D01*
X58365000Y-29643000D01*
X58363000Y-29645000D01*
X58360000Y-29646000D01*
X58358000Y-29647000D01*
X58355000Y-29648000D01*
X58353000Y-29648000D01*
X58350000Y-29649000D01*
X58348000Y-29649000D01*
X58345000Y-29650000D01*
X58343000Y-29650000D01*
X58340000Y-29650000D01*
X58225000Y-29650000D01*
X58222000Y-29650000D01*
X58220000Y-29650000D01*
X58217000Y-29651000D01*
X58215000Y-29651000D01*
X58212000Y-29652000D01*
X58210000Y-29652000D01*
X58207000Y-29653000D01*
X58205000Y-29654000D01*
X58202000Y-29655000D01*
X58200000Y-29657000D01*
X58198000Y-29658000D01*
X58196000Y-29660000D01*
X58194000Y-29661000D01*
X58192000Y-29663000D01*
X58190000Y-29665000D01*
X58188000Y-29667000D01*
X58186000Y-29669000D01*
X58185000Y-29671000D01*
X58183000Y-29673000D01*
X58182000Y-29675000D01*
X58180000Y-29677000D01*
X58179000Y-29680000D01*
X58178000Y-29682000D01*
X58177000Y-29685000D01*
X58177000Y-29687000D01*
X58176000Y-29690000D01*
X58176000Y-29692000D01*
X58175000Y-29695000D01*
X58175000Y-29697000D01*
X58175000Y-29700000D01*
X58175000Y-30000000D01*
X58175000Y-30003000D01*
X58175000Y-30005000D01*
X58174000Y-30008000D01*
X58174000Y-30010000D01*
X58173000Y-30013000D01*
X58173000Y-30015000D01*
X58172000Y-30018000D01*
X58171000Y-30020000D01*
X58170000Y-30023000D01*
X58168000Y-30025000D01*
X58167000Y-30027000D01*
X58165000Y-30029000D01*
X58164000Y-30031000D01*
X58162000Y-30033000D01*
X58160000Y-30035000D01*
X58158000Y-30037000D01*
X58156000Y-30039000D01*
X58154000Y-30040000D01*
X58152000Y-30042000D01*
X58150000Y-30043000D01*
X58148000Y-30045000D01*
X58145000Y-30046000D01*
X58143000Y-30047000D01*
X58140000Y-30048000D01*
X58138000Y-30048000D01*
X58135000Y-30049000D01*
X58133000Y-30049000D01*
X58130000Y-30050000D01*
X58128000Y-30050000D01*
X58125000Y-30050000D01*
X57975000Y-30050000D01*
X57972000Y-30050000D01*
X57970000Y-30050000D01*
X57967000Y-30049000D01*
X57965000Y-30049000D01*
X57962000Y-30048000D01*
X57960000Y-30048000D01*
X57957000Y-30047000D01*
X57955000Y-30046000D01*
X57952000Y-30045000D01*
X57950000Y-30043000D01*
X57948000Y-30042000D01*
X57946000Y-30040000D01*
X57944000Y-30039000D01*
X57942000Y-30037000D01*
X57940000Y-30035000D01*
X57938000Y-30033000D01*
X57936000Y-30031000D01*
X57935000Y-30029000D01*
X57933000Y-30027000D01*
X57932000Y-30025000D01*
X57930000Y-30023000D01*
X57929000Y-30020000D01*
X57928000Y-30018000D01*
X57927000Y-30015000D01*
X57927000Y-30013000D01*
X57926000Y-30010000D01*
X57926000Y-30008000D01*
X57925000Y-30005000D01*
X57925000Y-30003000D01*
X57925000Y-30000000D01*
X57925000Y-29700000D01*
X57925000Y-29697000D01*
X57925000Y-29695000D01*
X57924000Y-29692000D01*
X57924000Y-29690000D01*
X57923000Y-29687000D01*
X57923000Y-29685000D01*
X57922000Y-29682000D01*
X57921000Y-29680000D01*
X57920000Y-29677000D01*
X57918000Y-29675000D01*
X57917000Y-29673000D01*
X57915000Y-29671000D01*
X57914000Y-29669000D01*
X57912000Y-29667000D01*
X57910000Y-29665000D01*
X57908000Y-29663000D01*
X57906000Y-29661000D01*
X57904000Y-29660000D01*
X57902000Y-29658000D01*
X57900000Y-29657000D01*
X57898000Y-29655000D01*
X57895000Y-29654000D01*
X57893000Y-29653000D01*
X57890000Y-29652000D01*
X57888000Y-29652000D01*
X57885000Y-29651000D01*
X57883000Y-29651000D01*
X57880000Y-29650000D01*
X57878000Y-29650000D01*
X57875000Y-29650000D01*
X57725000Y-29650000D01*
X57722000Y-29650000D01*
X57720000Y-29650000D01*
X57717000Y-29651000D01*
X57715000Y-29651000D01*
X57712000Y-29652000D01*
X57710000Y-29652000D01*
X57707000Y-29653000D01*
X57705000Y-29654000D01*
X57702000Y-29655000D01*
X57700000Y-29657000D01*
X57698000Y-29658000D01*
X57696000Y-29660000D01*
X57694000Y-29661000D01*
X57692000Y-29663000D01*
X57690000Y-29665000D01*
X57688000Y-29667000D01*
X57686000Y-29669000D01*
X57685000Y-29671000D01*
X57683000Y-29673000D01*
X57682000Y-29675000D01*
X57680000Y-29677000D01*
X57679000Y-29680000D01*
X57678000Y-29682000D01*
X57677000Y-29685000D01*
X57677000Y-29687000D01*
X57676000Y-29690000D01*
X57676000Y-29692000D01*
X57675000Y-29695000D01*
X57675000Y-29697000D01*
X57675000Y-29700000D01*
X57675000Y-30000000D01*
X57675000Y-30003000D01*
X57675000Y-30005000D01*
X57674000Y-30008000D01*
X57674000Y-30010000D01*
X57673000Y-30013000D01*
X57673000Y-30015000D01*
X57672000Y-30018000D01*
X57671000Y-30020000D01*
X57670000Y-30023000D01*
X57668000Y-30025000D01*
X57667000Y-30027000D01*
X57665000Y-30029000D01*
X57664000Y-30031000D01*
X57662000Y-30033000D01*
X57660000Y-30035000D01*
X57658000Y-30037000D01*
X57656000Y-30039000D01*
X57654000Y-30040000D01*
X57652000Y-30042000D01*
X57650000Y-30043000D01*
X57648000Y-30045000D01*
X57645000Y-30046000D01*
X57643000Y-30047000D01*
X57640000Y-30048000D01*
X57638000Y-30048000D01*
X57635000Y-30049000D01*
X57633000Y-30049000D01*
X57630000Y-30050000D01*
X57628000Y-30050000D01*
X57625000Y-30050000D01*
X57475000Y-30050000D01*
X57472000Y-30050000D01*
X57470000Y-30050000D01*
X57467000Y-30049000D01*
X57465000Y-30049000D01*
X57462000Y-30048000D01*
X57460000Y-30048000D01*
X57457000Y-30047000D01*
X57455000Y-30046000D01*
X57452000Y-30045000D01*
X57450000Y-30043000D01*
X57448000Y-30042000D01*
X57446000Y-30040000D01*
X57444000Y-30039000D01*
X57442000Y-30037000D01*
X57440000Y-30035000D01*
X57438000Y-30033000D01*
X57436000Y-30031000D01*
X57435000Y-30029000D01*
X57433000Y-30027000D01*
X57432000Y-30025000D01*
X57430000Y-30023000D01*
X57429000Y-30020000D01*
X57428000Y-30018000D01*
X57427000Y-30015000D01*
X57427000Y-30013000D01*
X57426000Y-30010000D01*
X57426000Y-30008000D01*
X57425000Y-30005000D01*
X57425000Y-30003000D01*
X57425000Y-30000000D01*
X57425000Y-29700000D01*
X57425000Y-29697000D01*
X57425000Y-29695000D01*
X57424000Y-29692000D01*
X57424000Y-29690000D01*
X57423000Y-29687000D01*
X57423000Y-29685000D01*
X57422000Y-29682000D01*
X57421000Y-29680000D01*
X57420000Y-29677000D01*
X57418000Y-29675000D01*
X57417000Y-29673000D01*
X57415000Y-29671000D01*
X57414000Y-29669000D01*
X57412000Y-29667000D01*
X57410000Y-29665000D01*
X57408000Y-29663000D01*
X57406000Y-29661000D01*
X57404000Y-29660000D01*
X57402000Y-29658000D01*
X57400000Y-29657000D01*
X57398000Y-29655000D01*
X57395000Y-29654000D01*
X57393000Y-29653000D01*
X57390000Y-29652000D01*
X57388000Y-29652000D01*
X57385000Y-29651000D01*
X57383000Y-29651000D01*
X57380000Y-29650000D01*
X57378000Y-29650000D01*
X57375000Y-29650000D01*
X57225000Y-29650000D01*
X57222000Y-29650000D01*
X57220000Y-29650000D01*
X57217000Y-29651000D01*
X57215000Y-29651000D01*
X57212000Y-29652000D01*
X57210000Y-29652000D01*
X57207000Y-29653000D01*
X57205000Y-29654000D01*
X57202000Y-29655000D01*
X57200000Y-29657000D01*
X57198000Y-29658000D01*
X57196000Y-29660000D01*
X57194000Y-29661000D01*
X57192000Y-29663000D01*
X57190000Y-29665000D01*
X57188000Y-29667000D01*
X57186000Y-29669000D01*
X57185000Y-29671000D01*
X57183000Y-29673000D01*
X57182000Y-29675000D01*
X57180000Y-29677000D01*
X57179000Y-29680000D01*
X57178000Y-29682000D01*
X57177000Y-29685000D01*
X57177000Y-29687000D01*
X57176000Y-29690000D01*
X57176000Y-29692000D01*
X57175000Y-29695000D01*
X57175000Y-29697000D01*
X57175000Y-29700000D01*
X57175000Y-30000000D01*
X57175000Y-30003000D01*
X57175000Y-30005000D01*
X57174000Y-30008000D01*
X57174000Y-30010000D01*
X57173000Y-30013000D01*
X57173000Y-30015000D01*
X57172000Y-30018000D01*
X57171000Y-30020000D01*
X57170000Y-30023000D01*
X57168000Y-30025000D01*
X57167000Y-30027000D01*
X57165000Y-30029000D01*
X57164000Y-30031000D01*
X57162000Y-30033000D01*
X57160000Y-30035000D01*
X57158000Y-30037000D01*
X57156000Y-30039000D01*
X57154000Y-30040000D01*
X57152000Y-30042000D01*
X57150000Y-30043000D01*
X57148000Y-30045000D01*
X57145000Y-30046000D01*
X57143000Y-30047000D01*
X57140000Y-30048000D01*
X57138000Y-30048000D01*
X57135000Y-30049000D01*
X57133000Y-30049000D01*
X57130000Y-30050000D01*
X57128000Y-30050000D01*
X57125000Y-30050000D01*
X56975000Y-30050000D01*
X56972000Y-30050000D01*
X56970000Y-30050000D01*
X56967000Y-30049000D01*
X56965000Y-30049000D01*
X56962000Y-30048000D01*
X56960000Y-30048000D01*
X56957000Y-30047000D01*
X56955000Y-30046000D01*
X56952000Y-30045000D01*
X56950000Y-30043000D01*
X56948000Y-30042000D01*
X56946000Y-30040000D01*
X56944000Y-30039000D01*
X56942000Y-30037000D01*
X56940000Y-30035000D01*
X56938000Y-30033000D01*
X56936000Y-30031000D01*
X56935000Y-30029000D01*
X56933000Y-30027000D01*
X56932000Y-30025000D01*
X56930000Y-30023000D01*
X56929000Y-30020000D01*
X56928000Y-30018000D01*
X56927000Y-30015000D01*
X56927000Y-30013000D01*
X56926000Y-30010000D01*
X56926000Y-30008000D01*
X56925000Y-30005000D01*
X56925000Y-30003000D01*
X56925000Y-30000000D01*
X56925000Y-29700000D01*
X56925000Y-29697000D01*
X56925000Y-29695000D01*
X56924000Y-29692000D01*
X56924000Y-29690000D01*
X56923000Y-29687000D01*
X56923000Y-29685000D01*
X56922000Y-29682000D01*
X56921000Y-29680000D01*
X56920000Y-29677000D01*
X56918000Y-29675000D01*
X56917000Y-29673000D01*
X56915000Y-29671000D01*
X56914000Y-29669000D01*
X56912000Y-29667000D01*
X56910000Y-29665000D01*
X56908000Y-29663000D01*
X56906000Y-29661000D01*
X56904000Y-29660000D01*
X56902000Y-29658000D01*
X56900000Y-29657000D01*
X56898000Y-29655000D01*
X56895000Y-29654000D01*
X56893000Y-29653000D01*
X56890000Y-29652000D01*
X56888000Y-29652000D01*
X56885000Y-29651000D01*
X56883000Y-29651000D01*
X56880000Y-29650000D01*
X56878000Y-29650000D01*
X56875000Y-29650000D01*
X56725000Y-29650000D01*
X56722000Y-29650000D01*
X56720000Y-29650000D01*
X56717000Y-29651000D01*
X56715000Y-29651000D01*
X56712000Y-29652000D01*
X56710000Y-29652000D01*
X56707000Y-29653000D01*
X56705000Y-29654000D01*
X56702000Y-29655000D01*
X56700000Y-29657000D01*
X56698000Y-29658000D01*
X56696000Y-29660000D01*
X56694000Y-29661000D01*
X56692000Y-29663000D01*
X56690000Y-29665000D01*
X56688000Y-29667000D01*
X56686000Y-29669000D01*
X56685000Y-29671000D01*
X56683000Y-29673000D01*
X56682000Y-29675000D01*
X56680000Y-29677000D01*
X56679000Y-29680000D01*
X56678000Y-29682000D01*
X56677000Y-29685000D01*
X56677000Y-29687000D01*
X56676000Y-29690000D01*
X56676000Y-29692000D01*
X56675000Y-29695000D01*
X56675000Y-29697000D01*
X56675000Y-29700000D01*
X56675000Y-30000000D01*
X56675000Y-30003000D01*
X56675000Y-30005000D01*
X56674000Y-30008000D01*
X56674000Y-30010000D01*
X56673000Y-30013000D01*
X56673000Y-30015000D01*
X56672000Y-30018000D01*
X56671000Y-30020000D01*
X56670000Y-30023000D01*
X56668000Y-30025000D01*
X56667000Y-30027000D01*
X56665000Y-30029000D01*
X56664000Y-30031000D01*
X56662000Y-30033000D01*
X56660000Y-30035000D01*
X56658000Y-30037000D01*
X56656000Y-30039000D01*
X56654000Y-30040000D01*
X56652000Y-30042000D01*
X56650000Y-30043000D01*
X56648000Y-30045000D01*
X56645000Y-30046000D01*
X56643000Y-30047000D01*
X56640000Y-30048000D01*
X56638000Y-30048000D01*
X56635000Y-30049000D01*
X56633000Y-30049000D01*
X56630000Y-30050000D01*
X56628000Y-30050000D01*
X56625000Y-30050000D01*
X56475000Y-30050000D01*
X56472000Y-30050000D01*
X56470000Y-30050000D01*
X56467000Y-30049000D01*
X56465000Y-30049000D01*
X56462000Y-30048000D01*
X56460000Y-30048000D01*
X56457000Y-30047000D01*
X56455000Y-30046000D01*
X56452000Y-30045000D01*
X56450000Y-30043000D01*
X56448000Y-30042000D01*
X56446000Y-30040000D01*
X56444000Y-30039000D01*
X56442000Y-30037000D01*
X56440000Y-30035000D01*
X56438000Y-30033000D01*
X56436000Y-30031000D01*
X56435000Y-30029000D01*
X56433000Y-30027000D01*
X56432000Y-30025000D01*
X56430000Y-30023000D01*
X56429000Y-30020000D01*
X56428000Y-30018000D01*
X56427000Y-30015000D01*
X56427000Y-30013000D01*
X56426000Y-30010000D01*
X56426000Y-30008000D01*
X56425000Y-30005000D01*
X56425000Y-30003000D01*
X56425000Y-30000000D01*
X56425000Y-29700000D01*
X56425000Y-29697000D01*
X56425000Y-29695000D01*
X56424000Y-29692000D01*
X56424000Y-29690000D01*
X56423000Y-29687000D01*
X56423000Y-29685000D01*
X56422000Y-29682000D01*
X56421000Y-29680000D01*
X56420000Y-29677000D01*
X56418000Y-29675000D01*
X56417000Y-29673000D01*
X56415000Y-29671000D01*
X56414000Y-29669000D01*
X56412000Y-29667000D01*
X56410000Y-29665000D01*
X56408000Y-29663000D01*
X56406000Y-29661000D01*
X56404000Y-29660000D01*
X56402000Y-29658000D01*
X56400000Y-29657000D01*
X56398000Y-29655000D01*
X56395000Y-29654000D01*
X56393000Y-29653000D01*
X56390000Y-29652000D01*
X56388000Y-29652000D01*
X56385000Y-29651000D01*
X56383000Y-29651000D01*
X56380000Y-29650000D01*
X56378000Y-29650000D01*
X56375000Y-29650000D01*
X56240000Y-29650000D01*
X56237000Y-29650000D01*
X56235000Y-29650000D01*
X56232000Y-29649000D01*
X56230000Y-29649000D01*
X56227000Y-29648000D01*
X56225000Y-29648000D01*
X56222000Y-29647000D01*
X56220000Y-29646000D01*
X56217000Y-29645000D01*
X56215000Y-29643000D01*
X56213000Y-29642000D01*
X56211000Y-29640000D01*
X56209000Y-29639000D01*
X56207000Y-29637000D01*
X56205000Y-29635000D01*
X56203000Y-29633000D01*
X56201000Y-29631000D01*
X56200000Y-29629000D01*
X56198000Y-29627000D01*
X56197000Y-29625000D01*
X56195000Y-29623000D01*
X56194000Y-29620000D01*
X56193000Y-29618000D01*
X56192000Y-29615000D01*
X56192000Y-29613000D01*
X56191000Y-29610000D01*
X56191000Y-29608000D01*
X56190000Y-29605000D01*
X56190000Y-29603000D01*
X56190000Y-29600000D01*
X56190000Y-28700000D01*
X56190000Y-28697000D01*
X56190000Y-28695000D01*
X56191000Y-28692000D01*
X56191000Y-28690000D01*
X56192000Y-28687000D01*
X56192000Y-28685000D01*
X56193000Y-28682000D01*
X56194000Y-28680000D01*
X56195000Y-28677000D01*
X56197000Y-28675000D01*
X56198000Y-28673000D01*
X56200000Y-28671000D01*
X56201000Y-28669000D01*
X56203000Y-28667000D01*
X56205000Y-28665000D01*
X56207000Y-28663000D01*
X56209000Y-28661000D01*
X56211000Y-28660000D01*
X56213000Y-28658000D01*
X56215000Y-28657000D01*
X56217000Y-28655000D01*
X56220000Y-28654000D01*
X56222000Y-28653000D01*
X56225000Y-28652000D01*
X56227000Y-28652000D01*
X56230000Y-28651000D01*
X56232000Y-28651000D01*
X56235000Y-28650000D01*
X56237000Y-28650000D01*
X56240000Y-28650000D01*
X58340000Y-28650000D01*
X58343000Y-28650000D01*
X58345000Y-28650000D01*
X58348000Y-28651000D01*
G36*
X58348000Y-28651000D02*
G01*
X58350000Y-28651000D01*
X58353000Y-28652000D01*
X58355000Y-28652000D01*
X58358000Y-28653000D01*
X58360000Y-28654000D01*
X58363000Y-28655000D01*
X58365000Y-28657000D01*
X58367000Y-28658000D01*
X58369000Y-28660000D01*
X58371000Y-28661000D01*
X58373000Y-28663000D01*
X58375000Y-28665000D01*
X58377000Y-28667000D01*
X58379000Y-28669000D01*
X58380000Y-28671000D01*
X58382000Y-28673000D01*
X58383000Y-28675000D01*
X58385000Y-28677000D01*
X58386000Y-28680000D01*
X58387000Y-28682000D01*
X58388000Y-28685000D01*
X58388000Y-28687000D01*
X58389000Y-28690000D01*
X58389000Y-28692000D01*
X58390000Y-28695000D01*
X58390000Y-28697000D01*
X58390000Y-28700000D01*
X58390000Y-29600000D01*
X58390000Y-29603000D01*
X58390000Y-29605000D01*
X58389000Y-29608000D01*
X58389000Y-29610000D01*
X58388000Y-29613000D01*
X58388000Y-29615000D01*
X58387000Y-29618000D01*
X58386000Y-29620000D01*
X58385000Y-29623000D01*
X58383000Y-29625000D01*
X58382000Y-29627000D01*
X58380000Y-29629000D01*
X58379000Y-29631000D01*
X58377000Y-29633000D01*
X58375000Y-29635000D01*
X58373000Y-29637000D01*
X58371000Y-29639000D01*
X58369000Y-29640000D01*
X58367000Y-29642000D01*
X58365000Y-29643000D01*
X58363000Y-29645000D01*
X58360000Y-29646000D01*
X58358000Y-29647000D01*
X58355000Y-29648000D01*
X58353000Y-29648000D01*
X58350000Y-29649000D01*
X58348000Y-29649000D01*
X58345000Y-29650000D01*
X58343000Y-29650000D01*
X58340000Y-29650000D01*
X58225000Y-29650000D01*
X58222000Y-29650000D01*
X58220000Y-29650000D01*
X58217000Y-29651000D01*
X58215000Y-29651000D01*
X58212000Y-29652000D01*
X58210000Y-29652000D01*
X58207000Y-29653000D01*
X58205000Y-29654000D01*
X58202000Y-29655000D01*
X58200000Y-29657000D01*
X58198000Y-29658000D01*
X58196000Y-29660000D01*
X58194000Y-29661000D01*
X58192000Y-29663000D01*
X58190000Y-29665000D01*
X58188000Y-29667000D01*
X58186000Y-29669000D01*
X58185000Y-29671000D01*
X58183000Y-29673000D01*
X58182000Y-29675000D01*
X58180000Y-29677000D01*
X58179000Y-29680000D01*
X58178000Y-29682000D01*
X58177000Y-29685000D01*
X58177000Y-29687000D01*
X58176000Y-29690000D01*
X58176000Y-29692000D01*
X58175000Y-29695000D01*
X58175000Y-29697000D01*
X58175000Y-29700000D01*
X58175000Y-30000000D01*
X58175000Y-30003000D01*
X58175000Y-30005000D01*
X58174000Y-30008000D01*
X58174000Y-30010000D01*
X58173000Y-30013000D01*
X58173000Y-30015000D01*
X58172000Y-30018000D01*
X58171000Y-30020000D01*
X58170000Y-30023000D01*
X58168000Y-30025000D01*
X58167000Y-30027000D01*
X58165000Y-30029000D01*
X58164000Y-30031000D01*
X58162000Y-30033000D01*
X58160000Y-30035000D01*
X58158000Y-30037000D01*
X58156000Y-30039000D01*
X58154000Y-30040000D01*
X58152000Y-30042000D01*
X58150000Y-30043000D01*
X58148000Y-30045000D01*
X58145000Y-30046000D01*
X58143000Y-30047000D01*
X58140000Y-30048000D01*
X58138000Y-30048000D01*
X58135000Y-30049000D01*
X58133000Y-30049000D01*
X58130000Y-30050000D01*
X58128000Y-30050000D01*
X58125000Y-30050000D01*
X57975000Y-30050000D01*
X57972000Y-30050000D01*
X57970000Y-30050000D01*
X57967000Y-30049000D01*
X57965000Y-30049000D01*
X57962000Y-30048000D01*
X57960000Y-30048000D01*
X57957000Y-30047000D01*
X57955000Y-30046000D01*
X57952000Y-30045000D01*
X57950000Y-30043000D01*
X57948000Y-30042000D01*
X57946000Y-30040000D01*
X57944000Y-30039000D01*
X57942000Y-30037000D01*
X57940000Y-30035000D01*
X57938000Y-30033000D01*
X57936000Y-30031000D01*
X57935000Y-30029000D01*
X57933000Y-30027000D01*
X57932000Y-30025000D01*
X57930000Y-30023000D01*
X57929000Y-30020000D01*
X57928000Y-30018000D01*
X57927000Y-30015000D01*
X57927000Y-30013000D01*
X57926000Y-30010000D01*
X57926000Y-30008000D01*
X57925000Y-30005000D01*
X57925000Y-30003000D01*
X57925000Y-30000000D01*
X57925000Y-29700000D01*
X57925000Y-29697000D01*
X57925000Y-29695000D01*
X57924000Y-29692000D01*
X57924000Y-29690000D01*
X57923000Y-29687000D01*
X57923000Y-29685000D01*
X57922000Y-29682000D01*
X57921000Y-29680000D01*
X57920000Y-29677000D01*
X57918000Y-29675000D01*
X57917000Y-29673000D01*
X57915000Y-29671000D01*
X57914000Y-29669000D01*
X57912000Y-29667000D01*
X57910000Y-29665000D01*
X57908000Y-29663000D01*
X57906000Y-29661000D01*
X57904000Y-29660000D01*
X57902000Y-29658000D01*
X57900000Y-29657000D01*
X57898000Y-29655000D01*
X57895000Y-29654000D01*
X57893000Y-29653000D01*
X57890000Y-29652000D01*
X57888000Y-29652000D01*
X57885000Y-29651000D01*
X57883000Y-29651000D01*
X57880000Y-29650000D01*
X57878000Y-29650000D01*
X57875000Y-29650000D01*
X57725000Y-29650000D01*
X57722000Y-29650000D01*
X57720000Y-29650000D01*
X57717000Y-29651000D01*
X57715000Y-29651000D01*
X57712000Y-29652000D01*
X57710000Y-29652000D01*
X57707000Y-29653000D01*
X57705000Y-29654000D01*
X57702000Y-29655000D01*
X57700000Y-29657000D01*
X57698000Y-29658000D01*
X57696000Y-29660000D01*
X57694000Y-29661000D01*
X57692000Y-29663000D01*
X57690000Y-29665000D01*
X57688000Y-29667000D01*
X57686000Y-29669000D01*
X57685000Y-29671000D01*
X57683000Y-29673000D01*
X57682000Y-29675000D01*
X57680000Y-29677000D01*
X57679000Y-29680000D01*
X57678000Y-29682000D01*
X57677000Y-29685000D01*
X57677000Y-29687000D01*
X57676000Y-29690000D01*
X57676000Y-29692000D01*
X57675000Y-29695000D01*
X57675000Y-29697000D01*
X57675000Y-29700000D01*
X57675000Y-30000000D01*
X57675000Y-30003000D01*
X57675000Y-30005000D01*
X57674000Y-30008000D01*
X57674000Y-30010000D01*
X57673000Y-30013000D01*
X57673000Y-30015000D01*
X57672000Y-30018000D01*
X57671000Y-30020000D01*
X57670000Y-30023000D01*
X57668000Y-30025000D01*
X57667000Y-30027000D01*
X57665000Y-30029000D01*
X57664000Y-30031000D01*
X57662000Y-30033000D01*
X57660000Y-30035000D01*
X57658000Y-30037000D01*
X57656000Y-30039000D01*
X57654000Y-30040000D01*
X57652000Y-30042000D01*
X57650000Y-30043000D01*
X57648000Y-30045000D01*
X57645000Y-30046000D01*
X57643000Y-30047000D01*
X57640000Y-30048000D01*
X57638000Y-30048000D01*
X57635000Y-30049000D01*
X57633000Y-30049000D01*
X57630000Y-30050000D01*
X57628000Y-30050000D01*
X57625000Y-30050000D01*
X57475000Y-30050000D01*
X57472000Y-30050000D01*
X57470000Y-30050000D01*
X57467000Y-30049000D01*
X57465000Y-30049000D01*
X57462000Y-30048000D01*
X57460000Y-30048000D01*
X57457000Y-30047000D01*
X57455000Y-30046000D01*
X57452000Y-30045000D01*
X57450000Y-30043000D01*
X57448000Y-30042000D01*
X57446000Y-30040000D01*
X57444000Y-30039000D01*
X57442000Y-30037000D01*
X57440000Y-30035000D01*
X57438000Y-30033000D01*
X57436000Y-30031000D01*
X57435000Y-30029000D01*
X57433000Y-30027000D01*
X57432000Y-30025000D01*
X57430000Y-30023000D01*
X57429000Y-30020000D01*
X57428000Y-30018000D01*
X57427000Y-30015000D01*
X57427000Y-30013000D01*
X57426000Y-30010000D01*
X57426000Y-30008000D01*
X57425000Y-30005000D01*
X57425000Y-30003000D01*
X57425000Y-30000000D01*
X57425000Y-29700000D01*
X57425000Y-29697000D01*
X57425000Y-29695000D01*
X57424000Y-29692000D01*
X57424000Y-29690000D01*
X57423000Y-29687000D01*
X57423000Y-29685000D01*
X57422000Y-29682000D01*
X57421000Y-29680000D01*
X57420000Y-29677000D01*
X57418000Y-29675000D01*
X57417000Y-29673000D01*
X57415000Y-29671000D01*
X57414000Y-29669000D01*
X57412000Y-29667000D01*
X57410000Y-29665000D01*
X57408000Y-29663000D01*
X57406000Y-29661000D01*
X57404000Y-29660000D01*
X57402000Y-29658000D01*
X57400000Y-29657000D01*
X57398000Y-29655000D01*
X57395000Y-29654000D01*
X57393000Y-29653000D01*
X57390000Y-29652000D01*
X57388000Y-29652000D01*
X57385000Y-29651000D01*
X57383000Y-29651000D01*
X57380000Y-29650000D01*
X57378000Y-29650000D01*
X57375000Y-29650000D01*
X57225000Y-29650000D01*
X57222000Y-29650000D01*
X57220000Y-29650000D01*
X57217000Y-29651000D01*
X57215000Y-29651000D01*
X57212000Y-29652000D01*
X57210000Y-29652000D01*
X57207000Y-29653000D01*
X57205000Y-29654000D01*
X57202000Y-29655000D01*
X57200000Y-29657000D01*
X57198000Y-29658000D01*
X57196000Y-29660000D01*
X57194000Y-29661000D01*
X57192000Y-29663000D01*
X57190000Y-29665000D01*
X57188000Y-29667000D01*
X57186000Y-29669000D01*
X57185000Y-29671000D01*
X57183000Y-29673000D01*
X57182000Y-29675000D01*
X57180000Y-29677000D01*
X57179000Y-29680000D01*
X57178000Y-29682000D01*
X57177000Y-29685000D01*
X57177000Y-29687000D01*
X57176000Y-29690000D01*
X57176000Y-29692000D01*
X57175000Y-29695000D01*
X57175000Y-29697000D01*
X57175000Y-29700000D01*
X57175000Y-30000000D01*
X57175000Y-30003000D01*
X57175000Y-30005000D01*
X57174000Y-30008000D01*
X57174000Y-30010000D01*
X57173000Y-30013000D01*
X57173000Y-30015000D01*
X57172000Y-30018000D01*
X57171000Y-30020000D01*
X57170000Y-30023000D01*
X57168000Y-30025000D01*
X57167000Y-30027000D01*
X57165000Y-30029000D01*
X57164000Y-30031000D01*
X57162000Y-30033000D01*
X57160000Y-30035000D01*
X57158000Y-30037000D01*
X57156000Y-30039000D01*
X57154000Y-30040000D01*
X57152000Y-30042000D01*
X57150000Y-30043000D01*
X57148000Y-30045000D01*
X57145000Y-30046000D01*
X57143000Y-30047000D01*
X57140000Y-30048000D01*
X57138000Y-30048000D01*
X57135000Y-30049000D01*
X57133000Y-30049000D01*
X57130000Y-30050000D01*
X57128000Y-30050000D01*
X57125000Y-30050000D01*
X56975000Y-30050000D01*
X56972000Y-30050000D01*
X56970000Y-30050000D01*
X56967000Y-30049000D01*
X56965000Y-30049000D01*
X56962000Y-30048000D01*
X56960000Y-30048000D01*
X56957000Y-30047000D01*
X56955000Y-30046000D01*
X56952000Y-30045000D01*
X56950000Y-30043000D01*
X56948000Y-30042000D01*
X56946000Y-30040000D01*
X56944000Y-30039000D01*
X56942000Y-30037000D01*
X56940000Y-30035000D01*
X56938000Y-30033000D01*
X56936000Y-30031000D01*
X56935000Y-30029000D01*
X56933000Y-30027000D01*
X56932000Y-30025000D01*
X56930000Y-30023000D01*
X56929000Y-30020000D01*
X56928000Y-30018000D01*
X56927000Y-30015000D01*
X56927000Y-30013000D01*
X56926000Y-30010000D01*
X56926000Y-30008000D01*
X56925000Y-30005000D01*
X56925000Y-30003000D01*
X56925000Y-30000000D01*
X56925000Y-29700000D01*
X56925000Y-29697000D01*
X56925000Y-29695000D01*
X56924000Y-29692000D01*
X56924000Y-29690000D01*
X56923000Y-29687000D01*
X56923000Y-29685000D01*
X56922000Y-29682000D01*
X56921000Y-29680000D01*
X56920000Y-29677000D01*
X56918000Y-29675000D01*
X56917000Y-29673000D01*
X56915000Y-29671000D01*
X56914000Y-29669000D01*
X56912000Y-29667000D01*
X56910000Y-29665000D01*
X56908000Y-29663000D01*
X56906000Y-29661000D01*
X56904000Y-29660000D01*
X56902000Y-29658000D01*
X56900000Y-29657000D01*
X56898000Y-29655000D01*
X56895000Y-29654000D01*
X56893000Y-29653000D01*
X56890000Y-29652000D01*
X56888000Y-29652000D01*
X56885000Y-29651000D01*
X56883000Y-29651000D01*
X56880000Y-29650000D01*
X56878000Y-29650000D01*
X56875000Y-29650000D01*
X56725000Y-29650000D01*
X56722000Y-29650000D01*
X56720000Y-29650000D01*
X56717000Y-29651000D01*
X56715000Y-29651000D01*
X56712000Y-29652000D01*
X56710000Y-29652000D01*
X56707000Y-29653000D01*
X56705000Y-29654000D01*
X56702000Y-29655000D01*
X56700000Y-29657000D01*
X56698000Y-29658000D01*
X56696000Y-29660000D01*
X56694000Y-29661000D01*
X56692000Y-29663000D01*
X56690000Y-29665000D01*
X56688000Y-29667000D01*
X56686000Y-29669000D01*
X56685000Y-29671000D01*
X56683000Y-29673000D01*
X56682000Y-29675000D01*
X56680000Y-29677000D01*
X56679000Y-29680000D01*
X56678000Y-29682000D01*
X56677000Y-29685000D01*
X56677000Y-29687000D01*
X56676000Y-29690000D01*
X56676000Y-29692000D01*
X56675000Y-29695000D01*
X56675000Y-29697000D01*
X56675000Y-29700000D01*
X56675000Y-30000000D01*
X56675000Y-30003000D01*
X56675000Y-30005000D01*
X56674000Y-30008000D01*
X56674000Y-30010000D01*
X56673000Y-30013000D01*
X56673000Y-30015000D01*
X56672000Y-30018000D01*
X56671000Y-30020000D01*
X56670000Y-30023000D01*
X56668000Y-30025000D01*
X56667000Y-30027000D01*
X56665000Y-30029000D01*
X56664000Y-30031000D01*
X56662000Y-30033000D01*
X56660000Y-30035000D01*
X56658000Y-30037000D01*
X56656000Y-30039000D01*
X56654000Y-30040000D01*
X56652000Y-30042000D01*
X56650000Y-30043000D01*
X56648000Y-30045000D01*
X56645000Y-30046000D01*
X56643000Y-30047000D01*
X56640000Y-30048000D01*
X56638000Y-30048000D01*
X56635000Y-30049000D01*
X56633000Y-30049000D01*
X56630000Y-30050000D01*
X56628000Y-30050000D01*
X56625000Y-30050000D01*
X56475000Y-30050000D01*
X56472000Y-30050000D01*
X56470000Y-30050000D01*
X56467000Y-30049000D01*
X56465000Y-30049000D01*
X56462000Y-30048000D01*
X56460000Y-30048000D01*
X56457000Y-30047000D01*
X56455000Y-30046000D01*
X56452000Y-30045000D01*
X56450000Y-30043000D01*
X56448000Y-30042000D01*
X56446000Y-30040000D01*
X56444000Y-30039000D01*
X56442000Y-30037000D01*
X56440000Y-30035000D01*
X56438000Y-30033000D01*
X56436000Y-30031000D01*
X56435000Y-30029000D01*
X56433000Y-30027000D01*
X56432000Y-30025000D01*
X56430000Y-30023000D01*
X56429000Y-30020000D01*
X56428000Y-30018000D01*
X56427000Y-30015000D01*
X56427000Y-30013000D01*
X56426000Y-30010000D01*
X56426000Y-30008000D01*
X56425000Y-30005000D01*
X56425000Y-30003000D01*
X56425000Y-30000000D01*
X56425000Y-29700000D01*
X56425000Y-29697000D01*
X56425000Y-29695000D01*
X56424000Y-29692000D01*
X56424000Y-29690000D01*
X56423000Y-29687000D01*
X56423000Y-29685000D01*
X56422000Y-29682000D01*
X56421000Y-29680000D01*
X56420000Y-29677000D01*
X56418000Y-29675000D01*
X56417000Y-29673000D01*
X56415000Y-29671000D01*
X56414000Y-29669000D01*
X56412000Y-29667000D01*
X56410000Y-29665000D01*
X56408000Y-29663000D01*
X56406000Y-29661000D01*
X56404000Y-29660000D01*
X56402000Y-29658000D01*
X56400000Y-29657000D01*
X56398000Y-29655000D01*
X56395000Y-29654000D01*
X56393000Y-29653000D01*
X56390000Y-29652000D01*
X56388000Y-29652000D01*
X56385000Y-29651000D01*
X56383000Y-29651000D01*
X56380000Y-29650000D01*
X56378000Y-29650000D01*
X56375000Y-29650000D01*
X56240000Y-29650000D01*
X56237000Y-29650000D01*
X56235000Y-29650000D01*
X56232000Y-29649000D01*
X56230000Y-29649000D01*
X56227000Y-29648000D01*
X56225000Y-29648000D01*
X56222000Y-29647000D01*
X56220000Y-29646000D01*
X56217000Y-29645000D01*
X56215000Y-29643000D01*
X56213000Y-29642000D01*
X56211000Y-29640000D01*
X56209000Y-29639000D01*
X56207000Y-29637000D01*
X56205000Y-29635000D01*
X56203000Y-29633000D01*
X56201000Y-29631000D01*
X56200000Y-29629000D01*
X56198000Y-29627000D01*
X56197000Y-29625000D01*
X56195000Y-29623000D01*
X56194000Y-29620000D01*
X56193000Y-29618000D01*
X56192000Y-29615000D01*
X56192000Y-29613000D01*
X56191000Y-29610000D01*
X56191000Y-29608000D01*
X56190000Y-29605000D01*
X56190000Y-29603000D01*
X56190000Y-29600000D01*
X56190000Y-28700000D01*
X56190000Y-28697000D01*
X56190000Y-28695000D01*
X56191000Y-28692000D01*
X56191000Y-28690000D01*
X56192000Y-28687000D01*
X56192000Y-28685000D01*
X56193000Y-28682000D01*
X56194000Y-28680000D01*
X56195000Y-28677000D01*
X56197000Y-28675000D01*
X56198000Y-28673000D01*
X56200000Y-28671000D01*
X56201000Y-28669000D01*
X56203000Y-28667000D01*
X56205000Y-28665000D01*
X56207000Y-28663000D01*
X56209000Y-28661000D01*
X56211000Y-28660000D01*
X56213000Y-28658000D01*
X56215000Y-28657000D01*
X56217000Y-28655000D01*
X56220000Y-28654000D01*
X56222000Y-28653000D01*
X56225000Y-28652000D01*
X56227000Y-28652000D01*
X56230000Y-28651000D01*
X56232000Y-28651000D01*
X56235000Y-28650000D01*
X56237000Y-28650000D01*
X56240000Y-28650000D01*
X58340000Y-28650000D01*
X58343000Y-28650000D01*
X58345000Y-28650000D01*
X58348000Y-28651000D01*
G37*
X59118000Y-28506000D02*
X59120000Y-28506000D01*
X59123000Y-28507000D01*
X59125000Y-28507000D01*
X59128000Y-28508000D01*
X59130000Y-28509000D01*
X59133000Y-28510000D01*
X59135000Y-28512000D01*
X59137000Y-28513000D01*
X59139000Y-28515000D01*
X59141000Y-28516000D01*
X59143000Y-28518000D01*
X59145000Y-28520000D01*
X59147000Y-28522000D01*
X59149000Y-28524000D01*
X59150000Y-28526000D01*
X59152000Y-28528000D01*
X59153000Y-28530000D01*
X59155000Y-28532000D01*
X59156000Y-28535000D01*
X59157000Y-28537000D01*
X59158000Y-28540000D01*
X59158000Y-28542000D01*
X59159000Y-28545000D01*
X59159000Y-28547000D01*
X59160000Y-28550000D01*
X59160000Y-28552000D01*
X59160000Y-28555000D01*
X59160000Y-28677000D01*
X59160000Y-28679000D01*
X59160000Y-28680000D01*
X59160000Y-28681000D01*
X59160000Y-28683000D01*
X59160000Y-28684000D01*
X59161000Y-28685000D01*
X59161000Y-28686000D01*
X59161000Y-28688000D01*
X59161000Y-28689000D01*
X59162000Y-28690000D01*
X59162000Y-28691000D01*
X59162000Y-28693000D01*
X59163000Y-28694000D01*
X59163000Y-28695000D01*
X59164000Y-28696000D01*
X59164000Y-28698000D01*
X59165000Y-28699000D01*
X59165000Y-28700000D01*
X59166000Y-28701000D01*
X59167000Y-28702000D01*
X59167000Y-28703000D01*
X59168000Y-28705000D01*
X59169000Y-28706000D01*
X59170000Y-28707000D01*
X59170000Y-28708000D01*
X59171000Y-28709000D01*
X59172000Y-28710000D01*
X59173000Y-28711000D01*
X59174000Y-28712000D01*
X59175000Y-28713000D01*
X59522000Y-29060000D01*
X59523000Y-29061000D01*
X59524000Y-29062000D01*
X59525000Y-29063000D01*
X59526000Y-29064000D01*
X59527000Y-29065000D01*
X59528000Y-29065000D01*
X59529000Y-29066000D01*
X59530000Y-29067000D01*
X59532000Y-29068000D01*
X59533000Y-29068000D01*
X59534000Y-29069000D01*
X59535000Y-29070000D01*
X59536000Y-29070000D01*
X59537000Y-29071000D01*
X59539000Y-29071000D01*
X59540000Y-29072000D01*
X59541000Y-29072000D01*
X59542000Y-29073000D01*
X59544000Y-29073000D01*
X59545000Y-29073000D01*
X59546000Y-29074000D01*
X59547000Y-29074000D01*
X59549000Y-29074000D01*
X59550000Y-29074000D01*
X59551000Y-29075000D01*
X59552000Y-29075000D01*
X59554000Y-29075000D01*
X59555000Y-29075000D01*
X59556000Y-29075000D01*
X59558000Y-29075000D01*
X59765000Y-29075000D01*
X59768000Y-29075000D01*
X59770000Y-29075000D01*
X59773000Y-29076000D01*
X59775000Y-29076000D01*
X59778000Y-29077000D01*
X59780000Y-29077000D01*
X59783000Y-29078000D01*
X59785000Y-29079000D01*
X59788000Y-29080000D01*
X59790000Y-29082000D01*
X59792000Y-29083000D01*
X59794000Y-29085000D01*
X59796000Y-29086000D01*
X59798000Y-29088000D01*
X59800000Y-29090000D01*
X59802000Y-29092000D01*
X59804000Y-29094000D01*
X59805000Y-29096000D01*
X59807000Y-29098000D01*
X59808000Y-29100000D01*
X59810000Y-29102000D01*
X59811000Y-29105000D01*
X59812000Y-29107000D01*
X59813000Y-29110000D01*
X59813000Y-29112000D01*
X59814000Y-29115000D01*
X59814000Y-29117000D01*
X59815000Y-29120000D01*
X59815000Y-29122000D01*
X59815000Y-29125000D01*
X59815000Y-29600000D01*
X59815000Y-29603000D01*
X59815000Y-29605000D01*
X59814000Y-29608000D01*
X59814000Y-29610000D01*
X59813000Y-29613000D01*
X59813000Y-29615000D01*
X59812000Y-29618000D01*
X59811000Y-29620000D01*
X59810000Y-29623000D01*
X59808000Y-29625000D01*
X59807000Y-29627000D01*
X59805000Y-29629000D01*
X59804000Y-29631000D01*
X59802000Y-29633000D01*
X59800000Y-29635000D01*
X59798000Y-29637000D01*
X59796000Y-29639000D01*
X59794000Y-29640000D01*
X59792000Y-29642000D01*
X59790000Y-29643000D01*
X59788000Y-29645000D01*
X59785000Y-29646000D01*
X59783000Y-29647000D01*
X59780000Y-29648000D01*
X59778000Y-29648000D01*
X59775000Y-29649000D01*
X59773000Y-29649000D01*
X59770000Y-29650000D01*
X59768000Y-29650000D01*
X59765000Y-29650000D01*
X59640000Y-29650000D01*
X59637000Y-29650000D01*
X59635000Y-29650000D01*
X59632000Y-29651000D01*
X59630000Y-29651000D01*
X59627000Y-29652000D01*
X59625000Y-29652000D01*
X59622000Y-29653000D01*
X59620000Y-29654000D01*
X59617000Y-29655000D01*
X59615000Y-29657000D01*
X59613000Y-29658000D01*
X59611000Y-29660000D01*
X59609000Y-29661000D01*
X59607000Y-29663000D01*
X59605000Y-29665000D01*
X59603000Y-29667000D01*
X59601000Y-29669000D01*
X59600000Y-29671000D01*
X59598000Y-29673000D01*
X59597000Y-29675000D01*
X59595000Y-29677000D01*
X59594000Y-29680000D01*
X59593000Y-29682000D01*
X59592000Y-29685000D01*
X59592000Y-29687000D01*
X59591000Y-29690000D01*
X59591000Y-29692000D01*
X59590000Y-29695000D01*
X59590000Y-29697000D01*
X59590000Y-29700000D01*
X59590000Y-30000000D01*
X59590000Y-30003000D01*
X59590000Y-30005000D01*
X59589000Y-30008000D01*
X59589000Y-30010000D01*
X59588000Y-30013000D01*
X59588000Y-30015000D01*
X59587000Y-30018000D01*
X59586000Y-30020000D01*
X59585000Y-30023000D01*
X59583000Y-30025000D01*
X59582000Y-30027000D01*
X59580000Y-30029000D01*
X59579000Y-30031000D01*
X59577000Y-30033000D01*
X59575000Y-30035000D01*
X59573000Y-30037000D01*
X59571000Y-30039000D01*
X59569000Y-30040000D01*
X59567000Y-30042000D01*
X59565000Y-30043000D01*
X59563000Y-30045000D01*
X59560000Y-30046000D01*
X59558000Y-30047000D01*
X59555000Y-30048000D01*
X59553000Y-30048000D01*
X59550000Y-30049000D01*
X59548000Y-30049000D01*
X59545000Y-30050000D01*
X59543000Y-30050000D01*
X59540000Y-30050000D01*
X59390000Y-30050000D01*
X59387000Y-30050000D01*
X59385000Y-30050000D01*
X59382000Y-30049000D01*
X59380000Y-30049000D01*
X59377000Y-30048000D01*
X59375000Y-30048000D01*
X59372000Y-30047000D01*
X59370000Y-30046000D01*
X59367000Y-30045000D01*
X59365000Y-30043000D01*
X59363000Y-30042000D01*
X59361000Y-30040000D01*
X59359000Y-30039000D01*
X59357000Y-30037000D01*
X59355000Y-30035000D01*
X59353000Y-30033000D01*
X59351000Y-30031000D01*
X59350000Y-30029000D01*
X59348000Y-30027000D01*
X59347000Y-30025000D01*
X59345000Y-30023000D01*
X59344000Y-30020000D01*
X59343000Y-30018000D01*
X59342000Y-30015000D01*
X59342000Y-30013000D01*
X59341000Y-30010000D01*
X59341000Y-30008000D01*
X59340000Y-30005000D01*
X59340000Y-30003000D01*
X59340000Y-30000000D01*
X59340000Y-29700000D01*
X59340000Y-29697000D01*
X59340000Y-29695000D01*
X59339000Y-29692000D01*
X59339000Y-29690000D01*
X59338000Y-29687000D01*
X59338000Y-29685000D01*
X59337000Y-29682000D01*
X59336000Y-29680000D01*
X59335000Y-29677000D01*
X59333000Y-29675000D01*
X59332000Y-29673000D01*
X59330000Y-29671000D01*
X59329000Y-29669000D01*
X59327000Y-29667000D01*
X59325000Y-29665000D01*
X59323000Y-29663000D01*
X59321000Y-29661000D01*
X59319000Y-29660000D01*
X59317000Y-29658000D01*
X59315000Y-29657000D01*
X59313000Y-29655000D01*
X59310000Y-29654000D01*
X59308000Y-29653000D01*
X59305000Y-29652000D01*
X59303000Y-29652000D01*
X59300000Y-29651000D01*
X59298000Y-29651000D01*
X59295000Y-29650000D01*
X59293000Y-29650000D01*
X59290000Y-29650000D01*
X59140000Y-29650000D01*
X59137000Y-29650000D01*
X59135000Y-29650000D01*
X59132000Y-29651000D01*
X59130000Y-29651000D01*
X59127000Y-29652000D01*
X59125000Y-29652000D01*
X59122000Y-29653000D01*
X59120000Y-29654000D01*
X59117000Y-29655000D01*
X59115000Y-29657000D01*
X59113000Y-29658000D01*
X59111000Y-29660000D01*
X59109000Y-29661000D01*
X59107000Y-29663000D01*
X59105000Y-29665000D01*
X59103000Y-29667000D01*
X59101000Y-29669000D01*
X59100000Y-29671000D01*
X59098000Y-29673000D01*
X59097000Y-29675000D01*
X59095000Y-29677000D01*
X59094000Y-29680000D01*
X59093000Y-29682000D01*
X59092000Y-29685000D01*
X59092000Y-29687000D01*
X59091000Y-29690000D01*
X59091000Y-29692000D01*
X59090000Y-29695000D01*
X59090000Y-29697000D01*
X59090000Y-29700000D01*
X59090000Y-30000000D01*
X59090000Y-30003000D01*
X59090000Y-30005000D01*
X59089000Y-30008000D01*
X59089000Y-30010000D01*
X59088000Y-30013000D01*
X59088000Y-30015000D01*
X59087000Y-30018000D01*
X59086000Y-30020000D01*
X59085000Y-30023000D01*
X59083000Y-30025000D01*
X59082000Y-30027000D01*
X59080000Y-30029000D01*
X59079000Y-30031000D01*
X59077000Y-30033000D01*
X59075000Y-30035000D01*
X59073000Y-30037000D01*
X59071000Y-30039000D01*
X59069000Y-30040000D01*
X59067000Y-30042000D01*
X59065000Y-30043000D01*
X59063000Y-30045000D01*
X59060000Y-30046000D01*
X59058000Y-30047000D01*
X59055000Y-30048000D01*
X59053000Y-30048000D01*
X59050000Y-30049000D01*
X59048000Y-30049000D01*
X59045000Y-30050000D01*
X59043000Y-30050000D01*
X59040000Y-30050000D01*
X58890000Y-30050000D01*
X58887000Y-30050000D01*
X58885000Y-30050000D01*
X58882000Y-30049000D01*
X58880000Y-30049000D01*
X58877000Y-30048000D01*
X58875000Y-30048000D01*
X58872000Y-30047000D01*
X58870000Y-30046000D01*
X58867000Y-30045000D01*
X58865000Y-30043000D01*
X58863000Y-30042000D01*
X58861000Y-30040000D01*
X58859000Y-30039000D01*
X58857000Y-30037000D01*
X58855000Y-30035000D01*
X58853000Y-30033000D01*
X58851000Y-30031000D01*
X58850000Y-30029000D01*
X58848000Y-30027000D01*
X58847000Y-30025000D01*
X58845000Y-30023000D01*
X58844000Y-30020000D01*
X58843000Y-30018000D01*
X58842000Y-30015000D01*
X58842000Y-30013000D01*
X58841000Y-30010000D01*
X58841000Y-30008000D01*
X58840000Y-30005000D01*
X58840000Y-30003000D01*
X58840000Y-30000000D01*
X58840000Y-29700000D01*
X58840000Y-29697000D01*
X58840000Y-29695000D01*
X58839000Y-29692000D01*
X58839000Y-29690000D01*
X58838000Y-29687000D01*
X58838000Y-29685000D01*
X58837000Y-29682000D01*
X58836000Y-29680000D01*
X58835000Y-29677000D01*
X58833000Y-29675000D01*
X58832000Y-29673000D01*
X58830000Y-29671000D01*
X58829000Y-29669000D01*
X58827000Y-29667000D01*
X58825000Y-29665000D01*
X58823000Y-29663000D01*
X58821000Y-29661000D01*
X58819000Y-29660000D01*
X58817000Y-29658000D01*
X58815000Y-29657000D01*
X58813000Y-29655000D01*
X58810000Y-29654000D01*
X58808000Y-29653000D01*
X58805000Y-29652000D01*
X58803000Y-29652000D01*
X58800000Y-29651000D01*
X58798000Y-29651000D01*
X58795000Y-29650000D01*
X58793000Y-29650000D01*
X58790000Y-29650000D01*
X58787000Y-29650000D01*
X58785000Y-29650000D01*
X58782000Y-29649000D01*
X58780000Y-29649000D01*
X58777000Y-29648000D01*
X58775000Y-29648000D01*
X58772000Y-29647000D01*
X58770000Y-29646000D01*
X58767000Y-29645000D01*
X58765000Y-29643000D01*
X58763000Y-29642000D01*
X58761000Y-29640000D01*
X58759000Y-29639000D01*
X58757000Y-29637000D01*
X58755000Y-29635000D01*
X58753000Y-29633000D01*
X58751000Y-29631000D01*
X58750000Y-29629000D01*
X58748000Y-29627000D01*
X58747000Y-29625000D01*
X58745000Y-29623000D01*
X58744000Y-29620000D01*
X58743000Y-29618000D01*
X58742000Y-29615000D01*
X58742000Y-29613000D01*
X58741000Y-29610000D01*
X58741000Y-29608000D01*
X58740000Y-29605000D01*
X58740000Y-29603000D01*
X58740000Y-29600000D01*
X58740000Y-28555000D01*
X58740000Y-28552000D01*
X58740000Y-28550000D01*
X58741000Y-28547000D01*
X58741000Y-28545000D01*
X58742000Y-28542000D01*
X58742000Y-28540000D01*
X58743000Y-28537000D01*
X58744000Y-28535000D01*
X58745000Y-28532000D01*
X58747000Y-28530000D01*
X58748000Y-28528000D01*
X58750000Y-28526000D01*
X58751000Y-28524000D01*
X58753000Y-28522000D01*
X58755000Y-28520000D01*
X58757000Y-28518000D01*
X58759000Y-28516000D01*
X58761000Y-28515000D01*
X58763000Y-28513000D01*
X58765000Y-28512000D01*
X58767000Y-28510000D01*
X58770000Y-28509000D01*
X58772000Y-28508000D01*
X58775000Y-28507000D01*
X58777000Y-28507000D01*
X58780000Y-28506000D01*
X58782000Y-28506000D01*
X58785000Y-28505000D01*
X58787000Y-28505000D01*
X58790000Y-28505000D01*
X59110000Y-28505000D01*
X59113000Y-28505000D01*
X59115000Y-28505000D01*
X59118000Y-28506000D01*
G36*
X59118000Y-28506000D02*
G01*
X59120000Y-28506000D01*
X59123000Y-28507000D01*
X59125000Y-28507000D01*
X59128000Y-28508000D01*
X59130000Y-28509000D01*
X59133000Y-28510000D01*
X59135000Y-28512000D01*
X59137000Y-28513000D01*
X59139000Y-28515000D01*
X59141000Y-28516000D01*
X59143000Y-28518000D01*
X59145000Y-28520000D01*
X59147000Y-28522000D01*
X59149000Y-28524000D01*
X59150000Y-28526000D01*
X59152000Y-28528000D01*
X59153000Y-28530000D01*
X59155000Y-28532000D01*
X59156000Y-28535000D01*
X59157000Y-28537000D01*
X59158000Y-28540000D01*
X59158000Y-28542000D01*
X59159000Y-28545000D01*
X59159000Y-28547000D01*
X59160000Y-28550000D01*
X59160000Y-28552000D01*
X59160000Y-28555000D01*
X59160000Y-28677000D01*
X59160000Y-28679000D01*
X59160000Y-28680000D01*
X59160000Y-28681000D01*
X59160000Y-28683000D01*
X59160000Y-28684000D01*
X59161000Y-28685000D01*
X59161000Y-28686000D01*
X59161000Y-28688000D01*
X59161000Y-28689000D01*
X59162000Y-28690000D01*
X59162000Y-28691000D01*
X59162000Y-28693000D01*
X59163000Y-28694000D01*
X59163000Y-28695000D01*
X59164000Y-28696000D01*
X59164000Y-28698000D01*
X59165000Y-28699000D01*
X59165000Y-28700000D01*
X59166000Y-28701000D01*
X59167000Y-28702000D01*
X59167000Y-28703000D01*
X59168000Y-28705000D01*
X59169000Y-28706000D01*
X59170000Y-28707000D01*
X59170000Y-28708000D01*
X59171000Y-28709000D01*
X59172000Y-28710000D01*
X59173000Y-28711000D01*
X59174000Y-28712000D01*
X59175000Y-28713000D01*
X59522000Y-29060000D01*
X59523000Y-29061000D01*
X59524000Y-29062000D01*
X59525000Y-29063000D01*
X59526000Y-29064000D01*
X59527000Y-29065000D01*
X59528000Y-29065000D01*
X59529000Y-29066000D01*
X59530000Y-29067000D01*
X59532000Y-29068000D01*
X59533000Y-29068000D01*
X59534000Y-29069000D01*
X59535000Y-29070000D01*
X59536000Y-29070000D01*
X59537000Y-29071000D01*
X59539000Y-29071000D01*
X59540000Y-29072000D01*
X59541000Y-29072000D01*
X59542000Y-29073000D01*
X59544000Y-29073000D01*
X59545000Y-29073000D01*
X59546000Y-29074000D01*
X59547000Y-29074000D01*
X59549000Y-29074000D01*
X59550000Y-29074000D01*
X59551000Y-29075000D01*
X59552000Y-29075000D01*
X59554000Y-29075000D01*
X59555000Y-29075000D01*
X59556000Y-29075000D01*
X59558000Y-29075000D01*
X59765000Y-29075000D01*
X59768000Y-29075000D01*
X59770000Y-29075000D01*
X59773000Y-29076000D01*
X59775000Y-29076000D01*
X59778000Y-29077000D01*
X59780000Y-29077000D01*
X59783000Y-29078000D01*
X59785000Y-29079000D01*
X59788000Y-29080000D01*
X59790000Y-29082000D01*
X59792000Y-29083000D01*
X59794000Y-29085000D01*
X59796000Y-29086000D01*
X59798000Y-29088000D01*
X59800000Y-29090000D01*
X59802000Y-29092000D01*
X59804000Y-29094000D01*
X59805000Y-29096000D01*
X59807000Y-29098000D01*
X59808000Y-29100000D01*
X59810000Y-29102000D01*
X59811000Y-29105000D01*
X59812000Y-29107000D01*
X59813000Y-29110000D01*
X59813000Y-29112000D01*
X59814000Y-29115000D01*
X59814000Y-29117000D01*
X59815000Y-29120000D01*
X59815000Y-29122000D01*
X59815000Y-29125000D01*
X59815000Y-29600000D01*
X59815000Y-29603000D01*
X59815000Y-29605000D01*
X59814000Y-29608000D01*
X59814000Y-29610000D01*
X59813000Y-29613000D01*
X59813000Y-29615000D01*
X59812000Y-29618000D01*
X59811000Y-29620000D01*
X59810000Y-29623000D01*
X59808000Y-29625000D01*
X59807000Y-29627000D01*
X59805000Y-29629000D01*
X59804000Y-29631000D01*
X59802000Y-29633000D01*
X59800000Y-29635000D01*
X59798000Y-29637000D01*
X59796000Y-29639000D01*
X59794000Y-29640000D01*
X59792000Y-29642000D01*
X59790000Y-29643000D01*
X59788000Y-29645000D01*
X59785000Y-29646000D01*
X59783000Y-29647000D01*
X59780000Y-29648000D01*
X59778000Y-29648000D01*
X59775000Y-29649000D01*
X59773000Y-29649000D01*
X59770000Y-29650000D01*
X59768000Y-29650000D01*
X59765000Y-29650000D01*
X59640000Y-29650000D01*
X59637000Y-29650000D01*
X59635000Y-29650000D01*
X59632000Y-29651000D01*
X59630000Y-29651000D01*
X59627000Y-29652000D01*
X59625000Y-29652000D01*
X59622000Y-29653000D01*
X59620000Y-29654000D01*
X59617000Y-29655000D01*
X59615000Y-29657000D01*
X59613000Y-29658000D01*
X59611000Y-29660000D01*
X59609000Y-29661000D01*
X59607000Y-29663000D01*
X59605000Y-29665000D01*
X59603000Y-29667000D01*
X59601000Y-29669000D01*
X59600000Y-29671000D01*
X59598000Y-29673000D01*
X59597000Y-29675000D01*
X59595000Y-29677000D01*
X59594000Y-29680000D01*
X59593000Y-29682000D01*
X59592000Y-29685000D01*
X59592000Y-29687000D01*
X59591000Y-29690000D01*
X59591000Y-29692000D01*
X59590000Y-29695000D01*
X59590000Y-29697000D01*
X59590000Y-29700000D01*
X59590000Y-30000000D01*
X59590000Y-30003000D01*
X59590000Y-30005000D01*
X59589000Y-30008000D01*
X59589000Y-30010000D01*
X59588000Y-30013000D01*
X59588000Y-30015000D01*
X59587000Y-30018000D01*
X59586000Y-30020000D01*
X59585000Y-30023000D01*
X59583000Y-30025000D01*
X59582000Y-30027000D01*
X59580000Y-30029000D01*
X59579000Y-30031000D01*
X59577000Y-30033000D01*
X59575000Y-30035000D01*
X59573000Y-30037000D01*
X59571000Y-30039000D01*
X59569000Y-30040000D01*
X59567000Y-30042000D01*
X59565000Y-30043000D01*
X59563000Y-30045000D01*
X59560000Y-30046000D01*
X59558000Y-30047000D01*
X59555000Y-30048000D01*
X59553000Y-30048000D01*
X59550000Y-30049000D01*
X59548000Y-30049000D01*
X59545000Y-30050000D01*
X59543000Y-30050000D01*
X59540000Y-30050000D01*
X59390000Y-30050000D01*
X59387000Y-30050000D01*
X59385000Y-30050000D01*
X59382000Y-30049000D01*
X59380000Y-30049000D01*
X59377000Y-30048000D01*
X59375000Y-30048000D01*
X59372000Y-30047000D01*
X59370000Y-30046000D01*
X59367000Y-30045000D01*
X59365000Y-30043000D01*
X59363000Y-30042000D01*
X59361000Y-30040000D01*
X59359000Y-30039000D01*
X59357000Y-30037000D01*
X59355000Y-30035000D01*
X59353000Y-30033000D01*
X59351000Y-30031000D01*
X59350000Y-30029000D01*
X59348000Y-30027000D01*
X59347000Y-30025000D01*
X59345000Y-30023000D01*
X59344000Y-30020000D01*
X59343000Y-30018000D01*
X59342000Y-30015000D01*
X59342000Y-30013000D01*
X59341000Y-30010000D01*
X59341000Y-30008000D01*
X59340000Y-30005000D01*
X59340000Y-30003000D01*
X59340000Y-30000000D01*
X59340000Y-29700000D01*
X59340000Y-29697000D01*
X59340000Y-29695000D01*
X59339000Y-29692000D01*
X59339000Y-29690000D01*
X59338000Y-29687000D01*
X59338000Y-29685000D01*
X59337000Y-29682000D01*
X59336000Y-29680000D01*
X59335000Y-29677000D01*
X59333000Y-29675000D01*
X59332000Y-29673000D01*
X59330000Y-29671000D01*
X59329000Y-29669000D01*
X59327000Y-29667000D01*
X59325000Y-29665000D01*
X59323000Y-29663000D01*
X59321000Y-29661000D01*
X59319000Y-29660000D01*
X59317000Y-29658000D01*
X59315000Y-29657000D01*
X59313000Y-29655000D01*
X59310000Y-29654000D01*
X59308000Y-29653000D01*
X59305000Y-29652000D01*
X59303000Y-29652000D01*
X59300000Y-29651000D01*
X59298000Y-29651000D01*
X59295000Y-29650000D01*
X59293000Y-29650000D01*
X59290000Y-29650000D01*
X59140000Y-29650000D01*
X59137000Y-29650000D01*
X59135000Y-29650000D01*
X59132000Y-29651000D01*
X59130000Y-29651000D01*
X59127000Y-29652000D01*
X59125000Y-29652000D01*
X59122000Y-29653000D01*
X59120000Y-29654000D01*
X59117000Y-29655000D01*
X59115000Y-29657000D01*
X59113000Y-29658000D01*
X59111000Y-29660000D01*
X59109000Y-29661000D01*
X59107000Y-29663000D01*
X59105000Y-29665000D01*
X59103000Y-29667000D01*
X59101000Y-29669000D01*
X59100000Y-29671000D01*
X59098000Y-29673000D01*
X59097000Y-29675000D01*
X59095000Y-29677000D01*
X59094000Y-29680000D01*
X59093000Y-29682000D01*
X59092000Y-29685000D01*
X59092000Y-29687000D01*
X59091000Y-29690000D01*
X59091000Y-29692000D01*
X59090000Y-29695000D01*
X59090000Y-29697000D01*
X59090000Y-29700000D01*
X59090000Y-30000000D01*
X59090000Y-30003000D01*
X59090000Y-30005000D01*
X59089000Y-30008000D01*
X59089000Y-30010000D01*
X59088000Y-30013000D01*
X59088000Y-30015000D01*
X59087000Y-30018000D01*
X59086000Y-30020000D01*
X59085000Y-30023000D01*
X59083000Y-30025000D01*
X59082000Y-30027000D01*
X59080000Y-30029000D01*
X59079000Y-30031000D01*
X59077000Y-30033000D01*
X59075000Y-30035000D01*
X59073000Y-30037000D01*
X59071000Y-30039000D01*
X59069000Y-30040000D01*
X59067000Y-30042000D01*
X59065000Y-30043000D01*
X59063000Y-30045000D01*
X59060000Y-30046000D01*
X59058000Y-30047000D01*
X59055000Y-30048000D01*
X59053000Y-30048000D01*
X59050000Y-30049000D01*
X59048000Y-30049000D01*
X59045000Y-30050000D01*
X59043000Y-30050000D01*
X59040000Y-30050000D01*
X58890000Y-30050000D01*
X58887000Y-30050000D01*
X58885000Y-30050000D01*
X58882000Y-30049000D01*
X58880000Y-30049000D01*
X58877000Y-30048000D01*
X58875000Y-30048000D01*
X58872000Y-30047000D01*
X58870000Y-30046000D01*
X58867000Y-30045000D01*
X58865000Y-30043000D01*
X58863000Y-30042000D01*
X58861000Y-30040000D01*
X58859000Y-30039000D01*
X58857000Y-30037000D01*
X58855000Y-30035000D01*
X58853000Y-30033000D01*
X58851000Y-30031000D01*
X58850000Y-30029000D01*
X58848000Y-30027000D01*
X58847000Y-30025000D01*
X58845000Y-30023000D01*
X58844000Y-30020000D01*
X58843000Y-30018000D01*
X58842000Y-30015000D01*
X58842000Y-30013000D01*
X58841000Y-30010000D01*
X58841000Y-30008000D01*
X58840000Y-30005000D01*
X58840000Y-30003000D01*
X58840000Y-30000000D01*
X58840000Y-29700000D01*
X58840000Y-29697000D01*
X58840000Y-29695000D01*
X58839000Y-29692000D01*
X58839000Y-29690000D01*
X58838000Y-29687000D01*
X58838000Y-29685000D01*
X58837000Y-29682000D01*
X58836000Y-29680000D01*
X58835000Y-29677000D01*
X58833000Y-29675000D01*
X58832000Y-29673000D01*
X58830000Y-29671000D01*
X58829000Y-29669000D01*
X58827000Y-29667000D01*
X58825000Y-29665000D01*
X58823000Y-29663000D01*
X58821000Y-29661000D01*
X58819000Y-29660000D01*
X58817000Y-29658000D01*
X58815000Y-29657000D01*
X58813000Y-29655000D01*
X58810000Y-29654000D01*
X58808000Y-29653000D01*
X58805000Y-29652000D01*
X58803000Y-29652000D01*
X58800000Y-29651000D01*
X58798000Y-29651000D01*
X58795000Y-29650000D01*
X58793000Y-29650000D01*
X58790000Y-29650000D01*
X58787000Y-29650000D01*
X58785000Y-29650000D01*
X58782000Y-29649000D01*
X58780000Y-29649000D01*
X58777000Y-29648000D01*
X58775000Y-29648000D01*
X58772000Y-29647000D01*
X58770000Y-29646000D01*
X58767000Y-29645000D01*
X58765000Y-29643000D01*
X58763000Y-29642000D01*
X58761000Y-29640000D01*
X58759000Y-29639000D01*
X58757000Y-29637000D01*
X58755000Y-29635000D01*
X58753000Y-29633000D01*
X58751000Y-29631000D01*
X58750000Y-29629000D01*
X58748000Y-29627000D01*
X58747000Y-29625000D01*
X58745000Y-29623000D01*
X58744000Y-29620000D01*
X58743000Y-29618000D01*
X58742000Y-29615000D01*
X58742000Y-29613000D01*
X58741000Y-29610000D01*
X58741000Y-29608000D01*
X58740000Y-29605000D01*
X58740000Y-29603000D01*
X58740000Y-29600000D01*
X58740000Y-28555000D01*
X58740000Y-28552000D01*
X58740000Y-28550000D01*
X58741000Y-28547000D01*
X58741000Y-28545000D01*
X58742000Y-28542000D01*
X58742000Y-28540000D01*
X58743000Y-28537000D01*
X58744000Y-28535000D01*
X58745000Y-28532000D01*
X58747000Y-28530000D01*
X58748000Y-28528000D01*
X58750000Y-28526000D01*
X58751000Y-28524000D01*
X58753000Y-28522000D01*
X58755000Y-28520000D01*
X58757000Y-28518000D01*
X58759000Y-28516000D01*
X58761000Y-28515000D01*
X58763000Y-28513000D01*
X58765000Y-28512000D01*
X58767000Y-28510000D01*
X58770000Y-28509000D01*
X58772000Y-28508000D01*
X58775000Y-28507000D01*
X58777000Y-28507000D01*
X58780000Y-28506000D01*
X58782000Y-28506000D01*
X58785000Y-28505000D01*
X58787000Y-28505000D01*
X58790000Y-28505000D01*
X59110000Y-28505000D01*
X59113000Y-28505000D01*
X59115000Y-28505000D01*
X59118000Y-28506000D01*
G37*
X59048000Y-26351000D02*
X59050000Y-26351000D01*
X59053000Y-26352000D01*
X59055000Y-26352000D01*
X59058000Y-26353000D01*
X59060000Y-26354000D01*
X59063000Y-26355000D01*
X59065000Y-26357000D01*
X59067000Y-26358000D01*
X59069000Y-26360000D01*
X59071000Y-26361000D01*
X59073000Y-26363000D01*
X59075000Y-26365000D01*
X59077000Y-26367000D01*
X59079000Y-26369000D01*
X59080000Y-26371000D01*
X59082000Y-26373000D01*
X59083000Y-26375000D01*
X59085000Y-26377000D01*
X59086000Y-26380000D01*
X59087000Y-26382000D01*
X59088000Y-26385000D01*
X59088000Y-26387000D01*
X59089000Y-26390000D01*
X59089000Y-26392000D01*
X59090000Y-26395000D01*
X59090000Y-26397000D01*
X59090000Y-26400000D01*
X59090000Y-26700000D01*
X59090000Y-26703000D01*
X59090000Y-26705000D01*
X59091000Y-26708000D01*
X59091000Y-26710000D01*
X59092000Y-26713000D01*
X59092000Y-26715000D01*
X59093000Y-26718000D01*
X59094000Y-26720000D01*
X59095000Y-26723000D01*
X59097000Y-26725000D01*
X59098000Y-26727000D01*
X59100000Y-26729000D01*
X59101000Y-26731000D01*
X59103000Y-26733000D01*
X59105000Y-26735000D01*
X59107000Y-26737000D01*
X59109000Y-26739000D01*
X59111000Y-26740000D01*
X59113000Y-26742000D01*
X59115000Y-26743000D01*
X59117000Y-26745000D01*
X59120000Y-26746000D01*
X59122000Y-26747000D01*
X59125000Y-26748000D01*
X59127000Y-26748000D01*
X59130000Y-26749000D01*
X59132000Y-26749000D01*
X59135000Y-26750000D01*
X59137000Y-26750000D01*
X59140000Y-26750000D01*
X59290000Y-26750000D01*
X59293000Y-26750000D01*
X59295000Y-26750000D01*
X59298000Y-26749000D01*
X59300000Y-26749000D01*
X59303000Y-26748000D01*
X59305000Y-26748000D01*
X59308000Y-26747000D01*
X59310000Y-26746000D01*
X59313000Y-26745000D01*
X59315000Y-26743000D01*
X59317000Y-26742000D01*
X59319000Y-26740000D01*
X59321000Y-26739000D01*
X59323000Y-26737000D01*
X59325000Y-26735000D01*
X59327000Y-26733000D01*
X59329000Y-26731000D01*
X59330000Y-26729000D01*
X59332000Y-26727000D01*
X59333000Y-26725000D01*
X59335000Y-26723000D01*
X59336000Y-26720000D01*
X59337000Y-26718000D01*
X59338000Y-26715000D01*
X59338000Y-26713000D01*
X59339000Y-26710000D01*
X59339000Y-26708000D01*
X59340000Y-26705000D01*
X59340000Y-26703000D01*
X59340000Y-26700000D01*
X59340000Y-26400000D01*
X59340000Y-26397000D01*
X59340000Y-26395000D01*
X59341000Y-26392000D01*
X59341000Y-26390000D01*
X59342000Y-26387000D01*
X59342000Y-26385000D01*
X59343000Y-26382000D01*
X59344000Y-26380000D01*
X59345000Y-26377000D01*
X59347000Y-26375000D01*
X59348000Y-26373000D01*
X59350000Y-26371000D01*
X59351000Y-26369000D01*
X59353000Y-26367000D01*
X59355000Y-26365000D01*
X59357000Y-26363000D01*
X59359000Y-26361000D01*
X59361000Y-26360000D01*
X59363000Y-26358000D01*
X59365000Y-26357000D01*
X59367000Y-26355000D01*
X59370000Y-26354000D01*
X59372000Y-26353000D01*
X59375000Y-26352000D01*
X59377000Y-26352000D01*
X59380000Y-26351000D01*
X59382000Y-26351000D01*
X59385000Y-26350000D01*
X59387000Y-26350000D01*
X59390000Y-26350000D01*
X59540000Y-26350000D01*
X59543000Y-26350000D01*
X59545000Y-26350000D01*
X59548000Y-26351000D01*
X59550000Y-26351000D01*
X59553000Y-26352000D01*
X59555000Y-26352000D01*
X59558000Y-26353000D01*
X59560000Y-26354000D01*
X59563000Y-26355000D01*
X59565000Y-26357000D01*
X59567000Y-26358000D01*
X59569000Y-26360000D01*
X59571000Y-26361000D01*
X59573000Y-26363000D01*
X59575000Y-26365000D01*
X59577000Y-26367000D01*
X59579000Y-26369000D01*
X59580000Y-26371000D01*
X59582000Y-26373000D01*
X59583000Y-26375000D01*
X59585000Y-26377000D01*
X59586000Y-26380000D01*
X59587000Y-26382000D01*
X59588000Y-26385000D01*
X59588000Y-26387000D01*
X59589000Y-26390000D01*
X59589000Y-26392000D01*
X59590000Y-26395000D01*
X59590000Y-26397000D01*
X59590000Y-26400000D01*
X59590000Y-26700000D01*
X59590000Y-26703000D01*
X59590000Y-26705000D01*
X59591000Y-26708000D01*
X59591000Y-26710000D01*
X59592000Y-26713000D01*
X59592000Y-26715000D01*
X59593000Y-26718000D01*
X59594000Y-26720000D01*
X59595000Y-26723000D01*
X59597000Y-26725000D01*
X59598000Y-26727000D01*
X59600000Y-26729000D01*
X59601000Y-26731000D01*
X59603000Y-26733000D01*
X59605000Y-26735000D01*
X59607000Y-26737000D01*
X59609000Y-26739000D01*
X59611000Y-26740000D01*
X59613000Y-26742000D01*
X59615000Y-26743000D01*
X59617000Y-26745000D01*
X59620000Y-26746000D01*
X59622000Y-26747000D01*
X59625000Y-26748000D01*
X59627000Y-26748000D01*
X59630000Y-26749000D01*
X59632000Y-26749000D01*
X59635000Y-26750000D01*
X59637000Y-26750000D01*
X59640000Y-26750000D01*
X59765000Y-26750000D01*
X59768000Y-26750000D01*
X59770000Y-26750000D01*
X59773000Y-26751000D01*
X59775000Y-26751000D01*
X59778000Y-26752000D01*
X59780000Y-26752000D01*
X59783000Y-26753000D01*
X59785000Y-26754000D01*
X59788000Y-26755000D01*
X59790000Y-26757000D01*
X59792000Y-26758000D01*
X59794000Y-26760000D01*
X59796000Y-26761000D01*
X59798000Y-26763000D01*
X59800000Y-26765000D01*
X59802000Y-26767000D01*
X59804000Y-26769000D01*
X59805000Y-26771000D01*
X59807000Y-26773000D01*
X59808000Y-26775000D01*
X59810000Y-26777000D01*
X59811000Y-26780000D01*
X59812000Y-26782000D01*
X59813000Y-26785000D01*
X59813000Y-26787000D01*
X59814000Y-26790000D01*
X59814000Y-26792000D01*
X59815000Y-26795000D01*
X59815000Y-26797000D01*
X59815000Y-26800000D01*
X59815000Y-27275000D01*
X59815000Y-27278000D01*
X59815000Y-27280000D01*
X59814000Y-27283000D01*
X59814000Y-27285000D01*
X59813000Y-27288000D01*
X59813000Y-27290000D01*
X59812000Y-27293000D01*
X59811000Y-27295000D01*
X59810000Y-27298000D01*
X59808000Y-27300000D01*
X59807000Y-27302000D01*
X59805000Y-27304000D01*
X59804000Y-27306000D01*
X59802000Y-27308000D01*
X59800000Y-27310000D01*
X59798000Y-27312000D01*
X59796000Y-27314000D01*
X59794000Y-27315000D01*
X59792000Y-27317000D01*
X59790000Y-27318000D01*
X59788000Y-27320000D01*
X59785000Y-27321000D01*
X59783000Y-27322000D01*
X59780000Y-27323000D01*
X59778000Y-27323000D01*
X59775000Y-27324000D01*
X59773000Y-27324000D01*
X59770000Y-27325000D01*
X59768000Y-27325000D01*
X59765000Y-27325000D01*
X59558000Y-27325000D01*
X59556000Y-27325000D01*
X59555000Y-27325000D01*
X59554000Y-27325000D01*
X59552000Y-27325000D01*
X59551000Y-27325000D01*
X59550000Y-27326000D01*
X59549000Y-27326000D01*
X59547000Y-27326000D01*
X59546000Y-27326000D01*
X59545000Y-27327000D01*
X59544000Y-27327000D01*
X59542000Y-27327000D01*
X59541000Y-27328000D01*
X59540000Y-27328000D01*
X59539000Y-27329000D01*
X59537000Y-27329000D01*
X59536000Y-27330000D01*
X59535000Y-27330000D01*
X59534000Y-27331000D01*
X59533000Y-27332000D01*
X59532000Y-27332000D01*
X59530000Y-27333000D01*
X59529000Y-27334000D01*
X59528000Y-27335000D01*
X59527000Y-27335000D01*
X59526000Y-27336000D01*
X59525000Y-27337000D01*
X59524000Y-27338000D01*
X59523000Y-27339000D01*
X59522000Y-27340000D01*
X59175000Y-27687000D01*
X59174000Y-27688000D01*
X59173000Y-27689000D01*
X59172000Y-27690000D01*
X59171000Y-27691000D01*
X59170000Y-27692000D01*
X59170000Y-27693000D01*
X59169000Y-27694000D01*
X59168000Y-27695000D01*
X59167000Y-27697000D01*
X59167000Y-27698000D01*
X59166000Y-27699000D01*
X59165000Y-27700000D01*
X59165000Y-27701000D01*
X59164000Y-27702000D01*
X59164000Y-27704000D01*
X59163000Y-27705000D01*
X59163000Y-27706000D01*
X59162000Y-27707000D01*
X59162000Y-27709000D01*
X59162000Y-27710000D01*
X59161000Y-27711000D01*
X59161000Y-27712000D01*
X59161000Y-27714000D01*
X59161000Y-27715000D01*
X59160000Y-27716000D01*
X59160000Y-27717000D01*
X59160000Y-27719000D01*
X59160000Y-27720000D01*
X59160000Y-27721000D01*
X59160000Y-27723000D01*
X59160000Y-27845000D01*
X59160000Y-27848000D01*
X59160000Y-27850000D01*
X59159000Y-27853000D01*
X59159000Y-27855000D01*
X59158000Y-27858000D01*
X59158000Y-27860000D01*
X59157000Y-27863000D01*
X59156000Y-27865000D01*
X59155000Y-27868000D01*
X59153000Y-27870000D01*
X59152000Y-27872000D01*
X59150000Y-27874000D01*
X59149000Y-27876000D01*
X59147000Y-27878000D01*
X59145000Y-27880000D01*
X59143000Y-27882000D01*
X59141000Y-27884000D01*
X59139000Y-27885000D01*
X59137000Y-27887000D01*
X59135000Y-27888000D01*
X59133000Y-27890000D01*
X59130000Y-27891000D01*
X59128000Y-27892000D01*
X59125000Y-27893000D01*
X59123000Y-27893000D01*
X59120000Y-27894000D01*
X59118000Y-27894000D01*
X59115000Y-27895000D01*
X59113000Y-27895000D01*
X59110000Y-27895000D01*
X58790000Y-27895000D01*
X58787000Y-27895000D01*
X58785000Y-27895000D01*
X58782000Y-27894000D01*
X58780000Y-27894000D01*
X58777000Y-27893000D01*
X58775000Y-27893000D01*
X58772000Y-27892000D01*
X58770000Y-27891000D01*
X58767000Y-27890000D01*
X58765000Y-27888000D01*
X58763000Y-27887000D01*
X58761000Y-27885000D01*
X58759000Y-27884000D01*
X58757000Y-27882000D01*
X58755000Y-27880000D01*
X58753000Y-27878000D01*
X58751000Y-27876000D01*
X58750000Y-27874000D01*
X58748000Y-27872000D01*
X58747000Y-27870000D01*
X58745000Y-27868000D01*
X58744000Y-27865000D01*
X58743000Y-27863000D01*
X58742000Y-27860000D01*
X58742000Y-27858000D01*
X58741000Y-27855000D01*
X58741000Y-27853000D01*
X58740000Y-27850000D01*
X58740000Y-27848000D01*
X58740000Y-27845000D01*
X58740000Y-26800000D01*
X58740000Y-26797000D01*
X58740000Y-26795000D01*
X58741000Y-26792000D01*
X58741000Y-26790000D01*
X58742000Y-26787000D01*
X58742000Y-26785000D01*
X58743000Y-26782000D01*
X58744000Y-26780000D01*
X58745000Y-26777000D01*
X58747000Y-26775000D01*
X58748000Y-26773000D01*
X58750000Y-26771000D01*
X58751000Y-26769000D01*
X58753000Y-26767000D01*
X58755000Y-26765000D01*
X58757000Y-26763000D01*
X58759000Y-26761000D01*
X58761000Y-26760000D01*
X58763000Y-26758000D01*
X58765000Y-26757000D01*
X58767000Y-26755000D01*
X58770000Y-26754000D01*
X58772000Y-26753000D01*
X58775000Y-26752000D01*
X58777000Y-26752000D01*
X58780000Y-26751000D01*
X58782000Y-26751000D01*
X58785000Y-26750000D01*
X58787000Y-26750000D01*
X58790000Y-26750000D01*
X58793000Y-26750000D01*
X58795000Y-26750000D01*
X58798000Y-26749000D01*
X58800000Y-26749000D01*
X58803000Y-26748000D01*
X58805000Y-26748000D01*
X58808000Y-26747000D01*
X58810000Y-26746000D01*
X58813000Y-26745000D01*
X58815000Y-26743000D01*
X58817000Y-26742000D01*
X58819000Y-26740000D01*
X58821000Y-26739000D01*
X58823000Y-26737000D01*
X58825000Y-26735000D01*
X58827000Y-26733000D01*
X58829000Y-26731000D01*
X58830000Y-26729000D01*
X58832000Y-26727000D01*
X58833000Y-26725000D01*
X58835000Y-26723000D01*
X58836000Y-26720000D01*
X58837000Y-26718000D01*
X58838000Y-26715000D01*
X58838000Y-26713000D01*
X58839000Y-26710000D01*
X58839000Y-26708000D01*
X58840000Y-26705000D01*
X58840000Y-26703000D01*
X58840000Y-26700000D01*
X58840000Y-26400000D01*
X58840000Y-26397000D01*
X58840000Y-26395000D01*
X58841000Y-26392000D01*
X58841000Y-26390000D01*
X58842000Y-26387000D01*
X58842000Y-26385000D01*
X58843000Y-26382000D01*
X58844000Y-26380000D01*
X58845000Y-26377000D01*
X58847000Y-26375000D01*
X58848000Y-26373000D01*
X58850000Y-26371000D01*
X58851000Y-26369000D01*
X58853000Y-26367000D01*
X58855000Y-26365000D01*
X58857000Y-26363000D01*
X58859000Y-26361000D01*
X58861000Y-26360000D01*
X58863000Y-26358000D01*
X58865000Y-26357000D01*
X58867000Y-26355000D01*
X58870000Y-26354000D01*
X58872000Y-26353000D01*
X58875000Y-26352000D01*
X58877000Y-26352000D01*
X58880000Y-26351000D01*
X58882000Y-26351000D01*
X58885000Y-26350000D01*
X58887000Y-26350000D01*
X58890000Y-26350000D01*
X59040000Y-26350000D01*
X59043000Y-26350000D01*
X59045000Y-26350000D01*
X59048000Y-26351000D01*
G36*
X59048000Y-26351000D02*
G01*
X59050000Y-26351000D01*
X59053000Y-26352000D01*
X59055000Y-26352000D01*
X59058000Y-26353000D01*
X59060000Y-26354000D01*
X59063000Y-26355000D01*
X59065000Y-26357000D01*
X59067000Y-26358000D01*
X59069000Y-26360000D01*
X59071000Y-26361000D01*
X59073000Y-26363000D01*
X59075000Y-26365000D01*
X59077000Y-26367000D01*
X59079000Y-26369000D01*
X59080000Y-26371000D01*
X59082000Y-26373000D01*
X59083000Y-26375000D01*
X59085000Y-26377000D01*
X59086000Y-26380000D01*
X59087000Y-26382000D01*
X59088000Y-26385000D01*
X59088000Y-26387000D01*
X59089000Y-26390000D01*
X59089000Y-26392000D01*
X59090000Y-26395000D01*
X59090000Y-26397000D01*
X59090000Y-26400000D01*
X59090000Y-26700000D01*
X59090000Y-26703000D01*
X59090000Y-26705000D01*
X59091000Y-26708000D01*
X59091000Y-26710000D01*
X59092000Y-26713000D01*
X59092000Y-26715000D01*
X59093000Y-26718000D01*
X59094000Y-26720000D01*
X59095000Y-26723000D01*
X59097000Y-26725000D01*
X59098000Y-26727000D01*
X59100000Y-26729000D01*
X59101000Y-26731000D01*
X59103000Y-26733000D01*
X59105000Y-26735000D01*
X59107000Y-26737000D01*
X59109000Y-26739000D01*
X59111000Y-26740000D01*
X59113000Y-26742000D01*
X59115000Y-26743000D01*
X59117000Y-26745000D01*
X59120000Y-26746000D01*
X59122000Y-26747000D01*
X59125000Y-26748000D01*
X59127000Y-26748000D01*
X59130000Y-26749000D01*
X59132000Y-26749000D01*
X59135000Y-26750000D01*
X59137000Y-26750000D01*
X59140000Y-26750000D01*
X59290000Y-26750000D01*
X59293000Y-26750000D01*
X59295000Y-26750000D01*
X59298000Y-26749000D01*
X59300000Y-26749000D01*
X59303000Y-26748000D01*
X59305000Y-26748000D01*
X59308000Y-26747000D01*
X59310000Y-26746000D01*
X59313000Y-26745000D01*
X59315000Y-26743000D01*
X59317000Y-26742000D01*
X59319000Y-26740000D01*
X59321000Y-26739000D01*
X59323000Y-26737000D01*
X59325000Y-26735000D01*
X59327000Y-26733000D01*
X59329000Y-26731000D01*
X59330000Y-26729000D01*
X59332000Y-26727000D01*
X59333000Y-26725000D01*
X59335000Y-26723000D01*
X59336000Y-26720000D01*
X59337000Y-26718000D01*
X59338000Y-26715000D01*
X59338000Y-26713000D01*
X59339000Y-26710000D01*
X59339000Y-26708000D01*
X59340000Y-26705000D01*
X59340000Y-26703000D01*
X59340000Y-26700000D01*
X59340000Y-26400000D01*
X59340000Y-26397000D01*
X59340000Y-26395000D01*
X59341000Y-26392000D01*
X59341000Y-26390000D01*
X59342000Y-26387000D01*
X59342000Y-26385000D01*
X59343000Y-26382000D01*
X59344000Y-26380000D01*
X59345000Y-26377000D01*
X59347000Y-26375000D01*
X59348000Y-26373000D01*
X59350000Y-26371000D01*
X59351000Y-26369000D01*
X59353000Y-26367000D01*
X59355000Y-26365000D01*
X59357000Y-26363000D01*
X59359000Y-26361000D01*
X59361000Y-26360000D01*
X59363000Y-26358000D01*
X59365000Y-26357000D01*
X59367000Y-26355000D01*
X59370000Y-26354000D01*
X59372000Y-26353000D01*
X59375000Y-26352000D01*
X59377000Y-26352000D01*
X59380000Y-26351000D01*
X59382000Y-26351000D01*
X59385000Y-26350000D01*
X59387000Y-26350000D01*
X59390000Y-26350000D01*
X59540000Y-26350000D01*
X59543000Y-26350000D01*
X59545000Y-26350000D01*
X59548000Y-26351000D01*
X59550000Y-26351000D01*
X59553000Y-26352000D01*
X59555000Y-26352000D01*
X59558000Y-26353000D01*
X59560000Y-26354000D01*
X59563000Y-26355000D01*
X59565000Y-26357000D01*
X59567000Y-26358000D01*
X59569000Y-26360000D01*
X59571000Y-26361000D01*
X59573000Y-26363000D01*
X59575000Y-26365000D01*
X59577000Y-26367000D01*
X59579000Y-26369000D01*
X59580000Y-26371000D01*
X59582000Y-26373000D01*
X59583000Y-26375000D01*
X59585000Y-26377000D01*
X59586000Y-26380000D01*
X59587000Y-26382000D01*
X59588000Y-26385000D01*
X59588000Y-26387000D01*
X59589000Y-26390000D01*
X59589000Y-26392000D01*
X59590000Y-26395000D01*
X59590000Y-26397000D01*
X59590000Y-26400000D01*
X59590000Y-26700000D01*
X59590000Y-26703000D01*
X59590000Y-26705000D01*
X59591000Y-26708000D01*
X59591000Y-26710000D01*
X59592000Y-26713000D01*
X59592000Y-26715000D01*
X59593000Y-26718000D01*
X59594000Y-26720000D01*
X59595000Y-26723000D01*
X59597000Y-26725000D01*
X59598000Y-26727000D01*
X59600000Y-26729000D01*
X59601000Y-26731000D01*
X59603000Y-26733000D01*
X59605000Y-26735000D01*
X59607000Y-26737000D01*
X59609000Y-26739000D01*
X59611000Y-26740000D01*
X59613000Y-26742000D01*
X59615000Y-26743000D01*
X59617000Y-26745000D01*
X59620000Y-26746000D01*
X59622000Y-26747000D01*
X59625000Y-26748000D01*
X59627000Y-26748000D01*
X59630000Y-26749000D01*
X59632000Y-26749000D01*
X59635000Y-26750000D01*
X59637000Y-26750000D01*
X59640000Y-26750000D01*
X59765000Y-26750000D01*
X59768000Y-26750000D01*
X59770000Y-26750000D01*
X59773000Y-26751000D01*
X59775000Y-26751000D01*
X59778000Y-26752000D01*
X59780000Y-26752000D01*
X59783000Y-26753000D01*
X59785000Y-26754000D01*
X59788000Y-26755000D01*
X59790000Y-26757000D01*
X59792000Y-26758000D01*
X59794000Y-26760000D01*
X59796000Y-26761000D01*
X59798000Y-26763000D01*
X59800000Y-26765000D01*
X59802000Y-26767000D01*
X59804000Y-26769000D01*
X59805000Y-26771000D01*
X59807000Y-26773000D01*
X59808000Y-26775000D01*
X59810000Y-26777000D01*
X59811000Y-26780000D01*
X59812000Y-26782000D01*
X59813000Y-26785000D01*
X59813000Y-26787000D01*
X59814000Y-26790000D01*
X59814000Y-26792000D01*
X59815000Y-26795000D01*
X59815000Y-26797000D01*
X59815000Y-26800000D01*
X59815000Y-27275000D01*
X59815000Y-27278000D01*
X59815000Y-27280000D01*
X59814000Y-27283000D01*
X59814000Y-27285000D01*
X59813000Y-27288000D01*
X59813000Y-27290000D01*
X59812000Y-27293000D01*
X59811000Y-27295000D01*
X59810000Y-27298000D01*
X59808000Y-27300000D01*
X59807000Y-27302000D01*
X59805000Y-27304000D01*
X59804000Y-27306000D01*
X59802000Y-27308000D01*
X59800000Y-27310000D01*
X59798000Y-27312000D01*
X59796000Y-27314000D01*
X59794000Y-27315000D01*
X59792000Y-27317000D01*
X59790000Y-27318000D01*
X59788000Y-27320000D01*
X59785000Y-27321000D01*
X59783000Y-27322000D01*
X59780000Y-27323000D01*
X59778000Y-27323000D01*
X59775000Y-27324000D01*
X59773000Y-27324000D01*
X59770000Y-27325000D01*
X59768000Y-27325000D01*
X59765000Y-27325000D01*
X59558000Y-27325000D01*
X59556000Y-27325000D01*
X59555000Y-27325000D01*
X59554000Y-27325000D01*
X59552000Y-27325000D01*
X59551000Y-27325000D01*
X59550000Y-27326000D01*
X59549000Y-27326000D01*
X59547000Y-27326000D01*
X59546000Y-27326000D01*
X59545000Y-27327000D01*
X59544000Y-27327000D01*
X59542000Y-27327000D01*
X59541000Y-27328000D01*
X59540000Y-27328000D01*
X59539000Y-27329000D01*
X59537000Y-27329000D01*
X59536000Y-27330000D01*
X59535000Y-27330000D01*
X59534000Y-27331000D01*
X59533000Y-27332000D01*
X59532000Y-27332000D01*
X59530000Y-27333000D01*
X59529000Y-27334000D01*
X59528000Y-27335000D01*
X59527000Y-27335000D01*
X59526000Y-27336000D01*
X59525000Y-27337000D01*
X59524000Y-27338000D01*
X59523000Y-27339000D01*
X59522000Y-27340000D01*
X59175000Y-27687000D01*
X59174000Y-27688000D01*
X59173000Y-27689000D01*
X59172000Y-27690000D01*
X59171000Y-27691000D01*
X59170000Y-27692000D01*
X59170000Y-27693000D01*
X59169000Y-27694000D01*
X59168000Y-27695000D01*
X59167000Y-27697000D01*
X59167000Y-27698000D01*
X59166000Y-27699000D01*
X59165000Y-27700000D01*
X59165000Y-27701000D01*
X59164000Y-27702000D01*
X59164000Y-27704000D01*
X59163000Y-27705000D01*
X59163000Y-27706000D01*
X59162000Y-27707000D01*
X59162000Y-27709000D01*
X59162000Y-27710000D01*
X59161000Y-27711000D01*
X59161000Y-27712000D01*
X59161000Y-27714000D01*
X59161000Y-27715000D01*
X59160000Y-27716000D01*
X59160000Y-27717000D01*
X59160000Y-27719000D01*
X59160000Y-27720000D01*
X59160000Y-27721000D01*
X59160000Y-27723000D01*
X59160000Y-27845000D01*
X59160000Y-27848000D01*
X59160000Y-27850000D01*
X59159000Y-27853000D01*
X59159000Y-27855000D01*
X59158000Y-27858000D01*
X59158000Y-27860000D01*
X59157000Y-27863000D01*
X59156000Y-27865000D01*
X59155000Y-27868000D01*
X59153000Y-27870000D01*
X59152000Y-27872000D01*
X59150000Y-27874000D01*
X59149000Y-27876000D01*
X59147000Y-27878000D01*
X59145000Y-27880000D01*
X59143000Y-27882000D01*
X59141000Y-27884000D01*
X59139000Y-27885000D01*
X59137000Y-27887000D01*
X59135000Y-27888000D01*
X59133000Y-27890000D01*
X59130000Y-27891000D01*
X59128000Y-27892000D01*
X59125000Y-27893000D01*
X59123000Y-27893000D01*
X59120000Y-27894000D01*
X59118000Y-27894000D01*
X59115000Y-27895000D01*
X59113000Y-27895000D01*
X59110000Y-27895000D01*
X58790000Y-27895000D01*
X58787000Y-27895000D01*
X58785000Y-27895000D01*
X58782000Y-27894000D01*
X58780000Y-27894000D01*
X58777000Y-27893000D01*
X58775000Y-27893000D01*
X58772000Y-27892000D01*
X58770000Y-27891000D01*
X58767000Y-27890000D01*
X58765000Y-27888000D01*
X58763000Y-27887000D01*
X58761000Y-27885000D01*
X58759000Y-27884000D01*
X58757000Y-27882000D01*
X58755000Y-27880000D01*
X58753000Y-27878000D01*
X58751000Y-27876000D01*
X58750000Y-27874000D01*
X58748000Y-27872000D01*
X58747000Y-27870000D01*
X58745000Y-27868000D01*
X58744000Y-27865000D01*
X58743000Y-27863000D01*
X58742000Y-27860000D01*
X58742000Y-27858000D01*
X58741000Y-27855000D01*
X58741000Y-27853000D01*
X58740000Y-27850000D01*
X58740000Y-27848000D01*
X58740000Y-27845000D01*
X58740000Y-26800000D01*
X58740000Y-26797000D01*
X58740000Y-26795000D01*
X58741000Y-26792000D01*
X58741000Y-26790000D01*
X58742000Y-26787000D01*
X58742000Y-26785000D01*
X58743000Y-26782000D01*
X58744000Y-26780000D01*
X58745000Y-26777000D01*
X58747000Y-26775000D01*
X58748000Y-26773000D01*
X58750000Y-26771000D01*
X58751000Y-26769000D01*
X58753000Y-26767000D01*
X58755000Y-26765000D01*
X58757000Y-26763000D01*
X58759000Y-26761000D01*
X58761000Y-26760000D01*
X58763000Y-26758000D01*
X58765000Y-26757000D01*
X58767000Y-26755000D01*
X58770000Y-26754000D01*
X58772000Y-26753000D01*
X58775000Y-26752000D01*
X58777000Y-26752000D01*
X58780000Y-26751000D01*
X58782000Y-26751000D01*
X58785000Y-26750000D01*
X58787000Y-26750000D01*
X58790000Y-26750000D01*
X58793000Y-26750000D01*
X58795000Y-26750000D01*
X58798000Y-26749000D01*
X58800000Y-26749000D01*
X58803000Y-26748000D01*
X58805000Y-26748000D01*
X58808000Y-26747000D01*
X58810000Y-26746000D01*
X58813000Y-26745000D01*
X58815000Y-26743000D01*
X58817000Y-26742000D01*
X58819000Y-26740000D01*
X58821000Y-26739000D01*
X58823000Y-26737000D01*
X58825000Y-26735000D01*
X58827000Y-26733000D01*
X58829000Y-26731000D01*
X58830000Y-26729000D01*
X58832000Y-26727000D01*
X58833000Y-26725000D01*
X58835000Y-26723000D01*
X58836000Y-26720000D01*
X58837000Y-26718000D01*
X58838000Y-26715000D01*
X58838000Y-26713000D01*
X58839000Y-26710000D01*
X58839000Y-26708000D01*
X58840000Y-26705000D01*
X58840000Y-26703000D01*
X58840000Y-26700000D01*
X58840000Y-26400000D01*
X58840000Y-26397000D01*
X58840000Y-26395000D01*
X58841000Y-26392000D01*
X58841000Y-26390000D01*
X58842000Y-26387000D01*
X58842000Y-26385000D01*
X58843000Y-26382000D01*
X58844000Y-26380000D01*
X58845000Y-26377000D01*
X58847000Y-26375000D01*
X58848000Y-26373000D01*
X58850000Y-26371000D01*
X58851000Y-26369000D01*
X58853000Y-26367000D01*
X58855000Y-26365000D01*
X58857000Y-26363000D01*
X58859000Y-26361000D01*
X58861000Y-26360000D01*
X58863000Y-26358000D01*
X58865000Y-26357000D01*
X58867000Y-26355000D01*
X58870000Y-26354000D01*
X58872000Y-26353000D01*
X58875000Y-26352000D01*
X58877000Y-26352000D01*
X58880000Y-26351000D01*
X58882000Y-26351000D01*
X58885000Y-26350000D01*
X58887000Y-26350000D01*
X58890000Y-26350000D01*
X59040000Y-26350000D01*
X59043000Y-26350000D01*
X59045000Y-26350000D01*
X59048000Y-26351000D01*
G37*
X60125000Y-28041000D02*
X60131000Y-28041000D01*
X60136000Y-28042000D01*
X60141000Y-28043000D01*
X60146000Y-28045000D01*
X60151000Y-28047000D01*
X60156000Y-28049000D01*
X60160000Y-28051000D01*
X60165000Y-28053000D01*
X60169000Y-28056000D01*
X60174000Y-28059000D01*
X60178000Y-28062000D01*
X60182000Y-28066000D01*
X60186000Y-28069000D01*
X60189000Y-28073000D01*
X60193000Y-28077000D01*
X60196000Y-28081000D01*
X60199000Y-28086000D01*
X60202000Y-28090000D01*
X60204000Y-28095000D01*
X60206000Y-28099000D01*
X60208000Y-28104000D01*
X60210000Y-28109000D01*
X60212000Y-28114000D01*
X60213000Y-28119000D01*
X60214000Y-28124000D01*
X60214000Y-28130000D01*
X60215000Y-28135000D01*
X60215000Y-28140000D01*
X60215000Y-28260000D01*
X60215000Y-28265000D01*
X60214000Y-28270000D01*
X60214000Y-28276000D01*
X60213000Y-28281000D01*
X60212000Y-28286000D01*
X60210000Y-28291000D01*
X60208000Y-28296000D01*
X60206000Y-28301000D01*
X60204000Y-28305000D01*
X60202000Y-28310000D01*
X60199000Y-28314000D01*
X60196000Y-28319000D01*
X60193000Y-28323000D01*
X60189000Y-28327000D01*
X60186000Y-28331000D01*
X60182000Y-28334000D01*
X60178000Y-28338000D01*
X60174000Y-28341000D01*
X60169000Y-28344000D01*
X60165000Y-28347000D01*
X60160000Y-28349000D01*
X60156000Y-28351000D01*
X60151000Y-28353000D01*
X60146000Y-28355000D01*
X60141000Y-28357000D01*
X60136000Y-28358000D01*
X60131000Y-28359000D01*
X60125000Y-28359000D01*
X60120000Y-28360000D01*
X60115000Y-28360000D01*
X59615000Y-28360000D01*
X59610000Y-28360000D01*
X59605000Y-28359000D01*
X59599000Y-28359000D01*
X59594000Y-28358000D01*
X59589000Y-28357000D01*
X59584000Y-28355000D01*
X59579000Y-28353000D01*
X59574000Y-28351000D01*
X59570000Y-28349000D01*
X59565000Y-28347000D01*
X59561000Y-28344000D01*
X59556000Y-28341000D01*
X59552000Y-28338000D01*
X59548000Y-28334000D01*
X59544000Y-28331000D01*
X59541000Y-28327000D01*
X59537000Y-28323000D01*
X59534000Y-28319000D01*
X59531000Y-28314000D01*
X59528000Y-28310000D01*
X59526000Y-28305000D01*
X59524000Y-28301000D01*
X59522000Y-28296000D01*
X59520000Y-28291000D01*
X59518000Y-28286000D01*
X59517000Y-28281000D01*
X59516000Y-28276000D01*
X59516000Y-28270000D01*
X59515000Y-28265000D01*
X59515000Y-28260000D01*
X59515000Y-28140000D01*
X59515000Y-28135000D01*
X59516000Y-28130000D01*
X59516000Y-28124000D01*
X59517000Y-28119000D01*
X59518000Y-28114000D01*
X59520000Y-28109000D01*
X59522000Y-28104000D01*
X59524000Y-28099000D01*
X59526000Y-28095000D01*
X59528000Y-28090000D01*
X59531000Y-28086000D01*
X59534000Y-28081000D01*
X59537000Y-28077000D01*
X59541000Y-28073000D01*
X59544000Y-28069000D01*
X59548000Y-28066000D01*
X59552000Y-28062000D01*
X59556000Y-28059000D01*
X59561000Y-28056000D01*
X59565000Y-28053000D01*
X59570000Y-28051000D01*
X59574000Y-28049000D01*
X59579000Y-28047000D01*
X59584000Y-28045000D01*
X59589000Y-28043000D01*
X59594000Y-28042000D01*
X59599000Y-28041000D01*
X59605000Y-28041000D01*
X59610000Y-28040000D01*
X59615000Y-28040000D01*
X60115000Y-28040000D01*
X60120000Y-28040000D01*
X60125000Y-28041000D01*
G36*
X60125000Y-28041000D02*
G01*
X60131000Y-28041000D01*
X60136000Y-28042000D01*
X60141000Y-28043000D01*
X60146000Y-28045000D01*
X60151000Y-28047000D01*
X60156000Y-28049000D01*
X60160000Y-28051000D01*
X60165000Y-28053000D01*
X60169000Y-28056000D01*
X60174000Y-28059000D01*
X60178000Y-28062000D01*
X60182000Y-28066000D01*
X60186000Y-28069000D01*
X60189000Y-28073000D01*
X60193000Y-28077000D01*
X60196000Y-28081000D01*
X60199000Y-28086000D01*
X60202000Y-28090000D01*
X60204000Y-28095000D01*
X60206000Y-28099000D01*
X60208000Y-28104000D01*
X60210000Y-28109000D01*
X60212000Y-28114000D01*
X60213000Y-28119000D01*
X60214000Y-28124000D01*
X60214000Y-28130000D01*
X60215000Y-28135000D01*
X60215000Y-28140000D01*
X60215000Y-28260000D01*
X60215000Y-28265000D01*
X60214000Y-28270000D01*
X60214000Y-28276000D01*
X60213000Y-28281000D01*
X60212000Y-28286000D01*
X60210000Y-28291000D01*
X60208000Y-28296000D01*
X60206000Y-28301000D01*
X60204000Y-28305000D01*
X60202000Y-28310000D01*
X60199000Y-28314000D01*
X60196000Y-28319000D01*
X60193000Y-28323000D01*
X60189000Y-28327000D01*
X60186000Y-28331000D01*
X60182000Y-28334000D01*
X60178000Y-28338000D01*
X60174000Y-28341000D01*
X60169000Y-28344000D01*
X60165000Y-28347000D01*
X60160000Y-28349000D01*
X60156000Y-28351000D01*
X60151000Y-28353000D01*
X60146000Y-28355000D01*
X60141000Y-28357000D01*
X60136000Y-28358000D01*
X60131000Y-28359000D01*
X60125000Y-28359000D01*
X60120000Y-28360000D01*
X60115000Y-28360000D01*
X59615000Y-28360000D01*
X59610000Y-28360000D01*
X59605000Y-28359000D01*
X59599000Y-28359000D01*
X59594000Y-28358000D01*
X59589000Y-28357000D01*
X59584000Y-28355000D01*
X59579000Y-28353000D01*
X59574000Y-28351000D01*
X59570000Y-28349000D01*
X59565000Y-28347000D01*
X59561000Y-28344000D01*
X59556000Y-28341000D01*
X59552000Y-28338000D01*
X59548000Y-28334000D01*
X59544000Y-28331000D01*
X59541000Y-28327000D01*
X59537000Y-28323000D01*
X59534000Y-28319000D01*
X59531000Y-28314000D01*
X59528000Y-28310000D01*
X59526000Y-28305000D01*
X59524000Y-28301000D01*
X59522000Y-28296000D01*
X59520000Y-28291000D01*
X59518000Y-28286000D01*
X59517000Y-28281000D01*
X59516000Y-28276000D01*
X59516000Y-28270000D01*
X59515000Y-28265000D01*
X59515000Y-28260000D01*
X59515000Y-28140000D01*
X59515000Y-28135000D01*
X59516000Y-28130000D01*
X59516000Y-28124000D01*
X59517000Y-28119000D01*
X59518000Y-28114000D01*
X59520000Y-28109000D01*
X59522000Y-28104000D01*
X59524000Y-28099000D01*
X59526000Y-28095000D01*
X59528000Y-28090000D01*
X59531000Y-28086000D01*
X59534000Y-28081000D01*
X59537000Y-28077000D01*
X59541000Y-28073000D01*
X59544000Y-28069000D01*
X59548000Y-28066000D01*
X59552000Y-28062000D01*
X59556000Y-28059000D01*
X59561000Y-28056000D01*
X59565000Y-28053000D01*
X59570000Y-28051000D01*
X59574000Y-28049000D01*
X59579000Y-28047000D01*
X59584000Y-28045000D01*
X59589000Y-28043000D01*
X59594000Y-28042000D01*
X59599000Y-28041000D01*
X59605000Y-28041000D01*
X59610000Y-28040000D01*
X59615000Y-28040000D01*
X60115000Y-28040000D01*
X60120000Y-28040000D01*
X60125000Y-28041000D01*
G37*
X60125000Y-28541000D02*
X60131000Y-28541000D01*
X60136000Y-28542000D01*
X60141000Y-28543000D01*
X60146000Y-28545000D01*
X60151000Y-28547000D01*
X60156000Y-28549000D01*
X60160000Y-28551000D01*
X60165000Y-28553000D01*
X60169000Y-28556000D01*
X60174000Y-28559000D01*
X60178000Y-28562000D01*
X60182000Y-28566000D01*
X60186000Y-28569000D01*
X60189000Y-28573000D01*
X60193000Y-28577000D01*
X60196000Y-28581000D01*
X60199000Y-28586000D01*
X60202000Y-28590000D01*
X60204000Y-28595000D01*
X60206000Y-28599000D01*
X60208000Y-28604000D01*
X60210000Y-28609000D01*
X60212000Y-28614000D01*
X60213000Y-28619000D01*
X60214000Y-28624000D01*
X60214000Y-28630000D01*
X60215000Y-28635000D01*
X60215000Y-28640000D01*
X60215000Y-28760000D01*
X60215000Y-28765000D01*
X60214000Y-28770000D01*
X60214000Y-28776000D01*
X60213000Y-28781000D01*
X60212000Y-28786000D01*
X60210000Y-28791000D01*
X60208000Y-28796000D01*
X60206000Y-28801000D01*
X60204000Y-28805000D01*
X60202000Y-28810000D01*
X60199000Y-28814000D01*
X60196000Y-28819000D01*
X60193000Y-28823000D01*
X60189000Y-28827000D01*
X60186000Y-28831000D01*
X60182000Y-28834000D01*
X60178000Y-28838000D01*
X60174000Y-28841000D01*
X60169000Y-28844000D01*
X60165000Y-28847000D01*
X60160000Y-28849000D01*
X60156000Y-28851000D01*
X60151000Y-28853000D01*
X60146000Y-28855000D01*
X60141000Y-28857000D01*
X60136000Y-28858000D01*
X60131000Y-28859000D01*
X60125000Y-28859000D01*
X60120000Y-28860000D01*
X60115000Y-28860000D01*
X59615000Y-28860000D01*
X59610000Y-28860000D01*
X59605000Y-28859000D01*
X59599000Y-28859000D01*
X59594000Y-28858000D01*
X59589000Y-28857000D01*
X59584000Y-28855000D01*
X59579000Y-28853000D01*
X59574000Y-28851000D01*
X59570000Y-28849000D01*
X59565000Y-28847000D01*
X59561000Y-28844000D01*
X59556000Y-28841000D01*
X59552000Y-28838000D01*
X59548000Y-28834000D01*
X59544000Y-28831000D01*
X59541000Y-28827000D01*
X59537000Y-28823000D01*
X59534000Y-28819000D01*
X59531000Y-28814000D01*
X59528000Y-28810000D01*
X59526000Y-28805000D01*
X59524000Y-28801000D01*
X59522000Y-28796000D01*
X59520000Y-28791000D01*
X59518000Y-28786000D01*
X59517000Y-28781000D01*
X59516000Y-28776000D01*
X59516000Y-28770000D01*
X59515000Y-28765000D01*
X59515000Y-28760000D01*
X59515000Y-28640000D01*
X59515000Y-28635000D01*
X59516000Y-28630000D01*
X59516000Y-28624000D01*
X59517000Y-28619000D01*
X59518000Y-28614000D01*
X59520000Y-28609000D01*
X59522000Y-28604000D01*
X59524000Y-28599000D01*
X59526000Y-28595000D01*
X59528000Y-28590000D01*
X59531000Y-28586000D01*
X59534000Y-28581000D01*
X59537000Y-28577000D01*
X59541000Y-28573000D01*
X59544000Y-28569000D01*
X59548000Y-28566000D01*
X59552000Y-28562000D01*
X59556000Y-28559000D01*
X59561000Y-28556000D01*
X59565000Y-28553000D01*
X59570000Y-28551000D01*
X59574000Y-28549000D01*
X59579000Y-28547000D01*
X59584000Y-28545000D01*
X59589000Y-28543000D01*
X59594000Y-28542000D01*
X59599000Y-28541000D01*
X59605000Y-28541000D01*
X59610000Y-28540000D01*
X59615000Y-28540000D01*
X60115000Y-28540000D01*
X60120000Y-28540000D01*
X60125000Y-28541000D01*
G36*
X60125000Y-28541000D02*
G01*
X60131000Y-28541000D01*
X60136000Y-28542000D01*
X60141000Y-28543000D01*
X60146000Y-28545000D01*
X60151000Y-28547000D01*
X60156000Y-28549000D01*
X60160000Y-28551000D01*
X60165000Y-28553000D01*
X60169000Y-28556000D01*
X60174000Y-28559000D01*
X60178000Y-28562000D01*
X60182000Y-28566000D01*
X60186000Y-28569000D01*
X60189000Y-28573000D01*
X60193000Y-28577000D01*
X60196000Y-28581000D01*
X60199000Y-28586000D01*
X60202000Y-28590000D01*
X60204000Y-28595000D01*
X60206000Y-28599000D01*
X60208000Y-28604000D01*
X60210000Y-28609000D01*
X60212000Y-28614000D01*
X60213000Y-28619000D01*
X60214000Y-28624000D01*
X60214000Y-28630000D01*
X60215000Y-28635000D01*
X60215000Y-28640000D01*
X60215000Y-28760000D01*
X60215000Y-28765000D01*
X60214000Y-28770000D01*
X60214000Y-28776000D01*
X60213000Y-28781000D01*
X60212000Y-28786000D01*
X60210000Y-28791000D01*
X60208000Y-28796000D01*
X60206000Y-28801000D01*
X60204000Y-28805000D01*
X60202000Y-28810000D01*
X60199000Y-28814000D01*
X60196000Y-28819000D01*
X60193000Y-28823000D01*
X60189000Y-28827000D01*
X60186000Y-28831000D01*
X60182000Y-28834000D01*
X60178000Y-28838000D01*
X60174000Y-28841000D01*
X60169000Y-28844000D01*
X60165000Y-28847000D01*
X60160000Y-28849000D01*
X60156000Y-28851000D01*
X60151000Y-28853000D01*
X60146000Y-28855000D01*
X60141000Y-28857000D01*
X60136000Y-28858000D01*
X60131000Y-28859000D01*
X60125000Y-28859000D01*
X60120000Y-28860000D01*
X60115000Y-28860000D01*
X59615000Y-28860000D01*
X59610000Y-28860000D01*
X59605000Y-28859000D01*
X59599000Y-28859000D01*
X59594000Y-28858000D01*
X59589000Y-28857000D01*
X59584000Y-28855000D01*
X59579000Y-28853000D01*
X59574000Y-28851000D01*
X59570000Y-28849000D01*
X59565000Y-28847000D01*
X59561000Y-28844000D01*
X59556000Y-28841000D01*
X59552000Y-28838000D01*
X59548000Y-28834000D01*
X59544000Y-28831000D01*
X59541000Y-28827000D01*
X59537000Y-28823000D01*
X59534000Y-28819000D01*
X59531000Y-28814000D01*
X59528000Y-28810000D01*
X59526000Y-28805000D01*
X59524000Y-28801000D01*
X59522000Y-28796000D01*
X59520000Y-28791000D01*
X59518000Y-28786000D01*
X59517000Y-28781000D01*
X59516000Y-28776000D01*
X59516000Y-28770000D01*
X59515000Y-28765000D01*
X59515000Y-28760000D01*
X59515000Y-28640000D01*
X59515000Y-28635000D01*
X59516000Y-28630000D01*
X59516000Y-28624000D01*
X59517000Y-28619000D01*
X59518000Y-28614000D01*
X59520000Y-28609000D01*
X59522000Y-28604000D01*
X59524000Y-28599000D01*
X59526000Y-28595000D01*
X59528000Y-28590000D01*
X59531000Y-28586000D01*
X59534000Y-28581000D01*
X59537000Y-28577000D01*
X59541000Y-28573000D01*
X59544000Y-28569000D01*
X59548000Y-28566000D01*
X59552000Y-28562000D01*
X59556000Y-28559000D01*
X59561000Y-28556000D01*
X59565000Y-28553000D01*
X59570000Y-28551000D01*
X59574000Y-28549000D01*
X59579000Y-28547000D01*
X59584000Y-28545000D01*
X59589000Y-28543000D01*
X59594000Y-28542000D01*
X59599000Y-28541000D01*
X59605000Y-28541000D01*
X59610000Y-28540000D01*
X59615000Y-28540000D01*
X60115000Y-28540000D01*
X60120000Y-28540000D01*
X60125000Y-28541000D01*
G37*
X60125000Y-27541000D02*
X60131000Y-27541000D01*
X60136000Y-27542000D01*
X60141000Y-27543000D01*
X60146000Y-27545000D01*
X60151000Y-27547000D01*
X60156000Y-27549000D01*
X60160000Y-27551000D01*
X60165000Y-27553000D01*
X60169000Y-27556000D01*
X60174000Y-27559000D01*
X60178000Y-27562000D01*
X60182000Y-27566000D01*
X60186000Y-27569000D01*
X60189000Y-27573000D01*
X60193000Y-27577000D01*
X60196000Y-27581000D01*
X60199000Y-27586000D01*
X60202000Y-27590000D01*
X60204000Y-27595000D01*
X60206000Y-27599000D01*
X60208000Y-27604000D01*
X60210000Y-27609000D01*
X60212000Y-27614000D01*
X60213000Y-27619000D01*
X60214000Y-27624000D01*
X60214000Y-27630000D01*
X60215000Y-27635000D01*
X60215000Y-27640000D01*
X60215000Y-27760000D01*
X60215000Y-27765000D01*
X60214000Y-27770000D01*
X60214000Y-27776000D01*
X60213000Y-27781000D01*
X60212000Y-27786000D01*
X60210000Y-27791000D01*
X60208000Y-27796000D01*
X60206000Y-27801000D01*
X60204000Y-27805000D01*
X60202000Y-27810000D01*
X60199000Y-27814000D01*
X60196000Y-27819000D01*
X60193000Y-27823000D01*
X60189000Y-27827000D01*
X60186000Y-27831000D01*
X60182000Y-27834000D01*
X60178000Y-27838000D01*
X60174000Y-27841000D01*
X60169000Y-27844000D01*
X60165000Y-27847000D01*
X60160000Y-27849000D01*
X60156000Y-27851000D01*
X60151000Y-27853000D01*
X60146000Y-27855000D01*
X60141000Y-27857000D01*
X60136000Y-27858000D01*
X60131000Y-27859000D01*
X60125000Y-27859000D01*
X60120000Y-27860000D01*
X60115000Y-27860000D01*
X59615000Y-27860000D01*
X59610000Y-27860000D01*
X59605000Y-27859000D01*
X59599000Y-27859000D01*
X59594000Y-27858000D01*
X59589000Y-27857000D01*
X59584000Y-27855000D01*
X59579000Y-27853000D01*
X59574000Y-27851000D01*
X59570000Y-27849000D01*
X59565000Y-27847000D01*
X59561000Y-27844000D01*
X59556000Y-27841000D01*
X59552000Y-27838000D01*
X59548000Y-27834000D01*
X59544000Y-27831000D01*
X59541000Y-27827000D01*
X59537000Y-27823000D01*
X59534000Y-27819000D01*
X59531000Y-27814000D01*
X59528000Y-27810000D01*
X59526000Y-27805000D01*
X59524000Y-27801000D01*
X59522000Y-27796000D01*
X59520000Y-27791000D01*
X59518000Y-27786000D01*
X59517000Y-27781000D01*
X59516000Y-27776000D01*
X59516000Y-27770000D01*
X59515000Y-27765000D01*
X59515000Y-27760000D01*
X59515000Y-27640000D01*
X59515000Y-27635000D01*
X59516000Y-27630000D01*
X59516000Y-27624000D01*
X59517000Y-27619000D01*
X59518000Y-27614000D01*
X59520000Y-27609000D01*
X59522000Y-27604000D01*
X59524000Y-27599000D01*
X59526000Y-27595000D01*
X59528000Y-27590000D01*
X59531000Y-27586000D01*
X59534000Y-27581000D01*
X59537000Y-27577000D01*
X59541000Y-27573000D01*
X59544000Y-27569000D01*
X59548000Y-27566000D01*
X59552000Y-27562000D01*
X59556000Y-27559000D01*
X59561000Y-27556000D01*
X59565000Y-27553000D01*
X59570000Y-27551000D01*
X59574000Y-27549000D01*
X59579000Y-27547000D01*
X59584000Y-27545000D01*
X59589000Y-27543000D01*
X59594000Y-27542000D01*
X59599000Y-27541000D01*
X59605000Y-27541000D01*
X59610000Y-27540000D01*
X59615000Y-27540000D01*
X60115000Y-27540000D01*
X60120000Y-27540000D01*
X60125000Y-27541000D01*
G36*
X60125000Y-27541000D02*
G01*
X60131000Y-27541000D01*
X60136000Y-27542000D01*
X60141000Y-27543000D01*
X60146000Y-27545000D01*
X60151000Y-27547000D01*
X60156000Y-27549000D01*
X60160000Y-27551000D01*
X60165000Y-27553000D01*
X60169000Y-27556000D01*
X60174000Y-27559000D01*
X60178000Y-27562000D01*
X60182000Y-27566000D01*
X60186000Y-27569000D01*
X60189000Y-27573000D01*
X60193000Y-27577000D01*
X60196000Y-27581000D01*
X60199000Y-27586000D01*
X60202000Y-27590000D01*
X60204000Y-27595000D01*
X60206000Y-27599000D01*
X60208000Y-27604000D01*
X60210000Y-27609000D01*
X60212000Y-27614000D01*
X60213000Y-27619000D01*
X60214000Y-27624000D01*
X60214000Y-27630000D01*
X60215000Y-27635000D01*
X60215000Y-27640000D01*
X60215000Y-27760000D01*
X60215000Y-27765000D01*
X60214000Y-27770000D01*
X60214000Y-27776000D01*
X60213000Y-27781000D01*
X60212000Y-27786000D01*
X60210000Y-27791000D01*
X60208000Y-27796000D01*
X60206000Y-27801000D01*
X60204000Y-27805000D01*
X60202000Y-27810000D01*
X60199000Y-27814000D01*
X60196000Y-27819000D01*
X60193000Y-27823000D01*
X60189000Y-27827000D01*
X60186000Y-27831000D01*
X60182000Y-27834000D01*
X60178000Y-27838000D01*
X60174000Y-27841000D01*
X60169000Y-27844000D01*
X60165000Y-27847000D01*
X60160000Y-27849000D01*
X60156000Y-27851000D01*
X60151000Y-27853000D01*
X60146000Y-27855000D01*
X60141000Y-27857000D01*
X60136000Y-27858000D01*
X60131000Y-27859000D01*
X60125000Y-27859000D01*
X60120000Y-27860000D01*
X60115000Y-27860000D01*
X59615000Y-27860000D01*
X59610000Y-27860000D01*
X59605000Y-27859000D01*
X59599000Y-27859000D01*
X59594000Y-27858000D01*
X59589000Y-27857000D01*
X59584000Y-27855000D01*
X59579000Y-27853000D01*
X59574000Y-27851000D01*
X59570000Y-27849000D01*
X59565000Y-27847000D01*
X59561000Y-27844000D01*
X59556000Y-27841000D01*
X59552000Y-27838000D01*
X59548000Y-27834000D01*
X59544000Y-27831000D01*
X59541000Y-27827000D01*
X59537000Y-27823000D01*
X59534000Y-27819000D01*
X59531000Y-27814000D01*
X59528000Y-27810000D01*
X59526000Y-27805000D01*
X59524000Y-27801000D01*
X59522000Y-27796000D01*
X59520000Y-27791000D01*
X59518000Y-27786000D01*
X59517000Y-27781000D01*
X59516000Y-27776000D01*
X59516000Y-27770000D01*
X59515000Y-27765000D01*
X59515000Y-27760000D01*
X59515000Y-27640000D01*
X59515000Y-27635000D01*
X59516000Y-27630000D01*
X59516000Y-27624000D01*
X59517000Y-27619000D01*
X59518000Y-27614000D01*
X59520000Y-27609000D01*
X59522000Y-27604000D01*
X59524000Y-27599000D01*
X59526000Y-27595000D01*
X59528000Y-27590000D01*
X59531000Y-27586000D01*
X59534000Y-27581000D01*
X59537000Y-27577000D01*
X59541000Y-27573000D01*
X59544000Y-27569000D01*
X59548000Y-27566000D01*
X59552000Y-27562000D01*
X59556000Y-27559000D01*
X59561000Y-27556000D01*
X59565000Y-27553000D01*
X59570000Y-27551000D01*
X59574000Y-27549000D01*
X59579000Y-27547000D01*
X59584000Y-27545000D01*
X59589000Y-27543000D01*
X59594000Y-27542000D01*
X59599000Y-27541000D01*
X59605000Y-27541000D01*
X59610000Y-27540000D01*
X59615000Y-27540000D01*
X60115000Y-27540000D01*
X60120000Y-27540000D01*
X60125000Y-27541000D01*
G37*
%TD*%
D15*
%TO.C,LED1*%
X25100000Y-16250000D03*
X25100000Y-17350000D03*
X23270000Y-17350000D03*
X23270000Y-16250000D03*
%TD*%
D16*
%TO.C,C12*%
X14150000Y-44708000D03*
X16050000Y-44708000D03*
%TD*%
D17*
%TO.C,C17*%
X29400000Y-50752500D03*
X29400000Y-48852500D03*
%TD*%
D18*
%TO.C,U6*%
X14660000Y-21600000D03*
X15930000Y-21600000D03*
X17200000Y-21600000D03*
X21010000Y-21600000D03*
X22280000Y-21600000D03*
X23550000Y-21600000D03*
X23550000Y-30900000D03*
X22280000Y-30900000D03*
X21010000Y-30900000D03*
X17200000Y-30900000D03*
X15930000Y-30900000D03*
X14660000Y-30900000D03*
%TD*%
D19*
%TO.C,C20*%
X22200000Y-32750000D03*
X22200000Y-34650000D03*
%TD*%
D16*
%TO.C,R4*%
X52400000Y-24350000D03*
X54300000Y-24350000D03*
%TD*%
D20*
%TO.C,U$3*%
X56750000Y-17000000D03*
%TD*%
D21*
%TO.C,U4*%
X29000000Y-57725000D03*
X31000000Y-57725000D03*
X33000000Y-57725000D03*
X35000000Y-57725000D03*
X37000000Y-57725000D03*
X39000000Y-57725000D03*
X41000000Y-57725000D03*
X43000000Y-57725000D03*
X43000000Y-72775000D03*
X41000000Y-72775000D03*
X39000000Y-72775000D03*
X37000000Y-72775000D03*
X35000000Y-72775000D03*
X33000000Y-72775000D03*
X31000000Y-72775000D03*
X29000000Y-72775000D03*
%TD*%
D20*
%TO.C,U$2*%
X16750000Y-79500000D03*
%TD*%
D22*
%TO.C,IC1*%
X24400000Y-41125000D03*
D23*
X27837500Y-38525000D03*
X27837500Y-38925000D03*
X27837500Y-39325000D03*
X27837500Y-39725000D03*
X27837500Y-40125000D03*
X27837500Y-40525000D03*
X27837500Y-40925000D03*
X27837500Y-41325000D03*
X27837500Y-41725000D03*
X27837500Y-42125000D03*
X27837500Y-42525000D03*
X27837500Y-42925000D03*
X27837500Y-43325000D03*
X27837500Y-43725000D03*
D24*
X27000000Y-44562500D03*
X26600000Y-44562500D03*
X26200000Y-44562500D03*
X25800000Y-44562500D03*
X25400000Y-44562500D03*
X25000000Y-44562500D03*
X24600000Y-44562500D03*
X24200000Y-44562500D03*
X23800000Y-44562500D03*
X23400000Y-44562500D03*
X23000000Y-44562500D03*
X22600000Y-44562500D03*
X22200000Y-44562500D03*
X21800000Y-44562500D03*
D23*
X20962500Y-43725000D03*
X20962500Y-43325000D03*
X20962500Y-42925000D03*
X20962500Y-42525000D03*
X20962500Y-42125000D03*
X20962500Y-41725000D03*
X20962500Y-41325000D03*
X20962500Y-40925000D03*
X20962500Y-40525000D03*
X20962500Y-40125000D03*
X20962500Y-39725000D03*
X20962500Y-39325000D03*
X20962500Y-38925000D03*
X20962500Y-38525000D03*
D24*
X21800000Y-37687500D03*
X22200000Y-37687500D03*
X22600000Y-37687500D03*
X23000000Y-37687500D03*
X23400000Y-37687500D03*
X23800000Y-37687500D03*
X24200000Y-37687500D03*
X24600000Y-37687500D03*
X25000000Y-37687500D03*
X25400000Y-37687500D03*
X25800000Y-37687500D03*
X26200000Y-37687500D03*
X26600000Y-37687500D03*
X27000000Y-37687500D03*
%TD*%
D25*
%TO.C,J2*%
X33900000Y-79700000D03*
X36400000Y-79700000D03*
D26*
X38900000Y-79700000D03*
D27*
X40500000Y-77700000D03*
%TD*%
D28*
%TO.C,R17*%
X16070000Y-38070000D03*
X14245000Y-38070000D03*
%TD*%
D29*
%TO.C,D1*%
X57740000Y-40000000D03*
X55200000Y-40000000D03*
D30*
X52660000Y-40000000D03*
%TD*%
D17*
%TO.C,C18*%
X31550000Y-50750000D03*
X31550000Y-48850000D03*
%TD*%
D31*
%TO.C,J6*%
X56450000Y-61410000D03*
X58990000Y-61410000D03*
X56450000Y-63950000D03*
X58990000Y-63950000D03*
X56450000Y-66490000D03*
X58990000Y-66490000D03*
X56450000Y-69030000D03*
X58990000Y-69030000D03*
X56450000Y-71570000D03*
X58990000Y-71570000D03*
X56450000Y-74110000D03*
D32*
X58990000Y-74110000D03*
%TD*%
D33*
%TO.C,RESET*%
X19025000Y-71650000D03*
X24175000Y-71650000D03*
X19025000Y-73350000D03*
X24175000Y-73350000D03*
%TD*%
D20*
%TO.C,U$4*%
X16750000Y-17000000D03*
%TD*%
D34*
%TO.C,J4*%
X34340000Y-15345000D03*
X34340000Y-19275000D03*
X44560000Y-15345000D03*
X44560000Y-19275000D03*
D35*
X42650000Y-19850000D03*
X41850000Y-19850000D03*
D36*
X41200000Y-19850000D03*
X40200000Y-19850000D03*
X38700000Y-19850000D03*
X37700000Y-19850000D03*
D35*
X37050000Y-19850000D03*
X36250000Y-19850000D03*
X36250000Y-19850000D03*
X37050000Y-19850000D03*
D36*
X38200000Y-19850000D03*
X39200000Y-19850000D03*
X39700000Y-19850000D03*
X40700000Y-19850000D03*
D35*
X41850000Y-19850000D03*
X42650000Y-19850000D03*
D37*
X36560000Y-18775000D03*
X42340000Y-18775000D03*
%TD*%
D38*
%TO.C,C19*%
X33350000Y-41600000D03*
X31450000Y-41600000D03*
%TD*%
D39*
%TO.C,J5*%
X49400000Y-80575000D03*
D40*
X50900000Y-79100000D03*
D39*
X49400000Y-77625000D03*
D40*
X47900000Y-79100000D03*
%TD*%
D41*
%TO.C,Q1*%
X53250000Y-34537500D03*
X52300000Y-32662500D03*
X54200000Y-32662500D03*
%TD*%
D42*
%TO.C,R22*%
X47900000Y-16062500D03*
X47900000Y-14237500D03*
%TD*%
D43*
%TO.C,R23*%
X37700000Y-22287500D03*
X37700000Y-24112500D03*
%TD*%
D19*
%TO.C,C14*%
X31800000Y-44450000D03*
X31800000Y-46350000D03*
%TD*%
D44*
%TO.C,U5*%
X36675000Y-46812500D03*
X36675000Y-45542500D03*
X36675000Y-44272500D03*
X36675000Y-43002500D03*
X43850000Y-43002500D03*
X43850000Y-44272500D03*
X43850000Y-45542500D03*
X43850000Y-46812500D03*
%TD*%
D31*
%TO.C,J3*%
X53000000Y-45950000D03*
X53000000Y-48490000D03*
D32*
X53000000Y-51030000D03*
%TD*%
D16*
%TO.C,C13*%
X31450000Y-39600000D03*
X33350000Y-39600000D03*
%TD*%
D38*
%TO.C,R3*%
X54300000Y-26900000D03*
X52400000Y-26900000D03*
%TD*%
D19*
%TO.C,C15*%
X28525000Y-33500000D03*
X28525000Y-35400000D03*
%TD*%
D45*
%TO.C,J1*%
X58200000Y-45900000D03*
X58200000Y-48400000D03*
X58200000Y-50900000D03*
X58200000Y-53400000D03*
D46*
X58200000Y-55900000D03*
%TD*%
D47*
%TO.C,R1*%
X52437500Y-29600000D03*
X54262500Y-29600000D03*
%TD*%
D33*
%TO.C,BOOT*%
X19025000Y-64550000D03*
X24175000Y-64550000D03*
X19025000Y-66250000D03*
X24175000Y-66250000D03*
%TD*%
D20*
%TO.C,U$1*%
X56750000Y-79500000D03*
%TD*%
D16*
%TO.C,C16*%
X14150000Y-40216000D03*
X16050000Y-40216000D03*
%TD*%
D28*
%TO.C,R25*%
X48312500Y-41200000D03*
X46487500Y-41200000D03*
%TD*%
D42*
%TO.C,R21*%
X31000000Y-16062500D03*
X31000000Y-14237500D03*
%TD*%
D28*
%TO.C,R2*%
X58912500Y-31600000D03*
X57087500Y-31600000D03*
%TD*%
D48*
%TO.C,SW1*%
X40750000Y-30200000D03*
X35600000Y-30200000D03*
X40750000Y-28500000D03*
X35600000Y-28500000D03*
%TD*%
D42*
%TO.C,R19*%
X45250000Y-76062500D03*
X45250000Y-74237500D03*
%TD*%
D28*
%TO.C,R18*%
X48312500Y-45200000D03*
X46487500Y-45200000D03*
%TD*%
D47*
%TO.C,R20*%
X14167500Y-49110000D03*
X15992500Y-49110000D03*
%TD*%
D49*
%TO.C,R8*%
X15200000Y-73620000D03*
X15200000Y-58380000D03*
%TD*%
D50*
%TO.C,Q2*%
X52512500Y-21450000D03*
X54387500Y-20500000D03*
X54387500Y-22400000D03*
%TD*%
D17*
%TO.C,C22*%
X23600000Y-52150000D03*
X23600000Y-50250000D03*
%TD*%
D38*
%TO.C,C9*%
X16050000Y-42462000D03*
X14150000Y-42462000D03*
%TD*%
D17*
%TO.C,C21*%
X29800000Y-46350000D03*
X29800000Y-44450000D03*
%TD*%
D28*
%TO.C,R16*%
X15992500Y-46924000D03*
X14167500Y-46924000D03*
%TD*%
D43*
%TO.C,R24*%
X40500000Y-22287500D03*
X40500000Y-24112500D03*
%TD*%
D51*
%TO.C,D2*%
X34900000Y-33225000D03*
X31600000Y-33225000D03*
%TD*%
%LPD*%
M02*
