%TF.GenerationSoftware,KiCad,Pcbnew,9.0.6*%
%TF.CreationDate,2025-12-18T05:42:00-08:00*%
%TF.ProjectId,bramble,6272616d-626c-4652-9e6b-696361645f70,rev?*%
%TF.SameCoordinates,Original*%
%TF.FileFunction,Soldermask,Bot*%
%TF.FilePolarity,Negative*%
%FSLAX46Y46*%
G04 Gerber Fmt 4.6, Leading zero omitted, Abs format (unit mm)*
G04 Created by KiCad (PCBNEW 9.0.6) date 2025-12-18 05:42:00*
%MOMM*%
%LPD*%
G01*
G04 APERTURE LIST*
G04 Aperture macros list*
%AMRoundRect*
0 Rectangle with rounded corners*
0 $1 Rounding radius*
0 $2 $3 $4 $5 $6 $7 $8 $9 X,Y pos of 4 corners*
0 Add a 4 corners polygon primitive as box body*
4,1,4,$2,$3,$4,$5,$6,$7,$8,$9,$2,$3,0*
0 Add four circle primitives for the rounded corners*
1,1,$1+$1,$2,$3*
1,1,$1+$1,$4,$5*
1,1,$1+$1,$6,$7*
1,1,$1+$1,$8,$9*
0 Add four rect primitives between the rounded corners*
20,1,$1+$1,$2,$3,$4,$5,0*
20,1,$1+$1,$4,$5,$6,$7,0*
20,1,$1+$1,$6,$7,$8,$9,0*
20,1,$1+$1,$8,$9,$2,$3,0*%
%AMFreePoly0*
4,1,9,5.362500,-0.866500,1.237500,-0.866500,1.237500,-0.450000,-1.237500,-0.450000,-1.237500,0.450000,1.237500,0.450000,1.237500,0.866500,5.362500,0.866500,5.362500,-0.866500,5.362500,-0.866500,$1*%
G04 Aperture macros list end*
%ADD10RoundRect,0.250000X0.262500X0.450000X-0.262500X0.450000X-0.262500X-0.450000X0.262500X-0.450000X0*%
%ADD11C,5.000000*%
%ADD12O,1.700000X1.950000*%
%ADD13RoundRect,0.250000X0.600000X0.725000X-0.600000X0.725000X-0.600000X-0.725000X0.600000X-0.725000X0*%
%ADD14C,1.200000*%
%ADD15C,1.800000*%
%ADD16R,1.800000X1.800000*%
%ADD17C,1.700000*%
%ADD18R,1.700000X1.700000*%
%ADD19C,0.650000*%
%ADD20O,1.950000X1.700000*%
%ADD21RoundRect,0.250000X0.725000X-0.600000X0.725000X0.600000X-0.725000X0.600000X-0.725000X-0.600000X0*%
%ADD22C,2.400000*%
%ADD23RoundRect,0.250000X-0.262500X-0.450000X0.262500X-0.450000X0.262500X0.450000X-0.262500X0.450000X0*%
%ADD24RoundRect,0.250000X-0.250000X-0.475000X0.250000X-0.475000X0.250000X0.475000X-0.250000X0.475000X0*%
%ADD25RoundRect,0.100000X0.637500X0.100000X-0.637500X0.100000X-0.637500X-0.100000X0.637500X-0.100000X0*%
%ADD26RoundRect,0.250001X1.412499X0.949999X-1.412499X0.949999X-1.412499X-0.949999X1.412499X-0.949999X0*%
%ADD27RoundRect,0.250000X0.250000X0.475000X-0.250000X0.475000X-0.250000X-0.475000X0.250000X-0.475000X0*%
%ADD28R,1.800000X1.000000*%
%ADD29RoundRect,0.225000X0.925000X0.225000X-0.925000X0.225000X-0.925000X-0.225000X0.925000X-0.225000X0*%
%ADD30FreePoly0,180.000000*%
%ADD31RoundRect,0.250000X-0.450000X0.262500X-0.450000X-0.262500X0.450000X-0.262500X0.450000X0.262500X0*%
%ADD32RoundRect,0.250000X-0.475000X0.250000X-0.475000X-0.250000X0.475000X-0.250000X0.475000X0.250000X0*%
%ADD33RoundRect,0.250000X0.450000X-0.262500X0.450000X0.262500X-0.450000X0.262500X-0.450000X-0.262500X0*%
G04 APERTURE END LIST*
D10*
%TO.C,R14*%
X33787500Y-33050000D03*
X35612500Y-33050000D03*
%TD*%
D11*
%TO.C,U$3*%
X56750000Y-17000000D03*
%TD*%
%TO.C,U$2*%
X16750000Y-79500000D03*
%TD*%
D12*
%TO.C,J2*%
X33900000Y-79700000D03*
X36400000Y-79700000D03*
D13*
X38900000Y-79700000D03*
D14*
X40500000Y-77700000D03*
%TD*%
D15*
%TO.C,D1*%
X57740000Y-40000000D03*
X55200000Y-40000000D03*
D16*
X52660000Y-40000000D03*
%TD*%
D17*
%TO.C,J6*%
X56450000Y-61410000D03*
X58990000Y-61410000D03*
X56450000Y-63950000D03*
X58990000Y-63950000D03*
X56450000Y-66490000D03*
X58990000Y-66490000D03*
X56450000Y-69030000D03*
X58990000Y-69030000D03*
X56450000Y-71570000D03*
X58990000Y-71570000D03*
X56450000Y-74110000D03*
D18*
X58990000Y-74110000D03*
%TD*%
D11*
%TO.C,U$4*%
X16750000Y-17000000D03*
%TD*%
D19*
%TO.C,J4*%
X36560000Y-18775000D03*
X42340000Y-18775000D03*
%TD*%
D17*
%TO.C,J3*%
X53000000Y-45950000D03*
X53000000Y-48490000D03*
D18*
X53000000Y-51030000D03*
%TD*%
D20*
%TO.C,J1*%
X58200000Y-45900000D03*
X58200000Y-48400000D03*
X58200000Y-50900000D03*
X58200000Y-53400000D03*
D21*
X58200000Y-55900000D03*
%TD*%
D11*
%TO.C,U$1*%
X56750000Y-79500000D03*
%TD*%
D22*
%TO.C,R8*%
X15200000Y-73620000D03*
X15200000Y-58380000D03*
%TD*%
D23*
%TO.C,R10*%
X29912500Y-43500000D03*
X28087500Y-43500000D03*
%TD*%
D10*
%TO.C,R13*%
X37662500Y-33050000D03*
X39487500Y-33050000D03*
%TD*%
D24*
%TO.C,C7*%
X44700000Y-20825000D03*
X42800000Y-20825000D03*
%TD*%
D25*
%TO.C,U2*%
X33637500Y-25325000D03*
X33637500Y-25975000D03*
X33637500Y-26625000D03*
X33637500Y-27275000D03*
X33637500Y-27925000D03*
X33637500Y-28575000D03*
X33637500Y-29225000D03*
X33637500Y-29875000D03*
X33637500Y-30525000D03*
X33637500Y-31175000D03*
X39362500Y-31175000D03*
X39362500Y-30525000D03*
X39362500Y-29875000D03*
X39362500Y-29225000D03*
X39362500Y-28575000D03*
X39362500Y-27925000D03*
X39362500Y-27275000D03*
X39362500Y-26625000D03*
X39362500Y-25975000D03*
X39362500Y-25325000D03*
%TD*%
D26*
%TO.C,Y2*%
X21787500Y-32650000D03*
X27312500Y-32650000D03*
%TD*%
D24*
%TO.C,C3*%
X48680000Y-23676667D03*
X46780000Y-23676667D03*
%TD*%
%TO.C,TPS_C_OUT1*%
X29790000Y-53170000D03*
X27890000Y-53170000D03*
%TD*%
D25*
%TO.C,U1*%
X18637500Y-49850000D03*
X18637500Y-50500000D03*
X18637500Y-51150000D03*
X18637500Y-51800000D03*
X18637500Y-52450000D03*
X18637500Y-53100000D03*
X18637500Y-53750000D03*
X24362500Y-53750000D03*
X24362500Y-53100000D03*
X24362500Y-52450000D03*
X24362500Y-51800000D03*
X24362500Y-51150000D03*
X24362500Y-50500000D03*
X24362500Y-49850000D03*
%TD*%
D10*
%TO.C,R12*%
X27917500Y-55610000D03*
X29742500Y-55610000D03*
%TD*%
D24*
%TO.C,C8*%
X48675000Y-20825000D03*
X46775000Y-20825000D03*
%TD*%
D27*
%TO.C,C10*%
X20300000Y-36000000D03*
X22200000Y-36000000D03*
%TD*%
D10*
%TO.C,R9*%
X31747500Y-43460000D03*
X33572500Y-43460000D03*
%TD*%
%TO.C,R11*%
X18347500Y-45200000D03*
X20172500Y-45200000D03*
%TD*%
D28*
%TO.C,Y1*%
X43225000Y-26302500D03*
X43225000Y-23802500D03*
%TD*%
D10*
%TO.C,R6*%
X22757500Y-45200000D03*
X24582500Y-45200000D03*
%TD*%
D29*
%TO.C,U3*%
X31337500Y-22250000D03*
D30*
X31250000Y-20750000D03*
D29*
X31337500Y-19250000D03*
%TD*%
D24*
%TO.C,C5*%
X25200000Y-24750000D03*
X23300000Y-24750000D03*
%TD*%
%TO.C,TPS_C_IN1*%
X29750000Y-47225000D03*
X27850000Y-47225000D03*
%TD*%
D31*
%TO.C,R5*%
X28200000Y-75622500D03*
X28200000Y-73797500D03*
%TD*%
D32*
%TO.C,C6*%
X37600000Y-21770000D03*
X37600000Y-19870000D03*
%TD*%
D33*
%TO.C,R15*%
X40200000Y-19887500D03*
X40200000Y-21712500D03*
%TD*%
D24*
%TO.C,C1*%
X48680000Y-26478333D03*
X46780000Y-26478333D03*
%TD*%
D10*
%TO.C,R7*%
X27912500Y-50600000D03*
X29737500Y-50600000D03*
%TD*%
D32*
%TO.C,C4*%
X34000000Y-20700000D03*
X34000000Y-18800000D03*
%TD*%
D27*
%TO.C,C2*%
X28000000Y-28000000D03*
X29900000Y-28000000D03*
%TD*%
%TO.C,C11*%
X26050000Y-36000000D03*
X27950000Y-36000000D03*
%TD*%
M02*
