%TF.GenerationSoftware,KiCad,Pcbnew,9.0.6*%
%TF.CreationDate,2026-05-07T05:22:06-07:00*%
%TF.ProjectId,bramble,6272616d-626c-4652-9e6b-696361645f70,rev?*%
%TF.SameCoordinates,Original*%
%TF.FileFunction,Legend,Bot*%
%TF.FilePolarity,Positive*%
%FSLAX46Y46*%
G04 Gerber Fmt 4.6, Leading zero omitted, Abs format (unit mm)*
G04 Created by KiCad (PCBNEW 9.0.6) date 2026-05-07 05:22:06*
%MOMM*%
%LPD*%
G01*
G04 APERTURE LIST*
G04 Aperture macros list*
%AMRoundRect*
0 Rectangle with rounded corners*
0 $1 Rounding radius*
0 $2 $3 $4 $5 $6 $7 $8 $9 X,Y pos of 4 corners*
0 Add a 4 corners polygon primitive as box body*
4,1,4,$2,$3,$4,$5,$6,$7,$8,$9,$2,$3,0*
0 Add four circle primitives for the rounded corners*
1,1,$1+$1,$2,$3*
1,1,$1+$1,$4,$5*
1,1,$1+$1,$6,$7*
1,1,$1+$1,$8,$9*
0 Add four rect primitives between the rounded corners*
20,1,$1+$1,$2,$3,$4,$5,0*
20,1,$1+$1,$4,$5,$6,$7,0*
20,1,$1+$1,$6,$7,$8,$9,0*
20,1,$1+$1,$8,$9,$2,$3,0*%
%AMFreePoly0*
4,1,9,5.362500,-0.866500,1.237500,-0.866500,1.237500,-0.450000,-1.237500,-0.450000,-1.237500,0.450000,1.237500,0.450000,1.237500,0.866500,5.362500,0.866500,5.362500,-0.866500,5.362500,-0.866500,$1*%
G04 Aperture macros list end*
%ADD10C,0.300000*%
%ADD11C,0.100000*%
%ADD12C,0.000000*%
%ADD13C,0.120000*%
%ADD14RoundRect,0.250000X-0.600000X-0.600000X0.600000X-0.600000X0.600000X0.600000X-0.600000X0.600000X0*%
%ADD15C,1.700000*%
%ADD16C,1.400000*%
%ADD17RoundRect,0.250000X0.350000X0.625000X-0.350000X0.625000X-0.350000X-0.625000X0.350000X-0.625000X0*%
%ADD18O,1.200000X1.750000*%
%ADD19C,7.000000*%
%ADD20C,0.660000*%
%ADD21O,1.000000X0.580000*%
%ADD22C,1.100000*%
%ADD23C,2.400000*%
%ADD24C,0.600000*%
%ADD25RoundRect,0.250000X-0.600000X-0.725000X0.600000X-0.725000X0.600000X0.725000X-0.600000X0.725000X0*%
%ADD26O,1.700000X1.950000*%
%ADD27RoundRect,0.250000X-0.262500X-0.450000X0.262500X-0.450000X0.262500X0.450000X-0.262500X0.450000X0*%
%ADD28R,1.500000X1.500000*%
%ADD29RoundRect,0.250000X0.475000X-0.250000X0.475000X0.250000X-0.475000X0.250000X-0.475000X-0.250000X0*%
%ADD30RoundRect,0.100000X0.637500X0.100000X-0.637500X0.100000X-0.637500X-0.100000X0.637500X-0.100000X0*%
%ADD31RoundRect,0.250000X-0.250000X-0.475000X0.250000X-0.475000X0.250000X0.475000X-0.250000X0.475000X0*%
%ADD32RoundRect,0.250000X0.262500X0.450000X-0.262500X0.450000X-0.262500X-0.450000X0.262500X-0.450000X0*%
%ADD33RoundRect,0.250000X0.450000X-0.262500X0.450000X0.262500X-0.450000X0.262500X-0.450000X-0.262500X0*%
%ADD34R,1.800000X1.000000*%
%ADD35RoundRect,0.225000X-0.225000X0.925000X-0.225000X-0.925000X0.225000X-0.925000X0.225000X0.925000X0*%
%ADD36FreePoly0,270.000000*%
%ADD37RoundRect,0.250000X0.250000X0.475000X-0.250000X0.475000X-0.250000X-0.475000X0.250000X-0.475000X0*%
%ADD38RoundRect,0.150000X-0.825000X-0.150000X0.825000X-0.150000X0.825000X0.150000X-0.825000X0.150000X0*%
%ADD39R,2.290000X3.000000*%
%ADD40RoundRect,0.250000X-0.475000X0.250000X-0.475000X-0.250000X0.475000X-0.250000X0.475000X0.250000X0*%
G04 APERTURE END LIST*
D10*
G36*
X51756752Y-73294400D02*
G01*
X50574760Y-73294400D01*
X50356310Y-73280651D01*
X50169745Y-73241870D01*
X50000624Y-73174877D01*
X49863897Y-73084282D01*
X49752515Y-72967490D01*
X49668671Y-72825400D01*
X49617350Y-72663769D01*
X49599286Y-72472422D01*
X49602535Y-72419893D01*
X50342879Y-72419893D01*
X50357108Y-72517439D01*
X50396953Y-72591336D01*
X50463320Y-72647520D01*
X50547506Y-72682999D01*
X50675363Y-72708406D01*
X50861953Y-72718377D01*
X51023632Y-72718377D01*
X51023632Y-72121409D01*
X50861953Y-72121409D01*
X50675363Y-72131379D01*
X50547506Y-72156787D01*
X50463320Y-72192266D01*
X50396968Y-72248359D01*
X50357117Y-72322245D01*
X50342879Y-72419893D01*
X49602535Y-72419893D01*
X49607021Y-72347355D01*
X49629560Y-72232358D01*
X49669721Y-72124990D01*
X49729382Y-72029605D01*
X49808123Y-71947561D01*
X49910207Y-71877581D01*
X50029010Y-71825069D01*
X50179563Y-71785614D01*
X50082408Y-71713455D01*
X50005891Y-71633718D01*
X49947682Y-71545877D01*
X49907044Y-71448588D01*
X49880956Y-71331009D01*
X49878852Y-71299104D01*
X50541868Y-71299104D01*
X50555793Y-71399336D01*
X50594163Y-71473035D01*
X50657025Y-71527074D01*
X50751021Y-71563042D01*
X50887973Y-71576806D01*
X51023632Y-71576806D01*
X51023632Y-71021730D01*
X50887973Y-71021730D01*
X50750990Y-71035485D01*
X50656988Y-71071424D01*
X50594138Y-71125410D01*
X50555785Y-71199017D01*
X50541868Y-71299104D01*
X49878852Y-71299104D01*
X49871588Y-71188972D01*
X49885766Y-71012459D01*
X49925456Y-70866509D01*
X49988093Y-70745443D01*
X50073523Y-70645024D01*
X50179032Y-70566543D01*
X50309040Y-70507741D01*
X50468726Y-70469855D01*
X50664600Y-70456180D01*
X51756752Y-70456180D01*
X51756752Y-73294400D01*
G37*
G36*
X49162033Y-73299636D02*
G01*
X48428914Y-73299636D01*
X48428914Y-72209121D01*
X47729832Y-73299636D01*
X46814415Y-73299636D01*
X47703649Y-72137773D01*
X47510869Y-72072867D01*
X47360187Y-71981947D01*
X47244140Y-71865635D01*
X47160164Y-71724014D01*
X47107258Y-71551897D01*
X47091973Y-71381907D01*
X47842418Y-71381907D01*
X47856151Y-71489069D01*
X47894795Y-71573786D01*
X47958277Y-71641445D01*
X48040404Y-71688946D01*
X48148730Y-71720093D01*
X48290636Y-71731612D01*
X48428914Y-71731612D01*
X48428914Y-71032203D01*
X48290636Y-71032203D01*
X48148744Y-71043740D01*
X48040417Y-71074940D01*
X47958277Y-71122533D01*
X47894801Y-71190093D01*
X47856155Y-71274751D01*
X47842418Y-71381907D01*
X47091973Y-71381907D01*
X47088353Y-71341651D01*
X47103081Y-71165655D01*
X47146282Y-71003729D01*
X47218429Y-70855155D01*
X47318434Y-70725864D01*
X47445711Y-70619946D01*
X47608573Y-70536202D01*
X47793718Y-70485033D01*
X48020461Y-70466654D01*
X49162033Y-70466654D01*
X49162033Y-73299636D01*
G37*
G36*
X46768922Y-73294400D02*
G01*
X45984746Y-73294400D01*
X45815867Y-72802162D01*
X44765281Y-72802162D01*
X44596401Y-73294400D01*
X43812226Y-73294400D01*
X44214334Y-72236613D01*
X44960343Y-72236613D01*
X45620805Y-72236613D01*
X45290574Y-71296649D01*
X44960343Y-72236613D01*
X44214334Y-72236613D01*
X44889158Y-70461417D01*
X45691989Y-70461417D01*
X46768922Y-73294400D01*
G37*
G36*
X43617818Y-73294400D02*
G01*
X43137527Y-70456180D01*
X42409644Y-70456180D01*
X41843113Y-71969384D01*
X41280346Y-70456180D01*
X40552463Y-70456180D01*
X40072172Y-73294400D01*
X40803818Y-73294400D01*
X41047809Y-71660754D01*
X41715635Y-73294400D01*
X42008228Y-73294400D01*
X42642344Y-71660754D01*
X42886172Y-73294400D01*
X43617818Y-73294400D01*
G37*
G36*
X39610535Y-73294400D02*
G01*
X38428544Y-73294400D01*
X38210094Y-73280651D01*
X38023528Y-73241870D01*
X37854408Y-73174877D01*
X37717680Y-73084282D01*
X37606298Y-72967490D01*
X37522454Y-72825400D01*
X37471133Y-72663769D01*
X37453070Y-72472422D01*
X37456319Y-72419893D01*
X38196662Y-72419893D01*
X38210892Y-72517439D01*
X38250736Y-72591336D01*
X38317103Y-72647520D01*
X38401290Y-72682999D01*
X38529146Y-72708406D01*
X38715737Y-72718377D01*
X38877416Y-72718377D01*
X38877416Y-72121409D01*
X38715737Y-72121409D01*
X38529146Y-72131379D01*
X38401290Y-72156787D01*
X38317103Y-72192266D01*
X38250752Y-72248359D01*
X38210901Y-72322245D01*
X38196662Y-72419893D01*
X37456319Y-72419893D01*
X37460805Y-72347355D01*
X37483344Y-72232358D01*
X37523505Y-72124990D01*
X37583166Y-72029605D01*
X37661907Y-71947561D01*
X37763991Y-71877581D01*
X37882794Y-71825069D01*
X38033347Y-71785614D01*
X37936192Y-71713455D01*
X37859675Y-71633718D01*
X37801465Y-71545877D01*
X37760828Y-71448588D01*
X37734739Y-71331009D01*
X37732635Y-71299104D01*
X38395652Y-71299104D01*
X38409577Y-71399336D01*
X38447946Y-71473035D01*
X38510808Y-71527074D01*
X38604805Y-71563042D01*
X38741756Y-71576806D01*
X38877416Y-71576806D01*
X38877416Y-71021730D01*
X38741756Y-71021730D01*
X38604773Y-71035485D01*
X38510772Y-71071424D01*
X38447921Y-71125410D01*
X38409569Y-71199017D01*
X38395652Y-71299104D01*
X37732635Y-71299104D01*
X37725371Y-71188972D01*
X37739550Y-71012459D01*
X37779240Y-70866509D01*
X37841877Y-70745443D01*
X37927307Y-70645024D01*
X38032816Y-70566543D01*
X38162824Y-70507741D01*
X38322509Y-70469855D01*
X38518384Y-70456180D01*
X39610535Y-70456180D01*
X39610535Y-73294400D01*
G37*
G36*
X36282697Y-70461417D02*
G01*
X36282697Y-72666012D01*
X35397718Y-72666012D01*
X35397718Y-73294400D01*
X37015817Y-73294400D01*
X37015817Y-70461417D01*
X36282697Y-70461417D01*
G37*
G36*
X33413059Y-71084568D02*
G01*
X34287565Y-71084568D01*
X34287565Y-71555859D01*
X33460188Y-71555859D01*
X33460188Y-72184247D01*
X34287565Y-72184247D01*
X34287565Y-72666012D01*
X33413059Y-72666012D01*
X33413059Y-73294400D01*
X35020685Y-73294400D01*
X35020685Y-70456180D01*
X33413059Y-70456180D01*
X33413059Y-71084568D01*
G37*
D11*
X42612782Y-68345304D02*
X42493734Y-68678637D01*
X42493734Y-68678637D02*
X42374687Y-68345304D01*
X42088973Y-68178637D02*
X42041354Y-68178637D01*
X42041354Y-68178637D02*
X41993735Y-68202447D01*
X41993735Y-68202447D02*
X41969925Y-68226256D01*
X41969925Y-68226256D02*
X41946116Y-68273875D01*
X41946116Y-68273875D02*
X41922306Y-68369113D01*
X41922306Y-68369113D02*
X41922306Y-68488161D01*
X41922306Y-68488161D02*
X41946116Y-68583399D01*
X41946116Y-68583399D02*
X41969925Y-68631018D01*
X41969925Y-68631018D02*
X41993735Y-68654828D01*
X41993735Y-68654828D02*
X42041354Y-68678637D01*
X42041354Y-68678637D02*
X42088973Y-68678637D01*
X42088973Y-68678637D02*
X42136592Y-68654828D01*
X42136592Y-68654828D02*
X42160401Y-68631018D01*
X42160401Y-68631018D02*
X42184211Y-68583399D01*
X42184211Y-68583399D02*
X42208020Y-68488161D01*
X42208020Y-68488161D02*
X42208020Y-68369113D01*
X42208020Y-68369113D02*
X42184211Y-68273875D01*
X42184211Y-68273875D02*
X42160401Y-68226256D01*
X42160401Y-68226256D02*
X42136592Y-68202447D01*
X42136592Y-68202447D02*
X42088973Y-68178637D01*
X41708021Y-68631018D02*
X41684211Y-68654828D01*
X41684211Y-68654828D02*
X41708021Y-68678637D01*
X41708021Y-68678637D02*
X41731830Y-68654828D01*
X41731830Y-68654828D02*
X41708021Y-68631018D01*
X41708021Y-68631018D02*
X41708021Y-68678637D01*
X41231831Y-68178637D02*
X41469926Y-68178637D01*
X41469926Y-68178637D02*
X41493735Y-68416732D01*
X41493735Y-68416732D02*
X41469926Y-68392923D01*
X41469926Y-68392923D02*
X41422307Y-68369113D01*
X41422307Y-68369113D02*
X41303259Y-68369113D01*
X41303259Y-68369113D02*
X41255640Y-68392923D01*
X41255640Y-68392923D02*
X41231831Y-68416732D01*
X41231831Y-68416732D02*
X41208021Y-68464351D01*
X41208021Y-68464351D02*
X41208021Y-68583399D01*
X41208021Y-68583399D02*
X41231831Y-68631018D01*
X41231831Y-68631018D02*
X41255640Y-68654828D01*
X41255640Y-68654828D02*
X41303259Y-68678637D01*
X41303259Y-68678637D02*
X41422307Y-68678637D01*
X41422307Y-68678637D02*
X41469926Y-68654828D01*
X41469926Y-68654828D02*
X41493735Y-68631018D01*
X40969926Y-68654828D02*
X40969926Y-68678637D01*
X40969926Y-68678637D02*
X40993736Y-68726256D01*
X40993736Y-68726256D02*
X41017545Y-68750066D01*
X40398498Y-68535780D02*
X40160403Y-68535780D01*
X40446117Y-68678637D02*
X40279451Y-68178637D01*
X40279451Y-68178637D02*
X40112784Y-68678637D01*
X39946118Y-68345304D02*
X39946118Y-68845304D01*
X39946118Y-68369113D02*
X39898499Y-68345304D01*
X39898499Y-68345304D02*
X39803261Y-68345304D01*
X39803261Y-68345304D02*
X39755642Y-68369113D01*
X39755642Y-68369113D02*
X39731832Y-68392923D01*
X39731832Y-68392923D02*
X39708023Y-68440542D01*
X39708023Y-68440542D02*
X39708023Y-68583399D01*
X39708023Y-68583399D02*
X39731832Y-68631018D01*
X39731832Y-68631018D02*
X39755642Y-68654828D01*
X39755642Y-68654828D02*
X39803261Y-68678637D01*
X39803261Y-68678637D02*
X39898499Y-68678637D01*
X39898499Y-68678637D02*
X39946118Y-68654828D01*
X39493737Y-68678637D02*
X39493737Y-68345304D01*
X39493737Y-68440542D02*
X39469927Y-68392923D01*
X39469927Y-68392923D02*
X39446118Y-68369113D01*
X39446118Y-68369113D02*
X39398499Y-68345304D01*
X39398499Y-68345304D02*
X39350880Y-68345304D01*
X39184213Y-68678637D02*
X39184213Y-68345304D01*
X39184213Y-68178637D02*
X39208022Y-68202447D01*
X39208022Y-68202447D02*
X39184213Y-68226256D01*
X39184213Y-68226256D02*
X39160403Y-68202447D01*
X39160403Y-68202447D02*
X39184213Y-68178637D01*
X39184213Y-68178637D02*
X39184213Y-68226256D01*
X38874689Y-68678637D02*
X38922308Y-68654828D01*
X38922308Y-68654828D02*
X38946118Y-68607208D01*
X38946118Y-68607208D02*
X38946118Y-68178637D01*
X38327070Y-68226256D02*
X38303261Y-68202447D01*
X38303261Y-68202447D02*
X38255642Y-68178637D01*
X38255642Y-68178637D02*
X38136594Y-68178637D01*
X38136594Y-68178637D02*
X38088975Y-68202447D01*
X38088975Y-68202447D02*
X38065166Y-68226256D01*
X38065166Y-68226256D02*
X38041356Y-68273875D01*
X38041356Y-68273875D02*
X38041356Y-68321494D01*
X38041356Y-68321494D02*
X38065166Y-68392923D01*
X38065166Y-68392923D02*
X38350880Y-68678637D01*
X38350880Y-68678637D02*
X38041356Y-68678637D01*
X37731833Y-68178637D02*
X37684214Y-68178637D01*
X37684214Y-68178637D02*
X37636595Y-68202447D01*
X37636595Y-68202447D02*
X37612785Y-68226256D01*
X37612785Y-68226256D02*
X37588976Y-68273875D01*
X37588976Y-68273875D02*
X37565166Y-68369113D01*
X37565166Y-68369113D02*
X37565166Y-68488161D01*
X37565166Y-68488161D02*
X37588976Y-68583399D01*
X37588976Y-68583399D02*
X37612785Y-68631018D01*
X37612785Y-68631018D02*
X37636595Y-68654828D01*
X37636595Y-68654828D02*
X37684214Y-68678637D01*
X37684214Y-68678637D02*
X37731833Y-68678637D01*
X37731833Y-68678637D02*
X37779452Y-68654828D01*
X37779452Y-68654828D02*
X37803261Y-68631018D01*
X37803261Y-68631018D02*
X37827071Y-68583399D01*
X37827071Y-68583399D02*
X37850880Y-68488161D01*
X37850880Y-68488161D02*
X37850880Y-68369113D01*
X37850880Y-68369113D02*
X37827071Y-68273875D01*
X37827071Y-68273875D02*
X37803261Y-68226256D01*
X37803261Y-68226256D02*
X37779452Y-68202447D01*
X37779452Y-68202447D02*
X37731833Y-68178637D01*
X37374690Y-68226256D02*
X37350881Y-68202447D01*
X37350881Y-68202447D02*
X37303262Y-68178637D01*
X37303262Y-68178637D02*
X37184214Y-68178637D01*
X37184214Y-68178637D02*
X37136595Y-68202447D01*
X37136595Y-68202447D02*
X37112786Y-68226256D01*
X37112786Y-68226256D02*
X37088976Y-68273875D01*
X37088976Y-68273875D02*
X37088976Y-68321494D01*
X37088976Y-68321494D02*
X37112786Y-68392923D01*
X37112786Y-68392923D02*
X37398500Y-68678637D01*
X37398500Y-68678637D02*
X37088976Y-68678637D01*
X36660405Y-68178637D02*
X36755643Y-68178637D01*
X36755643Y-68178637D02*
X36803262Y-68202447D01*
X36803262Y-68202447D02*
X36827072Y-68226256D01*
X36827072Y-68226256D02*
X36874691Y-68297685D01*
X36874691Y-68297685D02*
X36898500Y-68392923D01*
X36898500Y-68392923D02*
X36898500Y-68583399D01*
X36898500Y-68583399D02*
X36874691Y-68631018D01*
X36874691Y-68631018D02*
X36850881Y-68654828D01*
X36850881Y-68654828D02*
X36803262Y-68678637D01*
X36803262Y-68678637D02*
X36708024Y-68678637D01*
X36708024Y-68678637D02*
X36660405Y-68654828D01*
X36660405Y-68654828D02*
X36636596Y-68631018D01*
X36636596Y-68631018D02*
X36612786Y-68583399D01*
X36612786Y-68583399D02*
X36612786Y-68464351D01*
X36612786Y-68464351D02*
X36636596Y-68416732D01*
X36636596Y-68416732D02*
X36660405Y-68392923D01*
X36660405Y-68392923D02*
X36708024Y-68369113D01*
X36708024Y-68369113D02*
X36803262Y-68369113D01*
X36803262Y-68369113D02*
X36850881Y-68392923D01*
X36850881Y-68392923D02*
X36874691Y-68416732D01*
X36874691Y-68416732D02*
X36898500Y-68464351D01*
X42565163Y-69221704D02*
X42398496Y-69221704D01*
X42327068Y-69483609D02*
X42565163Y-69483609D01*
X42565163Y-69483609D02*
X42565163Y-68983609D01*
X42565163Y-68983609D02*
X42327068Y-68983609D01*
X42112782Y-69435990D02*
X42088972Y-69459800D01*
X42088972Y-69459800D02*
X42112782Y-69483609D01*
X42112782Y-69483609D02*
X42136591Y-69459800D01*
X42136591Y-69459800D02*
X42112782Y-69435990D01*
X42112782Y-69435990D02*
X42112782Y-69483609D01*
X41493735Y-69221704D02*
X41327068Y-69221704D01*
X41255640Y-69483609D02*
X41493735Y-69483609D01*
X41493735Y-69483609D02*
X41493735Y-68983609D01*
X41493735Y-68983609D02*
X41255640Y-68983609D01*
X41041354Y-69435990D02*
X41017544Y-69459800D01*
X41017544Y-69459800D02*
X41041354Y-69483609D01*
X41041354Y-69483609D02*
X41065163Y-69459800D01*
X41065163Y-69459800D02*
X41041354Y-69435990D01*
X41041354Y-69435990D02*
X41041354Y-69483609D01*
X40255640Y-69221704D02*
X40184212Y-69245514D01*
X40184212Y-69245514D02*
X40160402Y-69269323D01*
X40160402Y-69269323D02*
X40136593Y-69316942D01*
X40136593Y-69316942D02*
X40136593Y-69388371D01*
X40136593Y-69388371D02*
X40160402Y-69435990D01*
X40160402Y-69435990D02*
X40184212Y-69459800D01*
X40184212Y-69459800D02*
X40231831Y-69483609D01*
X40231831Y-69483609D02*
X40422307Y-69483609D01*
X40422307Y-69483609D02*
X40422307Y-68983609D01*
X40422307Y-68983609D02*
X40255640Y-68983609D01*
X40255640Y-68983609D02*
X40208021Y-69007419D01*
X40208021Y-69007419D02*
X40184212Y-69031228D01*
X40184212Y-69031228D02*
X40160402Y-69078847D01*
X40160402Y-69078847D02*
X40160402Y-69126466D01*
X40160402Y-69126466D02*
X40184212Y-69174085D01*
X40184212Y-69174085D02*
X40208021Y-69197895D01*
X40208021Y-69197895D02*
X40255640Y-69221704D01*
X40255640Y-69221704D02*
X40422307Y-69221704D01*
X39731831Y-69459800D02*
X39779450Y-69483609D01*
X39779450Y-69483609D02*
X39874688Y-69483609D01*
X39874688Y-69483609D02*
X39922307Y-69459800D01*
X39922307Y-69459800D02*
X39946116Y-69412180D01*
X39946116Y-69412180D02*
X39946116Y-69221704D01*
X39946116Y-69221704D02*
X39922307Y-69174085D01*
X39922307Y-69174085D02*
X39874688Y-69150276D01*
X39874688Y-69150276D02*
X39779450Y-69150276D01*
X39779450Y-69150276D02*
X39731831Y-69174085D01*
X39731831Y-69174085D02*
X39708021Y-69221704D01*
X39708021Y-69221704D02*
X39708021Y-69269323D01*
X39708021Y-69269323D02*
X39946116Y-69316942D01*
X39303260Y-69459800D02*
X39350879Y-69483609D01*
X39350879Y-69483609D02*
X39446117Y-69483609D01*
X39446117Y-69483609D02*
X39493736Y-69459800D01*
X39493736Y-69459800D02*
X39517545Y-69412180D01*
X39517545Y-69412180D02*
X39517545Y-69221704D01*
X39517545Y-69221704D02*
X39493736Y-69174085D01*
X39493736Y-69174085D02*
X39446117Y-69150276D01*
X39446117Y-69150276D02*
X39350879Y-69150276D01*
X39350879Y-69150276D02*
X39303260Y-69174085D01*
X39303260Y-69174085D02*
X39279450Y-69221704D01*
X39279450Y-69221704D02*
X39279450Y-69269323D01*
X39279450Y-69269323D02*
X39517545Y-69316942D01*
X39065165Y-69483609D02*
X39065165Y-69150276D01*
X39065165Y-69245514D02*
X39041355Y-69197895D01*
X39041355Y-69197895D02*
X39017546Y-69174085D01*
X39017546Y-69174085D02*
X38969927Y-69150276D01*
X38969927Y-69150276D02*
X38922308Y-69150276D01*
X38565165Y-69459800D02*
X38612784Y-69483609D01*
X38612784Y-69483609D02*
X38708022Y-69483609D01*
X38708022Y-69483609D02*
X38755641Y-69459800D01*
X38755641Y-69459800D02*
X38779450Y-69412180D01*
X38779450Y-69412180D02*
X38779450Y-69221704D01*
X38779450Y-69221704D02*
X38755641Y-69174085D01*
X38755641Y-69174085D02*
X38708022Y-69150276D01*
X38708022Y-69150276D02*
X38612784Y-69150276D01*
X38612784Y-69150276D02*
X38565165Y-69174085D01*
X38565165Y-69174085D02*
X38541355Y-69221704D01*
X38541355Y-69221704D02*
X38541355Y-69269323D01*
X38541355Y-69269323D02*
X38779450Y-69316942D01*
X38327070Y-69150276D02*
X38327070Y-69650276D01*
X38327070Y-69174085D02*
X38279451Y-69150276D01*
X38279451Y-69150276D02*
X38184213Y-69150276D01*
X38184213Y-69150276D02*
X38136594Y-69174085D01*
X38136594Y-69174085D02*
X38112784Y-69197895D01*
X38112784Y-69197895D02*
X38088975Y-69245514D01*
X38088975Y-69245514D02*
X38088975Y-69388371D01*
X38088975Y-69388371D02*
X38112784Y-69435990D01*
X38112784Y-69435990D02*
X38136594Y-69459800D01*
X38136594Y-69459800D02*
X38184213Y-69483609D01*
X38184213Y-69483609D02*
X38279451Y-69483609D01*
X38279451Y-69483609D02*
X38327070Y-69459800D01*
X37803260Y-69483609D02*
X37850879Y-69459800D01*
X37850879Y-69459800D02*
X37874689Y-69435990D01*
X37874689Y-69435990D02*
X37898498Y-69388371D01*
X37898498Y-69388371D02*
X37898498Y-69245514D01*
X37898498Y-69245514D02*
X37874689Y-69197895D01*
X37874689Y-69197895D02*
X37850879Y-69174085D01*
X37850879Y-69174085D02*
X37803260Y-69150276D01*
X37803260Y-69150276D02*
X37731832Y-69150276D01*
X37731832Y-69150276D02*
X37684213Y-69174085D01*
X37684213Y-69174085D02*
X37660403Y-69197895D01*
X37660403Y-69197895D02*
X37636594Y-69245514D01*
X37636594Y-69245514D02*
X37636594Y-69388371D01*
X37636594Y-69388371D02*
X37660403Y-69435990D01*
X37660403Y-69435990D02*
X37684213Y-69459800D01*
X37684213Y-69459800D02*
X37731832Y-69483609D01*
X37731832Y-69483609D02*
X37803260Y-69483609D01*
X37350879Y-69483609D02*
X37398498Y-69459800D01*
X37398498Y-69459800D02*
X37422308Y-69435990D01*
X37422308Y-69435990D02*
X37446117Y-69388371D01*
X37446117Y-69388371D02*
X37446117Y-69245514D01*
X37446117Y-69245514D02*
X37422308Y-69197895D01*
X37422308Y-69197895D02*
X37398498Y-69174085D01*
X37398498Y-69174085D02*
X37350879Y-69150276D01*
X37350879Y-69150276D02*
X37279451Y-69150276D01*
X37279451Y-69150276D02*
X37231832Y-69174085D01*
X37231832Y-69174085D02*
X37208022Y-69197895D01*
X37208022Y-69197895D02*
X37184213Y-69245514D01*
X37184213Y-69245514D02*
X37184213Y-69388371D01*
X37184213Y-69388371D02*
X37208022Y-69435990D01*
X37208022Y-69435990D02*
X37231832Y-69459800D01*
X37231832Y-69459800D02*
X37279451Y-69483609D01*
X37279451Y-69483609D02*
X37350879Y-69483609D01*
X37041355Y-69150276D02*
X36850879Y-69150276D01*
X36969927Y-68983609D02*
X36969927Y-69412180D01*
X36969927Y-69412180D02*
X36946117Y-69459800D01*
X36946117Y-69459800D02*
X36898498Y-69483609D01*
X36898498Y-69483609D02*
X36850879Y-69483609D01*
D10*
X47269762Y-60566940D02*
X47525952Y-60438845D01*
X47525952Y-60438845D02*
X47910238Y-60438845D01*
X47910238Y-60438845D02*
X48294524Y-60566940D01*
X48294524Y-60566940D02*
X48550714Y-60823130D01*
X48550714Y-60823130D02*
X48678809Y-61079321D01*
X48678809Y-61079321D02*
X48806905Y-61591702D01*
X48806905Y-61591702D02*
X48806905Y-61975988D01*
X48806905Y-61975988D02*
X48678809Y-62488369D01*
X48678809Y-62488369D02*
X48550714Y-62744559D01*
X48550714Y-62744559D02*
X48294524Y-63000750D01*
X48294524Y-63000750D02*
X47910238Y-63128845D01*
X47910238Y-63128845D02*
X47654047Y-63128845D01*
X47654047Y-63128845D02*
X47269762Y-63000750D01*
X47269762Y-63000750D02*
X47141666Y-62872654D01*
X47141666Y-62872654D02*
X47141666Y-61975988D01*
X47141666Y-61975988D02*
X47654047Y-61975988D01*
X45604524Y-60438845D02*
X45604524Y-61079321D01*
X46245000Y-60823130D02*
X45604524Y-61079321D01*
X45604524Y-61079321D02*
X44964047Y-60823130D01*
X45988809Y-61591702D02*
X45604524Y-61079321D01*
X45604524Y-61079321D02*
X45220238Y-61591702D01*
X43555000Y-60438845D02*
X43555000Y-61079321D01*
X44195476Y-60823130D02*
X43555000Y-61079321D01*
X43555000Y-61079321D02*
X42914523Y-60823130D01*
X43939285Y-61591702D02*
X43555000Y-61079321D01*
X43555000Y-61079321D02*
X43170714Y-61591702D01*
X41505476Y-60438845D02*
X41505476Y-61079321D01*
X42145952Y-60823130D02*
X41505476Y-61079321D01*
X41505476Y-61079321D02*
X40864999Y-60823130D01*
X41889761Y-61591702D02*
X41505476Y-61079321D01*
X41505476Y-61079321D02*
X41121190Y-61591702D01*
D12*
%TO.C,G\u002A\u002A\u002A*%
G36*
X46709507Y-57376712D02*
G01*
X46743656Y-57882182D01*
X46629311Y-58379865D01*
X46614799Y-58417913D01*
X46611348Y-58503985D01*
X46726802Y-58477356D01*
X46771474Y-58460089D01*
X47274519Y-58352587D01*
X47760856Y-58391881D01*
X48211517Y-58557434D01*
X48607541Y-58828709D01*
X48929960Y-59185167D01*
X49125999Y-59544322D01*
X49159812Y-59606270D01*
X49278132Y-60071482D01*
X49265955Y-60560265D01*
X49117727Y-61011276D01*
X49104316Y-61052081D01*
X49088002Y-61084907D01*
X49020289Y-61248313D01*
X49048049Y-61331591D01*
X49185755Y-61395835D01*
X49345286Y-61448727D01*
X49481544Y-61476666D01*
X49575854Y-61529948D01*
X49750336Y-61674693D01*
X49965209Y-61878833D01*
X50241145Y-62206783D01*
X50393769Y-62507655D01*
X50489179Y-62695741D01*
X50572668Y-63212332D01*
X50566989Y-63338427D01*
X50452145Y-63817920D01*
X50414177Y-63889666D01*
X50212219Y-64271291D01*
X49877163Y-64652039D01*
X49476924Y-64913662D01*
X49425229Y-64936777D01*
X49248649Y-65033080D01*
X49239959Y-65047655D01*
X49192776Y-65126790D01*
X49225100Y-65263006D01*
X49225766Y-65264761D01*
X49307169Y-65708576D01*
X49241966Y-66180871D01*
X49040236Y-66646167D01*
X48712059Y-67068983D01*
X48656357Y-67123183D01*
X48599048Y-67164322D01*
X48195459Y-67454036D01*
X47689116Y-67622904D01*
X47142457Y-67627961D01*
X46762667Y-67575905D01*
X46762667Y-67839629D01*
X46703707Y-68253752D01*
X46518225Y-68711647D01*
X46234925Y-69127302D01*
X45883256Y-69458440D01*
X45492667Y-69662786D01*
X45047525Y-69756475D01*
X44505607Y-69729612D01*
X44002388Y-69538259D01*
X43542991Y-69183676D01*
X43279656Y-68870279D01*
X43034728Y-68376664D01*
X42952667Y-67839629D01*
X42952667Y-67575905D01*
X42572878Y-67627961D01*
X42500508Y-67636552D01*
X41958746Y-67610329D01*
X41457959Y-67420531D01*
X41003276Y-67068983D01*
X41001646Y-67067343D01*
X40999493Y-67064563D01*
X45333900Y-67064563D01*
X45376178Y-67214421D01*
X45478269Y-67328429D01*
X45658297Y-67381572D01*
X45827426Y-67281042D01*
X45889636Y-67164322D01*
X45874328Y-66995472D01*
X45762468Y-66874206D01*
X45597792Y-66838837D01*
X45424037Y-66927677D01*
X45333900Y-67064563D01*
X40999493Y-67064563D01*
X40673979Y-66644275D01*
X40472802Y-66178875D01*
X40408194Y-65706625D01*
X40490235Y-65263006D01*
X40502008Y-65230738D01*
X40519565Y-65106437D01*
X40442537Y-65015778D01*
X40306843Y-64947896D01*
X42793900Y-64947896D01*
X42836178Y-65097754D01*
X42938269Y-65211762D01*
X43118297Y-65264906D01*
X43287426Y-65164375D01*
X43349636Y-65047655D01*
X43334328Y-64878805D01*
X43222468Y-64757539D01*
X43057792Y-64722170D01*
X42884037Y-64811010D01*
X42793900Y-64947896D01*
X40306843Y-64947896D01*
X40238411Y-64913662D01*
X40127217Y-64858292D01*
X39741401Y-64560424D01*
X39428738Y-64155807D01*
X39308762Y-63889666D01*
X42822748Y-63889666D01*
X43144129Y-64048369D01*
X43191898Y-64073020D01*
X43599976Y-64378635D01*
X43926856Y-64792315D01*
X44043234Y-65047655D01*
X44143950Y-65268631D01*
X44222667Y-65762155D01*
X44222667Y-66006333D01*
X44857667Y-66006333D01*
X45492667Y-66006333D01*
X45492667Y-65762155D01*
X45493637Y-65709361D01*
X45588690Y-65215507D01*
X45719359Y-64947896D01*
X47873900Y-64947896D01*
X47916178Y-65097754D01*
X48018269Y-65211762D01*
X48198297Y-65264906D01*
X48367426Y-65164375D01*
X48429636Y-65047655D01*
X48414328Y-64878805D01*
X48302468Y-64757539D01*
X48137792Y-64722170D01*
X47964037Y-64811010D01*
X47873900Y-64947896D01*
X45719359Y-64947896D01*
X45819029Y-64743771D01*
X46156064Y-64339583D01*
X46571206Y-64048369D01*
X46892587Y-63889666D01*
X46797982Y-63508666D01*
X46703377Y-63127666D01*
X46638600Y-63416620D01*
X46607346Y-63522315D01*
X46408747Y-63866734D01*
X46094019Y-64185132D01*
X45703623Y-64448489D01*
X45278019Y-64627785D01*
X44857667Y-64693999D01*
X44732552Y-64687538D01*
X44306314Y-64583790D01*
X43887152Y-64375804D01*
X43515528Y-64092600D01*
X43231902Y-63763198D01*
X43076735Y-63416620D01*
X43011958Y-63127666D01*
X42917353Y-63508666D01*
X42822748Y-63889666D01*
X39308762Y-63889666D01*
X39219177Y-63690942D01*
X39142667Y-63212332D01*
X39185364Y-62840818D01*
X39360571Y-62407896D01*
X41523900Y-62407896D01*
X41566178Y-62557754D01*
X41668269Y-62671762D01*
X41848297Y-62724906D01*
X42017426Y-62624375D01*
X42079636Y-62507655D01*
X42064328Y-62338805D01*
X41952468Y-62217539D01*
X41787792Y-62182170D01*
X41614037Y-62271010D01*
X41523900Y-62407896D01*
X39360571Y-62407896D01*
X39386774Y-62343151D01*
X39525839Y-62165444D01*
X42664408Y-62165444D01*
X42678097Y-62261236D01*
X42752979Y-62392244D01*
X42799011Y-62507655D01*
X42836596Y-62601890D01*
X42874358Y-62711526D01*
X42911085Y-62754533D01*
X42949701Y-62667378D01*
X43007915Y-62432556D01*
X43039507Y-62291116D01*
X43076681Y-62091845D01*
X43082027Y-62003464D01*
X42999961Y-62012504D01*
X42828207Y-62068367D01*
X42802390Y-62078512D01*
X42664408Y-62165444D01*
X39525839Y-62165444D01*
X39667387Y-61984563D01*
X45333900Y-61984563D01*
X45339232Y-62003464D01*
X45376178Y-62134421D01*
X45478269Y-62248429D01*
X45658297Y-62301572D01*
X45827426Y-62201042D01*
X45889636Y-62084322D01*
X45885910Y-62043225D01*
X46631081Y-62043225D01*
X46638811Y-62084322D01*
X46661948Y-62207326D01*
X46722105Y-62450333D01*
X46769402Y-62612943D01*
X46819989Y-62746568D01*
X46842141Y-62746666D01*
X46881318Y-62591585D01*
X46960984Y-62407896D01*
X49143900Y-62407896D01*
X49186178Y-62557754D01*
X49288269Y-62671762D01*
X49468297Y-62724906D01*
X49637426Y-62624375D01*
X49699636Y-62507655D01*
X49684328Y-62338805D01*
X49572468Y-62217539D01*
X49407792Y-62182170D01*
X49328603Y-62222659D01*
X49234037Y-62271010D01*
X49143900Y-62407896D01*
X46960984Y-62407896D01*
X46971570Y-62383488D01*
X47044365Y-62222659D01*
X47021041Y-62133268D01*
X46874640Y-62063619D01*
X46717528Y-62012714D01*
X46631411Y-62003464D01*
X46631081Y-62043225D01*
X45885910Y-62043225D01*
X45874328Y-61915472D01*
X45762468Y-61794206D01*
X45597792Y-61758837D01*
X45424037Y-61847677D01*
X45333900Y-61984563D01*
X39667387Y-61984563D01*
X39750126Y-61878833D01*
X39959737Y-61679405D01*
X40135764Y-61532702D01*
X40233791Y-61476666D01*
X40340391Y-61456832D01*
X40529580Y-61395835D01*
X40556075Y-61385684D01*
X40677481Y-61322454D01*
X40690971Y-61231617D01*
X40611019Y-61052081D01*
X40549523Y-60915398D01*
X40427051Y-60398566D01*
X40464584Y-59879212D01*
X40633341Y-59444563D01*
X42793900Y-59444563D01*
X42836178Y-59594421D01*
X42938269Y-59708429D01*
X43118297Y-59761572D01*
X43287426Y-59661042D01*
X43349636Y-59544322D01*
X43344414Y-59486722D01*
X44071915Y-59486722D01*
X44086948Y-59544322D01*
X44108476Y-59626808D01*
X44129722Y-59704607D01*
X44165991Y-59956288D01*
X44180334Y-60248999D01*
X44177109Y-60383093D01*
X44151424Y-60667840D01*
X44108476Y-60871191D01*
X44076742Y-60969152D01*
X44095390Y-61034752D01*
X44235476Y-60998191D01*
X44313276Y-60976944D01*
X44564957Y-60940675D01*
X44857667Y-60926333D01*
X44991762Y-60929558D01*
X45276509Y-60955242D01*
X45479859Y-60998191D01*
X45577820Y-61029925D01*
X45643420Y-61011276D01*
X45606859Y-60871191D01*
X45585613Y-60793391D01*
X45549344Y-60541710D01*
X45535001Y-60248999D01*
X45538226Y-60114905D01*
X45563911Y-59830158D01*
X45606859Y-59626808D01*
X45638593Y-59528847D01*
X45619945Y-59463246D01*
X45479859Y-59499808D01*
X45402059Y-59521054D01*
X45150378Y-59557323D01*
X44857667Y-59571666D01*
X44723573Y-59568440D01*
X44438826Y-59542756D01*
X44235476Y-59499808D01*
X44137515Y-59468074D01*
X44071915Y-59486722D01*
X43344414Y-59486722D01*
X43340592Y-59444563D01*
X47873900Y-59444563D01*
X47916178Y-59594421D01*
X48018269Y-59708429D01*
X48198297Y-59761572D01*
X48367426Y-59661042D01*
X48429636Y-59544322D01*
X48414328Y-59375472D01*
X48302468Y-59254206D01*
X48137792Y-59218837D01*
X47964037Y-59307677D01*
X47873900Y-59444563D01*
X43340592Y-59444563D01*
X43334328Y-59375472D01*
X43222468Y-59254206D01*
X43057792Y-59218837D01*
X42884037Y-59307677D01*
X42793900Y-59444563D01*
X40633341Y-59444563D01*
X40657531Y-59382260D01*
X41001302Y-58932634D01*
X41004981Y-58928964D01*
X41452834Y-58588988D01*
X41951159Y-58396167D01*
X42472283Y-58356843D01*
X42988533Y-58477356D01*
X43026582Y-58491867D01*
X43112653Y-58495318D01*
X43086024Y-58379865D01*
X43016415Y-58150662D01*
X42972421Y-57666984D01*
X43043083Y-57180467D01*
X43134860Y-56952008D01*
X43165225Y-56904563D01*
X45333900Y-56904563D01*
X45376178Y-57054421D01*
X45478269Y-57168429D01*
X45658297Y-57221572D01*
X45827426Y-57121042D01*
X45889636Y-57004322D01*
X45874328Y-56835472D01*
X45762468Y-56714206D01*
X45597792Y-56678837D01*
X45424037Y-56767677D01*
X45333900Y-56904563D01*
X43165225Y-56904563D01*
X43350483Y-56615094D01*
X43628883Y-56303700D01*
X43928776Y-56061965D01*
X44208880Y-55934027D01*
X44226188Y-55930107D01*
X44403432Y-55873332D01*
X44475927Y-55818439D01*
X44475816Y-55817250D01*
X44405005Y-55743795D01*
X44228500Y-55610292D01*
X43983250Y-55444767D01*
X43729935Y-55271303D01*
X43465769Y-55069101D01*
X43285491Y-54906760D01*
X43271394Y-54891416D01*
X43215344Y-54816244D01*
X43242449Y-54797764D01*
X43369424Y-54841440D01*
X43612981Y-54952739D01*
X43989834Y-55137128D01*
X43992552Y-55138477D01*
X44345006Y-55320617D01*
X44633535Y-55483452D01*
X44828434Y-55609253D01*
X44900001Y-55680295D01*
X44935307Y-55725261D01*
X45094788Y-55806289D01*
X45339276Y-55884570D01*
X45412760Y-55905180D01*
X45878490Y-56127687D01*
X46260685Y-56468052D01*
X46543103Y-56894864D01*
X46580904Y-57004322D01*
X46709507Y-57376712D01*
G37*
%TO.C,kibuzzard-69F1FBEC*%
G36*
X39038102Y-36160253D02*
G01*
X38847353Y-36160253D01*
X38499428Y-36160253D01*
X37476252Y-36160253D01*
X37352647Y-36160253D01*
X37161898Y-36160253D01*
X37161898Y-35351860D01*
X37352647Y-35351860D01*
X37391559Y-35425107D01*
X37597568Y-35650572D01*
X37392704Y-35876037D01*
X37353219Y-35949857D01*
X37398426Y-36022532D01*
X37476252Y-36063162D01*
X37546066Y-36015665D01*
X37737196Y-35805079D01*
X37929471Y-36015665D01*
X37999285Y-36063162D01*
X38077110Y-36022532D01*
X38122318Y-35949857D01*
X38082833Y-35876037D01*
X37877969Y-35650572D01*
X38083977Y-35425107D01*
X38122318Y-35351860D01*
X38113505Y-35336981D01*
X38149213Y-35336981D01*
X38156080Y-35387339D01*
X38178398Y-35414235D01*
X38204721Y-35423391D01*
X38237339Y-35425107D01*
X38395279Y-35425107D01*
X38395279Y-35949285D01*
X38396996Y-35987625D01*
X38407868Y-36017954D01*
X38439914Y-36043133D01*
X38499428Y-36051144D01*
X38558369Y-36043133D01*
X38589270Y-36017382D01*
X38599571Y-35986481D01*
X38601288Y-35948140D01*
X38601288Y-35425107D01*
X38760372Y-35425107D01*
X38792990Y-35423391D01*
X38818741Y-35414235D01*
X38840486Y-35387339D01*
X38847353Y-35335837D01*
X38840486Y-35286052D01*
X38818169Y-35259728D01*
X38791845Y-35250572D01*
X38759227Y-35248856D01*
X38236195Y-35248856D01*
X38203577Y-35250572D01*
X38177825Y-35259728D01*
X38156080Y-35286624D01*
X38149213Y-35336981D01*
X38113505Y-35336981D01*
X38078255Y-35277468D01*
X38000429Y-35236838D01*
X37930615Y-35284335D01*
X37737196Y-35496066D01*
X37544921Y-35284335D01*
X37475107Y-35236838D01*
X37397282Y-35277468D01*
X37352647Y-35351860D01*
X37161898Y-35351860D01*
X37161898Y-35139747D01*
X37352647Y-35139747D01*
X38847353Y-35139747D01*
X39038102Y-35139747D01*
X39038102Y-36160253D01*
G37*
D13*
%TO.C,R6*%
X26447936Y-46965000D02*
X26902064Y-46965000D01*
X26447936Y-48435000D02*
X26902064Y-48435000D01*
%TO.C,R2*%
X33597936Y-51965000D02*
X34052064Y-51965000D01*
X33597936Y-53435000D02*
X34052064Y-53435000D01*
%TO.C,TP2*%
X37099200Y-32857400D02*
X37099200Y-34757400D01*
X37099200Y-34757400D02*
X38999200Y-34757400D01*
X38999200Y-32857400D02*
X37099200Y-32857400D01*
X38999200Y-34757400D02*
X38999200Y-32857400D01*
%TO.C,C9*%
X42790000Y-21081252D02*
X42790000Y-20558748D01*
X44260000Y-21081252D02*
X44260000Y-20558748D01*
%TO.C,U2*%
X34190000Y-31635000D02*
X38810000Y-31635000D01*
X38810000Y-24865000D02*
X34190000Y-24865000D01*
X40690000Y-25560000D02*
X40360000Y-25320000D01*
X40690000Y-25080000D01*
X40690000Y-25560000D01*
G36*
X40690000Y-25560000D02*
G01*
X40360000Y-25320000D01*
X40690000Y-25080000D01*
X40690000Y-25560000D01*
G37*
%TO.C,C5*%
X46563748Y-26515000D02*
X47086252Y-26515000D01*
X46563748Y-27985000D02*
X47086252Y-27985000D01*
%TO.C,U1*%
X24552500Y-49440000D02*
X24552500Y-49640000D01*
X24552500Y-54460000D02*
X24552500Y-54660000D01*
X24552500Y-54660000D02*
X29172500Y-54660000D01*
X29172500Y-49440000D02*
X24552500Y-49440000D01*
X29172500Y-49640000D02*
X29172500Y-49440000D01*
X29172500Y-54660000D02*
X29172500Y-54460000D01*
X29812500Y-49640000D02*
X29472500Y-49170000D01*
X30152500Y-49170000D01*
X29812500Y-49640000D01*
G36*
X29812500Y-49640000D02*
G01*
X29472500Y-49170000D01*
X30152500Y-49170000D01*
X29812500Y-49640000D01*
G37*
%TO.C,R8*%
X33027064Y-54240000D02*
X32572936Y-54240000D01*
X33027064Y-55710000D02*
X32572936Y-55710000D01*
%TO.C,C10*%
X45440000Y-21081252D02*
X45440000Y-20558748D01*
X46910000Y-21081252D02*
X46910000Y-20558748D01*
%TO.C,R5*%
X30927064Y-46965000D02*
X30472936Y-46965000D01*
X30927064Y-48435000D02*
X30472936Y-48435000D01*
%TO.C,R1*%
X16040000Y-55852064D02*
X16040000Y-55397936D01*
X17510000Y-55852064D02*
X17510000Y-55397936D01*
%TO.C,R7*%
X32572936Y-56865000D02*
X33027064Y-56865000D01*
X32572936Y-58335000D02*
X33027064Y-58335000D01*
%TO.C,Y1*%
X42875000Y-25725000D02*
X42875000Y-24375000D01*
X44625000Y-25725000D02*
X44625000Y-24375000D01*
%TO.C,U3*%
X22002500Y-29890000D02*
X22002500Y-32610000D01*
X22002500Y-30030000D02*
X22002500Y-32610000D01*
X22982500Y-32610000D02*
X22002500Y-32610000D01*
X25742500Y-32610000D02*
X26722500Y-32610000D01*
X26722500Y-32610000D02*
X26722500Y-29890000D01*
X22152500Y-29480000D02*
X21822500Y-29720000D01*
X21822500Y-29240000D01*
X22152500Y-29480000D01*
G36*
X22152500Y-29480000D02*
G01*
X21822500Y-29720000D01*
X21822500Y-29240000D01*
X22152500Y-29480000D01*
G37*
%TO.C,C7*%
X27648752Y-35165000D02*
X27126248Y-35165000D01*
X27648752Y-36635000D02*
X27126248Y-36635000D01*
%TO.C,U4*%
X20970000Y-21615000D02*
X20970000Y-21710000D01*
X20970000Y-26640000D02*
X20970000Y-26735000D01*
X20970000Y-26735000D02*
X25090000Y-26735000D01*
X25090000Y-21615000D02*
X20970000Y-21615000D01*
X25090000Y-21710000D02*
X25090000Y-21615000D01*
X25090000Y-26735000D02*
X25090000Y-26640000D01*
X20670000Y-26975000D02*
X20190000Y-26975000D01*
X20430000Y-26645000D01*
X20670000Y-26975000D01*
G36*
X20670000Y-26975000D02*
G01*
X20190000Y-26975000D01*
X20430000Y-26645000D01*
X20670000Y-26975000D01*
G37*
%TO.C,C8*%
X36865000Y-21081252D02*
X36865000Y-20558748D01*
X38335000Y-21081252D02*
X38335000Y-20558748D01*
%TO.C,R3*%
X33039564Y-49915000D02*
X32585436Y-49915000D01*
X33039564Y-51385000D02*
X32585436Y-51385000D01*
%TO.C,R10*%
X39465000Y-21027064D02*
X39465000Y-20572936D01*
X40935000Y-21027064D02*
X40935000Y-20572936D01*
%TO.C,C3*%
X47738748Y-24415000D02*
X48261252Y-24415000D01*
X47738748Y-25885000D02*
X48261252Y-25885000D01*
%TO.C,C6*%
X23276248Y-35190000D02*
X23798752Y-35190000D01*
X23276248Y-36660000D02*
X23798752Y-36660000D01*
%TO.C,C4*%
X29790000Y-28188748D02*
X29790000Y-28711252D01*
X31260000Y-28188748D02*
X31260000Y-28711252D01*
%TO.C,TP3*%
X33949600Y-32857400D02*
X33949600Y-34757400D01*
X33949600Y-34757400D02*
X35849600Y-34757400D01*
X35849600Y-32857400D02*
X33949600Y-32857400D01*
X35849600Y-34757400D02*
X35849600Y-32857400D01*
D12*
%TO.C,kibuzzard-69F1FC5E*%
G36*
X35405866Y-35626538D02*
G01*
X35279971Y-35626538D01*
X35225036Y-35605937D01*
X35198712Y-35542990D01*
X35223319Y-35483476D01*
X35282260Y-35459442D01*
X35405866Y-35459442D01*
X35405866Y-35626538D01*
G37*
G36*
X35806056Y-36160253D02*
G01*
X35615308Y-36160253D01*
X35112876Y-36160253D01*
X34308298Y-36160253D01*
X34184692Y-36160253D01*
X33993944Y-36160253D01*
X33993944Y-35351860D01*
X34184692Y-35351860D01*
X34223605Y-35425107D01*
X34429614Y-35650572D01*
X34224750Y-35876037D01*
X34185265Y-35949857D01*
X34230472Y-36022532D01*
X34308298Y-36063162D01*
X34378112Y-36015665D01*
X34569242Y-35805079D01*
X34761516Y-36015665D01*
X34831330Y-36063162D01*
X34909156Y-36022532D01*
X34951159Y-35955007D01*
X34976681Y-35955007D01*
X35031617Y-36022532D01*
X35112876Y-36054006D01*
X35176967Y-36000787D01*
X35299428Y-35834835D01*
X35405866Y-35834835D01*
X35405866Y-35945851D01*
X35407582Y-35985336D01*
X35418455Y-36016237D01*
X35450501Y-36041989D01*
X35511159Y-36050000D01*
X35570672Y-36041989D01*
X35602718Y-36015665D01*
X35613591Y-35984192D01*
X35615308Y-35944707D01*
X35615308Y-35354149D01*
X35613591Y-35315808D01*
X35602718Y-35284335D01*
X35570672Y-35258011D01*
X35510014Y-35250000D01*
X35279971Y-35250000D01*
X35233476Y-35254578D01*
X35185551Y-35268312D01*
X35137768Y-35290629D01*
X35091702Y-35320959D01*
X35050644Y-35361445D01*
X35017883Y-35414235D01*
X34996423Y-35476180D01*
X34989270Y-35544134D01*
X35000461Y-35629844D01*
X35034033Y-35703855D01*
X35089986Y-35766166D01*
X35007582Y-35876037D01*
X34976681Y-35955007D01*
X34951159Y-35955007D01*
X34954363Y-35949857D01*
X34914878Y-35876037D01*
X34710014Y-35650572D01*
X34916023Y-35425107D01*
X34954363Y-35351860D01*
X34910300Y-35277468D01*
X34832475Y-35236838D01*
X34762661Y-35284335D01*
X34569242Y-35496066D01*
X34376967Y-35284335D01*
X34307153Y-35236838D01*
X34229328Y-35277468D01*
X34184692Y-35351860D01*
X33993944Y-35351860D01*
X33993944Y-35139747D01*
X34184692Y-35139747D01*
X35615308Y-35139747D01*
X35806056Y-35139747D01*
X35806056Y-36160253D01*
G37*
%TD*%
%LPC*%
D14*
%TO.C,J8*%
X62280000Y-52690000D03*
D15*
X64820000Y-52690000D03*
X62280000Y-55230000D03*
X64820000Y-55230000D03*
X62280000Y-57770000D03*
X64820000Y-57770000D03*
X62280000Y-60310000D03*
X64820000Y-60310000D03*
X62280000Y-62850000D03*
X64820000Y-62850000D03*
X62280000Y-65390000D03*
X64820000Y-65390000D03*
%TD*%
D16*
%TO.C,JP1*%
X56450000Y-75200000D03*
X58990000Y-75200000D03*
%TD*%
D17*
%TO.C,MAIN_SUPPLY1*%
X51650000Y-76550000D03*
D18*
X49650000Y-76550000D03*
%TD*%
D17*
%TO.C,PMU_SUPPLY1*%
X65650000Y-76550000D03*
D18*
X63650000Y-76550000D03*
%TD*%
D19*
%TO.C,H4*%
X76200000Y-75100000D03*
%TD*%
%TO.C,H3*%
X14600000Y-75100000D03*
%TD*%
D14*
%TO.C,J6*%
X74100000Y-52560000D03*
D15*
X76640000Y-52560000D03*
X74100000Y-55100000D03*
X76640000Y-55100000D03*
X74100000Y-57640000D03*
X76640000Y-57640000D03*
X74100000Y-60180000D03*
X76640000Y-60180000D03*
X74100000Y-62720000D03*
X76640000Y-62720000D03*
X74100000Y-65260000D03*
X76640000Y-65260000D03*
%TD*%
D19*
%TO.C,H2*%
X14600000Y-17100000D03*
%TD*%
D20*
%TO.C,J5*%
X49150000Y-16200000D03*
D21*
X41650000Y-16200000D03*
D22*
X47800000Y-18350000D03*
X47800000Y-14050000D03*
X43000000Y-18350000D03*
X43000000Y-14050000D03*
%TD*%
D23*
%TO.C,R4*%
X16775000Y-67070000D03*
X16775000Y-51830000D03*
%TD*%
D24*
%TO.C,U6*%
X44820167Y-39266667D03*
X44820167Y-40400000D03*
X44820167Y-41533333D03*
X45953500Y-39266667D03*
X45953500Y-40400000D03*
X45953500Y-41533333D03*
X47086833Y-39266667D03*
X47086833Y-40400000D03*
X47086833Y-41533333D03*
%TD*%
D25*
%TO.C,J1*%
X23100000Y-16100000D03*
D26*
X25600000Y-16100000D03*
X28100000Y-16100000D03*
X30600000Y-16100000D03*
X33100000Y-16100000D03*
%TD*%
D16*
%TO.C,JP3*%
X56550000Y-72750000D03*
X59090000Y-72750000D03*
%TD*%
%TO.C,JP2*%
X56450000Y-77600000D03*
X58990000Y-77600000D03*
%TD*%
D19*
%TO.C,H1*%
X76200000Y-17100000D03*
%TD*%
D14*
%TO.C,J7*%
X73533000Y-26873200D03*
D15*
X76073000Y-26873200D03*
X73533000Y-29413200D03*
X76073000Y-29413200D03*
X73533000Y-31953200D03*
X76073000Y-31953200D03*
X73533000Y-34493200D03*
X76073000Y-34493200D03*
X73533000Y-37033200D03*
X76073000Y-37033200D03*
X73533000Y-39573200D03*
X76073000Y-39573200D03*
%TD*%
D27*
%TO.C,R6*%
X25762500Y-47700000D03*
X27587500Y-47700000D03*
%TD*%
%TO.C,R2*%
X32912500Y-52700000D03*
X34737500Y-52700000D03*
%TD*%
D28*
%TO.C,TP2*%
X38049200Y-33807400D03*
%TD*%
D29*
%TO.C,C9*%
X43525000Y-21770000D03*
X43525000Y-19870000D03*
%TD*%
D30*
%TO.C,U2*%
X39362500Y-25325000D03*
X39362500Y-25975000D03*
X39362500Y-26625000D03*
X39362500Y-27275000D03*
X39362500Y-27925000D03*
X39362500Y-28575000D03*
X39362500Y-29225000D03*
X39362500Y-29875000D03*
X39362500Y-30525000D03*
X39362500Y-31175000D03*
X33637500Y-31175000D03*
X33637500Y-30525000D03*
X33637500Y-29875000D03*
X33637500Y-29225000D03*
X33637500Y-28575000D03*
X33637500Y-27925000D03*
X33637500Y-27275000D03*
X33637500Y-26625000D03*
X33637500Y-25975000D03*
X33637500Y-25325000D03*
%TD*%
D31*
%TO.C,C5*%
X45875000Y-27250000D03*
X47775000Y-27250000D03*
%TD*%
D30*
%TO.C,U1*%
X29725000Y-50100000D03*
X29725000Y-50750000D03*
X29725000Y-51400000D03*
X29725000Y-52050000D03*
X29725000Y-52700000D03*
X29725000Y-53350000D03*
X29725000Y-54000000D03*
X24000000Y-54000000D03*
X24000000Y-53350000D03*
X24000000Y-52700000D03*
X24000000Y-52050000D03*
X24000000Y-51400000D03*
X24000000Y-50750000D03*
X24000000Y-50100000D03*
%TD*%
D32*
%TO.C,R8*%
X33712500Y-54975000D03*
X31887500Y-54975000D03*
%TD*%
D29*
%TO.C,C10*%
X46175000Y-21770000D03*
X46175000Y-19870000D03*
%TD*%
D32*
%TO.C,R5*%
X31612500Y-47700000D03*
X29787500Y-47700000D03*
%TD*%
D33*
%TO.C,R1*%
X16775000Y-56537500D03*
X16775000Y-54712500D03*
%TD*%
D27*
%TO.C,R7*%
X31887500Y-57600000D03*
X33712500Y-57600000D03*
%TD*%
D34*
%TO.C,Y1*%
X43750000Y-23800000D03*
X43750000Y-26300000D03*
%TD*%
D35*
%TO.C,U3*%
X22862500Y-28800000D03*
D36*
X24362500Y-28887500D03*
D35*
X25862500Y-28800000D03*
%TD*%
D37*
%TO.C,C7*%
X28337500Y-35900000D03*
X26437500Y-35900000D03*
%TD*%
D38*
%TO.C,U4*%
X20555000Y-26080000D03*
X20555000Y-24810000D03*
X20555000Y-23540000D03*
X20555000Y-22270000D03*
X25505000Y-22270000D03*
X25505000Y-23540000D03*
X25505000Y-24810000D03*
X25505000Y-26080000D03*
D39*
X23030000Y-24175000D03*
%TD*%
D29*
%TO.C,C8*%
X37600000Y-21770000D03*
X37600000Y-19870000D03*
%TD*%
D32*
%TO.C,R3*%
X33725000Y-50650000D03*
X31900000Y-50650000D03*
%TD*%
D33*
%TO.C,R10*%
X40200000Y-21712500D03*
X40200000Y-19887500D03*
%TD*%
D31*
%TO.C,C3*%
X47050000Y-25150000D03*
X48950000Y-25150000D03*
%TD*%
%TO.C,C6*%
X22587500Y-35925000D03*
X24487500Y-35925000D03*
%TD*%
D40*
%TO.C,C4*%
X30525000Y-27500000D03*
X30525000Y-29400000D03*
%TD*%
D28*
%TO.C,TP3*%
X34899600Y-33807400D03*
%TD*%
%LPD*%
M02*
