%TF.GenerationSoftware,KiCad,Pcbnew,9.0.6*%
%TF.CreationDate,2025-12-09T07:01:58-08:00*%
%TF.ProjectId,bramble,6272616d-626c-4652-9e6b-696361645f70,rev?*%
%TF.SameCoordinates,Original*%
%TF.FileFunction,Copper,L2,Bot*%
%TF.FilePolarity,Positive*%
%FSLAX46Y46*%
G04 Gerber Fmt 4.6, Leading zero omitted, Abs format (unit mm)*
G04 Created by KiCad (PCBNEW 9.0.6) date 2025-12-09 07:01:58*
%MOMM*%
%LPD*%
G01*
G04 APERTURE LIST*
G04 Aperture macros list*
%AMRoundRect*
0 Rectangle with rounded corners*
0 $1 Rounding radius*
0 $2 $3 $4 $5 $6 $7 $8 $9 X,Y pos of 4 corners*
0 Add a 4 corners polygon primitive as box body*
4,1,4,$2,$3,$4,$5,$6,$7,$8,$9,$2,$3,0*
0 Add four circle primitives for the rounded corners*
1,1,$1+$1,$2,$3*
1,1,$1+$1,$4,$5*
1,1,$1+$1,$6,$7*
1,1,$1+$1,$8,$9*
0 Add four rect primitives between the rounded corners*
20,1,$1+$1,$2,$3,$4,$5,0*
20,1,$1+$1,$4,$5,$6,$7,0*
20,1,$1+$1,$6,$7,$8,$9,0*
20,1,$1+$1,$8,$9,$2,$3,0*%
%AMFreePoly0*
4,1,153,1.105981,0.379903,1.110496,0.379000,1.116000,0.379000,1.116981,0.378903,1.126981,0.376903,1.127857,0.376642,1.142857,0.370642,1.143236,0.370472,1.147052,0.368564,1.151857,0.366642,1.153000,0.366000,1.156798,0.363151,1.161572,0.360287,1.162000,0.360000,1.166000,0.357000,1.166536,0.356536,1.170288,0.352784,1.174000,0.350000,1.175000,0.349000,1.177784,0.345288,
1.181536,0.341536,1.182000,0.341000,1.185000,0.337000,1.185287,0.336572,1.188151,0.331798,1.191000,0.328000,1.191642,0.326857,1.193564,0.322052,1.195472,0.318236,1.195642,0.317857,1.201642,0.302857,1.201903,0.301981,1.203903,0.291981,1.204000,0.291000,1.204000,0.285496,1.204903,0.280981,1.205000,0.280000,1.205000,-1.830000,1.204903,-1.830981,1.204000,-1.835496,
1.204000,-1.841000,1.203903,-1.841981,1.201903,-1.851981,1.201642,-1.852857,1.195642,-1.867857,1.195472,-1.868236,1.193564,-1.872052,1.191642,-1.876857,1.191000,-1.878000,1.188151,-1.881798,1.185287,-1.886572,1.185000,-1.887000,1.182000,-1.891000,1.181536,-1.891536,1.177784,-1.895288,1.175000,-1.899000,1.174000,-1.900000,1.170288,-1.902784,1.166536,-1.906536,1.166000,-1.907000,
1.162000,-1.910000,1.161572,-1.910287,1.156798,-1.913151,1.153000,-1.916000,1.151857,-1.916642,1.147052,-1.918564,1.143236,-1.920472,1.142857,-1.920642,1.127857,-1.926642,1.126981,-1.926903,1.116981,-1.928903,1.116000,-1.929000,1.110496,-1.929000,1.105981,-1.929903,1.105000,-1.930000,-0.205000,-1.930000,-0.205981,-1.929903,-0.210496,-1.929000,-0.216000,-1.929000,-0.216981,-1.928903,
-0.226981,-1.926903,-0.227857,-1.926642,-0.242857,-1.920642,-0.243236,-1.920472,-0.247052,-1.918564,-0.251857,-1.916642,-0.253000,-1.916000,-0.256798,-1.913151,-0.261572,-1.910287,-0.262000,-1.910000,-0.266000,-1.907000,-0.266536,-1.906536,-0.270288,-1.902784,-0.274000,-1.900000,-0.275000,-1.899000,-0.277784,-1.895288,-0.281536,-1.891536,-0.282000,-1.891000,-0.285000,-1.887000,-0.285287,-1.886572,
-0.288151,-1.881798,-0.291000,-1.878000,-0.291642,-1.876857,-0.293564,-1.872052,-0.295472,-1.868236,-0.295642,-1.867857,-0.301642,-1.852857,-0.301903,-1.851981,-0.303903,-1.841981,-0.304000,-1.841000,-0.304000,-1.835496,-0.304903,-1.830981,-0.305000,-1.830000,-0.305000,0.280000,-0.304903,0.280981,-0.304000,0.285496,-0.304000,0.291000,-0.303903,0.291981,-0.301903,0.301981,-0.301642,0.302857,
-0.295642,0.317857,-0.295472,0.318236,-0.293564,0.322052,-0.291642,0.326857,-0.291000,0.328000,-0.288151,0.331798,-0.285287,0.336572,-0.285000,0.337000,-0.282000,0.341000,-0.281536,0.341536,-0.277784,0.345288,-0.275000,0.349000,-0.274000,0.350000,-0.270288,0.352784,-0.266536,0.356536,-0.266000,0.357000,-0.262000,0.360000,-0.261572,0.360287,-0.256798,0.363151,-0.253000,0.366000,
-0.251857,0.366642,-0.247052,0.368564,-0.243236,0.370472,-0.242857,0.370642,-0.227857,0.376642,-0.226981,0.376903,-0.216981,0.378903,-0.216000,0.379000,-0.210496,0.379000,-0.205981,0.379903,-0.205000,0.380000,1.105000,0.380000,1.105981,0.379903,1.105981,0.379903,$1*%
%AMFreePoly1*
4,1,9,5.362500,-0.866500,1.237500,-0.866500,1.237500,-0.450000,-1.237500,-0.450000,-1.237500,0.450000,1.237500,0.450000,1.237500,0.866500,5.362500,0.866500,5.362500,-0.866500,5.362500,-0.866500,$1*%
G04 Aperture macros list end*
%TA.AperFunction,ComponentPad*%
%ADD10C,0.450000*%
%TD*%
%TA.AperFunction,ComponentPad*%
%ADD11FreePoly0,270.000000*%
%TD*%
%TA.AperFunction,ComponentPad*%
%ADD12C,5.000000*%
%TD*%
%TA.AperFunction,ComponentPad*%
%ADD13C,0.600000*%
%TD*%
%TA.AperFunction,ComponentPad*%
%ADD14O,1.700000X1.950000*%
%TD*%
%TA.AperFunction,ComponentPad*%
%ADD15RoundRect,0.250000X0.600000X0.725000X-0.600000X0.725000X-0.600000X-0.725000X0.600000X-0.725000X0*%
%TD*%
%TA.AperFunction,ComponentPad*%
%ADD16C,1.800000*%
%TD*%
%TA.AperFunction,ComponentPad*%
%ADD17R,1.800000X1.800000*%
%TD*%
%TA.AperFunction,ComponentPad*%
%ADD18C,1.700000*%
%TD*%
%TA.AperFunction,ComponentPad*%
%ADD19R,1.700000X1.700000*%
%TD*%
%TA.AperFunction,ComponentPad*%
%ADD20O,1.950000X1.700000*%
%TD*%
%TA.AperFunction,ComponentPad*%
%ADD21RoundRect,0.250000X0.725000X-0.600000X0.725000X0.600000X-0.725000X0.600000X-0.725000X-0.600000X0*%
%TD*%
%TA.AperFunction,ComponentPad*%
%ADD22C,2.400000*%
%TD*%
%TA.AperFunction,SMDPad,CuDef*%
%ADD23RoundRect,0.100000X0.637500X0.100000X-0.637500X0.100000X-0.637500X-0.100000X0.637500X-0.100000X0*%
%TD*%
%TA.AperFunction,SMDPad,CuDef*%
%ADD24RoundRect,0.250000X-0.262500X-0.450000X0.262500X-0.450000X0.262500X0.450000X-0.262500X0.450000X0*%
%TD*%
%TA.AperFunction,SMDPad,CuDef*%
%ADD25RoundRect,0.250000X0.262500X0.450000X-0.262500X0.450000X-0.262500X-0.450000X0.262500X-0.450000X0*%
%TD*%
%TA.AperFunction,SMDPad,CuDef*%
%ADD26RoundRect,0.250000X-0.250000X-0.475000X0.250000X-0.475000X0.250000X0.475000X-0.250000X0.475000X0*%
%TD*%
%TA.AperFunction,SMDPad,CuDef*%
%ADD27RoundRect,0.250001X1.412499X0.949999X-1.412499X0.949999X-1.412499X-0.949999X1.412499X-0.949999X0*%
%TD*%
%TA.AperFunction,SMDPad,CuDef*%
%ADD28RoundRect,0.250000X0.250000X0.475000X-0.250000X0.475000X-0.250000X-0.475000X0.250000X-0.475000X0*%
%TD*%
%TA.AperFunction,SMDPad,CuDef*%
%ADD29R,1.800000X1.000000*%
%TD*%
%TA.AperFunction,SMDPad,CuDef*%
%ADD30RoundRect,0.225000X0.925000X0.225000X-0.925000X0.225000X-0.925000X-0.225000X0.925000X-0.225000X0*%
%TD*%
%TA.AperFunction,SMDPad,CuDef*%
%ADD31FreePoly1,180.000000*%
%TD*%
%TA.AperFunction,SMDPad,CuDef*%
%ADD32RoundRect,0.250000X-0.450000X0.262500X-0.450000X-0.262500X0.450000X-0.262500X0.450000X0.262500X0*%
%TD*%
%TA.AperFunction,SMDPad,CuDef*%
%ADD33RoundRect,0.250000X-0.475000X0.250000X-0.475000X-0.250000X0.475000X-0.250000X0.475000X0.250000X0*%
%TD*%
%TA.AperFunction,SMDPad,CuDef*%
%ADD34RoundRect,0.250000X0.450000X-0.262500X0.450000X0.262500X-0.450000X0.262500X-0.450000X-0.262500X0*%
%TD*%
%TA.AperFunction,ViaPad*%
%ADD35C,0.600000*%
%TD*%
%TA.AperFunction,ViaPad*%
%ADD36C,0.800000*%
%TD*%
%TA.AperFunction,Conductor*%
%ADD37C,0.200000*%
%TD*%
%TA.AperFunction,Conductor*%
%ADD38C,0.800000*%
%TD*%
%TA.AperFunction,Conductor*%
%ADD39C,0.400000*%
%TD*%
%TA.AperFunction,Conductor*%
%ADD40C,0.900000*%
%TD*%
G04 APERTURE END LIST*
D10*
%TO.P,VR1,2,SW*%
%TO.N,unconnected-(VR1-SW-Pad2)*%
X58065000Y-27500000D03*
D11*
X58065000Y-26600000D03*
D10*
X57265000Y-26600000D03*
X56465000Y-26600000D03*
X57265000Y-27500000D03*
X56465000Y-27500000D03*
D11*
%TO.P,VR1,3,VOUT*%
%TO.N,+3V3*%
X58065000Y-28900000D03*
D10*
X57300000Y-28900000D03*
X56515000Y-28900000D03*
X58065000Y-29800000D03*
X57300000Y-29800000D03*
X56515000Y-29800000D03*
%TD*%
D12*
%TO.P,U$3,1*%
%TO.N,N/C*%
X56750000Y-17000000D03*
%TD*%
%TO.P,U$2,1*%
%TO.N,N/C*%
X16750000Y-79500000D03*
%TD*%
D13*
%TO.P,IC1,57,GND*%
%TO.N,GND*%
X23125000Y-42400000D03*
X24400000Y-42400000D03*
X25675000Y-42400000D03*
X23125000Y-41125000D03*
X24400000Y-41125000D03*
X25675000Y-41125000D03*
X23125000Y-39850000D03*
X24400000Y-39850000D03*
X25675000Y-39850000D03*
%TD*%
D14*
%TO.P,J2,3,Pin_3*%
%TO.N,+9V*%
X25700000Y-79725000D03*
%TO.P,J2,2,Pin_2*%
%TO.N,GNDPWR*%
X28200000Y-79725000D03*
D15*
%TO.P,J2,1,Pin_1*%
%TO.N,Net-(J2-Pin_1)*%
X30700000Y-79725000D03*
%TD*%
D16*
%TO.P,PMU_STATUS,3,A2*%
%TO.N,Net-(D1-A2)*%
X57740000Y-40000000D03*
%TO.P,PMU_STATUS,2,K*%
%TO.N,GND*%
X55200000Y-40000000D03*
D17*
%TO.P,PMU_STATUS,1,A1*%
%TO.N,Net-(D1-A1)*%
X52660000Y-40000000D03*
%TD*%
D18*
%TO.P,J6,12,Pin_12*%
%TO.N,GND*%
X48520000Y-78385000D03*
%TO.P,J6,11,Pin_11*%
%TO.N,VDD*%
X48520000Y-80925000D03*
%TO.P,J6,10,Pin_10*%
%TO.N,/rp2040/MOTOR_LO_2*%
X45980000Y-78385000D03*
%TO.P,J6,9,Pin_9*%
%TO.N,/rp2040/VALVE_1*%
X45980000Y-80925000D03*
%TO.P,J6,8,Pin_8*%
%TO.N,/rp2040/MOTOR_LO_1*%
X43440000Y-78385000D03*
%TO.P,J6,7,Pin_7*%
%TO.N,/rp2040/VALVE_2*%
X43440000Y-80925000D03*
%TO.P,J6,6,Pin_6*%
%TO.N,/rp2040/MOTOR_HI_2*%
X40900000Y-78385000D03*
%TO.P,J6,5,Pin_5*%
%TO.N,/rp2040/VALVE_4*%
X40900000Y-80925000D03*
%TO.P,J6,4,Pin_4*%
%TO.N,/rp2040/MOTOR_HI_1*%
X38360000Y-78385000D03*
%TO.P,J6,3,Pin_3*%
%TO.N,/rp2040/VALVE_3*%
X38360000Y-80925000D03*
%TO.P,J6,2,Pin_2*%
%TO.N,+3V3*%
X35820000Y-78385000D03*
D19*
%TO.P,J6,1,Pin_1*%
%TO.N,+9V*%
X35820000Y-80925000D03*
%TD*%
D12*
%TO.P,U$4,1*%
%TO.N,N/C*%
X16750000Y-17000000D03*
%TD*%
D18*
%TO.P,J3,3,Pin_3*%
%TO.N,GND*%
X57550000Y-44951250D03*
%TO.P,J3,2,Pin_2*%
%TO.N,/rp2040/SWDIO*%
X55010000Y-44951250D03*
D19*
%TO.P,J3,1,Pin_1*%
%TO.N,/rp2040/SWCLK*%
X52470000Y-44951250D03*
%TD*%
D20*
%TO.P,PMU_DEBUG,5,Pin_5*%
%TO.N,GND*%
X56050000Y-62433750D03*
%TO.P,PMU_DEBUG,4,Pin_4*%
%TO.N,/pmu/NRST*%
X56050000Y-64933750D03*
%TO.P,PMU_DEBUG,3,Pin_3*%
%TO.N,Net-(J1-Pin_3)*%
X56050000Y-67433750D03*
%TO.P,PMU_DEBUG,2,Pin_2*%
%TO.N,Net-(J1-Pin_2)*%
X56050000Y-69933750D03*
D21*
%TO.P,PMU_DEBUG,1,Pin_1*%
%TO.N,VDD*%
X56050000Y-72433750D03*
%TD*%
D12*
%TO.P,U$1,1*%
%TO.N,N/C*%
X56750000Y-79500000D03*
%TD*%
D22*
%TO.P,R8,2*%
%TO.N,GNDPWR*%
X15200000Y-73620000D03*
%TO.P,R8,1*%
%TO.N,GND*%
X15200000Y-58380000D03*
%TD*%
D23*
%TO.P,U2,14*%
%TO.N,unconnected-(U2-Pad14)*%
X18637500Y-49850000D03*
%TO.P,U2,13,-*%
%TO.N,unconnected-(U2D---Pad13)*%
X18637500Y-50500000D03*
%TO.P,U2,12,+*%
%TO.N,unconnected-(U2D-+-Pad12)*%
X18637500Y-51150000D03*
%TO.P,U2,11,V-*%
%TO.N,GND*%
X18637500Y-51800000D03*
%TO.P,U2,10,+*%
%TO.N,unconnected-(U2C-+-Pad10)*%
X18637500Y-52450000D03*
%TO.P,U2,9,-*%
%TO.N,unconnected-(U2C---Pad9)*%
X18637500Y-53100000D03*
%TO.P,U2,8*%
%TO.N,unconnected-(U2-Pad8)*%
X18637500Y-53750000D03*
%TO.P,U2,7*%
%TO.N,/pmu/MEAS_V*%
X24362500Y-53750000D03*
%TO.P,U2,6,-*%
X24362500Y-53100000D03*
%TO.P,U2,5,+*%
%TO.N,Net-(U2B-+)*%
X24362500Y-52450000D03*
%TO.P,U2,4,V+*%
%TO.N,+3V3*%
X24362500Y-51800000D03*
%TO.P,U2,3,+*%
%TO.N,Net-(U2A-+)*%
X24362500Y-51150000D03*
%TO.P,U2,2,-*%
%TO.N,Net-(U2A--)*%
X24362500Y-50500000D03*
%TO.P,U2,1*%
%TO.N,Net-(R10-Pad2)*%
X24362500Y-49850000D03*
%TD*%
D24*
%TO.P,R10,1*%
%TO.N,/pmu/MEAS_CURRENT*%
X28087500Y-43500000D03*
%TO.P,R10,2*%
%TO.N,Net-(R10-Pad2)*%
X29912500Y-43500000D03*
%TD*%
D25*
%TO.P,R13,1*%
%TO.N,Net-(D1-A1)*%
X39487500Y-33050000D03*
%TO.P,R13,2*%
%TO.N,Net-(U3-PA4)*%
X37662500Y-33050000D03*
%TD*%
D26*
%TO.P,C7,1*%
%TO.N,Net-(U3-PC14-OSC32_IN)*%
X42800000Y-20825000D03*
%TO.P,C7,2*%
%TO.N,GND*%
X44700000Y-20825000D03*
%TD*%
D23*
%TO.P,U3,1,PB9-BOOT0*%
%TO.N,Net-(U3-PB9-BOOT0)*%
X39362500Y-25325000D03*
%TO.P,U3,2,PC14-OSC32_IN*%
%TO.N,Net-(U3-PC14-OSC32_IN)*%
X39362500Y-25975000D03*
%TO.P,U3,3,PC15-OSC32_OUT*%
%TO.N,Net-(U3-PC15-OSC32_OUT)*%
X39362500Y-26625000D03*
%TO.P,U3,4,NRST*%
%TO.N,/pmu/NRST*%
X39362500Y-27275000D03*
%TO.P,U3,5,VDDA*%
%TO.N,VDD*%
X39362500Y-27925000D03*
%TO.P,U3,6,PA0-CK_IN*%
%TO.N,unconnected-(U3-PA0-CK_IN-Pad6)*%
X39362500Y-28575000D03*
%TO.P,U3,7,PA1*%
%TO.N,/pmu/3V3_POWER_ON*%
X39362500Y-29225000D03*
%TO.P,U3,8,PA2*%
%TO.N,/rp2040/RX*%
X39362500Y-29875000D03*
%TO.P,U3,9,PA3*%
%TO.N,/rp2040/TX*%
X39362500Y-30525000D03*
%TO.P,U3,10,PA4*%
%TO.N,Net-(U3-PA4)*%
X39362500Y-31175000D03*
%TO.P,U3,11,PA5*%
%TO.N,Net-(U3-PA5)*%
X33637500Y-31175000D03*
%TO.P,U3,12,PA6*%
%TO.N,/pmu/MEAS_V*%
X33637500Y-30525000D03*
%TO.P,U3,13,PA7*%
%TO.N,/pmu/MEAS_CURRENT*%
X33637500Y-29875000D03*
%TO.P,U3,14,PB1*%
%TO.N,unconnected-(U3-PB1-Pad14)*%
X33637500Y-29225000D03*
%TO.P,U3,15,VSS*%
%TO.N,GND*%
X33637500Y-28575000D03*
%TO.P,U3,16,VDD*%
%TO.N,VDD*%
X33637500Y-27925000D03*
%TO.P,U3,17,PA9*%
%TO.N,unconnected-(U3-PA9-Pad17)*%
X33637500Y-27275000D03*
%TO.P,U3,18,PA10*%
%TO.N,unconnected-(U3-PA10-Pad18)*%
X33637500Y-26625000D03*
%TO.P,U3,19,PA13*%
%TO.N,Net-(J1-Pin_3)*%
X33637500Y-25975000D03*
%TO.P,U3,20,PA14*%
%TO.N,Net-(J1-Pin_2)*%
X33637500Y-25325000D03*
%TD*%
D27*
%TO.P,Y2,1,1*%
%TO.N,Net-(C11-Pad2)*%
X27312500Y-32650000D03*
%TO.P,Y2,2,2*%
%TO.N,Net-(IC1-XIN)*%
X21787500Y-32650000D03*
%TD*%
D26*
%TO.P,C3,1*%
%TO.N,VDD*%
X46780000Y-23676667D03*
%TO.P,C3,2*%
%TO.N,GND*%
X48680000Y-23676667D03*
%TD*%
%TO.P,TPS_C_OUT1,1,1*%
%TO.N,+3V3*%
X27890000Y-53170000D03*
%TO.P,TPS_C_OUT1,2,2*%
%TO.N,GND*%
X29790000Y-53170000D03*
%TD*%
D25*
%TO.P,R12,1*%
%TO.N,GND*%
X29742500Y-55610000D03*
%TO.P,R12,2*%
%TO.N,Net-(U2B-+)*%
X27917500Y-55610000D03*
%TD*%
D26*
%TO.P,C8,1*%
%TO.N,Net-(U3-PC15-OSC32_OUT)*%
X46775000Y-20825000D03*
%TO.P,C8,2*%
%TO.N,GND*%
X48675000Y-20825000D03*
%TD*%
D28*
%TO.P,C10,1,1*%
%TO.N,GND*%
X22200000Y-36000000D03*
%TO.P,C10,2,2*%
%TO.N,Net-(IC1-XIN)*%
X20300000Y-36000000D03*
%TD*%
D25*
%TO.P,R9,1*%
%TO.N,Net-(U2A--)*%
X33572500Y-43460000D03*
%TO.P,R9,2*%
%TO.N,Net-(R10-Pad2)*%
X31747500Y-43460000D03*
%TD*%
%TO.P,R11,1*%
%TO.N,Net-(U2B-+)*%
X20172500Y-45200000D03*
%TO.P,R11,2*%
%TO.N,+9V*%
X18347500Y-45200000D03*
%TD*%
D29*
%TO.P,Y1,1,1*%
%TO.N,Net-(U3-PC14-OSC32_IN)*%
X43225000Y-23802500D03*
%TO.P,Y1,2,2*%
%TO.N,Net-(U3-PC15-OSC32_OUT)*%
X43225000Y-26302500D03*
%TD*%
D25*
%TO.P,R6,1*%
%TO.N,Net-(U2A-+)*%
X24582500Y-45200000D03*
%TO.P,R6,2*%
%TO.N,GND*%
X22757500Y-45200000D03*
%TD*%
D30*
%TO.P,U4,1,GND*%
%TO.N,GND*%
X31337500Y-19250000D03*
D31*
%TO.P,U4,2,VI*%
%TO.N,Net-(J2-Pin_1)*%
X31250000Y-20750000D03*
D30*
%TO.P,U4,3,VO*%
%TO.N,VDD*%
X31337500Y-22250000D03*
%TD*%
D26*
%TO.P,C5,1*%
%TO.N,GND*%
X23300000Y-24750000D03*
%TO.P,C5,2*%
%TO.N,VDD*%
X25200000Y-24750000D03*
%TD*%
%TO.P,TPS_C_IN1,1,1*%
%TO.N,+3V3*%
X27850000Y-47225000D03*
%TO.P,TPS_C_IN1,2,2*%
%TO.N,GND*%
X29750000Y-47225000D03*
%TD*%
D25*
%TO.P,R14,1*%
%TO.N,Net-(D1-A2)*%
X35462500Y-33075000D03*
%TO.P,R14,2*%
%TO.N,Net-(U3-PA5)*%
X33637500Y-33075000D03*
%TD*%
D32*
%TO.P,R5,1*%
%TO.N,Net-(U2A-+)*%
X28200000Y-73797500D03*
%TO.P,R5,2*%
%TO.N,GNDPWR*%
X28200000Y-75622500D03*
%TD*%
D33*
%TO.P,C6,1*%
%TO.N,GND*%
X37600000Y-19870000D03*
%TO.P,C6,2*%
%TO.N,/pmu/NRST*%
X37600000Y-21770000D03*
%TD*%
D34*
%TO.P,R15,1*%
%TO.N,Net-(U3-PB9-BOOT0)*%
X40200000Y-21712500D03*
%TO.P,R15,2*%
%TO.N,GND*%
X40200000Y-19887500D03*
%TD*%
D26*
%TO.P,C1,1*%
%TO.N,VDD*%
X46780000Y-26478333D03*
%TO.P,C1,2*%
%TO.N,GND*%
X48680000Y-26478333D03*
%TD*%
D25*
%TO.P,R7,1*%
%TO.N,GND*%
X29737500Y-50600000D03*
%TO.P,R7,2*%
%TO.N,Net-(U2A--)*%
X27912500Y-50600000D03*
%TD*%
D33*
%TO.P,C4,1*%
%TO.N,GND*%
X34000000Y-18800000D03*
%TO.P,C4,2*%
%TO.N,Net-(J2-Pin_1)*%
X34000000Y-20700000D03*
%TD*%
D28*
%TO.P,C2,1*%
%TO.N,VDD*%
X29900000Y-28000000D03*
%TO.P,C2,2*%
%TO.N,GND*%
X28000000Y-28000000D03*
%TD*%
%TO.P,C11,1,1*%
%TO.N,GND*%
X27950000Y-36000000D03*
%TO.P,C11,2,2*%
%TO.N,Net-(C11-Pad2)*%
X26050000Y-36000000D03*
%TD*%
D35*
%TO.N,GND*%
X37100000Y-29000000D03*
X30000000Y-34522792D03*
X28000000Y-26750000D03*
X32600000Y-38400000D03*
D36*
%TO.N,+9V*%
X55450000Y-24350000D03*
D35*
%TO.N,Net-(C11-Pad2)*%
X18400000Y-38250000D03*
%TO.N,+3V3*%
X15950000Y-29600000D03*
X34390000Y-59990000D03*
X22100000Y-16700000D03*
X32650000Y-49300000D03*
X52150000Y-47350000D03*
X60100000Y-33450000D03*
X19796000Y-48000000D03*
X47800000Y-46533550D03*
X24040000Y-48590000D03*
X60100000Y-31650000D03*
X34809236Y-47103224D03*
%TO.N,/rp2040/SWDIO*%
X18595130Y-43017044D03*
X37054000Y-39500000D03*
X40000000Y-40500000D03*
%TO.N,/rp2040/MISO*%
X13181635Y-51568365D03*
X14250000Y-33400000D03*
%TO.N,/rp2040/SWCLK*%
X18996476Y-42325000D03*
X39213343Y-39650000D03*
%TO.N,GND*%
X31750000Y-26750000D03*
X58912500Y-32950000D03*
X30750000Y-45500000D03*
X19628554Y-30228554D03*
X35400000Y-50750000D03*
X17050000Y-56550000D03*
X29250000Y-18250000D03*
X23580000Y-54490000D03*
X43900000Y-42100000D03*
X34500000Y-46100000D03*
X43000000Y-70775000D03*
X58000000Y-73500000D03*
X41000000Y-59840000D03*
X22280000Y-25830000D03*
X29300000Y-51900000D03*
%TO.N,/rp2040/SWCLK*%
X37054000Y-38450000D03*
%TO.N,/rp2040/MOSI*%
X13350000Y-33400000D03*
X13998000Y-35750000D03*
%TO.N,/rp2040/SCK*%
X12550000Y-33400000D03*
X15400000Y-35100000D03*
X14000000Y-36600000D03*
%TO.N,Net-(IC1-XIN)*%
X17750000Y-40100000D03*
%TO.N,/rp2040/RX*%
X44025000Y-34150000D03*
%TO.N,/rp2040/TX*%
X43300000Y-33675000D03*
%TO.N,/rp2040/USBBOOT*%
X13551000Y-20199000D03*
X26300000Y-25600000D03*
X19100000Y-67500000D03*
X29300000Y-24600000D03*
%TO.N,/pmu/NRST*%
X53200000Y-61600000D03*
X53200000Y-63900000D03*
X40750000Y-27250000D03*
%TO.N,Net-(J4-D--PadA7)*%
X38900000Y-15550000D03*
X41850000Y-15550000D03*
%TO.N,/pmu/MEAS_V*%
X37300000Y-37000000D03*
X35150000Y-34750000D03*
X31700000Y-52598000D03*
X36700000Y-52500000D03*
%TO.N,VDD*%
X45000000Y-37250000D03*
X45887500Y-42581910D03*
%TO.N,/pmu/3V3_POWER_ON*%
X52400000Y-36100000D03*
%TO.N,/pmu/MEAS_CURRENT*%
X25350000Y-30000000D03*
X30650000Y-29951000D03*
%TO.N,+3V3*%
X57425000Y-33475000D03*
%TO.N,/rp2040/~{RESET}*%
X13600000Y-54000000D03*
X14996446Y-50903554D03*
%TO.N,Net-(J2-Pin_1)*%
X27000000Y-65450000D03*
X27000000Y-70700000D03*
%TD*%
D37*
%TO.N,+3V3*%
X59700000Y-33850000D02*
X60100000Y-33450000D01*
X57800000Y-33850000D02*
X59700000Y-33850000D01*
X60100000Y-31650000D02*
X60100000Y-33450000D01*
X57425000Y-33475000D02*
X57800000Y-33850000D01*
%TO.N,/rp2040/SWDIO*%
X41300250Y-43800250D02*
X53859000Y-43800250D01*
X53859000Y-43800250D02*
X55010000Y-44951250D01*
X40000000Y-42500000D02*
X41300250Y-43800250D01*
X40000000Y-40500000D02*
X40000000Y-42500000D01*
%TO.N,Net-(J2-Pin_1)*%
X27000000Y-74096160D02*
X27000000Y-70700000D01*
X27000000Y-64600000D02*
X27000000Y-65450000D01*
X31100000Y-20600000D02*
X20750000Y-20600000D01*
X19043160Y-46201000D02*
X17201000Y-46201000D01*
X17599000Y-44199000D02*
X19058000Y-44199000D01*
X27000000Y-74096160D02*
X27514840Y-74611000D01*
X18700000Y-22650000D02*
X18700000Y-36232900D01*
X14150000Y-46750000D02*
X14150000Y-49350000D01*
X20750000Y-20600000D02*
X18700000Y-22650000D01*
X19359000Y-44500000D02*
X19359000Y-45885160D01*
X27514840Y-74611000D02*
X28885160Y-74611000D01*
X18700000Y-36232900D02*
X16649000Y-38283900D01*
X15600000Y-50800000D02*
X15600000Y-53200000D01*
X16649000Y-43249000D02*
X17599000Y-44199000D01*
X31250000Y-20750000D02*
X31100000Y-20600000D01*
X19058000Y-44199000D02*
X19359000Y-44500000D01*
X14700000Y-46200000D02*
X14150000Y-46750000D01*
X19359000Y-45885160D02*
X19043160Y-46201000D01*
X17201000Y-46201000D02*
X17200000Y-46200000D01*
X17200000Y-46200000D02*
X14700000Y-46200000D01*
X28885160Y-74611000D02*
X30700000Y-76425840D01*
X14150000Y-49350000D02*
X15600000Y-50800000D01*
X15600000Y-53200000D02*
X27000000Y-64600000D01*
X16649000Y-38283900D02*
X16649000Y-43249000D01*
X30700000Y-76425840D02*
X30700000Y-79725000D01*
D38*
%TO.N,+9V*%
X14500000Y-45200000D02*
X13175000Y-46525000D01*
X14082635Y-51941572D02*
X12524207Y-53500000D01*
X12500000Y-53500000D02*
X12500000Y-59000000D01*
X13175000Y-46525000D02*
X13175000Y-50250000D01*
X14082635Y-51157635D02*
X14082635Y-51941572D01*
X13175000Y-50250000D02*
X14082635Y-51157635D01*
X12500000Y-59000000D02*
X25700000Y-72200000D01*
X12524207Y-53500000D02*
X12500000Y-53500000D01*
X25700000Y-72200000D02*
X25700000Y-79725000D01*
D37*
%TO.N,/rp2040/USBBOOT*%
X13550000Y-20200000D02*
X12950000Y-20200000D01*
X12950000Y-20200000D02*
X11800000Y-21350000D01*
X11800000Y-21350000D02*
X11800000Y-32500000D01*
X11800000Y-32500000D02*
X11799000Y-32501000D01*
X11799000Y-32501000D02*
X11799000Y-59290364D01*
X11799000Y-59290364D02*
X19100000Y-66591364D01*
X19100000Y-66591364D02*
X19100000Y-67500000D01*
D38*
%TO.N,+9V*%
X14500000Y-45200000D02*
X15800000Y-43900000D01*
X15800000Y-43900000D02*
X15800000Y-37950000D01*
X15800000Y-37950000D02*
X17750000Y-36000000D01*
X17750000Y-36000000D02*
X17750000Y-22608636D01*
X17750000Y-22608636D02*
X23758636Y-16600000D01*
X49200000Y-16600000D02*
X51350000Y-18750000D01*
X51350000Y-18750000D02*
X51350000Y-23150000D01*
X23758636Y-16600000D02*
X49200000Y-16600000D01*
X51350000Y-23150000D02*
X52550000Y-24350000D01*
X52550000Y-24350000D02*
X55450000Y-24350000D01*
D37*
%TO.N,/rp2040/~{RESET}*%
X14996446Y-50903554D02*
X15000000Y-50907108D01*
X15000000Y-50907108D02*
X15000000Y-52600000D01*
X15000000Y-52600000D02*
X13600000Y-54000000D01*
D39*
%TO.N,GND*%
X19800000Y-51800000D02*
X22490000Y-54490000D01*
X18637500Y-51800000D02*
X19800000Y-51800000D01*
X28000000Y-26750000D02*
X31750000Y-26750000D01*
X33664500Y-28602000D02*
X33637500Y-28575000D01*
X29700000Y-50600000D02*
X29737500Y-50600000D01*
X28000000Y-26750000D02*
X28000000Y-28000000D01*
X33550000Y-19250000D02*
X34000000Y-18800000D01*
D38*
X25675000Y-39850000D02*
X25650000Y-39850000D01*
D39*
X31337500Y-19250000D02*
X33550000Y-19250000D01*
X22490000Y-54490000D02*
X23580000Y-54490000D01*
D37*
%TO.N,Net-(J2-Pin_1)*%
X34000000Y-20700000D02*
X31300000Y-20700000D01*
X31300000Y-20700000D02*
X31250000Y-20750000D01*
D38*
%TO.N,+9V*%
X25700000Y-79725000D02*
X25700000Y-80700000D01*
X35245000Y-81500000D02*
X35820000Y-80925000D01*
X18347500Y-45200000D02*
X14500000Y-45200000D01*
X25700000Y-80700000D02*
X26500000Y-81500000D01*
X26500000Y-81500000D02*
X35245000Y-81500000D01*
D37*
%TO.N,Net-(C11-Pad2)*%
X24352000Y-37698000D02*
X20667800Y-37698000D01*
X18400000Y-38250000D02*
X20115800Y-38250000D01*
X26050000Y-34462500D02*
X27762500Y-32750000D01*
X20667800Y-37698000D02*
X20115800Y-38250000D01*
X26050000Y-36000000D02*
X24352000Y-37698000D01*
X26050000Y-36000000D02*
X26050000Y-34462500D01*
%TO.N,+3V3*%
X22158636Y-16758636D02*
X22158636Y-17208636D01*
X19796000Y-48000000D02*
X21930000Y-48000000D01*
X15950000Y-23417272D02*
X22158636Y-17208636D01*
X24040000Y-48590000D02*
X24040000Y-47865000D01*
X15950000Y-29600000D02*
X15950000Y-23417272D01*
X32650000Y-49300000D02*
X32650000Y-49230000D01*
X47900000Y-46633550D02*
X47900000Y-46700000D01*
X47800000Y-46533550D02*
X47900000Y-46633550D01*
X27046740Y-51800000D02*
X27890000Y-52643260D01*
X34390000Y-76955000D02*
X35820000Y-78385000D01*
X34390000Y-59990000D02*
X34390000Y-47490000D01*
X34776776Y-47103224D02*
X34809236Y-47103224D01*
X32650000Y-49300000D02*
X32600000Y-49250000D01*
X21930000Y-48000000D02*
X22010000Y-47920000D01*
X27890000Y-53170000D02*
X27890000Y-52643260D01*
X24362500Y-51800000D02*
X27046740Y-51800000D01*
X32650000Y-49230000D02*
X34390000Y-47490000D01*
X47900000Y-46700000D02*
X48550000Y-47350000D01*
X22355000Y-47575000D02*
X22010000Y-47920000D01*
X22740000Y-51800000D02*
X22010000Y-51070000D01*
X48550000Y-47350000D02*
X52150000Y-47350000D01*
X34390000Y-59990000D02*
X34390000Y-76955000D01*
X23750000Y-47575000D02*
X22355000Y-47575000D01*
X22100000Y-16700000D02*
X22158636Y-16758636D01*
X24040000Y-47865000D02*
X23750000Y-47575000D01*
X24362500Y-51800000D02*
X22740000Y-51800000D01*
X28050000Y-47575000D02*
X23750000Y-47575000D01*
X22010000Y-51070000D02*
X22010000Y-47920000D01*
X34390000Y-47490000D02*
X34776776Y-47103224D01*
%TO.N,/rp2040/SWDIO*%
X19154375Y-43017044D02*
X18595130Y-43017044D01*
X21000000Y-38500000D02*
X20250000Y-39250000D01*
X20250000Y-41921419D02*
X19154375Y-43017044D01*
X37054000Y-39500000D02*
X28500000Y-39500000D01*
X28500000Y-39500000D02*
X27500000Y-38500000D01*
X20250000Y-39250000D02*
X20250000Y-41921419D01*
X27500000Y-38500000D02*
X21000000Y-38500000D01*
%TO.N,/rp2040/MISO*%
X14250000Y-33400000D02*
X14250000Y-34224000D01*
X12474000Y-36000000D02*
X12474000Y-50860730D01*
X12474000Y-50860730D02*
X13181635Y-51568365D01*
X14250000Y-34224000D02*
X12474000Y-36000000D01*
%TO.N,/rp2040/SWCLK*%
X28750000Y-39099000D02*
X27750000Y-38099000D01*
X39250000Y-42500000D02*
X41701250Y-44951250D01*
X19750000Y-41571476D02*
X18996476Y-42325000D01*
X39213343Y-39650000D02*
X39250000Y-39686657D01*
X37054000Y-38450000D02*
X37004000Y-38500000D01*
X36401000Y-39099000D02*
X28750000Y-39099000D01*
X27750000Y-38099000D02*
X20833900Y-38099000D01*
X20833900Y-38099000D02*
X19750000Y-39182900D01*
X41701250Y-44951250D02*
X52470000Y-44951250D01*
X37000000Y-38500000D02*
X36401000Y-39099000D01*
X39250000Y-39686657D02*
X39250000Y-42500000D01*
X37004000Y-38500000D02*
X37000000Y-38500000D01*
X19750000Y-39182900D02*
X19750000Y-41571476D01*
%TO.N,/rp2040/MOSI*%
X14751000Y-33192479D02*
X14458521Y-32900000D01*
X13650000Y-32900000D02*
X13350000Y-33200000D01*
X14751000Y-34849000D02*
X14751000Y-33192479D01*
X14458521Y-32900000D02*
X13650000Y-32900000D01*
X13998000Y-35750000D02*
X14036896Y-35711104D01*
X14036896Y-35711104D02*
X14036896Y-35563104D01*
X14036896Y-35563104D02*
X14751000Y-34849000D01*
X13350000Y-33200000D02*
X13350000Y-33400000D01*
%TO.N,/rp2040/SCK*%
X15400000Y-35100000D02*
X15400000Y-35200000D01*
X15400000Y-33415801D02*
X14583199Y-32599000D01*
X15400000Y-35100000D02*
X15400000Y-33415801D01*
X15400000Y-35200000D02*
X14000000Y-36600000D01*
X14583199Y-32599000D02*
X13351000Y-32599000D01*
X13351000Y-32599000D02*
X12550000Y-33400000D01*
%TO.N,Net-(IC1-XIN)*%
X20300000Y-34687500D02*
X22237500Y-32750000D01*
X17750000Y-40100000D02*
X17750000Y-38191479D01*
X19941479Y-36000000D02*
X20300000Y-36000000D01*
X20300000Y-36000000D02*
X20300000Y-34687500D01*
X17750000Y-38191479D02*
X19941479Y-36000000D01*
%TO.N,/rp2040/RX*%
X39362500Y-29875000D02*
X40349943Y-29875000D01*
X40349943Y-29875000D02*
X44025000Y-33550057D01*
X44025000Y-33550057D02*
X44025000Y-34150000D01*
%TO.N,/rp2040/TX*%
X40150000Y-30525000D02*
X43300000Y-33675000D01*
X39362500Y-30525000D02*
X40150000Y-30525000D01*
%TO.N,/rp2040/USBBOOT*%
X27150000Y-24750000D02*
X29150000Y-24750000D01*
X26300000Y-25600000D02*
X27150000Y-24750000D01*
X29150000Y-24750000D02*
X29300000Y-24600000D01*
%TO.N,Net-(J1-Pin_2)*%
X31949000Y-31766100D02*
X31166450Y-30983550D01*
X28759900Y-29427000D02*
X27348740Y-29427000D01*
X41533550Y-46033550D02*
X38150000Y-42650000D01*
X27830000Y-25320000D02*
X27835000Y-25325000D01*
X52333900Y-46651000D02*
X50833900Y-46651000D01*
X27348740Y-29427000D02*
X26798000Y-28876260D01*
X27835000Y-25325000D02*
X33637500Y-25325000D01*
X26798000Y-26109900D02*
X27587900Y-25320000D01*
X26798000Y-28876260D02*
X26798000Y-26109900D01*
X54250000Y-68133750D02*
X54250000Y-48567100D01*
X27587900Y-25320000D02*
X27830000Y-25320000D01*
X31949000Y-34566100D02*
X31949000Y-31766100D01*
X50216450Y-46033550D02*
X41533550Y-46033550D01*
X31166450Y-30983550D02*
X30283550Y-30983550D01*
X38099000Y-42483200D02*
X38099000Y-36899000D01*
X37574028Y-36374028D02*
X33756928Y-36374028D01*
X30283550Y-30983550D02*
X28759900Y-29459900D01*
X50833900Y-46651000D02*
X50216450Y-46033550D01*
X28759900Y-29459900D02*
X28759900Y-29427000D01*
X54250000Y-48567100D02*
X52333900Y-46651000D01*
X56050000Y-69933750D02*
X54250000Y-68133750D01*
X38099000Y-36899000D02*
X37574028Y-36374028D01*
X38150000Y-42534200D02*
X38099000Y-42483200D01*
X33756928Y-36374028D02*
X31949000Y-34566100D01*
X38150000Y-42650000D02*
X38150000Y-42534200D01*
%TO.N,/pmu/NRST*%
X40725000Y-27275000D02*
X40750000Y-27250000D01*
X37600000Y-26600000D02*
X37600000Y-21770000D01*
X39362500Y-27275000D02*
X40725000Y-27275000D01*
X53200000Y-61600000D02*
X53200000Y-63900000D01*
X38275000Y-27275000D02*
X37600000Y-26600000D01*
X39362500Y-27275000D02*
X38275000Y-27275000D01*
%TO.N,Net-(J1-Pin_3)*%
X27199000Y-28710160D02*
X27514840Y-29026000D01*
X27514840Y-29026000D02*
X28926000Y-29026000D01*
X32350000Y-34400000D02*
X33900000Y-35950000D01*
X41682900Y-45500000D02*
X50250000Y-45500000D01*
X52500000Y-46250000D02*
X54750000Y-48500000D01*
X31200000Y-30450000D02*
X32350000Y-31600000D01*
X51000000Y-46250000D02*
X52500000Y-46250000D01*
X54750000Y-48500000D02*
X54750000Y-66133750D01*
X27500000Y-25975000D02*
X27199000Y-26276000D01*
X37850000Y-35950000D02*
X38550000Y-36650000D01*
X31199000Y-30451000D02*
X31200000Y-30450000D01*
X27199000Y-26276000D02*
X27199000Y-28710160D01*
X33637500Y-25975000D02*
X27500000Y-25975000D01*
X32350000Y-31600000D02*
X32350000Y-34400000D01*
X28926000Y-29026000D02*
X30351000Y-30451000D01*
X33900000Y-35950000D02*
X37850000Y-35950000D01*
X38550000Y-42367100D02*
X41682900Y-45500000D01*
X54750000Y-66133750D02*
X56050000Y-67433750D01*
X38550000Y-36650000D02*
X38550000Y-42367100D01*
X50250000Y-45500000D02*
X51000000Y-46250000D01*
X30351000Y-30451000D02*
X31199000Y-30451000D01*
%TO.N,Net-(J4-D--PadA7)*%
X41850000Y-15550000D02*
X38900000Y-15550000D01*
%TO.N,Net-(U3-PC14-OSC32_IN)*%
X39362500Y-25975000D02*
X40725000Y-25975000D01*
X40725000Y-25975000D02*
X42897500Y-23802500D01*
X42897500Y-23802500D02*
X43225000Y-23802500D01*
X42800000Y-23377500D02*
X43225000Y-23802500D01*
X42800000Y-20825000D02*
X42800000Y-23377500D01*
%TO.N,Net-(U3-PC15-OSC32_OUT)*%
X45700000Y-21900000D02*
X46775000Y-20825000D01*
X42902500Y-26625000D02*
X43225000Y-26302500D01*
X45700000Y-25250000D02*
X45700000Y-21900000D01*
X43225000Y-26302500D02*
X44647500Y-26302500D01*
X39362500Y-26625000D02*
X42902500Y-26625000D01*
X44647500Y-26302500D02*
X45700000Y-25250000D01*
D40*
%TO.N,GNDPWR*%
X28200000Y-79725000D02*
X28200000Y-75622500D01*
D37*
%TO.N,Net-(U2A-+)*%
X27414840Y-51601000D02*
X28410160Y-51601000D01*
X31840000Y-49260057D02*
X31840000Y-49615000D01*
X33775000Y-51550000D02*
X31840000Y-49615000D01*
X28850000Y-51161160D02*
X28850000Y-49988840D01*
X34386000Y-44145160D02*
X34070160Y-44461000D01*
X26963840Y-51150000D02*
X27414840Y-51601000D01*
X33775000Y-51550000D02*
X33775000Y-73275000D01*
X33775000Y-73275000D02*
X33252500Y-73797500D01*
X24362500Y-51150000D02*
X26963840Y-51150000D01*
X34070160Y-42459000D02*
X34386000Y-42774840D01*
X29099000Y-44151000D02*
X29099000Y-42814840D01*
X34070160Y-44461000D02*
X33559000Y-44461000D01*
X33559000Y-44461000D02*
X32580000Y-45440000D01*
X32580000Y-45440000D02*
X32580000Y-48520057D01*
X32580000Y-48520057D02*
X31840000Y-49260057D01*
X28410160Y-51601000D02*
X28850000Y-51161160D01*
X29238840Y-49600000D02*
X31500057Y-49600000D01*
X28850000Y-49988840D02*
X29238840Y-49600000D01*
X34386000Y-42774840D02*
X34386000Y-44145160D01*
X29099000Y-42814840D02*
X29454840Y-42459000D01*
X28650000Y-44600000D02*
X29099000Y-44151000D01*
X25182500Y-44600000D02*
X28650000Y-44600000D01*
X33252500Y-73797500D02*
X28200000Y-73797500D01*
X31500057Y-49600000D02*
X31840000Y-49260057D01*
X24582500Y-45200000D02*
X25182500Y-44600000D01*
X29454840Y-42459000D02*
X34070160Y-42459000D01*
%TO.N,Net-(U2A--)*%
X32160000Y-44872500D02*
X33572500Y-43460000D01*
X27987500Y-50500000D02*
X28087500Y-50400000D01*
X28440000Y-49180000D02*
X31117100Y-49180000D01*
X31117100Y-49180000D02*
X32160000Y-48137100D01*
X32160000Y-48137100D02*
X32160000Y-44872500D01*
X24362500Y-50500000D02*
X27987500Y-50500000D01*
X28087500Y-49532500D02*
X28440000Y-49180000D01*
X28087500Y-50400000D02*
X28087500Y-49532500D01*
%TO.N,Net-(U2B-+)*%
X24362500Y-52450000D02*
X22010000Y-52450000D01*
X27025000Y-55175000D02*
X27460000Y-55610000D01*
X24362500Y-52450000D02*
X25200000Y-52450000D01*
X21180000Y-51620000D02*
X21180000Y-50233943D01*
X19195000Y-48248943D02*
X19195000Y-46877500D01*
X25200000Y-52450000D02*
X27025000Y-54275000D01*
X22010000Y-52450000D02*
X21180000Y-51620000D01*
X27917500Y-55610000D02*
X27460000Y-55610000D01*
X19195000Y-46877500D02*
X20172500Y-45900000D01*
X20172500Y-45900000D02*
X20172500Y-45200000D01*
X21180000Y-50233943D02*
X19195000Y-48248943D01*
X27025000Y-55175000D02*
X27025000Y-54275000D01*
X28087500Y-55610000D02*
X27520000Y-55610000D01*
%TO.N,Net-(U3-PB9-BOOT0)*%
X39000000Y-22912500D02*
X39000000Y-24962500D01*
X39000000Y-24962500D02*
X39362500Y-25325000D01*
X40200000Y-21712500D02*
X39000000Y-22912500D01*
%TO.N,Net-(D1-A1)*%
X52660000Y-40000000D02*
X43600000Y-40000000D01*
X40450000Y-33050000D02*
X39487500Y-33050000D01*
X43600000Y-40000000D02*
X42199000Y-38599000D01*
X42199000Y-34766100D02*
X42166100Y-34766100D01*
X42166100Y-34766100D02*
X40450000Y-33050000D01*
X42199000Y-38599000D02*
X42199000Y-34766100D01*
%TO.N,Net-(D1-A2)*%
X42600000Y-34600000D02*
X40000000Y-32000000D01*
X40000000Y-32000000D02*
X39038840Y-32000000D01*
X57740000Y-40000000D02*
X56240000Y-38500000D01*
X56240000Y-38500000D02*
X49250000Y-38500000D01*
X37909160Y-34500000D02*
X35750000Y-34500000D01*
X42600000Y-38357900D02*
X42600000Y-34600000D01*
X43721050Y-39478950D02*
X42600000Y-38357900D01*
X39038840Y-32000000D02*
X38674000Y-32364840D01*
X38674000Y-32364840D02*
X38674000Y-33735160D01*
X49250000Y-38500000D02*
X48250000Y-39500000D01*
X35750000Y-34500000D02*
X35462500Y-34212500D01*
X38674000Y-33735160D02*
X37909160Y-34500000D01*
X35462500Y-34212500D02*
X35462500Y-33075000D01*
X48228950Y-39478950D02*
X43721050Y-39478950D01*
X48250000Y-39500000D02*
X48228950Y-39478950D01*
%TO.N,/pmu/MEAS_V*%
X31100000Y-57150000D02*
X30150000Y-58100000D01*
X37674972Y-37374972D02*
X37300000Y-37000000D01*
X36550000Y-44900000D02*
X37674972Y-43775028D01*
X31400000Y-54200000D02*
X31100000Y-54500000D01*
X34676000Y-30906130D02*
X34294870Y-30525000D01*
X26624000Y-57274000D02*
X26624000Y-54450000D01*
X31100000Y-54500000D02*
X31100000Y-57150000D01*
X30150000Y-58100000D02*
X27450000Y-58100000D01*
X36550000Y-52350000D02*
X36700000Y-52500000D01*
X34451000Y-34051000D02*
X34451000Y-32389840D01*
X36550000Y-44900000D02*
X36550000Y-52350000D01*
X34451000Y-32389840D02*
X34676000Y-32164840D01*
X31400000Y-52898000D02*
X31400000Y-54200000D01*
X24362500Y-53750000D02*
X24362500Y-53100000D01*
X25274000Y-53100000D02*
X24362500Y-53100000D01*
X37674972Y-43775028D02*
X37674972Y-37374972D01*
X34294870Y-30525000D02*
X33637500Y-30525000D01*
X26624000Y-54450000D02*
X25274000Y-53100000D01*
X34676000Y-32164840D02*
X34676000Y-30906130D01*
X35150000Y-34750000D02*
X34451000Y-34051000D01*
X27450000Y-58100000D02*
X26624000Y-57274000D01*
X31700000Y-52598000D02*
X31400000Y-52898000D01*
%TO.N,Net-(U3-PA5)*%
X33637500Y-31175000D02*
X33637500Y-33075000D01*
%TO.N,Net-(U3-PA4)*%
X37650000Y-31600000D02*
X37662500Y-31612500D01*
X38075000Y-31175000D02*
X37650000Y-31600000D01*
X39362500Y-31175000D02*
X38075000Y-31175000D01*
X37662500Y-31612500D02*
X37662500Y-33050000D01*
%TO.N,VDD*%
X38449001Y-28101000D02*
X38625001Y-27925000D01*
X29900000Y-28000000D02*
X29900000Y-28800000D01*
X59350000Y-69133750D02*
X56050000Y-72433750D01*
X33750000Y-22250000D02*
X31337500Y-22250000D01*
X31850000Y-28300000D02*
X32225000Y-27925000D01*
X48520000Y-80925000D02*
X56050000Y-73395000D01*
X35501057Y-28101000D02*
X38449001Y-28101000D01*
X45887500Y-42581910D02*
X46331910Y-42581910D01*
X56050000Y-73395000D02*
X56050000Y-72433750D01*
X31400000Y-29250000D02*
X31850000Y-28800000D01*
X31337500Y-22250000D02*
X25750000Y-22250000D01*
X34374999Y-27925000D02*
X34676000Y-27623999D01*
X29900000Y-28800000D02*
X30350000Y-29250000D01*
X38625001Y-27925000D02*
X39362500Y-27925000D01*
X46780000Y-23676667D02*
X46780000Y-26478333D01*
X45000000Y-28275000D02*
X44650000Y-27925000D01*
X59350000Y-43700000D02*
X59350000Y-69133750D01*
X34374999Y-27925000D02*
X33637500Y-27925000D01*
X45333333Y-27925000D02*
X44650000Y-27925000D01*
X45000000Y-37250000D02*
X45000000Y-28275000D01*
X32225000Y-27925000D02*
X33637500Y-27925000D01*
X34676000Y-23176000D02*
X33750000Y-22250000D01*
X30350000Y-29250000D02*
X31400000Y-29250000D01*
X47000000Y-43250000D02*
X58900000Y-43250000D01*
X46780000Y-26478333D02*
X45333333Y-27925000D01*
X46331910Y-42581910D02*
X47000000Y-43250000D01*
X58900000Y-43250000D02*
X59350000Y-43700000D01*
X25750000Y-22250000D02*
X25200000Y-22800000D01*
X25200000Y-22800000D02*
X25200000Y-24750000D01*
X35325057Y-27925000D02*
X35501057Y-28101000D01*
X31850000Y-28800000D02*
X31850000Y-28300000D01*
X33637500Y-27925000D02*
X35325057Y-27925000D01*
X34676000Y-27623999D02*
X34676000Y-23176000D01*
X39362500Y-27925000D02*
X38575000Y-27925000D01*
%TO.N,/pmu/3V3_POWER_ON*%
X44699000Y-36842479D02*
X44499000Y-37042479D01*
X39362500Y-29225000D02*
X43825000Y-29225000D01*
X44699000Y-30099000D02*
X44699000Y-36842479D01*
X44791479Y-37750000D02*
X50750000Y-37750000D01*
X50750000Y-37750000D02*
X52400000Y-36100000D01*
X44499000Y-37457521D02*
X44791479Y-37750000D01*
X43825000Y-29225000D02*
X44699000Y-30099000D01*
X44499000Y-37042479D02*
X44499000Y-37457521D01*
%TO.N,Net-(R10-Pad2)*%
X25433500Y-48779000D02*
X30951000Y-48779000D01*
X30951000Y-48779000D02*
X31747500Y-47982500D01*
X24362500Y-49850000D02*
X25433500Y-48779000D01*
X29952500Y-43460000D02*
X29912500Y-43500000D01*
X31747500Y-43460000D02*
X29952500Y-43460000D01*
X31747500Y-47982500D02*
X31747500Y-43460000D01*
%TO.N,/pmu/MEAS_CURRENT*%
X17600000Y-43750000D02*
X27837500Y-43750000D01*
X25350000Y-30000000D02*
X20850000Y-30000000D01*
X17050000Y-43200000D02*
X17600000Y-43750000D01*
X30650000Y-29951000D02*
X30701000Y-29951000D01*
X19050000Y-36450000D02*
X17050000Y-38450000D01*
X30650000Y-29951000D02*
X30726000Y-29875000D01*
X17050000Y-38450000D02*
X17050000Y-43200000D01*
X20850000Y-30000000D02*
X19050000Y-31800000D01*
X19050000Y-31800000D02*
X19050000Y-36450000D01*
X27837500Y-43750000D02*
X28087500Y-43500000D01*
X30726000Y-29875000D02*
X33637500Y-29875000D01*
D39*
%TO.N,GND*%
X37100000Y-29000000D02*
X36702000Y-28602000D01*
X36702000Y-28602000D02*
X33664500Y-28602000D01*
D37*
%TO.N,VDD*%
X39362500Y-27925000D02*
X44650000Y-27925000D01*
%TD*%
%TA.AperFunction,Conductor*%
%TO.N,GND*%
G36*
X14205203Y-62546248D02*
G01*
X14211681Y-62552280D01*
X18463181Y-66803780D01*
X18477884Y-66830707D01*
X18494477Y-66856526D01*
X18495368Y-66862726D01*
X18496666Y-66865103D01*
X18499500Y-66891461D01*
X18499500Y-66920234D01*
X18479815Y-66987273D01*
X18478602Y-66989125D01*
X18390609Y-67120814D01*
X18390602Y-67120827D01*
X18330264Y-67266498D01*
X18330261Y-67266510D01*
X18299500Y-67421153D01*
X18299500Y-67578846D01*
X18330261Y-67733489D01*
X18330264Y-67733501D01*
X18390602Y-67879172D01*
X18390609Y-67879185D01*
X18478210Y-68010288D01*
X18478213Y-68010292D01*
X18589707Y-68121786D01*
X18589711Y-68121789D01*
X18720814Y-68209390D01*
X18720827Y-68209397D01*
X18866498Y-68269735D01*
X18866503Y-68269737D01*
X19021153Y-68300499D01*
X19021156Y-68300500D01*
X19021158Y-68300500D01*
X19178844Y-68300500D01*
X19178845Y-68300499D01*
X19333497Y-68269737D01*
X19470939Y-68212807D01*
X19479172Y-68209397D01*
X19479172Y-68209396D01*
X19479179Y-68209394D01*
X19610289Y-68121789D01*
X19721789Y-68010289D01*
X19809394Y-67879179D01*
X19825156Y-67841124D01*
X19868993Y-67786724D01*
X19935286Y-67764657D01*
X20002986Y-67781934D01*
X20027397Y-67800897D01*
X24763181Y-72536681D01*
X24796666Y-72598004D01*
X24799500Y-72624362D01*
X24799500Y-78539242D01*
X24779815Y-78606281D01*
X24763181Y-78626923D01*
X24669894Y-78720209D01*
X24669890Y-78720213D01*
X24544951Y-78892179D01*
X24448444Y-79081585D01*
X24448443Y-79081587D01*
X24448443Y-79081588D01*
X24427282Y-79146716D01*
X24382753Y-79283760D01*
X24361950Y-79415109D01*
X24349500Y-79493713D01*
X24349500Y-79956287D01*
X24382754Y-80166243D01*
X24424114Y-80293536D01*
X24448444Y-80368414D01*
X24544951Y-80557820D01*
X24669890Y-80729786D01*
X24790457Y-80850353D01*
X24797948Y-80862896D01*
X24806706Y-80870398D01*
X24815867Y-80892900D01*
X24821551Y-80902418D01*
X24823243Y-80908062D01*
X24834105Y-80962666D01*
X24851662Y-81005051D01*
X24854067Y-81010859D01*
X24854069Y-81010863D01*
X24901985Y-81126544D01*
X24901990Y-81126552D01*
X24951401Y-81200500D01*
X24951402Y-81200501D01*
X25000537Y-81274038D01*
X25925960Y-82199461D01*
X25925964Y-82199464D01*
X26073446Y-82298009D01*
X26073452Y-82298012D01*
X26073453Y-82298013D01*
X26237334Y-82365895D01*
X26411303Y-82400499D01*
X26411307Y-82400500D01*
X26411308Y-82400500D01*
X35333693Y-82400500D01*
X35333694Y-82400499D01*
X35507666Y-82365895D01*
X35589606Y-82331953D01*
X35671547Y-82298013D01*
X35682795Y-82290496D01*
X35692503Y-82286183D01*
X35717032Y-82282912D01*
X35740644Y-82275519D01*
X35742857Y-82275499D01*
X36717871Y-82275499D01*
X36717872Y-82275499D01*
X36777483Y-82269091D01*
X36912331Y-82218796D01*
X37027546Y-82132546D01*
X37113796Y-82017331D01*
X37162810Y-81885916D01*
X37204681Y-81829984D01*
X37270145Y-81805566D01*
X37338418Y-81820417D01*
X37366673Y-81841569D01*
X37480213Y-81955109D01*
X37652179Y-82080048D01*
X37652181Y-82080049D01*
X37652184Y-82080051D01*
X37841588Y-82176557D01*
X38043757Y-82242246D01*
X38253713Y-82275500D01*
X38253714Y-82275500D01*
X38466286Y-82275500D01*
X38466287Y-82275500D01*
X38676243Y-82242246D01*
X38878412Y-82176557D01*
X39067816Y-82080051D01*
X39154138Y-82017335D01*
X39239786Y-81955109D01*
X39239788Y-81955106D01*
X39239792Y-81955104D01*
X39390104Y-81804792D01*
X39390106Y-81804788D01*
X39390109Y-81804786D01*
X39515048Y-81632820D01*
X39515047Y-81632820D01*
X39515051Y-81632816D01*
X39519514Y-81624054D01*
X39567488Y-81573259D01*
X39635308Y-81556463D01*
X39701444Y-81578999D01*
X39740486Y-81624056D01*
X39744951Y-81632820D01*
X39869890Y-81804786D01*
X40020213Y-81955109D01*
X40192179Y-82080048D01*
X40192181Y-82080049D01*
X40192184Y-82080051D01*
X40381588Y-82176557D01*
X40583757Y-82242246D01*
X40793713Y-82275500D01*
X40793714Y-82275500D01*
X41006286Y-82275500D01*
X41006287Y-82275500D01*
X41216243Y-82242246D01*
X41418412Y-82176557D01*
X41607816Y-82080051D01*
X41694138Y-82017335D01*
X41779786Y-81955109D01*
X41779788Y-81955106D01*
X41779792Y-81955104D01*
X41930104Y-81804792D01*
X41930106Y-81804788D01*
X41930109Y-81804786D01*
X42055048Y-81632820D01*
X42055047Y-81632820D01*
X42055051Y-81632816D01*
X42059514Y-81624054D01*
X42107488Y-81573259D01*
X42175308Y-81556463D01*
X42241444Y-81578999D01*
X42280486Y-81624056D01*
X42284951Y-81632820D01*
X42409890Y-81804786D01*
X42560213Y-81955109D01*
X42732179Y-82080048D01*
X42732181Y-82080049D01*
X42732184Y-82080051D01*
X42921588Y-82176557D01*
X43123757Y-82242246D01*
X43333713Y-82275500D01*
X43333714Y-82275500D01*
X43546286Y-82275500D01*
X43546287Y-82275500D01*
X43756243Y-82242246D01*
X43958412Y-82176557D01*
X44147816Y-82080051D01*
X44234138Y-82017335D01*
X44319786Y-81955109D01*
X44319788Y-81955106D01*
X44319792Y-81955104D01*
X44470104Y-81804792D01*
X44470106Y-81804788D01*
X44470109Y-81804786D01*
X44595048Y-81632820D01*
X44595047Y-81632820D01*
X44595051Y-81632816D01*
X44599514Y-81624054D01*
X44647488Y-81573259D01*
X44715308Y-81556463D01*
X44781444Y-81578999D01*
X44820486Y-81624056D01*
X44824951Y-81632820D01*
X44949890Y-81804786D01*
X45100213Y-81955109D01*
X45272179Y-82080048D01*
X45272181Y-82080049D01*
X45272184Y-82080051D01*
X45461588Y-82176557D01*
X45663757Y-82242246D01*
X45873713Y-82275500D01*
X45873714Y-82275500D01*
X46086286Y-82275500D01*
X46086287Y-82275500D01*
X46296243Y-82242246D01*
X46498412Y-82176557D01*
X46687816Y-82080051D01*
X46774138Y-82017335D01*
X46859786Y-81955109D01*
X46859788Y-81955106D01*
X46859792Y-81955104D01*
X47010104Y-81804792D01*
X47010106Y-81804788D01*
X47010109Y-81804786D01*
X47135048Y-81632820D01*
X47135047Y-81632820D01*
X47135051Y-81632816D01*
X47139514Y-81624054D01*
X47187488Y-81573259D01*
X47255308Y-81556463D01*
X47321444Y-81578999D01*
X47360486Y-81624056D01*
X47364951Y-81632820D01*
X47489890Y-81804786D01*
X47640213Y-81955109D01*
X47812179Y-82080048D01*
X47812181Y-82080049D01*
X47812184Y-82080051D01*
X48001588Y-82176557D01*
X48203757Y-82242246D01*
X48413713Y-82275500D01*
X48413714Y-82275500D01*
X48626286Y-82275500D01*
X48626287Y-82275500D01*
X48836243Y-82242246D01*
X49038412Y-82176557D01*
X49227816Y-82080051D01*
X49314138Y-82017335D01*
X49399786Y-81955109D01*
X49399788Y-81955106D01*
X49399792Y-81955104D01*
X49550104Y-81804792D01*
X49550106Y-81804788D01*
X49550109Y-81804786D01*
X49675048Y-81632820D01*
X49675047Y-81632820D01*
X49675051Y-81632816D01*
X49771557Y-81443412D01*
X49837246Y-81241243D01*
X49870500Y-81031287D01*
X49870500Y-80818713D01*
X49837246Y-80608757D01*
X49823506Y-80566473D01*
X49821512Y-80496635D01*
X49853755Y-80440478D01*
X56418713Y-73875521D01*
X56418716Y-73875520D01*
X56473669Y-73820566D01*
X56473670Y-73820566D01*
X56488023Y-73812728D01*
X56534990Y-73787083D01*
X56534992Y-73787082D01*
X56534997Y-73787082D01*
X56561349Y-73784249D01*
X56825002Y-73784249D01*
X56825008Y-73784249D01*
X56927797Y-73773749D01*
X57094334Y-73718564D01*
X57243656Y-73626462D01*
X57367712Y-73502406D01*
X57459814Y-73353084D01*
X57514999Y-73186547D01*
X57525500Y-73083759D01*
X57525499Y-71858846D01*
X57545184Y-71791808D01*
X57561813Y-71771171D01*
X59830520Y-69502466D01*
X59830521Y-69502463D01*
X59836192Y-69496793D01*
X59897515Y-69463308D01*
X59967207Y-69468292D01*
X60023140Y-69510164D01*
X60047557Y-69575628D01*
X60047872Y-69584925D01*
X60000814Y-82525951D01*
X59980886Y-82592918D01*
X59927916Y-82638481D01*
X59876815Y-82649500D01*
X57535796Y-82649500D01*
X57468757Y-82629815D01*
X57423002Y-82577011D01*
X57413058Y-82507853D01*
X57442083Y-82444297D01*
X57500861Y-82406523D01*
X57508204Y-82404609D01*
X57542228Y-82396843D01*
X57581954Y-82387776D01*
X57900051Y-82276469D01*
X58203686Y-82130246D01*
X58489039Y-81950946D01*
X58752523Y-81740825D01*
X58990825Y-81502523D01*
X59200946Y-81239039D01*
X59380246Y-80953686D01*
X59526469Y-80650051D01*
X59637776Y-80331954D01*
X59712767Y-80003394D01*
X59750500Y-79668504D01*
X59750500Y-79331496D01*
X59712767Y-78996606D01*
X59637776Y-78668046D01*
X59631861Y-78651143D01*
X59600591Y-78561777D01*
X59526469Y-78349949D01*
X59380246Y-78046314D01*
X59200946Y-77760961D01*
X58990825Y-77497477D01*
X58752523Y-77259175D01*
X58715873Y-77229948D01*
X58656798Y-77182837D01*
X58489039Y-77049054D01*
X58203686Y-76869754D01*
X58203683Y-76869752D01*
X57900054Y-76723532D01*
X57581965Y-76612227D01*
X57581953Y-76612223D01*
X57253397Y-76537233D01*
X57253381Y-76537231D01*
X56918508Y-76499500D01*
X56918504Y-76499500D01*
X56581496Y-76499500D01*
X56581491Y-76499500D01*
X56246618Y-76537231D01*
X56246602Y-76537233D01*
X55918046Y-76612223D01*
X55918034Y-76612227D01*
X55599945Y-76723532D01*
X55296316Y-76869752D01*
X55010962Y-77049053D01*
X54747477Y-77259174D01*
X54509174Y-77497477D01*
X54299053Y-77760962D01*
X54119752Y-78046316D01*
X53973532Y-78349945D01*
X53862227Y-78668034D01*
X53862223Y-78668046D01*
X53787233Y-78996602D01*
X53787231Y-78996618D01*
X53749500Y-79331491D01*
X53749500Y-79668508D01*
X53787231Y-80003381D01*
X53787233Y-80003397D01*
X53862223Y-80331953D01*
X53862227Y-80331965D01*
X53973532Y-80650054D01*
X54119752Y-80953683D01*
X54152029Y-81005051D01*
X54299054Y-81239039D01*
X54509175Y-81502523D01*
X54747477Y-81740825D01*
X55010961Y-81950946D01*
X55296314Y-82130246D01*
X55599949Y-82276469D01*
X55838848Y-82360063D01*
X55918034Y-82387772D01*
X55918046Y-82387776D01*
X55991796Y-82404609D01*
X56052775Y-82438717D01*
X56085633Y-82500379D01*
X56079938Y-82570016D01*
X56037498Y-82625520D01*
X55971788Y-82649268D01*
X55964204Y-82649500D01*
X17535796Y-82649500D01*
X17468757Y-82629815D01*
X17423002Y-82577011D01*
X17413058Y-82507853D01*
X17442083Y-82444297D01*
X17500861Y-82406523D01*
X17508204Y-82404609D01*
X17542228Y-82396843D01*
X17581954Y-82387776D01*
X17900051Y-82276469D01*
X18203686Y-82130246D01*
X18489039Y-81950946D01*
X18752523Y-81740825D01*
X18990825Y-81502523D01*
X19200946Y-81239039D01*
X19380246Y-80953686D01*
X19526469Y-80650051D01*
X19637776Y-80331954D01*
X19712767Y-80003394D01*
X19750500Y-79668504D01*
X19750500Y-79331496D01*
X19712767Y-78996606D01*
X19637776Y-78668046D01*
X19631861Y-78651143D01*
X19600591Y-78561777D01*
X19526469Y-78349949D01*
X19380246Y-78046314D01*
X19200946Y-77760961D01*
X18990825Y-77497477D01*
X18752523Y-77259175D01*
X18715873Y-77229948D01*
X18656798Y-77182837D01*
X18489039Y-77049054D01*
X18203686Y-76869754D01*
X18203683Y-76869752D01*
X17900054Y-76723532D01*
X17581965Y-76612227D01*
X17581953Y-76612223D01*
X17253397Y-76537233D01*
X17253381Y-76537231D01*
X16918508Y-76499500D01*
X16918504Y-76499500D01*
X16581496Y-76499500D01*
X16581491Y-76499500D01*
X16246618Y-76537231D01*
X16246602Y-76537233D01*
X15918046Y-76612223D01*
X15918034Y-76612227D01*
X15599945Y-76723532D01*
X15296316Y-76869752D01*
X15010962Y-77049053D01*
X14747477Y-77259174D01*
X14509174Y-77497477D01*
X14299053Y-77760962D01*
X14228994Y-77872460D01*
X14176659Y-77918751D01*
X14107605Y-77929399D01*
X14043757Y-77901024D01*
X14005385Y-77842634D01*
X14000000Y-77806488D01*
X14000000Y-75094088D01*
X14019685Y-75027049D01*
X14072489Y-74981294D01*
X14141647Y-74971350D01*
X14199485Y-74995711D01*
X14253226Y-75036948D01*
X14446274Y-75148405D01*
X14652219Y-75233710D01*
X14867537Y-75291404D01*
X15088543Y-75320500D01*
X15088550Y-75320500D01*
X15311450Y-75320500D01*
X15311457Y-75320500D01*
X15532463Y-75291404D01*
X15747781Y-75233710D01*
X15953726Y-75148405D01*
X16146774Y-75036948D01*
X16323624Y-74901247D01*
X16481247Y-74743624D01*
X16616948Y-74566774D01*
X16728405Y-74373726D01*
X16813710Y-74167781D01*
X16871404Y-73952463D01*
X16900500Y-73731457D01*
X16900500Y-73508543D01*
X16871404Y-73287537D01*
X16813710Y-73072219D01*
X16801168Y-73041941D01*
X16728406Y-72866277D01*
X16728405Y-72866274D01*
X16616948Y-72673226D01*
X16577867Y-72622294D01*
X16481248Y-72496377D01*
X16481242Y-72496370D01*
X16323629Y-72338757D01*
X16323622Y-72338751D01*
X16146782Y-72203058D01*
X16146780Y-72203057D01*
X16146774Y-72203052D01*
X15953726Y-72091595D01*
X15953722Y-72091593D01*
X15747790Y-72006293D01*
X15747783Y-72006291D01*
X15747781Y-72006290D01*
X15532463Y-71948596D01*
X15532457Y-71948595D01*
X15532452Y-71948594D01*
X15311466Y-71919501D01*
X15311463Y-71919500D01*
X15311457Y-71919500D01*
X15088543Y-71919500D01*
X15088537Y-71919500D01*
X15088533Y-71919501D01*
X14867547Y-71948594D01*
X14867540Y-71948595D01*
X14867537Y-71948596D01*
X14652219Y-72006290D01*
X14652209Y-72006293D01*
X14446277Y-72091593D01*
X14446273Y-72091595D01*
X14253226Y-72203052D01*
X14253219Y-72203057D01*
X14199485Y-72244288D01*
X14134316Y-72269481D01*
X14065871Y-72255442D01*
X14015882Y-72206628D01*
X14000000Y-72145911D01*
X14000000Y-62639961D01*
X14019685Y-62572922D01*
X14072489Y-62527167D01*
X14141647Y-62517223D01*
X14205203Y-62546248D01*
G37*
%TD.AperFunction*%
%TA.AperFunction,Conductor*%
G36*
X48054075Y-78577993D02*
G01*
X48119901Y-78692007D01*
X48212993Y-78785099D01*
X48327007Y-78850925D01*
X48390590Y-78867962D01*
X47758282Y-79500269D01*
X47758282Y-79500270D01*
X47812452Y-79539626D01*
X47812451Y-79539626D01*
X47821495Y-79544234D01*
X47872292Y-79592208D01*
X47889087Y-79660029D01*
X47866550Y-79726164D01*
X47821499Y-79765202D01*
X47812182Y-79769949D01*
X47640213Y-79894890D01*
X47489890Y-80045213D01*
X47364949Y-80217182D01*
X47360484Y-80225946D01*
X47312509Y-80276742D01*
X47244688Y-80293536D01*
X47178553Y-80270998D01*
X47139516Y-80225946D01*
X47135050Y-80217182D01*
X47010109Y-80045213D01*
X46859786Y-79894890D01*
X46687820Y-79769951D01*
X46687115Y-79769591D01*
X46679054Y-79765485D01*
X46628259Y-79717512D01*
X46611463Y-79649692D01*
X46633999Y-79583556D01*
X46679054Y-79544515D01*
X46687816Y-79540051D01*
X46777554Y-79474853D01*
X46859786Y-79415109D01*
X46859788Y-79415106D01*
X46859792Y-79415104D01*
X47010104Y-79264792D01*
X47010106Y-79264788D01*
X47010109Y-79264786D01*
X47077515Y-79172007D01*
X47135051Y-79092816D01*
X47139793Y-79083508D01*
X47187763Y-79032711D01*
X47255583Y-79015911D01*
X47321719Y-79038445D01*
X47360763Y-79083500D01*
X47365373Y-79092547D01*
X47404728Y-79146716D01*
X48037037Y-78514408D01*
X48054075Y-78577993D01*
G37*
%TD.AperFunction*%
%TA.AperFunction,Conductor*%
G36*
X22744729Y-39120185D02*
G01*
X22765371Y-39136819D01*
X23125000Y-39496446D01*
X23125001Y-39496446D01*
X23484628Y-39136819D01*
X23545951Y-39103334D01*
X23572309Y-39100500D01*
X23952690Y-39100500D01*
X24019729Y-39120185D01*
X24040371Y-39136819D01*
X24400000Y-39496446D01*
X24400001Y-39496446D01*
X24759628Y-39136819D01*
X24820951Y-39103334D01*
X24847309Y-39100500D01*
X25227690Y-39100500D01*
X25294729Y-39120185D01*
X25315371Y-39136819D01*
X25675000Y-39496446D01*
X25675001Y-39496446D01*
X26034628Y-39136819D01*
X26095951Y-39103334D01*
X26122309Y-39100500D01*
X27199903Y-39100500D01*
X27266942Y-39120185D01*
X27287583Y-39136818D01*
X28131284Y-39980520D01*
X28131286Y-39980521D01*
X28131290Y-39980524D01*
X28208326Y-40025000D01*
X28268216Y-40059577D01*
X28420943Y-40100501D01*
X28420945Y-40100501D01*
X28586654Y-40100501D01*
X28586670Y-40100500D01*
X36474234Y-40100500D01*
X36541273Y-40120185D01*
X36543125Y-40121398D01*
X36674814Y-40209390D01*
X36674827Y-40209397D01*
X36812683Y-40266498D01*
X36820503Y-40269737D01*
X36891283Y-40283816D01*
X36974663Y-40300402D01*
X37036574Y-40332787D01*
X37071148Y-40393503D01*
X37074472Y-40422019D01*
X37074472Y-43474930D01*
X37054787Y-43541969D01*
X37038153Y-43562611D01*
X36069481Y-44531282D01*
X36069479Y-44531285D01*
X36050451Y-44564243D01*
X36031422Y-44597203D01*
X35990423Y-44668215D01*
X35949499Y-44820943D01*
X35949499Y-44820945D01*
X35949499Y-44989046D01*
X35949500Y-44989059D01*
X35949500Y-52195396D01*
X35940062Y-52242844D01*
X35930265Y-52266498D01*
X35930262Y-52266506D01*
X35930260Y-52266511D01*
X35899500Y-52421153D01*
X35899500Y-52578846D01*
X35930261Y-52733489D01*
X35930264Y-52733501D01*
X35990602Y-52879172D01*
X35990609Y-52879185D01*
X36078210Y-53010288D01*
X36078213Y-53010292D01*
X36189707Y-53121786D01*
X36189711Y-53121789D01*
X36320814Y-53209390D01*
X36320827Y-53209397D01*
X36466498Y-53269735D01*
X36466503Y-53269737D01*
X36569699Y-53290264D01*
X36621153Y-53300499D01*
X36621156Y-53300500D01*
X36621158Y-53300500D01*
X36778844Y-53300500D01*
X36778845Y-53300499D01*
X36933497Y-53269737D01*
X37079179Y-53209394D01*
X37210289Y-53121789D01*
X37321789Y-53010289D01*
X37409394Y-52879179D01*
X37469737Y-52733497D01*
X37500500Y-52578842D01*
X37500500Y-52421158D01*
X37500500Y-52421155D01*
X37500499Y-52421153D01*
X37491451Y-52375666D01*
X37469737Y-52266503D01*
X37469735Y-52266498D01*
X37409397Y-52120827D01*
X37409390Y-52120814D01*
X37321789Y-51989711D01*
X37321786Y-51989707D01*
X37210292Y-51878213D01*
X37210284Y-51878207D01*
X37205605Y-51875080D01*
X37160802Y-51821466D01*
X37150500Y-51771981D01*
X37150500Y-45200097D01*
X37170185Y-45133058D01*
X37186819Y-45112416D01*
X37646728Y-44652507D01*
X38155492Y-44143744D01*
X38234549Y-44006812D01*
X38268358Y-43880634D01*
X38304724Y-43820976D01*
X38367571Y-43790447D01*
X38436946Y-43798742D01*
X38475814Y-43825049D01*
X41048689Y-46397924D01*
X41048699Y-46397935D01*
X41053029Y-46402265D01*
X41053030Y-46402266D01*
X41164834Y-46514070D01*
X41251645Y-46564189D01*
X41251647Y-46564191D01*
X41301432Y-46592935D01*
X41301765Y-46593127D01*
X41454492Y-46634050D01*
X41454493Y-46634050D01*
X46902044Y-46634050D01*
X46969083Y-46653735D01*
X47014838Y-46706539D01*
X47023661Y-46733859D01*
X47030261Y-46767039D01*
X47030264Y-46767051D01*
X47090602Y-46912722D01*
X47090609Y-46912735D01*
X47178210Y-47043838D01*
X47178213Y-47043842D01*
X47289707Y-47155336D01*
X47289711Y-47155339D01*
X47420814Y-47242940D01*
X47420827Y-47242947D01*
X47508230Y-47279149D01*
X47566503Y-47303287D01*
X47638899Y-47317687D01*
X47700807Y-47350069D01*
X47702387Y-47351622D01*
X48065139Y-47714374D01*
X48065149Y-47714385D01*
X48069479Y-47718715D01*
X48069480Y-47718716D01*
X48181284Y-47830520D01*
X48254795Y-47872961D01*
X48318215Y-47909577D01*
X48470943Y-47950501D01*
X48470946Y-47950501D01*
X48636653Y-47950501D01*
X48636669Y-47950500D01*
X51570234Y-47950500D01*
X51637273Y-47970185D01*
X51639125Y-47971398D01*
X51770814Y-48059390D01*
X51770827Y-48059397D01*
X51916498Y-48119735D01*
X51916503Y-48119737D01*
X52071153Y-48150499D01*
X52071156Y-48150500D01*
X52071158Y-48150500D01*
X52228844Y-48150500D01*
X52228845Y-48150499D01*
X52383497Y-48119737D01*
X52529179Y-48059394D01*
X52660289Y-47971789D01*
X52660290Y-47971787D01*
X52662695Y-47970181D01*
X52729372Y-47949303D01*
X52796752Y-47967787D01*
X52819267Y-47985602D01*
X53613181Y-48779516D01*
X53646666Y-48840839D01*
X53649500Y-48867197D01*
X53649500Y-60734155D01*
X53629815Y-60801194D01*
X53577011Y-60846949D01*
X53507853Y-60856893D01*
X53478048Y-60848716D01*
X53433501Y-60830264D01*
X53433489Y-60830261D01*
X53278845Y-60799500D01*
X53278842Y-60799500D01*
X53121158Y-60799500D01*
X53121155Y-60799500D01*
X52966510Y-60830261D01*
X52966498Y-60830264D01*
X52820827Y-60890602D01*
X52820814Y-60890609D01*
X52689711Y-60978210D01*
X52689707Y-60978213D01*
X52578213Y-61089707D01*
X52578210Y-61089711D01*
X52490609Y-61220814D01*
X52490602Y-61220827D01*
X52430264Y-61366498D01*
X52430261Y-61366510D01*
X52399500Y-61521153D01*
X52399500Y-61678846D01*
X52430261Y-61833489D01*
X52430264Y-61833501D01*
X52490602Y-61979172D01*
X52490609Y-61979185D01*
X52578602Y-62110874D01*
X52599480Y-62177551D01*
X52599500Y-62179765D01*
X52599500Y-63320234D01*
X52579815Y-63387273D01*
X52578602Y-63389125D01*
X52490609Y-63520814D01*
X52490602Y-63520827D01*
X52430264Y-63666498D01*
X52430261Y-63666510D01*
X52399500Y-63821153D01*
X52399500Y-63978846D01*
X52430261Y-64133489D01*
X52430264Y-64133501D01*
X52490602Y-64279172D01*
X52490609Y-64279185D01*
X52578210Y-64410288D01*
X52578213Y-64410292D01*
X52689707Y-64521786D01*
X52689711Y-64521789D01*
X52820814Y-64609390D01*
X52820827Y-64609397D01*
X52966498Y-64669735D01*
X52966503Y-64669737D01*
X53063646Y-64689060D01*
X53121153Y-64700499D01*
X53121156Y-64700500D01*
X53121158Y-64700500D01*
X53278844Y-64700500D01*
X53278845Y-64700499D01*
X53433497Y-64669737D01*
X53478050Y-64651282D01*
X53547515Y-64643814D01*
X53609995Y-64675088D01*
X53645648Y-64735177D01*
X53649500Y-64765844D01*
X53649500Y-68047080D01*
X53649499Y-68047098D01*
X53649499Y-68212804D01*
X53649498Y-68212804D01*
X53690424Y-68365539D01*
X53690425Y-68365540D01*
X53715661Y-68409249D01*
X53715662Y-68409251D01*
X53769475Y-68502459D01*
X53769481Y-68502467D01*
X53888349Y-68621335D01*
X53888355Y-68621340D01*
X54621897Y-69354882D01*
X54655382Y-69416205D01*
X54652147Y-69480879D01*
X54642632Y-69510164D01*
X54607753Y-69617510D01*
X54574500Y-69827463D01*
X54574500Y-70040036D01*
X54598205Y-70189707D01*
X54607754Y-70249993D01*
X54630769Y-70320827D01*
X54673444Y-70452164D01*
X54769951Y-70641570D01*
X54894890Y-70813536D01*
X55033705Y-70952351D01*
X55067190Y-71013674D01*
X55062206Y-71083366D01*
X55020334Y-71139299D01*
X55011121Y-71145571D01*
X54856342Y-71241039D01*
X54732289Y-71365092D01*
X54640187Y-71514413D01*
X54640186Y-71514416D01*
X54585001Y-71680953D01*
X54585001Y-71680954D01*
X54585000Y-71680954D01*
X54574500Y-71783733D01*
X54574500Y-73083751D01*
X54574501Y-73083768D01*
X54585000Y-73186546D01*
X54585001Y-73186549D01*
X54640185Y-73353081D01*
X54640187Y-73353086D01*
X54732289Y-73502407D01*
X54825141Y-73595259D01*
X54858626Y-73656582D01*
X54853642Y-73726274D01*
X54825141Y-73770621D01*
X50081681Y-78514082D01*
X50020358Y-78547567D01*
X49950666Y-78542583D01*
X49894733Y-78500711D01*
X49870316Y-78435247D01*
X49870000Y-78426401D01*
X49870000Y-78278753D01*
X49836757Y-78068872D01*
X49836757Y-78068869D01*
X49771095Y-77866782D01*
X49674624Y-77677449D01*
X49635270Y-77623282D01*
X49635269Y-77623282D01*
X49002962Y-78255590D01*
X48985925Y-78192007D01*
X48920099Y-78077993D01*
X48827007Y-77984901D01*
X48712993Y-77919075D01*
X48649409Y-77902037D01*
X49281716Y-77269728D01*
X49227550Y-77230375D01*
X49038217Y-77133904D01*
X48836129Y-77068242D01*
X48626246Y-77035000D01*
X48413754Y-77035000D01*
X48203872Y-77068242D01*
X48203869Y-77068242D01*
X48001782Y-77133904D01*
X47812439Y-77230380D01*
X47758282Y-77269727D01*
X47758282Y-77269728D01*
X48390591Y-77902037D01*
X48327007Y-77919075D01*
X48212993Y-77984901D01*
X48119901Y-78077993D01*
X48054075Y-78192007D01*
X48037037Y-78255591D01*
X47404728Y-77623282D01*
X47404727Y-77623282D01*
X47365380Y-77677440D01*
X47365376Y-77677446D01*
X47360760Y-77686505D01*
X47312781Y-77737297D01*
X47244959Y-77754087D01*
X47178826Y-77731543D01*
X47139794Y-77686493D01*
X47135051Y-77677184D01*
X47135049Y-77677181D01*
X47135048Y-77677179D01*
X47010109Y-77505213D01*
X46859786Y-77354890D01*
X46687818Y-77229950D01*
X46498414Y-77133444D01*
X46498413Y-77133443D01*
X46498412Y-77133443D01*
X46296243Y-77067754D01*
X46296241Y-77067753D01*
X46296240Y-77067753D01*
X46134957Y-77042208D01*
X46086287Y-77034500D01*
X45873713Y-77034500D01*
X45825042Y-77042208D01*
X45663760Y-77067753D01*
X45461585Y-77133444D01*
X45272182Y-77229950D01*
X45100213Y-77354890D01*
X44949890Y-77505213D01*
X44824949Y-77677182D01*
X44820484Y-77685946D01*
X44772509Y-77736742D01*
X44704688Y-77753536D01*
X44638553Y-77730998D01*
X44599516Y-77685946D01*
X44595050Y-77677182D01*
X44470109Y-77505213D01*
X44319786Y-77354890D01*
X44147818Y-77229950D01*
X43958414Y-77133444D01*
X43958413Y-77133443D01*
X43958412Y-77133443D01*
X43756243Y-77067754D01*
X43756241Y-77067753D01*
X43756240Y-77067753D01*
X43594957Y-77042208D01*
X43546287Y-77034500D01*
X43333713Y-77034500D01*
X43285042Y-77042208D01*
X43123760Y-77067753D01*
X42921585Y-77133444D01*
X42732182Y-77229950D01*
X42560213Y-77354890D01*
X42409890Y-77505213D01*
X42284949Y-77677182D01*
X42280484Y-77685946D01*
X42232509Y-77736742D01*
X42164688Y-77753536D01*
X42098553Y-77730998D01*
X42059516Y-77685946D01*
X42055050Y-77677182D01*
X41930109Y-77505213D01*
X41779786Y-77354890D01*
X41607818Y-77229950D01*
X41418414Y-77133444D01*
X41418413Y-77133443D01*
X41418412Y-77133443D01*
X41216243Y-77067754D01*
X41216241Y-77067753D01*
X41216240Y-77067753D01*
X41054957Y-77042208D01*
X41006287Y-77034500D01*
X40793713Y-77034500D01*
X40745042Y-77042208D01*
X40583760Y-77067753D01*
X40381585Y-77133444D01*
X40192182Y-77229950D01*
X40020213Y-77354890D01*
X39869890Y-77505213D01*
X39744949Y-77677182D01*
X39740484Y-77685946D01*
X39692509Y-77736742D01*
X39624688Y-77753536D01*
X39558553Y-77730998D01*
X39519516Y-77685946D01*
X39515050Y-77677182D01*
X39390109Y-77505213D01*
X39239786Y-77354890D01*
X39067818Y-77229950D01*
X38878414Y-77133444D01*
X38878413Y-77133443D01*
X38878412Y-77133443D01*
X38676243Y-77067754D01*
X38676241Y-77067753D01*
X38676240Y-77067753D01*
X38514957Y-77042208D01*
X38466287Y-77034500D01*
X38253713Y-77034500D01*
X38205042Y-77042208D01*
X38043760Y-77067753D01*
X37841585Y-77133444D01*
X37652182Y-77229950D01*
X37480213Y-77354890D01*
X37329890Y-77505213D01*
X37204949Y-77677182D01*
X37200484Y-77685946D01*
X37152509Y-77736742D01*
X37084688Y-77753536D01*
X37018553Y-77730998D01*
X36979516Y-77685946D01*
X36975050Y-77677182D01*
X36850109Y-77505213D01*
X36699786Y-77354890D01*
X36527818Y-77229950D01*
X36338414Y-77133444D01*
X36338413Y-77133443D01*
X36338412Y-77133443D01*
X36136243Y-77067754D01*
X36136241Y-77067753D01*
X36136240Y-77067753D01*
X35974957Y-77042208D01*
X35926287Y-77034500D01*
X35713713Y-77034500D01*
X35685006Y-77039046D01*
X35503757Y-77067753D01*
X35461473Y-77081492D01*
X35391632Y-77083486D01*
X35335476Y-77051241D01*
X35026819Y-76742584D01*
X34993334Y-76681261D01*
X34990500Y-76654903D01*
X34990500Y-60569765D01*
X35010185Y-60502726D01*
X35011398Y-60500874D01*
X35099390Y-60369185D01*
X35099390Y-60369184D01*
X35099394Y-60369179D01*
X35159737Y-60223497D01*
X35190500Y-60068842D01*
X35190500Y-59911158D01*
X35190500Y-59911155D01*
X35190499Y-59911153D01*
X35167699Y-59796530D01*
X35159737Y-59756503D01*
X35155368Y-59745956D01*
X35099397Y-59610827D01*
X35099390Y-59610814D01*
X35011398Y-59479125D01*
X34990520Y-59412447D01*
X34990500Y-59410234D01*
X34990500Y-47977451D01*
X35010185Y-47910412D01*
X35062989Y-47864657D01*
X35067048Y-47862890D01*
X35188408Y-47812621D01*
X35188408Y-47812620D01*
X35188415Y-47812618D01*
X35319525Y-47725013D01*
X35431025Y-47613513D01*
X35518630Y-47482403D01*
X35578973Y-47336721D01*
X35609736Y-47182066D01*
X35609736Y-47024382D01*
X35609736Y-47024379D01*
X35609735Y-47024377D01*
X35599814Y-46974500D01*
X35578973Y-46869727D01*
X35561699Y-46828024D01*
X35518633Y-46724051D01*
X35518626Y-46724038D01*
X35431025Y-46592935D01*
X35431022Y-46592931D01*
X35319528Y-46481437D01*
X35319524Y-46481434D01*
X35188421Y-46393833D01*
X35188408Y-46393826D01*
X35042737Y-46333488D01*
X35042725Y-46333485D01*
X34888081Y-46302724D01*
X34888078Y-46302724D01*
X34730394Y-46302724D01*
X34730391Y-46302724D01*
X34575746Y-46333485D01*
X34575734Y-46333488D01*
X34430063Y-46393826D01*
X34430050Y-46393833D01*
X34298947Y-46481434D01*
X34298943Y-46481437D01*
X34187449Y-46592931D01*
X34187446Y-46592935D01*
X34099845Y-46724038D01*
X34099838Y-46724051D01*
X34039500Y-46869722D01*
X34039497Y-46869732D01*
X34016658Y-46984551D01*
X33984273Y-47046462D01*
X33982722Y-47048040D01*
X33392181Y-47638582D01*
X33330858Y-47672067D01*
X33261167Y-47667083D01*
X33205233Y-47625212D01*
X33180816Y-47559747D01*
X33180500Y-47550901D01*
X33180500Y-45740097D01*
X33200185Y-45673058D01*
X33216819Y-45652416D01*
X33771416Y-45097819D01*
X33798343Y-45083115D01*
X33824162Y-45066523D01*
X33830362Y-45065631D01*
X33832739Y-45064334D01*
X33859097Y-45061500D01*
X33983491Y-45061500D01*
X33983507Y-45061501D01*
X33991103Y-45061501D01*
X34149214Y-45061501D01*
X34149217Y-45061501D01*
X34301945Y-45020577D01*
X34373859Y-44979057D01*
X34438876Y-44941520D01*
X34550680Y-44829716D01*
X34550680Y-44829714D01*
X34560884Y-44819511D01*
X34560888Y-44819506D01*
X34744506Y-44635888D01*
X34744511Y-44635884D01*
X34754714Y-44625680D01*
X34754716Y-44625680D01*
X34866520Y-44513876D01*
X34936896Y-44391980D01*
X34945577Y-44376945D01*
X34986500Y-44224218D01*
X34986500Y-44066103D01*
X34986500Y-42695783D01*
X34977114Y-42660752D01*
X34945577Y-42543055D01*
X34909747Y-42480996D01*
X34866520Y-42406124D01*
X34754716Y-42294320D01*
X34754715Y-42294319D01*
X34750385Y-42289989D01*
X34750374Y-42289979D01*
X34557750Y-42097355D01*
X34557748Y-42097352D01*
X34438877Y-41978481D01*
X34438876Y-41978480D01*
X34343860Y-41923623D01*
X34301945Y-41899423D01*
X34149217Y-41858499D01*
X33991103Y-41858499D01*
X33983507Y-41858499D01*
X33983491Y-41858500D01*
X29541510Y-41858500D01*
X29541494Y-41858499D01*
X29533898Y-41858499D01*
X29375783Y-41858499D01*
X29323461Y-41872519D01*
X29223054Y-41899423D01*
X29223049Y-41899426D01*
X29086130Y-41978475D01*
X29086122Y-41978481D01*
X28746012Y-42318590D01*
X28684689Y-42352075D01*
X28619328Y-42348615D01*
X28502799Y-42310001D01*
X28502795Y-42310000D01*
X28400010Y-42299500D01*
X27774998Y-42299500D01*
X27774980Y-42299501D01*
X27672203Y-42310000D01*
X27672200Y-42310001D01*
X27505668Y-42365185D01*
X27505663Y-42365187D01*
X27356342Y-42457289D01*
X27232289Y-42581342D01*
X27140187Y-42730663D01*
X27140185Y-42730668D01*
X27127324Y-42769480D01*
X27085001Y-42897203D01*
X27085001Y-42897204D01*
X27085000Y-42897204D01*
X27074500Y-42999983D01*
X27074500Y-43025500D01*
X27054815Y-43092539D01*
X27002011Y-43138294D01*
X26950500Y-43149500D01*
X26122309Y-43149500D01*
X26055270Y-43129815D01*
X26034628Y-43113181D01*
X25675001Y-42753553D01*
X25675000Y-42753553D01*
X25315370Y-43113181D01*
X25254047Y-43146666D01*
X25227689Y-43149500D01*
X24847309Y-43149500D01*
X24780270Y-43129815D01*
X24759628Y-43113181D01*
X24400001Y-42753553D01*
X24400000Y-42753553D01*
X24040370Y-43113181D01*
X23979047Y-43146666D01*
X23952689Y-43149500D01*
X23572309Y-43149500D01*
X23505270Y-43129815D01*
X23484628Y-43113181D01*
X23125001Y-42753553D01*
X23125000Y-42753553D01*
X22765370Y-43113181D01*
X22704047Y-43146666D01*
X22677689Y-43149500D01*
X20170516Y-43149500D01*
X20103477Y-43129815D01*
X20057722Y-43077011D01*
X20047778Y-43007853D01*
X20076803Y-42944297D01*
X20082835Y-42937819D01*
X20289991Y-42730663D01*
X20699453Y-42321202D01*
X22325000Y-42321202D01*
X22325000Y-42478797D01*
X22355741Y-42633343D01*
X22355743Y-42633351D01*
X22409153Y-42762293D01*
X22771446Y-42400001D01*
X22771446Y-42399999D01*
X22736637Y-42365190D01*
X22950000Y-42365190D01*
X22950000Y-42434810D01*
X22976643Y-42499129D01*
X23025871Y-42548357D01*
X23090190Y-42575000D01*
X23159810Y-42575000D01*
X23224129Y-42548357D01*
X23273357Y-42499129D01*
X23300000Y-42434810D01*
X23300000Y-42400000D01*
X23478553Y-42400000D01*
X23762500Y-42683946D01*
X23762501Y-42683946D01*
X24046446Y-42400001D01*
X24046446Y-42399999D01*
X24011637Y-42365190D01*
X24225000Y-42365190D01*
X24225000Y-42434810D01*
X24251643Y-42499129D01*
X24300871Y-42548357D01*
X24365190Y-42575000D01*
X24434810Y-42575000D01*
X24499129Y-42548357D01*
X24548357Y-42499129D01*
X24575000Y-42434810D01*
X24575000Y-42400000D01*
X24753553Y-42400000D01*
X25037500Y-42683946D01*
X25037501Y-42683946D01*
X25321446Y-42400001D01*
X25321446Y-42399999D01*
X25286637Y-42365190D01*
X25500000Y-42365190D01*
X25500000Y-42434810D01*
X25526643Y-42499129D01*
X25575871Y-42548357D01*
X25640190Y-42575000D01*
X25709810Y-42575000D01*
X25774129Y-42548357D01*
X25823357Y-42499129D01*
X25850000Y-42434810D01*
X25850000Y-42399999D01*
X26028553Y-42399999D01*
X26028553Y-42400001D01*
X26390845Y-42762293D01*
X26444257Y-42633347D01*
X26444258Y-42633343D01*
X26474999Y-42478797D01*
X26475000Y-42478794D01*
X26475000Y-42321206D01*
X26474999Y-42321202D01*
X26444258Y-42166656D01*
X26444257Y-42166652D01*
X26390845Y-42037706D01*
X26028553Y-42399999D01*
X25850000Y-42399999D01*
X25850000Y-42365190D01*
X25823357Y-42300871D01*
X25774129Y-42251643D01*
X25709810Y-42225000D01*
X25640190Y-42225000D01*
X25575871Y-42251643D01*
X25526643Y-42300871D01*
X25500000Y-42365190D01*
X25286637Y-42365190D01*
X25037501Y-42116053D01*
X25037500Y-42116053D01*
X24753553Y-42400000D01*
X24575000Y-42400000D01*
X24575000Y-42365190D01*
X24548357Y-42300871D01*
X24499129Y-42251643D01*
X24434810Y-42225000D01*
X24365190Y-42225000D01*
X24300871Y-42251643D01*
X24251643Y-42300871D01*
X24225000Y-42365190D01*
X24011637Y-42365190D01*
X23762501Y-42116053D01*
X23762500Y-42116053D01*
X23478553Y-42400000D01*
X23300000Y-42400000D01*
X23300000Y-42365190D01*
X23273357Y-42300871D01*
X23224129Y-42251643D01*
X23159810Y-42225000D01*
X23090190Y-42225000D01*
X23025871Y-42251643D01*
X22976643Y-42300871D01*
X22950000Y-42365190D01*
X22736637Y-42365190D01*
X22409153Y-42037705D01*
X22355743Y-42166648D01*
X22355741Y-42166656D01*
X22325000Y-42321202D01*
X20699453Y-42321202D01*
X20730520Y-42290135D01*
X20737140Y-42278667D01*
X20751894Y-42253115D01*
X20782615Y-42199903D01*
X20809577Y-42153203D01*
X20850501Y-42000476D01*
X20850501Y-41842361D01*
X20850501Y-41834766D01*
X20850500Y-41834748D01*
X20850500Y-41762500D01*
X22841053Y-41762500D01*
X23125000Y-42046446D01*
X23125001Y-42046446D01*
X23408946Y-41762501D01*
X23408946Y-41762500D01*
X24116053Y-41762500D01*
X24400000Y-42046446D01*
X24400001Y-42046446D01*
X24683946Y-41762501D01*
X24683946Y-41762500D01*
X25391053Y-41762500D01*
X25675000Y-42046446D01*
X25675001Y-42046446D01*
X25958946Y-41762501D01*
X25958946Y-41762499D01*
X25675001Y-41478553D01*
X25675000Y-41478553D01*
X25391053Y-41762500D01*
X24683946Y-41762500D01*
X24683946Y-41762499D01*
X24400001Y-41478553D01*
X24400000Y-41478553D01*
X24116053Y-41762500D01*
X23408946Y-41762500D01*
X23408946Y-41762499D01*
X23125001Y-41478553D01*
X23125000Y-41478553D01*
X22841053Y-41762500D01*
X20850500Y-41762500D01*
X20850500Y-41046202D01*
X22325000Y-41046202D01*
X22325000Y-41203797D01*
X22355741Y-41358343D01*
X22355743Y-41358351D01*
X22409153Y-41487293D01*
X22771446Y-41125001D01*
X22771446Y-41124999D01*
X22736637Y-41090190D01*
X22950000Y-41090190D01*
X22950000Y-41159810D01*
X22976643Y-41224129D01*
X23025871Y-41273357D01*
X23090190Y-41300000D01*
X23159810Y-41300000D01*
X23224129Y-41273357D01*
X23273357Y-41224129D01*
X23300000Y-41159810D01*
X23300000Y-41125000D01*
X23478553Y-41125000D01*
X23762500Y-41408946D01*
X23762501Y-41408946D01*
X24046446Y-41125001D01*
X24046446Y-41124999D01*
X24011637Y-41090190D01*
X24225000Y-41090190D01*
X24225000Y-41159810D01*
X24251643Y-41224129D01*
X24300871Y-41273357D01*
X24365190Y-41300000D01*
X24434810Y-41300000D01*
X24499129Y-41273357D01*
X24548357Y-41224129D01*
X24575000Y-41159810D01*
X24575000Y-41125000D01*
X24753553Y-41125000D01*
X25037500Y-41408946D01*
X25037501Y-41408946D01*
X25321446Y-41125001D01*
X25321446Y-41124999D01*
X25286637Y-41090190D01*
X25500000Y-41090190D01*
X25500000Y-41159810D01*
X25526643Y-41224129D01*
X25575871Y-41273357D01*
X25640190Y-41300000D01*
X25709810Y-41300000D01*
X25774129Y-41273357D01*
X25823357Y-41224129D01*
X25850000Y-41159810D01*
X25850000Y-41124999D01*
X26028553Y-41124999D01*
X26028553Y-41125001D01*
X26390845Y-41487293D01*
X26444257Y-41358347D01*
X26444258Y-41358343D01*
X26474999Y-41203797D01*
X26475000Y-41203794D01*
X26475000Y-41046206D01*
X26474999Y-41046202D01*
X26444258Y-40891656D01*
X26444257Y-40891652D01*
X26390845Y-40762706D01*
X26028553Y-41124999D01*
X25850000Y-41124999D01*
X25850000Y-41090190D01*
X25823357Y-41025871D01*
X25774129Y-40976643D01*
X25709810Y-40950000D01*
X25640190Y-40950000D01*
X25575871Y-40976643D01*
X25526643Y-41025871D01*
X25500000Y-41090190D01*
X25286637Y-41090190D01*
X25037501Y-40841053D01*
X25037500Y-40841053D01*
X24753553Y-41125000D01*
X24575000Y-41125000D01*
X24575000Y-41090190D01*
X24548357Y-41025871D01*
X24499129Y-40976643D01*
X24434810Y-40950000D01*
X24365190Y-40950000D01*
X24300871Y-40976643D01*
X24251643Y-41025871D01*
X24225000Y-41090190D01*
X24011637Y-41090190D01*
X23762501Y-40841053D01*
X23762500Y-40841053D01*
X23478553Y-41125000D01*
X23300000Y-41125000D01*
X23300000Y-41090190D01*
X23273357Y-41025871D01*
X23224129Y-40976643D01*
X23159810Y-40950000D01*
X23090190Y-40950000D01*
X23025871Y-40976643D01*
X22976643Y-41025871D01*
X22950000Y-41090190D01*
X22736637Y-41090190D01*
X22409153Y-40762705D01*
X22355743Y-40891648D01*
X22355741Y-40891656D01*
X22325000Y-41046202D01*
X20850500Y-41046202D01*
X20850500Y-40487500D01*
X22841053Y-40487500D01*
X23125000Y-40771446D01*
X23125001Y-40771446D01*
X23408946Y-40487501D01*
X23408946Y-40487500D01*
X24116053Y-40487500D01*
X24400000Y-40771446D01*
X24400001Y-40771446D01*
X24683946Y-40487501D01*
X24683946Y-40487500D01*
X25391053Y-40487500D01*
X25675000Y-40771446D01*
X25675001Y-40771446D01*
X25958946Y-40487501D01*
X25958946Y-40487499D01*
X25675001Y-40203553D01*
X25675000Y-40203553D01*
X25391053Y-40487500D01*
X24683946Y-40487500D01*
X24683946Y-40487499D01*
X24400001Y-40203553D01*
X24400000Y-40203553D01*
X24116053Y-40487500D01*
X23408946Y-40487500D01*
X23408946Y-40487499D01*
X23125001Y-40203553D01*
X23125000Y-40203553D01*
X22841053Y-40487500D01*
X20850500Y-40487500D01*
X20850500Y-39771202D01*
X22325000Y-39771202D01*
X22325000Y-39928797D01*
X22355741Y-40083343D01*
X22355743Y-40083351D01*
X22409153Y-40212293D01*
X22771446Y-39850001D01*
X22771446Y-39849999D01*
X22736637Y-39815190D01*
X22950000Y-39815190D01*
X22950000Y-39884810D01*
X22976643Y-39949129D01*
X23025871Y-39998357D01*
X23090190Y-40025000D01*
X23159810Y-40025000D01*
X23224129Y-39998357D01*
X23273357Y-39949129D01*
X23300000Y-39884810D01*
X23300000Y-39850000D01*
X23478553Y-39850000D01*
X23762500Y-40133946D01*
X23762501Y-40133946D01*
X24046446Y-39850001D01*
X24046446Y-39849999D01*
X24011637Y-39815190D01*
X24225000Y-39815190D01*
X24225000Y-39884810D01*
X24251643Y-39949129D01*
X24300871Y-39998357D01*
X24365190Y-40025000D01*
X24434810Y-40025000D01*
X24499129Y-39998357D01*
X24548357Y-39949129D01*
X24575000Y-39884810D01*
X24575000Y-39850000D01*
X24753553Y-39850000D01*
X25037500Y-40133946D01*
X25037501Y-40133946D01*
X25321446Y-39850001D01*
X25321446Y-39849999D01*
X25286637Y-39815190D01*
X25500000Y-39815190D01*
X25500000Y-39884810D01*
X25526643Y-39949129D01*
X25575871Y-39998357D01*
X25640190Y-40025000D01*
X25709810Y-40025000D01*
X25774129Y-39998357D01*
X25823357Y-39949129D01*
X25850000Y-39884810D01*
X25850000Y-39849999D01*
X26028553Y-39849999D01*
X26028553Y-39850001D01*
X26390845Y-40212293D01*
X26444257Y-40083347D01*
X26444258Y-40083343D01*
X26474999Y-39928797D01*
X26475000Y-39928794D01*
X26475000Y-39771206D01*
X26474999Y-39771202D01*
X26444258Y-39616656D01*
X26444257Y-39616652D01*
X26390845Y-39487706D01*
X26028553Y-39849999D01*
X25850000Y-39849999D01*
X25850000Y-39815190D01*
X25823357Y-39750871D01*
X25774129Y-39701643D01*
X25709810Y-39675000D01*
X25640190Y-39675000D01*
X25575871Y-39701643D01*
X25526643Y-39750871D01*
X25500000Y-39815190D01*
X25286637Y-39815190D01*
X25037501Y-39566053D01*
X25037500Y-39566053D01*
X24753553Y-39850000D01*
X24575000Y-39850000D01*
X24575000Y-39815190D01*
X24548357Y-39750871D01*
X24499129Y-39701643D01*
X24434810Y-39675000D01*
X24365190Y-39675000D01*
X24300871Y-39701643D01*
X24251643Y-39750871D01*
X24225000Y-39815190D01*
X24011637Y-39815190D01*
X23762501Y-39566053D01*
X23762500Y-39566053D01*
X23478553Y-39850000D01*
X23300000Y-39850000D01*
X23300000Y-39815190D01*
X23273357Y-39750871D01*
X23224129Y-39701643D01*
X23159810Y-39675000D01*
X23090190Y-39675000D01*
X23025871Y-39701643D01*
X22976643Y-39750871D01*
X22950000Y-39815190D01*
X22736637Y-39815190D01*
X22409153Y-39487705D01*
X22355743Y-39616648D01*
X22355741Y-39616656D01*
X22325000Y-39771202D01*
X20850500Y-39771202D01*
X20850500Y-39550097D01*
X20870185Y-39483058D01*
X20886819Y-39462416D01*
X21212416Y-39136819D01*
X21273739Y-39103334D01*
X21300097Y-39100500D01*
X22677690Y-39100500D01*
X22744729Y-39120185D01*
G37*
%TD.AperFunction*%
%TA.AperFunction,Conductor*%
G36*
X19994201Y-49949633D02*
G01*
X20023643Y-49949283D01*
X20029036Y-49952439D01*
X20034503Y-49952880D01*
X20050058Y-49964744D01*
X20077809Y-49980987D01*
X20543181Y-50446359D01*
X20576666Y-50507682D01*
X20579500Y-50534040D01*
X20579500Y-51533330D01*
X20579499Y-51533348D01*
X20579499Y-51699054D01*
X20579498Y-51699054D01*
X20619971Y-51850097D01*
X20620423Y-51851785D01*
X20627425Y-51863913D01*
X20630640Y-51869481D01*
X20699477Y-51988712D01*
X20699481Y-51988717D01*
X20818349Y-52107585D01*
X20818355Y-52107590D01*
X21525139Y-52814374D01*
X21525149Y-52814385D01*
X21529479Y-52818715D01*
X21529480Y-52818716D01*
X21641284Y-52930520D01*
X21707442Y-52968716D01*
X21778215Y-53009577D01*
X21930942Y-53050500D01*
X21930943Y-53050500D01*
X23000501Y-53050500D01*
X23067540Y-53070185D01*
X23113295Y-53122989D01*
X23124501Y-53174500D01*
X23124501Y-53239363D01*
X23139953Y-53356753D01*
X23139957Y-53356765D01*
X23148566Y-53377550D01*
X23156033Y-53447019D01*
X23148566Y-53472450D01*
X23139957Y-53493234D01*
X23139955Y-53493239D01*
X23124500Y-53610638D01*
X23124500Y-53889363D01*
X23139953Y-54006753D01*
X23139956Y-54006762D01*
X23184102Y-54113341D01*
X23200464Y-54152841D01*
X23296718Y-54278282D01*
X23422159Y-54374536D01*
X23568238Y-54435044D01*
X23685639Y-54450500D01*
X25039360Y-54450499D01*
X25039363Y-54450499D01*
X25156753Y-54435046D01*
X25156757Y-54435044D01*
X25156762Y-54435044D01*
X25302841Y-54374536D01*
X25428282Y-54278282D01*
X25428284Y-54278279D01*
X25434729Y-54273334D01*
X25435575Y-54274436D01*
X25489295Y-54245097D01*
X25558987Y-54250075D01*
X25603345Y-54278580D01*
X25987181Y-54662416D01*
X26020666Y-54723739D01*
X26023500Y-54750097D01*
X26023500Y-57187330D01*
X26023499Y-57187348D01*
X26023499Y-57353054D01*
X26023498Y-57353054D01*
X26064423Y-57505785D01*
X26093358Y-57555900D01*
X26093359Y-57555904D01*
X26093360Y-57555904D01*
X26143479Y-57642714D01*
X26143481Y-57642717D01*
X26262349Y-57761585D01*
X26262355Y-57761590D01*
X26965139Y-58464374D01*
X26965149Y-58464385D01*
X26969479Y-58468715D01*
X26969480Y-58468716D01*
X27081284Y-58580520D01*
X27081286Y-58580521D01*
X27081290Y-58580524D01*
X27192027Y-58644457D01*
X27218216Y-58659577D01*
X27330019Y-58689534D01*
X27370942Y-58700500D01*
X27370943Y-58700500D01*
X30063331Y-58700500D01*
X30063347Y-58700501D01*
X30070943Y-58700501D01*
X30229054Y-58700501D01*
X30229057Y-58700501D01*
X30381785Y-58659577D01*
X30431904Y-58630639D01*
X30518716Y-58580520D01*
X30630520Y-58468716D01*
X30630520Y-58468714D01*
X30640728Y-58458507D01*
X30640730Y-58458504D01*
X31468713Y-57630521D01*
X31468716Y-57630520D01*
X31580520Y-57518716D01*
X31630639Y-57431904D01*
X31659577Y-57381785D01*
X31700501Y-57229057D01*
X31700501Y-57070943D01*
X31700501Y-57063348D01*
X31700500Y-57063330D01*
X31700500Y-54800097D01*
X31709143Y-54770662D01*
X31715666Y-54740673D01*
X31719422Y-54735654D01*
X31720185Y-54733058D01*
X31736817Y-54712418D01*
X31758502Y-54690732D01*
X31758507Y-54690729D01*
X31758507Y-54690728D01*
X31768714Y-54680520D01*
X31768716Y-54680520D01*
X31880520Y-54568716D01*
X31934519Y-54475186D01*
X31959577Y-54431785D01*
X32000500Y-54279057D01*
X32000500Y-54120943D01*
X32000500Y-53422837D01*
X32020185Y-53355798D01*
X32072989Y-53310043D01*
X32076986Y-53308302D01*
X32079179Y-53307394D01*
X32210289Y-53219789D01*
X32321789Y-53108289D01*
X32409394Y-52977179D01*
X32412900Y-52968716D01*
X32449984Y-52879185D01*
X32469737Y-52831497D01*
X32500500Y-52676842D01*
X32500500Y-52519158D01*
X32500500Y-52519155D01*
X32500499Y-52519153D01*
X32469738Y-52364510D01*
X32469737Y-52364503D01*
X32469735Y-52364498D01*
X32409397Y-52218827D01*
X32409390Y-52218814D01*
X32321789Y-52087711D01*
X32321786Y-52087707D01*
X32210292Y-51976213D01*
X32210288Y-51976210D01*
X32079185Y-51888609D01*
X32079172Y-51888602D01*
X31933501Y-51828264D01*
X31933489Y-51828261D01*
X31778845Y-51797500D01*
X31778842Y-51797500D01*
X31621158Y-51797500D01*
X31621155Y-51797500D01*
X31466510Y-51828261D01*
X31466498Y-51828264D01*
X31320827Y-51888602D01*
X31320814Y-51888609D01*
X31189711Y-51976210D01*
X31189707Y-51976213D01*
X31078213Y-52087707D01*
X31078210Y-52087711D01*
X30990609Y-52218814D01*
X30990602Y-52218827D01*
X30937519Y-52346984D01*
X30893678Y-52401388D01*
X30827384Y-52423453D01*
X30759685Y-52406174D01*
X30717419Y-52364629D01*
X30632315Y-52226654D01*
X30508345Y-52102684D01*
X30359124Y-52010643D01*
X30359121Y-52010642D01*
X30277448Y-51983578D01*
X30220004Y-51943805D01*
X30193181Y-51879289D01*
X30205496Y-51810513D01*
X30253040Y-51759313D01*
X30277450Y-51748166D01*
X30319117Y-51734359D01*
X30319124Y-51734356D01*
X30468345Y-51642315D01*
X30592315Y-51518345D01*
X30684356Y-51369124D01*
X30684358Y-51369119D01*
X30739505Y-51202697D01*
X30739506Y-51202690D01*
X30749999Y-51099986D01*
X30750000Y-51099973D01*
X30750000Y-50850000D01*
X29987500Y-50850000D01*
X29987500Y-51799999D01*
X30003681Y-51816180D01*
X30037166Y-51877503D01*
X30040000Y-51903861D01*
X30040000Y-54426138D01*
X30020315Y-54493177D01*
X30003681Y-54513819D01*
X29992500Y-54525000D01*
X29992500Y-56809999D01*
X30054972Y-56809999D01*
X30054986Y-56809998D01*
X30157695Y-56799506D01*
X30324440Y-56744251D01*
X30394269Y-56741849D01*
X30454311Y-56777580D01*
X30485504Y-56840100D01*
X30477944Y-56909560D01*
X30451126Y-56949638D01*
X29937584Y-57463181D01*
X29876261Y-57496666D01*
X29849903Y-57499500D01*
X27750097Y-57499500D01*
X27683058Y-57479815D01*
X27662416Y-57463181D01*
X27260819Y-57061584D01*
X27246115Y-57034656D01*
X27229523Y-57008838D01*
X27228631Y-57002637D01*
X27227334Y-57000261D01*
X27224500Y-56973903D01*
X27224500Y-56879697D01*
X27244185Y-56812658D01*
X27296989Y-56766903D01*
X27366147Y-56756959D01*
X27387499Y-56761989D01*
X27502203Y-56799999D01*
X27604991Y-56810500D01*
X28230008Y-56810499D01*
X28230016Y-56810498D01*
X28230019Y-56810498D01*
X28286302Y-56804748D01*
X28332797Y-56799999D01*
X28499334Y-56744814D01*
X28648656Y-56652712D01*
X28742675Y-56558692D01*
X28803994Y-56525210D01*
X28873686Y-56530194D01*
X28918034Y-56558695D01*
X29011654Y-56652315D01*
X29160875Y-56744356D01*
X29160880Y-56744358D01*
X29327302Y-56799505D01*
X29327309Y-56799506D01*
X29430019Y-56809999D01*
X29492499Y-56809998D01*
X29492500Y-56809998D01*
X29492500Y-54378862D01*
X29512185Y-54311823D01*
X29528819Y-54291181D01*
X29540000Y-54280000D01*
X29540000Y-51944999D01*
X29523819Y-51928818D01*
X29490334Y-51867495D01*
X29487500Y-51841137D01*
X29487500Y-50724000D01*
X29507185Y-50656961D01*
X29559989Y-50611206D01*
X29611500Y-50600000D01*
X29737500Y-50600000D01*
X29737500Y-50474000D01*
X29757185Y-50406961D01*
X29809989Y-50361206D01*
X29861500Y-50350000D01*
X30749999Y-50350000D01*
X30749999Y-50324500D01*
X30769684Y-50257461D01*
X30822488Y-50211706D01*
X30873999Y-50200500D01*
X31413389Y-50200500D01*
X31420996Y-50200500D01*
X31421000Y-50200501D01*
X31524905Y-50200501D01*
X31591944Y-50220186D01*
X31591946Y-50220188D01*
X31612585Y-50236820D01*
X33138181Y-51762416D01*
X33171666Y-51823739D01*
X33174500Y-51850097D01*
X33174500Y-72974902D01*
X33154815Y-73041941D01*
X33138185Y-73062578D01*
X33040082Y-73160682D01*
X32978762Y-73194166D01*
X32952403Y-73197000D01*
X29392508Y-73197000D01*
X29325469Y-73177315D01*
X29286969Y-73138097D01*
X29242712Y-73066344D01*
X29118656Y-72942288D01*
X28995417Y-72866274D01*
X28969336Y-72850187D01*
X28969331Y-72850185D01*
X28967862Y-72849698D01*
X28802797Y-72795001D01*
X28802795Y-72795000D01*
X28700016Y-72784500D01*
X27724500Y-72784500D01*
X27657461Y-72764815D01*
X27611706Y-72712011D01*
X27600500Y-72660500D01*
X27600500Y-71279765D01*
X27620185Y-71212726D01*
X27621398Y-71210874D01*
X27709390Y-71079185D01*
X27709390Y-71079184D01*
X27709394Y-71079179D01*
X27769737Y-70933497D01*
X27800500Y-70778842D01*
X27800500Y-70621158D01*
X27800500Y-70621155D01*
X27800499Y-70621153D01*
X27769738Y-70466510D01*
X27769737Y-70466503D01*
X27763797Y-70452162D01*
X27709397Y-70320827D01*
X27709390Y-70320814D01*
X27621789Y-70189711D01*
X27621786Y-70189707D01*
X27510292Y-70078213D01*
X27510288Y-70078210D01*
X27379185Y-69990609D01*
X27379172Y-69990602D01*
X27233501Y-69930264D01*
X27233489Y-69930261D01*
X27078845Y-69899500D01*
X27078842Y-69899500D01*
X26921158Y-69899500D01*
X26921155Y-69899500D01*
X26766510Y-69930261D01*
X26766498Y-69930264D01*
X26620827Y-69990602D01*
X26620814Y-69990609D01*
X26489711Y-70078210D01*
X26489707Y-70078213D01*
X26378213Y-70189707D01*
X26378210Y-70189711D01*
X26290609Y-70320814D01*
X26290602Y-70320827D01*
X26230264Y-70466498D01*
X26230261Y-70466510D01*
X26199500Y-70621153D01*
X26199500Y-70778846D01*
X26230261Y-70933489D01*
X26230264Y-70933501D01*
X26290602Y-71079172D01*
X26290609Y-71079185D01*
X26378602Y-71210874D01*
X26384252Y-71228920D01*
X26394477Y-71244830D01*
X26398928Y-71275789D01*
X26399480Y-71277551D01*
X26399500Y-71279765D01*
X26399500Y-71326637D01*
X26379815Y-71393676D01*
X26327011Y-71439431D01*
X26257853Y-71449375D01*
X26194297Y-71420350D01*
X26187819Y-71414318D01*
X15065181Y-60291681D01*
X15031696Y-60230358D01*
X15036680Y-60160666D01*
X15078552Y-60104733D01*
X15144016Y-60080316D01*
X15152862Y-60080000D01*
X15311425Y-60080000D01*
X15532354Y-60050914D01*
X15532367Y-60050911D01*
X15747618Y-59993236D01*
X15953502Y-59907954D01*
X15953514Y-59907949D01*
X16146498Y-59796530D01*
X16212403Y-59745957D01*
X16212404Y-59745956D01*
X15411059Y-58944612D01*
X15431591Y-58939111D01*
X15568408Y-58860119D01*
X15680119Y-58748408D01*
X15759111Y-58611591D01*
X15764612Y-58591059D01*
X16565956Y-59392404D01*
X16565957Y-59392403D01*
X16616530Y-59326498D01*
X16727949Y-59133514D01*
X16727954Y-59133502D01*
X16813236Y-58927618D01*
X16870911Y-58712367D01*
X16870914Y-58712354D01*
X16900000Y-58491424D01*
X16900000Y-58268575D01*
X16870914Y-58047645D01*
X16870911Y-58047632D01*
X16813236Y-57832381D01*
X16727954Y-57626497D01*
X16727949Y-57626485D01*
X16616533Y-57433507D01*
X16565956Y-57367595D01*
X16565955Y-57367595D01*
X15764612Y-58168939D01*
X15759111Y-58148409D01*
X15680119Y-58011592D01*
X15568408Y-57899881D01*
X15431591Y-57820889D01*
X15411058Y-57815387D01*
X16212403Y-57014043D01*
X16212403Y-57014040D01*
X16146504Y-56963473D01*
X16146491Y-56963464D01*
X15953520Y-56852054D01*
X15953502Y-56852045D01*
X15747618Y-56766763D01*
X15532367Y-56709088D01*
X15532354Y-56709085D01*
X15311425Y-56680000D01*
X15088575Y-56680000D01*
X14867645Y-56709085D01*
X14867632Y-56709088D01*
X14652381Y-56766763D01*
X14446497Y-56852045D01*
X14446479Y-56852054D01*
X14253508Y-56963464D01*
X14253506Y-56963465D01*
X14199486Y-57004917D01*
X14134317Y-57030111D01*
X14065872Y-57016072D01*
X14015882Y-56967258D01*
X14000000Y-56906541D01*
X14000000Y-54761760D01*
X14019685Y-54694721D01*
X14055105Y-54658661D01*
X14110289Y-54621789D01*
X14221789Y-54510289D01*
X14309394Y-54379179D01*
X14369737Y-54233497D01*
X14392126Y-54120943D01*
X14400638Y-54078150D01*
X14433023Y-54016239D01*
X14434521Y-54014713D01*
X14917747Y-53531486D01*
X14979068Y-53498003D01*
X15048759Y-53502987D01*
X15096206Y-53534701D01*
X15105786Y-53544996D01*
X15119480Y-53568716D01*
X15231284Y-53680520D01*
X15231286Y-53680521D01*
X15239928Y-53689163D01*
X26351219Y-64800454D01*
X26384704Y-64861777D01*
X26379720Y-64931469D01*
X26366641Y-64957025D01*
X26290608Y-65070816D01*
X26290602Y-65070827D01*
X26230264Y-65216498D01*
X26230261Y-65216510D01*
X26199500Y-65371153D01*
X26199500Y-65528846D01*
X26230261Y-65683489D01*
X26230264Y-65683501D01*
X26290602Y-65829172D01*
X26290609Y-65829185D01*
X26378210Y-65960288D01*
X26378213Y-65960292D01*
X26489707Y-66071786D01*
X26489711Y-66071789D01*
X26620814Y-66159390D01*
X26620827Y-66159397D01*
X26766498Y-66219735D01*
X26766503Y-66219737D01*
X26921153Y-66250499D01*
X26921156Y-66250500D01*
X26921158Y-66250500D01*
X27078844Y-66250500D01*
X27078845Y-66250499D01*
X27233497Y-66219737D01*
X27379179Y-66159394D01*
X27510289Y-66071789D01*
X27621789Y-65960289D01*
X27709394Y-65829179D01*
X27715874Y-65813536D01*
X27769735Y-65683501D01*
X27769737Y-65683497D01*
X27800500Y-65528842D01*
X27800500Y-65371158D01*
X27800500Y-65371155D01*
X27800499Y-65371153D01*
X27769737Y-65216503D01*
X27769735Y-65216498D01*
X27709397Y-65070827D01*
X27709390Y-65070814D01*
X27621398Y-64939125D01*
X27615747Y-64921078D01*
X27605523Y-64905169D01*
X27601071Y-64874207D01*
X27600520Y-64872447D01*
X27600500Y-64870234D01*
X27600500Y-64689060D01*
X27600501Y-64689047D01*
X27600501Y-64520944D01*
X27600501Y-64520943D01*
X27559577Y-64368216D01*
X27559573Y-64368209D01*
X27480524Y-64231290D01*
X27480518Y-64231282D01*
X17911416Y-54662180D01*
X17877931Y-54600857D01*
X17882915Y-54531165D01*
X17924787Y-54475232D01*
X17990251Y-54450815D01*
X17999069Y-54450499D01*
X19314360Y-54450499D01*
X19314363Y-54450499D01*
X19431753Y-54435046D01*
X19431757Y-54435044D01*
X19431762Y-54435044D01*
X19577841Y-54374536D01*
X19703282Y-54278282D01*
X19799536Y-54152841D01*
X19860044Y-54006762D01*
X19875500Y-53889361D01*
X19875499Y-53610640D01*
X19860044Y-53493238D01*
X19860042Y-53493234D01*
X19851435Y-53472455D01*
X19843965Y-53402986D01*
X19851435Y-53377545D01*
X19860044Y-53356762D01*
X19875500Y-53239361D01*
X19875499Y-52960640D01*
X19860044Y-52843238D01*
X19860042Y-52843234D01*
X19851435Y-52822455D01*
X19843965Y-52752986D01*
X19851435Y-52727545D01*
X19860044Y-52706762D01*
X19875500Y-52589361D01*
X19875499Y-52310640D01*
X19875499Y-52310638D01*
X19875499Y-52310636D01*
X19860046Y-52193246D01*
X19860044Y-52193239D01*
X19860044Y-52193238D01*
X19851162Y-52171797D01*
X19843694Y-52102328D01*
X19851164Y-52076890D01*
X19859555Y-52056632D01*
X19859555Y-52056630D01*
X19867012Y-52000000D01*
X19824500Y-52000000D01*
X19795118Y-51991372D01*
X19765183Y-51984892D01*
X19761070Y-51981374D01*
X19757461Y-51980315D01*
X19736907Y-51963769D01*
X19731108Y-51957981D01*
X19703282Y-51921718D01*
X19666460Y-51893463D01*
X19660754Y-51887769D01*
X19647696Y-51863913D01*
X19631658Y-51841949D01*
X19631167Y-51833715D01*
X19627207Y-51826480D01*
X19629120Y-51799349D01*
X19627503Y-51772203D01*
X19631541Y-51765010D01*
X19632122Y-51756783D01*
X19648395Y-51734998D01*
X19661714Y-51711282D01*
X19672851Y-51701631D01*
X19703282Y-51678282D01*
X19715021Y-51662982D01*
X19726125Y-51648513D01*
X19782553Y-51607310D01*
X19824500Y-51600000D01*
X19867010Y-51600000D01*
X19867011Y-51599998D01*
X19859558Y-51543377D01*
X19859554Y-51543365D01*
X19851163Y-51523106D01*
X19843694Y-51453637D01*
X19851164Y-51428199D01*
X19860044Y-51406762D01*
X19875500Y-51289361D01*
X19875499Y-51010640D01*
X19860044Y-50893238D01*
X19860042Y-50893234D01*
X19854391Y-50879592D01*
X19851434Y-50872454D01*
X19843965Y-50802986D01*
X19851435Y-50777545D01*
X19860044Y-50756762D01*
X19875500Y-50639361D01*
X19875499Y-50360640D01*
X19860044Y-50243238D01*
X19860042Y-50243234D01*
X19851435Y-50222455D01*
X19843965Y-50152986D01*
X19845070Y-50147555D01*
X19847401Y-50137283D01*
X19860044Y-50106762D01*
X19867939Y-50046791D01*
X19869203Y-50041223D01*
X19883543Y-50015512D01*
X19895454Y-49988587D01*
X19900370Y-49985343D01*
X19903238Y-49980203D01*
X19929196Y-49966329D01*
X19953778Y-49950115D01*
X19959666Y-49950044D01*
X19964859Y-49947270D01*
X19994201Y-49949633D01*
G37*
%TD.AperFunction*%
%TA.AperFunction,Conductor*%
G36*
X58683361Y-45731058D02*
G01*
X58684140Y-45731222D01*
X58733900Y-45780269D01*
X58749500Y-45840480D01*
X58749500Y-68833651D01*
X58729815Y-68900690D01*
X58713181Y-68921332D01*
X57736079Y-69898433D01*
X57674756Y-69931918D01*
X57605064Y-69926934D01*
X57549131Y-69885062D01*
X57525925Y-69830150D01*
X57525500Y-69827466D01*
X57525500Y-69827463D01*
X57492246Y-69617507D01*
X57426557Y-69415338D01*
X57330051Y-69225934D01*
X57330049Y-69225931D01*
X57330048Y-69225929D01*
X57205109Y-69053963D01*
X57054792Y-68903646D01*
X56958451Y-68833651D01*
X56890204Y-68784066D01*
X56847540Y-68728739D01*
X56841561Y-68659126D01*
X56874166Y-68597330D01*
X56890199Y-68583436D01*
X57054792Y-68463854D01*
X57205104Y-68313542D01*
X57205106Y-68313538D01*
X57205109Y-68313536D01*
X57330048Y-68141570D01*
X57330047Y-68141570D01*
X57330051Y-68141566D01*
X57426557Y-67952162D01*
X57492246Y-67749993D01*
X57525500Y-67540037D01*
X57525500Y-67327463D01*
X57492246Y-67117507D01*
X57426557Y-66915338D01*
X57330051Y-66725934D01*
X57330049Y-66725931D01*
X57330048Y-66725929D01*
X57205109Y-66553963D01*
X57054792Y-66403646D01*
X56890204Y-66284066D01*
X56847540Y-66228739D01*
X56841561Y-66159126D01*
X56874166Y-66097330D01*
X56890199Y-66083436D01*
X57054792Y-65963854D01*
X57205104Y-65813542D01*
X57205106Y-65813538D01*
X57205109Y-65813536D01*
X57330048Y-65641570D01*
X57330047Y-65641570D01*
X57330051Y-65641566D01*
X57426557Y-65452162D01*
X57492246Y-65249993D01*
X57525500Y-65040037D01*
X57525500Y-64827463D01*
X57492246Y-64617507D01*
X57426557Y-64415338D01*
X57330051Y-64225934D01*
X57330049Y-64225931D01*
X57330048Y-64225929D01*
X57205109Y-64053963D01*
X57054790Y-63903644D01*
X57054785Y-63903640D01*
X56889781Y-63783758D01*
X56847115Y-63728428D01*
X56841136Y-63658815D01*
X56873741Y-63597020D01*
X56889781Y-63583121D01*
X57054466Y-63463471D01*
X57204723Y-63313214D01*
X57204727Y-63313209D01*
X57329620Y-63141307D01*
X57426095Y-62951967D01*
X57491757Y-62749879D01*
X57491757Y-62749876D01*
X57502231Y-62683750D01*
X56454146Y-62683750D01*
X56492630Y-62617093D01*
X56525000Y-62496285D01*
X56525000Y-62371215D01*
X56492630Y-62250407D01*
X56454146Y-62183750D01*
X57502231Y-62183750D01*
X57491757Y-62117623D01*
X57491757Y-62117620D01*
X57426095Y-61915532D01*
X57329620Y-61726192D01*
X57204727Y-61554290D01*
X57204723Y-61554285D01*
X57054464Y-61404026D01*
X57054459Y-61404022D01*
X56882557Y-61279129D01*
X56693217Y-61182654D01*
X56491128Y-61116992D01*
X56300000Y-61086719D01*
X56300000Y-62029604D01*
X56233343Y-61991120D01*
X56112535Y-61958750D01*
X55987465Y-61958750D01*
X55866657Y-61991120D01*
X55800000Y-62029604D01*
X55800000Y-61086719D01*
X55608872Y-61116992D01*
X55608865Y-61116993D01*
X55512817Y-61148201D01*
X55442976Y-61150196D01*
X55383143Y-61114115D01*
X55352316Y-61051414D01*
X55350500Y-61030270D01*
X55350500Y-48589060D01*
X55350501Y-48589047D01*
X55350501Y-48420944D01*
X55350501Y-48420943D01*
X55309577Y-48268216D01*
X55281407Y-48219423D01*
X55230524Y-48131290D01*
X55230518Y-48131282D01*
X54389838Y-47290602D01*
X53538420Y-46439185D01*
X53504936Y-46377863D01*
X53509920Y-46308171D01*
X53551792Y-46252238D01*
X53558373Y-46248009D01*
X53618755Y-46202807D01*
X53677546Y-46158796D01*
X53763796Y-46043581D01*
X53812810Y-45912166D01*
X53854681Y-45856234D01*
X53920145Y-45831816D01*
X53988418Y-45846667D01*
X54016673Y-45867819D01*
X54130213Y-45981359D01*
X54302179Y-46106298D01*
X54302181Y-46106299D01*
X54302184Y-46106301D01*
X54491588Y-46202807D01*
X54693757Y-46268496D01*
X54903713Y-46301750D01*
X54903714Y-46301750D01*
X55116286Y-46301750D01*
X55116287Y-46301750D01*
X55326243Y-46268496D01*
X55528412Y-46202807D01*
X55717816Y-46106301D01*
X55772572Y-46066519D01*
X55889786Y-45981359D01*
X55889788Y-45981356D01*
X55889792Y-45981354D01*
X56040104Y-45831042D01*
X56040106Y-45831038D01*
X56040109Y-45831036D01*
X56112746Y-45731058D01*
X56165051Y-45659066D01*
X56169793Y-45649758D01*
X56217763Y-45598961D01*
X56285583Y-45582161D01*
X56351719Y-45604695D01*
X56390763Y-45649750D01*
X56395373Y-45658797D01*
X56434728Y-45712966D01*
X57067037Y-45080658D01*
X57084075Y-45144243D01*
X57149901Y-45258257D01*
X57242993Y-45351349D01*
X57357007Y-45417175D01*
X57420590Y-45434212D01*
X56788282Y-46066519D01*
X56788282Y-46066520D01*
X56842449Y-46105874D01*
X57031782Y-46202345D01*
X57233870Y-46268007D01*
X57443754Y-46301250D01*
X57656246Y-46301250D01*
X57866127Y-46268007D01*
X57866130Y-46268007D01*
X58068217Y-46202345D01*
X58257554Y-46105872D01*
X58311716Y-46066520D01*
X58311717Y-46066520D01*
X57679408Y-45434212D01*
X57742993Y-45417175D01*
X57857007Y-45351349D01*
X57950099Y-45258257D01*
X58015925Y-45144243D01*
X58032962Y-45080658D01*
X58683361Y-45731058D01*
G37*
%TD.AperFunction*%
%TA.AperFunction,Conductor*%
G36*
X21732596Y-44370185D02*
G01*
X21778351Y-44422989D01*
X21788295Y-44492147D01*
X21783263Y-44513504D01*
X21755494Y-44597302D01*
X21755493Y-44597309D01*
X21745000Y-44700013D01*
X21745000Y-44950000D01*
X22633500Y-44950000D01*
X22700539Y-44969685D01*
X22746294Y-45022489D01*
X22757500Y-45074000D01*
X22757500Y-45200000D01*
X22883500Y-45200000D01*
X22950539Y-45219685D01*
X22996294Y-45272489D01*
X23007500Y-45324000D01*
X23007500Y-46399999D01*
X23069972Y-46399999D01*
X23069986Y-46399998D01*
X23172697Y-46389505D01*
X23339119Y-46334358D01*
X23339124Y-46334356D01*
X23488342Y-46242317D01*
X23581964Y-46148695D01*
X23643287Y-46115210D01*
X23712979Y-46120194D01*
X23757327Y-46148695D01*
X23851344Y-46242712D01*
X24000666Y-46334814D01*
X24167203Y-46389999D01*
X24269991Y-46400500D01*
X24895008Y-46400499D01*
X24895016Y-46400498D01*
X24895019Y-46400498D01*
X24951302Y-46394748D01*
X24997797Y-46389999D01*
X25164334Y-46334814D01*
X25313656Y-46242712D01*
X25437712Y-46118656D01*
X25529814Y-45969334D01*
X25584999Y-45802797D01*
X25595500Y-45700009D01*
X25595500Y-45324500D01*
X25615185Y-45257461D01*
X25667989Y-45211706D01*
X25719500Y-45200500D01*
X28563331Y-45200500D01*
X28563347Y-45200501D01*
X28570943Y-45200501D01*
X28729054Y-45200501D01*
X28729057Y-45200501D01*
X28881785Y-45159577D01*
X28931904Y-45130639D01*
X29018716Y-45080520D01*
X29130520Y-44968716D01*
X29130520Y-44968714D01*
X29140728Y-44958507D01*
X29140730Y-44958504D01*
X29377058Y-44722175D01*
X29438379Y-44688692D01*
X29490700Y-44688606D01*
X29497193Y-44689995D01*
X29497203Y-44689999D01*
X29599991Y-44700500D01*
X30225008Y-44700499D01*
X30225016Y-44700498D01*
X30225019Y-44700498D01*
X30281302Y-44694748D01*
X30327797Y-44689999D01*
X30494334Y-44634814D01*
X30643656Y-44542712D01*
X30762319Y-44424049D01*
X30764601Y-44422802D01*
X30765938Y-44420574D01*
X30795089Y-44406154D01*
X30823642Y-44390564D01*
X30826235Y-44390749D01*
X30828565Y-44389597D01*
X30860887Y-44393227D01*
X30893334Y-44395548D01*
X30896210Y-44397195D01*
X30897998Y-44397396D01*
X30906305Y-44402975D01*
X30928265Y-44415550D01*
X30933188Y-44419556D01*
X31016344Y-44502712D01*
X31094988Y-44551219D01*
X31101265Y-44556327D01*
X31116652Y-44578716D01*
X31134821Y-44598915D01*
X31136938Y-44608232D01*
X31140840Y-44613909D01*
X31141251Y-44627212D01*
X31147000Y-44652507D01*
X31147000Y-47682403D01*
X31127315Y-47749442D01*
X31110685Y-47770079D01*
X31030501Y-47850264D01*
X30953134Y-47927631D01*
X30891811Y-47961115D01*
X30822119Y-47956131D01*
X30766186Y-47914259D01*
X30741769Y-47848795D01*
X30742095Y-47827345D01*
X30749999Y-47749983D01*
X30750000Y-47749973D01*
X30750000Y-47475000D01*
X29874000Y-47475000D01*
X29806961Y-47455315D01*
X29761206Y-47402511D01*
X29750000Y-47351000D01*
X29750000Y-47225000D01*
X29624000Y-47225000D01*
X29556961Y-47205315D01*
X29511206Y-47152511D01*
X29500000Y-47101000D01*
X29500000Y-46975000D01*
X30000000Y-46975000D01*
X30749999Y-46975000D01*
X30749999Y-46700028D01*
X30749998Y-46700013D01*
X30739505Y-46597302D01*
X30684358Y-46430880D01*
X30684356Y-46430875D01*
X30592315Y-46281654D01*
X30468345Y-46157684D01*
X30319124Y-46065643D01*
X30319119Y-46065641D01*
X30152697Y-46010494D01*
X30152690Y-46010493D01*
X30049986Y-46000000D01*
X30000000Y-46000000D01*
X30000000Y-46975000D01*
X29500000Y-46975000D01*
X29500000Y-46000000D01*
X29499999Y-45999999D01*
X29450029Y-46000000D01*
X29450011Y-46000001D01*
X29347302Y-46010494D01*
X29180880Y-46065641D01*
X29180875Y-46065643D01*
X29031654Y-46157684D01*
X28907683Y-46281655D01*
X28907679Y-46281660D01*
X28905826Y-46284665D01*
X28904018Y-46286290D01*
X28903202Y-46287323D01*
X28903025Y-46287183D01*
X28853874Y-46331385D01*
X28784911Y-46342601D01*
X28720831Y-46314752D01*
X28694753Y-46284653D01*
X28694737Y-46284628D01*
X28692712Y-46281344D01*
X28568656Y-46157288D01*
X28421497Y-46066520D01*
X28419336Y-46065187D01*
X28419331Y-46065185D01*
X28417862Y-46064698D01*
X28252797Y-46010001D01*
X28252795Y-46010000D01*
X28150010Y-45999500D01*
X27549998Y-45999500D01*
X27549980Y-45999501D01*
X27447203Y-46010000D01*
X27447200Y-46010001D01*
X27280668Y-46065185D01*
X27280663Y-46065187D01*
X27131342Y-46157289D01*
X27007289Y-46281342D01*
X26915187Y-46430663D01*
X26915185Y-46430668D01*
X26898363Y-46481434D01*
X26860001Y-46597203D01*
X26860001Y-46597204D01*
X26860000Y-46597204D01*
X26849500Y-46699983D01*
X26849500Y-46850500D01*
X26829815Y-46917539D01*
X26777011Y-46963294D01*
X26725500Y-46974500D01*
X23829061Y-46974500D01*
X23829057Y-46974499D01*
X23670943Y-46974499D01*
X23670939Y-46974500D01*
X22441670Y-46974500D01*
X22441654Y-46974499D01*
X22434058Y-46974499D01*
X22275943Y-46974499D01*
X22199579Y-46994961D01*
X22123214Y-47015423D01*
X22123209Y-47015426D01*
X21986290Y-47094475D01*
X21986282Y-47094481D01*
X21717584Y-47363181D01*
X21656261Y-47396666D01*
X21629903Y-47399500D01*
X20375766Y-47399500D01*
X20308727Y-47379815D01*
X20306875Y-47378602D01*
X20175185Y-47290609D01*
X20175172Y-47290602D01*
X20029501Y-47230264D01*
X20029492Y-47230261D01*
X19975082Y-47219438D01*
X19913171Y-47187052D01*
X19878598Y-47126336D01*
X19882339Y-47056566D01*
X19911592Y-47010142D01*
X20494165Y-46427569D01*
X20555486Y-46394086D01*
X20569241Y-46391894D01*
X20587797Y-46389999D01*
X20754334Y-46334814D01*
X20903656Y-46242712D01*
X21027712Y-46118656D01*
X21119814Y-45969334D01*
X21174999Y-45802797D01*
X21185500Y-45700009D01*
X21185500Y-45699986D01*
X21745001Y-45699986D01*
X21755494Y-45802697D01*
X21810641Y-45969119D01*
X21810643Y-45969124D01*
X21902684Y-46118345D01*
X22026654Y-46242315D01*
X22175875Y-46334356D01*
X22175880Y-46334358D01*
X22342302Y-46389505D01*
X22342309Y-46389506D01*
X22445019Y-46399999D01*
X22507499Y-46399998D01*
X22507500Y-46399998D01*
X22507500Y-45450000D01*
X21745001Y-45450000D01*
X21745001Y-45699986D01*
X21185500Y-45699986D01*
X21185499Y-45200000D01*
X21185499Y-44699998D01*
X21185498Y-44699980D01*
X21174999Y-44597202D01*
X21174998Y-44597200D01*
X21147264Y-44513504D01*
X21144862Y-44443676D01*
X21180594Y-44383634D01*
X21243114Y-44352441D01*
X21264970Y-44350500D01*
X21665557Y-44350500D01*
X21732596Y-44370185D01*
G37*
%TD.AperFunction*%
%TA.AperFunction,Conductor*%
G36*
X56818481Y-43870185D02*
G01*
X56839123Y-43886819D01*
X57420591Y-44468287D01*
X57357007Y-44485325D01*
X57242993Y-44551151D01*
X57149901Y-44644243D01*
X57084075Y-44758257D01*
X57067037Y-44821841D01*
X56434728Y-44189532D01*
X56434727Y-44189532D01*
X56395380Y-44243690D01*
X56395376Y-44243696D01*
X56390760Y-44252755D01*
X56342781Y-44303547D01*
X56274959Y-44320337D01*
X56208826Y-44297793D01*
X56169794Y-44252743D01*
X56165051Y-44243434D01*
X56165049Y-44243431D01*
X56165048Y-44243429D01*
X56040109Y-44071463D01*
X56030827Y-44062181D01*
X55997342Y-44000858D01*
X56002326Y-43931166D01*
X56044198Y-43875233D01*
X56109662Y-43850816D01*
X56118508Y-43850500D01*
X56751442Y-43850500D01*
X56818481Y-43870185D01*
G37*
%TD.AperFunction*%
%TA.AperFunction,Conductor*%
G36*
X60192020Y-14019998D02*
G01*
X60238059Y-14072554D01*
X60249544Y-14125125D01*
X60189177Y-30725951D01*
X60169249Y-30792918D01*
X60116279Y-30838481D01*
X60065178Y-30849500D01*
X60021155Y-30849500D01*
X59866510Y-30880261D01*
X59866498Y-30880264D01*
X59720827Y-30940602D01*
X59720814Y-30940609D01*
X59589711Y-31028210D01*
X59589707Y-31028213D01*
X59478213Y-31139707D01*
X59478210Y-31139711D01*
X59390609Y-31270814D01*
X59390602Y-31270827D01*
X59330264Y-31416498D01*
X59330261Y-31416510D01*
X59299500Y-31571153D01*
X59299500Y-31728846D01*
X59330261Y-31883489D01*
X59330264Y-31883501D01*
X59390602Y-32029172D01*
X59390609Y-32029185D01*
X59478602Y-32160874D01*
X59499480Y-32227551D01*
X59499500Y-32229765D01*
X59499500Y-32870234D01*
X59479815Y-32937273D01*
X59478602Y-32939125D01*
X59390609Y-33070814D01*
X59390602Y-33070827D01*
X59348302Y-33172952D01*
X59304462Y-33227356D01*
X59238167Y-33249421D01*
X59233741Y-33249500D01*
X58280904Y-33249500D01*
X58213865Y-33229815D01*
X58168110Y-33177011D01*
X58166343Y-33172952D01*
X58134397Y-33095827D01*
X58134390Y-33095814D01*
X58046789Y-32964711D01*
X58046786Y-32964707D01*
X57935292Y-32853213D01*
X57935288Y-32853210D01*
X57804185Y-32765609D01*
X57804172Y-32765602D01*
X57658501Y-32705264D01*
X57658489Y-32705261D01*
X57503845Y-32674500D01*
X57503842Y-32674500D01*
X57346158Y-32674500D01*
X57346155Y-32674500D01*
X57191510Y-32705261D01*
X57191498Y-32705264D01*
X57045827Y-32765602D01*
X57045814Y-32765609D01*
X56914711Y-32853210D01*
X56914707Y-32853213D01*
X56803213Y-32964707D01*
X56803210Y-32964711D01*
X56715609Y-33095814D01*
X56715602Y-33095827D01*
X56655264Y-33241498D01*
X56655261Y-33241510D01*
X56624500Y-33396153D01*
X56624500Y-33553846D01*
X56655261Y-33708489D01*
X56655264Y-33708501D01*
X56715602Y-33854172D01*
X56715609Y-33854185D01*
X56803210Y-33985288D01*
X56803213Y-33985292D01*
X56914707Y-34096786D01*
X56914711Y-34096789D01*
X57045814Y-34184390D01*
X57045827Y-34184397D01*
X57180062Y-34239998D01*
X57191503Y-34244737D01*
X57346158Y-34275500D01*
X57346847Y-34275637D01*
X57393443Y-34295444D01*
X57402517Y-34301753D01*
X57431284Y-34330520D01*
X57501088Y-34370821D01*
X57568215Y-34409577D01*
X57720943Y-34450500D01*
X57879057Y-34450500D01*
X59613331Y-34450500D01*
X59613347Y-34450501D01*
X59620943Y-34450501D01*
X59779054Y-34450501D01*
X59779057Y-34450501D01*
X59931785Y-34409577D01*
X59989513Y-34376247D01*
X60057411Y-34359774D01*
X60123438Y-34382625D01*
X60166630Y-34437546D01*
X60175512Y-34484085D01*
X60143053Y-43410285D01*
X60142248Y-43412989D01*
X60142914Y-43415733D01*
X60132341Y-43446280D01*
X60123125Y-43477252D01*
X60120985Y-43479092D01*
X60120062Y-43481760D01*
X60094659Y-43501736D01*
X60070155Y-43522815D01*
X60067359Y-43523206D01*
X60065141Y-43524951D01*
X60032977Y-43528022D01*
X60000961Y-43532507D01*
X59998396Y-43531324D01*
X59995588Y-43531593D01*
X59966862Y-43516784D01*
X59937511Y-43503251D01*
X59935229Y-43500477D01*
X59933485Y-43499578D01*
X59911667Y-43471835D01*
X59877692Y-43412989D01*
X59859190Y-43380943D01*
X59830520Y-43331284D01*
X59718716Y-43219480D01*
X59718715Y-43219479D01*
X59714385Y-43215149D01*
X59714374Y-43215139D01*
X59387590Y-42888355D01*
X59387588Y-42888352D01*
X59268717Y-42769481D01*
X59268716Y-42769480D01*
X59163817Y-42708917D01*
X59163816Y-42708916D01*
X59131783Y-42690422D01*
X59075881Y-42675443D01*
X58979057Y-42649499D01*
X58820943Y-42649499D01*
X58813347Y-42649499D01*
X58813331Y-42649500D01*
X47300097Y-42649500D01*
X47233058Y-42629815D01*
X47212416Y-42613181D01*
X46819500Y-42220265D01*
X46819498Y-42220262D01*
X46700627Y-42101391D01*
X46700626Y-42101390D01*
X46610747Y-42049499D01*
X46563695Y-42022333D01*
X46448628Y-41991500D01*
X46443258Y-41989516D01*
X46426299Y-41976902D01*
X46402958Y-41963426D01*
X46402499Y-41963986D01*
X46399109Y-41961204D01*
X46398551Y-41960882D01*
X46397792Y-41960123D01*
X46397788Y-41960120D01*
X46266685Y-41872519D01*
X46266672Y-41872512D01*
X46121001Y-41812174D01*
X46120989Y-41812171D01*
X45966345Y-41781410D01*
X45966342Y-41781410D01*
X45808658Y-41781410D01*
X45808655Y-41781410D01*
X45654010Y-41812171D01*
X45653998Y-41812174D01*
X45508327Y-41872512D01*
X45508314Y-41872519D01*
X45377211Y-41960120D01*
X45377207Y-41960123D01*
X45265713Y-42071617D01*
X45265710Y-42071621D01*
X45178109Y-42202724D01*
X45178102Y-42202737D01*
X45117764Y-42348408D01*
X45117761Y-42348420D01*
X45087000Y-42503063D01*
X45087000Y-42660753D01*
X45117761Y-42815399D01*
X45117764Y-42815411D01*
X45178102Y-42961082D01*
X45178109Y-42961095D01*
X45208688Y-43006859D01*
X45229566Y-43073536D01*
X45211082Y-43140917D01*
X45159103Y-43187607D01*
X45105586Y-43199750D01*
X41600347Y-43199750D01*
X41533308Y-43180065D01*
X41512666Y-43163431D01*
X40636819Y-42287584D01*
X40603334Y-42226261D01*
X40600500Y-42199903D01*
X40600500Y-41079765D01*
X40620185Y-41012726D01*
X40621398Y-41010874D01*
X40644271Y-40976643D01*
X40709394Y-40879179D01*
X40769737Y-40733497D01*
X40800500Y-40578842D01*
X40800500Y-40421158D01*
X40800500Y-40421155D01*
X40800499Y-40421153D01*
X40794999Y-40393503D01*
X40769737Y-40266503D01*
X40746080Y-40209390D01*
X40709397Y-40120827D01*
X40709390Y-40120814D01*
X40621789Y-39989711D01*
X40621786Y-39989707D01*
X40510292Y-39878213D01*
X40510288Y-39878210D01*
X40379185Y-39790609D01*
X40379172Y-39790602D01*
X40233501Y-39730264D01*
X40233491Y-39730261D01*
X40113651Y-39706423D01*
X40051740Y-39674038D01*
X40017166Y-39613322D01*
X40013843Y-39584806D01*
X40013843Y-39571155D01*
X40013842Y-39571153D01*
X40004154Y-39522447D01*
X39983080Y-39416503D01*
X39971396Y-39388294D01*
X39922740Y-39270827D01*
X39922733Y-39270814D01*
X39835132Y-39139711D01*
X39835129Y-39139707D01*
X39723635Y-39028213D01*
X39723631Y-39028210D01*
X39592528Y-38940609D01*
X39592515Y-38940602D01*
X39446844Y-38880264D01*
X39446832Y-38880261D01*
X39292188Y-38849500D01*
X39292185Y-38849500D01*
X39274500Y-38849500D01*
X39207461Y-38829815D01*
X39161706Y-38777011D01*
X39150500Y-38725500D01*
X39150500Y-36570943D01*
X39147454Y-36559577D01*
X39147453Y-36559572D01*
X39128734Y-36489712D01*
X39126271Y-36480519D01*
X39109577Y-36418216D01*
X39109573Y-36418209D01*
X39030524Y-36281290D01*
X39030521Y-36281286D01*
X39030520Y-36281284D01*
X38918716Y-36169480D01*
X38918715Y-36169479D01*
X38914385Y-36165149D01*
X38914374Y-36165139D01*
X38337590Y-35588355D01*
X38337588Y-35588352D01*
X38218717Y-35469481D01*
X38218712Y-35469477D01*
X38112449Y-35408127D01*
X38112448Y-35408126D01*
X38112447Y-35408126D01*
X38081787Y-35390424D01*
X38081786Y-35390423D01*
X38081785Y-35390423D01*
X37929057Y-35349499D01*
X37770943Y-35349499D01*
X37763447Y-35349499D01*
X37763331Y-35349500D01*
X35944168Y-35349500D01*
X35877129Y-35329815D01*
X35831374Y-35277011D01*
X35821430Y-35207853D01*
X35841057Y-35156622D01*
X35841725Y-35155621D01*
X35895332Y-35110810D01*
X35944836Y-35100500D01*
X37822491Y-35100500D01*
X37822507Y-35100501D01*
X37830103Y-35100501D01*
X37988214Y-35100501D01*
X37988217Y-35100501D01*
X38140945Y-35059577D01*
X38191064Y-35030639D01*
X38277876Y-34980520D01*
X38389680Y-34868716D01*
X38389680Y-34868714D01*
X38399888Y-34858507D01*
X38399890Y-34858504D01*
X38981718Y-34276675D01*
X39043039Y-34243192D01*
X39081999Y-34241000D01*
X39103457Y-34243192D01*
X39174991Y-34250500D01*
X39800008Y-34250499D01*
X39800016Y-34250498D01*
X39800019Y-34250498D01*
X39871539Y-34243192D01*
X39902797Y-34239999D01*
X40069334Y-34184814D01*
X40218656Y-34092712D01*
X40342712Y-33968656D01*
X40342715Y-33968650D01*
X40343384Y-33967982D01*
X40404707Y-33934497D01*
X40474399Y-33939481D01*
X40518747Y-33967982D01*
X41562181Y-35011416D01*
X41595666Y-35072739D01*
X41598500Y-35099097D01*
X41598500Y-38512330D01*
X41598499Y-38512348D01*
X41598499Y-38678054D01*
X41598498Y-38678054D01*
X41598499Y-38678057D01*
X41639423Y-38830785D01*
X41639424Y-38830787D01*
X41639423Y-38830787D01*
X41654945Y-38857670D01*
X41654946Y-38857671D01*
X41713677Y-38959397D01*
X41718479Y-38967714D01*
X41718481Y-38967717D01*
X41837349Y-39086585D01*
X41837355Y-39086590D01*
X43115139Y-40364374D01*
X43115149Y-40364385D01*
X43119479Y-40368715D01*
X43119480Y-40368716D01*
X43231284Y-40480520D01*
X43318095Y-40530639D01*
X43318097Y-40530641D01*
X43368213Y-40559576D01*
X43368215Y-40559577D01*
X43520942Y-40600500D01*
X43520943Y-40600500D01*
X51135501Y-40600500D01*
X51202540Y-40620185D01*
X51248295Y-40672989D01*
X51259501Y-40724500D01*
X51259501Y-40947876D01*
X51265908Y-41007483D01*
X51316202Y-41142328D01*
X51316206Y-41142335D01*
X51402452Y-41257544D01*
X51402455Y-41257547D01*
X51517664Y-41343793D01*
X51517671Y-41343797D01*
X51652517Y-41394091D01*
X51652516Y-41394091D01*
X51659444Y-41394835D01*
X51712127Y-41400500D01*
X53607872Y-41400499D01*
X53667483Y-41394091D01*
X53802331Y-41343796D01*
X53917546Y-41257546D01*
X54003796Y-41142331D01*
X54031429Y-41068243D01*
X54034327Y-41060474D01*
X54045104Y-41031578D01*
X54054091Y-41007483D01*
X54060500Y-40947873D01*
X54060499Y-40837304D01*
X54080183Y-40770268D01*
X54096818Y-40749626D01*
X54757861Y-40088582D01*
X54780667Y-40173694D01*
X54839910Y-40276306D01*
X54923694Y-40360090D01*
X55026306Y-40419333D01*
X55111414Y-40442137D01*
X54402485Y-41151065D01*
X54402485Y-41151066D01*
X54466243Y-41197388D01*
X54662589Y-41297432D01*
X54872164Y-41365526D01*
X55089819Y-41400000D01*
X55310181Y-41400000D01*
X55527835Y-41365526D01*
X55737410Y-41297432D01*
X55933760Y-41197386D01*
X55997513Y-41151066D01*
X55997514Y-41151066D01*
X55288585Y-40442138D01*
X55373694Y-40419333D01*
X55476306Y-40360090D01*
X55560090Y-40276306D01*
X55619333Y-40173694D01*
X55642137Y-40088585D01*
X56351066Y-40797514D01*
X56351066Y-40797513D01*
X56369372Y-40772319D01*
X56424701Y-40729653D01*
X56494315Y-40723674D01*
X56556110Y-40756279D01*
X56570008Y-40772319D01*
X56671752Y-40912358D01*
X56671756Y-40912363D01*
X56827636Y-41068243D01*
X56827641Y-41068247D01*
X56929606Y-41142328D01*
X57005978Y-41197815D01*
X57134375Y-41263237D01*
X57202393Y-41297895D01*
X57202396Y-41297896D01*
X57278863Y-41322741D01*
X57412049Y-41366015D01*
X57629778Y-41400500D01*
X57629779Y-41400500D01*
X57850221Y-41400500D01*
X57850222Y-41400500D01*
X58067951Y-41366015D01*
X58277606Y-41297895D01*
X58474022Y-41197815D01*
X58652365Y-41068242D01*
X58808242Y-40912365D01*
X58937815Y-40734022D01*
X59037895Y-40537606D01*
X59106015Y-40327951D01*
X59140500Y-40110222D01*
X59140500Y-39889778D01*
X59106015Y-39672049D01*
X59066391Y-39550097D01*
X59037896Y-39462396D01*
X59037895Y-39462393D01*
X58968913Y-39327011D01*
X58937815Y-39265978D01*
X58870255Y-39172989D01*
X58808247Y-39087641D01*
X58808243Y-39087636D01*
X58652363Y-38931756D01*
X58652358Y-38931752D01*
X58474025Y-38802187D01*
X58474024Y-38802186D01*
X58474022Y-38802185D01*
X58411096Y-38770122D01*
X58277606Y-38702104D01*
X58277603Y-38702103D01*
X58067952Y-38633985D01*
X57959086Y-38616742D01*
X57850222Y-38599500D01*
X57629778Y-38599500D01*
X57586232Y-38606397D01*
X57412045Y-38633985D01*
X57341794Y-38656811D01*
X57271953Y-38658806D01*
X57215796Y-38626561D01*
X56727590Y-38138355D01*
X56727588Y-38138352D01*
X56608717Y-38019481D01*
X56608716Y-38019480D01*
X56521904Y-37969360D01*
X56521904Y-37969359D01*
X56521900Y-37969358D01*
X56471785Y-37940423D01*
X56319057Y-37899499D01*
X56160943Y-37899499D01*
X56153347Y-37899499D01*
X56153331Y-37899500D01*
X51749097Y-37899500D01*
X51682058Y-37879815D01*
X51636303Y-37827011D01*
X51626359Y-37757853D01*
X51655384Y-37694297D01*
X51661416Y-37687819D01*
X52026714Y-37322521D01*
X52414662Y-36934572D01*
X52475983Y-36901089D01*
X52478150Y-36900638D01*
X52536085Y-36889113D01*
X52633497Y-36869737D01*
X52746166Y-36823067D01*
X52779172Y-36809397D01*
X52779172Y-36809396D01*
X52779179Y-36809394D01*
X52910289Y-36721789D01*
X53021789Y-36610289D01*
X53109394Y-36479179D01*
X53169737Y-36333497D01*
X53200500Y-36178842D01*
X53200500Y-36021158D01*
X53200500Y-36021155D01*
X53200499Y-36021153D01*
X53169738Y-35866510D01*
X53169738Y-35866508D01*
X53169737Y-35866503D01*
X53129025Y-35768215D01*
X53109397Y-35720827D01*
X53109390Y-35720814D01*
X53021789Y-35589711D01*
X53021786Y-35589707D01*
X52910292Y-35478213D01*
X52910288Y-35478210D01*
X52779185Y-35390609D01*
X52779172Y-35390602D01*
X52633501Y-35330264D01*
X52633489Y-35330261D01*
X52478845Y-35299500D01*
X52478842Y-35299500D01*
X52321158Y-35299500D01*
X52321155Y-35299500D01*
X52166510Y-35330261D01*
X52166498Y-35330264D01*
X52020827Y-35390602D01*
X52020814Y-35390609D01*
X51889711Y-35478210D01*
X51889707Y-35478213D01*
X51778213Y-35589707D01*
X51778210Y-35589711D01*
X51690609Y-35720814D01*
X51690602Y-35720827D01*
X51630264Y-35866498D01*
X51630261Y-35866508D01*
X51599361Y-36021850D01*
X51566976Y-36083761D01*
X51565425Y-36085339D01*
X50537584Y-37113181D01*
X50476261Y-37146666D01*
X50449903Y-37149500D01*
X45897956Y-37149500D01*
X45830917Y-37129815D01*
X45785162Y-37077011D01*
X45776339Y-37049691D01*
X45769738Y-37016510D01*
X45769737Y-37016503D01*
X45760504Y-36994213D01*
X45709397Y-36870827D01*
X45709390Y-36870814D01*
X45621398Y-36739125D01*
X45600520Y-36672447D01*
X45600500Y-36670234D01*
X45600500Y-28535740D01*
X45620185Y-28468701D01*
X45642643Y-28442598D01*
X45651864Y-28434493D01*
X45702049Y-28405520D01*
X45813853Y-28293716D01*
X45813854Y-28293713D01*
X46369138Y-27738428D01*
X46430459Y-27704945D01*
X46469421Y-27702753D01*
X46479991Y-27703833D01*
X47080008Y-27703832D01*
X47080016Y-27703831D01*
X47080019Y-27703831D01*
X47136302Y-27698081D01*
X47182797Y-27693332D01*
X47349334Y-27638147D01*
X47498656Y-27546045D01*
X47622712Y-27421989D01*
X47624752Y-27418680D01*
X47626745Y-27416888D01*
X47627193Y-27416322D01*
X47627289Y-27416398D01*
X47676694Y-27371956D01*
X47745656Y-27360728D01*
X47809740Y-27388567D01*
X47835829Y-27418672D01*
X47837681Y-27421674D01*
X47837683Y-27421677D01*
X47961654Y-27545648D01*
X48110875Y-27637689D01*
X48110880Y-27637691D01*
X48277302Y-27692838D01*
X48277309Y-27692839D01*
X48380019Y-27703332D01*
X48930000Y-27703332D01*
X48979972Y-27703332D01*
X48979986Y-27703331D01*
X49082697Y-27692838D01*
X49249119Y-27637691D01*
X49249124Y-27637689D01*
X49398345Y-27545648D01*
X49522315Y-27421678D01*
X49614356Y-27272457D01*
X49614358Y-27272452D01*
X49669505Y-27106030D01*
X49669506Y-27106023D01*
X49679999Y-27003319D01*
X49680000Y-27003306D01*
X49680000Y-26728333D01*
X48930000Y-26728333D01*
X48930000Y-27703332D01*
X48380019Y-27703332D01*
X48429999Y-27703331D01*
X48430000Y-27703331D01*
X48430000Y-26395000D01*
X55624500Y-26395000D01*
X55624500Y-26396888D01*
X55624500Y-27705028D01*
X55626954Y-27754735D01*
X55626957Y-27754782D01*
X55627153Y-27756765D01*
X55627186Y-27757026D01*
X55627232Y-27757556D01*
X55627301Y-27758254D01*
X55627292Y-27758254D01*
X55627811Y-27764238D01*
X55627843Y-27764236D01*
X55627957Y-27765782D01*
X55628148Y-27767715D01*
X55635507Y-27817078D01*
X55635514Y-27817122D01*
X55637504Y-27827072D01*
X55637512Y-27827110D01*
X55648634Y-27871944D01*
X55648644Y-27871980D01*
X55649161Y-27873719D01*
X55649172Y-27873752D01*
X55664360Y-27917426D01*
X55664382Y-27917484D01*
X55670362Y-27932434D01*
X55670370Y-27932452D01*
X55678716Y-27952103D01*
X55679057Y-27952861D01*
X55679066Y-27952881D01*
X55679071Y-27952891D01*
X55687914Y-27971521D01*
X55702886Y-28001465D01*
X55702892Y-28001476D01*
X55704820Y-28005331D01*
X55710592Y-28013602D01*
X55714211Y-28019635D01*
X55714211Y-28019636D01*
X55716946Y-28024195D01*
X55730959Y-28046242D01*
X55731534Y-28047097D01*
X55731544Y-28047111D01*
X55731546Y-28047114D01*
X55746600Y-28068300D01*
X55749587Y-28072284D01*
X55772145Y-28100236D01*
X55773054Y-28101285D01*
X55773069Y-28101301D01*
X55786276Y-28115478D01*
X55817568Y-28177946D01*
X55810120Y-28247418D01*
X55786280Y-28284516D01*
X55773065Y-28298702D01*
X55772145Y-28299763D01*
X55749587Y-28327715D01*
X55746600Y-28331699D01*
X55731546Y-28352885D01*
X55730961Y-28353754D01*
X55716939Y-28375815D01*
X55710565Y-28386438D01*
X55710566Y-28386439D01*
X55708135Y-28390490D01*
X55704347Y-28396301D01*
X55703062Y-28398587D01*
X55702209Y-28400369D01*
X55698320Y-28406852D01*
X55698318Y-28406855D01*
X55696495Y-28409892D01*
X55692940Y-28418426D01*
X55687906Y-28428494D01*
X55679071Y-28447108D01*
X55678716Y-28447897D01*
X55670362Y-28467565D01*
X55664382Y-28482515D01*
X55664360Y-28482573D01*
X55649172Y-28526247D01*
X55649161Y-28526280D01*
X55648644Y-28528019D01*
X55648634Y-28528055D01*
X55637512Y-28572889D01*
X55637504Y-28572927D01*
X55635514Y-28582877D01*
X55635507Y-28582921D01*
X55628148Y-28632284D01*
X55627954Y-28634250D01*
X55627842Y-28635766D01*
X55627811Y-28635763D01*
X55627293Y-28641749D01*
X55627301Y-28641750D01*
X55627244Y-28642320D01*
X55627192Y-28642928D01*
X55627153Y-28643236D01*
X55626956Y-28645230D01*
X55626954Y-28645264D01*
X55624500Y-28694971D01*
X55624500Y-30005028D01*
X55626954Y-30054735D01*
X55626957Y-30054782D01*
X55627153Y-30056765D01*
X55627186Y-30057026D01*
X55627232Y-30057556D01*
X55627301Y-30058254D01*
X55627292Y-30058254D01*
X55627811Y-30064238D01*
X55627843Y-30064236D01*
X55627957Y-30065782D01*
X55628148Y-30067715D01*
X55635507Y-30117078D01*
X55635514Y-30117122D01*
X55637504Y-30127072D01*
X55637512Y-30127110D01*
X55648634Y-30171944D01*
X55648644Y-30171980D01*
X55649161Y-30173719D01*
X55649172Y-30173752D01*
X55664360Y-30217426D01*
X55664382Y-30217484D01*
X55670362Y-30232434D01*
X55674166Y-30241391D01*
X55678716Y-30252103D01*
X55679057Y-30252861D01*
X55679066Y-30252881D01*
X55679071Y-30252891D01*
X55687914Y-30271521D01*
X55702886Y-30301465D01*
X55702892Y-30301476D01*
X55704820Y-30305331D01*
X55710592Y-30313602D01*
X55714211Y-30319635D01*
X55714211Y-30319636D01*
X55716946Y-30324195D01*
X55730959Y-30346242D01*
X55731534Y-30347097D01*
X55731544Y-30347111D01*
X55731546Y-30347114D01*
X55746600Y-30368300D01*
X55749587Y-30372284D01*
X55772145Y-30400236D01*
X55773066Y-30401298D01*
X55795366Y-30425237D01*
X55795374Y-30425245D01*
X55797487Y-30427513D01*
X55797949Y-30427975D01*
X55803558Y-30434442D01*
X55805558Y-30436442D01*
X55812024Y-30442050D01*
X55812487Y-30442513D01*
X55838699Y-30466931D01*
X55839770Y-30467860D01*
X55867700Y-30490400D01*
X55867715Y-30490412D01*
X55870703Y-30492652D01*
X55871700Y-30493400D01*
X55892903Y-30508466D01*
X55893758Y-30509041D01*
X55915805Y-30523054D01*
X55920364Y-30525789D01*
X55920364Y-30525788D01*
X55926458Y-30529444D01*
X55926464Y-30529448D01*
X55930481Y-30531858D01*
X55936301Y-30535653D01*
X55938587Y-30536938D01*
X55940373Y-30537792D01*
X55946851Y-30541679D01*
X55946852Y-30541680D01*
X55949941Y-30543533D01*
X55958476Y-30547084D01*
X55968480Y-30552086D01*
X55979948Y-30557529D01*
X55987139Y-30560943D01*
X55987897Y-30561284D01*
X56007548Y-30569630D01*
X56007556Y-30569633D01*
X56007565Y-30569637D01*
X56022515Y-30575617D01*
X56022524Y-30575620D01*
X56022548Y-30575630D01*
X56022563Y-30575635D01*
X56022573Y-30575639D01*
X56046074Y-30583811D01*
X56066275Y-30590837D01*
X56068028Y-30591358D01*
X56068044Y-30591362D01*
X56068055Y-30591365D01*
X56112889Y-30602487D01*
X56112894Y-30602488D01*
X56112902Y-30602490D01*
X56122902Y-30604490D01*
X56172273Y-30611850D01*
X56173456Y-30611967D01*
X56174222Y-30612043D01*
X56174229Y-30612043D01*
X56174234Y-30612044D01*
X56174238Y-30612044D01*
X56175750Y-30612156D01*
X56175747Y-30612191D01*
X56181745Y-30612709D01*
X56181747Y-30612699D01*
X56182555Y-30612779D01*
X56183054Y-30612822D01*
X56183243Y-30612845D01*
X56183273Y-30612850D01*
X56185234Y-30613044D01*
X56211462Y-30614338D01*
X56234971Y-30615499D01*
X56234992Y-30615499D01*
X56235000Y-30615500D01*
X56235005Y-30615500D01*
X58344995Y-30615500D01*
X58345000Y-30615500D01*
X58345007Y-30615499D01*
X58345028Y-30615499D01*
X58365845Y-30614471D01*
X58394766Y-30613044D01*
X58394790Y-30613041D01*
X58394800Y-30613041D01*
X58395620Y-30612959D01*
X58396727Y-30612850D01*
X58396755Y-30612845D01*
X58396977Y-30612819D01*
X58397511Y-30612772D01*
X58398257Y-30612699D01*
X58398257Y-30612708D01*
X58404254Y-30612189D01*
X58404252Y-30612156D01*
X58405738Y-30612045D01*
X58405766Y-30612044D01*
X58407727Y-30611850D01*
X58457098Y-30604490D01*
X58467098Y-30602490D01*
X58511972Y-30591358D01*
X58513725Y-30590837D01*
X58557452Y-30575630D01*
X58572452Y-30569630D01*
X58592103Y-30561284D01*
X58592861Y-30560943D01*
X58611538Y-30552077D01*
X58615160Y-30550266D01*
X58615159Y-30550265D01*
X58621593Y-30547049D01*
X58641484Y-30537104D01*
X58645313Y-30535189D01*
X58653582Y-30529420D01*
X58659635Y-30525788D01*
X58659636Y-30525789D01*
X58664195Y-30523054D01*
X58686242Y-30509041D01*
X58687097Y-30508466D01*
X58708300Y-30493400D01*
X58712300Y-30490400D01*
X58740230Y-30467860D01*
X58741301Y-30466931D01*
X58767513Y-30442513D01*
X58767975Y-30442050D01*
X58774442Y-30436442D01*
X58776442Y-30434442D01*
X58782050Y-30427975D01*
X58782513Y-30427513D01*
X58806931Y-30401301D01*
X58807860Y-30400230D01*
X58830400Y-30372300D01*
X58833400Y-30368300D01*
X58848466Y-30347097D01*
X58849041Y-30346242D01*
X58863054Y-30324195D01*
X58865789Y-30319636D01*
X58865788Y-30319635D01*
X58869420Y-30313582D01*
X58869423Y-30313578D01*
X58871862Y-30309511D01*
X58875653Y-30303699D01*
X58876938Y-30301413D01*
X58877792Y-30299627D01*
X58881682Y-30293144D01*
X58883494Y-30290122D01*
X58887054Y-30281583D01*
X58890266Y-30275160D01*
X58892077Y-30271538D01*
X58900943Y-30252861D01*
X58901284Y-30252103D01*
X58909630Y-30232452D01*
X58915630Y-30217452D01*
X58930837Y-30173725D01*
X58931358Y-30171972D01*
X58942490Y-30127098D01*
X58944490Y-30117098D01*
X58951850Y-30067727D01*
X58952044Y-30065766D01*
X58952045Y-30065738D01*
X58952156Y-30064252D01*
X58952189Y-30064254D01*
X58952708Y-30058257D01*
X58952699Y-30058257D01*
X58952772Y-30057511D01*
X58952819Y-30056977D01*
X58952845Y-30056755D01*
X58952850Y-30056727D01*
X58953044Y-30054766D01*
X58955500Y-30005000D01*
X58955500Y-28695000D01*
X58955173Y-28688380D01*
X58953764Y-28659818D01*
X58953044Y-28645234D01*
X58952850Y-28643273D01*
X58952845Y-28643243D01*
X58952822Y-28643054D01*
X58952779Y-28642555D01*
X58952699Y-28641747D01*
X58952709Y-28641745D01*
X58952191Y-28635747D01*
X58952156Y-28635750D01*
X58952043Y-28634222D01*
X58951851Y-28632286D01*
X58951851Y-28632284D01*
X58951850Y-28632273D01*
X58944490Y-28582902D01*
X58942490Y-28572902D01*
X58942487Y-28572889D01*
X58931365Y-28528055D01*
X58931362Y-28528044D01*
X58931358Y-28528028D01*
X58930837Y-28526275D01*
X58915630Y-28482548D01*
X58909630Y-28467548D01*
X58901284Y-28447897D01*
X58900943Y-28447139D01*
X58896377Y-28437521D01*
X58892086Y-28428480D01*
X58875215Y-28394738D01*
X58869444Y-28386458D01*
X58865788Y-28380364D01*
X58865789Y-28380364D01*
X58863054Y-28375805D01*
X58849041Y-28353758D01*
X58848466Y-28352903D01*
X58833400Y-28331700D01*
X58832652Y-28330703D01*
X58830412Y-28327715D01*
X58807854Y-28299763D01*
X58806933Y-28298701D01*
X58793722Y-28284519D01*
X58779091Y-28255310D01*
X58763357Y-28226673D01*
X58763525Y-28224234D01*
X58762430Y-28222048D01*
X58765914Y-28189551D01*
X58768160Y-28156969D01*
X58769672Y-28154514D01*
X58769880Y-28152577D01*
X58784993Y-28125948D01*
X58789061Y-28120483D01*
X58806931Y-28101301D01*
X58807860Y-28100230D01*
X58830400Y-28072300D01*
X58833400Y-28068300D01*
X58848466Y-28047097D01*
X58849041Y-28046242D01*
X58863054Y-28024195D01*
X58865789Y-28019636D01*
X58865409Y-28019408D01*
X58873134Y-28007561D01*
X58875966Y-28003758D01*
X58877105Y-28001482D01*
X58881682Y-27993144D01*
X58883494Y-27990122D01*
X58887054Y-27981583D01*
X58890266Y-27975160D01*
X58892077Y-27971538D01*
X58900943Y-27952861D01*
X58901284Y-27952103D01*
X58909630Y-27932452D01*
X58915630Y-27917452D01*
X58930837Y-27873725D01*
X58931358Y-27871972D01*
X58942490Y-27827098D01*
X58944490Y-27817098D01*
X58951850Y-27767727D01*
X58952044Y-27765766D01*
X58952045Y-27765738D01*
X58952156Y-27764252D01*
X58952189Y-27764254D01*
X58952708Y-27758257D01*
X58952699Y-27758257D01*
X58952772Y-27757511D01*
X58952819Y-27756977D01*
X58952845Y-27756755D01*
X58952850Y-27756727D01*
X58953044Y-27754766D01*
X58955500Y-27705000D01*
X58955500Y-26395000D01*
X58954559Y-26375941D01*
X58953045Y-26345264D01*
X58953044Y-26345234D01*
X58952850Y-26343273D01*
X58952845Y-26343243D01*
X58952822Y-26343054D01*
X58952779Y-26342555D01*
X58952699Y-26341747D01*
X58952709Y-26341745D01*
X58952191Y-26335747D01*
X58952156Y-26335750D01*
X58952043Y-26334222D01*
X58951851Y-26332286D01*
X58951851Y-26332284D01*
X58951850Y-26332273D01*
X58944490Y-26282902D01*
X58942490Y-26272902D01*
X58935515Y-26244786D01*
X58931365Y-26228055D01*
X58931362Y-26228044D01*
X58931358Y-26228028D01*
X58930837Y-26226275D01*
X58922713Y-26202914D01*
X58915639Y-26182573D01*
X58915617Y-26182515D01*
X58909637Y-26167565D01*
X58909630Y-26167548D01*
X58901284Y-26147897D01*
X58900943Y-26147139D01*
X58897529Y-26139948D01*
X58892086Y-26128480D01*
X58875215Y-26094738D01*
X58869444Y-26086458D01*
X58865788Y-26080364D01*
X58865789Y-26080364D01*
X58863054Y-26075805D01*
X58849041Y-26053758D01*
X58848466Y-26052903D01*
X58833400Y-26031700D01*
X58831466Y-26029121D01*
X58830412Y-26027715D01*
X58830400Y-26027700D01*
X58807860Y-25999770D01*
X58806931Y-25998699D01*
X58782513Y-25972487D01*
X58782050Y-25972024D01*
X58776442Y-25965558D01*
X58774442Y-25963558D01*
X58767975Y-25957949D01*
X58767513Y-25957487D01*
X58765248Y-25955377D01*
X58765237Y-25955366D01*
X58741298Y-25933066D01*
X58740236Y-25932145D01*
X58712284Y-25909587D01*
X58708300Y-25906600D01*
X58687114Y-25891546D01*
X58687111Y-25891544D01*
X58687097Y-25891534D01*
X58686242Y-25890959D01*
X58664195Y-25876946D01*
X58659636Y-25874211D01*
X58659635Y-25874211D01*
X58653602Y-25870592D01*
X58653600Y-25870590D01*
X58649514Y-25868139D01*
X58643699Y-25864347D01*
X58641413Y-25863062D01*
X58639628Y-25862207D01*
X58633141Y-25858316D01*
X58630158Y-25856526D01*
X58621631Y-25852969D01*
X58611521Y-25847914D01*
X58592891Y-25839071D01*
X58592881Y-25839066D01*
X58592861Y-25839057D01*
X58592103Y-25838716D01*
X58581391Y-25834166D01*
X58572434Y-25830362D01*
X58557484Y-25824382D01*
X58557426Y-25824360D01*
X58513752Y-25809172D01*
X58513719Y-25809161D01*
X58511980Y-25808644D01*
X58511944Y-25808634D01*
X58467110Y-25797512D01*
X58467072Y-25797504D01*
X58457122Y-25795514D01*
X58457102Y-25795510D01*
X58457098Y-25795510D01*
X58457078Y-25795507D01*
X58407715Y-25788148D01*
X58405782Y-25787957D01*
X58404236Y-25787843D01*
X58404238Y-25787811D01*
X58398254Y-25787292D01*
X58398254Y-25787301D01*
X58397556Y-25787232D01*
X58397026Y-25787186D01*
X58396765Y-25787153D01*
X58394782Y-25786957D01*
X58394735Y-25786954D01*
X58345028Y-25784500D01*
X58345000Y-25784500D01*
X56235000Y-25784500D01*
X56234971Y-25784500D01*
X56185264Y-25786954D01*
X56185230Y-25786956D01*
X56183236Y-25787153D01*
X56182928Y-25787192D01*
X56182320Y-25787244D01*
X56181750Y-25787301D01*
X56181749Y-25787293D01*
X56175763Y-25787811D01*
X56175766Y-25787842D01*
X56174250Y-25787954D01*
X56172284Y-25788148D01*
X56122921Y-25795507D01*
X56122877Y-25795514D01*
X56112927Y-25797504D01*
X56112889Y-25797512D01*
X56068055Y-25808634D01*
X56068019Y-25808644D01*
X56066280Y-25809161D01*
X56066247Y-25809172D01*
X56022573Y-25824360D01*
X56022515Y-25824382D01*
X56007565Y-25830362D01*
X55987897Y-25838716D01*
X55987108Y-25839071D01*
X55968494Y-25847906D01*
X55958426Y-25852940D01*
X55958425Y-25852939D01*
X55938538Y-25862883D01*
X55938528Y-25862889D01*
X55934724Y-25864790D01*
X55926448Y-25870560D01*
X55915815Y-25876939D01*
X55893754Y-25890961D01*
X55892885Y-25891546D01*
X55871699Y-25906600D01*
X55867715Y-25909587D01*
X55839763Y-25932145D01*
X55838702Y-25933065D01*
X55814760Y-25955367D01*
X55814722Y-25955404D01*
X55812487Y-25957487D01*
X55812024Y-25957949D01*
X55805558Y-25963558D01*
X55803558Y-25965558D01*
X55797949Y-25972024D01*
X55797487Y-25972487D01*
X55795404Y-25974722D01*
X55795367Y-25974760D01*
X55773065Y-25998702D01*
X55772145Y-25999763D01*
X55749587Y-26027715D01*
X55746600Y-26031699D01*
X55731546Y-26052885D01*
X55730961Y-26053754D01*
X55716939Y-26075815D01*
X55710565Y-26086438D01*
X55710566Y-26086439D01*
X55708135Y-26090490D01*
X55704347Y-26096301D01*
X55703062Y-26098587D01*
X55702209Y-26100369D01*
X55698320Y-26106852D01*
X55698318Y-26106855D01*
X55696495Y-26109892D01*
X55692940Y-26118426D01*
X55687906Y-26128494D01*
X55679071Y-26147108D01*
X55678716Y-26147897D01*
X55670362Y-26167565D01*
X55664382Y-26182515D01*
X55664360Y-26182573D01*
X55649172Y-26226247D01*
X55649161Y-26226280D01*
X55648644Y-26228019D01*
X55648634Y-26228055D01*
X55637512Y-26272889D01*
X55637504Y-26272927D01*
X55635514Y-26282877D01*
X55635507Y-26282921D01*
X55628148Y-26332284D01*
X55627954Y-26334250D01*
X55627949Y-26334316D01*
X55627936Y-26334578D01*
X55627636Y-26340008D01*
X55627150Y-26343273D01*
X55626956Y-26345234D01*
X55624500Y-26395000D01*
X48430000Y-26395000D01*
X48430000Y-26228333D01*
X48930000Y-26228333D01*
X49679999Y-26228333D01*
X49679999Y-25953361D01*
X49679998Y-25953346D01*
X49669505Y-25850635D01*
X49614358Y-25684213D01*
X49614356Y-25684208D01*
X49522315Y-25534987D01*
X49398345Y-25411017D01*
X49249124Y-25318976D01*
X49249119Y-25318974D01*
X49082697Y-25263827D01*
X49082690Y-25263826D01*
X48979986Y-25253333D01*
X48930000Y-25253333D01*
X48930000Y-26228333D01*
X48430000Y-26228333D01*
X48430000Y-25253333D01*
X48429999Y-25253332D01*
X48380029Y-25253333D01*
X48380011Y-25253334D01*
X48277302Y-25263827D01*
X48110880Y-25318974D01*
X48110875Y-25318976D01*
X47961654Y-25411017D01*
X47837683Y-25534988D01*
X47837679Y-25534993D01*
X47835826Y-25537998D01*
X47834018Y-25539623D01*
X47833202Y-25540656D01*
X47833025Y-25540516D01*
X47783874Y-25584718D01*
X47714911Y-25595934D01*
X47650831Y-25568085D01*
X47624753Y-25537986D01*
X47624737Y-25537961D01*
X47622712Y-25534677D01*
X47498656Y-25410621D01*
X47498655Y-25410620D01*
X47439402Y-25374072D01*
X47392678Y-25322124D01*
X47380500Y-25268534D01*
X47380500Y-24886464D01*
X47400185Y-24819425D01*
X47439403Y-24780925D01*
X47498656Y-24744379D01*
X47622712Y-24620323D01*
X47624752Y-24617014D01*
X47626745Y-24615222D01*
X47627193Y-24614656D01*
X47627289Y-24614732D01*
X47676694Y-24570290D01*
X47745656Y-24559062D01*
X47809740Y-24586901D01*
X47835829Y-24617006D01*
X47837681Y-24620008D01*
X47837683Y-24620011D01*
X47961654Y-24743982D01*
X48110875Y-24836023D01*
X48110880Y-24836025D01*
X48277302Y-24891172D01*
X48277309Y-24891173D01*
X48380019Y-24901666D01*
X48930000Y-24901666D01*
X48979972Y-24901666D01*
X48979986Y-24901665D01*
X49082697Y-24891172D01*
X49249119Y-24836025D01*
X49249124Y-24836023D01*
X49398345Y-24743982D01*
X49522315Y-24620012D01*
X49614356Y-24470791D01*
X49614358Y-24470786D01*
X49669505Y-24304364D01*
X49669506Y-24304357D01*
X49679999Y-24201653D01*
X49680000Y-24201640D01*
X49680000Y-23926667D01*
X48930000Y-23926667D01*
X48930000Y-24901666D01*
X48380019Y-24901666D01*
X48429999Y-24901665D01*
X48430000Y-24901665D01*
X48430000Y-23426667D01*
X48930000Y-23426667D01*
X49679999Y-23426667D01*
X49679999Y-23151695D01*
X49679998Y-23151680D01*
X49669505Y-23048969D01*
X49614358Y-22882547D01*
X49614356Y-22882542D01*
X49522315Y-22733321D01*
X49398345Y-22609351D01*
X49249124Y-22517310D01*
X49249119Y-22517308D01*
X49082697Y-22462161D01*
X49082690Y-22462160D01*
X48979986Y-22451667D01*
X48930000Y-22451667D01*
X48930000Y-23426667D01*
X48430000Y-23426667D01*
X48430000Y-22451667D01*
X48429999Y-22451666D01*
X48380029Y-22451667D01*
X48380011Y-22451668D01*
X48277302Y-22462161D01*
X48110880Y-22517308D01*
X48110875Y-22517310D01*
X47961654Y-22609351D01*
X47837683Y-22733322D01*
X47837679Y-22733327D01*
X47835826Y-22736332D01*
X47834018Y-22737957D01*
X47833202Y-22738990D01*
X47833025Y-22738850D01*
X47783874Y-22783052D01*
X47714911Y-22794268D01*
X47650831Y-22766419D01*
X47624753Y-22736320D01*
X47624737Y-22736295D01*
X47622712Y-22733011D01*
X47498656Y-22608955D01*
X47349334Y-22516853D01*
X47182797Y-22461668D01*
X47182795Y-22461667D01*
X47080010Y-22451167D01*
X46479998Y-22451167D01*
X46479980Y-22451168D01*
X46437101Y-22455549D01*
X46422028Y-22452746D01*
X46406853Y-22454929D01*
X46388376Y-22446491D01*
X46368408Y-22442779D01*
X46357242Y-22432272D01*
X46343297Y-22425904D01*
X46332315Y-22408816D01*
X46317524Y-22394898D01*
X46313247Y-22379145D01*
X46305523Y-22367126D01*
X46300500Y-22332191D01*
X46300500Y-22200097D01*
X46320185Y-22133058D01*
X46336819Y-22112416D01*
X46364138Y-22085097D01*
X46425461Y-22051612D01*
X46464422Y-22049420D01*
X46474991Y-22050500D01*
X47075008Y-22050499D01*
X47075016Y-22050498D01*
X47075019Y-22050498D01*
X47131302Y-22044748D01*
X47177797Y-22039999D01*
X47344334Y-21984814D01*
X47493656Y-21892712D01*
X47617712Y-21768656D01*
X47619752Y-21765347D01*
X47621745Y-21763555D01*
X47622193Y-21762989D01*
X47622289Y-21763065D01*
X47671694Y-21718623D01*
X47740656Y-21707395D01*
X47804740Y-21735234D01*
X47830829Y-21765339D01*
X47832681Y-21768341D01*
X47832683Y-21768344D01*
X47956654Y-21892315D01*
X48105875Y-21984356D01*
X48105880Y-21984358D01*
X48272302Y-22039505D01*
X48272309Y-22039506D01*
X48375019Y-22049999D01*
X48925000Y-22049999D01*
X48974972Y-22049999D01*
X48974986Y-22049998D01*
X49077697Y-22039505D01*
X49244119Y-21984358D01*
X49244124Y-21984356D01*
X49393345Y-21892315D01*
X49517315Y-21768345D01*
X49609356Y-21619124D01*
X49609358Y-21619119D01*
X49664505Y-21452697D01*
X49664506Y-21452690D01*
X49674999Y-21349986D01*
X49675000Y-21349973D01*
X49675000Y-21075000D01*
X48925000Y-21075000D01*
X48925000Y-22049999D01*
X48375019Y-22049999D01*
X48424999Y-22049998D01*
X48425000Y-22049998D01*
X48425000Y-20575000D01*
X48925000Y-20575000D01*
X49674999Y-20575000D01*
X49674999Y-20300028D01*
X49674998Y-20300013D01*
X49664505Y-20197302D01*
X49609358Y-20030880D01*
X49609356Y-20030875D01*
X49517315Y-19881654D01*
X49393345Y-19757684D01*
X49244124Y-19665643D01*
X49244119Y-19665641D01*
X49077697Y-19610494D01*
X49077690Y-19610493D01*
X48974986Y-19600000D01*
X48925000Y-19600000D01*
X48925000Y-20575000D01*
X48425000Y-20575000D01*
X48425000Y-19600000D01*
X48424999Y-19599999D01*
X48375029Y-19600000D01*
X48375011Y-19600001D01*
X48272302Y-19610494D01*
X48105880Y-19665641D01*
X48105875Y-19665643D01*
X47956654Y-19757684D01*
X47832683Y-19881655D01*
X47832679Y-19881660D01*
X47830826Y-19884665D01*
X47829018Y-19886290D01*
X47828202Y-19887323D01*
X47828025Y-19887183D01*
X47778874Y-19931385D01*
X47709911Y-19942601D01*
X47645831Y-19914752D01*
X47619753Y-19884653D01*
X47619042Y-19883500D01*
X47617712Y-19881344D01*
X47493656Y-19757288D01*
X47357826Y-19673508D01*
X47344336Y-19665187D01*
X47344331Y-19665185D01*
X47342862Y-19664698D01*
X47177797Y-19610001D01*
X47177795Y-19610000D01*
X47075010Y-19599500D01*
X46474998Y-19599500D01*
X46474980Y-19599501D01*
X46372203Y-19610000D01*
X46372200Y-19610001D01*
X46205668Y-19665185D01*
X46205663Y-19665187D01*
X46056342Y-19757289D01*
X45932288Y-19881343D01*
X45932285Y-19881347D01*
X45842744Y-20026516D01*
X45790796Y-20073241D01*
X45721834Y-20084462D01*
X45657752Y-20056619D01*
X45631667Y-20026516D01*
X45542315Y-19881654D01*
X45418345Y-19757684D01*
X45269124Y-19665643D01*
X45269119Y-19665641D01*
X45102697Y-19610494D01*
X45102690Y-19610493D01*
X44999986Y-19600000D01*
X44950000Y-19600000D01*
X44950000Y-22049999D01*
X44975500Y-22049999D01*
X45042539Y-22069684D01*
X45088294Y-22122488D01*
X45099500Y-22173999D01*
X45099500Y-24949902D01*
X45079815Y-25016941D01*
X45063181Y-25037583D01*
X44656859Y-25443904D01*
X44595536Y-25477389D01*
X44525844Y-25472405D01*
X44490213Y-25449508D01*
X44489645Y-25450268D01*
X44367335Y-25358706D01*
X44367328Y-25358702D01*
X44232482Y-25308408D01*
X44232483Y-25308408D01*
X44172883Y-25302001D01*
X44172881Y-25302000D01*
X44172873Y-25302000D01*
X44172865Y-25302000D01*
X42546595Y-25302000D01*
X42479556Y-25282315D01*
X42433801Y-25229511D01*
X42423857Y-25160353D01*
X42452882Y-25096797D01*
X42458900Y-25090333D01*
X42709916Y-24839318D01*
X42771239Y-24805833D01*
X42797597Y-24802999D01*
X44172871Y-24802999D01*
X44172872Y-24802999D01*
X44232483Y-24796591D01*
X44367331Y-24746296D01*
X44482546Y-24660046D01*
X44568796Y-24544831D01*
X44619091Y-24409983D01*
X44625500Y-24350373D01*
X44625499Y-23254628D01*
X44619091Y-23195017D01*
X44602927Y-23151680D01*
X44568797Y-23060171D01*
X44568793Y-23060164D01*
X44482547Y-22944955D01*
X44482544Y-22944952D01*
X44367335Y-22858706D01*
X44367328Y-22858702D01*
X44232482Y-22808408D01*
X44232483Y-22808408D01*
X44172883Y-22802001D01*
X44172881Y-22802000D01*
X44172873Y-22802000D01*
X44172865Y-22802000D01*
X43524500Y-22802000D01*
X43457461Y-22782315D01*
X43411706Y-22729511D01*
X43400500Y-22678000D01*
X43400500Y-22034797D01*
X43420185Y-21967758D01*
X43459403Y-21929258D01*
X43518656Y-21892712D01*
X43642712Y-21768656D01*
X43644752Y-21765347D01*
X43646745Y-21763555D01*
X43647193Y-21762989D01*
X43647289Y-21763065D01*
X43696694Y-21718623D01*
X43765656Y-21707395D01*
X43829740Y-21735234D01*
X43855829Y-21765339D01*
X43857681Y-21768341D01*
X43857683Y-21768344D01*
X43981654Y-21892315D01*
X44130875Y-21984356D01*
X44130880Y-21984358D01*
X44297302Y-22039505D01*
X44297309Y-22039506D01*
X44400019Y-22049999D01*
X44449999Y-22049998D01*
X44450000Y-22049998D01*
X44450000Y-19600000D01*
X44449999Y-19599999D01*
X44400029Y-19600000D01*
X44400011Y-19600001D01*
X44297302Y-19610494D01*
X44130880Y-19665641D01*
X44130875Y-19665643D01*
X43981654Y-19757684D01*
X43857683Y-19881655D01*
X43857679Y-19881660D01*
X43855826Y-19884665D01*
X43854018Y-19886290D01*
X43853202Y-19887323D01*
X43853025Y-19887183D01*
X43803874Y-19931385D01*
X43734911Y-19942601D01*
X43670831Y-19914752D01*
X43644753Y-19884653D01*
X43644042Y-19883500D01*
X43642712Y-19881344D01*
X43518656Y-19757288D01*
X43382826Y-19673508D01*
X43369336Y-19665187D01*
X43369331Y-19665185D01*
X43367862Y-19664698D01*
X43202797Y-19610001D01*
X43202795Y-19610000D01*
X43100010Y-19599500D01*
X42499998Y-19599500D01*
X42499980Y-19599501D01*
X42397203Y-19610000D01*
X42397200Y-19610001D01*
X42230668Y-19665185D01*
X42230663Y-19665187D01*
X42081342Y-19757289D01*
X41957289Y-19881342D01*
X41865187Y-20030663D01*
X41865185Y-20030668D01*
X41865115Y-20030880D01*
X41810001Y-20197203D01*
X41810001Y-20197204D01*
X41810000Y-20197204D01*
X41799500Y-20299983D01*
X41799500Y-21350001D01*
X41799501Y-21350019D01*
X41810000Y-21452796D01*
X41810001Y-21452799D01*
X41836009Y-21531284D01*
X41865186Y-21619334D01*
X41957288Y-21768656D01*
X42081344Y-21892712D01*
X42140596Y-21929258D01*
X42187321Y-21981204D01*
X42199500Y-22034797D01*
X42199500Y-22729033D01*
X42179815Y-22796072D01*
X42127011Y-22841827D01*
X42118836Y-22845214D01*
X42082665Y-22858705D01*
X41967455Y-22944952D01*
X41967452Y-22944955D01*
X41881206Y-23060164D01*
X41881202Y-23060171D01*
X41830908Y-23195017D01*
X41824501Y-23254616D01*
X41824501Y-23254623D01*
X41824500Y-23254635D01*
X41824500Y-23974902D01*
X41804815Y-24041941D01*
X41788181Y-24062583D01*
X40774109Y-25076654D01*
X40712786Y-25110139D01*
X40643094Y-25105155D01*
X40587161Y-25063283D01*
X40571867Y-25036426D01*
X40556779Y-25000000D01*
X40524536Y-24922159D01*
X40428282Y-24796718D01*
X40302841Y-24700464D01*
X40205263Y-24660046D01*
X40156762Y-24639956D01*
X40156760Y-24639955D01*
X40039370Y-24624501D01*
X40039367Y-24624500D01*
X40039361Y-24624500D01*
X40039354Y-24624500D01*
X39724500Y-24624500D01*
X39657461Y-24604815D01*
X39611706Y-24552011D01*
X39600500Y-24500500D01*
X39600500Y-23212596D01*
X39620185Y-23145557D01*
X39636815Y-23124919D01*
X39999916Y-22761817D01*
X40061239Y-22728333D01*
X40087597Y-22725499D01*
X40700002Y-22725499D01*
X40700008Y-22725499D01*
X40802797Y-22714999D01*
X40969334Y-22659814D01*
X41118656Y-22567712D01*
X41242712Y-22443656D01*
X41334814Y-22294334D01*
X41389999Y-22127797D01*
X41400500Y-22025009D01*
X41400499Y-21399992D01*
X41389999Y-21297203D01*
X41334814Y-21130666D01*
X41242712Y-20981344D01*
X41148695Y-20887327D01*
X41115210Y-20826004D01*
X41120194Y-20756312D01*
X41148695Y-20711964D01*
X41242317Y-20618342D01*
X41334356Y-20469124D01*
X41334358Y-20469119D01*
X41389505Y-20302697D01*
X41389506Y-20302690D01*
X41399999Y-20199986D01*
X41400000Y-20199973D01*
X41400000Y-20137500D01*
X38992577Y-20137500D01*
X38947606Y-20162055D01*
X38877914Y-20157069D01*
X38833569Y-20128569D01*
X38825000Y-20120000D01*
X36375001Y-20120000D01*
X36375001Y-20169986D01*
X36385494Y-20272697D01*
X36440641Y-20439119D01*
X36440643Y-20439124D01*
X36532684Y-20588345D01*
X36656655Y-20712316D01*
X36656659Y-20712319D01*
X36659656Y-20714168D01*
X36661279Y-20715972D01*
X36662323Y-20716798D01*
X36662181Y-20716976D01*
X36706381Y-20766116D01*
X36717602Y-20835079D01*
X36689759Y-20899161D01*
X36659661Y-20925241D01*
X36656349Y-20927283D01*
X36656343Y-20927288D01*
X36532289Y-21051342D01*
X36440187Y-21200663D01*
X36440186Y-21200666D01*
X36385001Y-21367203D01*
X36385001Y-21367204D01*
X36385000Y-21367204D01*
X36374500Y-21469983D01*
X36374500Y-22070001D01*
X36374501Y-22070019D01*
X36385000Y-22172796D01*
X36385001Y-22172799D01*
X36385399Y-22173999D01*
X36440186Y-22339334D01*
X36532288Y-22488656D01*
X36656344Y-22612712D01*
X36805666Y-22704814D01*
X36914505Y-22740879D01*
X36971949Y-22780652D01*
X36998772Y-22845167D01*
X36999500Y-22858585D01*
X36999500Y-26513330D01*
X36999499Y-26513348D01*
X36999499Y-26679054D01*
X36999498Y-26679054D01*
X37036517Y-26817206D01*
X37040423Y-26831785D01*
X37062961Y-26870821D01*
X37085571Y-26909983D01*
X37119479Y-26968715D01*
X37238349Y-27087585D01*
X37238355Y-27087590D01*
X37439584Y-27288819D01*
X37473069Y-27350142D01*
X37468085Y-27419834D01*
X37426213Y-27475767D01*
X37360749Y-27500184D01*
X37351903Y-27500500D01*
X35801155Y-27500500D01*
X35734116Y-27480815D01*
X35731815Y-27479300D01*
X35721916Y-27472623D01*
X35693773Y-27444480D01*
X35603245Y-27392214D01*
X35599497Y-27390050D01*
X35599494Y-27390048D01*
X35556847Y-27365425D01*
X35556846Y-27365424D01*
X35539320Y-27360728D01*
X35404114Y-27324499D01*
X35404111Y-27324499D01*
X35400500Y-27324499D01*
X35397563Y-27323636D01*
X35396054Y-27323438D01*
X35396084Y-27323202D01*
X35333461Y-27304814D01*
X35287706Y-27252010D01*
X35276500Y-27200499D01*
X35276500Y-23265060D01*
X35276501Y-23265047D01*
X35276501Y-23096944D01*
X35266952Y-23061308D01*
X35235577Y-22944216D01*
X35226240Y-22928043D01*
X35156524Y-22807290D01*
X35156518Y-22807282D01*
X34261415Y-21912180D01*
X34227930Y-21850857D01*
X34232914Y-21781166D01*
X34274786Y-21725232D01*
X34340250Y-21700815D01*
X34349096Y-21700499D01*
X34525002Y-21700499D01*
X34525008Y-21700499D01*
X34627797Y-21689999D01*
X34794334Y-21634814D01*
X34943656Y-21542712D01*
X35067712Y-21418656D01*
X35159814Y-21269334D01*
X35214999Y-21102797D01*
X35225500Y-21000009D01*
X35225499Y-20399992D01*
X35220104Y-20347182D01*
X35214999Y-20297203D01*
X35214998Y-20297200D01*
X35208583Y-20277842D01*
X35159814Y-20130666D01*
X35067712Y-19981344D01*
X34943656Y-19857288D01*
X34940342Y-19855243D01*
X34938546Y-19853248D01*
X34937989Y-19852807D01*
X34938064Y-19852711D01*
X34893618Y-19803297D01*
X34882397Y-19734334D01*
X34910240Y-19670252D01*
X34940348Y-19644165D01*
X34943342Y-19642318D01*
X35067315Y-19518345D01*
X35159356Y-19369124D01*
X35159358Y-19369119D01*
X35214505Y-19202697D01*
X35214506Y-19202690D01*
X35224999Y-19099986D01*
X35225000Y-19099973D01*
X35225000Y-19050000D01*
X34124000Y-19050000D01*
X34056961Y-19030315D01*
X34011206Y-18977511D01*
X34003560Y-18955499D01*
X33965475Y-18800000D01*
X33874000Y-18800000D01*
X33806961Y-18780315D01*
X33761206Y-18727511D01*
X33755054Y-18699234D01*
X35984500Y-18699234D01*
X35984500Y-18850766D01*
X35990994Y-18875001D01*
X36023719Y-18997136D01*
X36044243Y-19032684D01*
X36099485Y-19128365D01*
X36206635Y-19235515D01*
X36296728Y-19287530D01*
X36333763Y-19308913D01*
X36381979Y-19359480D01*
X36395201Y-19428087D01*
X36389471Y-19455298D01*
X36385494Y-19467300D01*
X36375000Y-19570013D01*
X36375000Y-19620000D01*
X37350000Y-19620000D01*
X37850000Y-19620000D01*
X38832421Y-19620000D01*
X38877389Y-19595445D01*
X38947080Y-19600428D01*
X38991430Y-19628930D01*
X39000000Y-19637500D01*
X39950000Y-19637500D01*
X40450000Y-19637500D01*
X41399999Y-19637500D01*
X41399999Y-19575028D01*
X41399998Y-19575013D01*
X41389505Y-19472302D01*
X41334358Y-19305880D01*
X41334356Y-19305875D01*
X41242315Y-19156654D01*
X41118345Y-19032684D01*
X40969124Y-18940643D01*
X40969119Y-18940641D01*
X40802697Y-18885494D01*
X40802690Y-18885493D01*
X40699986Y-18875000D01*
X40450000Y-18875000D01*
X40450000Y-19637500D01*
X39950000Y-19637500D01*
X39950000Y-18875000D01*
X39700029Y-18875000D01*
X39700012Y-18875001D01*
X39597302Y-18885494D01*
X39430880Y-18940641D01*
X39430875Y-18940643D01*
X39281654Y-19032684D01*
X39157684Y-19156654D01*
X39065643Y-19305875D01*
X39065642Y-19305878D01*
X39031034Y-19410318D01*
X38991261Y-19467762D01*
X38926745Y-19494585D01*
X38857969Y-19482270D01*
X38806769Y-19434726D01*
X38795622Y-19410317D01*
X38759358Y-19300880D01*
X38759356Y-19300875D01*
X38667315Y-19151654D01*
X38543345Y-19027684D01*
X38394124Y-18935643D01*
X38394119Y-18935641D01*
X38227697Y-18880494D01*
X38227690Y-18880493D01*
X38124986Y-18870000D01*
X37850000Y-18870000D01*
X37850000Y-19620000D01*
X37350000Y-19620000D01*
X37350000Y-18907563D01*
X37219727Y-18863448D01*
X37207175Y-18854635D01*
X37192461Y-18850315D01*
X37179164Y-18834969D01*
X37162544Y-18823301D01*
X37156748Y-18809100D01*
X37146706Y-18797511D01*
X37140641Y-18769633D01*
X37136143Y-18758611D01*
X37137110Y-18753403D01*
X37135500Y-18746000D01*
X37135500Y-18699236D01*
X37135500Y-18699234D01*
X41764500Y-18699234D01*
X41764500Y-18850766D01*
X41770994Y-18875001D01*
X41803719Y-18997136D01*
X41824243Y-19032684D01*
X41879485Y-19128365D01*
X41986635Y-19235515D01*
X42099841Y-19300875D01*
X42113763Y-19308913D01*
X42117865Y-19311281D01*
X42264234Y-19350500D01*
X42264236Y-19350500D01*
X42415764Y-19350500D01*
X42415766Y-19350500D01*
X42562135Y-19311281D01*
X42693365Y-19235515D01*
X42800515Y-19128365D01*
X42876281Y-18997135D01*
X42915500Y-18850766D01*
X42915500Y-18699234D01*
X42876281Y-18552865D01*
X42800515Y-18421635D01*
X42693365Y-18314485D01*
X42627750Y-18276602D01*
X42562136Y-18238719D01*
X42488950Y-18219109D01*
X42415766Y-18199500D01*
X42264234Y-18199500D01*
X42117863Y-18238719D01*
X41986635Y-18314485D01*
X41986632Y-18314487D01*
X41879487Y-18421632D01*
X41879485Y-18421635D01*
X41803719Y-18552863D01*
X41796621Y-18579355D01*
X41764500Y-18699234D01*
X37135500Y-18699234D01*
X37096281Y-18552865D01*
X37020515Y-18421635D01*
X36913365Y-18314485D01*
X36847750Y-18276602D01*
X36782136Y-18238719D01*
X36708950Y-18219109D01*
X36635766Y-18199500D01*
X36484234Y-18199500D01*
X36337863Y-18238719D01*
X36206635Y-18314485D01*
X36206632Y-18314487D01*
X36099487Y-18421632D01*
X36099485Y-18421635D01*
X36023719Y-18552863D01*
X36016621Y-18579355D01*
X35984500Y-18699234D01*
X33755054Y-18699234D01*
X33750000Y-18676000D01*
X33750000Y-18550000D01*
X34250000Y-18550000D01*
X35224999Y-18550000D01*
X35224999Y-18500028D01*
X35224998Y-18500013D01*
X35214505Y-18397302D01*
X35159358Y-18230880D01*
X35159356Y-18230875D01*
X35067315Y-18081654D01*
X34943345Y-17957684D01*
X34794124Y-17865643D01*
X34794119Y-17865641D01*
X34627697Y-17810494D01*
X34627690Y-17810493D01*
X34524986Y-17800000D01*
X34250000Y-17800000D01*
X34250000Y-18550000D01*
X33750000Y-18550000D01*
X33750000Y-17800000D01*
X33475029Y-17800000D01*
X33475012Y-17800001D01*
X33372302Y-17810494D01*
X33205880Y-17865641D01*
X33205875Y-17865643D01*
X33056654Y-17957684D01*
X32932684Y-18081654D01*
X32840643Y-18230875D01*
X32840642Y-18230878D01*
X32807732Y-18330193D01*
X32767959Y-18387638D01*
X32703443Y-18414460D01*
X32634667Y-18402145D01*
X32624929Y-18396727D01*
X32570986Y-18363454D01*
X32570981Y-18363452D01*
X32410106Y-18310144D01*
X32310822Y-18300000D01*
X31587500Y-18300000D01*
X31587500Y-19126000D01*
X31567815Y-19193039D01*
X31515011Y-19238794D01*
X31463500Y-19250000D01*
X31337500Y-19250000D01*
X31337500Y-19376000D01*
X31317815Y-19443039D01*
X31265011Y-19488794D01*
X31213500Y-19500000D01*
X30380230Y-19500000D01*
X30313191Y-19480315D01*
X30299027Y-19469712D01*
X30285799Y-19458250D01*
X30285797Y-19458248D01*
X30285794Y-19458246D01*
X30279339Y-19455298D01*
X30154919Y-19398476D01*
X30154914Y-19398475D01*
X30012500Y-19378000D01*
X25887500Y-19378000D01*
X25887497Y-19378000D01*
X25815559Y-19383144D01*
X25677505Y-19423682D01*
X25556469Y-19501467D01*
X25556465Y-19501471D01*
X25462250Y-19610200D01*
X25462244Y-19610209D01*
X25402476Y-19741080D01*
X25402475Y-19741085D01*
X25381999Y-19883507D01*
X25381938Y-19884360D01*
X25381837Y-19884628D01*
X25381370Y-19887883D01*
X25380661Y-19887781D01*
X25357514Y-19949821D01*
X25301576Y-19991687D01*
X25258255Y-19999500D01*
X21931997Y-19999500D01*
X21864958Y-19979815D01*
X21819203Y-19927011D01*
X21809259Y-19857853D01*
X21838284Y-19794297D01*
X21844316Y-19787819D01*
X22655458Y-18976677D01*
X29687500Y-18976677D01*
X29687500Y-19000000D01*
X31087500Y-19000000D01*
X31087500Y-18300000D01*
X30364192Y-18300000D01*
X30364176Y-18300001D01*
X30264892Y-18310144D01*
X30104018Y-18363452D01*
X30104007Y-18363457D01*
X29959771Y-18452424D01*
X29959767Y-18452427D01*
X29839927Y-18572267D01*
X29839924Y-18572271D01*
X29750957Y-18716507D01*
X29750952Y-18716518D01*
X29697644Y-18877393D01*
X29687500Y-18976677D01*
X22655458Y-18976677D01*
X24095316Y-17536819D01*
X24156639Y-17503334D01*
X24182997Y-17500500D01*
X48775638Y-17500500D01*
X48842677Y-17520185D01*
X48863319Y-17536819D01*
X50413181Y-19086681D01*
X50446666Y-19148004D01*
X50449500Y-19174362D01*
X50449500Y-23238696D01*
X50484103Y-23412658D01*
X50484105Y-23412666D01*
X50499461Y-23449739D01*
X50509731Y-23474531D01*
X50551987Y-23576547D01*
X50600437Y-23649057D01*
X50616165Y-23672596D01*
X50650534Y-23724034D01*
X50650538Y-23724039D01*
X51850536Y-24924035D01*
X51975965Y-25049464D01*
X52123453Y-25148013D01*
X52235165Y-25194285D01*
X52235168Y-25194286D01*
X52235169Y-25194287D01*
X52287329Y-25215892D01*
X52287334Y-25215894D01*
X52287338Y-25215894D01*
X52287339Y-25215895D01*
X52461305Y-25250500D01*
X52461308Y-25250500D01*
X55538693Y-25250500D01*
X55538694Y-25250499D01*
X55596682Y-25238964D01*
X55712658Y-25215896D01*
X55712661Y-25215894D01*
X55712666Y-25215894D01*
X55876547Y-25148013D01*
X56024035Y-25049464D01*
X56149464Y-24924035D01*
X56248013Y-24776547D01*
X56315894Y-24612666D01*
X56324871Y-24567539D01*
X56350499Y-24438695D01*
X56350500Y-24438693D01*
X56350500Y-24261306D01*
X56350499Y-24261304D01*
X56315896Y-24087341D01*
X56315893Y-24087332D01*
X56248016Y-23923459D01*
X56248009Y-23923446D01*
X56149464Y-23775965D01*
X56149461Y-23775961D01*
X56024038Y-23650538D01*
X56024034Y-23650535D01*
X55876553Y-23551990D01*
X55876540Y-23551983D01*
X55712667Y-23484106D01*
X55712658Y-23484103D01*
X55538694Y-23449500D01*
X55538691Y-23449500D01*
X52974361Y-23449500D01*
X52907322Y-23429815D01*
X52886680Y-23413181D01*
X52286819Y-22813319D01*
X52253334Y-22751996D01*
X52250500Y-22725638D01*
X52250500Y-18661308D01*
X52250499Y-18661305D01*
X52233003Y-18573344D01*
X52215895Y-18487334D01*
X52181953Y-18405393D01*
X52148013Y-18323453D01*
X52065190Y-18199500D01*
X52049464Y-18175964D01*
X52049462Y-18175961D01*
X49774039Y-15900538D01*
X49774034Y-15900534D01*
X49715339Y-15861316D01*
X49715337Y-15861315D01*
X49710566Y-15858127D01*
X49626547Y-15801987D01*
X49544606Y-15768046D01*
X49462666Y-15734105D01*
X49462658Y-15734103D01*
X49288696Y-15699500D01*
X49288692Y-15699500D01*
X49288691Y-15699500D01*
X42774500Y-15699500D01*
X42707461Y-15679815D01*
X42661706Y-15627011D01*
X42650500Y-15575500D01*
X42650500Y-15471155D01*
X42650499Y-15471153D01*
X42619737Y-15316503D01*
X42615589Y-15306488D01*
X42559397Y-15170827D01*
X42559390Y-15170814D01*
X42471789Y-15039711D01*
X42471786Y-15039707D01*
X42360292Y-14928213D01*
X42360288Y-14928210D01*
X42229185Y-14840609D01*
X42229172Y-14840602D01*
X42083501Y-14780264D01*
X42083489Y-14780261D01*
X41928845Y-14749500D01*
X41928842Y-14749500D01*
X41771158Y-14749500D01*
X41771155Y-14749500D01*
X41616510Y-14780261D01*
X41616498Y-14780264D01*
X41470827Y-14840602D01*
X41470814Y-14840609D01*
X41339125Y-14928602D01*
X41272447Y-14949480D01*
X41270234Y-14949500D01*
X39479766Y-14949500D01*
X39412727Y-14929815D01*
X39410875Y-14928602D01*
X39279185Y-14840609D01*
X39279172Y-14840602D01*
X39133501Y-14780264D01*
X39133489Y-14780261D01*
X38978845Y-14749500D01*
X38978842Y-14749500D01*
X38821158Y-14749500D01*
X38821155Y-14749500D01*
X38666510Y-14780261D01*
X38666498Y-14780264D01*
X38520827Y-14840602D01*
X38520814Y-14840609D01*
X38389711Y-14928210D01*
X38389707Y-14928213D01*
X38278213Y-15039707D01*
X38278210Y-15039711D01*
X38190609Y-15170814D01*
X38190602Y-15170827D01*
X38130264Y-15316498D01*
X38130261Y-15316510D01*
X38099500Y-15471153D01*
X38099500Y-15575500D01*
X38079815Y-15642539D01*
X38027011Y-15688294D01*
X37975500Y-15699500D01*
X23669940Y-15699500D01*
X23495977Y-15734103D01*
X23495969Y-15734105D01*
X23380864Y-15781784D01*
X23332085Y-15801988D01*
X23186144Y-15899505D01*
X23184598Y-15900537D01*
X22896288Y-16188847D01*
X22834965Y-16222332D01*
X22765273Y-16217348D01*
X22720926Y-16188847D01*
X22610292Y-16078213D01*
X22610288Y-16078210D01*
X22479185Y-15990609D01*
X22479172Y-15990602D01*
X22333501Y-15930264D01*
X22333489Y-15930261D01*
X22178845Y-15899500D01*
X22178842Y-15899500D01*
X22021158Y-15899500D01*
X22021155Y-15899500D01*
X21866510Y-15930261D01*
X21866498Y-15930264D01*
X21720827Y-15990602D01*
X21720814Y-15990609D01*
X21589711Y-16078210D01*
X21589707Y-16078213D01*
X21478213Y-16189707D01*
X21478210Y-16189711D01*
X21390609Y-16320814D01*
X21390602Y-16320827D01*
X21330264Y-16466498D01*
X21330261Y-16466510D01*
X21299500Y-16621153D01*
X21299500Y-16778846D01*
X21330261Y-16933489D01*
X21330264Y-16933501D01*
X21373031Y-17036751D01*
X21380500Y-17106221D01*
X21349224Y-17168700D01*
X21346151Y-17171884D01*
X15584637Y-22933398D01*
X15584630Y-22933405D01*
X15581286Y-22936750D01*
X15581284Y-22936752D01*
X15469480Y-23048556D01*
X15441544Y-23096943D01*
X15435781Y-23106925D01*
X15409942Y-23151680D01*
X15390423Y-23185487D01*
X15349499Y-23338215D01*
X15349499Y-23338217D01*
X15349499Y-23506318D01*
X15349500Y-23506331D01*
X15349500Y-29020234D01*
X15329815Y-29087273D01*
X15328602Y-29089125D01*
X15240609Y-29220814D01*
X15240602Y-29220827D01*
X15180264Y-29366498D01*
X15180261Y-29366510D01*
X15149500Y-29521153D01*
X15149500Y-29678846D01*
X15180261Y-29833489D01*
X15180264Y-29833501D01*
X15240602Y-29979172D01*
X15240609Y-29979185D01*
X15328210Y-30110288D01*
X15328213Y-30110292D01*
X15439707Y-30221786D01*
X15439711Y-30221789D01*
X15570814Y-30309390D01*
X15570827Y-30309397D01*
X15663385Y-30347735D01*
X15716503Y-30369737D01*
X15864105Y-30399097D01*
X15871153Y-30400499D01*
X15871156Y-30400500D01*
X15871158Y-30400500D01*
X16028844Y-30400500D01*
X16028845Y-30400499D01*
X16183497Y-30369737D01*
X16319078Y-30313578D01*
X16329172Y-30309397D01*
X16329172Y-30309396D01*
X16329179Y-30309394D01*
X16460289Y-30221789D01*
X16571789Y-30110289D01*
X16613954Y-30047185D01*
X16622398Y-30034548D01*
X16676010Y-29989743D01*
X16745335Y-29981036D01*
X16808363Y-30011190D01*
X16845082Y-30070634D01*
X16849500Y-30103439D01*
X16849500Y-35575637D01*
X16829815Y-35642676D01*
X16813181Y-35663318D01*
X15100538Y-37375960D01*
X15100537Y-37375961D01*
X15078678Y-37408677D01*
X15062267Y-37433239D01*
X15061064Y-37435039D01*
X15061063Y-37435040D01*
X15001989Y-37523448D01*
X14987624Y-37558129D01*
X14934105Y-37687333D01*
X14934103Y-37687341D01*
X14905914Y-37829055D01*
X14905915Y-37829056D01*
X14899500Y-37861309D01*
X14899500Y-43475637D01*
X14879815Y-43542676D01*
X14863181Y-43563318D01*
X14211681Y-44214818D01*
X14150358Y-44248303D01*
X14080666Y-44243319D01*
X14024733Y-44201447D01*
X14000316Y-44135983D01*
X14000000Y-44127137D01*
X14000000Y-37517947D01*
X14019685Y-37450908D01*
X14072489Y-37405153D01*
X14099809Y-37396330D01*
X14168435Y-37382678D01*
X14233497Y-37369737D01*
X14379179Y-37309394D01*
X14510289Y-37221789D01*
X14621789Y-37110289D01*
X14709394Y-36979179D01*
X14711321Y-36974528D01*
X14749483Y-36882395D01*
X14769737Y-36833497D01*
X14800500Y-36678842D01*
X14800638Y-36678150D01*
X14833023Y-36616239D01*
X14834521Y-36614713D01*
X15539491Y-35909742D01*
X15600814Y-35876258D01*
X15602910Y-35875820D01*
X15633497Y-35869737D01*
X15779179Y-35809394D01*
X15910289Y-35721789D01*
X16021789Y-35610289D01*
X16109394Y-35479179D01*
X16169737Y-35333497D01*
X16200500Y-35178842D01*
X16200500Y-35021158D01*
X16200500Y-35021155D01*
X16200499Y-35021153D01*
X16198562Y-35011416D01*
X16169737Y-34866503D01*
X16166425Y-34858507D01*
X16109397Y-34720827D01*
X16109390Y-34720814D01*
X16021398Y-34589125D01*
X16000520Y-34522447D01*
X16000500Y-34520234D01*
X16000500Y-33336746D01*
X16000500Y-33336744D01*
X15959577Y-33184017D01*
X15959577Y-33184016D01*
X15927846Y-33129057D01*
X15880520Y-33047085D01*
X15768716Y-32935281D01*
X15768715Y-32935280D01*
X15764385Y-32930950D01*
X15764374Y-32930940D01*
X15070789Y-32237355D01*
X15070787Y-32237352D01*
X14951916Y-32118481D01*
X14951908Y-32118475D01*
X14858712Y-32064669D01*
X14858710Y-32064668D01*
X14814989Y-32039425D01*
X14814988Y-32039424D01*
X14788356Y-32032288D01*
X14662256Y-31998499D01*
X14504142Y-31998499D01*
X14496546Y-31998499D01*
X14496530Y-31998500D01*
X14124000Y-31998500D01*
X14056961Y-31978815D01*
X14011206Y-31926011D01*
X14000000Y-31874500D01*
X14000000Y-20928020D01*
X14019685Y-20860981D01*
X14055114Y-20824915D01*
X14061289Y-20820789D01*
X14172789Y-20709289D01*
X14260394Y-20578179D01*
X14320737Y-20432497D01*
X14351500Y-20277842D01*
X14351500Y-20120158D01*
X14351500Y-20120155D01*
X14351499Y-20120153D01*
X14351469Y-20120000D01*
X14320737Y-19965503D01*
X14304793Y-19927011D01*
X14260397Y-19819827D01*
X14260390Y-19819814D01*
X14172790Y-19688712D01*
X14121578Y-19637500D01*
X14061289Y-19577211D01*
X14061282Y-19577206D01*
X14055105Y-19573078D01*
X14010302Y-19519464D01*
X14000000Y-19469979D01*
X14000000Y-18693511D01*
X14019685Y-18626472D01*
X14072489Y-18580717D01*
X14141647Y-18570773D01*
X14205203Y-18599798D01*
X14228992Y-18627537D01*
X14299054Y-18739039D01*
X14415847Y-18885493D01*
X14488563Y-18976677D01*
X14509175Y-19002523D01*
X14747477Y-19240825D01*
X15010961Y-19450946D01*
X15296314Y-19630246D01*
X15599949Y-19776469D01*
X15819371Y-19853248D01*
X15918034Y-19887772D01*
X15918046Y-19887776D01*
X16246606Y-19962767D01*
X16581492Y-20000499D01*
X16581493Y-20000500D01*
X16581496Y-20000500D01*
X16918507Y-20000500D01*
X16918507Y-20000499D01*
X17253394Y-19962767D01*
X17581954Y-19887776D01*
X17900051Y-19776469D01*
X18203686Y-19630246D01*
X18489039Y-19450946D01*
X18752523Y-19240825D01*
X18990825Y-19002523D01*
X19200946Y-18739039D01*
X19380246Y-18453686D01*
X19526469Y-18150051D01*
X19637776Y-17831954D01*
X19712767Y-17503394D01*
X19750500Y-17168504D01*
X19750500Y-16831496D01*
X19712767Y-16496606D01*
X19637776Y-16168046D01*
X19526469Y-15849949D01*
X19380246Y-15546314D01*
X19200946Y-15260961D01*
X18990825Y-14997477D01*
X18752523Y-14759175D01*
X18489039Y-14549054D01*
X18443321Y-14520327D01*
X18339641Y-14455180D01*
X18293350Y-14402845D01*
X18282702Y-14333791D01*
X18311077Y-14269943D01*
X18369467Y-14231571D01*
X18404932Y-14226189D01*
X55466480Y-14025856D01*
X55533622Y-14045178D01*
X55579661Y-14097734D01*
X55589978Y-14166837D01*
X55561298Y-14230549D01*
X55520949Y-14261574D01*
X55296316Y-14369752D01*
X55010962Y-14549053D01*
X54747477Y-14759174D01*
X54509174Y-14997477D01*
X54299053Y-15260962D01*
X54119752Y-15546316D01*
X53973532Y-15849945D01*
X53862227Y-16168034D01*
X53862223Y-16168046D01*
X53787233Y-16496602D01*
X53787231Y-16496618D01*
X53749500Y-16831491D01*
X53749500Y-17168508D01*
X53787231Y-17503381D01*
X53787233Y-17503397D01*
X53862223Y-17831953D01*
X53862227Y-17831965D01*
X53973532Y-18150054D01*
X54119752Y-18453683D01*
X54148863Y-18500013D01*
X54299054Y-18739039D01*
X54415847Y-18885493D01*
X54488563Y-18976677D01*
X54509175Y-19002523D01*
X54747477Y-19240825D01*
X55010961Y-19450946D01*
X55296314Y-19630246D01*
X55599949Y-19776469D01*
X55819371Y-19853248D01*
X55918034Y-19887772D01*
X55918046Y-19887776D01*
X56246606Y-19962767D01*
X56581492Y-20000499D01*
X56581493Y-20000500D01*
X56581496Y-20000500D01*
X56918507Y-20000500D01*
X56918507Y-20000499D01*
X57253394Y-19962767D01*
X57581954Y-19887776D01*
X57900051Y-19776469D01*
X58203686Y-19630246D01*
X58489039Y-19450946D01*
X58752523Y-19240825D01*
X58990825Y-19002523D01*
X59200946Y-18739039D01*
X59380246Y-18453686D01*
X59526469Y-18150051D01*
X59637776Y-17831954D01*
X59712767Y-17503394D01*
X59750500Y-17168504D01*
X59750500Y-16831496D01*
X59712767Y-16496606D01*
X59637776Y-16168046D01*
X59526469Y-15849949D01*
X59380246Y-15546314D01*
X59200946Y-15260961D01*
X58990825Y-14997477D01*
X58752523Y-14759175D01*
X58489039Y-14549054D01*
X58203686Y-14369754D01*
X58203683Y-14369752D01*
X57950570Y-14247859D01*
X57898711Y-14201036D01*
X57880398Y-14133609D01*
X57901446Y-14066985D01*
X57955172Y-14022317D01*
X58003696Y-14012142D01*
X60124876Y-14000676D01*
X60192020Y-14019998D01*
G37*
%TD.AperFunction*%
%TA.AperFunction,Conductor*%
G36*
X25325039Y-21220185D02*
G01*
X25370794Y-21272989D01*
X25382000Y-21324500D01*
X25382000Y-21616502D01*
X25387619Y-21695069D01*
X25386419Y-21695154D01*
X25388773Y-21701465D01*
X25382702Y-21729374D01*
X25379649Y-21757767D01*
X25375018Y-21764697D01*
X25373922Y-21769738D01*
X25352771Y-21797993D01*
X25269480Y-21881284D01*
X25269479Y-21881284D01*
X25269478Y-21881285D01*
X24719481Y-22431282D01*
X24719479Y-22431285D01*
X24707712Y-22451667D01*
X24690324Y-22481784D01*
X24669814Y-22517308D01*
X24640715Y-22567710D01*
X24640423Y-22568215D01*
X24599499Y-22720943D01*
X24599499Y-22720945D01*
X24599499Y-22889046D01*
X24599500Y-22889059D01*
X24599500Y-23540201D01*
X24579815Y-23607240D01*
X24540598Y-23645739D01*
X24481344Y-23682287D01*
X24357288Y-23806343D01*
X24357283Y-23806349D01*
X24355241Y-23809661D01*
X24353247Y-23811453D01*
X24352807Y-23812011D01*
X24352711Y-23811935D01*
X24303291Y-23856383D01*
X24234328Y-23867602D01*
X24170247Y-23839755D01*
X24144168Y-23809656D01*
X24142319Y-23806659D01*
X24142316Y-23806655D01*
X24018345Y-23682684D01*
X23869124Y-23590643D01*
X23869119Y-23590641D01*
X23702697Y-23535494D01*
X23702690Y-23535493D01*
X23599986Y-23525000D01*
X23550000Y-23525000D01*
X23550000Y-25974999D01*
X23599972Y-25974999D01*
X23599986Y-25974998D01*
X23702697Y-25964505D01*
X23869119Y-25909358D01*
X23869124Y-25909356D01*
X24018345Y-25817315D01*
X24142318Y-25693342D01*
X24144165Y-25690348D01*
X24145969Y-25688724D01*
X24146798Y-25687677D01*
X24146976Y-25687818D01*
X24196110Y-25643621D01*
X24265073Y-25632396D01*
X24329156Y-25660236D01*
X24355243Y-25690341D01*
X24357288Y-25693656D01*
X24481344Y-25817712D01*
X24630666Y-25909814D01*
X24797203Y-25964999D01*
X24899991Y-25975500D01*
X25500008Y-25975499D01*
X25508264Y-25974655D01*
X25576955Y-25987419D01*
X25623976Y-26029121D01*
X25678210Y-26110288D01*
X25678213Y-26110292D01*
X25789707Y-26221786D01*
X25789711Y-26221789D01*
X25920814Y-26309390D01*
X25920827Y-26309397D01*
X26030082Y-26354651D01*
X26066503Y-26369737D01*
X26084108Y-26373238D01*
X26097691Y-26375941D01*
X26159602Y-26408325D01*
X26194176Y-26469041D01*
X26197500Y-26497558D01*
X26197500Y-28789590D01*
X26197499Y-28789608D01*
X26197499Y-28955314D01*
X26197498Y-28955314D01*
X26197499Y-28955317D01*
X26238423Y-29108045D01*
X26238424Y-29108046D01*
X26252128Y-29131784D01*
X26252129Y-29131785D01*
X26317475Y-29244969D01*
X26317481Y-29244977D01*
X26436349Y-29363845D01*
X26436355Y-29363850D01*
X26863879Y-29791374D01*
X26863889Y-29791385D01*
X26868219Y-29795715D01*
X26868220Y-29795716D01*
X26980024Y-29907520D01*
X27060629Y-29954057D01*
X27116955Y-29986577D01*
X27269683Y-30027501D01*
X27269686Y-30027501D01*
X27435393Y-30027501D01*
X27435409Y-30027500D01*
X28426903Y-30027500D01*
X28493942Y-30047185D01*
X28514584Y-30063819D01*
X29798689Y-31347924D01*
X29798699Y-31347935D01*
X29803029Y-31352265D01*
X29803030Y-31352266D01*
X29914834Y-31464070D01*
X29914836Y-31464071D01*
X29914840Y-31464074D01*
X30013342Y-31520943D01*
X30051766Y-31543127D01*
X30145396Y-31568215D01*
X30204492Y-31584050D01*
X30204493Y-31584050D01*
X30866353Y-31584050D01*
X30933392Y-31603735D01*
X30954034Y-31620369D01*
X31312181Y-31978516D01*
X31345666Y-32039839D01*
X31348500Y-32066197D01*
X31348500Y-34479430D01*
X31348499Y-34479448D01*
X31348499Y-34645154D01*
X31348498Y-34645154D01*
X31386640Y-34787502D01*
X31389423Y-34797885D01*
X31408667Y-34831216D01*
X31467249Y-34932684D01*
X31468479Y-34934814D01*
X31468481Y-34934817D01*
X31587349Y-35053685D01*
X31587355Y-35053690D01*
X33272067Y-36738402D01*
X33272077Y-36738413D01*
X33276407Y-36742743D01*
X33276408Y-36742744D01*
X33388212Y-36854548D01*
X33463377Y-36897944D01*
X33463378Y-36897945D01*
X33525137Y-36933602D01*
X33525138Y-36933602D01*
X33525143Y-36933605D01*
X33677870Y-36974528D01*
X33677871Y-36974528D01*
X36376986Y-36974528D01*
X36444025Y-36994213D01*
X36489780Y-37047017D01*
X36498603Y-37074336D01*
X36530261Y-37233491D01*
X36530264Y-37233501D01*
X36590602Y-37379172D01*
X36590609Y-37379185D01*
X36678210Y-37510288D01*
X36678213Y-37510292D01*
X36708896Y-37540975D01*
X36742381Y-37602298D01*
X36737397Y-37671990D01*
X36695525Y-37727923D01*
X36679671Y-37738013D01*
X36674819Y-37740606D01*
X36543711Y-37828210D01*
X36543707Y-37828213D01*
X36432213Y-37939707D01*
X36432210Y-37939711D01*
X36344609Y-38070814D01*
X36344602Y-38070827D01*
X36284264Y-38216498D01*
X36284261Y-38216508D01*
X36254355Y-38366856D01*
X36245590Y-38383611D01*
X36241571Y-38402089D01*
X36222825Y-38427132D01*
X36221970Y-38428767D01*
X36220421Y-38430344D01*
X36188583Y-38462181D01*
X36127263Y-38495666D01*
X36100903Y-38498500D01*
X29050098Y-38498500D01*
X28983059Y-38478815D01*
X28962417Y-38462181D01*
X28237590Y-37737355D01*
X28237588Y-37737352D01*
X28118717Y-37618481D01*
X28118709Y-37618475D01*
X28014182Y-37558127D01*
X28014179Y-37558126D01*
X27981787Y-37539424D01*
X27981786Y-37539423D01*
X27981785Y-37539423D01*
X27829057Y-37498499D01*
X27670943Y-37498499D01*
X27663347Y-37498499D01*
X27663331Y-37498500D01*
X25700096Y-37498500D01*
X25633057Y-37478815D01*
X25587302Y-37426011D01*
X25577358Y-37356853D01*
X25606383Y-37293297D01*
X25612396Y-37286838D01*
X25639138Y-37260095D01*
X25700457Y-37226612D01*
X25739421Y-37224420D01*
X25749991Y-37225500D01*
X26350008Y-37225499D01*
X26350016Y-37225498D01*
X26350019Y-37225498D01*
X26406302Y-37219748D01*
X26452797Y-37214999D01*
X26619334Y-37159814D01*
X26768656Y-37067712D01*
X26892712Y-36943656D01*
X26894752Y-36940347D01*
X26896745Y-36938555D01*
X26897193Y-36937989D01*
X26897289Y-36938065D01*
X26946694Y-36893623D01*
X27015656Y-36882395D01*
X27079740Y-36910234D01*
X27105829Y-36940339D01*
X27107681Y-36943341D01*
X27107683Y-36943344D01*
X27231654Y-37067315D01*
X27380875Y-37159356D01*
X27380880Y-37159358D01*
X27547302Y-37214505D01*
X27547309Y-37214506D01*
X27650019Y-37224999D01*
X28200000Y-37224999D01*
X28249972Y-37224999D01*
X28249986Y-37224998D01*
X28352697Y-37214505D01*
X28519119Y-37159358D01*
X28519124Y-37159356D01*
X28668345Y-37067315D01*
X28792315Y-36943345D01*
X28884356Y-36794124D01*
X28884358Y-36794119D01*
X28939505Y-36627697D01*
X28939506Y-36627690D01*
X28949999Y-36524986D01*
X28950000Y-36524973D01*
X28950000Y-36250000D01*
X28200000Y-36250000D01*
X28200000Y-37224999D01*
X27650019Y-37224999D01*
X27699999Y-37224998D01*
X27700000Y-37224998D01*
X27700000Y-35750000D01*
X28200000Y-35750000D01*
X28949999Y-35750000D01*
X28949999Y-35475028D01*
X28949998Y-35475013D01*
X28939505Y-35372302D01*
X28884358Y-35205880D01*
X28884356Y-35205875D01*
X28792315Y-35056654D01*
X28668345Y-34932684D01*
X28519124Y-34840643D01*
X28519119Y-34840641D01*
X28352697Y-34785494D01*
X28352690Y-34785493D01*
X28249986Y-34775000D01*
X28200000Y-34775000D01*
X28200000Y-35750000D01*
X27700000Y-35750000D01*
X27700000Y-34775000D01*
X27699999Y-34774999D01*
X27650029Y-34775000D01*
X27650011Y-34775001D01*
X27547302Y-34785494D01*
X27380880Y-34840641D01*
X27380875Y-34840643D01*
X27231654Y-34932684D01*
X27107683Y-35056655D01*
X27107679Y-35056660D01*
X27105826Y-35059665D01*
X27104018Y-35061290D01*
X27103202Y-35062323D01*
X27103025Y-35062183D01*
X27053874Y-35106385D01*
X26984911Y-35117601D01*
X26920831Y-35089752D01*
X26894753Y-35059653D01*
X26894706Y-35059577D01*
X26892712Y-35056344D01*
X26768656Y-34932288D01*
X26768655Y-34932287D01*
X26709402Y-34895739D01*
X26702578Y-34888152D01*
X26693297Y-34883914D01*
X26679609Y-34862615D01*
X26662678Y-34843791D01*
X26660033Y-34832154D01*
X26655523Y-34825136D01*
X26650500Y-34790201D01*
X26650500Y-34762597D01*
X26670185Y-34695558D01*
X26686819Y-34674916D01*
X26974916Y-34386819D01*
X27036239Y-34353334D01*
X27062597Y-34350500D01*
X28775003Y-34350500D01*
X28775008Y-34350500D01*
X28877797Y-34339999D01*
X29044334Y-34284814D01*
X29193655Y-34192711D01*
X29317711Y-34068655D01*
X29409814Y-33919334D01*
X29464999Y-33752797D01*
X29475500Y-33650008D01*
X29475500Y-31649992D01*
X29464999Y-31547203D01*
X29409814Y-31380666D01*
X29402134Y-31368215D01*
X29317713Y-31231348D01*
X29317710Y-31231344D01*
X29193655Y-31107289D01*
X29193651Y-31107286D01*
X29044337Y-31015187D01*
X29044335Y-31015186D01*
X28961065Y-30987593D01*
X28877797Y-30960001D01*
X28877795Y-30960000D01*
X28775015Y-30949500D01*
X28775008Y-30949500D01*
X25849992Y-30949500D01*
X25849982Y-30949500D01*
X25775116Y-30957149D01*
X25775114Y-30957149D01*
X25747203Y-30960001D01*
X25580666Y-31015186D01*
X25567635Y-31023223D01*
X25567630Y-31023225D01*
X25431348Y-31107286D01*
X25431344Y-31107289D01*
X25307289Y-31231344D01*
X25307286Y-31231348D01*
X25215187Y-31380662D01*
X25215186Y-31380664D01*
X25160001Y-31547203D01*
X25160000Y-31547204D01*
X25149500Y-31649984D01*
X25149500Y-33650015D01*
X25160000Y-33752795D01*
X25160001Y-33752796D01*
X25215186Y-33919335D01*
X25215187Y-33919337D01*
X25307286Y-34068651D01*
X25307289Y-34068655D01*
X25435346Y-34196712D01*
X25468831Y-34258035D01*
X25467440Y-34316486D01*
X25449499Y-34383443D01*
X25449499Y-34551546D01*
X25449500Y-34551559D01*
X25449500Y-34790201D01*
X25429815Y-34857240D01*
X25390598Y-34895739D01*
X25331344Y-34932287D01*
X25207289Y-35056342D01*
X25115187Y-35205663D01*
X25115185Y-35205668D01*
X25106100Y-35233086D01*
X25060001Y-35372203D01*
X25060001Y-35372204D01*
X25060000Y-35372204D01*
X25049500Y-35474983D01*
X25049500Y-36099901D01*
X25029815Y-36166940D01*
X25013180Y-36187582D01*
X24346215Y-36854550D01*
X24139584Y-37061181D01*
X24078261Y-37094666D01*
X24051903Y-37097500D01*
X23169407Y-37097500D01*
X23102368Y-37077815D01*
X23056613Y-37025011D01*
X23046669Y-36955853D01*
X23063868Y-36908403D01*
X23134356Y-36794124D01*
X23134358Y-36794119D01*
X23189505Y-36627697D01*
X23189506Y-36627690D01*
X23199999Y-36524986D01*
X23200000Y-36524973D01*
X23200000Y-36250000D01*
X22324000Y-36250000D01*
X22256961Y-36230315D01*
X22211206Y-36177511D01*
X22200000Y-36126000D01*
X22200000Y-36000000D01*
X22074000Y-36000000D01*
X22006961Y-35980315D01*
X21961206Y-35927511D01*
X21950000Y-35876000D01*
X21950000Y-35750000D01*
X22450000Y-35750000D01*
X23199999Y-35750000D01*
X23199999Y-35475028D01*
X23199998Y-35475013D01*
X23189505Y-35372302D01*
X23134358Y-35205880D01*
X23134356Y-35205875D01*
X23042315Y-35056654D01*
X22918345Y-34932684D01*
X22769124Y-34840643D01*
X22769119Y-34840641D01*
X22602697Y-34785494D01*
X22602690Y-34785493D01*
X22499986Y-34775000D01*
X22450000Y-34775000D01*
X22450000Y-35750000D01*
X21950000Y-35750000D01*
X21950000Y-34775000D01*
X21949999Y-34774999D01*
X21900029Y-34775000D01*
X21900011Y-34775001D01*
X21797302Y-34785494D01*
X21630880Y-34840641D01*
X21630875Y-34840643D01*
X21481654Y-34932684D01*
X21357683Y-35056655D01*
X21357679Y-35056660D01*
X21355826Y-35059665D01*
X21354018Y-35061290D01*
X21353202Y-35062323D01*
X21353025Y-35062183D01*
X21303874Y-35106385D01*
X21234911Y-35117601D01*
X21170831Y-35089752D01*
X21160383Y-35079953D01*
X21151515Y-35070616D01*
X21142712Y-35056344D01*
X21048099Y-34961731D01*
X21047003Y-34960577D01*
X21031750Y-34930849D01*
X21015747Y-34901541D01*
X21015865Y-34899887D01*
X21015108Y-34898412D01*
X21018348Y-34865170D01*
X21020731Y-34831849D01*
X21021750Y-34830262D01*
X21021886Y-34828872D01*
X21025961Y-34823710D01*
X21049232Y-34787502D01*
X21228292Y-34608443D01*
X21449916Y-34386819D01*
X21511239Y-34353334D01*
X21537597Y-34350500D01*
X23250003Y-34350500D01*
X23250008Y-34350500D01*
X23352797Y-34339999D01*
X23519334Y-34284814D01*
X23668655Y-34192711D01*
X23792711Y-34068655D01*
X23884814Y-33919334D01*
X23939999Y-33752797D01*
X23950500Y-33650008D01*
X23950500Y-31649992D01*
X23939999Y-31547203D01*
X23884814Y-31380666D01*
X23877134Y-31368215D01*
X23792713Y-31231348D01*
X23792710Y-31231344D01*
X23668655Y-31107289D01*
X23668651Y-31107286D01*
X23519337Y-31015187D01*
X23519335Y-31015186D01*
X23436065Y-30987593D01*
X23352797Y-30960001D01*
X23352795Y-30960000D01*
X23250015Y-30949500D01*
X23250008Y-30949500D01*
X21049097Y-30949500D01*
X20982058Y-30929815D01*
X20936303Y-30877011D01*
X20926359Y-30807853D01*
X20955384Y-30744297D01*
X20961416Y-30737819D01*
X21062416Y-30636819D01*
X21123739Y-30603334D01*
X21150097Y-30600500D01*
X24770234Y-30600500D01*
X24788377Y-30605827D01*
X24807287Y-30606165D01*
X24835504Y-30619665D01*
X24837273Y-30620185D01*
X24839125Y-30621398D01*
X24970814Y-30709390D01*
X24970827Y-30709397D01*
X25085236Y-30756786D01*
X25116503Y-30769737D01*
X25215511Y-30789431D01*
X25271153Y-30800499D01*
X25271156Y-30800500D01*
X25271158Y-30800500D01*
X25428844Y-30800500D01*
X25450061Y-30796279D01*
X25583497Y-30769737D01*
X25729179Y-30709394D01*
X25860289Y-30621789D01*
X25971789Y-30510289D01*
X26059394Y-30379179D01*
X26119737Y-30233497D01*
X26150500Y-30078842D01*
X26150500Y-29921158D01*
X26150500Y-29921155D01*
X26150499Y-29921153D01*
X26119738Y-29766510D01*
X26119737Y-29766503D01*
X26106953Y-29735639D01*
X26059397Y-29620827D01*
X26059390Y-29620814D01*
X25971789Y-29489711D01*
X25971786Y-29489707D01*
X25860292Y-29378213D01*
X25860288Y-29378210D01*
X25729185Y-29290609D01*
X25729172Y-29290602D01*
X25583501Y-29230264D01*
X25583489Y-29230261D01*
X25428845Y-29199500D01*
X25428842Y-29199500D01*
X25271158Y-29199500D01*
X25271155Y-29199500D01*
X25116510Y-29230261D01*
X25116498Y-29230264D01*
X24970827Y-29290602D01*
X24970814Y-29290609D01*
X24839125Y-29378602D01*
X24772447Y-29399480D01*
X24770234Y-29399500D01*
X20770941Y-29399500D01*
X20730800Y-29410255D01*
X20730801Y-29410256D01*
X20618214Y-29440423D01*
X20618209Y-29440426D01*
X20481290Y-29519475D01*
X20481282Y-29519481D01*
X19512181Y-30488583D01*
X19450858Y-30522068D01*
X19381166Y-30517084D01*
X19325233Y-30475212D01*
X19300816Y-30409748D01*
X19300500Y-30400902D01*
X19300500Y-25274986D01*
X22300001Y-25274986D01*
X22310494Y-25377697D01*
X22365641Y-25544119D01*
X22365643Y-25544124D01*
X22457684Y-25693345D01*
X22581654Y-25817315D01*
X22730875Y-25909356D01*
X22730880Y-25909358D01*
X22897302Y-25964505D01*
X22897309Y-25964506D01*
X23000019Y-25974999D01*
X23049999Y-25974998D01*
X23050000Y-25974998D01*
X23050000Y-25000000D01*
X22300001Y-25000000D01*
X22300001Y-25274986D01*
X19300500Y-25274986D01*
X19300500Y-24225013D01*
X22300000Y-24225013D01*
X22300000Y-24500000D01*
X23050000Y-24500000D01*
X23050000Y-23525000D01*
X23049999Y-23524999D01*
X23000029Y-23525000D01*
X23000011Y-23525001D01*
X22897302Y-23535494D01*
X22730880Y-23590641D01*
X22730875Y-23590643D01*
X22581654Y-23682684D01*
X22457684Y-23806654D01*
X22365643Y-23955875D01*
X22365641Y-23955880D01*
X22310494Y-24122302D01*
X22310493Y-24122309D01*
X22300000Y-24225013D01*
X19300500Y-24225013D01*
X19300500Y-22950097D01*
X19320185Y-22883058D01*
X19336819Y-22862416D01*
X20962417Y-21236819D01*
X21023740Y-21203334D01*
X21050098Y-21200500D01*
X25258000Y-21200500D01*
X25325039Y-21220185D01*
G37*
%TD.AperFunction*%
%TA.AperFunction,Conductor*%
G36*
X35091998Y-28545185D02*
G01*
X35112640Y-28561819D01*
X35132341Y-28581520D01*
X35132343Y-28581521D01*
X35132347Y-28581524D01*
X35238922Y-28643054D01*
X35269273Y-28660577D01*
X35422000Y-28701501D01*
X35422002Y-28701501D01*
X35587711Y-28701501D01*
X35587727Y-28701500D01*
X38014062Y-28701500D01*
X38040792Y-28709349D01*
X38068271Y-28713977D01*
X38073857Y-28719058D01*
X38081101Y-28721185D01*
X38099343Y-28742238D01*
X38119960Y-28760989D01*
X38122957Y-28769490D01*
X38126856Y-28773989D01*
X38133845Y-28793437D01*
X38135942Y-28801271D01*
X38139956Y-28831762D01*
X38151680Y-28860067D01*
X38153787Y-28867937D01*
X38153134Y-28895055D01*
X38156033Y-28922019D01*
X38152169Y-28935176D01*
X38152107Y-28937786D01*
X38150865Y-28939619D01*
X38148566Y-28947450D01*
X38139957Y-28968234D01*
X38139955Y-28968239D01*
X38124500Y-29085638D01*
X38124500Y-29364363D01*
X38139953Y-29481753D01*
X38139957Y-29481765D01*
X38148566Y-29502550D01*
X38156033Y-29572019D01*
X38148566Y-29597450D01*
X38139957Y-29618234D01*
X38139955Y-29618239D01*
X38124500Y-29735638D01*
X38124500Y-30014363D01*
X38139953Y-30131753D01*
X38139957Y-30131765D01*
X38148566Y-30152550D01*
X38156033Y-30222019D01*
X38148566Y-30247450D01*
X38139957Y-30268234D01*
X38139955Y-30268239D01*
X38124500Y-30385638D01*
X38124500Y-30450499D01*
X38104815Y-30517538D01*
X38052011Y-30563293D01*
X38000500Y-30574499D01*
X37995943Y-30574499D01*
X37933037Y-30591355D01*
X37843214Y-30615423D01*
X37843209Y-30615426D01*
X37706290Y-30694475D01*
X37706282Y-30694481D01*
X37281284Y-31119481D01*
X37169483Y-31231281D01*
X37169481Y-31231284D01*
X37090423Y-31368214D01*
X37090423Y-31368215D01*
X37049499Y-31520943D01*
X37049499Y-31679057D01*
X37057775Y-31709942D01*
X37062000Y-31742036D01*
X37062000Y-31857491D01*
X37042315Y-31924530D01*
X37003098Y-31963029D01*
X36931344Y-32007287D01*
X36807289Y-32131342D01*
X36715187Y-32280663D01*
X36715185Y-32280668D01*
X36676064Y-32398729D01*
X36636291Y-32456174D01*
X36571775Y-32482997D01*
X36503000Y-32470682D01*
X36451800Y-32423139D01*
X36440652Y-32398729D01*
X36409814Y-32305666D01*
X36317712Y-32156344D01*
X36193656Y-32032288D01*
X36044334Y-31940186D01*
X35877797Y-31885001D01*
X35877795Y-31885000D01*
X35775016Y-31874500D01*
X35775009Y-31874500D01*
X35400500Y-31874500D01*
X35333461Y-31854815D01*
X35287706Y-31802011D01*
X35276500Y-31750500D01*
X35276500Y-30827076D01*
X35276500Y-30827073D01*
X35257667Y-30756785D01*
X35235577Y-30674345D01*
X35205233Y-30621789D01*
X35156520Y-30537414D01*
X35044716Y-30425610D01*
X35044715Y-30425609D01*
X35040385Y-30421279D01*
X35040374Y-30421269D01*
X34886653Y-30267548D01*
X34853168Y-30206225D01*
X34858152Y-30136533D01*
X34859760Y-30132445D01*
X34860044Y-30131762D01*
X34875500Y-30014361D01*
X34875499Y-29735640D01*
X34860044Y-29618238D01*
X34860042Y-29618234D01*
X34851435Y-29597455D01*
X34843965Y-29527986D01*
X34851435Y-29502545D01*
X34856751Y-29489711D01*
X34860044Y-29481762D01*
X34875500Y-29364361D01*
X34875499Y-29085640D01*
X34875499Y-29085638D01*
X34875499Y-29085636D01*
X34860046Y-28968246D01*
X34860044Y-28968239D01*
X34860044Y-28968238D01*
X34851162Y-28946797D01*
X34843694Y-28877328D01*
X34851164Y-28851890D01*
X34859555Y-28831632D01*
X34859555Y-28831630D01*
X34867012Y-28775000D01*
X34824500Y-28775000D01*
X34820842Y-28773926D01*
X34817127Y-28774781D01*
X34787572Y-28764156D01*
X34757461Y-28755315D01*
X34753923Y-28752060D01*
X34751376Y-28751145D01*
X34726124Y-28726487D01*
X34724972Y-28724985D01*
X34699779Y-28659818D01*
X34713817Y-28591373D01*
X34762631Y-28541383D01*
X34823349Y-28525500D01*
X35024959Y-28525500D01*
X35091998Y-28545185D01*
G37*
%TD.AperFunction*%
%TA.AperFunction,Conductor*%
G36*
X32342540Y-26595185D02*
G01*
X32388295Y-26647989D01*
X32399501Y-26699500D01*
X32399501Y-26764363D01*
X32414953Y-26881753D01*
X32414957Y-26881765D01*
X32423566Y-26902550D01*
X32431033Y-26972019D01*
X32423566Y-26997450D01*
X32414957Y-27018234D01*
X32414955Y-27018239D01*
X32399500Y-27135638D01*
X32399500Y-27200500D01*
X32379815Y-27267539D01*
X32327011Y-27313294D01*
X32275500Y-27324500D01*
X32145943Y-27324500D01*
X31993215Y-27365423D01*
X31993214Y-27365423D01*
X31993212Y-27365424D01*
X31993209Y-27365425D01*
X31946813Y-27392213D01*
X31946812Y-27392214D01*
X31905055Y-27416322D01*
X31856285Y-27444479D01*
X31856282Y-27444481D01*
X31369481Y-27931282D01*
X31369479Y-27931285D01*
X31327673Y-28003697D01*
X31327672Y-28003698D01*
X31290423Y-28068214D01*
X31290423Y-28068215D01*
X31249499Y-28220943D01*
X31249499Y-28220945D01*
X31249499Y-28389046D01*
X31249500Y-28389059D01*
X31249500Y-28499903D01*
X31229815Y-28566942D01*
X31213181Y-28587584D01*
X31187584Y-28613181D01*
X31126261Y-28646666D01*
X31099903Y-28649500D01*
X31024500Y-28649500D01*
X30957461Y-28629815D01*
X30911706Y-28577011D01*
X30900500Y-28525500D01*
X30900499Y-27474998D01*
X30900498Y-27474980D01*
X30889999Y-27372203D01*
X30889998Y-27372200D01*
X30873840Y-27323438D01*
X30834814Y-27205666D01*
X30742712Y-27056344D01*
X30618656Y-26932288D01*
X30469334Y-26840186D01*
X30399983Y-26817205D01*
X30342539Y-26777433D01*
X30315716Y-26712917D01*
X30328031Y-26644142D01*
X30375574Y-26592942D01*
X30438988Y-26575500D01*
X32275501Y-26575500D01*
X32342540Y-26595185D01*
G37*
%TD.AperFunction*%
%TA.AperFunction,Conductor*%
G36*
X29428050Y-26595185D02*
G01*
X29473805Y-26647989D01*
X29483749Y-26717147D01*
X29454724Y-26780703D01*
X29400017Y-26817205D01*
X29330669Y-26840185D01*
X29330666Y-26840186D01*
X29330663Y-26840187D01*
X29181342Y-26932289D01*
X29057288Y-27056343D01*
X29057283Y-27056349D01*
X29055241Y-27059661D01*
X29053247Y-27061453D01*
X29052807Y-27062011D01*
X29052711Y-27061935D01*
X29003291Y-27106383D01*
X28934328Y-27117602D01*
X28870247Y-27089755D01*
X28844168Y-27059656D01*
X28842319Y-27056659D01*
X28842316Y-27056655D01*
X28718345Y-26932684D01*
X28569124Y-26840643D01*
X28569119Y-26840641D01*
X28498395Y-26817206D01*
X28440950Y-26777434D01*
X28414127Y-26712918D01*
X28426442Y-26644142D01*
X28473985Y-26592942D01*
X28537399Y-26575500D01*
X29361011Y-26575500D01*
X29428050Y-26595185D01*
G37*
%TD.AperFunction*%
%TD*%
M02*
